<svg width="142" height="26" viewBox="0 0 142 26" fill="none" xmlns="http://www.w3.org/2000/svg">
<g filter="url(#filter0_d_35_113)">
<path d="M3.59606 18.216C3.05206 18.216 2.63606 18.064 2.34806 17.76C2.06006 17.456 1.91606 17.032 1.91606 16.488V2.592C1.91606 2.048 2.06806 1.624 2.37206 1.32C2.69206 1.016 3.12406 0.863999 3.66806 0.863999C4.14806 0.863999 4.52406 0.959999 4.79606 1.152C5.08406 1.328 5.34806 1.64 5.58806 2.088L11.1321 12.216H10.3161L15.8601 2.088C16.1001 1.64 16.3561 1.328 16.6281 1.152C16.9161 0.959999 17.2921 0.863999 17.7561 0.863999C18.3001 0.863999 18.7161 1.016 19.0041 1.32C19.3081 1.624 19.4601 2.048 19.4601 2.592V16.488C19.4601 17.032 19.3161 17.456 19.0281 17.76C18.7401 18.064 18.3241 18.216 17.7801 18.216C17.2361 18.216 16.8121 18.064 16.5081 17.76C16.2201 17.456 16.0761 17.032 16.0761 16.488V6.768H16.6041L12.1401 14.76C11.9481 15.064 11.7401 15.296 11.5161 15.456C11.3081 15.6 11.0281 15.672 10.6761 15.672C10.3241 15.672 10.0361 15.592 9.81206 15.432C9.58806 15.272 9.38806 15.048 9.21206 14.76L4.70006 6.744H5.27606V16.488C5.27606 17.032 5.13206 17.456 4.84406 17.76C4.57206 18.064 4.15606 18.216 3.59606 18.216ZM26.5635 18.264C25.6995 18.264 24.9235 18.096 24.2355 17.76C23.5475 17.424 23.0115 16.968 22.6275 16.392C22.2435 15.816 22.0515 15.168 22.0515 14.448C22.0515 13.584 22.2755 12.904 22.7235 12.408C23.1715 11.896 23.8995 11.536 24.9075 11.328C25.9155 11.104 27.2515 10.992 28.9155 10.992H30.1875V12.864H28.9395C28.1235 12.864 27.4595 12.912 26.9475 13.008C26.4515 13.088 26.0915 13.232 25.8675 13.44C25.6595 13.648 25.5555 13.936 25.5555 14.304C25.5555 14.752 25.7075 15.12 26.0115 15.408C26.3315 15.696 26.7875 15.84 27.3795 15.84C27.8435 15.84 28.2515 15.736 28.6035 15.528C28.9715 15.304 29.2595 15.008 29.4675 14.64C29.6755 14.256 29.7795 13.824 29.7795 13.344V10.584C29.7795 9.88 29.6195 9.384 29.2995 9.096C28.9795 8.792 28.4355 8.64 27.6675 8.64C27.2355 8.64 26.7635 8.696 26.2515 8.808C25.7555 8.904 25.2035 9.072 24.5955 9.312C24.2435 9.472 23.9315 9.512 23.6595 9.432C23.3875 9.336 23.1795 9.176 23.0355 8.952C22.8915 8.712 22.8195 8.456 22.8195 8.184C22.8195 7.896 22.8995 7.624 23.0595 7.368C23.2195 7.096 23.4835 6.896 23.8515 6.768C24.6035 6.464 25.3075 6.256 25.9635 6.144C26.6355 6.032 27.2515 5.976 27.8115 5.976C29.0435 5.976 30.0515 6.16 30.8355 6.528C31.6355 6.88 32.2355 7.432 32.6355 8.184C33.0355 8.92 33.2355 9.872 33.2355 11.04V16.368C33.2355 16.96 33.0915 17.416 32.8035 17.736C32.5155 18.056 32.0995 18.216 31.5555 18.216C31.0115 18.216 30.5875 18.056 30.2835 17.736C29.9955 17.416 29.8515 16.96 29.8515 16.368V15.48L30.0195 15.624C29.9235 16.168 29.7155 16.64 29.3955 17.04C29.0915 17.424 28.6995 17.728 28.2195 17.952C27.7395 18.16 27.1875 18.264 26.5635 18.264ZM37.8109 18.216C37.2029 18.216 36.7389 18.056 36.4189 17.736C36.0989 17.416 35.9389 16.96 35.9389 16.368V7.848C35.9389 7.256 36.0909 6.808 36.3949 6.504C36.7149 6.184 37.1549 6.024 37.7149 6.024C38.2909 6.024 38.7309 6.184 39.0349 6.504C39.3389 6.808 39.4909 7.256 39.4909 7.848V9.096H39.2509C39.4429 8.136 39.8669 7.392 40.5229 6.864C41.1789 6.336 42.0269 6.04 43.0669 5.976C43.4669 5.944 43.7709 6.048 43.9789 6.288C44.2029 6.512 44.3229 6.888 44.3389 7.416C44.3709 7.912 44.2669 8.304 44.0269 8.592C43.8029 8.88 43.4189 9.056 42.8749 9.12L42.3229 9.168C41.4109 9.248 40.7309 9.512 40.2829 9.96C39.8509 10.408 39.6349 11.056 39.6349 11.904V16.368C39.6349 16.96 39.4749 17.416 39.1549 17.736C38.8509 18.056 38.4029 18.216 37.8109 18.216ZM47.6535 18.216C47.0615 18.216 46.6055 18.056 46.2855 17.736C45.9815 17.416 45.8295 16.96 45.8295 16.368V2.712C45.8295 2.104 45.9815 1.648 46.2855 1.344C46.6055 1.024 47.0615 0.863999 47.6535 0.863999C48.2295 0.863999 48.6695 1.024 48.9735 1.344C49.2935 1.648 49.4535 2.104 49.4535 2.712V11.088H49.5015L52.9815 7.224C53.3335 6.824 53.6535 6.528 53.9415 6.336C54.2455 6.128 54.6455 6.024 55.1415 6.024C55.6375 6.024 56.0135 6.152 56.2695 6.408C56.5415 6.664 56.6775 6.976 56.6775 7.344C56.6935 7.696 56.5415 8.056 56.2215 8.424L52.5495 12.528V11.16L56.6295 15.864C56.9335 16.232 57.0615 16.6 57.0135 16.968C56.9815 17.336 56.8215 17.64 56.5335 17.88C56.2455 18.104 55.8775 18.216 55.4295 18.216C54.8855 18.216 54.4455 18.112 54.1095 17.904C53.7895 17.696 53.4615 17.376 53.1255 16.944L49.5015 12.912H49.4535V16.368C49.4535 17.6 48.8535 18.216 47.6535 18.216ZM65.1448 18.264C63.7528 18.264 62.5528 18.016 61.5448 17.52C60.5528 17.008 59.7848 16.296 59.2408 15.384C58.7128 14.456 58.4488 13.368 58.4488 12.12C58.4488 10.904 58.7048 9.84 59.2168 8.928C59.7288 8 60.4408 7.28 61.3528 6.768C62.2808 6.24 63.3288 5.976 64.4968 5.976C65.3448 5.976 66.1128 6.12 66.8008 6.408C67.4888 6.68 68.0808 7.08 68.5768 7.608C69.0728 8.12 69.4488 8.752 69.7048 9.504C69.9608 10.24 70.0888 11.064 70.0888 11.976C70.0888 12.28 69.9928 12.512 69.8008 12.672C69.6088 12.816 69.3288 12.888 68.9608 12.888H61.4248V11.016H67.4728L67.0888 11.352C67.0888 10.696 66.9928 10.152 66.8008 9.72C66.6088 9.272 66.3288 8.936 65.9608 8.712C65.6088 8.488 65.1688 8.376 64.6408 8.376C64.0488 8.376 63.5448 8.512 63.1288 8.784C62.7128 9.056 62.3928 9.448 62.1688 9.96C61.9448 10.472 61.8328 11.088 61.8328 11.808V12C61.8328 13.216 62.1128 14.112 62.6728 14.688C63.2488 15.264 64.0968 15.552 65.2168 15.552C65.6008 15.552 66.0408 15.504 66.5368 15.408C67.0328 15.312 67.4968 15.16 67.9288 14.952C68.2968 14.776 68.6248 14.72 68.9128 14.784C69.2008 14.832 69.4248 14.96 69.5848 15.168C69.7448 15.376 69.8328 15.616 69.8488 15.888C69.8808 16.16 69.8248 16.432 69.6808 16.704C69.5368 16.96 69.2968 17.176 68.9608 17.352C68.4168 17.656 67.8008 17.88 67.1128 18.024C66.4408 18.184 65.7848 18.264 65.1448 18.264ZM77.9104 18.264C76.8064 18.264 75.8784 18.08 75.1264 17.712C74.3904 17.344 73.8384 16.808 73.4704 16.104C73.1184 15.4 72.9424 14.512 72.9424 13.44V8.928H71.9344C71.4864 8.928 71.1344 8.808 70.8784 8.568C70.6384 8.328 70.5184 8 70.5184 7.584C70.5184 7.136 70.6384 6.8 70.8784 6.576C71.1344 6.336 71.4864 6.216 71.9344 6.216H72.9424V4.392C72.9424 3.784 73.1024 3.328 73.4224 3.024C73.7424 2.704 74.1904 2.544 74.7664 2.544C75.3584 2.544 75.8064 2.704 76.1104 3.024C76.4144 3.328 76.5664 3.784 76.5664 4.392V6.216H78.8464C79.2944 6.216 79.6384 6.336 79.8784 6.576C80.1184 6.8 80.2384 7.136 80.2384 7.584C80.2384 8 80.1184 8.328 79.8784 8.568C79.6384 8.808 79.2944 8.928 78.8464 8.928H76.5664V13.296C76.5664 13.968 76.7184 14.472 77.0224 14.808C77.3424 15.144 77.8464 15.312 78.5344 15.312C78.7744 15.312 78.9984 15.288 79.2064 15.24C79.4144 15.192 79.6064 15.16 79.7824 15.144C80.0064 15.128 80.1904 15.2 80.3344 15.36C80.4784 15.504 80.5504 15.832 80.5504 16.344C80.5504 16.728 80.4864 17.064 80.3584 17.352C80.2304 17.64 80.0064 17.848 79.6864 17.976C79.4784 18.056 79.1904 18.12 78.8224 18.168C78.4704 18.232 78.1664 18.264 77.9104 18.264ZM83.6535 22.536C83.0615 22.536 82.6055 22.376 82.2855 22.056C81.9815 21.752 81.8295 21.296 81.8295 20.688V7.848C81.8295 7.256 81.9815 6.808 82.2855 6.504C82.6055 6.184 83.0455 6.024 83.6055 6.024C84.1975 6.024 84.6455 6.184 84.9495 6.504C85.2535 6.808 85.4055 7.256 85.4055 7.848V9.48L85.1415 8.544C85.3815 7.776 85.8615 7.16 86.5815 6.696C87.3175 6.216 88.1575 5.976 89.1015 5.976C90.1255 5.976 91.0215 6.224 91.7895 6.72C92.5735 7.216 93.1815 7.92 93.6135 8.832C94.0455 9.744 94.2615 10.832 94.2615 12.096C94.2615 13.36 94.0455 14.456 93.6135 15.384C93.1815 16.312 92.5815 17.024 91.8135 17.52C91.0455 18.016 90.1415 18.264 89.1015 18.264C88.1735 18.264 87.3495 18.04 86.6295 17.592C85.9095 17.128 85.4215 16.528 85.1655 15.792H85.4535V20.688C85.4535 21.296 85.2935 21.752 84.9735 22.056C84.6695 22.376 84.2295 22.536 83.6535 22.536ZM88.0215 15.552C88.5335 15.552 88.9815 15.424 89.3655 15.168C89.7655 14.912 90.0695 14.536 90.2775 14.04C90.5015 13.528 90.6135 12.88 90.6135 12.096C90.6135 10.928 90.3735 10.072 89.8935 9.528C89.4135 8.968 88.7895 8.688 88.0215 8.688C87.5095 8.688 87.0535 8.808 86.6535 9.048C86.2695 9.288 85.9655 9.664 85.7415 10.176C85.5175 10.672 85.4055 11.312 85.4055 12.096C85.4055 13.264 85.6455 14.136 86.1255 14.712C86.6055 15.272 87.2375 15.552 88.0215 15.552ZM100.726 18.264C99.3019 18.264 98.2379 17.872 97.5339 17.088C96.8299 16.288 96.4779 15.104 96.4779 13.536V2.712C96.4779 2.104 96.6299 1.648 96.9339 1.344C97.2539 1.024 97.7099 0.863999 98.3019 0.863999C98.8779 0.863999 99.3179 1.024 99.6219 1.344C99.9419 1.648 100.102 2.104 100.102 2.712V13.392C100.102 14.048 100.238 14.536 100.51 14.856C100.798 15.16 101.174 15.312 101.638 15.312C101.766 15.312 101.886 15.304 101.998 15.288C102.11 15.272 102.23 15.264 102.358 15.264C102.614 15.232 102.79 15.312 102.886 15.504C102.998 15.68 103.054 16.04 103.054 16.584C103.054 17.064 102.958 17.432 102.766 17.688C102.574 17.928 102.278 18.088 101.878 18.168C101.718 18.184 101.534 18.2 101.326 18.216C101.118 18.248 100.918 18.264 100.726 18.264ZM108.454 18.264C107.59 18.264 106.814 18.096 106.126 17.76C105.438 17.424 104.902 16.968 104.518 16.392C104.134 15.816 103.942 15.168 103.942 14.448C103.942 13.584 104.166 12.904 104.614 12.408C105.062 11.896 105.79 11.536 106.798 11.328C107.806 11.104 109.142 10.992 110.806 10.992H112.078V12.864H110.83C110.014 12.864 109.35 12.912 108.838 13.008C108.342 13.088 107.982 13.232 107.758 13.44C107.55 13.648 107.446 13.936 107.446 14.304C107.446 14.752 107.598 15.12 107.902 15.408C108.222 15.696 108.678 15.84 109.27 15.84C109.734 15.84 110.142 15.736 110.494 15.528C110.862 15.304 111.15 15.008 111.358 14.64C111.566 14.256 111.67 13.824 111.67 13.344V10.584C111.67 9.88 111.51 9.384 111.19 9.096C110.87 8.792 110.326 8.64 109.558 8.64C109.126 8.64 108.654 8.696 108.142 8.808C107.646 8.904 107.094 9.072 106.486 9.312C106.134 9.472 105.822 9.512 105.55 9.432C105.278 9.336 105.07 9.176 104.926 8.952C104.782 8.712 104.71 8.456 104.71 8.184C104.71 7.896 104.79 7.624 104.95 7.368C105.11 7.096 105.374 6.896 105.742 6.768C106.494 6.464 107.198 6.256 107.854 6.144C108.526 6.032 109.142 5.976 109.702 5.976C110.934 5.976 111.942 6.16 112.726 6.528C113.526 6.88 114.126 7.432 114.526 8.184C114.926 8.92 115.126 9.872 115.126 11.04V16.368C115.126 16.96 114.982 17.416 114.694 17.736C114.406 18.056 113.99 18.216 113.446 18.216C112.902 18.216 112.478 18.056 112.174 17.736C111.886 17.416 111.742 16.96 111.742 16.368V15.48L111.91 15.624C111.814 16.168 111.606 16.64 111.286 17.04C110.982 17.424 110.59 17.728 110.11 17.952C109.63 18.16 109.078 18.264 108.454 18.264ZM123.566 18.264C122.286 18.264 121.166 18.016 120.206 17.52C119.262 17.008 118.534 16.288 118.021 15.36C117.51 14.432 117.254 13.336 117.254 12.072C117.254 11.128 117.398 10.28 117.686 9.528C117.974 8.776 118.39 8.136 118.934 7.608C119.494 7.08 120.166 6.68 120.95 6.408C121.734 6.12 122.606 5.976 123.566 5.976C124.062 5.976 124.59 6.04 125.15 6.168C125.71 6.28 126.262 6.48 126.806 6.768C127.126 6.912 127.342 7.12 127.454 7.392C127.582 7.648 127.63 7.92 127.598 8.208C127.566 8.48 127.462 8.728 127.286 8.952C127.126 9.16 126.918 9.304 126.662 9.384C126.406 9.448 126.118 9.4 125.798 9.24C125.494 9.064 125.174 8.936 124.838 8.856C124.518 8.776 124.214 8.736 123.926 8.736C123.446 8.736 123.022 8.816 122.654 8.976C122.286 9.12 121.974 9.336 121.718 9.624C121.478 9.896 121.286 10.24 121.142 10.656C121.014 11.072 120.95 11.552 120.95 12.096C120.95 13.152 121.206 13.984 121.718 14.592C122.246 15.184 122.982 15.48 123.926 15.48C124.214 15.48 124.518 15.448 124.838 15.384C125.158 15.304 125.478 15.176 125.798 15C126.118 14.84 126.406 14.8 126.662 14.88C126.918 14.96 127.118 15.112 127.262 15.336C127.422 15.544 127.51 15.792 127.526 16.08C127.558 16.352 127.51 16.624 127.382 16.896C127.27 17.152 127.062 17.352 126.758 17.496C126.214 17.768 125.67 17.96 125.126 18.072C124.582 18.2 124.062 18.264 123.566 18.264ZM135.176 18.264C133.784 18.264 132.584 18.016 131.576 17.52C130.584 17.008 129.816 16.296 129.272 15.384C128.744 14.456 128.48 13.368 128.48 12.12C128.48 10.904 128.736 9.84 129.248 8.928C129.76 8 130.472 7.28 131.384 6.768C132.312 6.24 133.36 5.976 134.528 5.976C135.376 5.976 136.144 6.12 136.832 6.408C137.52 6.68 138.112 7.08 138.608 7.608C139.104 8.12 139.48 8.752 139.736 9.504C139.992 10.24 140.12 11.064 140.12 11.976C140.12 12.28 140.024 12.512 139.832 12.672C139.64 12.816 139.36 12.888 138.992 12.888H131.456V11.016H137.504L137.12 11.352C137.12 10.696 137.024 10.152 136.832 9.72C136.64 9.272 136.36 8.936 135.992 8.712C135.64 8.488 135.2 8.376 134.672 8.376C134.08 8.376 133.576 8.512 133.16 8.784C132.744 9.056 132.424 9.448 132.2 9.96C131.976 10.472 131.864 11.088 131.864 11.808V12C131.864 13.216 132.144 14.112 132.704 14.688C133.28 15.264 134.128 15.552 135.248 15.552C135.632 15.552 136.072 15.504 136.568 15.408C137.064 15.312 137.528 15.16 137.96 14.952C138.328 14.776 138.656 14.72 138.944 14.784C139.232 14.832 139.456 14.96 139.616 15.168C139.776 15.376 139.864 15.616 139.88 15.888C139.912 16.16 139.856 16.432 139.712 16.704C139.568 16.96 139.328 17.176 138.992 17.352C138.448 17.656 137.832 17.88 137.144 18.024C136.472 18.184 135.816 18.264 135.176 18.264Z" fill="url(#paint0_linear_35_113)"/>
<path d="M2.34806 17.76L3.79997 16.3845L2.34806 17.76ZM2.37206 1.32L0.994564 -0.13L0.975977 -0.112343L0.957849 -0.0942149L2.37206 1.32ZM4.79606 1.152L3.64269 2.78593L3.69673 2.82408L3.75316 2.85856L4.79606 1.152ZM5.58806 2.088L3.8251 3.03244L3.82937 3.0404L3.8337 3.04832L5.58806 2.088ZM11.1321 12.216V14.216H14.5069L12.8864 11.2557L11.1321 12.216ZM10.3161 12.216L8.5617 11.2557L6.94124 14.216H10.3161V12.216ZM15.8601 2.088L17.6144 3.04832L17.6188 3.0404L17.623 3.03244L15.8601 2.088ZM16.6281 1.152L17.7146 2.83114L17.7261 2.8237L17.7375 2.8161L16.6281 1.152ZM19.0041 1.32L17.5522 2.69549L17.5707 2.71511L17.5898 2.73421L19.0041 1.32ZM19.0281 17.76L17.5762 16.3845L19.0281 17.76ZM16.5081 17.76L15.0562 19.1355L15.0747 19.1551L15.0939 19.1742L16.5081 17.76ZM16.0761 6.768V4.768H14.0761V6.768H16.0761ZM16.6041 6.768L18.3501 7.74329L20.012 4.768H16.6041V6.768ZM12.1401 14.76L13.831 15.828L13.8598 15.7824L13.8861 15.7353L12.1401 14.76ZM11.5161 15.456L12.6545 17.1004L12.6666 17.092L12.6785 17.0835L11.5161 15.456ZM9.81206 15.432L10.9745 13.8045H10.9745L9.81206 15.432ZM9.21206 14.76L7.46919 15.741L7.48679 15.7723L7.5055 15.8029L9.21206 14.76ZM4.70006 6.744V4.744H1.27925L2.95719 7.72502L4.70006 6.744ZM5.27606 6.744H7.27606V4.744H5.27606V6.744ZM4.84406 17.76L3.39216 16.3845L3.37257 16.4052L3.35358 16.4264L4.84406 17.76ZM3.59606 16.216C3.5066 16.216 3.50678 16.2031 3.56245 16.2235C3.5913 16.234 3.6308 16.252 3.67536 16.2809C3.72028 16.31 3.76272 16.3452 3.79997 16.3845L0.896157 19.1355C1.66614 19.9482 2.67559 20.216 3.59606 20.216V16.216ZM3.79997 16.3845C3.83134 16.4176 3.85797 16.4534 3.87903 16.4889C3.89988 16.524 3.91173 16.5529 3.91783 16.5708C3.92942 16.605 3.91606 16.5866 3.91606 16.488H-0.0839373C-0.0839373 17.3855 0.160663 18.3591 0.896157 19.1355L3.79997 16.3845ZM3.91606 16.488V2.592H-0.0839373V16.488H3.91606ZM3.91606 2.592C3.91606 2.50369 3.92861 2.49666 3.91274 2.54092C3.9046 2.56364 3.89042 2.5956 3.86751 2.63217C3.84444 2.66901 3.81674 2.70375 3.78628 2.73421L0.957849 -0.0942149C0.185657 0.677978 -0.0839373 1.66563 -0.0839373 2.592H3.91606ZM3.74956 2.77C3.7261 2.79228 3.69902 2.8131 3.67007 2.83065C3.64131 2.84809 3.61664 2.85872 3.59987 2.86462C3.56679 2.87627 3.58078 2.864 3.66806 2.864V-1.136C2.73688 -1.136 1.76825 -0.865001 0.994564 -0.13L3.74956 2.77ZM3.66806 2.864C3.72189 2.864 3.76049 2.86672 3.78566 2.86954C3.81083 2.87236 3.81976 2.87497 3.8153 2.87383C3.80552 2.87134 3.7359 2.85173 3.64269 2.78593L5.94943 -0.481935C5.22082 -0.99625 4.38623 -1.136 3.66806 -1.136V2.864ZM3.75316 2.85856C3.68096 2.81444 3.66125 2.78383 3.68329 2.80988C3.7058 2.83649 3.75611 2.90366 3.8251 3.03244L7.35102 1.14356C7.02169 0.528793 6.54655 -0.122153 5.83896 -0.554565L3.75316 2.85856ZM3.8337 3.04832L9.3777 13.1763L12.8864 11.2557L7.34242 1.12767L3.8337 3.04832ZM11.1321 10.216H10.3161V14.216H11.1321V10.216ZM12.0704 13.1763L17.6144 3.04832L14.1057 1.12767L8.5617 11.2557L12.0704 13.1763ZM17.623 3.03244C17.6965 2.89523 17.7509 2.81994 17.7782 2.78663C17.8059 2.75285 17.7886 2.78323 17.7146 2.83114L15.5416 -0.527143C14.8684 -0.0915513 14.4145 0.551054 14.0971 1.14356L17.623 3.03244ZM17.7375 2.8161C17.7059 2.83718 17.6779 2.85154 17.6564 2.86084C17.6352 2.87003 17.6224 2.87343 17.6208 2.87383C17.6194 2.87419 17.629 2.87166 17.6517 2.86906C17.6744 2.86647 17.7087 2.864 17.7561 2.864V-1.136C17.0287 -1.136 16.2298 -0.986195 15.5187 -0.5121L17.7375 2.8161ZM17.7561 2.864C17.8455 2.864 17.8453 2.87687 17.7897 2.85653C17.7608 2.84599 17.7213 2.82799 17.6768 2.79913C17.6318 2.77003 17.5894 2.73481 17.5522 2.69549L20.456 -0.055491C19.686 -0.868251 18.6765 -1.136 17.7561 -1.136V2.864ZM17.5898 2.73421C17.5594 2.70375 17.5317 2.66901 17.5086 2.63217C17.4857 2.5956 17.4715 2.56364 17.4634 2.54092C17.4475 2.49666 17.4601 2.50369 17.4601 2.592H21.4601C21.4601 1.66563 21.1905 0.677978 20.4183 -0.0942149L17.5898 2.73421ZM17.4601 2.592V16.488H21.4601V2.592H17.4601ZM17.4601 16.488C17.4601 16.5866 17.4467 16.605 17.4583 16.5708C17.4644 16.5529 17.4762 16.524 17.4971 16.4889C17.5182 16.4534 17.5448 16.4176 17.5762 16.3845L20.48 19.1355C21.2155 18.3591 21.4601 17.3855 21.4601 16.488H17.4601ZM17.5762 16.3845C17.6134 16.3452 17.6558 16.31 17.7008 16.2809C17.7453 16.252 17.7848 16.234 17.8137 16.2235C17.8693 16.2031 17.8695 16.216 17.7801 16.216V20.216C18.7005 20.216 19.71 19.9482 20.48 19.1355L17.5762 16.3845ZM17.7801 16.216C17.6918 16.216 17.6847 16.2035 17.729 16.2193C17.7517 16.2275 17.7837 16.2416 17.8202 16.2646C17.8571 16.2876 17.8918 16.3153 17.9223 16.3458L15.0939 19.1742C15.866 19.9464 16.8537 20.216 17.7801 20.216V16.216ZM17.96 16.3845C17.9913 16.4176 18.018 16.4534 18.039 16.4889C18.0599 16.524 18.0717 16.5529 18.0778 16.5708C18.0894 16.605 18.0761 16.5866 18.0761 16.488H14.0761C14.0761 17.3855 14.3207 18.3591 15.0562 19.1355L17.96 16.3845ZM18.0761 16.488V6.768H14.0761V16.488H18.0761ZM16.0761 8.768H16.6041V4.768H16.0761V8.768ZM14.858 5.79271L10.394 13.7847L13.8861 15.7353L18.3501 7.74329L14.858 5.79271ZM10.4491 13.692C10.4039 13.7636 10.37 13.8057 10.3509 13.8269C10.3322 13.8478 10.3319 13.844 10.3536 13.8285L12.6785 17.0835C13.167 16.7346 13.541 16.2872 13.831 15.828L10.4491 13.692ZM10.3776 13.8116C10.6118 13.6495 10.7756 13.672 10.6761 13.672V17.672C11.2806 17.672 12.0043 17.5505 12.6545 17.1004L10.3776 13.8116ZM10.6761 13.672C10.6245 13.672 10.7755 13.6624 10.9745 13.8045L8.64959 17.0595C9.29658 17.5216 10.0236 17.672 10.6761 17.672V13.672ZM10.9745 13.8045C11.0129 13.8319 10.9853 13.8261 10.9186 13.7171L7.5055 15.8029C7.79086 16.2699 8.16327 16.7121 8.64959 17.0595L10.9745 13.8045ZM10.9549 13.779L6.44293 5.76298L2.95719 7.72502L7.46919 15.741L10.9549 13.779ZM4.70006 8.744H5.27606V4.744H4.70006V8.744ZM3.27606 6.744V16.488H7.27606V6.744H3.27606ZM3.27606 16.488C3.27606 16.5866 3.2627 16.605 3.2743 16.5708C3.2804 16.5529 3.29225 16.524 3.31309 16.4889C3.33416 16.4534 3.36079 16.4176 3.39216 16.3845L6.29597 19.1355C7.03146 18.3591 7.27606 17.3855 7.27606 16.488H3.27606ZM3.35358 16.4264C3.40069 16.3738 3.4536 16.3286 3.50814 16.2924C3.56204 16.2567 3.60905 16.2354 3.64168 16.2235C3.70308 16.201 3.70113 16.216 3.59606 16.216V20.216C4.50431 20.216 5.55735 19.9622 6.33455 19.0936L3.35358 16.4264ZM24.2355 17.76L25.1132 15.9629L24.2355 17.76ZM22.6275 16.392L20.9634 17.5014L22.6275 16.392ZM22.7235 12.408L24.2077 13.7486L24.2183 13.7369L24.2287 13.725L22.7235 12.408ZM24.9075 11.328L25.3117 13.2867L25.3265 13.2837L25.3414 13.2804L24.9075 11.328ZM30.1875 10.992H32.1875V8.992H30.1875V10.992ZM30.1875 12.864V14.864H32.1875V12.864H30.1875ZM26.9475 13.008L27.266 14.9825L27.2911 14.9784L27.3161 14.9737L26.9475 13.008ZM25.8675 13.44L24.5066 11.9744L24.4795 11.9996L24.4533 12.0258L25.8675 13.44ZM26.0115 15.408L24.636 16.8599L24.6546 16.8775L24.6736 16.8946L26.0115 15.408ZM28.6035 15.528L29.621 17.2499L29.6322 17.2432L29.6434 17.2364L28.6035 15.528ZM29.4675 14.64L31.2086 15.6241L31.2175 15.6084L31.2261 15.5926L29.4675 14.64ZM29.2995 9.096L27.922 10.546L27.9415 10.5646L27.9616 10.5826L29.2995 9.096ZM26.2515 8.808L26.6315 10.7716L26.6553 10.767L26.6789 10.7618L26.2515 8.808ZM24.5955 9.312L23.8612 7.45169L23.814 7.4703L23.7679 7.49127L24.5955 9.312ZM23.6595 9.432L22.9939 11.318L23.0441 11.3357L23.0952 11.3507L23.6595 9.432ZM23.0355 8.952L21.3205 9.98099L21.3364 10.0075L21.3531 10.0335L23.0355 8.952ZM23.0595 7.368L24.7555 8.428L24.7697 8.40521L24.7834 8.38204L23.0595 7.368ZM23.8515 6.768L24.5085 8.65699L24.5552 8.64075L24.6011 8.62222L23.8515 6.768ZM25.9635 6.144L25.6347 4.1712L25.6269 4.17253L25.9635 6.144ZM30.8355 6.528L29.9857 8.33847L30.0077 8.34882L30.03 8.35863L30.8355 6.528ZM32.6355 8.184L30.8698 9.12323L30.874 9.13115L30.8783 9.13903L32.6355 8.184ZM32.8035 17.736L31.3169 16.3981L32.8035 17.736ZM30.2835 17.736L28.7969 19.0739L28.8149 19.094L28.8335 19.1135L30.2835 17.736ZM29.8515 15.48L31.1531 13.9615L27.8515 11.1316V15.48H29.8515ZM30.0195 15.624L31.9891 15.9716L32.1873 14.848L31.3211 14.1055L30.0195 15.624ZM29.3955 17.04L27.8337 15.7906L27.8274 15.7986L29.3955 17.04ZM28.2195 17.952L29.0147 19.7871L29.0402 19.7761L29.0653 19.7644L28.2195 17.952ZM26.5635 16.264C25.9644 16.264 25.4946 16.1491 25.1132 15.9629L23.3578 19.5571C24.3524 20.0429 25.4346 20.264 26.5635 20.264V16.264ZM25.1132 15.9629C24.709 15.7655 24.4587 15.5332 24.2916 15.2826L20.9634 17.5014C21.5643 18.4028 22.386 19.0825 23.3578 19.5571L25.1132 15.9629ZM24.2916 15.2826C24.1357 15.0488 24.0515 14.7899 24.0515 14.448H20.0515C20.0515 15.5461 20.3513 16.5832 20.9634 17.5014L24.2916 15.2826ZM24.0515 14.448C24.0515 13.9302 24.1797 13.7796 24.2077 13.7486L21.2393 11.0674C20.3713 12.0284 20.0515 13.2378 20.0515 14.448H24.0515ZM24.2287 13.725C24.2756 13.6714 24.5231 13.4495 25.3117 13.2867L24.5033 9.36927C23.2759 9.62253 22.0674 10.1206 21.2183 11.091L24.2287 13.725ZM25.3414 13.2804C26.1475 13.1012 27.3204 12.992 28.9155 12.992V8.992C27.1826 8.992 25.6835 9.10677 24.4736 9.37563L25.3414 13.2804ZM28.9155 12.992H30.1875V8.992H28.9155V12.992ZM28.1875 10.992V12.864H32.1875V10.992H28.1875ZM30.1875 10.864H28.9395V14.864H30.1875V10.864ZM28.9395 10.864C28.0608 10.864 27.2605 10.9145 26.5789 11.0423L27.3161 14.9737C27.6585 14.9095 28.1862 14.864 28.9395 14.864V10.864ZM26.629 11.0335C25.9699 11.1398 25.1521 11.375 24.5066 11.9744L27.2284 14.9056C27.1729 14.9571 27.1248 14.99 27.0934 15.0089C27.0624 15.0276 27.0452 15.0342 27.0483 15.033C27.0513 15.0317 27.0697 15.0247 27.1073 15.0149C27.1447 15.0051 27.1969 14.9936 27.266 14.9825L26.629 11.0335ZM24.4533 12.0258C23.7813 12.6978 23.5555 13.5462 23.5555 14.304H27.5555C27.5555 14.3062 27.5553 14.3785 27.5146 14.4913C27.471 14.612 27.394 14.7419 27.2817 14.8542L24.4533 12.0258ZM23.5555 14.304C23.5555 15.2584 23.9033 16.1657 24.636 16.8599L27.387 13.9561C27.4286 13.9955 27.481 14.0629 27.518 14.1525C27.5538 14.2391 27.5555 14.2987 27.5555 14.304H23.5555ZM24.6736 16.8946C25.4791 17.6196 26.4798 17.84 27.3795 17.84V13.84C27.312 13.84 27.2641 13.8359 27.2333 13.8316C27.2025 13.8274 27.1914 13.8235 27.1958 13.8248C27.2006 13.8264 27.2204 13.8331 27.2498 13.8495C27.2798 13.8662 27.3144 13.8899 27.3494 13.9214L24.6736 16.8946ZM27.3795 17.84C28.1522 17.84 28.921 17.6635 29.621 17.2499L27.586 13.8061C27.582 13.8085 27.5348 13.84 27.3795 13.84V17.84ZM29.6434 17.2364C30.2973 16.8384 30.8292 16.2954 31.2086 15.6241L27.7264 13.6559C27.6898 13.7206 27.6457 13.7696 27.5636 13.8196L29.6434 17.2364ZM31.2261 15.5926C31.6078 14.8878 31.7795 14.123 31.7795 13.344H27.7795C27.7795 13.525 27.7432 13.6242 27.7089 13.6874L31.2261 15.5926ZM31.7795 13.344V10.584H27.7795V13.344H31.7795ZM31.7795 10.584C31.7795 9.66208 31.5826 8.4601 30.6374 7.60941L27.9616 10.5826C27.8889 10.5172 27.8376 10.4506 27.8038 10.3953C27.7709 10.3416 27.7584 10.305 27.7561 10.298C27.754 10.2916 27.7604 10.3095 27.767 10.3593C27.7737 10.4089 27.7795 10.4825 27.7795 10.584H31.7795ZM30.677 7.646C29.7922 6.80541 28.5989 6.64 27.6675 6.64V10.64C27.9301 10.64 28.0665 10.6672 28.1133 10.6802C28.1565 10.6923 28.0557 10.673 27.922 10.546L30.677 7.646ZM27.6675 6.64C27.0652 6.64 26.4479 6.71774 25.8241 6.8542L26.6789 10.7618C27.0791 10.6743 27.4058 10.64 27.6675 10.64V6.64ZM25.8715 6.84444C25.2252 6.96952 24.5524 7.17885 23.8612 7.45169L25.3298 11.1723C25.8546 10.9652 26.2858 10.8385 26.6315 10.7716L25.8715 6.84444ZM23.7679 7.49127C23.6935 7.52507 23.891 7.41538 24.2238 7.51327L23.0952 11.3507C23.972 11.6086 24.7935 11.4189 25.4231 11.1327L23.7679 7.49127ZM24.3251 7.54602C24.3688 7.56143 24.4396 7.59376 24.5189 7.65475C24.5997 7.71692 24.6675 7.79214 24.7179 7.87049L21.3531 10.0335C21.7578 10.6629 22.3401 11.0872 22.9939 11.318L24.3251 7.54602ZM24.7505 7.92301C24.7651 7.94744 24.7842 7.98663 24.7988 8.03851C24.8135 8.09075 24.8195 8.14115 24.8195 8.184H20.8195C20.8195 8.82936 20.9957 9.43962 21.3205 9.98099L24.7505 7.92301ZM24.8195 8.184C24.8195 8.22797 24.813 8.27816 24.7982 8.32833C24.7837 8.37785 24.7657 8.41165 24.7555 8.428L21.3635 6.308C21.0149 6.8658 20.8195 7.50265 20.8195 8.184H24.8195ZM24.7834 8.38204C24.7244 8.48236 24.651 8.55833 24.5852 8.60818C24.5238 8.65473 24.4884 8.66399 24.5085 8.65699L23.1945 4.87901C22.4872 5.125 21.7888 5.58352 21.3356 6.35396L24.7834 8.38204ZM24.6011 8.62222C25.2478 8.36078 25.8123 8.19875 26.3001 8.11547L25.6269 4.17253C24.8027 4.31325 23.9592 4.56722 23.1019 4.91378L24.6011 8.62222ZM26.2923 8.11679C26.878 8.01917 27.3822 7.976 27.8115 7.976V3.976C27.1208 3.976 26.393 4.04483 25.6347 4.17121L26.2923 8.11679ZM27.8115 7.976C28.8652 7.976 29.5554 8.13648 29.9857 8.33847L31.6853 4.71753C30.5476 4.18352 29.2218 3.976 27.8115 3.976V7.976ZM30.03 8.35863C30.4305 8.53486 30.6866 8.77882 30.8698 9.12323L34.4012 7.24477C33.7844 6.08518 32.8405 5.22514 31.641 4.69737L30.03 8.35863ZM30.8783 9.13903C31.0685 9.48912 31.2355 10.081 31.2355 11.04H35.2355C35.2355 9.66295 35.0025 8.35088 34.3927 7.22897L30.8783 9.13903ZM31.2355 11.04V16.368H35.2355V11.04H31.2355ZM31.2355 16.368C31.2355 16.4355 31.2314 16.4834 31.2271 16.5142C31.2229 16.545 31.219 16.5561 31.2203 16.5517C31.2219 16.5469 31.2286 16.5271 31.245 16.4977C31.2617 16.4677 31.2854 16.4331 31.3169 16.3981L34.2901 19.0739C35.0151 18.2684 35.2355 17.2677 35.2355 16.368H31.2355ZM31.3169 16.3981C31.3507 16.3605 31.3913 16.3246 31.4368 16.2935C31.4821 16.2627 31.5241 16.2422 31.5575 16.2293C31.623 16.2041 31.6345 16.216 31.5555 16.216V20.216C32.5065 20.216 33.5275 19.9212 34.2901 19.0739L31.3169 16.3981ZM31.5555 16.216C31.4776 16.216 31.4817 16.2045 31.5356 16.2248C31.5628 16.2351 31.5974 16.2515 31.6349 16.2763C31.6726 16.3011 31.7059 16.3295 31.7335 16.3585L28.8335 19.1135C29.5997 19.92 30.5996 20.216 31.5555 20.216V16.216ZM31.7701 16.3981C31.8016 16.4331 31.8253 16.4677 31.842 16.4977C31.8584 16.5271 31.8651 16.5469 31.8667 16.5517C31.868 16.5561 31.8641 16.545 31.8599 16.5142C31.8556 16.4834 31.8515 16.4355 31.8515 16.368H27.8515C27.8515 17.2677 28.0719 18.2684 28.7969 19.0739L31.7701 16.3981ZM31.8515 16.368V15.48H27.8515V16.368H31.8515ZM28.5499 16.9985L28.7179 17.1425L31.3211 14.1055L31.1531 13.9615L28.5499 16.9985ZM28.0499 15.2764C28.0075 15.517 27.9282 15.6726 27.8338 15.7906L30.9572 18.2894C31.5028 17.6074 31.8395 16.819 31.9891 15.9716L28.0499 15.2764ZM27.8274 15.7986C27.7319 15.9192 27.5953 16.0362 27.3737 16.1396L29.0653 19.7644C29.8037 19.4198 30.4511 18.9288 30.9636 18.2814L27.8274 15.7986ZM27.4243 16.1169C27.2388 16.1972 26.9658 16.264 26.5635 16.264V20.264C27.4092 20.264 28.2402 20.1228 29.0147 19.7871L27.4243 16.1169ZM36.4189 17.736L35.0047 19.1502L36.4189 17.736ZM36.3949 6.504L34.9807 5.08979L34.9807 5.08979L36.3949 6.504ZM39.0349 6.504L37.5849 7.8815L37.6025 7.90008L37.6207 7.91821L39.0349 6.504ZM39.4909 9.096V11.096H41.4909V9.096H39.4909ZM39.2509 9.096L37.2897 8.70377L36.8113 11.096H39.2509V9.096ZM43.0669 5.976L43.1897 7.97222L43.2081 7.97109L43.2264 7.96963L43.0669 5.976ZM43.9789 6.288L42.4675 7.59786L42.5142 7.65177L42.5647 7.70221L43.9789 6.288ZM44.3389 7.416L42.3398 7.47658L42.3408 7.5107L42.343 7.54476L44.3389 7.416ZM44.0269 8.592L42.4904 7.31163L42.4689 7.33752L42.4482 7.36412L44.0269 8.592ZM42.8749 9.12L43.0481 11.1125L43.0784 11.1098L43.1086 11.1063L42.8749 9.12ZM42.3229 9.168L42.1496 7.17552L42.1481 7.17565L42.3229 9.168ZM40.2829 9.96L38.8687 8.54579L38.8558 8.55864L38.8432 8.57173L40.2829 9.96ZM39.1549 17.736L37.7407 16.3218L37.7225 16.3399L37.7049 16.3585L39.1549 17.736ZM37.8109 16.216C37.6779 16.216 37.6379 16.198 37.6589 16.2053C37.6707 16.2093 37.6964 16.2196 37.7302 16.2403C37.7644 16.2613 37.8 16.2887 37.8331 16.3218L35.0047 19.1502C35.8144 19.9599 36.8602 20.216 37.8109 20.216V16.216ZM37.8331 16.3218C37.8632 16.3519 37.8892 16.3851 37.9098 16.4184C37.9301 16.4513 37.9411 16.4775 37.9461 16.4918C37.9554 16.5184 37.9389 16.4874 37.9389 16.368H33.9389C33.9389 17.3204 34.2044 18.35 35.0047 19.1502L37.8331 16.3218ZM37.9389 16.368V7.848H33.9389V16.368H37.9389ZM37.9389 7.848C37.9389 7.71798 37.9562 7.68311 37.9468 7.71059C37.9416 7.72601 37.9294 7.75661 37.9055 7.79601C37.8813 7.83601 37.8491 7.87823 37.8091 7.91821L34.9807 5.08979C34.1784 5.89205 33.9389 6.92977 33.9389 7.848H37.9389ZM37.8091 7.91821C37.785 7.94228 37.7565 7.96529 37.7254 7.98498C37.6944 8.00455 37.6673 8.0167 37.6484 8.02359C37.611 8.03715 37.6235 8.024 37.7149 8.024V4.024C36.7579 4.024 35.7606 4.30984 34.9807 5.08979L37.8091 7.91821ZM37.7149 8.024C37.8216 8.024 37.8364 8.03921 37.7934 8.02359C37.7708 8.01538 37.7369 8.00022 37.6971 7.97459C37.657 7.94871 37.6186 7.91705 37.5849 7.8815L40.4849 5.1265C39.6974 4.2976 38.6636 4.024 37.7149 4.024V8.024ZM37.6207 7.91821C37.5807 7.87823 37.5485 7.83601 37.5242 7.79601C37.5003 7.75661 37.4882 7.72601 37.4829 7.71059C37.4736 7.68311 37.4909 7.71798 37.4909 7.848H41.4909C41.4909 6.92977 41.2514 5.89205 40.4491 5.08979L37.6207 7.91821ZM37.4909 7.848V9.096H41.4909V7.848H37.4909ZM39.4909 7.096H39.2509V11.096H39.4909V7.096ZM41.212 9.48823C41.3279 8.90901 41.5438 8.60961 41.7769 8.42202L39.2689 5.30598C38.1899 6.17439 37.5579 7.36298 37.2897 8.70377L41.212 9.48823ZM41.7769 8.42202C42.0406 8.20975 42.4638 8.0169 43.1897 7.97222L42.944 3.97978C41.59 4.0631 40.3171 4.46225 39.2689 5.30598L41.7769 8.42202ZM43.2264 7.96963C43.2191 7.97021 43.1106 7.97813 42.9475 7.92233C42.7692 7.86133 42.5978 7.74821 42.4675 7.59786L45.4903 4.97814C44.7574 4.13248 43.7561 3.91447 42.9074 3.98237L43.2264 7.96963ZM42.5647 7.70221C42.4022 7.53978 42.3452 7.38883 42.3316 7.34608C42.3196 7.30855 42.3357 7.34 42.3398 7.47658L46.338 7.35542C46.3162 6.63669 46.1527 5.63335 45.3931 4.87379L42.5647 7.70221ZM42.343 7.54476C42.3481 7.62378 42.3374 7.62323 42.3518 7.56913C42.3683 7.50685 42.409 7.40939 42.4904 7.31163L45.5633 9.87237C46.2266 9.07638 46.3887 8.1234 46.3347 7.28724L42.343 7.54476ZM42.4482 7.36412C42.5626 7.21696 42.6835 7.14663 42.7376 7.12187C42.7822 7.10143 42.7639 7.11927 42.6412 7.1337L43.1086 11.1063C43.9204 11.0108 44.9194 10.7022 45.6056 9.81988L42.4482 7.36412ZM42.7016 7.12752L42.1496 7.17552L42.4961 11.1605L43.0481 11.1125L42.7016 7.12752ZM42.1481 7.17565C40.9716 7.27885 39.7696 7.64488 38.8687 8.54579L41.6971 11.3742C41.6972 11.3741 41.7326 11.337 41.8527 11.2904C41.9785 11.2416 42.1841 11.1878 42.4976 11.1603L42.1481 7.17565ZM38.8432 8.57173C37.9378 9.51065 37.6349 10.7296 37.6349 11.904H41.6349C41.6349 11.6452 41.6684 11.4921 41.6942 11.4145C41.7173 11.3454 41.7331 11.3374 41.7226 11.3483L38.8432 8.57173ZM37.6349 11.904V16.368H41.6349V11.904H37.6349ZM37.6349 16.368C37.6349 16.4874 37.6184 16.5184 37.6277 16.4918C37.6327 16.4775 37.6436 16.4513 37.664 16.4184C37.6846 16.3851 37.7105 16.3519 37.7407 16.3218L40.5691 19.1502C41.3693 18.35 41.6349 17.3204 41.6349 16.368H37.6349ZM37.7049 16.3585C37.7417 16.3197 37.7826 16.2865 37.8238 16.2602C37.8645 16.2342 37.8981 16.2197 37.9182 16.2125C37.9555 16.1992 37.9315 16.216 37.8109 16.216V20.216C38.7567 20.216 39.8075 19.9528 40.6049 19.1135L37.7049 16.3585ZM46.2855 17.736L44.8355 19.1135L44.8532 19.1321L44.8713 19.1502L46.2855 17.736ZM46.2855 1.344L47.6997 2.75821V2.75821L46.2855 1.344ZM48.9735 1.344L47.5235 2.7215L47.5588 2.75868L47.596 2.794L48.9735 1.344ZM49.4535 11.088H47.4535V13.088H49.4535V11.088ZM49.5015 11.088V13.088H50.3918L50.9876 12.4264L49.5015 11.088ZM52.9815 7.224L54.4676 8.56244L54.4753 8.55389L54.4829 8.54526L52.9815 7.224ZM53.9415 6.336L55.0509 8.0001L55.0609 7.99342L55.0709 7.98661L53.9415 6.336ZM56.2695 6.408L54.8553 7.82221L54.8767 7.84364L54.8988 7.8644L56.2695 6.408ZM56.6775 7.344H54.6775V7.38943L54.6796 7.43481L56.6775 7.344ZM56.2215 8.424L57.712 9.75759L57.7214 9.74704L57.7307 9.73636L56.2215 8.424ZM52.5495 12.528H50.5495V17.7627L54.04 13.8616L52.5495 12.528ZM52.5495 11.16L54.0604 9.84955L50.5495 5.80172V11.16H52.5495ZM56.6295 15.864L58.1714 14.5902L58.1561 14.5717L58.1404 14.5536L56.6295 15.864ZM57.0135 16.968L55.0303 16.7093L55.0247 16.7519L55.021 16.7947L57.0135 16.968ZM56.5335 17.88L57.7614 19.4587L57.788 19.438L57.8139 19.4164L56.5335 17.88ZM54.1095 17.904L53.0195 19.5809L53.038 19.5929L53.0568 19.6045L54.1095 17.904ZM53.1255 16.944L54.7042 15.7161L54.6605 15.66L54.613 15.607L53.1255 16.944ZM49.5015 12.912L50.989 11.575L50.393 10.912H49.5015V12.912ZM49.4535 12.912V10.912H47.4535V12.912H49.4535ZM47.6535 16.216C47.5341 16.216 47.5031 16.1995 47.5297 16.2088C47.544 16.2138 47.5702 16.2247 47.6031 16.2451C47.6364 16.2657 47.6696 16.2917 47.6997 16.3218L44.8713 19.1502C45.6715 19.9505 46.7011 20.216 47.6535 20.216V16.216ZM47.7355 16.3585C47.7666 16.3912 47.7916 16.4254 47.8103 16.4572C47.8288 16.4886 47.8376 16.5119 47.8409 16.5215C47.8465 16.5384 47.8295 16.4969 47.8295 16.368H43.8295C43.8295 17.2937 44.0719 18.3097 44.8355 19.1135L47.7355 16.3585ZM47.8295 16.368V2.712H43.8295V16.368H47.8295ZM47.8295 2.712C47.8295 2.5687 47.8481 2.52473 47.8409 2.54646C47.8366 2.55932 47.8251 2.58932 47.801 2.62949C47.7765 2.67038 47.7429 2.71507 47.6997 2.75821L44.8713 -0.0702143C44.0599 0.741145 43.8295 1.79571 43.8295 2.712H47.8295ZM47.6997 2.75821C47.6696 2.78833 47.6364 2.81431 47.6031 2.8349C47.5702 2.85525 47.544 2.86618 47.5297 2.8712C47.5031 2.88051 47.5341 2.864 47.6535 2.864V-1.136C46.7011 -1.136 45.6715 -0.870462 44.8713 -0.0702119L47.6997 2.75821ZM47.6535 2.864C47.7602 2.864 47.775 2.87921 47.732 2.86359C47.7095 2.85538 47.6755 2.84022 47.6357 2.81459C47.5956 2.78871 47.5573 2.75705 47.5235 2.7215L50.4235 -0.0334978C49.636 -0.862399 48.6023 -1.136 47.6535 -1.136V2.864ZM47.596 2.794C47.5539 2.75403 47.5192 2.71072 47.4925 2.66849C47.4662 2.62688 47.4525 2.59381 47.4463 2.57617C47.4352 2.54453 47.4535 2.57783 47.4535 2.712H51.4535C51.4535 1.76879 51.2002 0.700742 50.351 -0.105999L47.596 2.794ZM47.4535 2.712V11.088H51.4535V2.712H47.4535ZM49.4535 13.088H49.5015V9.088H49.4535V13.088ZM50.9876 12.4264L54.4676 8.56244L51.4954 5.88556L48.0154 9.74956L50.9876 12.4264ZM54.4829 8.54526C54.7746 8.21386 54.9637 8.05821 55.0509 8.0001L52.8321 4.6719C52.3433 4.99778 51.8924 5.43414 51.4801 5.90274L54.4829 8.54526ZM55.0709 7.98661C55.0104 8.02798 54.9693 8.03854 54.9728 8.03764C54.9795 8.03588 55.0306 8.024 55.1415 8.024V4.024C54.3792 4.024 53.5462 4.18315 52.8121 4.68538L55.0709 7.98661ZM55.1415 8.024C55.2225 8.024 55.2148 8.03502 55.151 8.0133C55.0777 7.98835 54.9642 7.9311 54.8553 7.82221L57.6837 4.99379C56.9312 4.24127 55.9671 4.024 55.1415 4.024V8.024ZM54.8988 7.8644C54.857 7.82508 54.7924 7.74853 54.7421 7.63317C54.6915 7.51715 54.6775 7.41242 54.6775 7.344H58.6775C58.6775 6.41522 58.307 5.57912 57.6402 4.9516L54.8988 7.8644ZM54.6796 7.43481C54.6726 7.28216 54.7059 7.16424 54.733 7.10005C54.7566 7.0441 54.7665 7.04925 54.7123 7.11164L57.7307 9.73636C58.2568 9.13135 58.7225 8.28799 58.6754 7.25319L54.6796 7.43481ZM54.731 7.09041L51.059 11.1944L54.04 13.8616L57.712 9.75759L54.731 7.09041ZM54.5495 12.528V11.16H50.5495V12.528H54.5495ZM51.0386 12.4704L55.1186 17.1744L58.1404 14.5536L54.0604 9.84955L51.0386 12.4704ZM55.0876 17.1378C55.1211 17.1784 55.094 17.1578 55.0645 17.073C55.0316 16.9784 55.0121 16.8492 55.0303 16.7093L58.9967 17.2267C59.1356 16.1619 58.7217 15.2563 58.1714 14.5902L55.0876 17.1378ZM55.021 16.7947C55.0263 16.7339 55.0467 16.6412 55.0997 16.5405C55.1524 16.4404 55.2144 16.3758 55.2531 16.3436L57.8139 19.4164C58.5046 18.8408 58.927 18.0492 59.006 17.1413L55.021 16.7947ZM55.3056 16.3013C55.3649 16.2552 55.4222 16.2299 55.4592 16.2187C55.492 16.2087 55.4879 16.216 55.4295 16.216V20.216C56.2183 20.216 57.0483 20.0134 57.7614 19.4587L55.3056 16.3013ZM55.4295 16.216C55.1227 16.216 55.0842 16.1552 55.1622 16.2035L53.0568 19.6045C53.8068 20.0688 54.6483 20.216 55.4295 20.216V16.216ZM55.1995 16.2271C55.1282 16.1808 54.9577 16.042 54.7042 15.7161L51.5468 18.1719C51.9653 18.71 52.4508 19.2112 53.0195 19.5809L55.1995 16.2271ZM54.613 15.607L50.989 11.575L48.014 14.249L51.638 18.281L54.613 15.607ZM49.5015 10.912H49.4535V14.912H49.5015V10.912ZM47.4535 12.912V16.368H51.4535V12.912H47.4535ZM47.4535 16.368C47.4535 16.5198 47.4343 16.5726 47.4388 16.5589C47.4461 16.5361 47.4804 16.4514 47.5708 16.3585C47.6134 16.3148 47.6585 16.2797 47.7014 16.2533C47.7436 16.2273 47.7766 16.214 47.7934 16.2082C47.8232 16.198 47.7882 16.216 47.6535 16.216V20.216C48.5753 20.216 49.631 19.9762 50.4362 19.1495C51.2319 18.3325 51.4535 17.2793 51.4535 16.368H47.4535ZM61.5448 17.52L60.6275 19.2972L60.6446 19.306L60.6618 19.3145L61.5448 17.52ZM59.2408 15.384L57.5025 16.373L57.5126 16.3909L57.5232 16.4086L59.2408 15.384ZM59.2168 8.928L60.9608 9.90707L60.9644 9.90063L60.968 9.89415L59.2168 8.928ZM61.3528 6.768L62.3319 8.512L62.3419 8.50633L61.3528 6.768ZM66.8008 6.408L66.0285 8.25288L66.0469 8.26059L66.0655 8.26792L66.8008 6.408ZM68.5768 7.608L67.1191 8.97735L67.1296 8.98855L67.1403 8.99959L68.5768 7.608ZM69.7048 9.504L67.8115 10.1485L67.8158 10.161L69.7048 9.504ZM69.8008 12.672L71.0008 14.272L71.0418 14.2413L71.0812 14.2084L69.8008 12.672ZM61.4248 12.888H59.4248V14.888H61.4248V12.888ZM61.4248 11.016V9.016H59.4248V11.016H61.4248ZM67.4728 11.016L68.7898 12.5212L72.7957 9.016H67.4728V11.016ZM67.0888 11.352H65.0888V15.7595L68.4058 12.8572L67.0888 11.352ZM66.8008 9.72L64.9625 10.5078L64.9678 10.5201L64.9732 10.5323L66.8008 9.72ZM65.9608 8.712L64.8871 10.3993L64.9039 10.41L64.9209 10.4204L65.9608 8.712ZM63.1288 8.784L64.2233 10.4579L63.1288 8.784ZM62.6728 14.688L61.2388 16.0822L61.2486 16.0923L61.2586 16.1022L62.6728 14.688ZM66.5368 15.408L66.9169 17.3716L66.5368 15.408ZM67.9288 14.952L67.0659 13.1477L67.0612 13.15L67.9288 14.952ZM68.9128 14.784L68.479 16.7364L68.5312 16.748L68.584 16.7568L68.9128 14.784ZM69.8488 15.888L67.8523 16.0054L67.8557 16.0637L67.8625 16.1217L69.8488 15.888ZM69.6808 16.704L71.424 17.6845L71.4365 17.6623L71.4484 17.6398L69.6808 16.704ZM68.9608 17.352L68.0328 15.5803L68.0088 15.5929L67.9852 15.6061L68.9608 17.352ZM67.1128 18.024L66.7031 16.0664L66.6762 16.072L66.6496 16.0784L67.1128 18.024ZM65.1448 16.264C63.9874 16.264 63.1033 16.0579 62.4278 15.7255L60.6618 19.3145C62.0023 19.9741 63.5183 20.264 65.1448 20.264V16.264ZM62.4621 15.7428C61.7841 15.3928 61.3012 14.934 60.9585 14.3594L57.5232 16.4086C58.2685 17.658 59.3215 18.6232 60.6275 19.2972L62.4621 15.7428ZM60.9791 14.395C60.6496 13.8158 60.4488 13.0802 60.4488 12.12H56.4488C56.4488 13.6558 56.776 15.0962 57.5025 16.373L60.9791 14.395ZM60.4488 12.12C60.4488 11.1907 60.6422 10.4746 60.9608 9.90707L57.4728 7.94893C56.7674 9.20542 56.4488 10.6173 56.4488 12.12H60.4488ZM60.968 9.89415C61.3026 9.28765 61.7492 8.83908 62.3319 8.51197L60.3737 5.02403C59.1324 5.72091 58.155 6.71235 57.4657 7.96184L60.968 9.89415ZM62.3419 8.50633C62.9406 8.16565 63.6421 7.976 64.4968 7.976V3.976C63.0155 3.976 61.621 4.31435 60.3638 5.02967L62.3419 8.50633ZM64.4968 7.976C65.1158 7.976 65.6164 8.08036 66.0285 8.25288L67.5731 4.56312C66.6092 4.15964 65.5738 3.976 64.4968 3.976V7.976ZM66.0655 8.26792C66.4855 8.43397 66.8292 8.66874 67.1191 8.97735L70.0345 6.23865C69.3324 5.49126 68.4921 4.92602 67.5361 4.54808L66.0655 8.26792ZM67.1403 8.99959C67.4083 9.27619 67.6398 9.64399 67.8115 10.1485L71.5981 8.85947C71.2579 7.86001 70.7373 6.9638 70.0133 6.21641L67.1403 8.99959ZM67.8158 10.161C67.987 10.6532 68.0888 11.2504 68.0888 11.976H72.0888C72.0888 10.8776 71.9346 9.82676 71.5938 8.84696L67.8158 10.161ZM68.0888 11.976C68.0888 11.9196 68.0977 11.7851 68.1688 11.6133C68.2441 11.4313 68.3663 11.264 68.5204 11.1356L71.0812 14.2084C71.8274 13.5866 72.0888 12.7325 72.0888 11.976H68.0888ZM68.6008 11.072C68.7526 10.9581 68.8857 10.9132 68.9487 10.897C69.0086 10.8816 69.0201 10.888 68.9608 10.888V14.888C69.5441 14.888 70.3218 14.7813 71.0008 14.272L68.6008 11.072ZM68.9608 10.888H61.4248V14.888H68.9608V10.888ZM63.4248 12.888V11.016H59.4248V12.888H63.4248ZM61.4248 13.016H67.4728V9.016H61.4248V13.016ZM66.1558 9.51085L65.7718 9.84685L68.4058 12.8572L68.7898 12.5212L66.1558 9.51085ZM69.0888 11.352C69.0888 10.5176 68.9691 9.67426 68.6284 8.90772L64.9732 10.5323C65.0165 10.6297 65.0888 10.8744 65.0888 11.352H69.0888ZM68.6391 8.93216C68.3056 8.15401 67.7698 7.47175 67.0007 7.0036L64.9209 10.4204C64.919 10.4192 64.9158 10.417 64.9126 10.4142C64.9094 10.4115 64.9086 10.4103 64.9104 10.4124C64.9132 10.4158 64.9342 10.4417 64.9625 10.5078L68.6391 8.93216ZM67.0346 7.02468C66.2864 6.54859 65.4489 6.376 64.6408 6.376V10.376C64.8887 10.376 64.9312 10.4274 64.8871 10.3993L67.0346 7.02468ZM64.6408 6.376C63.7355 6.376 62.8335 6.58749 62.0343 7.11006L64.2233 10.4579C64.2561 10.4365 64.3622 10.376 64.6408 10.376V6.376ZM62.0343 7.11006C61.2533 7.62069 60.6964 8.33582 60.3365 9.15836L64.0011 10.7616C64.0893 10.5602 64.1723 10.4913 64.2233 10.4579L62.0343 7.11006ZM60.3365 9.15836C59.9749 9.98477 59.8328 10.8884 59.8328 11.808H63.8328C63.8328 11.2876 63.9147 10.9592 64.0011 10.7616L60.3365 9.15836ZM59.8328 11.808V12H63.8328V11.808H59.8328ZM59.8328 12C59.8328 13.4745 60.1669 14.9796 61.2388 16.0822L64.1068 13.2938C64.0587 13.2444 63.8328 12.9575 63.8328 12H59.8328ZM61.2586 16.1022C62.3323 17.176 63.7696 17.552 65.2168 17.552V13.552C64.424 13.552 64.1653 13.352 64.087 13.2738L61.2586 16.1022ZM65.2168 17.552C65.761 17.552 66.3323 17.4847 66.9169 17.3716L66.1568 13.4444C65.7493 13.5233 65.4406 13.552 65.2168 13.552V17.552ZM66.9169 17.3716C67.5726 17.2446 68.2014 17.0405 68.7964 16.754L67.0612 13.15C66.7922 13.2795 66.493 13.3794 66.1568 13.4444L66.9169 17.3716ZM68.7917 16.7563C68.9084 16.7005 68.7678 16.8006 68.479 16.7364L69.3467 12.8316C68.4818 12.6394 67.6853 12.8515 67.0659 13.1477L68.7917 16.7563ZM68.584 16.7568C68.5251 16.747 68.4232 16.7203 68.3045 16.6525C68.1826 16.5828 68.0782 16.4896 67.9996 16.3874L71.1701 13.9486C70.6659 13.2932 69.9678 12.9322 69.2416 12.8112L68.584 16.7568ZM67.9996 16.3874C67.959 16.3347 67.9209 16.2684 67.8931 16.1925C67.8655 16.1173 67.855 16.0517 67.8523 16.0054L71.8454 15.7706C71.8068 15.1146 71.5843 14.487 71.1701 13.9486L67.9996 16.3874ZM67.8625 16.1217C67.8532 16.0423 67.8574 15.9632 67.8719 15.8927C67.886 15.8242 67.906 15.7818 67.9132 15.7682L71.4484 17.6398C71.7578 17.0553 71.9203 16.3782 71.8351 15.6543L67.8625 16.1217ZM67.9377 15.7235C67.9824 15.644 68.0292 15.5946 68.0549 15.5714C68.0785 15.5502 68.0778 15.5568 68.0328 15.5803L69.8888 19.1237C70.4687 18.8199 71.0424 18.3629 71.424 17.6845L67.9377 15.7235ZM67.9852 15.6061C67.639 15.7996 67.2178 15.9587 66.7031 16.0664L67.5225 19.9816C68.3838 19.8013 69.1946 19.5124 69.9365 19.0979L67.9852 15.6061ZM66.6496 16.0784C66.1174 16.2051 65.617 16.264 65.1448 16.264V20.264C65.9526 20.264 66.7642 20.1629 67.5761 19.9696L66.6496 16.0784ZM75.1264 17.712L74.2319 19.5009L74.2396 19.5047L74.2473 19.5084L75.1264 17.712ZM73.4704 16.104L71.6815 16.9984L71.6896 17.0145L71.6979 17.0305L73.4704 16.104ZM72.9424 8.928H74.9424V6.928H72.9424V8.928ZM70.8784 8.568L69.4642 9.98221L69.487 10.005L69.5105 10.0271L70.8784 8.568ZM70.8784 6.576L72.243 8.03811L72.2463 8.03507L70.8784 6.576ZM72.9424 6.216V8.216H74.9424V6.216H72.9424ZM73.4224 3.024L74.7999 4.474L74.8185 4.45634L74.8366 4.43821L73.4224 3.024ZM76.1104 3.024L74.6604 4.4015L74.678 4.42008L74.6962 4.43821L76.1104 3.024ZM76.5664 6.216H74.5664V8.216H76.5664V6.216ZM79.8784 6.576L78.4642 7.99021L78.4885 8.01459L78.5137 8.03811L79.8784 6.576ZM76.5664 8.928V6.928H74.5664V8.928H76.5664ZM77.0224 14.808L75.5393 16.1498L75.5565 16.1688L75.5741 16.1873L77.0224 14.808ZM79.2064 15.24L79.6561 17.1888L79.2064 15.24ZM79.7824 15.144L79.6399 13.1491L79.6206 13.1505L79.6013 13.1522L79.7824 15.144ZM80.3344 15.36L78.8478 16.6979L78.883 16.737L78.9202 16.7742L80.3344 15.36ZM80.3584 17.352L82.186 18.1643V18.1643L80.3584 17.352ZM79.6864 17.976L80.4043 19.8427L80.4168 19.8379L80.4292 19.833L79.6864 17.976ZM78.8224 18.168L78.5637 16.1848L78.514 16.1913L78.4646 16.2003L78.8224 18.168ZM77.9104 16.264C77.018 16.264 76.4109 16.114 76.0055 15.9156L74.2473 19.5084C75.3458 20.046 76.5947 20.264 77.9104 20.264V16.264ZM76.0208 15.9231C75.6464 15.736 75.4087 15.4949 75.2428 15.1775L71.6979 17.0305C72.268 18.1211 73.1343 18.952 74.2319 19.5009L76.0208 15.9231ZM75.2592 15.2096C75.087 14.8651 74.9424 14.3082 74.9424 13.44H70.9424C70.9424 14.7158 71.1498 15.9349 71.6815 16.9984L75.2592 15.2096ZM74.9424 13.44V8.928H70.9424V13.44H74.9424ZM72.9424 6.928H71.9344V10.928H72.9424V6.928ZM71.9344 6.928C71.8864 6.928 71.9104 6.92135 71.9797 6.94498C72.0563 6.97107 72.1547 7.02309 72.2463 7.10892L69.5105 10.0271C70.2315 10.703 71.1243 10.928 71.9344 10.928V6.928ZM72.2926 7.15379C72.3844 7.24556 72.4496 7.35378 72.4866 7.45484C72.5209 7.54857 72.5184 7.60125 72.5184 7.584H68.5184C68.5184 8.40319 68.7678 9.28584 69.4642 9.98221L72.2926 7.15379ZM72.5184 7.584C72.5184 7.53311 72.5258 7.57359 72.4919 7.66867C72.454 7.77481 72.3764 7.91364 72.243 8.03811L69.5137 5.11389C68.7373 5.83857 68.5184 6.79101 68.5184 7.584H72.5184ZM72.2463 8.03507C72.1547 8.12091 72.0563 8.17292 71.9797 8.19902C71.9104 8.22265 71.8864 8.216 71.9344 8.216V4.216C71.1243 4.216 70.2315 4.44097 69.5105 5.11693L72.2463 8.03507ZM71.9344 8.216H72.9424V4.216H71.9344V8.216ZM74.9424 6.216V4.392H70.9424V6.216H74.9424ZM74.9424 4.392C74.9424 4.25783 74.9607 4.22453 74.9496 4.25618C74.9434 4.27381 74.9296 4.30688 74.9034 4.34849C74.8767 4.39072 74.8419 4.43403 74.7999 4.474L72.0449 1.574C71.1957 2.38074 70.9424 3.44879 70.9424 4.392H74.9424ZM74.8366 4.43821C74.8095 4.46531 74.7786 4.48982 74.7464 4.50999C74.7144 4.52998 74.6877 4.54153 74.6711 4.54748C74.6391 4.5589 74.6608 4.544 74.7664 4.544V0.543999C73.8119 0.543999 72.7985 0.819447 72.0082 1.60979L74.8366 4.43821ZM74.7664 4.544C74.887 4.544 74.911 4.56082 74.8737 4.54748C74.8536 4.54029 74.82 4.52583 74.7793 4.49984C74.7381 4.47353 74.6972 4.44031 74.6604 4.4015L77.5604 1.6465C76.763 0.807209 75.7122 0.543999 74.7664 0.543999V4.544ZM74.6962 4.43821C74.653 4.39507 74.6194 4.35038 74.5949 4.30949C74.5708 4.26932 74.5593 4.23932 74.555 4.22646C74.5478 4.20473 74.5664 4.2487 74.5664 4.392H78.5664C78.5664 3.47571 78.3359 2.42114 77.5246 1.60979L74.6962 4.43821ZM74.5664 4.392V6.216H78.5664V4.392H74.5664ZM76.5664 8.216H78.8464V4.216H76.5664V8.216ZM78.8464 8.216C78.8957 8.216 78.8637 8.22301 78.7816 8.1944C78.6906 8.16265 78.5725 8.09852 78.4642 7.99021L81.2926 5.16179C80.5691 4.43834 79.6489 4.216 78.8464 4.216V8.216ZM78.5137 8.03811C78.3804 7.91364 78.3028 7.77481 78.2649 7.66867C78.2309 7.57359 78.2384 7.53311 78.2384 7.584H82.2384C82.2384 6.79101 82.0195 5.83857 81.243 5.11389L78.5137 8.03811ZM78.2384 7.584C78.2384 7.60125 78.2358 7.54857 78.2701 7.45484C78.3071 7.35378 78.3724 7.24556 78.4642 7.15379L81.2926 9.98221C81.989 9.28584 82.2384 8.40319 82.2384 7.584H78.2384ZM78.4642 7.15379C78.5725 7.04548 78.6906 6.98135 78.7816 6.9496C78.8637 6.92098 78.8957 6.928 78.8464 6.928V10.928C79.6489 10.928 80.5691 10.7057 81.2926 9.98221L78.4642 7.15379ZM78.8464 6.928H76.5664V10.928H78.8464V6.928ZM74.5664 8.928V13.296H78.5664V8.928H74.5664ZM74.5664 13.296C74.5664 14.2296 74.7732 15.3031 75.5393 16.1498L78.5054 13.4662C78.5819 13.5507 78.5994 13.6146 78.5952 13.6005C78.5888 13.5792 78.5664 13.4876 78.5664 13.296H74.5664ZM75.5741 16.1873C76.4216 17.0772 77.5633 17.312 78.5344 17.312V13.312C78.4428 13.312 78.3765 13.3064 78.332 13.3001C78.2875 13.2938 78.2698 13.2876 78.2728 13.2886C78.2765 13.2899 78.302 13.2988 78.3404 13.3223C78.3799 13.3465 78.4257 13.3815 78.4706 13.4287L75.5741 16.1873ZM78.5344 17.312C78.9073 17.312 79.2837 17.2747 79.6561 17.1888L78.7567 13.2912C78.7131 13.3013 78.6414 13.312 78.5344 13.312V17.312ZM79.6561 17.1888C79.7931 17.1572 79.8941 17.1421 79.9634 17.1358L79.6013 13.1522C79.3186 13.1779 79.0356 13.2268 78.7567 13.2912L79.6561 17.1888ZM79.9249 17.1389C79.7808 17.1492 79.5801 17.1348 79.3596 17.0485C79.1363 16.9611 78.9651 16.8283 78.8478 16.6979L81.821 14.0221C81.244 13.381 80.4482 13.0913 79.6399 13.1491L79.9249 17.1389ZM78.9202 16.7742C78.7487 16.6027 78.6564 16.4355 78.6103 16.3347C78.5638 16.2332 78.547 16.1615 78.5429 16.1428C78.5364 16.1131 78.5504 16.1655 78.5504 16.344H82.5504C82.5504 16.0105 82.5284 15.6429 82.4499 15.2852C82.3797 14.9657 82.2141 14.4113 81.7486 13.9458L78.9202 16.7742ZM78.5504 16.344C78.5504 16.5079 78.5231 16.5569 78.5308 16.5397L82.186 18.1643C82.4496 17.5711 82.5504 16.9481 82.5504 16.344H78.5504ZM78.5308 16.5397C78.5731 16.4445 78.6411 16.3441 78.7335 16.2584C78.8232 16.1751 78.9042 16.1348 78.9436 16.119L80.4292 19.833C81.1835 19.5312 81.8256 18.9753 82.186 18.1643L78.5308 16.5397ZM78.9684 16.1093C78.9809 16.1045 78.9568 16.1147 78.8805 16.1316C78.8069 16.148 78.7031 16.1666 78.5637 16.1848L79.0811 20.1512C79.5171 20.0943 79.9831 20.0047 80.4043 19.8427L78.9684 16.1093ZM78.4646 16.2003C78.188 16.2506 78.0097 16.264 77.9104 16.264V20.264C78.3231 20.264 78.7527 20.2134 79.1801 20.1357L78.4646 16.2003ZM82.2855 22.056L80.8713 23.4702V23.4702L82.2855 22.056ZM82.2855 6.504L80.8713 5.08979V5.08979L82.2855 6.504ZM84.9495 6.504L83.4995 7.8815L83.5172 7.90008L83.5353 7.91821L84.9495 6.504ZM85.4055 9.48L83.4806 10.0229L87.4055 9.48H85.4055ZM85.1415 8.544L83.2325 7.94745L83.0552 8.51482L83.2166 9.08692L85.1415 8.544ZM86.5815 6.696L87.6649 8.37717L87.674 8.37122L86.5815 6.696ZM91.7895 6.72L90.7045 8.40008L90.7123 8.40515L90.7202 8.41016L91.7895 6.72ZM93.6135 8.832L95.421 7.97583L93.6135 8.832ZM93.6135 15.384L95.4267 16.2281L93.6135 15.384ZM91.8135 17.52L92.8986 19.2001L91.8135 17.52ZM86.6295 17.592L85.5461 19.2731L85.5594 19.2817L85.5729 19.2901L86.6295 17.592ZM85.1655 15.792V13.792H82.3523L83.2765 16.449L85.1655 15.792ZM85.4535 15.792H87.4535V13.792H85.4535V15.792ZM84.9735 22.056L83.596 20.606L83.5588 20.6413L83.5235 20.6785L84.9735 22.056ZM89.3655 15.168L88.2874 13.4835L88.2717 13.4935L88.2561 13.5039L89.3655 15.168ZM90.2775 14.04L88.4452 13.2384L88.439 13.2524L88.4331 13.2665L90.2775 14.04ZM89.8935 9.528L88.375 10.8296L88.3843 10.8405L88.3938 10.8512L89.8935 9.528ZM86.6535 9.048L85.6245 7.33301L85.6089 7.34237L85.5935 7.352L86.6535 9.048ZM85.7415 10.176L87.5642 10.9992L87.5691 10.9884L87.5738 10.9776L85.7415 10.176ZM86.1255 14.712L84.5891 15.9924L84.5979 16.003L84.607 16.0136L86.1255 14.712ZM83.6535 20.536C83.5341 20.536 83.5031 20.5195 83.5297 20.5288C83.544 20.5338 83.5702 20.5447 83.6031 20.5651C83.6364 20.5857 83.6696 20.6117 83.6997 20.6418L80.8713 23.4702C81.6715 24.2705 82.7011 24.536 83.6535 24.536V20.536ZM83.6997 20.6418C83.7429 20.6849 83.7765 20.7296 83.801 20.7705C83.8251 20.8107 83.8366 20.8407 83.8409 20.8535C83.8481 20.8753 83.8295 20.8313 83.8295 20.688H79.8295C79.8295 21.6043 80.0599 22.6589 80.8713 23.4702L83.6997 20.6418ZM83.8295 20.688V7.848H79.8295V20.688H83.8295ZM83.8295 7.848C83.8295 7.71798 83.8468 7.68311 83.8375 7.71059C83.8322 7.72601 83.82 7.75661 83.7962 7.79601C83.7719 7.83601 83.7397 7.87823 83.6997 7.91821L80.8713 5.08979C80.069 5.89205 79.8295 6.92977 79.8295 7.848H83.8295ZM83.6997 7.91821C83.6756 7.94228 83.6472 7.96529 83.616 7.98498C83.585 8.00455 83.5579 8.0167 83.539 8.02359C83.5017 8.03715 83.5141 8.024 83.6055 8.024V4.024C82.6485 4.024 81.6512 4.30984 80.8713 5.08979L83.6997 7.91821ZM83.6055 8.024C83.7261 8.024 83.7502 8.04082 83.7128 8.02748C83.6927 8.0203 83.6591 8.00583 83.6184 7.97984C83.5772 7.95354 83.5364 7.92031 83.4995 7.8815L86.3995 5.1265C85.6022 4.28721 84.5513 4.024 83.6055 4.024V8.024ZM83.5353 7.91821C83.4953 7.87823 83.4631 7.83601 83.4389 7.79601C83.415 7.75661 83.4028 7.72601 83.3975 7.71059C83.3882 7.68311 83.4055 7.71798 83.4055 7.848H87.4055C87.4055 6.92977 87.166 5.89205 86.3637 5.08979L83.5353 7.91821ZM83.4055 7.848V9.48H87.4055V7.848H83.4055ZM87.3304 8.93708L87.0664 8.00108L83.2166 9.08692L83.4806 10.0229L87.3304 8.93708ZM87.0505 9.14055C87.1413 8.84979 87.3112 8.60511 87.6649 8.37714L85.4981 5.01486C84.4118 5.71489 83.6217 6.70221 83.2325 7.94745L87.0505 9.14055ZM87.674 8.37122C88.0607 8.11905 88.5153 7.976 89.1015 7.976V3.976C87.7997 3.976 86.5743 4.31295 85.489 5.02078L87.674 8.37122ZM89.1015 7.976C89.7883 7.976 90.2977 8.13738 90.7045 8.40008L92.8745 5.03992C91.7453 4.31062 90.4627 3.976 89.1015 3.976V7.976ZM90.7202 8.41016C91.1562 8.68596 91.5214 9.08724 91.806 9.68817L95.421 7.97583C94.8416 6.75276 93.9908 5.74604 92.8588 5.02984L90.7202 8.41016ZM91.806 9.68817C92.0834 10.2738 92.2615 11.0554 92.2615 12.096H96.2615C96.2615 10.6086 96.0076 9.21421 95.421 7.97583L91.806 9.68817ZM92.2615 12.096C92.2615 13.1352 92.0839 13.9309 91.8003 14.5399L95.4267 16.2281C96.0071 14.9811 96.2615 13.5848 96.2615 12.096H92.2615ZM91.8003 14.5399C91.5078 15.1683 91.1429 15.5722 90.7284 15.8399L92.8986 19.2001C94.0201 18.4758 94.8552 17.4557 95.4267 16.2281L91.8003 14.5399ZM90.7284 15.8399C90.3267 16.0994 89.811 16.264 89.1015 16.264V20.264C90.472 20.264 91.7643 19.9326 92.8986 19.2001L90.7284 15.8399ZM89.1015 16.264C88.5105 16.264 88.0594 16.1261 87.6861 15.8939L85.5729 19.2901C86.6396 19.9539 87.8365 20.264 89.1015 20.264V16.264ZM87.7129 15.9109C87.3287 15.6633 87.1491 15.4069 87.0545 15.135L83.2765 16.449C83.6939 17.6491 84.4903 18.5927 85.5461 19.2731L87.7129 15.9109ZM85.1655 17.792H85.4535V13.792H85.1655V17.792ZM83.4535 15.792V20.688H87.4535V15.792H83.4535ZM83.4535 20.688C83.4535 20.8222 83.4352 20.8555 83.4463 20.8238C83.4525 20.8062 83.4662 20.7731 83.4925 20.7315C83.5192 20.6893 83.5539 20.646 83.596 20.606L86.351 23.506C87.2002 22.6993 87.4535 21.6312 87.4535 20.688H83.4535ZM83.5235 20.6785C83.5573 20.643 83.5956 20.6113 83.6357 20.5854C83.6755 20.5598 83.7095 20.5446 83.732 20.5364C83.775 20.5208 83.7602 20.536 83.6535 20.536V24.536C84.6022 24.536 85.636 24.2624 86.4235 23.4335L83.5235 20.6785ZM88.0215 17.552C88.8835 17.552 89.7269 17.3308 90.4749 16.8321L88.2561 13.5039C88.2361 13.5172 88.1835 13.552 88.0215 13.552V17.552ZM90.4436 16.8525C91.2298 16.3494 91.7784 15.6324 92.1219 14.8135L88.4331 13.2665C88.3606 13.4396 88.3012 13.4746 88.2874 13.4835L90.4436 16.8525ZM92.1098 14.8416C92.4795 13.9967 92.6135 13.0524 92.6135 12.096H88.6135C88.6135 12.7076 88.5235 13.0593 88.4452 13.2384L92.1098 14.8416ZM92.6135 12.096C92.6135 10.7209 92.3423 9.28038 91.3932 8.20476L88.3938 10.8512C88.4047 10.8636 88.6135 11.1351 88.6135 12.096H92.6135ZM91.412 8.22642C90.5345 7.20261 89.3458 6.688 88.0215 6.688V10.688C88.158 10.688 88.2222 10.7117 88.2467 10.7227C88.2691 10.7328 88.3115 10.7556 88.375 10.8296L91.412 8.22642ZM88.0215 6.688C87.1835 6.688 86.3652 6.8886 85.6245 7.33301L87.6825 10.763C87.7418 10.7274 87.8355 10.688 88.0215 10.688V6.688ZM85.5935 7.352C84.7952 7.85094 84.2565 8.58043 83.9092 9.37436L87.5738 10.9776C87.6251 10.8604 87.6689 10.7969 87.6928 10.7674C87.7147 10.7404 87.7222 10.7386 87.7135 10.744L85.5935 7.352ZM83.9188 9.35283C83.5383 10.1954 83.4055 11.1437 83.4055 12.096H87.4055C87.4055 11.4803 87.4967 11.1486 87.5642 10.9992L83.9188 9.35283ZM83.4055 12.096C83.4055 13.4844 83.6822 14.9041 84.5891 15.9924L87.6619 13.4316C87.6088 13.3679 87.4055 13.0436 87.4055 12.096H83.4055ZM84.607 16.0136C85.4934 17.0477 86.6955 17.552 88.0215 17.552V13.552C87.7795 13.552 87.7177 13.4963 87.644 13.4104L84.607 16.0136ZM97.5339 17.088L96.0325 18.4093L96.0391 18.4168L96.0458 18.4243L97.5339 17.088ZM96.9339 1.344L98.3482 2.75821V2.75821L96.9339 1.344ZM99.6219 1.344L98.1719 2.7215L98.2073 2.75868L98.2444 2.794L99.6219 1.344ZM100.51 14.856L98.9861 16.1513L99.021 16.1924L99.058 16.2315L100.51 14.856ZM102.358 15.264V17.264H102.482L102.606 17.2486L102.358 15.264ZM102.886 15.504L101.097 16.3984L101.143 16.4907L101.199 16.5778L102.886 15.504ZM102.766 17.688L104.328 18.9374L104.347 18.913L104.366 18.888L102.766 17.688ZM101.878 18.168L102.077 20.1581L102.174 20.1483L102.27 20.1292L101.878 18.168ZM101.326 18.216L101.173 16.2219L101.097 16.2277L101.022 16.2393L101.326 18.216ZM100.726 16.264C99.661 16.264 99.2266 15.9796 99.022 15.7517L96.0458 18.4243C97.2493 19.7644 98.9429 20.264 100.726 20.264V16.264ZM99.0354 15.7667C98.775 15.4709 98.4779 14.8417 98.4779 13.536H94.4779C94.4779 15.3663 94.8849 17.1051 96.0325 18.4093L99.0354 15.7667ZM98.4779 13.536V2.712H94.4779V13.536H98.4779ZM98.4779 2.712C98.4779 2.5687 98.4965 2.52473 98.4893 2.54646C98.485 2.55932 98.4735 2.58932 98.4494 2.62949C98.4249 2.67038 98.3913 2.71507 98.3482 2.75821L95.5197 -0.0702143C94.7084 0.741145 94.4779 1.79571 94.4779 2.712H98.4779ZM98.3482 2.75821C98.318 2.78833 98.2848 2.81431 98.2515 2.8349C98.2187 2.85525 98.1924 2.86618 98.1781 2.8712C98.1516 2.88051 98.1825 2.864 98.3019 2.864V-1.136C97.3495 -1.136 96.32 -0.870462 95.5197 -0.0702119L98.3482 2.75821ZM98.3019 2.864C98.4086 2.864 98.4234 2.87921 98.3804 2.86359C98.3579 2.85538 98.3239 2.84022 98.2842 2.81459C98.2441 2.78871 98.2057 2.75705 98.1719 2.7215L101.072 -0.0334978C100.284 -0.862399 99.2507 -1.136 98.3019 -1.136V2.864ZM98.2444 2.794C98.2024 2.75403 98.1676 2.71072 98.141 2.66849C98.1147 2.62688 98.1009 2.59381 98.0947 2.57617C98.0836 2.54453 98.1019 2.57783 98.1019 2.712H102.102C102.102 1.76879 101.849 0.700742 100.999 -0.105999L98.2444 2.794ZM98.1019 2.712V13.392H102.102V2.712H98.1019ZM98.1019 13.392C98.1019 14.2692 98.275 15.3148 98.9861 16.1513L102.034 13.5607C102.12 13.6621 102.137 13.7347 102.131 13.7131C102.123 13.6865 102.102 13.5889 102.102 13.392H98.1019ZM99.058 16.2315C99.7666 16.9794 100.69 17.312 101.638 17.312V13.312C101.626 13.312 101.676 13.3106 101.758 13.3438C101.844 13.3787 101.915 13.4314 101.962 13.4805L99.058 16.2315ZM101.638 17.312C101.849 17.312 102.064 17.2989 102.281 17.2679L101.715 13.3081C101.708 13.3091 101.683 13.312 101.638 13.312V17.312ZM102.281 17.2679C102.288 17.2669 102.313 17.264 102.358 17.264V13.264C102.147 13.264 101.932 13.2771 101.715 13.3081L102.281 17.2679ZM102.606 17.2486C102.486 17.2635 102.198 17.2768 101.854 17.1207C101.479 16.9501 101.23 16.6641 101.097 16.3984L104.675 14.6096C104.446 14.1519 104.061 13.7299 103.51 13.4793C102.99 13.2432 102.485 13.2325 102.11 13.2794L102.606 17.2486ZM101.199 16.5778C101.151 16.5024 101.118 16.4362 101.096 16.3863C101.074 16.3361 101.059 16.2956 101.051 16.2687C101.035 16.2175 101.033 16.1946 101.036 16.2134C101.038 16.23 101.043 16.2686 101.047 16.3342C101.051 16.3988 101.054 16.4814 101.054 16.584H105.054C105.054 16.254 105.038 15.9167 104.988 15.5986C104.945 15.3195 104.849 14.8638 104.573 14.4302L101.199 16.5778ZM101.054 16.584C101.054 16.6959 101.042 16.7324 101.047 16.7152C101.052 16.6943 101.08 16.603 101.166 16.488L104.366 18.888C104.919 18.1512 105.054 17.2911 105.054 16.584H101.054ZM101.204 16.4386C101.291 16.3303 101.384 16.2638 101.449 16.2286C101.509 16.1963 101.53 16.1979 101.486 16.2068L102.27 20.1292C102.979 19.9873 103.757 19.6502 104.328 18.9374L101.204 16.4386ZM101.679 16.1779C101.538 16.192 101.37 16.2067 101.173 16.2219L101.479 20.2101C101.698 20.1933 101.898 20.176 102.077 20.1581L101.679 16.1779ZM101.022 16.2393C100.905 16.2572 100.807 16.264 100.726 16.264V20.264C101.029 20.264 101.331 20.2388 101.63 20.1927L101.022 16.2393ZM106.126 17.76L107.004 15.9629L106.126 17.76ZM104.518 16.392L102.854 17.5014L104.518 16.392ZM104.614 12.408L106.098 13.7486L106.109 13.7369L106.119 13.725L104.614 12.408ZM106.798 11.328L107.202 13.2867L107.217 13.2837L107.232 13.2804L106.798 11.328ZM112.078 10.992H114.078V8.992H112.078V10.992ZM112.078 12.864V14.864H114.078V12.864H112.078ZM108.838 13.008L109.157 14.9825L109.182 14.9784L109.207 14.9737L108.838 13.008ZM107.758 13.44L106.397 11.9744L106.37 11.9996L106.344 12.0258L107.758 13.44ZM107.902 15.408L106.527 16.8599L106.545 16.8775L106.564 16.8946L107.902 15.408ZM110.494 15.528L111.512 17.2499L111.523 17.2432L111.534 17.2364L110.494 15.528ZM111.358 14.64L113.099 15.6241L113.108 15.6084L113.117 15.5926L111.358 14.64ZM111.19 9.096L109.813 10.546L109.832 10.5646L109.852 10.5826L111.19 9.096ZM108.142 8.808L108.522 10.7716L108.546 10.767L108.57 10.7618L108.142 8.808ZM106.486 9.312L105.752 7.45169L105.705 7.4703L105.659 7.49127L106.486 9.312ZM105.55 9.432L104.884 11.318L104.935 11.3357L104.986 11.3507L105.55 9.432ZM104.926 8.952L103.211 9.98099L103.227 10.0075L103.244 10.0335L104.926 8.952ZM104.95 7.368L106.646 8.428L106.66 8.40521L106.674 8.38204L104.95 7.368ZM105.742 6.768L106.399 8.65699L106.446 8.64075L106.492 8.62222L105.742 6.768ZM107.854 6.144L107.525 4.1712L107.518 4.17253L107.854 6.144ZM112.726 6.528L111.876 8.33847L111.898 8.34882L111.921 8.35863L112.726 6.528ZM114.526 8.184L112.76 9.12323L112.765 9.13115L112.769 9.13903L114.526 8.184ZM114.694 17.736L113.208 16.3981L114.694 17.736ZM112.174 17.736L110.688 19.0739L110.706 19.094L110.724 19.1135L112.174 17.736ZM111.742 15.48L113.044 13.9615L109.742 11.1316V15.48H111.742ZM111.91 15.624L113.88 15.9716L114.078 14.848L113.212 14.1055L111.91 15.624ZM111.286 17.04L109.724 15.7906L109.718 15.7986L111.286 17.04ZM110.11 17.952L110.905 19.7871L110.931 19.7761L110.956 19.7644L110.11 17.952ZM108.454 16.264C107.855 16.264 107.385 16.1491 107.004 15.9629L105.248 19.5571C106.243 20.0429 107.325 20.264 108.454 20.264V16.264ZM107.004 15.9629C106.6 15.7655 106.349 15.5332 106.182 15.2826L102.854 17.5014C103.455 18.4028 104.277 19.0825 105.248 19.5571L107.004 15.9629ZM106.182 15.2826C106.026 15.0488 105.942 14.7899 105.942 14.448H101.942C101.942 15.5461 102.242 16.5832 102.854 17.5014L106.182 15.2826ZM105.942 14.448C105.942 13.9302 106.07 13.7796 106.098 13.7486L103.13 11.0674C102.262 12.0284 101.942 13.2378 101.942 14.448H105.942ZM106.119 13.725C106.166 13.6714 106.414 13.4495 107.202 13.2867L106.394 9.36927C105.167 9.62253 103.958 10.1206 103.109 11.091L106.119 13.725ZM107.232 13.2804C108.038 13.1012 109.211 12.992 110.806 12.992V8.992C109.073 8.992 107.574 9.10677 106.364 9.37563L107.232 13.2804ZM110.806 12.992H112.078V8.992H110.806V12.992ZM110.078 10.992V12.864H114.078V10.992H110.078ZM112.078 10.864H110.83V14.864H112.078V10.864ZM110.83 10.864C109.951 10.864 109.151 10.9145 108.47 11.0423L109.207 14.9737C109.549 14.9095 110.077 14.864 110.83 14.864V10.864ZM108.52 11.0335C107.861 11.1398 107.043 11.375 106.397 11.9744L109.119 14.9056C109.064 14.9571 109.015 14.99 108.984 15.0089C108.953 15.0276 108.936 15.0342 108.939 15.033C108.942 15.0317 108.96 15.0247 108.998 15.0149C109.035 15.0051 109.088 14.9936 109.157 14.9825L108.52 11.0335ZM106.344 12.0258C105.672 12.6978 105.446 13.5462 105.446 14.304H109.446C109.446 14.3062 109.446 14.3785 109.405 14.4913C109.362 14.612 109.285 14.7419 109.172 14.8542L106.344 12.0258ZM105.446 14.304C105.446 15.2584 105.794 16.1657 106.527 16.8599L109.278 13.9561C109.319 13.9955 109.372 14.0629 109.409 14.1525C109.444 14.2391 109.446 14.2987 109.446 14.304H105.446ZM106.564 16.8946C107.37 17.6196 108.37 17.84 109.27 17.84V13.84C109.203 13.84 109.155 13.8359 109.124 13.8316C109.093 13.8274 109.082 13.8235 109.086 13.8248C109.091 13.8264 109.111 13.8331 109.14 13.8495C109.17 13.8662 109.205 13.8899 109.24 13.9214L106.564 16.8946ZM109.27 17.84C110.043 17.84 110.812 17.6635 111.512 17.2499L109.477 13.8061C109.473 13.8085 109.425 13.84 109.27 13.84V17.84ZM111.534 17.2364C112.188 16.8384 112.72 16.2954 113.099 15.6241L109.617 13.6559C109.58 13.7206 109.536 13.7696 109.454 13.8196L111.534 17.2364ZM113.117 15.5926C113.498 14.8878 113.67 14.123 113.67 13.344H109.67C109.67 13.525 109.634 13.6242 109.6 13.6874L113.117 15.5926ZM113.67 13.344V10.584H109.67V13.344H113.67ZM113.67 10.584C113.67 9.66208 113.473 8.4601 112.528 7.60941L109.852 10.5826C109.78 10.5172 109.728 10.4506 109.694 10.3953C109.662 10.3416 109.649 10.305 109.647 10.298C109.645 10.2916 109.651 10.3095 109.658 10.3593C109.664 10.4089 109.67 10.4825 109.67 10.584H113.67ZM112.568 7.646C111.683 6.80541 110.49 6.64 109.558 6.64V10.64C109.821 10.64 109.957 10.6672 110.004 10.6802C110.047 10.6923 109.946 10.673 109.813 10.546L112.568 7.646ZM109.558 6.64C108.956 6.64 108.339 6.71774 107.715 6.8542L108.57 10.7618C108.97 10.6743 109.296 10.64 109.558 10.64V6.64ZM107.762 6.84444C107.116 6.96952 106.443 7.17885 105.752 7.45169L107.22 11.1723C107.745 10.9652 108.176 10.8385 108.522 10.7716L107.762 6.84444ZM105.659 7.49127C105.584 7.52507 105.782 7.41538 106.114 7.51327L104.986 11.3507C105.863 11.6086 106.684 11.4189 107.314 11.1327L105.659 7.49127ZM106.216 7.54602C106.259 7.56143 106.33 7.59376 106.41 7.65475C106.49 7.71692 106.558 7.79214 106.608 7.87049L103.244 10.0335C103.648 10.6629 104.231 11.0872 104.884 11.318L106.216 7.54602ZM106.641 7.92301C106.656 7.94744 106.675 7.98663 106.689 8.03851C106.704 8.09075 106.71 8.14115 106.71 8.184H102.71C102.71 8.82936 102.886 9.43962 103.211 9.98099L106.641 7.92301ZM106.71 8.184C106.71 8.22797 106.704 8.27816 106.689 8.32833C106.674 8.37785 106.656 8.41165 106.646 8.428L103.254 6.308C102.906 6.8658 102.71 7.50265 102.71 8.184H106.71ZM106.674 8.38204C106.615 8.48236 106.542 8.55833 106.476 8.60818C106.414 8.65473 106.379 8.66399 106.399 8.65699L105.085 4.87901C104.378 5.125 103.679 5.58352 103.226 6.35396L106.674 8.38204ZM106.492 8.62222C107.138 8.36078 107.703 8.19875 108.191 8.11547L107.518 4.17253C106.693 4.31325 105.85 4.56722 104.993 4.91378L106.492 8.62222ZM108.183 8.11679C108.769 8.01917 109.273 7.976 109.702 7.976V3.976C109.011 3.976 108.284 4.04483 107.525 4.17121L108.183 8.11679ZM109.702 7.976C110.756 7.976 111.446 8.13648 111.876 8.33847L113.576 4.71753C112.438 4.18352 111.112 3.976 109.702 3.976V7.976ZM111.921 8.35863C112.321 8.53486 112.577 8.77882 112.76 9.12323L116.292 7.24477C115.675 6.08518 114.731 5.22514 113.532 4.69737L111.921 8.35863ZM112.769 9.13903C112.959 9.48912 113.126 10.081 113.126 11.04H117.126C117.126 9.66295 116.893 8.35088 116.283 7.22897L112.769 9.13903ZM113.126 11.04V16.368H117.126V11.04H113.126ZM113.126 16.368C113.126 16.4355 113.122 16.4834 113.118 16.5142C113.114 16.545 113.11 16.5561 113.111 16.5517C113.112 16.5469 113.119 16.5271 113.136 16.4977C113.152 16.4677 113.176 16.4331 113.208 16.3981L116.181 19.0739C116.906 18.2684 117.126 17.2677 117.126 16.368H113.126ZM113.208 16.3981C113.241 16.3605 113.282 16.3246 113.327 16.2935C113.373 16.2627 113.415 16.2422 113.448 16.2293C113.514 16.2041 113.525 16.216 113.446 16.216V20.216C114.397 20.216 115.418 19.9212 116.181 19.0739L113.208 16.3981ZM113.446 16.216C113.368 16.216 113.372 16.2045 113.426 16.2248C113.453 16.2351 113.488 16.2515 113.526 16.2763C113.563 16.3011 113.597 16.3295 113.624 16.3585L110.724 19.1135C111.49 19.92 112.49 20.216 113.446 20.216V16.216ZM113.661 16.3981C113.692 16.4331 113.716 16.4677 113.733 16.4977C113.749 16.5271 113.756 16.5469 113.757 16.5517C113.759 16.5561 113.755 16.545 113.751 16.5142C113.746 16.4834 113.742 16.4355 113.742 16.368H109.742C109.742 17.2677 109.963 18.2684 110.688 19.0739L113.661 16.3981ZM113.742 16.368V15.48H109.742V16.368H113.742ZM110.441 16.9985L110.609 17.1425L113.212 14.1055L113.044 13.9615L110.441 16.9985ZM109.941 15.2764C109.898 15.517 109.819 15.6726 109.724 15.7906L112.848 18.2894C113.393 17.6074 113.73 16.819 113.88 15.9716L109.941 15.2764ZM109.718 15.7986C109.623 15.9192 109.486 16.0362 109.264 16.1396L110.956 19.7644C111.694 19.4198 112.342 18.9288 112.854 18.2814L109.718 15.7986ZM109.315 16.1169C109.129 16.1972 108.856 16.264 108.454 16.264V20.264C109.3 20.264 110.131 20.1228 110.905 19.7871L109.315 16.1169ZM120.205 17.52L119.252 19.2781L119.27 19.2876L119.287 19.2969L120.205 17.52ZM118.021 15.36L116.27 16.3262L118.021 15.36ZM118.934 7.608L117.561 6.15282L117.551 6.16275L117.541 6.17284L118.934 7.608ZM120.95 6.408L121.605 8.29751L121.622 8.29158L121.639 8.28534L120.95 6.408ZM125.149 6.168L124.704 8.11772L124.73 8.1238L124.757 8.12916L125.149 6.168ZM126.806 6.768L125.87 8.53557L125.926 8.56555L125.985 8.59184L126.806 6.768ZM127.453 7.392L125.604 8.1535L125.632 8.22107L125.665 8.28642L127.453 7.392ZM127.598 8.208L129.584 8.44169L129.585 8.42886L127.598 8.208ZM127.285 8.952L125.713 7.71636L125.707 7.72444L125.7 7.73258L127.285 8.952ZM126.661 9.384L127.147 11.3243L127.203 11.3102L127.258 11.293L126.661 9.384ZM125.798 9.24L124.795 10.9709L124.848 11.0015L124.903 11.0289L125.798 9.24ZM124.838 8.856L124.352 10.7963L124.363 10.799L124.374 10.8016L124.838 8.856ZM122.654 8.976L123.382 10.8385L123.417 10.8249L123.451 10.8101L122.654 8.976ZM121.717 9.624L120.223 8.29526L120.218 8.30076L121.717 9.624ZM121.142 10.656L119.252 10.0018L119.24 10.0346L119.23 10.0678L121.142 10.656ZM121.717 14.592L120.188 15.8803L120.206 15.902L120.225 15.9232L121.717 14.592ZM124.838 15.384L125.23 17.3452L125.276 17.3358L125.323 17.3243L124.838 15.384ZM125.798 15L124.903 13.2111L124.868 13.2287L124.834 13.2476L125.798 15ZM126.661 14.88L127.258 12.971V12.971L126.661 14.88ZM127.261 15.336L125.579 16.4175L125.625 16.4885L125.676 16.5554L127.261 15.336ZM127.525 16.08L125.529 16.1909L125.532 16.2525L125.539 16.3137L127.525 16.08ZM127.382 16.896L125.572 16.0444L125.56 16.0692L125.549 16.0944L127.382 16.896ZM126.757 17.496L125.901 15.6885L125.882 15.6976L125.863 15.7071L126.757 17.496ZM125.126 18.072L124.722 16.1131L124.695 16.1187L124.667 16.1252L125.126 18.072ZM123.565 16.264C122.546 16.264 121.752 16.0677 121.124 15.7431L119.287 19.2969C120.579 19.9643 122.025 20.264 123.565 20.264V16.264ZM121.159 15.7619C120.546 15.4297 120.097 14.9824 119.773 14.3938L116.27 16.3262C116.97 17.5936 117.977 18.5863 119.252 19.2781L121.159 15.7619ZM119.773 14.3938C119.453 13.8138 119.254 13.0631 119.254 12.072H115.254C115.254 13.6089 115.566 15.0502 116.27 16.3262L119.773 14.3938ZM119.254 12.072C119.254 11.3312 119.366 10.7313 119.553 10.2433L115.818 8.81271C115.429 9.82872 115.254 10.9248 115.254 12.072H119.254ZM119.553 10.2433C119.744 9.74568 120.004 9.35611 120.326 9.04316L117.541 6.17284C116.775 6.91589 116.203 7.80632 115.818 8.81271L119.553 10.2433ZM120.306 9.06318C120.644 8.74371 121.067 8.48428 121.605 8.29751L120.294 4.51849C119.264 4.87571 118.343 5.41629 117.561 6.15282L120.306 9.06318ZM121.639 8.28534C122.172 8.08962 122.806 7.976 123.565 7.976V3.976C122.405 3.976 121.295 4.15038 120.26 4.53066L121.639 8.28534ZM123.565 7.976C123.89 7.976 124.268 8.01801 124.704 8.11772L125.595 4.21828C124.911 4.06199 124.233 3.976 123.565 3.976V7.976ZM124.757 8.12916C125.114 8.20041 125.483 8.33102 125.87 8.53557L127.741 5.00042C127.04 4.62897 126.305 4.35959 125.542 4.20684L124.757 8.12916ZM125.985 8.59184C125.97 8.5853 125.903 8.55251 125.82 8.47264C125.733 8.3885 125.656 8.27847 125.604 8.1535L129.303 6.6305C128.96 5.79722 128.317 5.25485 127.626 4.94416L125.985 8.59184ZM125.665 8.28642C125.645 8.24811 125.627 8.19643 125.616 8.13557C125.605 8.0749 125.606 8.02318 125.61 7.98714L129.585 8.42886C129.659 7.76275 129.545 7.10291 129.242 6.49757L125.665 8.28642ZM125.611 7.97432C125.617 7.9281 125.629 7.87613 125.651 7.82455C125.673 7.77346 125.697 7.73716 125.713 7.71636L128.858 10.1876C129.252 9.68629 129.507 9.09447 129.584 8.44168L125.611 7.97432ZM125.7 7.73258C125.742 7.67884 125.799 7.62167 125.871 7.57161C125.943 7.5218 126.012 7.4917 126.065 7.47504L127.258 11.293C127.897 11.0932 128.454 10.7131 128.871 10.1714L125.7 7.73258ZM126.176 7.44371C126.526 7.35636 126.737 7.47392 126.692 7.45115L124.903 11.0289C125.498 11.3261 126.285 11.5396 127.147 11.3243L126.176 7.44371ZM126.8 7.50915C126.33 7.23743 125.829 7.03618 125.301 6.91039L124.374 10.8016C124.518 10.8358 124.657 10.8906 124.795 10.9709L126.8 7.50915ZM125.323 6.91571C124.866 6.80167 124.399 6.736 123.925 6.736V10.736C124.028 10.736 124.169 10.7503 124.352 10.7963L125.323 6.91571ZM123.925 6.736C123.224 6.736 122.52 6.85318 121.856 7.14186L123.451 10.8101C123.523 10.7788 123.667 10.736 123.925 10.736V6.736ZM121.925 7.11351C121.271 7.36946 120.694 7.76525 120.223 8.29527L123.212 10.9527C123.253 10.9068 123.3 10.8705 123.382 10.8385L121.925 7.11351ZM120.218 8.30076C119.773 8.80513 119.463 9.39073 119.252 10.0018L123.031 11.3102C123.108 11.0893 123.182 10.9869 123.217 10.9472L120.218 8.30076ZM119.23 10.0678C119.031 10.715 118.95 11.4002 118.95 12.096H122.95C122.95 11.7038 122.996 11.429 123.053 11.2442L119.23 10.0678ZM118.95 12.096C118.95 13.4671 119.285 14.8079 120.188 15.8803L123.247 13.3037C123.126 13.1601 122.95 12.8369 122.95 12.096H118.95ZM120.225 15.9232C121.205 17.0217 122.53 17.48 123.925 17.48V13.48C123.433 13.48 123.286 13.3463 123.21 13.2608L120.225 15.9232ZM123.925 17.48C124.361 17.48 124.797 17.4316 125.23 17.3452L124.445 13.4228C124.238 13.4644 124.066 13.48 123.925 13.48V17.48ZM125.323 17.3243C125.826 17.1983 126.306 17.0026 126.761 16.7524L124.834 13.2476C124.649 13.3494 124.489 13.4097 124.352 13.4437L125.323 17.3243ZM126.692 16.7889C126.7 16.7846 126.643 16.8151 126.529 16.831C126.405 16.8481 126.242 16.8442 126.065 16.789L127.258 12.971C126.361 12.6909 125.527 12.8991 124.903 13.2111L126.692 16.7889ZM126.065 16.789C125.987 16.7645 125.89 16.7199 125.793 16.6463C125.696 16.5726 125.626 16.4902 125.579 16.4175L128.944 14.2545C128.544 13.6328 127.958 13.1899 127.258 12.971L126.065 16.789ZM125.676 16.5554C125.628 16.4923 125.589 16.4204 125.563 16.3468C125.537 16.2748 125.53 16.2192 125.529 16.1909L129.522 15.9691C129.486 15.3202 129.277 14.6757 128.847 14.1166L125.676 16.5554ZM125.539 16.3137C125.532 16.2545 125.534 16.1947 125.544 16.1404C125.553 16.0874 125.567 16.0546 125.572 16.0444L129.191 17.7476C129.462 17.1716 129.592 16.5253 129.512 15.8463L125.539 16.3137ZM125.549 16.0944C125.602 15.9739 125.676 15.8723 125.755 15.7963C125.83 15.7241 125.89 15.694 125.901 15.6885L127.614 19.3035C128.261 18.997 128.871 18.4817 129.214 17.6976L125.549 16.0944ZM125.863 15.7071C125.46 15.9087 125.08 16.0393 124.722 16.1131L125.529 20.0309C126.259 19.8807 126.967 19.6273 127.652 19.2849L125.863 15.7071ZM124.667 16.1252C124.255 16.2222 123.889 16.264 123.565 16.264V20.264C124.234 20.264 124.908 20.1778 125.584 20.0188L124.667 16.1252ZM131.576 17.52L130.659 19.2972L130.676 19.306L130.693 19.3145L131.576 17.52ZM129.272 15.384L127.534 16.373L127.544 16.3909L127.554 16.4086L129.272 15.384ZM129.248 8.928L130.992 9.90707L130.996 9.90063L130.999 9.89415L129.248 8.928ZM131.384 6.768L132.363 8.512L132.373 8.50633L131.384 6.768ZM136.832 6.408L136.06 8.25288L136.078 8.26059L136.097 8.26792L136.832 6.408ZM138.608 7.608L137.15 8.97735L137.161 8.98855L137.172 8.99959L138.608 7.608ZM139.736 9.504L137.843 10.1485L137.847 10.161L139.736 9.504ZM139.832 12.672L141.032 14.272L141.073 14.2413L141.112 14.2084L139.832 12.672ZM131.456 12.888H129.456V14.888H131.456V12.888ZM131.456 11.016V9.016H129.456V11.016H131.456ZM137.504 11.016L138.821 12.5212L142.827 9.016H137.504V11.016ZM137.12 11.352H135.12V15.7595L138.437 12.8572L137.12 11.352ZM136.832 9.72L134.994 10.5078L134.999 10.5201L135.004 10.5323L136.832 9.72ZM135.992 8.712L134.918 10.3993L134.935 10.41L134.952 10.4204L135.992 8.712ZM133.16 8.784L134.255 10.4579L133.16 8.784ZM132.704 14.688L131.27 16.0822L131.28 16.0923L131.29 16.1022L132.704 14.688ZM136.568 15.408L136.948 17.3716L136.568 15.408ZM137.96 14.952L137.097 13.1477L137.092 13.15L137.96 14.952ZM138.944 14.784L138.51 16.7364L138.562 16.748L138.615 16.7568L138.944 14.784ZM139.88 15.888L137.884 16.0054L137.887 16.0637L137.894 16.1217L139.88 15.888ZM139.712 16.704L141.455 17.6845L141.468 17.6623L141.48 17.6398L139.712 16.704ZM138.992 17.352L138.064 15.5803L138.04 15.5929L138.016 15.6061L138.992 17.352ZM137.144 18.024L136.734 16.0664L136.708 16.072L136.681 16.0784L137.144 18.024ZM135.176 16.264C134.019 16.264 133.135 16.0579 132.459 15.7255L130.693 19.3145C132.034 19.9741 133.55 20.264 135.176 20.264V16.264ZM132.493 15.7428C131.815 15.3928 131.332 14.934 130.99 14.3594L127.554 16.4086C128.3 17.658 129.353 18.6232 130.659 19.2972L132.493 15.7428ZM131.01 14.395C130.681 13.8158 130.48 13.0802 130.48 12.12H126.48C126.48 13.6558 126.807 15.0962 127.534 16.373L131.01 14.395ZM130.48 12.12C130.48 11.1907 130.673 10.4746 130.992 9.90707L127.504 7.94893C126.799 9.20542 126.48 10.6173 126.48 12.12H130.48ZM130.999 9.89415C131.334 9.28765 131.78 8.83908 132.363 8.51197L130.405 5.02403C129.164 5.72091 128.186 6.71235 127.497 7.96184L130.999 9.89415ZM132.373 8.50633C132.972 8.16565 133.673 7.976 134.528 7.976V3.976C133.047 3.976 131.652 4.31435 130.395 5.02967L132.373 8.50633ZM134.528 7.976C135.147 7.976 135.648 8.08036 136.06 8.25288L137.604 4.56312C136.64 4.15964 135.605 3.976 134.528 3.976V7.976ZM136.097 8.26792C136.517 8.43397 136.86 8.66874 137.15 8.97735L140.066 6.23865C139.364 5.49126 138.523 4.92602 137.567 4.54808L136.097 8.26792ZM137.172 8.99959C137.44 9.27619 137.671 9.64399 137.843 10.1485L141.629 8.85947C141.289 7.86001 140.769 6.9638 140.045 6.21641L137.172 8.99959ZM137.847 10.161C138.018 10.6532 138.12 11.2504 138.12 11.976H142.12C142.12 10.8776 141.966 9.82676 141.625 8.84696L137.847 10.161ZM138.12 11.976C138.12 11.9196 138.129 11.7851 138.2 11.6133C138.275 11.4313 138.398 11.264 138.552 11.1356L141.112 14.2084C141.859 13.5866 142.12 12.7325 142.12 11.976H138.12ZM138.632 11.072C138.784 10.9581 138.917 10.9132 138.98 10.897C139.04 10.8816 139.051 10.888 138.992 10.888V14.888C139.575 14.888 140.353 14.7813 141.032 14.272L138.632 11.072ZM138.992 10.888H131.456V14.888H138.992V10.888ZM133.456 12.888V11.016H129.456V12.888H133.456ZM131.456 13.016H137.504V9.016H131.456V13.016ZM136.187 9.51085L135.803 9.84685L138.437 12.8572L138.821 12.5212L136.187 9.51085ZM139.12 11.352C139.12 10.5176 139 9.67426 138.66 8.90772L135.004 10.5323C135.048 10.6297 135.12 10.8744 135.12 11.352H139.12ZM138.67 8.93216C138.337 8.15401 137.801 7.47175 137.032 7.0036L134.952 10.4204C134.95 10.4192 134.947 10.417 134.944 10.4142C134.941 10.4115 134.94 10.4103 134.942 10.4124C134.944 10.4158 134.965 10.4417 134.994 10.5078L138.67 8.93216ZM137.066 7.02468C136.318 6.54859 135.48 6.376 134.672 6.376V10.376C134.92 10.376 134.962 10.4274 134.918 10.3993L137.066 7.02468ZM134.672 6.376C133.767 6.376 132.865 6.58749 132.066 7.11006L134.255 10.4579C134.287 10.4365 134.393 10.376 134.672 10.376V6.376ZM132.066 7.11006C131.285 7.62069 130.728 8.33582 130.368 9.15836L134.032 10.7616C134.121 10.5602 134.204 10.4913 134.255 10.4579L132.066 7.11006ZM130.368 9.15836C130.006 9.98477 129.864 10.8884 129.864 11.808H133.864C133.864 11.2876 133.946 10.9592 134.032 10.7616L130.368 9.15836ZM129.864 11.808V12H133.864V11.808H129.864ZM129.864 12C129.864 13.4745 130.198 14.9796 131.27 16.0822L134.138 13.2938C134.09 13.2444 133.864 12.9575 133.864 12H129.864ZM131.29 16.1022C132.364 17.176 133.801 17.552 135.248 17.552V13.552C134.455 13.552 134.197 13.352 134.118 13.2738L131.29 16.1022ZM135.248 17.552C135.792 17.552 136.364 17.4847 136.948 17.3716L136.188 13.4444C135.781 13.5233 135.472 13.552 135.248 13.552V17.552ZM136.948 17.3716C137.604 17.2446 138.233 17.0405 138.828 16.754L137.092 13.15C136.823 13.2795 136.524 13.3794 136.188 13.4444L136.948 17.3716ZM138.823 16.7563C138.94 16.7005 138.799 16.8006 138.51 16.7364L139.378 12.8316C138.513 12.6394 137.717 12.8515 137.097 13.1477L138.823 16.7563ZM138.615 16.7568C138.556 16.747 138.454 16.7203 138.336 16.6525C138.214 16.5828 138.109 16.4896 138.031 16.3874L141.201 13.9486C140.697 13.2932 139.999 12.9322 139.273 12.8112L138.615 16.7568ZM138.031 16.3874C137.99 16.3347 137.952 16.2684 137.924 16.1925C137.897 16.1173 137.886 16.0517 137.884 16.0054L141.877 15.7706C141.838 15.1146 141.616 14.487 141.201 13.9486L138.031 16.3874ZM137.894 16.1217C137.884 16.0423 137.889 15.9632 137.903 15.8927C137.917 15.8242 137.937 15.7818 137.944 15.7682L141.48 17.6398C141.789 17.0553 141.952 16.3782 141.866 15.6543L137.894 16.1217ZM137.969 15.7235C138.014 15.644 138.06 15.5946 138.086 15.5714C138.11 15.5502 138.109 15.5568 138.064 15.5803L139.92 19.1237C140.5 18.8199 141.074 18.3629 141.455 17.6845L137.969 15.7235ZM138.016 15.6061C137.67 15.7996 137.249 15.9587 136.734 16.0664L137.554 19.9816C138.415 19.8013 139.226 19.5124 139.968 19.0979L138.016 15.6061ZM136.681 16.0784C136.149 16.2051 135.648 16.264 135.176 16.264V20.264C135.984 20.264 136.795 20.1629 137.607 19.9696L136.681 16.0784Z" fill="#5B3511"/>
</g>
<defs>
<filter id="filter0_d_35_113" x="0.916077" y="0.864014" width="140.204" height="24.6719" filterUnits="userSpaceOnUse" color-interpolation-filters="sRGB">
<feFlood flood-opacity="0" result="BackgroundImageFix"/>
<feColorMatrix in="SourceAlpha" type="matrix" values="0 0 0 0 0 0 0 0 0 0 0 0 0 0 0 0 0 0 127 0" result="hardAlpha"/>
<feOffset dy="2"/>
<feGaussianBlur stdDeviation="0.5"/>
<feComposite in2="hardAlpha" operator="out"/>
<feColorMatrix type="matrix" values="0 0 0 0 0 0 0 0 0 0 0 0 0 0 0 0 0 0 0.25 0"/>
<feBlend mode="normal" in2="BackgroundImageFix" result="effect1_dropShadow_35_113"/>
<feBlend mode="normal" in="SourceGraphic" in2="effect1_dropShadow_35_113" result="shape"/>
</filter>
<linearGradient id="paint0_linear_35_113" x1="70.5" y1="-6" x2="70.5" y2="27" gradientUnits="userSpaceOnUse">
<stop stop-color="#FDE092"/>
<stop offset="1" stop-color="#C18B2C"/>
</linearGradient>
</defs>
</svg>
