<svg width="131" height="22" viewBox="0 0 131 22" fill="none" xmlns="http://www.w3.org/2000/svg">
<g filter="url(#filter0_d_42_575)">
<path d="M9.0106 18.216C8.4826 18.216 8.0586 18.096 7.7386 17.856C7.4346 17.6 7.1866 17.216 6.9946 16.704L2.1466 3.072C1.9226 2.464 1.9626 1.944 2.2666 1.512C2.5706 1.08 3.0906 0.863999 3.8266 0.863999C4.3386 0.863999 4.7306 0.983999 5.0026 1.224C5.2906 1.464 5.5226 1.84 5.6986 2.352L9.1546 12.648L12.8026 2.376C12.9786 1.864 13.2106 1.488 13.4986 1.248C13.7866 0.991999 14.1626 0.863999 14.6266 0.863999C15.0746 0.863999 15.4346 0.991999 15.7066 1.248C15.9786 1.488 16.2106 1.872 16.4026 2.4L19.9306 12.84L23.5306 2.352C23.6906 1.856 23.9146 1.488 24.2026 1.248C24.4906 0.991999 24.8826 0.863999 25.3786 0.863999C26.0026 0.863999 26.4586 1.08 26.7466 1.512C27.0346 1.944 27.0666 2.464 26.8426 3.072L21.9466 16.728C21.7706 17.224 21.5226 17.6 21.2026 17.856C20.8986 18.096 20.4906 18.216 19.9786 18.216C19.4666 18.216 19.0586 18.096 18.7546 17.856C18.4506 17.6 18.2026 17.216 18.0106 16.704L14.5066 6.768L10.9546 16.728C10.7626 17.224 10.5146 17.6 10.2106 17.856C9.9226 18.096 9.5226 18.216 9.0106 18.216ZM31.8249 18.264C30.9449 18.264 30.1689 18.096 29.4969 17.76C28.8249 17.424 28.2889 16.968 27.8889 16.392C27.5049 15.816 27.3129 15.168 27.3129 14.448C27.3129 13.6 27.5369 12.92 27.9849 12.408C28.4329 11.896 29.1609 11.536 30.1689 11.328C31.1769 11.104 32.5129 10.992 34.1769 10.992H35.0409V10.584C35.0409 9.88 34.8809 9.384 34.5609 9.096C34.2409 8.792 33.6969 8.64 32.9289 8.64C32.4969 8.64 32.0249 8.696 31.5129 8.808C31.0009 8.904 30.4489 9.072 29.8569 9.312C29.4089 9.504 29.0329 9.52 28.7289 9.36C28.4249 9.184 28.2249 8.928 28.1289 8.592C28.0329 8.24 28.0569 7.888 28.2009 7.536C28.3609 7.184 28.6649 6.928 29.1129 6.768C29.8649 6.48 30.5689 6.28 31.2249 6.168C31.8969 6.04 32.5129 5.976 33.0729 5.976C34.8969 5.976 36.2569 6.392 37.1529 7.224C38.0489 8.04 38.4969 9.312 38.4969 11.04V16.368C38.4969 17.6 37.9369 18.216 36.8169 18.216C35.6809 18.216 35.1129 17.6 35.1129 16.368V16.224C34.8729 16.848 34.4649 17.344 33.8889 17.712C33.3289 18.08 32.6409 18.264 31.8249 18.264ZM32.6409 15.84C33.3129 15.84 33.8809 15.608 34.3449 15.144C34.8089 14.68 35.0409 14.08 35.0409 13.344V12.864H34.2009C32.9689 12.864 32.0969 12.976 31.5849 13.2C31.0729 13.408 30.8169 13.776 30.8169 14.304C30.8169 14.752 30.9689 15.12 31.2729 15.408C31.5929 15.696 32.0489 15.84 32.6409 15.84ZM43.0722 18.216C41.8242 18.216 41.2002 17.6 41.2002 16.368V7.848C41.2002 6.632 41.7922 6.024 42.9762 6.024C44.1602 6.024 44.7522 6.632 44.7522 7.848V8.28C45.3282 6.856 46.5202 6.088 48.3282 5.976C48.7282 5.944 49.0322 6.048 49.2402 6.288C49.4642 6.512 49.5842 6.888 49.6002 7.416C49.6322 7.912 49.5282 8.304 49.2882 8.592C49.0642 8.88 48.6802 9.056 48.1362 9.12L47.5842 9.168C45.7922 9.344 44.8962 10.256 44.8962 11.904V16.368C44.8962 17.6 44.2882 18.216 43.0722 18.216ZM56.9999 18.264C55.6079 18.264 54.4079 18.016 53.3999 17.52C52.4079 17.008 51.6399 16.296 51.0959 15.384C50.5679 14.456 50.3039 13.368 50.3039 12.12C50.3039 10.904 50.5599 9.84 51.0719 8.928C51.5999 8 52.3119 7.28 53.2079 6.768C54.1199 6.24 55.1679 5.976 56.3519 5.976C58.0639 5.976 59.4239 6.52 60.4319 7.608C61.4399 8.68 61.9439 10.136 61.9439 11.976C61.9439 12.584 61.5679 12.888 60.8159 12.888H53.7599C53.8879 13.816 54.2239 14.496 54.7679 14.928C55.3279 15.344 56.0959 15.552 57.0719 15.552C57.4559 15.552 57.8879 15.512 58.3679 15.432C58.8639 15.336 59.3359 15.176 59.7839 14.952C60.2479 14.728 60.6399 14.688 60.9599 14.832C61.2799 14.96 61.4959 15.184 61.6079 15.504C61.7359 15.824 61.7359 16.16 61.6079 16.512C61.4959 16.848 61.2319 17.128 60.8159 17.352C60.2559 17.656 59.6319 17.88 58.9439 18.024C58.2719 18.184 57.6239 18.264 56.9999 18.264ZM56.4959 8.376C55.7279 8.376 55.1039 8.608 54.6239 9.072C54.1599 9.536 53.8719 10.184 53.7599 11.016H58.9439C58.8479 9.256 58.0319 8.376 56.4959 8.376ZM65.8758 18.216C64.6598 18.216 64.0518 17.6 64.0518 16.368V2.712C64.0518 1.48 64.6598 0.863999 65.8758 0.863999C67.0758 0.863999 67.6758 1.48 67.6758 2.712V7.824C68.0918 7.216 68.6278 6.76 69.2838 6.456C69.9398 6.136 70.6678 5.976 71.4678 5.976C74.2358 5.976 75.6198 7.624 75.6198 10.92V16.368C75.6198 17.6 75.0118 18.216 73.7958 18.216C73.2198 18.216 72.7718 18.056 72.4518 17.736C72.1478 17.416 71.9958 16.96 71.9958 16.368V11.088C71.9958 10.272 71.8438 9.688 71.5398 9.336C71.2358 8.968 70.7878 8.784 70.1958 8.784C69.4278 8.784 68.8118 9.024 68.3478 9.504C67.8998 9.984 67.6758 10.624 67.6758 11.424V16.368C67.6758 17.6 67.0758 18.216 65.8758 18.216ZM83.9892 18.264C82.7252 18.264 81.6212 18.016 80.6772 17.52C79.7492 17.008 79.0292 16.296 78.5172 15.384C78.0052 14.456 77.7492 13.36 77.7492 12.096C77.7492 10.848 78.0052 9.768 78.5172 8.856C79.0292 7.928 79.7492 7.216 80.6772 6.72C81.6212 6.224 82.7252 5.976 83.9892 5.976C85.2532 5.976 86.3492 6.224 87.2772 6.72C88.2212 7.216 88.9492 7.928 89.4612 8.856C89.9892 9.768 90.2532 10.848 90.2532 12.096C90.2532 13.36 89.9892 14.456 89.4612 15.384C88.9492 16.296 88.2212 17.008 87.2772 17.52C86.3492 18.016 85.2532 18.264 83.9892 18.264ZM83.9892 15.552C84.7572 15.552 85.3812 15.272 85.8612 14.712C86.3572 14.152 86.6052 13.28 86.6052 12.096C86.6052 10.928 86.3572 10.072 85.8612 9.528C85.3812 8.968 84.7572 8.688 83.9892 8.688C83.2212 8.688 82.5972 8.968 82.1172 9.528C81.6372 10.072 81.3972 10.928 81.3972 12.096C81.3972 13.28 81.6372 14.152 82.1172 14.712C82.5972 15.272 83.2212 15.552 83.9892 15.552ZM96.802 18.264C95.298 18.264 94.186 17.848 93.466 17.016C92.762 16.184 92.41 14.936 92.41 13.272V7.848C92.41 6.632 93.01 6.024 94.21 6.024C95.426 6.024 96.034 6.632 96.034 7.848V13.368C96.034 14.76 96.634 15.456 97.834 15.456C98.522 15.456 99.082 15.216 99.514 14.736C99.962 14.24 100.186 13.592 100.186 12.792V7.848C100.186 6.632 100.786 6.024 101.986 6.024C103.202 6.024 103.81 6.632 103.81 7.848V16.368C103.81 17.6 103.226 18.216 102.058 18.216C101.482 18.216 101.042 18.056 100.738 17.736C100.434 17.416 100.282 16.968 100.282 16.392C99.498 17.64 98.338 18.264 96.802 18.264ZM111.126 18.264C110.422 18.264 109.694 18.2 108.942 18.072C108.206 17.944 107.534 17.728 106.926 17.424C106.526 17.216 106.262 16.952 106.134 16.632C106.022 16.312 106.022 16 106.134 15.696C106.246 15.392 106.446 15.168 106.734 15.024C107.022 14.864 107.358 14.864 107.742 15.024C108.398 15.296 108.998 15.488 109.542 15.6C110.102 15.712 110.638 15.768 111.15 15.768C111.822 15.768 112.318 15.664 112.638 15.456C112.958 15.232 113.118 14.944 113.118 14.592C113.118 14.032 112.71 13.68 111.894 13.536L109.374 13.08C108.366 12.904 107.598 12.544 107.07 12C106.542 11.456 106.278 10.744 106.278 9.864C106.278 9.064 106.502 8.376 106.95 7.8C107.398 7.224 108.014 6.776 108.798 6.456C109.582 6.136 110.486 5.976 111.51 5.976C112.918 5.976 114.166 6.248 115.254 6.792C115.622 6.968 115.846 7.216 115.926 7.536C116.022 7.856 116.006 8.168 115.878 8.472C115.75 8.776 115.542 9.008 115.254 9.168C114.966 9.312 114.622 9.296 114.222 9.12C113.694 8.88 113.214 8.712 112.782 8.616C112.35 8.504 111.942 8.448 111.558 8.448C110.838 8.448 110.318 8.568 109.998 8.808C109.678 9.032 109.518 9.32 109.518 9.672C109.518 10.232 109.894 10.584 110.646 10.728L113.166 11.184C114.206 11.36 114.998 11.712 115.542 12.24C116.086 12.752 116.358 13.456 116.358 14.352C116.358 15.584 115.878 16.544 114.918 17.232C113.958 17.92 112.694 18.264 111.126 18.264ZM124.547 18.264C123.155 18.264 121.955 18.016 120.947 17.52C119.955 17.008 119.187 16.296 118.643 15.384C118.115 14.456 117.851 13.368 117.851 12.12C117.851 10.904 118.107 9.84 118.619 8.928C119.147 8 119.859 7.28 120.755 6.768C121.667 6.24 122.715 5.976 123.899 5.976C125.611 5.976 126.971 6.52 127.979 7.608C128.987 8.68 129.491 10.136 129.491 11.976C129.491 12.584 129.115 12.888 128.363 12.888H121.307C121.435 13.816 121.771 14.496 122.315 14.928C122.875 15.344 123.643 15.552 124.619 15.552C125.003 15.552 125.435 15.512 125.915 15.432C126.411 15.336 126.883 15.176 127.331 14.952C127.795 14.728 128.187 14.688 128.507 14.832C128.827 14.96 129.043 15.184 129.155 15.504C129.283 15.824 129.283 16.16 129.155 16.512C129.043 16.848 128.779 17.128 128.363 17.352C127.803 17.656 127.179 17.88 126.491 18.024C125.819 18.184 125.171 18.264 124.547 18.264ZM124.043 8.376C123.275 8.376 122.651 8.608 122.171 9.072C121.707 9.536 121.419 10.184 121.307 11.016H126.491C126.395 9.256 125.579 8.376 124.043 8.376Z" fill="url(#paint0_linear_42_575)"/>
<path d="M7.7386 17.856L6.45033 19.3858L6.49348 19.4222L6.5386 19.456L7.7386 17.856ZM6.9946 16.704L5.11022 17.3741L5.11594 17.3902L5.12194 17.4062L6.9946 16.704ZM2.1466 3.072L4.03099 2.40185L4.0272 2.3912L4.02329 2.38059L2.1466 3.072ZM2.2666 1.512L3.90222 2.66299V2.66299L2.2666 1.512ZM5.0026 1.224L3.67936 2.72368L3.70054 2.74236L3.72223 2.76044L5.0026 1.224ZM5.6986 2.352L7.59464 1.71557L7.59233 1.7087L7.58998 1.70184L5.6986 2.352ZM9.1546 12.648L7.25857 13.2844L9.10131 18.7743L11.0393 13.3173L9.1546 12.648ZM12.8026 2.376L14.6873 3.04532L14.6907 3.03576L14.694 3.02616L12.8026 2.376ZM13.4986 1.248L14.779 2.78444L14.8035 2.76401L14.8273 2.74282L13.4986 1.248ZM15.7066 1.248L14.3359 2.7044L14.3593 2.72642L14.3834 2.74768L15.7066 1.248ZM16.4026 2.4L18.2973 1.75971L18.29 1.73802L18.2822 1.71651L16.4026 2.4ZM19.9306 12.84L18.0359 13.4803L19.9158 19.0434L21.8223 13.4893L19.9306 12.84ZM23.5306 2.352L25.4223 3.00131L25.4283 2.98371L25.434 2.966L23.5306 2.352ZM24.2026 1.248L25.483 2.78444L25.5075 2.76402L25.5313 2.74282L24.2026 1.248ZM26.8426 3.072L24.9659 2.38059L24.9629 2.38879L24.9599 2.39702L26.8426 3.072ZM21.9466 16.728L20.0639 16.053L20.0617 16.0592L21.9466 16.728ZM21.2026 17.856L22.4419 19.4258L22.452 19.4177L21.2026 17.856ZM18.7546 17.856L17.4663 19.3858L17.4905 19.4062L17.5153 19.4258L18.7546 17.856ZM18.0106 16.704L16.1245 17.3692L16.131 17.3878L16.1379 17.4062L18.0106 16.704ZM14.5066 6.768L16.3928 6.10284L14.5172 0.784354L12.6228 6.09619L14.5066 6.768ZM10.9546 16.728L12.8197 17.45L12.8294 17.425L12.8384 17.3998L10.9546 16.728ZM10.2106 17.856L11.491 19.3925L11.4989 19.3858L10.2106 17.856ZM9.0106 16.216C8.89556 16.216 8.84509 16.2027 8.84125 16.2016C8.84013 16.2013 8.85056 16.2041 8.86922 16.2132C8.8882 16.2224 8.91232 16.2363 8.9386 16.256L6.5386 19.456C7.30096 20.0278 8.18786 20.216 9.0106 20.216V16.216ZM9.02687 16.3262C9.06583 16.359 8.98194 16.3076 8.86726 16.0018L5.12194 17.4062C5.39126 18.1244 5.80338 18.841 6.45033 19.3858L9.02687 16.3262ZM8.87899 16.0338L4.03099 2.40185L0.262219 3.74215L5.11022 17.3741L8.87899 16.0338ZM4.02329 2.38059C3.98726 2.2828 4.00944 2.29191 4.00271 2.37939C3.99931 2.42361 3.98918 2.47653 3.96907 2.53218C3.94902 2.58767 3.92411 2.63187 3.90222 2.66299L0.63099 0.361012C-0.138775 1.45489 -0.122878 2.69725 0.269917 3.76341L4.02329 2.38059ZM3.90222 2.66299C3.86719 2.71276 3.82249 2.76044 3.77142 2.80061C3.72108 2.84019 3.67753 2.86231 3.65182 2.87299C3.60644 2.89184 3.64496 2.864 3.8266 2.864V-1.136C2.71604 -1.136 1.44447 -0.794988 0.630989 0.361013L3.90222 2.66299ZM3.8266 2.864C3.93132 2.864 3.95322 2.87682 3.91917 2.8664C3.87815 2.85384 3.78328 2.81537 3.67936 2.72368L6.32584 -0.275678C5.56255 -0.949176 4.62672 -1.136 3.8266 -1.136V2.864ZM3.72223 2.76044C3.67375 2.72004 3.6682 2.70002 3.69053 2.73621C3.71374 2.77383 3.757 2.85604 3.80723 3.00216L7.58998 1.70184C7.34493 0.988973 6.94989 0.243323 6.28297 -0.312442L3.72223 2.76044ZM3.80257 2.98843L7.25857 13.2844L11.0506 12.0116L7.59464 1.71557L3.80257 2.98843ZM11.0393 13.3173L14.6873 3.04532L10.9179 1.70668L7.26993 11.9787L11.0393 13.3173ZM14.694 3.02616C14.7442 2.88004 14.7875 2.79783 14.8107 2.76022C14.833 2.72402 14.8275 2.74404 14.779 2.78444L12.2182 -0.288444C11.5513 0.26732 11.1563 1.01297 10.9112 1.72584L14.694 3.02616ZM14.8273 2.74282C14.7659 2.7974 14.6975 2.8341 14.6411 2.8533C14.59 2.8707 14.5778 2.864 14.6266 2.864V-1.136C13.7778 -1.136 12.8955 -0.891861 12.1699 -0.246816L14.8273 2.74282ZM14.6266 2.864C14.6608 2.864 14.6312 2.86883 14.5626 2.84443C14.4881 2.81793 14.406 2.77041 14.3359 2.7044L17.0773 -0.208397C16.3627 -0.881012 15.4763 -1.136 14.6266 -1.136V2.864ZM14.3834 2.74768C14.3358 2.70574 14.3381 2.69276 14.3728 2.75023C14.4073 2.80736 14.4608 2.91249 14.523 3.08349L18.2822 1.71651C18.033 1.03115 17.6535 0.298614 17.0298 -0.251678L14.3834 2.74768ZM14.5079 3.04029L18.0359 13.4803L21.8253 12.1997L18.2973 1.75971L14.5079 3.04029ZM21.8223 13.4893L25.4223 3.00131L21.6389 1.70269L18.0389 12.1907L21.8223 13.4893ZM25.434 2.966C25.4756 2.83716 25.5113 2.76961 25.527 2.74389C25.5414 2.72028 25.5311 2.74433 25.483 2.78444L22.9222 -0.288444C22.2509 0.271 21.8598 1.01676 21.6272 1.738L25.434 2.966ZM25.5313 2.74282C25.4959 2.77431 25.4584 2.80069 25.4215 2.82151C25.385 2.84214 25.3543 2.8544 25.3334 2.86121C25.2931 2.87437 25.3001 2.864 25.3786 2.864V-1.136C24.5374 -1.136 23.6233 -0.912957 22.8739 -0.246818L25.5313 2.74282ZM25.3786 2.864C25.4629 2.864 25.4277 2.8786 25.3324 2.83347C25.2848 2.81091 25.2337 2.77863 25.1855 2.73666C25.1376 2.69494 25.1039 2.65355 25.0825 2.6214L28.4107 0.402599C27.6733 -0.70347 26.5163 -1.136 25.3786 -1.136V2.864ZM25.0825 2.6214C25.0602 2.58788 25.0368 2.54322 25.0188 2.48973C25.0009 2.43628 24.9928 2.38739 24.9904 2.34884C24.9857 2.27335 25.0047 2.27524 24.9659 2.38059L28.7193 3.76341C29.1031 2.72158 29.1411 1.49817 28.4107 0.402599L25.0825 2.6214ZM24.9599 2.39702L20.0639 16.053L23.8293 17.403L28.7253 3.74698L24.9599 2.39702ZM20.0617 16.0592C19.9754 16.3025 19.9104 16.3285 19.9532 16.2943L22.452 19.4177C23.1348 18.8715 23.5658 18.1455 23.8315 17.3968L20.0617 16.0592ZM19.9633 16.2862C19.9952 16.261 20.0261 16.2421 20.0527 16.2287C20.0789 16.2154 20.0974 16.2093 20.1043 16.2073C20.1164 16.2037 20.0811 16.216 19.9786 16.216V20.216C20.7952 20.216 21.6858 20.0227 22.4419 19.4258L19.9633 16.2862ZM19.9786 16.216C19.8761 16.216 19.8408 16.2037 19.8529 16.2073C19.8598 16.2093 19.8783 16.2154 19.9045 16.2287C19.9312 16.2421 19.962 16.261 19.9939 16.2862L17.5153 19.4258C18.2714 20.0227 19.162 20.216 19.9786 20.216V16.216ZM20.0429 16.3262C20.0818 16.359 19.9979 16.3076 19.8833 16.0018L16.1379 17.4062C16.4073 18.1244 16.8194 18.841 17.4663 19.3858L20.0429 16.3262ZM19.8968 16.0388L16.3928 6.10284L12.6205 7.43316L16.1245 17.3692L19.8968 16.0388ZM12.6228 6.09619L9.07081 16.0562L12.8384 17.3998L16.3904 7.43981L12.6228 6.09619ZM9.08947 16.006C8.97935 16.2905 8.89687 16.3476 8.92233 16.3262L11.4989 19.3858C12.1323 18.8524 12.5459 18.1575 12.8197 17.45L9.08947 16.006ZM8.93023 16.3196C8.97107 16.2855 9.0111 16.2599 9.04636 16.2414C9.08116 16.2232 9.10719 16.2142 9.11991 16.2103C9.14286 16.2035 9.11415 16.216 9.0106 16.216V20.216C9.81975 20.216 10.7312 20.0256 11.491 19.3924L8.93023 16.3196ZM29.4969 17.76L28.6024 19.5489L29.4969 17.76ZM27.8889 16.392L26.2248 17.5014L26.2353 17.5172L26.2461 17.5328L27.8889 16.392ZM27.9849 12.408L26.4797 11.091V11.091L27.9849 12.408ZM30.1689 11.328L30.573 13.2867L30.5879 13.2837L30.6027 13.2804L30.1689 11.328ZM35.0409 10.992V12.992H37.0409V10.992H35.0409ZM34.5609 9.096L33.1834 10.546L33.2029 10.5646L33.2229 10.5826L34.5609 9.096ZM31.5129 8.808L31.8814 10.7737L31.9109 10.7682L31.9402 10.7618L31.5129 8.808ZM29.8569 9.312L29.1054 7.45852L29.0872 7.46594L29.069 7.47371L29.8569 9.312ZM28.7289 9.36L27.7268 11.0909L27.7617 11.1111L27.7974 11.1298L28.7289 9.36ZM28.1289 8.592L26.1993 9.11823L26.2025 9.12986L26.2058 9.14144L28.1289 8.592ZM28.2009 7.536L26.3801 6.70839L26.3643 6.74327L26.3498 6.77873L28.2009 7.536ZM29.1129 6.768L29.7855 8.65148L29.8069 8.64384L29.8281 8.63571L29.1129 6.768ZM31.2249 6.168L31.5614 8.13947L31.5803 8.13625L31.5991 8.13268L31.2249 6.168ZM37.1529 7.224L35.792 8.68959L35.799 8.69617L35.8062 8.70268L37.1529 7.224ZM35.1129 16.224H37.1129L33.2462 15.506L35.1129 16.224ZM33.8889 17.712L32.8121 16.0266L32.8012 16.0335L32.7905 16.0406L33.8889 17.712ZM34.3449 15.144L35.7591 16.5582V16.5582L34.3449 15.144ZM35.0409 12.864H37.0409V10.864H35.0409V12.864ZM31.5849 13.2L32.3376 15.0529L32.3622 15.0429L32.3865 15.0323L31.5849 13.2ZM31.2729 15.408L29.8974 16.8599L29.9159 16.8775L29.9349 16.8946L31.2729 15.408ZM31.8249 16.264C31.2023 16.264 30.7417 16.1464 30.3913 15.9711L28.6024 19.5489C29.596 20.0456 30.6874 20.264 31.8249 20.264V16.264ZM30.3913 15.9711C29.997 15.774 29.7268 15.5323 29.5316 15.2512L26.2461 17.5328C26.8509 18.4037 27.6527 19.074 28.6024 19.5489L30.3913 15.9711ZM29.553 15.2826C29.3971 15.0488 29.3129 14.7899 29.3129 14.448H25.3129C25.3129 15.5461 25.6126 16.5832 26.2248 17.5014L29.553 15.2826ZM29.3129 14.448C29.3129 13.9607 29.434 13.789 29.49 13.725L26.4797 11.091C25.6397 12.051 25.3129 13.2393 25.3129 14.448H29.3129ZM29.49 13.725C29.5369 13.6714 29.7844 13.4495 30.573 13.2867L29.7647 9.36927C28.5373 9.62253 27.3288 10.1206 26.4797 11.091L29.49 13.725ZM30.6027 13.2804C31.4089 13.1012 32.5818 12.992 34.1769 12.992V8.992C32.4439 8.992 30.9449 9.10677 29.735 9.37563L30.6027 13.2804ZM34.1769 12.992H35.0409V8.992H34.1769V12.992ZM37.0409 10.992V10.584H33.0409V10.992H37.0409ZM37.0409 10.584C37.0409 9.66208 36.844 8.4601 35.8988 7.60941L33.2229 10.5826C33.1503 10.5172 33.099 10.4506 33.0652 10.3953C33.0323 10.3416 33.0197 10.305 33.0174 10.298C33.0154 10.2916 33.0218 10.3095 33.0284 10.3593C33.035 10.4089 33.0409 10.4825 33.0409 10.584H37.0409ZM35.9384 7.646C35.0535 6.80541 33.8602 6.64 32.9289 6.64V10.64C33.1914 10.64 33.3279 10.6672 33.3746 10.6802C33.4178 10.6923 33.3171 10.673 33.1834 10.546L35.9384 7.646ZM32.9289 6.64C32.3266 6.64 31.7093 6.71774 31.0855 6.8542L31.9402 10.7618C32.3405 10.6743 32.6671 10.64 32.9289 10.64V6.64ZM31.1443 6.84226C30.4758 6.9676 29.7944 7.17921 29.1054 7.45852L30.6083 11.1655C31.1033 10.9648 31.5259 10.8404 31.8814 10.7737L31.1443 6.84226ZM29.069 7.47371C29.0052 7.50105 29.0401 7.47465 29.1538 7.46981C29.2842 7.46426 29.4703 7.49012 29.6603 7.59016L27.7974 11.1298C28.8312 11.674 29.8851 11.4758 30.6447 11.1503L29.069 7.47371ZM29.7309 7.62915C29.7823 7.6589 29.8569 7.71511 29.9269 7.80471C29.997 7.89448 30.0346 7.98196 30.0519 8.04256L26.2058 9.14144C26.445 9.97859 26.977 10.6567 27.7268 11.0909L29.7309 7.62915ZM30.0584 8.06577C30.0671 8.09785 30.0739 8.14559 30.0702 8.20005C30.0666 8.25352 30.0546 8.28667 30.0519 8.29327L26.3498 6.77873C26.0466 7.51972 25.9823 8.32249 26.1993 9.11823L30.0584 8.06577ZM30.0216 8.3636C29.975 8.46603 29.9061 8.55175 29.8371 8.60982C29.7747 8.66243 29.7431 8.66665 29.7855 8.65148L28.4402 4.88452C27.6077 5.18184 26.8138 5.75433 26.3801 6.70839L30.0216 8.3636ZM29.8281 8.63571C30.4822 8.38523 31.0584 8.22536 31.5614 8.13947L30.8883 4.19653C30.0793 4.33463 29.2475 4.57477 28.3976 4.90029L29.8281 8.63571ZM31.5991 8.13268C32.1737 8.02322 32.6624 7.976 33.0729 7.976V3.976C32.3633 3.976 31.62 4.05678 30.8506 4.20332L31.5991 8.13268ZM33.0729 7.976C34.6352 7.976 35.4121 8.33688 35.792 8.68959L38.5138 5.75841C37.1016 4.44712 35.1585 3.976 33.0729 3.976V7.976ZM35.8062 8.70268C36.134 9.00118 36.4969 9.62965 36.4969 11.04H40.4969C40.4969 8.99435 39.9637 7.07882 38.4995 5.74531L35.8062 8.70268ZM36.4969 11.04V16.368H40.4969V11.04H36.4969ZM36.4969 16.368C36.4969 16.5309 36.4776 16.5971 36.4778 16.5965C36.4802 16.5886 36.5077 16.5069 36.597 16.4087C36.69 16.3063 36.7937 16.2483 36.8633 16.2227C36.9215 16.2014 36.9187 16.216 36.8169 16.216V20.216C37.7369 20.216 38.7796 19.9542 39.5567 19.0993C40.301 18.2806 40.4969 17.2476 40.4969 16.368H36.4969ZM36.8169 16.216C36.7083 16.216 36.6989 16.2007 36.7513 16.2196C36.815 16.2427 36.9163 16.2975 37.0092 16.3982C37.0989 16.4955 37.1277 16.5779 37.1311 16.5889C37.1321 16.5922 37.1129 16.5287 37.1129 16.368H33.1129C33.1129 17.2539 33.3137 18.2911 34.0685 19.1098C34.8516 19.9591 35.897 20.216 36.8169 20.216V16.216ZM37.1129 16.368V16.224H33.1129V16.368H37.1129ZM33.2462 15.506C33.1631 15.722 33.0369 15.883 32.8121 16.0266L34.9656 19.3974C35.8928 18.805 36.5826 17.974 36.9795 16.942L33.2462 15.506ZM32.7905 16.0406C32.6216 16.1515 32.3362 16.264 31.8249 16.264V20.264C32.9455 20.264 34.0361 20.0085 34.9872 19.3834L32.7905 16.0406ZM32.6409 17.84C33.829 17.84 34.91 17.4073 35.7591 16.5582L32.9306 13.7298C32.8517 13.8087 32.7967 13.84 32.6409 13.84V17.84ZM35.7591 16.5582C36.6452 15.6721 37.0409 14.54 37.0409 13.344H33.0409C33.0409 13.62 32.9725 13.6879 32.9306 13.7298L35.7591 16.5582ZM37.0409 13.344V12.864H33.0409V13.344H37.0409ZM35.0409 10.864H34.2009V14.864H35.0409V10.864ZM34.2009 10.864C32.9466 10.864 31.7069 10.9636 30.7832 11.3677L32.3865 15.0323C32.3837 15.0335 32.4191 15.0182 32.5082 14.9965C32.5954 14.9754 32.7165 14.9524 32.8776 14.9317C33.2032 14.8899 33.6391 14.864 34.2009 14.864V10.864ZM30.8321 11.3471C30.301 11.5628 29.7629 11.9209 29.367 12.4899C28.9667 13.0654 28.8169 13.7061 28.8169 14.304H32.8169C32.8169 14.3739 32.795 14.5666 32.6507 14.7741C32.5108 14.9751 32.3567 15.0452 32.3376 15.0529L30.8321 11.3471ZM28.8169 14.304C28.8169 15.2584 29.1646 16.1657 29.8974 16.8599L32.6483 13.9561C32.6899 13.9955 32.7424 14.0629 32.7794 14.1525C32.8152 14.2391 32.8169 14.2987 32.8169 14.304H28.8169ZM29.9349 16.8946C30.7405 17.6196 31.7412 17.84 32.6409 17.84V13.84C32.5733 13.84 32.5255 13.8359 32.4946 13.8316C32.4639 13.8274 32.4528 13.8235 32.4571 13.8248C32.4619 13.8264 32.4817 13.8331 32.5112 13.8495C32.5411 13.8662 32.5758 13.8899 32.6108 13.9214L29.9349 16.8946ZM44.7522 8.28H42.7522L46.6063 9.02996L44.7522 8.28ZM48.3282 5.976L48.4519 7.97217L48.4698 7.97106L48.4877 7.96963L48.3282 5.976ZM49.2402 6.288L47.7288 7.59786L47.7756 7.65177L47.826 7.70221L49.2402 6.288ZM49.6002 7.416L47.6011 7.47658L47.6022 7.5107L47.6044 7.54476L49.6002 7.416ZM49.2882 8.592L47.7518 7.31163L47.7302 7.33752L47.7095 7.36412L49.2882 8.592ZM48.1362 9.12L48.3095 11.1125L48.3397 11.1098L48.3699 11.1063L48.1362 9.12ZM47.5842 9.168L47.411 7.17552L47.3998 7.17649L47.3887 7.17758L47.5842 9.168ZM43.0722 16.216C42.9187 16.216 42.8651 16.1964 42.8784 16.2007C42.887 16.2036 42.9135 16.2133 42.9507 16.2353C42.9887 16.2578 43.0314 16.2893 43.0733 16.3307C43.1152 16.3721 43.1482 16.4153 43.1726 16.4554C43.1965 16.4947 43.2079 16.5241 43.2121 16.5367C43.2193 16.5579 43.2002 16.5131 43.2002 16.368H39.2002C39.2002 17.2989 39.4382 18.3629 40.2632 19.1773C41.0834 19.987 42.1464 20.216 43.0722 20.216V16.216ZM43.2002 16.368V7.848H39.2002V16.368H43.2002ZM43.2002 7.848C43.2002 7.70017 43.2189 7.65081 43.2135 7.66742C43.2052 7.69309 43.1696 7.78035 43.0772 7.87523C42.9837 7.97126 42.8901 8.01542 42.847 8.03019C42.8141 8.04144 42.8456 8.024 42.9762 8.024V4.024C42.0622 4.024 41.0125 4.2619 40.2113 5.08477C39.4197 5.89774 39.2002 6.94489 39.2002 7.848H43.2002ZM42.9762 8.024C43.1068 8.024 43.1383 8.04144 43.1054 8.03019C43.0623 8.01542 42.9688 7.97126 42.8753 7.87523C42.7829 7.78035 42.7472 7.69309 42.7389 7.66742C42.7335 7.65081 42.7522 7.70017 42.7522 7.848H46.7522C46.7522 6.94489 46.5327 5.89774 45.7412 5.08477C44.94 4.2619 43.8903 4.024 42.9762 4.024V8.024ZM42.7522 7.848V8.28H46.7522V7.848H42.7522ZM46.6063 9.02996C46.7531 8.66695 46.9415 8.45895 47.1615 8.31726C47.4007 8.16313 47.7967 8.01276 48.4519 7.97217L48.2046 3.97983C47.0518 4.05124 45.9478 4.34087 44.995 4.95474C44.0229 5.58105 43.3273 6.46905 42.8982 7.53004L46.6063 9.02996ZM48.4877 7.96963C48.4805 7.97021 48.372 7.97813 48.2089 7.92233C48.0305 7.86133 47.8591 7.74821 47.7288 7.59786L50.7516 4.97814C50.0187 4.13248 49.0175 3.91447 48.1687 3.98237L48.4877 7.96963ZM47.826 7.70221C47.6636 7.53978 47.6066 7.38883 47.5929 7.34608C47.5809 7.30855 47.597 7.34 47.6011 7.47658L51.5993 7.35542C51.5775 6.63669 51.414 5.63335 50.6544 4.87379L47.826 7.70221ZM47.6044 7.54476C47.6095 7.62378 47.5988 7.62323 47.6131 7.56913C47.6296 7.50685 47.6703 7.40939 47.7518 7.31163L50.8247 9.87237C51.488 9.07638 51.65 8.1234 51.5961 7.28724L47.6044 7.54476ZM47.7095 7.36412C47.824 7.21696 47.9449 7.14663 47.9989 7.12187C48.0435 7.10143 48.0252 7.11927 47.9025 7.1337L48.3699 11.1063C49.1818 11.0108 50.1807 10.7022 50.8669 9.81988L47.7095 7.36412ZM47.963 7.12752L47.411 7.17552L47.7575 11.1605L48.3095 11.1125L47.963 7.12752ZM47.3887 7.17758C46.2141 7.29294 45.03 7.67803 44.1416 8.58236C43.2285 9.51167 42.8962 10.7137 42.8962 11.904H46.8962C46.8962 11.6702 46.9283 11.5342 46.9519 11.4667C46.9727 11.4074 46.9897 11.391 46.9949 11.3856C47.0024 11.378 47.1623 11.2191 47.7797 11.1584L47.3887 7.17758ZM42.8962 11.904V16.368H46.8962V11.904H42.8962ZM42.8962 16.368C42.8962 16.5175 42.8771 16.5677 42.8824 16.5515C42.8857 16.5413 42.8961 16.5135 42.9189 16.475C42.9421 16.4358 42.9745 16.392 43.0168 16.3491C43.0592 16.3061 43.1036 16.2722 43.1448 16.2471C43.1854 16.2225 43.2162 16.2104 43.2303 16.2056C43.2545 16.1975 43.2133 16.216 43.0722 16.216V20.216C43.9952 20.216 45.0533 19.98 45.8637 19.1589C46.6693 18.3427 46.8962 17.2858 46.8962 16.368H42.8962ZM53.3999 17.52L52.4826 19.2972L52.4997 19.306L52.5169 19.3145L53.3999 17.52ZM51.0959 15.384L49.3576 16.373L49.3677 16.3909L49.3783 16.4086L51.0959 15.384ZM51.0719 8.928L49.3336 7.93893L49.3279 7.94893L51.0719 8.928ZM53.2079 6.768L54.2002 8.50451L54.21 8.49885L53.2079 6.768ZM60.4319 7.608L58.9648 8.96725L58.9698 8.97267L58.9749 8.97805L60.4319 7.608ZM53.7599 12.888V10.888H51.4651L51.7787 13.1613L53.7599 12.888ZM54.7679 14.928L53.5242 16.4942L53.5494 16.5143L53.5753 16.5335L54.7679 14.928ZM58.3679 15.432L58.6967 17.4048L58.7224 17.4005L58.748 17.3956L58.3679 15.432ZM59.7839 14.952L58.9144 13.1509L58.9019 13.1569L58.8895 13.1631L59.7839 14.952ZM60.9599 14.832L60.1392 16.6558L60.1778 16.6732L60.2171 16.689L60.9599 14.832ZM61.6079 15.504L59.7202 16.1647L59.7347 16.2061L59.751 16.2468L61.6079 15.504ZM61.6079 16.512L59.7283 15.8285L59.7191 15.8539L59.7105 15.8795L61.6079 16.512ZM60.8159 17.352L59.8677 15.591L59.8617 15.5943L60.8159 17.352ZM58.9439 18.024L58.5342 16.0664L58.5073 16.072L58.4807 16.0784L58.9439 18.024ZM54.6239 9.072L53.2339 7.63402L53.2217 7.6458L53.2097 7.65779L54.6239 9.072ZM53.7599 11.016L51.7778 10.7492L51.4726 13.016H53.7599V11.016ZM58.9439 11.016V13.016H61.056L60.9409 10.9071L58.9439 11.016ZM56.9999 16.264C55.8425 16.264 54.9584 16.0579 54.2829 15.7255L52.5169 19.3145C53.8574 19.9741 55.3734 20.264 56.9999 20.264V16.264ZM54.3172 15.7428C53.6392 15.3928 53.1563 14.934 52.8136 14.3594L49.3783 16.4086C50.1236 17.658 51.1766 18.6232 52.4826 19.2972L54.3172 15.7428ZM52.8342 14.395C52.5047 13.8158 52.3039 13.0802 52.3039 12.12H48.3039C48.3039 13.6558 48.6311 15.0962 49.3576 16.373L52.8342 14.395ZM52.3039 12.12C52.3039 11.1907 52.4973 10.4746 52.8159 9.90707L49.3279 7.94893C48.6225 9.20542 48.3039 10.6173 48.3039 12.12H52.3039ZM52.8102 9.91705C53.1674 9.28925 53.6264 8.83235 54.2002 8.50449L52.2156 5.03151C50.9974 5.72765 50.0324 6.71075 49.3336 7.93895L52.8102 9.91705ZM54.21 8.49885C54.7812 8.16814 55.4754 7.976 56.3519 7.976V3.976C54.8604 3.976 53.4586 4.31185 52.2058 5.03715L54.21 8.49885ZM56.3519 7.976C57.6012 7.976 58.3949 8.35213 58.9648 8.96725L61.899 6.24875C60.4529 4.68787 58.5266 3.976 56.3519 3.976V7.976ZM58.9749 8.97805C59.5523 9.59217 59.9439 10.5117 59.9439 11.976H63.9439C63.9439 9.76027 63.3275 7.76783 61.889 6.23795L58.9749 8.97805ZM59.9439 11.976C59.9439 11.9255 59.9514 11.7896 60.0244 11.6127C60.1024 11.4235 60.2326 11.2437 60.4045 11.1047C60.7226 10.8475 60.9745 10.888 60.8159 10.888V14.888C61.4093 14.888 62.2252 14.7765 62.9194 14.2153C63.6948 13.5883 63.9439 12.7141 63.9439 11.976H59.9439ZM60.8159 10.888H53.7599V14.888H60.8159V10.888ZM51.7787 13.1613C51.9519 14.4175 52.4534 15.6439 53.5242 16.4942L56.0117 13.3618C55.9944 13.3481 55.8239 13.2145 55.7412 12.6147L51.7787 13.1613ZM53.5753 16.5335C54.5937 17.29 55.8335 17.552 57.0719 17.552V13.552C56.3584 13.552 56.0621 13.398 55.9606 13.3225L53.5753 16.5335ZM57.0719 17.552C57.5906 17.552 58.1353 17.4984 58.6967 17.4048L58.0391 13.4592C57.6405 13.5256 57.3212 13.552 57.0719 13.552V17.552ZM58.748 17.3956C59.421 17.2653 60.0662 17.0469 60.6783 16.7409L58.8895 13.1631C58.6056 13.3051 58.3068 13.4067 57.9879 13.4684L58.748 17.3956ZM60.6534 16.7531C60.7368 16.7128 60.7233 16.734 60.6289 16.7437C60.519 16.7549 60.3379 16.7453 60.1392 16.6558L61.7806 13.0082C60.7075 12.5252 59.6552 12.7933 58.9144 13.1509L60.6534 16.7531ZM60.2171 16.689C60.1427 16.6592 60.031 16.597 59.9222 16.4843C59.8129 16.3708 59.7508 16.252 59.7202 16.1647L63.4956 14.8433C63.1891 13.9676 62.549 13.3136 61.7027 12.975L60.2171 16.689ZM59.751 16.2468C59.7229 16.1768 59.7039 16.089 59.7039 15.996C59.7039 15.9057 59.7217 15.8466 59.7283 15.8285L63.4875 17.1955C63.7677 16.4249 63.7919 15.5789 63.4649 14.7612L59.751 16.2468ZM59.7105 15.8795C59.7542 15.7486 59.8209 15.6549 59.8707 15.602C59.9149 15.5552 59.9283 15.5584 59.8677 15.5911L61.7641 19.1129C62.4753 18.73 63.1844 18.107 63.5053 17.1445L59.7105 15.8795ZM59.8617 15.5943C59.4891 15.7966 59.0514 15.9582 58.5342 16.0664L59.3536 19.9816C60.2125 19.8018 61.0227 19.5154 61.7701 19.1097L59.8617 15.5943ZM58.4807 16.0784C57.9445 16.2061 57.4523 16.264 56.9999 16.264V20.264C57.7955 20.264 58.5994 20.1619 59.4072 19.9696L58.4807 16.0784ZM56.4959 6.376C55.2934 6.376 54.1432 6.75499 53.2339 7.63402L56.014 10.51C56.0646 10.461 56.1625 10.376 56.4959 10.376V6.376ZM53.2097 7.65779C52.3585 8.50899 51.9318 9.60529 51.7778 10.7492L55.742 11.2828C55.812 10.7627 55.9613 10.563 56.0381 10.4862L53.2097 7.65779ZM53.7599 13.016H58.9439V9.016H53.7599V13.016ZM60.9409 10.9071C60.8791 9.773 60.5712 8.58716 59.7265 7.67612C58.8406 6.72081 57.6553 6.376 56.4959 6.376V10.376C56.6923 10.376 56.786 10.4044 56.8121 10.4142C56.8282 10.4202 56.811 10.4149 56.7934 10.3959C56.7646 10.3648 56.9127 10.499 56.9469 11.1249L60.9409 10.9071ZM67.6758 7.824H65.6758V14.2889L69.3264 8.95337L67.6758 7.824ZM69.2838 6.456L70.1247 8.27062L70.1428 8.26226L70.1606 8.25354L69.2838 6.456ZM72.4518 17.736L71.0018 19.1135L71.0194 19.1321L71.0376 19.1502L72.4518 17.736ZM71.5398 9.336L69.9979 10.6098L70.0118 10.6267L70.0261 10.6432L71.5398 9.336ZM68.3478 9.504L66.9098 8.11396L66.8976 8.12655L66.8857 8.13936L68.3478 9.504ZM65.8758 16.216C65.7348 16.216 65.6935 16.1975 65.7177 16.2056C65.7318 16.2104 65.7626 16.2225 65.8032 16.2471C65.8445 16.2722 65.8888 16.3061 65.9312 16.3491C65.9735 16.392 66.0059 16.4358 66.0292 16.475C66.052 16.5135 66.0623 16.5413 66.0656 16.5515C66.0709 16.5677 66.0518 16.5175 66.0518 16.368H62.0518C62.0518 17.2858 62.2787 18.3427 63.0844 19.1589C63.8947 19.98 64.9528 20.216 65.8758 20.216V16.216ZM66.0518 16.368V2.712H62.0518V16.368H66.0518ZM66.0518 2.712C66.0518 2.56246 66.0709 2.51233 66.0656 2.52855C66.0623 2.53869 66.052 2.56649 66.0292 2.60499C66.0059 2.64421 65.9735 2.68805 65.9312 2.73094C65.8888 2.77387 65.8445 2.80779 65.8032 2.83288C65.7626 2.85755 65.7318 2.8696 65.7177 2.87436C65.6935 2.88255 65.7348 2.864 65.8758 2.864V-1.136C64.9528 -1.136 63.8947 -0.899977 63.0844 -0.0789411C62.2787 0.737276 62.0518 1.79424 62.0518 2.712H66.0518ZM65.8758 2.864C66.0105 2.864 66.0455 2.88196 66.0157 2.87176C65.9989 2.86601 65.9659 2.85272 65.9237 2.82672C65.8808 2.8003 65.8357 2.76518 65.7931 2.72148C65.7027 2.62863 65.6684 2.54386 65.661 2.52111C65.6566 2.50744 65.6758 2.56022 65.6758 2.712H69.6758C69.6758 1.80072 69.4542 0.74747 68.6585 -0.0694854C67.8532 -0.8962 66.7976 -1.136 65.8758 -1.136V2.864ZM65.6758 2.712V7.824H69.6758V2.712H65.6758ZM69.3264 8.95337C69.5431 8.63659 69.8018 8.42026 70.1247 8.27062L68.4429 4.64138C67.4538 5.09974 66.6404 5.79541 66.0252 6.69463L69.3264 8.95337ZM70.1606 8.25354C70.5181 8.07916 70.942 7.976 71.4678 7.976V3.976C70.3935 3.976 69.3615 4.19283 68.4069 4.65846L70.1606 8.25354ZM71.4678 7.976C72.443 7.976 72.8416 8.24972 73.0502 8.49821C73.3151 8.81358 73.6198 9.5034 73.6198 10.92H77.6198C77.6198 9.0406 77.2325 7.25842 76.1133 5.92579C74.938 4.52627 73.2606 3.976 71.4678 3.976V7.976ZM73.6198 10.92V16.368H77.6198V10.92H73.6198ZM73.6198 16.368C73.6198 16.5175 73.6006 16.5677 73.606 16.5515C73.6093 16.5413 73.6196 16.5135 73.6424 16.475C73.6656 16.4358 73.698 16.392 73.7404 16.3491C73.7827 16.3061 73.8271 16.2722 73.8684 16.2471C73.909 16.2225 73.9398 16.2104 73.9539 16.2056C73.9781 16.1975 73.9368 16.216 73.7958 16.216V20.216C74.7187 20.216 75.7768 19.98 76.5872 19.1589C77.3928 18.3427 77.6198 17.2858 77.6198 16.368H73.6198ZM73.7958 16.216C73.6902 16.216 73.6685 16.2011 73.7005 16.2125C73.7171 16.2185 73.7438 16.23 73.7758 16.25C73.8081 16.2702 73.8389 16.2947 73.866 16.3218L71.0376 19.1502C71.8279 19.9406 72.8413 20.216 73.7958 20.216V16.216ZM73.9018 16.3585C73.9329 16.3912 73.9579 16.4254 73.9766 16.4572C73.9951 16.4886 74.0039 16.5119 74.0072 16.5215C74.0128 16.5384 73.9958 16.4969 73.9958 16.368H69.9958C69.9958 17.2937 70.2381 18.3097 71.0018 19.1135L73.9018 16.3585ZM73.9958 16.368V11.088H69.9958V16.368H73.9958ZM73.9958 11.088C73.9958 10.1199 73.834 8.93251 73.0534 8.02876L70.0261 10.6432C69.9274 10.5288 69.9253 10.4613 69.9463 10.5418C69.9675 10.6231 69.9958 10.7946 69.9958 11.088H73.9958ZM73.0817 8.06224C72.3081 7.12581 71.2277 6.784 70.1958 6.784V10.784C70.2875 10.784 70.2802 10.7984 70.216 10.772C70.1834 10.7587 70.1433 10.7376 70.1013 10.7068C70.0592 10.6759 70.0245 10.642 69.9979 10.6098L73.0817 8.06224ZM70.1958 6.784C68.9745 6.784 67.8083 7.18454 66.9098 8.11396L69.7858 10.894C69.8153 10.8635 69.8811 10.784 70.1958 10.784V6.784ZM66.8857 8.13936C66.0199 9.06697 65.6758 10.234 65.6758 11.424H69.6758C69.6758 11.014 69.7797 10.901 69.8099 10.8686L66.8857 8.13936ZM65.6758 11.424V16.368H69.6758V11.424H65.6758ZM65.6758 16.368C65.6758 16.5198 65.6566 16.5726 65.661 16.5589C65.6684 16.5361 65.7027 16.4514 65.7931 16.3585C65.8357 16.3148 65.8808 16.2797 65.9237 16.2533C65.9659 16.2273 65.9989 16.214 66.0157 16.2082C66.0455 16.198 66.0105 16.216 65.8758 16.216V20.216C66.7976 20.216 67.8532 19.9762 68.6585 19.1495C69.4542 18.3325 69.6758 17.2793 69.6758 16.368H65.6758ZM80.6772 17.52L79.7111 19.2712L79.7289 19.281L79.747 19.2905L80.6772 17.52ZM78.5172 15.384L76.7661 16.3502L76.7696 16.3566L76.7733 16.3631L78.5172 15.384ZM78.5172 8.856L80.2612 9.83507L80.2648 9.82862L80.2684 9.82215L78.5172 8.856ZM80.6772 6.72L79.747 4.94951L79.7407 4.9528L79.7345 4.95614L80.6772 6.72ZM87.2772 6.72L86.3345 8.48386L86.3407 8.4872L86.347 8.49049L87.2772 6.72ZM89.4612 8.856L87.7101 9.82215L87.72 9.84022L87.7304 9.85807L89.4612 8.856ZM89.4612 15.384L87.7229 14.3949L87.7173 14.4049L89.4612 15.384ZM87.2772 17.52L88.22 19.2839L88.2308 19.2781L87.2772 17.52ZM85.8612 14.712L84.3641 13.3859L84.3533 13.3981L84.3427 13.4104L85.8612 14.712ZM85.8612 9.528L84.3427 10.8296L84.3627 10.8529L84.3833 10.8755L85.8612 9.528ZM82.1172 9.528L83.6169 10.8512L83.6264 10.8405L83.6357 10.8296L82.1172 9.528ZM82.1172 14.712L83.6357 13.4104L82.1172 14.712ZM83.9892 16.264C82.9894 16.264 82.2159 16.0692 81.6075 15.7495L79.747 19.2905C81.0266 19.9628 82.461 20.264 83.9892 20.264V16.264ZM81.6434 15.7688C81.0369 15.4342 80.5883 14.9876 80.2612 14.4049L76.7733 16.3631C77.4701 17.6044 78.4616 18.5818 79.7111 19.2712L81.6434 15.7688ZM80.2684 14.4178C79.9484 13.8378 79.7492 13.0871 79.7492 12.096H75.7492C75.7492 13.6329 76.0621 15.0742 76.7661 16.3502L80.2684 14.4178ZM79.7492 12.096C79.7492 11.1246 79.9468 10.3951 80.2612 9.83507L76.7733 7.87693C76.0637 9.14087 75.7492 10.5714 75.7492 12.096H79.7492ZM80.2684 9.82215C80.5951 9.22998 81.0355 8.79626 81.62 8.48386L79.7345 4.95614C78.463 5.63574 77.4634 6.62602 76.7661 7.88984L80.2684 9.82215ZM81.6075 8.49049C82.2159 8.17083 82.9894 7.976 83.9892 7.976V3.976C82.461 3.976 81.0266 4.27717 79.747 4.94951L81.6075 8.49049ZM83.9892 7.976C84.9902 7.976 85.7495 8.1712 86.3345 8.48386L88.22 4.95614C86.949 4.27679 85.5163 3.976 83.9892 3.976V7.976ZM86.347 8.49049C86.9468 8.80565 87.3884 9.23904 87.7101 9.82215L91.2124 7.88984C90.5101 6.61696 89.4957 5.62635 88.2075 4.94951L86.347 8.49049ZM87.7304 9.85807C88.052 10.4137 88.2532 11.1347 88.2532 12.096H92.2532C92.2532 10.5613 91.9264 9.12231 91.1921 7.85393L87.7304 9.85807ZM88.2532 12.096C88.2532 13.0772 88.0503 13.8195 87.7229 14.395L91.1996 16.373C91.9282 15.0925 92.2532 13.6428 92.2532 12.096H88.2532ZM87.7173 14.4049C87.3951 14.9787 86.9454 15.4248 86.3237 15.7619L88.2308 19.2781C89.4971 18.5912 90.5033 17.6133 91.2052 16.3631L87.7173 14.4049ZM86.3345 15.7561C85.7495 16.0688 84.9902 16.264 83.9892 16.264V20.264C85.5163 20.264 86.949 19.9632 88.22 19.2839L86.3345 15.7561ZM83.9892 17.552C85.3135 17.552 86.5022 17.0374 87.3797 16.0136L84.3427 13.4104C84.2793 13.4844 84.2368 13.5072 84.2144 13.5173C84.1899 13.5283 84.1258 13.552 83.9892 13.552V17.552ZM87.3584 16.0381C88.3214 14.9508 88.6052 13.4981 88.6052 12.096H84.6052C84.6052 13.0619 84.3931 13.3532 84.3641 13.3859L87.3584 16.0381ZM88.6052 12.096C88.6052 10.7081 88.3206 9.25693 87.3391 8.18049L84.3833 10.8755C84.3939 10.8871 84.6052 11.1479 84.6052 12.096H88.6052ZM87.3797 8.22642C86.5022 7.20261 85.3135 6.688 83.9892 6.688V10.688C84.1258 10.688 84.1899 10.7117 84.2144 10.7227C84.2368 10.7328 84.2793 10.7555 84.3427 10.8296L87.3797 8.22642ZM83.9892 6.688C82.6649 6.688 81.4763 7.20261 80.5987 8.22642L83.6357 10.8296C83.6992 10.7555 83.7416 10.7328 83.764 10.7227C83.7886 10.7117 83.8527 10.688 83.9892 10.688V6.688ZM80.6176 8.20476C79.6685 9.28038 79.3972 10.7209 79.3972 12.096H83.3972C83.3972 11.1351 83.606 10.8636 83.6169 10.8512L80.6176 8.20476ZM79.3972 12.096C79.3972 13.4857 79.6679 14.9277 80.5987 16.0136L83.6357 13.4104C83.6065 13.3763 83.3972 13.0743 83.3972 12.096H79.3972ZM80.5987 16.0136C81.4763 17.0374 82.6649 17.552 83.9892 17.552V13.552C83.8527 13.552 83.7886 13.5283 83.764 13.5173C83.7416 13.5072 83.6992 13.4844 83.6357 13.4104L80.5987 16.0136ZM93.466 17.016L91.9393 18.3079L91.9464 18.3164L91.9537 18.3248L93.466 17.016ZM99.514 14.736L98.0298 13.3954L98.0275 13.3981L99.514 14.736ZM100.738 17.736L102.188 16.3585V16.3585L100.738 17.736ZM100.282 16.392H102.282V9.44857L98.5885 15.3281L100.282 16.392ZM96.802 16.264C95.6553 16.264 95.1934 15.9557 94.9784 15.7072L91.9537 18.3248C93.1787 19.7403 94.9408 20.264 96.802 20.264V16.264ZM94.9928 15.7241C94.7195 15.4011 94.41 14.7017 94.41 13.272H90.41C90.41 15.1703 90.8046 16.9669 91.9393 18.3079L94.9928 15.7241ZM94.41 13.272V7.848H90.41V13.272H94.41ZM94.41 7.848C94.41 7.70243 94.4287 7.65577 94.4224 7.67495C94.413 7.70351 94.376 7.79119 94.2836 7.88482C94.1906 7.97901 94.0998 8.02024 94.0626 8.03282C94.0353 8.04204 94.073 8.024 94.21 8.024V4.024C93.295 4.024 92.2429 4.25807 91.4365 5.07518C90.6349 5.88741 90.41 6.93832 90.41 7.848H94.41ZM94.21 8.024C94.3533 8.024 94.3973 8.04261 94.3756 8.03537C94.3442 8.0249 94.2561 7.98654 94.1638 7.89421C94.0715 7.80189 94.0331 7.71387 94.0227 7.68246C94.0154 7.66073 94.034 7.7047 94.034 7.848H98.034C98.034 6.93171 97.8036 5.87715 96.9923 5.06579C96.1809 4.25443 95.1263 4.024 94.21 4.024V8.024ZM94.034 7.848V13.368H98.034V7.848H94.034ZM94.034 13.368C94.034 14.3056 94.2298 15.3821 94.9692 16.2399C95.7577 17.1545 96.8419 17.456 97.834 17.456V13.456C97.7228 13.456 97.7143 13.4394 97.7678 13.4601C97.7959 13.4709 97.8353 13.49 97.8797 13.5208C97.9244 13.552 97.965 13.5888 97.9989 13.6281C98.0687 13.7092 98.0783 13.7625 98.0688 13.7291C98.0575 13.6899 98.034 13.5788 98.034 13.368H94.034ZM97.834 17.456C99.0472 17.456 100.162 17.0055 101.001 16.0739L98.0275 13.3981C98.0082 13.4194 97.9959 13.4291 97.9912 13.4324C97.9869 13.4355 97.9846 13.4367 97.9822 13.4377C97.9814 13.4381 97.9421 13.456 97.834 13.456V17.456ZM100.998 16.0766C101.841 15.1432 102.186 13.9844 102.186 12.792H98.186C98.186 13.1996 98.0828 13.3368 98.0298 13.3954L100.998 16.0766ZM102.186 12.792V7.848H98.186V12.792H102.186ZM102.186 7.848C102.186 7.70243 102.205 7.65577 102.198 7.67495C102.189 7.70351 102.152 7.79119 102.06 7.88482C101.967 7.97901 101.876 8.02024 101.839 8.03282C101.811 8.04204 101.849 8.024 101.986 8.024V4.024C101.071 4.024 100.019 4.25807 99.2125 5.07518C98.4109 5.88741 98.186 6.93833 98.186 7.848H102.186ZM101.986 8.024C102.129 8.024 102.173 8.04261 102.152 8.03537C102.12 8.0249 102.032 7.98654 101.94 7.89421C101.848 7.80189 101.809 7.71387 101.799 7.68246C101.791 7.66073 101.81 7.7047 101.81 7.848H105.81C105.81 6.93171 105.58 5.87715 104.768 5.06579C103.957 4.25443 102.902 4.024 101.986 4.024V8.024ZM101.81 7.848V16.368H105.81V7.848H101.81ZM101.81 16.368C101.81 16.5242 101.791 16.5824 101.794 16.5738C101.799 16.5569 101.83 16.4732 101.921 16.378C101.963 16.3328 102.01 16.2953 102.056 16.2661C102.102 16.2374 102.139 16.2216 102.161 16.2137C102.202 16.1993 102.18 16.216 102.058 16.216V20.216C102.978 20.216 104.029 19.9681 104.823 19.13C105.599 18.312 105.81 17.2665 105.81 16.368H101.81ZM102.058 16.216C101.951 16.216 101.937 16.2008 101.98 16.2164C102.002 16.2246 102.036 16.2398 102.076 16.2654C102.116 16.2913 102.154 16.323 102.188 16.3585L99.288 19.1135C100.075 19.9424 101.109 20.216 102.058 20.216V16.216ZM102.188 16.3585C102.216 16.3881 102.24 16.4199 102.258 16.4509C102.276 16.4815 102.286 16.5053 102.29 16.5174C102.298 16.5398 102.282 16.5073 102.282 16.392H98.282C98.282 17.3192 98.5335 18.3192 99.288 19.1135L102.188 16.3585ZM98.5885 15.3281C98.1888 15.9644 97.6852 16.264 96.802 16.264V20.264C98.9908 20.264 100.807 19.3156 101.976 17.4559L98.5885 15.3281ZM108.942 18.072L108.6 20.0424L108.607 20.0436L108.942 18.072ZM106.926 17.424L106.004 19.1984L106.018 19.2058L106.032 19.2129L106.926 17.424ZM106.134 16.632L104.247 17.2927L104.261 17.3341L104.277 17.3748L106.134 16.632ZM106.134 15.696L108.011 16.3874L106.134 15.696ZM106.734 15.024L107.629 16.8129L107.668 16.7934L107.706 16.7723L106.734 15.024ZM107.742 15.024L106.973 16.8702L106.976 16.8715L107.742 15.024ZM109.542 15.6L109.139 17.5589L109.15 17.5612L109.542 15.6ZM112.638 15.456L113.728 17.1329L113.757 17.1142L113.785 17.0945L112.638 15.456ZM111.894 13.536L111.538 15.5041L111.547 15.5056L111.894 13.536ZM109.374 13.08L109.73 11.1119L109.718 11.1098L109.374 13.08ZM107.07 12L105.635 13.393L107.07 12ZM106.95 7.8L108.529 9.02788V9.02788L106.95 7.8ZM108.798 6.456L108.042 4.6043L108.798 6.456ZM115.254 6.792L114.36 8.58085L114.376 8.5887L114.391 8.59627L115.254 6.792ZM115.926 7.536L113.986 8.02107L113.997 8.06617L114.011 8.1107L115.926 7.536ZM115.878 8.472L117.722 9.24812L117.722 9.24811L115.878 8.472ZM115.254 9.168L116.149 10.9569L116.188 10.9374L116.226 10.9163L115.254 9.168ZM114.222 9.12L113.395 10.9407L113.406 10.9457L113.417 10.9506L114.222 9.12ZM112.782 8.616L112.28 10.552L112.314 10.5608L112.348 10.5684L112.782 8.616ZM109.998 8.808L111.145 10.4465L111.172 10.4277L111.198 10.408L109.998 8.808ZM110.646 10.728L110.27 12.6923L110.28 12.6942L110.29 12.696L110.646 10.728ZM113.166 11.184L112.81 13.152L112.821 13.1541L112.833 13.156L113.166 11.184ZM115.542 12.24L114.149 13.6752L114.16 13.6859L114.172 13.6964L115.542 12.24ZM114.918 17.232L113.753 15.6064L114.918 17.232ZM111.126 16.264C110.544 16.264 109.928 16.211 109.278 16.1004L108.607 20.0436C109.46 20.189 110.301 20.264 111.126 20.264V16.264ZM109.285 16.1016C108.722 16.0037 108.238 15.844 107.821 15.6351L106.032 19.2129C106.83 19.612 107.691 19.8843 108.6 20.0424L109.285 16.1016ZM107.849 15.6496C107.794 15.6209 107.804 15.617 107.843 15.6558C107.886 15.6992 107.947 15.7774 107.991 15.8892L104.277 17.3748C104.632 18.2614 105.312 18.8388 106.004 19.1984L107.849 15.6496ZM108.022 15.9713C108.034 16.0053 108.05 16.0703 108.05 16.158C108.05 16.247 108.033 16.3266 108.011 16.3874L104.258 15.0046C103.977 15.7658 103.989 16.5564 104.247 17.2927L108.022 15.9713ZM108.011 16.3874C107.987 16.4525 107.94 16.5422 107.86 16.632C107.78 16.722 107.694 16.78 107.629 16.8129L105.84 13.2351C105.094 13.6083 104.544 14.2264 104.258 15.0046L108.011 16.3874ZM107.706 16.7723C107.546 16.8608 107.367 16.904 107.202 16.904C107.051 16.904 106.969 16.8683 106.973 16.8702L108.512 13.1778C107.725 12.8503 106.723 12.7426 105.763 13.2757L107.706 16.7723ZM106.976 16.8715C107.719 17.1794 108.442 17.4154 109.139 17.5589L109.946 13.6411C109.554 13.5606 109.078 13.4126 108.508 13.1765L106.976 16.8715ZM109.15 17.5612C109.825 17.6961 110.493 17.768 111.15 17.768V13.768C110.784 13.768 110.38 13.7279 109.935 13.6388L109.15 17.5612ZM111.15 17.768C111.952 17.768 112.92 17.6582 113.728 17.1329L111.548 13.7791C111.651 13.7122 111.697 13.7156 111.616 13.7326C111.538 13.7488 111.39 13.768 111.15 13.768V17.768ZM113.785 17.0945C114.571 16.5441 115.118 15.6759 115.118 14.592H111.118C111.118 14.4521 111.154 14.2741 111.25 14.1007C111.342 13.9348 111.449 13.8474 111.491 13.8175L113.785 17.0945ZM115.118 14.592C115.118 13.7565 114.783 12.9663 114.119 12.3937C113.533 11.8883 112.829 11.6701 112.242 11.5664L111.547 15.5056C111.775 15.5459 111.684 15.5757 111.506 15.4223C111.403 15.334 111.294 15.2021 111.216 15.0277C111.139 14.8553 111.118 14.6993 111.118 14.592H115.118ZM112.25 11.568L109.73 11.112L109.018 15.048L111.538 15.504L112.25 11.568ZM109.718 11.1098C108.983 10.9814 108.653 10.7586 108.505 10.607L105.635 13.393C106.544 14.3294 107.75 14.8266 109.03 15.0502L109.718 11.1098ZM108.505 10.607C108.398 10.4962 108.278 10.3139 108.278 9.864H104.278C104.278 11.1741 104.687 12.4158 105.635 13.393L108.505 10.607ZM108.278 9.864C108.278 9.46329 108.381 9.21854 108.529 9.02788L105.372 6.57212C104.624 7.53346 104.278 8.66471 104.278 9.864H108.278ZM108.529 9.02788C108.73 8.76989 109.042 8.51684 109.554 8.30769L108.042 4.6043C106.987 5.03516 106.067 5.67811 105.372 6.57212L108.529 9.02788ZM109.554 8.30769C110.054 8.10381 110.693 7.976 111.51 7.976V3.976C110.28 3.976 109.111 4.16819 108.042 4.6043L109.554 8.30769ZM111.51 7.976C112.657 7.976 113.59 8.19605 114.36 8.58085L116.149 5.00315C114.742 4.29995 113.18 3.976 111.51 3.976V7.976ZM114.391 8.59627C114.391 8.59587 114.311 8.5578 114.214 8.45057C114.109 8.33446 114.027 8.18366 113.986 8.02107L117.867 7.05093C117.608 6.01792 116.884 5.35434 116.117 4.98773L114.391 8.59627ZM114.011 8.1107C113.997 8.06663 113.984 7.99571 113.989 7.90757C113.993 7.81907 114.014 7.74576 114.035 7.69589L117.722 9.24811C118.032 8.50994 118.07 7.72006 117.842 6.9613L114.011 8.1107ZM114.035 7.69588C114.052 7.65526 114.084 7.59775 114.137 7.53891C114.19 7.48004 114.244 7.44144 114.283 7.41968L116.226 10.9163C116.905 10.5387 117.42 9.96409 117.722 9.24812L114.035 7.69588ZM114.36 7.37914C114.543 7.28761 114.728 7.25941 114.873 7.26616C115.003 7.27221 115.061 7.3038 115.028 7.28937L113.417 10.9506C114.156 11.2757 115.156 11.4534 116.149 10.9569L114.36 7.37914ZM115.05 7.29927C114.432 7.01845 113.818 6.79734 113.216 6.66363L112.348 10.5684C112.611 10.6267 112.956 10.7415 113.395 10.9407L115.05 7.29927ZM113.284 6.68001C112.714 6.5322 112.136 6.448 111.558 6.448V10.448C111.748 10.448 111.986 10.4758 112.28 10.552L113.284 6.68001ZM111.558 6.448C110.71 6.448 109.647 6.57125 108.798 7.208L111.198 10.408C111.074 10.5012 111.004 10.504 111.078 10.4868C111.15 10.4703 111.301 10.448 111.558 10.448V6.448ZM108.851 7.16954C108.065 7.71993 107.518 8.58813 107.518 9.672H111.518C111.518 9.81189 111.483 9.98987 111.387 10.1633C111.294 10.3292 111.188 10.4166 111.145 10.4465L108.851 7.16954ZM107.518 9.672C107.518 10.4515 107.804 11.2266 108.433 11.816C109.001 12.3471 109.692 12.5816 110.27 12.6923L111.022 8.76369C110.849 8.73039 110.976 8.71687 111.167 8.89596C111.272 8.99454 111.371 9.1286 111.438 9.29068C111.503 9.44903 111.518 9.58568 111.518 9.672H107.518ZM110.29 12.696L112.81 13.152L113.522 9.21596L111.002 8.75996L110.29 12.696ZM112.833 13.156C113.625 13.29 113.989 13.52 114.149 13.6752L116.935 10.8048C116.007 9.90405 114.788 9.43 113.5 9.21204L112.833 13.156ZM114.172 13.6964C114.235 13.7561 114.358 13.8886 114.358 14.352H118.358C118.358 13.0234 117.938 11.7479 116.913 10.7836L114.172 13.6964ZM114.358 14.352C114.358 14.972 114.163 15.3127 113.753 15.6064L116.083 18.8576C117.594 17.7753 118.358 16.196 118.358 14.352H114.358ZM113.753 15.6064C113.229 15.9824 112.412 16.264 111.126 16.264V20.264C112.977 20.264 114.688 19.8576 116.083 18.8576L113.753 15.6064ZM120.947 17.52L120.03 19.2972L120.047 19.306L120.064 19.3145L120.947 17.52ZM118.643 15.384L116.904 16.373L116.915 16.3909L116.925 16.4086L118.643 15.384ZM118.619 8.928L116.88 7.93893L116.875 7.94893L118.619 8.928ZM120.755 6.768L121.747 8.50451L121.757 8.49885L120.755 6.768ZM127.979 7.608L126.512 8.96725L126.517 8.97267L126.522 8.97805L127.979 7.608ZM121.307 12.888V10.888H119.012L119.326 13.1613L121.307 12.888ZM122.315 14.928L121.071 16.4942L121.096 16.5143L121.122 16.5335L122.315 14.928ZM125.915 15.432L126.244 17.4048L126.269 17.4005L126.295 17.3956L125.915 15.432ZM127.331 14.952L126.461 13.1509L126.449 13.1569L126.436 13.1631L127.331 14.952ZM128.507 14.832L127.686 16.6558L127.725 16.6732L127.764 16.689L128.507 14.832ZM129.155 15.504L127.267 16.1647L127.282 16.2061L127.298 16.2468L129.155 15.504ZM129.155 16.512L127.275 15.8285L127.266 15.8539L127.257 15.8795L129.155 16.512ZM128.363 17.352L127.415 15.591L127.409 15.5943L128.363 17.352ZM126.491 18.024L126.081 16.0664L126.054 16.072L126.028 16.0784L126.491 18.024ZM122.171 9.072L120.781 7.63402L120.769 7.6458L120.757 7.65779L122.171 9.072ZM121.307 11.016L119.325 10.7492L119.02 13.016H121.307V11.016ZM126.491 11.016V13.016H128.603L128.488 10.9071L126.491 11.016ZM124.547 16.264C123.389 16.264 122.505 16.0579 121.83 15.7255L120.064 19.3145C121.404 19.9741 122.92 20.264 124.547 20.264V16.264ZM121.864 15.7428C121.186 15.3928 120.703 14.934 120.36 14.3594L116.925 16.4086C117.67 17.658 118.723 18.6232 120.03 19.2972L121.864 15.7428ZM120.381 14.395C120.052 13.8158 119.851 13.0802 119.851 12.12H115.851C115.851 13.6558 116.178 15.0962 116.904 16.373L120.381 14.395ZM119.851 12.12C119.851 11.1907 120.044 10.4746 120.363 9.90707L116.875 7.94893C116.169 9.20542 115.851 10.6173 115.851 12.12H119.851ZM120.357 9.91705C120.714 9.28925 121.173 8.83235 121.747 8.50449L119.763 5.03151C118.544 5.72765 117.579 6.71075 116.88 7.93895L120.357 9.91705ZM121.757 8.49885C122.328 8.16814 123.022 7.976 123.899 7.976V3.976C122.407 3.976 121.005 4.31185 119.753 5.03715L121.757 8.49885ZM123.899 7.976C125.148 7.976 125.942 8.35213 126.512 8.96725L129.446 6.24875C128 4.68787 126.073 3.976 123.899 3.976V7.976ZM126.522 8.97805C127.099 9.59217 127.491 10.5117 127.491 11.976H131.491C131.491 9.76027 130.874 7.76783 129.436 6.23795L126.522 8.97805ZM127.491 11.976C127.491 11.9255 127.498 11.7896 127.571 11.6127C127.649 11.4235 127.779 11.2437 127.951 11.1047C128.27 10.8475 128.521 10.888 128.363 10.888V14.888C128.956 14.888 129.772 14.7765 130.466 14.2153C131.242 13.5883 131.491 12.7141 131.491 11.976H127.491ZM128.363 10.888H121.307V14.888H128.363V10.888ZM119.326 13.1613C119.499 14.4175 120 15.6439 121.071 16.4942L123.559 13.3618C123.541 13.3481 123.371 13.2145 123.288 12.6147L119.326 13.1613ZM121.122 16.5335C122.141 17.29 123.38 17.552 124.619 17.552V13.552C123.905 13.552 123.609 13.398 123.507 13.3225L121.122 16.5335ZM124.619 17.552C125.138 17.552 125.682 17.4984 126.244 17.4048L125.586 13.4592C125.187 13.5256 124.868 13.552 124.619 13.552V17.552ZM126.295 17.3956C126.968 17.2653 127.613 17.0469 128.225 16.7409L126.436 13.1631C126.152 13.3051 125.854 13.4067 125.535 13.4684L126.295 17.3956ZM128.2 16.7531C128.284 16.7128 128.27 16.734 128.176 16.7437C128.066 16.7549 127.885 16.7453 127.686 16.6558L129.328 13.0082C128.254 12.5252 127.202 12.7933 126.461 13.1509L128.2 16.7531ZM127.764 16.689C127.69 16.6592 127.578 16.597 127.469 16.4843C127.36 16.3708 127.298 16.252 127.267 16.1647L131.043 14.8433C130.736 13.9676 130.096 13.3136 129.25 12.975L127.764 16.689ZM127.298 16.2468C127.27 16.1768 127.251 16.089 127.251 15.996C127.251 15.9057 127.269 15.8466 127.275 15.8285L131.034 17.1955C131.315 16.4249 131.339 15.5789 131.012 14.7612L127.298 16.2468ZM127.257 15.8795C127.301 15.7486 127.368 15.6549 127.418 15.602C127.462 15.5552 127.475 15.5584 127.415 15.5911L129.311 19.1129C130.022 18.73 130.731 18.107 131.052 17.1445L127.257 15.8795ZM127.409 15.5943C127.036 15.7966 126.598 15.9582 126.081 16.0664L126.901 19.9816C127.759 19.8018 128.57 19.5154 129.317 19.1097L127.409 15.5943ZM126.028 16.0784C125.491 16.2061 124.999 16.264 124.547 16.264V20.264C125.342 20.264 126.146 20.1619 126.954 19.9696L126.028 16.0784ZM124.043 6.376C122.84 6.376 121.69 6.75499 120.781 7.63402L123.561 10.51C123.611 10.461 123.709 10.376 124.043 10.376V6.376ZM120.757 7.65779C119.905 8.50899 119.479 9.60529 119.325 10.7492L123.289 11.2828C123.359 10.7627 123.508 10.563 123.585 10.4862L120.757 7.65779ZM121.307 13.016H126.491V9.016H121.307V13.016ZM128.488 10.9071C128.426 9.773 128.118 8.58716 127.273 7.67612C126.387 6.72081 125.202 6.376 124.043 6.376V10.376C124.239 10.376 124.333 10.4044 124.359 10.4142C124.375 10.4202 124.358 10.4149 124.34 10.3959C124.311 10.3648 124.46 10.499 124.494 11.1249L128.488 10.9071Z" fill="#5B3511"/>
</g>
<defs>
<filter id="filter0_d_42_575" x="0.810547" y="0.864014" width="129.68" height="20.3999" filterUnits="userSpaceOnUse" color-interpolation-filters="sRGB">
<feFlood flood-opacity="0" result="BackgroundImageFix"/>
<feColorMatrix in="SourceAlpha" type="matrix" values="0 0 0 0 0 0 0 0 0 0 0 0 0 0 0 0 0 0 127 0" result="hardAlpha"/>
<feOffset dy="2"/>
<feGaussianBlur stdDeviation="0.5"/>
<feComposite in2="hardAlpha" operator="out"/>
<feColorMatrix type="matrix" values="0 0 0 0 0 0 0 0 0 0 0 0 0 0 0 0 0 0 0.25 0"/>
<feBlend mode="normal" in2="BackgroundImageFix" result="effect1_dropShadow_42_575"/>
<feBlend mode="normal" in="SourceGraphic" in2="effect1_dropShadow_42_575" result="shape"/>
</filter>
<linearGradient id="paint0_linear_42_575" x1="65.6246" y1="-3" x2="65.6246" y2="23" gradientUnits="userSpaceOnUse">
<stop stop-color="#FDE092"/>
<stop offset="1" stop-color="#C18B2C"/>
</linearGradient>
</defs>
</svg>
