<svg width="116" height="25" viewBox="0 0 116 25" fill="none" xmlns="http://www.w3.org/2000/svg">
<g filter="url(#filter0_d_232_69)">
<path d="M10.4042 18.264C8.50022 18.264 6.88422 17.904 5.55622 17.184C4.24422 16.464 3.24422 15.456 2.55622 14.16C1.86822 12.864 1.52422 11.344 1.52422 9.6C1.52422 7.808 1.87622 6.256 2.58022 4.944C3.30022 3.632 4.33222 2.616 5.67622 1.896C7.02022 1.176 8.63622 0.816 10.5242 0.816C11.3882 0.816 12.2522 0.911999 13.1162 1.104C13.9802 1.296 14.8122 1.616 15.6122 2.064C16.0442 2.304 16.3002 2.624 16.3802 3.024C16.4762 3.424 16.4362 3.816 16.2602 4.2C16.0842 4.568 15.8122 4.84 15.4442 5.016C15.0922 5.176 14.6682 5.136 14.1722 4.896C13.1002 4.336 11.8922 4.056 10.5482 4.056C8.83622 4.056 7.54822 4.536 6.68422 5.496C5.83622 6.44 5.41222 7.808 5.41222 9.6C5.41222 11.408 5.84422 12.776 6.70822 13.704C7.58822 14.632 8.88422 15.096 10.5962 15.096C11.5082 15.096 12.4682 14.952 13.4762 14.664V11.352H11.3162C10.3242 11.352 9.82822 10.904 9.82822 10.008C9.82822 9.112 10.3242 8.664 11.3162 8.664H15.0842C16.0602 8.664 16.5482 9.16 16.5482 10.152V15.72C16.5482 16.136 16.4602 16.488 16.2842 16.776C16.1242 17.064 15.8602 17.272 15.4922 17.4C14.7722 17.656 13.9642 17.864 13.0682 18.024C12.1722 18.184 11.2842 18.264 10.4042 18.264ZM23.5127 18.264C22.6327 18.264 21.8567 18.096 21.1847 17.76C20.5127 17.424 19.9767 16.968 19.5767 16.392C19.1927 15.816 19.0007 15.168 19.0007 14.448C19.0007 13.6 19.2247 12.92 19.6727 12.408C20.1207 11.896 20.8487 11.536 21.8567 11.328C22.8647 11.104 24.2007 10.992 25.8647 10.992H26.7287V10.584C26.7287 9.88 26.5687 9.384 26.2487 9.096C25.9287 8.792 25.3847 8.64 24.6167 8.64C24.1847 8.64 23.7127 8.696 23.2007 8.808C22.6887 8.904 22.1367 9.072 21.5447 9.312C21.0967 9.504 20.7207 9.52 20.4167 9.36C20.1127 9.184 19.9127 8.928 19.8167 8.592C19.7207 8.24 19.7447 7.888 19.8887 7.536C20.0487 7.184 20.3527 6.928 20.8007 6.768C21.5527 6.48 22.2567 6.28 22.9127 6.168C23.5847 6.04 24.2007 5.976 24.7607 5.976C26.5847 5.976 27.9447 6.392 28.8407 7.224C29.7367 8.04 30.1847 9.312 30.1847 11.04V16.368C30.1847 17.6 29.6247 18.216 28.5047 18.216C27.3687 18.216 26.8007 17.6 26.8007 16.368V16.224C26.5607 16.848 26.1527 17.344 25.5767 17.712C25.0167 18.08 24.3287 18.264 23.5127 18.264ZM24.3287 15.84C25.0007 15.84 25.5687 15.608 26.0327 15.144C26.4967 14.68 26.7287 14.08 26.7287 13.344V12.864H25.8887C24.6567 12.864 23.7847 12.976 23.2727 13.2C22.7607 13.408 22.5047 13.776 22.5047 14.304C22.5047 14.752 22.6567 15.12 22.9607 15.408C23.2807 15.696 23.7367 15.84 24.3287 15.84ZM34.7601 18.216C33.5441 18.216 32.9361 17.6 32.9361 16.368V7.848C32.9361 6.632 33.5281 6.024 34.7121 6.024C35.8961 6.024 36.4881 6.632 36.4881 7.848V7.92C36.8401 7.312 37.3201 6.84 37.9281 6.504C38.5521 6.152 39.2721 5.976 40.0881 5.976C40.9201 5.976 41.6241 6.16 42.2001 6.528C42.7921 6.896 43.2401 7.456 43.5441 8.208C43.9121 7.504 44.4401 6.96 45.1281 6.576C45.8321 6.176 46.6081 5.976 47.4561 5.976C48.8001 5.976 49.8001 6.384 50.4561 7.2C51.1121 8 51.4401 9.24 51.4401 10.92V16.368C51.4401 16.96 51.2801 17.416 50.9601 17.736C50.6561 18.056 50.2161 18.216 49.6401 18.216C48.4241 18.216 47.8161 17.6 47.8161 16.368V11.04C47.8161 10.256 47.6881 9.688 47.4321 9.336C47.1921 8.968 46.7761 8.784 46.1841 8.784C45.4961 8.784 44.9601 9.024 44.5761 9.504C44.1921 9.984 44.0001 10.664 44.0001 11.544V16.368C44.0001 17.6 43.4001 18.216 42.2001 18.216C41.6241 18.216 41.1761 18.056 40.8561 17.736C40.5361 17.416 40.3761 16.96 40.3761 16.368V11.04C40.3761 10.256 40.2481 9.688 39.9921 9.336C39.7361 8.968 39.3201 8.784 38.7441 8.784C38.0561 8.784 37.5201 9.024 37.1361 9.504C36.7521 9.984 36.5601 10.664 36.5601 11.544V16.368C36.5601 17.6 35.9601 18.216 34.7601 18.216ZM60.3362 18.264C58.9442 18.264 57.7442 18.016 56.7362 17.52C55.7442 17.008 54.9762 16.296 54.4322 15.384C53.9042 14.456 53.6402 13.368 53.6402 12.12C53.6402 10.904 53.8962 9.84 54.4082 8.928C54.9362 8 55.6482 7.28 56.5442 6.768C57.4562 6.24 58.5042 5.976 59.6882 5.976C61.4002 5.976 62.7602 6.52 63.7682 7.608C64.7762 8.68 65.2802 10.136 65.2802 11.976C65.2802 12.584 64.9042 12.888 64.1522 12.888H57.0962C57.2242 13.816 57.5602 14.496 58.1042 14.928C58.6642 15.344 59.4322 15.552 60.4082 15.552C60.7922 15.552 61.2242 15.512 61.7042 15.432C62.2002 15.336 62.6722 15.176 63.1202 14.952C63.5842 14.728 63.9762 14.688 64.2962 14.832C64.6162 14.96 64.8322 15.184 64.9442 15.504C65.0722 15.824 65.0722 16.16 64.9442 16.512C64.8322 16.848 64.5682 17.128 64.1522 17.352C63.5922 17.656 62.9682 17.88 62.2802 18.024C61.6082 18.184 60.9602 18.264 60.3362 18.264ZM59.8322 8.376C59.0642 8.376 58.4402 8.608 57.9602 9.072C57.4962 9.536 57.2082 10.184 57.0962 11.016H62.2802C62.1842 9.256 61.3682 8.376 59.8322 8.376ZM69.2121 22.536C67.9961 22.536 67.3881 21.92 67.3881 20.688V7.848C67.3881 6.632 67.9801 6.024 69.1641 6.024C70.3641 6.024 70.9641 6.632 70.9641 7.848V7.92C71.3001 7.328 71.7961 6.856 72.4521 6.504C73.1081 6.152 73.8441 5.976 74.6601 5.976C75.6841 5.976 76.5801 6.224 77.3481 6.72C78.1321 7.216 78.7401 7.92 79.1721 8.832C79.6041 9.744 79.8201 10.832 79.8201 12.096C79.8201 13.36 79.6041 14.456 79.1721 15.384C78.7401 16.296 78.1321 17.008 77.3481 17.52C76.5801 18.016 75.6841 18.264 74.6601 18.264C73.8761 18.264 73.1561 18.096 72.5001 17.76C71.8601 17.424 71.3641 16.976 71.0121 16.416V20.688C71.0121 21.92 70.4121 22.536 69.2121 22.536ZM73.5801 15.552C74.3481 15.552 74.9721 15.272 75.4521 14.712C75.9321 14.152 76.1721 13.28 76.1721 12.096C76.1721 10.928 75.9321 10.072 75.4521 9.528C74.9721 8.968 74.3481 8.688 73.5801 8.688C72.7961 8.688 72.1641 8.968 71.6841 9.528C71.2041 10.072 70.9641 10.928 70.9641 12.096C70.9641 13.28 71.2041 14.152 71.6841 14.712C72.1641 15.272 72.7961 15.552 73.5801 15.552ZM86.2845 18.264C83.4525 18.264 82.0365 16.688 82.0365 13.536V2.712C82.0365 1.48 82.6445 0.863999 83.8605 0.863999C85.0605 0.863999 85.6605 1.48 85.6605 2.712V13.392C85.6605 14.048 85.7965 14.536 86.0685 14.856C86.3565 15.16 86.7325 15.312 87.1965 15.312C87.3245 15.312 87.4445 15.304 87.5565 15.288C87.6845 15.272 87.8045 15.264 87.9165 15.264C88.1725 15.248 88.3485 15.328 88.4445 15.504C88.5565 15.68 88.6125 16.04 88.6125 16.584C88.6125 17.512 88.2205 18.04 87.4365 18.168C87.2765 18.184 87.0925 18.2 86.8845 18.216C86.6765 18.248 86.4765 18.264 86.2845 18.264ZM94.0127 18.264C93.1327 18.264 92.3567 18.096 91.6847 17.76C91.0127 17.424 90.4767 16.968 90.0767 16.392C89.6927 15.816 89.5007 15.168 89.5007 14.448C89.5007 13.6 89.7247 12.92 90.1727 12.408C90.6207 11.896 91.3487 11.536 92.3567 11.328C93.3647 11.104 94.7007 10.992 96.3647 10.992H97.2287V10.584C97.2287 9.88 97.0687 9.384 96.7487 9.096C96.4287 8.792 95.8847 8.64 95.1167 8.64C94.6847 8.64 94.2127 8.696 93.7007 8.808C93.1887 8.904 92.6367 9.072 92.0447 9.312C91.5967 9.504 91.2207 9.52 90.9167 9.36C90.6127 9.184 90.4127 8.928 90.3167 8.592C90.2207 8.24 90.2447 7.888 90.3887 7.536C90.5487 7.184 90.8527 6.928 91.3007 6.768C92.0527 6.48 92.7567 6.28 93.4127 6.168C94.0847 6.04 94.7007 5.976 95.2607 5.976C97.0847 5.976 98.4447 6.392 99.3407 7.224C100.237 8.04 100.685 9.312 100.685 11.04V16.368C100.685 17.6 100.125 18.216 99.0047 18.216C97.8687 18.216 97.3007 17.6 97.3007 16.368V16.224C97.0607 16.848 96.6527 17.344 96.0767 17.712C95.5167 18.08 94.8287 18.264 94.0127 18.264ZM94.8287 15.84C95.5007 15.84 96.0687 15.608 96.5327 15.144C96.9967 14.68 97.2287 14.08 97.2287 13.344V12.864H96.3887C95.1567 12.864 94.2847 12.976 93.7727 13.2C93.2607 13.408 93.0047 13.776 93.0047 14.304C93.0047 14.752 93.1567 15.12 93.4607 15.408C93.7807 15.696 94.2367 15.84 94.8287 15.84ZM106.487 22.536C105.847 22.536 105.391 22.296 105.119 21.816C104.863 21.352 104.879 20.808 105.167 20.184L106.439 17.352L102.527 8.376C102.271 7.752 102.271 7.208 102.527 6.744C102.799 6.264 103.335 6.024 104.135 6.024C104.567 6.024 104.911 6.128 105.167 6.336C105.439 6.528 105.687 6.904 105.911 7.464L108.359 13.704L110.903 7.44C111.127 6.896 111.375 6.528 111.647 6.336C111.935 6.128 112.319 6.024 112.799 6.024C113.407 6.024 113.831 6.264 114.071 6.744C114.327 7.208 114.319 7.744 114.047 8.352L108.407 21.144C108.167 21.688 107.895 22.056 107.591 22.248C107.303 22.44 106.935 22.536 106.487 22.536Z" fill="url(#paint0_linear_232_69)"/>
<path d="M5.55622 17.184L4.83456 18.499L4.84128 18.5027L5.55622 17.184ZM2.55622 14.16L3.8811 13.4567L2.55622 14.16ZM2.58022 4.944L1.26516 4.22232L1.25848 4.23477L2.58022 4.944ZM5.67622 1.896L6.38455 3.21822H6.38455L5.67622 1.896ZM13.1162 1.104L13.4416 -0.360282H13.4416L13.1162 1.104ZM15.6122 2.064L14.8793 3.37277L14.8838 3.37524L15.6122 2.064ZM16.3802 3.024L14.9093 3.31817L14.915 3.34623L14.9216 3.37406L16.3802 3.024ZM16.2602 4.2L17.6134 4.84718L17.6187 4.83612L17.6238 4.82498L16.2602 4.2ZM15.4442 5.016L16.0649 6.38155L16.0782 6.3755L16.0914 6.3692L15.4442 5.016ZM14.1722 4.896L13.4777 6.22552L13.4981 6.2362L13.5189 6.24624L14.1722 4.896ZM6.68422 5.496L5.56928 4.49255L5.56834 4.4936L6.68422 5.496ZM6.70822 13.704L5.61033 14.7262L5.61978 14.7361L6.70822 13.704ZM13.4762 14.664L13.8883 16.1063L14.9762 15.7955V14.664H13.4762ZM13.4762 11.352H14.9762V9.852H13.4762V11.352ZM16.2842 16.776L15.0043 15.9938L14.9881 16.0204L14.973 16.0475L16.2842 16.776ZM15.4922 17.4L14.9994 15.9832L14.9897 15.9867L15.4922 17.4ZM13.0682 18.024L12.8045 16.5474L13.0682 18.024ZM10.4042 16.764C8.68617 16.764 7.32972 16.4393 6.27116 15.8653L4.84128 18.5027C6.43872 19.3687 8.31427 19.764 10.4042 19.764V16.764ZM6.27787 15.869C5.21685 15.2867 4.42908 14.4889 3.8811 13.4567L1.23133 14.8633C2.05935 16.4231 3.27159 17.6413 4.83457 18.499L6.27787 15.869ZM3.8811 13.4567C3.32793 12.4146 3.02422 11.1449 3.02422 9.6H0.0242188C0.0242188 11.5431 0.408511 13.3134 1.23133 14.8633L3.8811 13.4567ZM3.02422 9.6C3.02422 8.00542 3.33656 6.70692 3.90196 5.65323L1.25848 4.23477C0.415873 5.80508 0.0242188 7.61058 0.0242188 9.6H3.02422ZM3.89522 5.66565C4.47267 4.6134 5.29157 3.80375 6.38455 3.21822L4.96789 0.57378C3.37287 1.42825 2.12777 2.6506 1.26522 4.22235L3.89522 5.66565ZM6.38455 3.21822C7.46473 2.63955 8.82537 2.316 10.5242 2.316V-0.684C8.44707 -0.684 6.57571 -0.287553 4.96789 0.57378L6.38455 3.21822ZM10.5242 2.316C11.2761 2.316 12.031 2.39944 12.7908 2.56828L13.4416 -0.360282C12.4734 -0.575442 11.5003 -0.684 10.5242 -0.684V2.316ZM12.7908 2.56828C13.5071 2.72744 14.2022 2.99359 14.8793 3.37276L16.3451 0.75524C15.4222 0.238408 14.4534 -0.135445 13.4416 -0.360282L12.7908 2.56828ZM14.8838 3.37524C14.9635 3.41954 14.9731 3.44128 14.9569 3.42104C14.9488 3.41091 14.9379 3.3947 14.9279 3.37333C14.918 3.35192 14.9122 3.33245 14.9093 3.31817L17.8511 2.72983C17.6666 1.80742 17.0682 1.15693 16.3407 0.752763L14.8838 3.37524ZM14.9216 3.37406C14.937 3.43821 14.9368 3.48737 14.8966 3.57502L17.6238 4.82498C17.9356 4.14463 18.0154 3.40979 17.8388 2.67394L14.9216 3.37406ZM14.907 3.55282C14.8788 3.61176 14.856 3.63461 14.797 3.6628L16.0914 6.3692C16.7685 6.04539 17.2896 5.52424 17.6134 4.84718L14.907 3.55282ZM14.8235 3.65045C14.862 3.63296 14.9014 3.6217 14.9375 3.61612C14.9728 3.61066 14.9961 3.61197 15.0031 3.61263C15.0093 3.61322 14.9982 3.61284 14.9675 3.60349C14.9366 3.59408 14.8895 3.57672 14.8256 3.54576L13.5189 6.24624C14.239 6.59466 15.1567 6.79439 16.0649 6.38155L14.8235 3.65045ZM14.8667 3.56648C13.5574 2.88248 12.1068 2.556 10.5482 2.556V5.556C11.6777 5.556 12.6431 5.78952 13.4777 6.22552L14.8667 3.56648ZM10.5482 2.556C8.55675 2.556 6.8025 3.1223 5.56928 4.49255L7.79916 6.49945C8.29394 5.9497 9.11569 5.556 10.5482 5.556V2.556ZM5.56834 4.4936C4.38749 5.80813 3.91222 7.58981 3.91222 9.6H6.91222C6.91222 8.02619 7.28495 7.07187 7.8001 6.4984L5.56834 4.4936ZM3.91222 9.6C3.91222 11.6262 4.39584 13.4216 5.61038 14.7261L7.80606 12.6819C7.2926 12.1304 6.91222 11.1898 6.91222 9.6H3.91222ZM5.61978 14.7361C6.86936 16.0539 8.6176 16.596 10.5962 16.596V13.596C9.15084 13.596 8.30708 13.2101 7.79665 12.6719L5.61978 14.7361ZM10.5962 16.596C11.6666 16.596 12.7659 16.427 13.8883 16.1063L13.0641 13.2217C12.1706 13.477 11.3499 13.596 10.5962 13.596V16.596ZM14.9762 14.664V11.352H11.9762V14.664H14.9762ZM13.4762 9.852H11.3162V12.852H13.4762V9.852ZM11.3162 9.852C11.1763 9.852 11.1109 9.83566 11.0977 9.83169C11.0898 9.82933 11.1402 9.84372 11.2056 9.90285C11.237 9.93119 11.2646 9.96344 11.2869 9.99701C11.309 10.0302 11.3217 10.0584 11.3284 10.0767C11.341 10.1108 11.3282 10.0975 11.3282 10.008H8.32822C8.32822 10.7288 8.53475 11.533 9.19479 12.1292C9.82582 12.6991 10.6246 12.852 11.3162 12.852V9.852ZM11.3282 10.008C11.3282 9.91854 11.341 9.90524 11.3284 9.93933C11.3217 9.95755 11.309 9.9858 11.2869 10.019C11.2646 10.0526 11.237 10.0848 11.2056 10.1132C11.1402 10.1723 11.0898 10.1867 11.0977 10.1843C11.1109 10.1803 11.1763 10.164 11.3162 10.164V7.164C10.6246 7.164 9.82582 7.31688 9.19479 7.88685C8.53475 8.48301 8.32822 9.28715 8.32822 10.008H11.3282ZM11.3162 10.164H15.0842V7.164H11.3162V10.164ZM15.0842 10.164C15.1433 10.164 15.185 10.1678 15.2118 10.1717C15.2385 10.1756 15.2477 10.1791 15.2434 10.1777C15.2386 10.1761 15.2209 10.1695 15.1954 10.1539C15.1693 10.138 15.1406 10.1161 15.113 10.088C15.0854 10.06 15.0648 10.0318 15.0506 10.0078C15.0368 9.9843 15.0317 9.96945 15.0314 9.96844C15.0312 9.96788 15.0356 9.98111 15.0399 10.012C15.0443 10.043 15.0482 10.0889 15.0482 10.152H18.0482C18.0482 9.43086 17.8706 8.6133 17.2515 7.984C16.6279 7.35019 15.8097 7.164 15.0842 7.164V10.164ZM15.0482 10.152V15.72H18.0482V10.152H15.0482ZM15.0482 15.72C15.0482 15.924 15.0063 15.9906 15.0043 15.9938L17.5641 17.5582C17.9141 16.9854 18.0482 16.348 18.0482 15.72H15.0482ZM14.973 16.0475C14.9812 16.0328 14.9918 16.0172 15.0045 16.0023C15.0172 15.9875 15.0291 15.9767 15.0379 15.9698C15.0558 15.9557 15.0506 15.9655 14.9994 15.9833L15.985 18.8167C16.6339 18.591 17.2247 18.1719 17.5955 17.5045L14.973 16.0475ZM14.9897 15.9867C14.3605 16.2104 13.6342 16.3992 12.8045 16.5474L13.3319 19.5006C14.2943 19.3288 15.184 19.1016 15.9947 18.8133L14.9897 15.9867ZM12.8045 16.5474C11.9926 16.6923 11.1928 16.764 10.4042 16.764V19.764C11.3756 19.764 12.3518 19.6757 13.3319 19.5006L12.8045 16.5474ZM21.1847 17.76L20.5139 19.1016L21.1847 17.76ZM19.5767 16.392L18.3286 17.2241L18.3365 17.2359L18.3447 17.2476L19.5767 16.392ZM19.6727 12.408L18.5439 11.4202L19.6727 12.408ZM21.8567 11.328L22.1599 12.797L22.171 12.7947L22.1821 12.7923L21.8567 11.328ZM26.7287 10.992V12.492H28.2287V10.992H26.7287ZM26.2487 9.096L25.2156 10.1835L25.2302 10.1974L25.2453 10.2109L26.2487 9.096ZM23.2007 8.808L23.4772 10.2823L23.4993 10.2782L23.5213 10.2733L23.2007 8.808ZM21.5447 9.312L20.9812 7.92189L20.9674 7.92745L20.9538 7.93328L21.5447 9.312ZM20.4167 9.36L19.6652 10.6581L19.6913 10.6733L19.7181 10.6874L20.4167 9.36ZM19.8167 8.592L18.3696 8.98668L18.372 8.99539L18.3744 9.00408L19.8167 8.592ZM19.8887 7.536L18.5232 6.9153L18.5113 6.94145L18.5004 6.96805L19.8887 7.536ZM20.8007 6.768L21.3052 8.18061L21.3213 8.17488L21.3372 8.16878L20.8007 6.768ZM22.9127 6.168L23.1652 7.6466L23.1793 7.64419L23.1934 7.64151L22.9127 6.168ZM28.8407 7.224L27.82 8.32319L27.8254 8.32813L27.8307 8.33301L28.8407 7.224ZM26.8007 16.224H28.3007L25.4007 15.6855L26.8007 16.224ZM25.5767 17.712L24.7691 16.448L24.761 16.4531L24.753 16.4584L25.5767 17.712ZM26.0327 15.144L27.0934 16.2047L26.0327 15.144ZM26.7287 12.864H28.2287V11.364H26.7287V12.864ZM23.2727 13.2L23.8373 14.5897L23.8557 14.5822L23.8739 14.5742L23.2727 13.2ZM22.9607 15.408L21.9291 16.4969L21.943 16.5101L21.9573 16.5229L22.9607 15.408ZM23.5127 16.764C22.8258 16.764 22.2864 16.6338 21.8555 16.4184L20.5139 19.1016C21.4271 19.5582 22.4396 19.764 23.5127 19.764V16.764ZM21.8555 16.4184C21.3919 16.1865 21.0552 15.8913 20.8088 15.5364L18.3447 17.2476C18.8982 18.0447 19.6336 18.6615 20.5139 19.1016L21.8555 16.4184ZM20.8248 15.5599C20.6119 15.2406 20.5007 14.8844 20.5007 14.448H17.5007C17.5007 15.4516 17.7736 16.3914 18.3286 17.2241L20.8248 15.5599ZM20.5007 14.448C20.5007 13.8705 20.6476 13.5717 20.8016 13.3958L18.5439 11.4202C17.8018 12.2683 17.5007 13.3295 17.5007 14.448H20.5007ZM20.8016 13.3958C20.9488 13.2275 21.3164 12.9711 22.1599 12.797L21.5536 9.85895C20.381 10.1009 19.2926 10.5645 18.5439 11.4202L20.8016 13.3958ZM22.1821 12.7923C23.0387 12.6019 24.2524 12.492 25.8647 12.492V9.492C24.149 9.492 22.6907 9.60608 21.5313 9.86372L22.1821 12.7923ZM25.8647 12.492H26.7287V9.492H25.8647V12.492ZM28.2287 10.992V10.584H25.2287V10.992H28.2287ZM28.2287 10.584C28.2287 9.71656 28.0411 8.69107 27.2522 7.98106L25.2453 10.2109C25.1711 10.1442 25.1653 10.0953 25.1812 10.1445C25.1997 10.2019 25.2287 10.3373 25.2287 10.584H28.2287ZM27.2818 8.0085C26.5382 7.30206 25.5073 7.14 24.6167 7.14V10.14C24.9097 10.14 25.094 10.1699 25.1971 10.1987C25.2975 10.2267 25.2759 10.2408 25.2156 10.1835L27.2818 8.0085ZM24.6167 7.14C24.057 7.14 23.476 7.21231 22.8802 7.34265L23.5213 10.2733C23.9494 10.1797 24.3124 10.14 24.6167 10.14V7.14ZM22.9243 7.33369C22.2949 7.4517 21.6459 7.65241 20.9812 7.92189L22.1083 10.7021C22.6276 10.4916 23.0825 10.3563 23.4772 10.2823L22.9243 7.33369ZM20.9538 7.93328C20.85 7.97779 20.8247 7.97098 20.8629 7.96936C20.8843 7.96845 20.9212 7.96943 20.969 7.97954C21.0175 7.98982 21.0677 8.00754 21.1153 8.03262L19.7181 10.6874C20.5695 11.1355 21.4539 10.9829 22.1356 10.6907L20.9538 7.93328ZM21.1683 8.06186C21.1673 8.06128 21.1736 8.06489 21.1844 8.07411C21.1954 8.0835 21.2081 8.09639 21.2208 8.11253C21.2334 8.12869 21.243 8.14454 21.2499 8.15818C21.2531 8.16475 21.2554 8.17013 21.2569 8.174C21.2584 8.17786 21.259 8.17993 21.259 8.17992L18.3744 9.00408C18.5778 9.71594 19.0268 10.2886 19.6652 10.6581L21.1683 8.06186ZM21.2639 8.19732C21.2584 8.17739 21.259 8.16919 21.2592 8.16604C21.2595 8.16214 21.2611 8.143 21.277 8.10395L18.5004 6.96805C18.2371 7.61179 18.1828 8.30187 18.3696 8.98668L21.2639 8.19732ZM21.2543 8.1567C21.2481 8.17019 21.2393 8.18539 21.2281 8.20001C21.2171 8.21451 21.2075 8.22352 21.2029 8.22737C21.1941 8.23482 21.2174 8.21198 21.3052 8.18061L20.2962 5.35539C19.5598 5.61838 18.8884 6.11174 18.5232 6.9153L21.2543 8.1567ZM21.3372 8.16878C22.0157 7.90892 22.6238 7.73902 23.1652 7.6466L22.6603 4.68939C21.8896 4.82098 21.0897 5.05108 20.2642 5.36721L21.3372 8.16878ZM23.1934 7.64151C23.7924 7.52741 24.3129 7.476 24.7607 7.476V4.476C24.0886 4.476 23.3771 4.55258 22.632 4.69449L23.1934 7.64151ZM24.7607 7.476C26.3885 7.476 27.3112 7.85066 27.82 8.32319L29.8614 6.12481C28.5783 4.93334 26.781 4.476 24.7607 4.476V7.476ZM27.8307 8.33301C28.3005 8.76089 28.6847 9.55024 28.6847 11.04H31.6847C31.6847 9.07376 31.1729 7.31911 29.8507 6.11499L27.8307 8.33301ZM28.6847 11.04V16.368H31.6847V11.04H28.6847ZM28.6847 16.368C28.6847 16.7863 28.5866 16.82 28.6548 16.745C28.6896 16.7067 28.7236 16.6921 28.7233 16.6922C28.7145 16.6954 28.6511 16.716 28.5047 16.716V19.716C29.3347 19.716 30.2218 19.4812 30.8746 18.763C31.5028 18.072 31.6847 17.1817 31.6847 16.368H28.6847ZM28.5047 16.716C28.3523 16.716 28.2831 16.6949 28.2692 16.6898C28.2637 16.6879 28.2953 16.7001 28.3295 16.7372C28.3986 16.8122 28.3007 16.7816 28.3007 16.368H25.3007C25.3007 17.1864 25.4868 18.0798 26.124 18.7708C26.7823 19.4848 27.6728 19.716 28.5047 19.716V16.716ZM28.3007 16.368V16.224H25.3007V16.368H28.3007ZM25.4007 15.6855C25.2784 16.0035 25.0818 16.2482 24.7691 16.448L26.3843 18.976C27.2237 18.4398 27.843 17.6925 28.2007 16.7625L25.4007 15.6855ZM24.753 16.4584C24.4863 16.6337 24.1003 16.764 23.5127 16.764V19.764C24.5572 19.764 25.5471 19.5263 26.4005 18.9656L24.753 16.4584ZM24.3287 17.34C25.3878 17.34 26.3406 16.9575 27.0934 16.2047L24.9721 14.0833C24.7969 14.2585 24.6136 14.34 24.3287 14.34V17.34ZM27.0934 16.2047C27.874 15.4241 28.2287 14.425 28.2287 13.344H25.2287C25.2287 13.735 25.1195 13.9359 24.9721 14.0833L27.0934 16.2047ZM28.2287 13.344V12.864H25.2287V13.344H28.2287ZM26.7287 11.364H25.8887V14.364H26.7287V11.364ZM25.8887 11.364C24.64 11.364 23.4923 11.4667 22.6715 11.8258L23.8739 14.5742C24.0772 14.4853 24.6734 14.364 25.8887 14.364V11.364ZM22.7082 11.8103C22.2458 11.9981 21.7942 12.3027 21.4654 12.7754C21.1331 13.2531 21.0047 13.7896 21.0047 14.304H24.0047C24.0047 14.2932 24.006 14.3116 23.995 14.3501C23.9834 14.3905 23.9621 14.4398 23.9281 14.4886C23.8552 14.5933 23.7876 14.6099 23.8373 14.5897L22.7082 11.8103ZM21.0047 14.304C21.0047 15.1318 21.3035 15.9043 21.9291 16.4969L23.9923 14.3191C23.9872 14.3142 23.9886 14.3147 23.9929 14.3208C23.9949 14.3237 23.9971 14.3273 23.9994 14.3314C24.0017 14.3356 24.0036 14.3396 24.0051 14.3434C24.0084 14.3513 24.0086 14.3545 24.0079 14.3503C24.007 14.3457 24.0047 14.3311 24.0047 14.304H21.0047ZM21.9573 16.5229C22.6414 17.1387 23.506 17.34 24.3287 17.34V14.34C23.9675 14.34 23.92 14.2533 23.9642 14.2931L21.9573 16.5229ZM36.4881 7.92H34.9881V13.5047L37.7862 8.67155L36.4881 7.92ZM37.9281 6.504L38.6537 7.81691L38.6651 7.81047L37.9281 6.504ZM42.2001 6.528L41.3925 7.79204L41.4003 7.79703L41.4082 7.80193L42.2001 6.528ZM43.5441 8.208L42.1534 8.77018L43.3699 11.7793L44.8734 8.90288L43.5441 8.208ZM45.1281 6.576L45.8592 7.88583L45.8691 7.88018L45.1281 6.576ZM50.4561 7.2L49.287 8.13983L49.2916 8.1455L49.2962 8.15112L50.4561 7.2ZM50.9601 17.736L49.8994 16.6753L49.8858 16.6889L49.8726 16.7029L50.9601 17.736ZM47.4321 9.336L46.1757 10.1554L46.1965 10.1874L46.219 10.2183L47.4321 9.336ZM40.8561 17.736L41.9168 16.6753L40.8561 17.736ZM39.9921 9.336L38.7607 10.1926L38.7697 10.2055L38.779 10.2183L39.9921 9.336ZM37.1361 9.504L38.3074 10.441L37.1361 9.504ZM34.7601 16.716C34.3883 16.716 34.3839 16.6235 34.4597 16.7003C34.5319 16.7735 34.4361 16.7577 34.4361 16.368H31.4361C31.4361 17.2103 31.6443 18.1185 32.3245 18.8077C33.0083 19.5005 33.9159 19.716 34.7601 19.716V16.716ZM34.4361 16.368V7.848H31.4361V16.368H34.4361ZM34.4361 7.848C34.4361 7.46133 34.5305 7.4487 34.4548 7.52642C34.4217 7.56044 34.3978 7.56507 34.4209 7.55714C34.4518 7.54658 34.5401 7.524 34.7121 7.524V4.524C33.8786 4.524 32.9803 4.74043 32.3054 5.43357C31.6377 6.1193 31.4361 7.01867 31.4361 7.848H34.4361ZM34.7121 7.524C34.8841 7.524 34.9724 7.54658 35.0033 7.55714C35.0264 7.56507 35.0025 7.56044 34.9694 7.52642C34.8937 7.4487 34.9881 7.46133 34.9881 7.848H37.9881C37.9881 7.01867 37.7865 6.1193 37.1188 5.43357C36.4439 4.74043 35.5456 4.524 34.7121 4.524V7.524ZM34.9881 7.848V7.92H37.9881V7.848H34.9881ZM37.7862 8.67155C38.0035 8.29633 38.2867 8.01962 38.6536 7.81686L37.2026 5.19114C36.3535 5.66038 35.6767 6.32767 35.19 7.16845L37.7862 8.67155ZM38.6651 7.81047C39.0344 7.60211 39.4939 7.476 40.0881 7.476V4.476C39.0503 4.476 38.0697 4.70189 37.1911 5.19753L38.6651 7.81047ZM40.0881 7.476C40.6964 7.476 41.1055 7.60865 41.3925 7.79204L43.0077 5.26396C42.1427 4.71135 41.1437 4.476 40.0881 4.476V7.476ZM41.4082 7.80193C41.6878 7.97577 41.9484 8.26298 42.1534 8.77018L44.9348 7.64581C44.5318 6.64902 43.8963 5.81623 42.992 5.25407L41.4082 7.80193ZM44.8734 8.90288C45.1073 8.45547 45.4284 8.12621 45.8591 7.8858L44.397 5.2662C43.4518 5.79379 42.7169 6.55253 42.2148 7.51312L44.8734 8.90288ZM45.8691 7.88018C46.3364 7.61469 46.8551 7.476 47.4561 7.476V4.476C46.3611 4.476 45.3278 4.73731 44.3871 5.27182L45.8691 7.88018ZM47.4561 7.476C48.4856 7.476 48.9932 7.77432 49.287 8.13983L51.6252 6.26016C50.607 4.99368 49.1146 4.476 47.4561 4.476V7.476ZM49.2962 8.15112C49.6317 8.56031 49.9401 9.38554 49.9401 10.92H52.9401C52.9401 9.09446 52.5925 7.43969 51.616 6.24888L49.2962 8.15112ZM49.9401 10.92V16.368H52.9401V10.92H49.9401ZM49.9401 16.368C49.9401 16.5316 49.9177 16.6203 49.9047 16.6574C49.894 16.6878 49.8897 16.685 49.8994 16.6753L52.0208 18.7967C52.7009 18.1165 52.9401 17.2303 52.9401 16.368H49.9401ZM49.8726 16.7029C49.8902 16.6844 49.9049 16.6807 49.8895 16.6863C49.8667 16.6946 49.7921 16.716 49.6401 16.716V19.716C50.4957 19.716 51.381 19.4708 52.0476 18.7691L49.8726 16.7029ZM49.6401 16.716C49.2683 16.716 49.2639 16.6235 49.3397 16.7003C49.4119 16.7735 49.3161 16.7577 49.3161 16.368H46.3161C46.3161 17.2103 46.5243 18.1185 47.2045 18.8077C47.8883 19.5005 48.7959 19.716 49.6401 19.716V16.716ZM49.3161 16.368V11.04H46.3161V16.368H49.3161ZM49.3161 11.04C49.3161 10.1616 49.1859 9.19717 48.6452 8.45374L46.219 10.2183C46.1936 10.1834 46.2233 10.2074 46.2568 10.3558C46.2897 10.5017 46.3161 10.7234 46.3161 11.04H49.3161ZM48.6885 8.5166C48.0796 7.58299 47.0878 7.284 46.1841 7.284V10.284C46.3314 10.284 46.3648 10.3077 46.3333 10.2938C46.3156 10.286 46.2862 10.2699 46.2533 10.2422C46.2201 10.2143 46.1939 10.1834 46.1757 10.1554L48.6885 8.5166ZM46.1841 7.284C45.1021 7.284 44.1099 7.68561 43.4048 8.56696L45.7474 10.441C45.8103 10.3624 45.8901 10.284 46.1841 10.284V7.284ZM43.4048 8.56696C42.733 9.40665 42.5001 10.4668 42.5001 11.544H45.5001C45.5001 10.8612 45.6512 10.5613 45.7474 10.441L43.4048 8.56696ZM42.5001 11.544V16.368H45.5001V11.544H42.5001ZM42.5001 16.368C42.5001 16.7625 42.4038 16.7811 42.4756 16.7074C42.5067 16.6754 42.5281 16.6723 42.5019 16.6813C42.468 16.6929 42.3761 16.716 42.2001 16.716V19.716C43.0415 19.716 43.9457 19.4977 44.6246 18.8006C45.2964 18.1109 45.5001 17.2055 45.5001 16.368H42.5001ZM42.2001 16.716C42.0489 16.716 41.9686 16.6948 41.9366 16.6834C41.9211 16.6778 41.9151 16.674 41.9151 16.674C41.9148 16.6738 41.9152 16.6741 41.9159 16.6746C41.9165 16.6751 41.9169 16.6755 41.9168 16.6753L39.7954 18.7967C40.4682 19.4694 41.3402 19.716 42.2001 19.716V16.716ZM41.9168 16.6753C41.9265 16.685 41.9222 16.6878 41.9115 16.6574C41.8985 16.6203 41.8761 16.5316 41.8761 16.368H38.8761C38.8761 17.2303 39.1152 18.1165 39.7954 18.7967L41.9168 16.6753ZM41.8761 16.368V11.04H38.8761V16.368H41.8761ZM41.8761 11.04C41.8761 10.1616 41.7459 9.19717 41.2052 8.45374L38.779 10.2183C38.7536 10.1834 38.7833 10.2074 38.8168 10.3558C38.8497 10.5017 38.8761 10.7234 38.8761 11.04H41.8761ZM41.2235 8.4794C40.6085 7.59539 39.6553 7.284 38.7441 7.284V10.284C38.8768 10.284 38.9081 10.3057 38.8813 10.2938C38.8669 10.2874 38.8437 10.2747 38.818 10.2536C38.7922 10.2324 38.773 10.2103 38.7607 10.1926L41.2235 8.4794ZM38.7441 7.284C37.6621 7.284 36.6699 7.68561 35.9648 8.56696L38.3074 10.441C38.3703 10.3624 38.4501 10.284 38.7441 10.284V7.284ZM35.9648 8.56696C35.293 9.40665 35.0601 10.4668 35.0601 11.544H38.0601C38.0601 10.8612 38.2112 10.5613 38.3074 10.441L35.9648 8.56696ZM35.0601 11.544V16.368H38.0601V11.544H35.0601ZM35.0601 16.368C35.0601 16.7625 34.9638 16.7811 35.0356 16.7074C35.0667 16.6754 35.0881 16.6723 35.0619 16.6813C35.028 16.6929 34.9361 16.716 34.7601 16.716V19.716C35.6015 19.716 36.5057 19.4976 37.1846 18.8006C37.8564 18.1109 38.0601 17.2055 38.0601 16.368H35.0601ZM56.7362 17.52L56.0483 18.8529L56.061 18.8595L56.074 18.8659L56.7362 17.52ZM54.4322 15.384L53.1285 16.1258L53.1361 16.1392L53.144 16.1524L54.4322 15.384ZM54.4082 8.928L53.1045 8.1862L53.1002 8.1937L54.4082 8.928ZM56.5442 6.768L57.2884 8.07038L57.2958 8.06614L56.5442 6.768ZM63.7682 7.608L62.6678 8.62746L62.6754 8.63554L63.7682 7.608ZM57.0962 12.888V11.388H55.3751L55.6103 13.093L57.0962 12.888ZM58.1042 14.928L57.1714 16.1027L57.1903 16.1177L57.2097 16.1321L58.1042 14.928ZM61.7042 15.432L61.9508 16.9116L61.9701 16.9084L61.9893 16.9047L61.7042 15.432ZM63.1202 14.952L62.4681 13.6012L62.4587 13.6057L62.4494 13.6104L63.1202 14.952ZM64.2962 14.832L63.6807 16.1999L63.7096 16.2129L63.7391 16.2247L64.2962 14.832ZM64.9442 15.504L63.5284 15.9995L63.5393 16.0306L63.5515 16.0611L64.9442 15.504ZM64.9442 16.512L63.5345 15.9994L63.5276 16.0184L63.5212 16.0377L64.9442 16.512ZM64.1522 17.352L63.4411 16.0313L63.4366 16.0337L64.1522 17.352ZM62.2802 18.024L61.9729 16.5558L61.9528 16.56L61.9328 16.5648L62.2802 18.024ZM57.9602 9.072L56.9177 7.99352L56.9085 8.00235L56.8996 8.01134L57.9602 9.072ZM57.0962 11.016L55.6096 10.8159L55.3808 12.516H57.0962V11.016ZM62.2802 11.016V12.516H63.8643L63.778 10.9343L62.2802 11.016ZM60.3362 16.764C59.1201 16.764 58.1571 16.5474 57.3985 16.1741L56.074 18.8659C57.3313 19.4846 58.7683 19.764 60.3362 19.764V16.764ZM57.4242 16.1871C56.6677 15.7966 56.1135 15.2745 55.7204 14.6156L53.144 16.1524C53.839 17.3175 54.8207 18.2194 56.0483 18.8529L57.4242 16.1871ZM55.736 14.6422C55.3568 13.9759 55.1402 13.1522 55.1402 12.12H52.1402C52.1402 13.5838 52.4516 14.9361 53.1285 16.1258L55.736 14.6422ZM55.1402 12.12C55.1402 11.119 55.3492 10.3159 55.7162 9.6623L53.1002 8.1937C52.4432 9.36407 52.1402 10.689 52.1402 12.12H55.1402ZM55.712 9.66979C56.1119 8.96694 56.6341 8.44426 57.2884 8.07036L55.8 5.46563C54.6623 6.11574 53.7606 7.03306 53.1045 8.18621L55.712 9.66979ZM57.2958 8.06614C57.9522 7.68611 58.7348 7.476 59.6882 7.476V4.476C58.2736 4.476 56.9602 4.79389 55.7927 5.46986L57.2958 8.06614ZM59.6882 7.476C61.0532 7.476 61.9885 7.89409 62.6679 8.62743L64.8686 6.58856C63.532 5.1459 61.7472 4.476 59.6882 4.476V7.476ZM62.6754 8.63554C63.3605 9.36413 63.7802 10.4178 63.7802 11.976H66.7802C66.7802 9.8542 66.1919 7.99587 64.861 6.58046L62.6754 8.63554ZM63.7802 11.976C63.7802 11.9752 63.7802 11.9583 63.7855 11.9288C63.7908 11.8987 63.8015 11.8553 63.823 11.8033C63.8697 11.6899 63.9497 11.5788 64.0551 11.4936C64.2468 11.3386 64.3652 11.388 64.1522 11.388V14.388C64.6913 14.388 65.3737 14.2854 65.9413 13.8264C66.5699 13.3182 66.7802 12.6056 66.7802 11.976H63.7802ZM64.1522 11.388H57.0962V14.388H64.1522V11.388ZM55.6103 13.093C55.7722 14.2671 56.2323 15.3569 57.1714 16.1027L59.037 13.7533C58.8881 13.6351 58.6762 13.3649 58.5821 12.683L55.6103 13.093ZM57.2097 16.1321C58.1136 16.8035 59.2354 17.052 60.4082 17.052V14.052C59.6291 14.052 59.2149 13.8845 58.9987 13.7239L57.2097 16.1321ZM60.4082 17.052C60.8933 17.052 61.4098 17.0018 61.9508 16.9116L61.4576 13.9524C61.0387 14.0222 60.6912 14.052 60.4082 14.052V17.052ZM61.9893 16.9047C62.618 16.783 63.2199 16.5792 63.791 16.2936L62.4494 13.6104C62.1245 13.7728 61.7824 13.889 61.4192 13.9593L61.9893 16.9047ZM63.7723 16.3028C63.8304 16.2748 63.8715 16.2597 63.8968 16.2519C63.9219 16.2441 63.9271 16.245 63.9145 16.2463C63.9012 16.2476 63.8701 16.2492 63.8259 16.2428C63.7808 16.2362 63.7307 16.2224 63.6807 16.1999L64.9118 13.4641C64.0269 13.0659 63.1397 13.277 62.4681 13.6012L63.7723 16.3028ZM63.7391 16.2247C63.7233 16.2184 63.673 16.1938 63.6185 16.1372C63.5634 16.0801 63.5373 16.025 63.5284 15.9995L66.36 15.0085C66.1021 14.2717 65.5681 13.7252 64.8533 13.4393L63.7391 16.2247ZM63.5515 16.0611C63.5497 16.0566 63.5465 16.0473 63.544 16.0343C63.5414 16.0211 63.5402 16.0079 63.5402 15.996C63.5402 15.9703 63.5456 15.969 63.5345 15.9994L66.3539 17.0246C66.5961 16.3587 66.6142 15.6402 66.3369 14.9469L63.5515 16.0611ZM63.5212 16.0377C63.5297 16.0122 63.5405 15.9898 63.5514 15.972C63.5621 15.9545 63.5701 15.9457 63.5708 15.945C63.5709 15.9449 63.5385 15.9788 63.4411 16.0313L64.8634 18.6727C65.5008 18.3295 66.0986 17.7922 66.3672 16.9863L63.5212 16.0377ZM63.4366 16.0337C63.0171 16.2614 62.5328 16.4386 61.9729 16.5558L62.5875 19.4922C63.4036 19.3214 64.1673 19.0506 64.8679 18.6703L63.4366 16.0337ZM61.9328 16.5648C61.3626 16.7005 60.8315 16.764 60.3362 16.764V19.764C61.0889 19.764 61.8538 19.6675 62.6277 19.4832L61.9328 16.5648ZM59.8322 6.876C58.7383 6.876 57.7197 7.21824 56.9177 7.99352L59.0028 10.1505C59.1607 9.99776 59.3901 9.876 59.8322 9.876V6.876ZM56.8996 8.01134C56.1452 8.76574 55.7531 9.74997 55.6096 10.8159L58.5828 11.2161C58.6633 10.618 58.8473 10.3063 59.0209 10.1327L56.8996 8.01134ZM57.0962 12.516H62.2802V9.516H57.0962V12.516ZM63.778 10.9343C63.7196 9.86375 63.4317 8.80937 62.6961 8.01609C61.9297 7.18961 60.8938 6.876 59.8322 6.876V9.876C60.3067 9.876 60.4467 10.0024 60.4963 10.0559C60.5767 10.1426 60.7448 10.4082 60.7824 11.0977L63.778 10.9343ZM70.9641 7.92H69.4641V13.6017L72.2686 8.66041L70.9641 7.92ZM72.4521 6.504L73.1613 7.82574V7.82574L72.4521 6.504ZM77.3481 6.72L76.5343 7.98011L76.5461 7.98762L77.3481 6.72ZM79.1721 8.832L80.5277 8.18987L79.1721 8.832ZM79.1721 15.384L80.5277 16.0261L80.532 16.017L79.1721 15.384ZM77.3481 17.52L78.1619 18.7801L78.1683 18.7759L77.3481 17.52ZM72.5001 17.76L71.8028 19.0881L71.8095 19.0916L71.8163 19.0951L72.5001 17.76ZM71.0121 16.416L72.2821 15.6177L69.5121 11.211V16.416H71.0121ZM75.4521 14.712L74.3132 13.7358L75.4521 14.712ZM75.4521 9.528L74.3132 10.5042L74.3202 10.5124L74.3273 10.5204L75.4521 9.528ZM71.6841 9.528L72.8089 10.5204L72.816 10.5124L72.823 10.5042L71.6841 9.528ZM71.6841 14.712L72.823 13.7358L71.6841 14.712ZM69.2121 21.036C68.8403 21.036 68.8359 20.9435 68.9117 21.0203C68.9839 21.0935 68.8881 21.0777 68.8881 20.688H65.8881C65.8881 21.5303 66.0963 22.4385 66.7765 23.1277C67.4603 23.8205 68.3679 24.036 69.2121 24.036V21.036ZM68.8881 20.688V7.848H65.8881V20.688H68.8881ZM68.8881 7.848C68.8881 7.46133 68.9825 7.4487 68.9068 7.52642C68.8737 7.56044 68.8498 7.56507 68.8729 7.55714C68.9038 7.54658 68.9921 7.524 69.1641 7.524V4.524C68.3306 4.524 67.4323 4.74043 66.7574 5.43357C66.0897 6.1193 65.8881 7.01867 65.8881 7.848H68.8881ZM69.1641 7.524C69.3418 7.524 69.4358 7.54703 69.4716 7.55912C69.4999 7.56868 69.4786 7.56626 69.4464 7.53361C69.3703 7.45644 69.4641 7.46626 69.4641 7.848H72.4641C72.4641 7.01374 72.2579 6.11156 71.5818 5.42639C70.902 4.73755 70.0004 4.524 69.1641 4.524V7.524ZM69.4641 7.848V7.92H72.4641V7.848H69.4641ZM72.2686 8.66041C72.452 8.33731 72.7304 8.05697 73.1613 7.82574L71.7429 5.18226C70.8618 5.65502 70.1482 6.31869 69.6596 7.17959L72.2686 8.66041ZM73.1613 7.82574C73.5788 7.60173 74.0673 7.476 74.6601 7.476V4.476C73.6209 4.476 72.6374 4.70226 71.7429 5.18226L73.1613 7.82574ZM74.6601 7.476C75.4312 7.476 76.0372 7.65904 76.5343 7.98006L78.1619 5.45994C77.1229 4.78896 75.937 4.476 74.6601 4.476V7.476ZM76.5461 7.98762C77.0691 8.31847 77.495 8.79543 77.8165 9.47413L80.5277 8.18987C79.9852 7.04457 79.1951 6.11353 78.1501 5.45238L76.5461 7.98762ZM77.8165 9.47413C78.1325 10.1413 78.3201 10.9995 78.3201 12.096H81.3201C81.3201 10.6645 81.0757 9.34666 80.5277 8.18987L77.8165 9.47413ZM78.3201 12.096C78.3201 13.1914 78.1329 14.0621 77.8122 14.751L80.532 16.017C81.0753 14.8499 81.3201 13.5286 81.3201 12.096H78.3201ZM77.8165 14.7419C77.4934 15.424 77.0622 15.9152 76.5279 16.2641L78.1683 18.7759C79.202 18.1008 79.9868 17.168 80.5277 16.0261L77.8165 14.7419ZM76.5343 16.2599C76.0372 16.581 75.4312 16.764 74.6601 16.764V19.764C75.937 19.764 77.1229 19.451 78.1619 18.7801L76.5343 16.2599ZM74.6601 16.764C74.0983 16.764 73.6148 16.6457 73.1839 16.4249L71.8163 19.0951C72.6973 19.5463 73.6539 19.764 74.6601 19.764V16.764ZM73.1973 16.4319C72.7692 16.2072 72.4803 15.9332 72.2821 15.6177L69.7421 17.2143C70.2478 18.0188 70.9509 18.6408 71.8028 19.0881L73.1973 16.4319ZM69.5121 16.416V20.688H72.5121V16.416H69.5121ZM69.5121 20.688C69.5121 21.0825 69.4158 21.1011 69.4876 21.0274C69.5187 20.9954 69.5401 20.9923 69.5139 21.0013C69.48 21.0129 69.3881 21.036 69.2121 21.036V24.036C70.0535 24.036 70.9577 23.8176 71.6366 23.1206C72.3084 22.4309 72.5121 21.5255 72.5121 20.688H69.5121ZM73.5801 17.052C74.7653 17.052 75.8128 16.596 76.591 15.6882L74.3132 13.7358C74.1314 13.948 73.9309 14.052 73.5801 14.052V17.052ZM76.591 15.6882C77.4091 14.7338 77.6721 13.4343 77.6721 12.096H74.6721C74.6721 13.1257 74.4551 13.5702 74.3132 13.7358L76.591 15.6882ZM77.6721 12.096C77.6721 10.7727 77.4087 9.47828 76.5769 8.53557L74.3273 10.5204C74.4555 10.6657 74.6721 11.0833 74.6721 12.096H77.6721ZM76.591 8.55181C75.8128 7.64396 74.7653 7.188 73.5801 7.188V10.188C73.9309 10.188 74.1314 10.292 74.3132 10.5042L76.591 8.55181ZM73.5801 7.188C72.3896 7.188 71.33 7.63624 70.5452 8.55181L72.823 10.5042C72.9982 10.2998 73.2026 10.188 73.5801 10.188V7.188ZM70.5593 8.53557C69.7275 9.47828 69.4641 10.7727 69.4641 12.096H72.4641C72.4641 11.0833 72.6807 10.6657 72.8089 10.5204L70.5593 8.53557ZM69.4641 12.096C69.4641 13.4343 69.7271 14.7338 70.5452 15.6882L72.823 13.7358C72.6811 13.5702 72.4641 13.1257 72.4641 12.096H69.4641ZM70.5452 15.6882C71.33 16.6038 72.3896 17.052 73.5801 17.052V14.052C73.2026 14.052 72.9982 13.9402 72.823 13.7358L70.5452 15.6882ZM86.0685 14.856L84.9256 15.8275L84.9518 15.8583L84.9796 15.8876L86.0685 14.856ZM87.5565 15.288L87.3705 13.7996L87.3574 13.8012L87.3444 13.8031L87.5565 15.288ZM87.9165 15.264V16.764H87.9634L88.0101 16.7611L87.9165 15.264ZM88.4445 15.504L87.1277 16.2223L87.1519 16.2667L87.179 16.3093L88.4445 15.504ZM87.4365 18.168L87.5858 19.6606L87.6322 19.6559L87.6782 19.6484L87.4365 18.168ZM86.8845 18.216L86.7695 16.7204L86.7127 16.7248L86.6564 16.7334L86.8845 18.216ZM86.2845 16.764C85.1437 16.764 84.5508 16.4539 84.2143 16.0795C83.8504 15.6745 83.5365 14.9181 83.5365 13.536H80.5365C80.5365 15.3059 80.9306 16.9135 81.9827 18.0845C83.0623 19.2861 84.5934 19.764 86.2845 19.764V16.764ZM83.5365 13.536V2.712H80.5365V13.536H83.5365ZM83.5365 2.712C83.5365 2.32232 83.6323 2.30654 83.5601 2.3797C83.4843 2.45648 83.4887 2.364 83.8605 2.364V-0.636001C83.0163 -0.636001 82.1087 -0.420483 81.425 0.272294C80.7448 0.961457 80.5365 1.86968 80.5365 2.712H83.5365ZM83.8605 2.364C84.0365 2.364 84.1285 2.38709 84.1624 2.39869C84.1886 2.40766 84.1672 2.4046 84.136 2.37261C84.0642 2.2989 84.1605 2.31746 84.1605 2.712H87.1605C87.1605 1.87454 86.9569 0.969102 86.2851 0.279386C85.6061 -0.41765 84.7019 -0.636001 83.8605 -0.636001V2.364ZM84.1605 2.712V13.392H87.1605V2.712H84.1605ZM84.1605 13.392C84.1605 14.2139 84.3243 15.1201 84.9256 15.8275L87.2114 13.8845C87.2421 13.9206 87.229 13.9245 87.2075 13.8473C87.1849 13.7664 87.1605 13.6216 87.1605 13.392H84.1605ZM84.9796 15.8876C85.583 16.5246 86.3699 16.812 87.1965 16.812V13.812C87.1624 13.812 87.1417 13.8092 87.1321 13.8075C87.1229 13.8058 87.1227 13.8049 87.1287 13.8073C87.135 13.8099 87.1428 13.8139 87.1502 13.819C87.1575 13.824 87.1598 13.8269 87.1575 13.8244L84.9796 15.8876ZM87.1965 16.812C87.3865 16.812 87.578 16.8002 87.7687 16.7729L87.3444 13.8031C87.3111 13.8078 87.2626 13.812 87.1965 13.812V16.812ZM87.7426 16.7764C87.8179 16.767 87.8752 16.764 87.9165 16.764V13.764C87.7338 13.764 87.5512 13.777 87.3705 13.7996L87.7426 16.7764ZM88.0101 16.7611C87.9699 16.7636 87.8167 16.767 87.6198 16.6775C87.4002 16.5777 87.2292 16.4085 87.1277 16.2223L89.7614 14.7857C89.5638 14.4235 89.2569 14.1263 88.8612 13.9464C88.4884 13.777 88.1191 13.7484 87.823 13.7669L88.0101 16.7611ZM87.179 16.3093C87.1168 16.2114 87.0924 16.1374 87.0867 16.1191C87.0799 16.0975 87.0827 16.1 87.0884 16.1366C87.1002 16.213 87.1125 16.3555 87.1125 16.584H90.1125C90.1125 16.2685 90.0968 15.959 90.0527 15.6754C90.0131 15.4211 89.9309 15.0458 89.71 14.6987L87.179 16.3093ZM87.1125 16.584C87.1125 16.7134 87.0986 16.7855 87.0906 16.815C87.0835 16.8415 87.0847 16.8216 87.1142 16.7819C87.1284 16.7627 87.146 16.7433 87.1664 16.7255C87.1867 16.7078 87.2056 16.6952 87.2203 16.687C87.2498 16.6706 87.2493 16.6787 87.1948 16.6876L87.6782 19.6484C88.37 19.5355 89.0476 19.2103 89.5229 18.5702C89.9755 17.9605 90.1125 17.2414 90.1125 16.584H87.1125ZM87.2873 16.6754C87.1414 16.69 86.9692 16.7051 86.7695 16.7204L86.9996 19.7116C87.2158 19.6949 87.4116 19.678 87.5858 19.6606L87.2873 16.6754ZM86.6564 16.7334C86.5168 16.7549 86.3933 16.764 86.2845 16.764V19.764C86.5598 19.764 86.8363 19.7411 87.1126 19.6986L86.6564 16.7334ZM91.6847 17.76L91.0139 19.1016L91.6847 17.76ZM90.0767 16.392L88.8286 17.2241L88.8365 17.2359L88.8447 17.2476L90.0767 16.392ZM90.1727 12.408L89.0439 11.4202L90.1727 12.408ZM92.3567 11.328L92.6599 12.797L92.671 12.7947L92.6821 12.7923L92.3567 11.328ZM97.2287 10.992V12.492H98.7287V10.992H97.2287ZM96.7487 9.096L95.7156 10.1835L95.7302 10.1974L95.7453 10.2109L96.7487 9.096ZM93.7007 8.808L93.9771 10.2823L93.9993 10.2782L94.0213 10.2733L93.7007 8.808ZM92.0447 9.312L91.4812 7.92189L91.4674 7.92745L91.4538 7.93328L92.0447 9.312ZM90.9167 9.36L90.1652 10.6581L90.1913 10.6733L90.2181 10.6874L90.9167 9.36ZM90.3167 8.592L88.8696 8.98668L88.8719 8.99539L88.8744 9.00408L90.3167 8.592ZM90.3887 7.536L89.0232 6.9153L89.0113 6.94145L89.0004 6.96805L90.3887 7.536ZM91.3007 6.768L91.8052 8.18061L91.8213 8.17488L91.8372 8.16878L91.3007 6.768ZM93.4127 6.168L93.6652 7.6466L93.6793 7.64419L93.6934 7.64151L93.4127 6.168ZM99.3407 7.224L98.32 8.32319L98.3254 8.32813L98.3307 8.33301L99.3407 7.224ZM97.3007 16.224H98.8007L95.9007 15.6855L97.3007 16.224ZM96.0767 17.712L95.2691 16.448L95.261 16.4531L95.253 16.4584L96.0767 17.712ZM96.5327 15.144L97.5934 16.2047L96.5327 15.144ZM97.2287 12.864H98.7287V11.364H97.2287V12.864ZM93.7727 13.2L94.3373 14.5897L94.3557 14.5822L94.3739 14.5742L93.7727 13.2ZM93.4607 15.408L92.4291 16.4969L92.443 16.5101L92.4573 16.5229L93.4607 15.408ZM94.0127 16.764C93.3258 16.764 92.7864 16.6338 92.3555 16.4184L91.0139 19.1016C91.9271 19.5582 92.9396 19.764 94.0127 19.764V16.764ZM92.3555 16.4184C91.8919 16.1865 91.5552 15.8913 91.3088 15.5364L88.8447 17.2476C89.3982 18.0447 90.1336 18.6615 91.0139 19.1016L92.3555 16.4184ZM91.3248 15.5599C91.1119 15.2406 91.0007 14.8844 91.0007 14.448H88.0007C88.0007 15.4516 88.2736 16.3914 88.8286 17.2241L91.3248 15.5599ZM91.0007 14.448C91.0007 13.8705 91.1476 13.5717 91.3016 13.3958L89.0439 11.4202C88.3018 12.2683 88.0007 13.3295 88.0007 14.448H91.0007ZM91.3016 13.3958C91.4488 13.2275 91.8164 12.9711 92.6599 12.797L92.0536 9.85895C90.8811 10.1009 89.7926 10.5645 89.0439 11.4202L91.3016 13.3958ZM92.6821 12.7923C93.5387 12.6019 94.7524 12.492 96.3647 12.492V9.492C94.649 9.492 93.1907 9.60608 92.0313 9.86372L92.6821 12.7923ZM96.3647 12.492H97.2287V9.492H96.3647V12.492ZM98.7287 10.992V10.584H95.7287V10.992H98.7287ZM98.7287 10.584C98.7287 9.71656 98.5411 8.69107 97.7522 7.98106L95.7453 10.2109C95.6711 10.1442 95.6653 10.0953 95.6812 10.1445C95.6997 10.2019 95.7287 10.3373 95.7287 10.584H98.7287ZM97.7818 8.0085C97.0382 7.30206 96.0073 7.14 95.1167 7.14V10.14C95.4097 10.14 95.594 10.1699 95.6971 10.1987C95.7975 10.2267 95.7759 10.2408 95.7156 10.1835L97.7818 8.0085ZM95.1167 7.14C94.557 7.14 93.976 7.21231 93.3802 7.34265L94.0213 10.2733C94.4494 10.1797 94.8124 10.14 95.1167 10.14V7.14ZM93.4243 7.33369C92.7949 7.4517 92.1459 7.65241 91.4812 7.92189L92.6083 10.7021C93.1276 10.4916 93.5825 10.3563 93.9771 10.2823L93.4243 7.33369ZM91.4538 7.93328C91.35 7.97779 91.3247 7.97098 91.3629 7.96936C91.3843 7.96845 91.4212 7.96943 91.469 7.97954C91.5175 7.98982 91.5677 8.00754 91.6153 8.03262L90.2181 10.6874C91.0695 11.1355 91.9539 10.9829 92.6356 10.6907L91.4538 7.93328ZM91.6683 8.06186C91.6673 8.06128 91.6736 8.06489 91.6844 8.07411C91.6954 8.0835 91.7081 8.09639 91.7208 8.11253C91.7334 8.12869 91.743 8.14454 91.7499 8.15818C91.7531 8.16475 91.7554 8.17013 91.7569 8.174C91.7584 8.17786 91.759 8.17993 91.759 8.17992L88.8744 9.00408C89.0778 9.71594 89.5268 10.2886 90.1652 10.6581L91.6683 8.06186ZM91.7639 8.19732C91.7584 8.17739 91.759 8.16919 91.7592 8.16604C91.7595 8.16214 91.7611 8.143 91.777 8.10395L89.0004 6.96805C88.7371 7.61179 88.6828 8.30187 88.8696 8.98668L91.7639 8.19732ZM91.7543 8.1567C91.7481 8.17019 91.7393 8.18539 91.7281 8.20001C91.7171 8.21451 91.7075 8.22352 91.7029 8.22737C91.6941 8.23482 91.7174 8.21198 91.8052 8.18061L90.7962 5.35539C90.0598 5.61838 89.3884 6.11174 89.0232 6.9153L91.7543 8.1567ZM91.8372 8.16878C92.5157 7.90892 93.1238 7.73902 93.6652 7.6466L93.1603 4.68939C92.3896 4.82098 91.5897 5.05108 90.7642 5.36721L91.8372 8.16878ZM93.6934 7.64151C94.2924 7.52741 94.8129 7.476 95.2607 7.476V4.476C94.5886 4.476 93.8771 4.55258 93.132 4.69449L93.6934 7.64151ZM95.2607 7.476C96.8885 7.476 97.8112 7.85066 98.32 8.32319L100.361 6.12481C99.0783 4.93334 97.281 4.476 95.2607 4.476V7.476ZM98.3307 8.33301C98.8005 8.76089 99.1847 9.55024 99.1847 11.04H102.185C102.185 9.07376 101.673 7.31911 100.351 6.11499L98.3307 8.33301ZM99.1847 11.04V16.368H102.185V11.04H99.1847ZM99.1847 16.368C99.1847 16.7863 99.0866 16.82 99.1548 16.745C99.1896 16.7067 99.2236 16.6921 99.2233 16.6922C99.2145 16.6954 99.1511 16.716 99.0047 16.716V19.716C99.8347 19.716 100.722 19.4812 101.375 18.763C102.003 18.072 102.185 17.1817 102.185 16.368H99.1847ZM99.0047 16.716C98.8523 16.716 98.7831 16.6949 98.7692 16.6898C98.7637 16.6879 98.7953 16.7001 98.8295 16.7372C98.8986 16.8122 98.8007 16.7816 98.8007 16.368H95.8007C95.8007 17.1864 95.9868 18.0798 96.624 18.7708C97.2823 19.4848 98.1728 19.716 99.0047 19.716V16.716ZM98.8007 16.368V16.224H95.8007V16.368H98.8007ZM95.9007 15.6855C95.7784 16.0035 95.5817 16.2482 95.2691 16.448L96.8843 18.976C97.7237 18.4398 98.343 17.6925 98.7007 16.7625L95.9007 15.6855ZM95.253 16.4584C94.9863 16.6337 94.6003 16.764 94.0127 16.764V19.764C95.0572 19.764 96.0471 19.5263 96.9005 18.9656L95.253 16.4584ZM94.8287 17.34C95.8878 17.34 96.8406 16.9575 97.5934 16.2047L95.4721 14.0833C95.2969 14.2585 95.1136 14.34 94.8287 14.34V17.34ZM97.5934 16.2047C98.374 15.4241 98.7287 14.425 98.7287 13.344H95.7287C95.7287 13.735 95.6195 13.9359 95.4721 14.0833L97.5934 16.2047ZM98.7287 13.344V12.864H95.7287V13.344H98.7287ZM97.2287 11.364H96.3887V14.364H97.2287V11.364ZM96.3887 11.364C95.14 11.364 93.9923 11.4667 93.1715 11.8258L94.3739 14.5742C94.5772 14.4853 95.1734 14.364 96.3887 14.364V11.364ZM93.2082 11.8103C92.7458 11.9981 92.2942 12.3027 91.9654 12.7754C91.6331 13.2531 91.5047 13.7896 91.5047 14.304H94.5047C94.5047 14.2932 94.506 14.3116 94.495 14.3501C94.4834 14.3905 94.4621 14.4398 94.4281 14.4886C94.3552 14.5933 94.2876 14.6099 94.3373 14.5897L93.2082 11.8103ZM91.5047 14.304C91.5047 15.1318 91.8035 15.9043 92.4291 16.4969L94.4923 14.3191C94.4872 14.3142 94.4886 14.3147 94.4929 14.3208C94.4949 14.3237 94.4971 14.3273 94.4994 14.3314C94.5017 14.3356 94.5036 14.3396 94.5051 14.3434C94.5084 14.3513 94.5086 14.3545 94.5079 14.3503C94.507 14.3457 94.5047 14.3311 94.5047 14.304H91.5047ZM92.4573 16.5229C93.1414 17.1387 94.006 17.34 94.8287 17.34V14.34C94.4675 14.34 94.42 14.2533 94.4642 14.2931L92.4573 16.5229ZM105.119 21.816L103.806 22.5406L103.81 22.5481L103.814 22.5555L105.119 21.816ZM105.167 20.184L106.529 20.8126L106.532 20.8056L106.535 20.7986L105.167 20.184ZM106.439 17.352L107.807 17.9666L108.079 17.3611L107.814 16.7527L106.439 17.352ZM102.527 8.376L101.139 8.94533L101.145 8.96039L101.152 8.9753L102.527 8.376ZM102.527 6.744L101.222 6.00448L101.218 6.01191L101.214 6.01938L102.527 6.744ZM105.167 6.336L104.221 7.50017L104.26 7.53218L104.302 7.56145L105.167 6.336ZM105.911 7.464L107.307 6.91617L107.304 6.90691L105.911 7.464ZM108.359 13.704L106.963 14.2518L108.335 17.7498L109.749 14.2684L108.359 13.704ZM110.903 7.44L109.516 6.86887L109.513 6.87558L110.903 7.44ZM111.647 6.336L112.512 7.56145L112.519 7.55677L112.525 7.55202L111.647 6.336ZM114.071 6.744L112.729 7.41482L112.743 7.44201L112.758 7.46862L114.071 6.744ZM114.047 8.352L112.678 7.73944L112.674 7.74686L114.047 8.352ZM108.407 21.144L109.779 21.7495L109.779 21.7491L108.407 21.144ZM107.591 22.248L106.79 20.9798L106.774 20.9897L106.759 20.9999L107.591 22.248ZM106.487 21.036C106.352 21.036 106.33 21.011 106.364 21.0286C106.38 21.0371 106.397 21.0498 106.412 21.0645C106.427 21.0787 106.429 21.0858 106.424 21.0765L103.814 22.5555C104.4 23.5892 105.41 24.036 106.487 24.036V21.036ZM106.432 21.0914C106.432 21.0912 106.435 21.0968 106.437 21.1056C106.439 21.1141 106.438 21.115 106.438 21.1041C106.439 21.0798 106.448 20.9875 106.529 20.8126L103.805 19.5554C103.382 20.4712 103.253 21.5392 103.806 22.5406L106.432 21.0914ZM106.535 20.7986L107.807 17.9666L105.071 16.7374L103.799 19.5694L106.535 20.7986ZM107.814 16.7527L103.902 7.7767L101.152 8.9753L105.064 17.9513L107.814 16.7527ZM103.915 7.80667C103.844 7.63339 103.835 7.536 103.835 7.5C103.835 7.47441 103.838 7.47266 103.84 7.46862L101.214 6.01938C100.68 6.98594 100.762 8.02582 101.139 8.94533L103.915 7.80667ZM103.832 7.48352C103.821 7.50342 103.802 7.5276 103.778 7.54889C103.755 7.56951 103.74 7.57554 103.746 7.57303C103.765 7.56464 103.874 7.524 104.135 7.524V4.524C103.064 4.524 101.871 4.85977 101.222 6.00448L103.832 7.48352ZM104.135 7.524C104.233 7.524 104.277 7.53595 104.283 7.53782C104.285 7.53857 104.279 7.53684 104.266 7.53032C104.254 7.52368 104.238 7.51376 104.221 7.50017L106.113 5.17183C105.516 4.68721 104.804 4.524 104.135 4.524V7.524ZM104.302 7.56145C104.242 7.51885 104.25 7.50438 104.305 7.58789C104.358 7.66834 104.432 7.80572 104.518 8.02109L107.304 6.90691C107.047 6.26646 106.665 5.55734 106.032 5.11055L104.302 7.56145ZM104.515 8.01181L106.963 14.2518L109.755 13.1562L107.307 6.91619L104.515 8.01181ZM109.749 14.2684L112.293 8.00442L109.513 6.87558L106.969 13.1396L109.749 14.2684ZM112.29 8.01112C112.375 7.80449 112.448 7.67224 112.501 7.59428C112.555 7.51395 112.565 7.52394 112.512 7.56145L110.782 5.11055C110.16 5.54979 109.776 6.23766 109.516 6.86887L112.29 8.01112ZM112.525 7.55202C112.481 7.58357 112.525 7.524 112.799 7.524V4.524C112.113 4.524 111.388 4.67243 110.769 5.11998L112.525 7.55202ZM112.799 7.524C112.907 7.524 112.897 7.5449 112.834 7.50939C112.804 7.49229 112.776 7.46977 112.754 7.44591C112.733 7.42295 112.726 7.40887 112.729 7.41482L115.413 6.07318C115.173 5.59465 114.809 5.18032 114.312 4.89861C113.825 4.6231 113.299 4.524 112.799 4.524V7.524ZM112.758 7.46862C112.76 7.47346 112.759 7.47205 112.758 7.46656C112.756 7.46117 112.757 7.46153 112.757 7.47161C112.757 7.49312 112.75 7.57758 112.678 7.73945L115.416 8.96455C115.826 8.04888 115.925 7.00017 115.384 6.01938L112.758 7.46862ZM112.674 7.74686L107.034 20.5389L109.779 21.7491L115.419 8.95714L112.674 7.74686ZM107.035 20.5385C106.947 20.7377 106.871 20.8632 106.817 20.9364C106.762 21.0099 106.748 21.0061 106.79 20.9798L108.392 23.5162C109.064 23.0917 109.49 22.4053 109.779 21.7495L107.035 20.5385ZM106.759 20.9999C106.78 20.9856 106.725 21.036 106.487 21.036V24.036C107.145 24.036 107.825 23.8944 108.423 23.4961L106.759 20.9999Z" fill="#5B3511"/>
</g>
<defs>
<filter id="filter0_d_232_69" x="0.524216" y="0.81601" width="114.931" height="23.72" filterUnits="userSpaceOnUse" color-interpolation-filters="sRGB">
<feFlood flood-opacity="0" result="BackgroundImageFix"/>
<feColorMatrix in="SourceAlpha" type="matrix" values="0 0 0 0 0 0 0 0 0 0 0 0 0 0 0 0 0 0 127 0" result="hardAlpha"/>
<feOffset dy="1"/>
<feGaussianBlur stdDeviation="0.5"/>
<feComposite in2="hardAlpha" operator="out"/>
<feColorMatrix type="matrix" values="0 0 0 0 0 0 0 0 0 0 0 0 0 0 0 0 0 0 0.25 0"/>
<feBlend mode="normal" in2="BackgroundImageFix" result="effect1_dropShadow_232_69"/>
<feBlend mode="normal" in="SourceGraphic" in2="effect1_dropShadow_232_69" result="shape"/>
</filter>
<linearGradient id="paint0_linear_232_69" x1="57.5" y1="-6" x2="57.5" y2="27" gradientUnits="userSpaceOnUse">
<stop stop-color="#FDE092"/>
<stop offset="1" stop-color="#C18B2C"/>
</linearGradient>
</defs>
</svg>
