<svg width="131" height="26" viewBox="0 0 131 26" fill="none" xmlns="http://www.w3.org/2000/svg">
<g filter="url(#filter0_d_42_550)">
<path d="M7.99773 18.264C6.97373 18.264 5.94973 18.152 4.92573 17.928C3.90173 17.704 3.01373 17.376 2.26173 16.944C1.81373 16.704 1.53373 16.384 1.42173 15.984C1.30973 15.568 1.33373 15.168 1.49373 14.784C1.65373 14.4 1.90973 14.128 2.26173 13.968C2.61373 13.808 3.03773 13.848 3.53373 14.088C4.17373 14.456 4.88573 14.728 5.66973 14.904C6.45373 15.08 7.22973 15.168 7.99773 15.168C9.14973 15.168 9.97373 14.992 10.4697 14.64C10.9817 14.272 11.2377 13.816 11.2377 13.272C11.2377 12.808 11.0617 12.44 10.7097 12.168C10.3577 11.896 9.74173 11.664 8.86173 11.472L6.14973 10.896C3.12573 10.256 1.61373 8.688 1.61373 6.192C1.61373 5.12 1.90173 4.184 2.47773 3.384C3.05373 2.568 3.85373 1.936 4.87773 1.488C5.91773 1.04 7.11773 0.816 8.47773 0.816C9.37373 0.816 10.2537 0.927999 11.1177 1.152C11.9817 1.36 12.7417 1.672 13.3977 2.088C13.7977 2.328 14.0457 2.64 14.1417 3.024C14.2377 3.408 14.2057 3.776 14.0457 4.128C13.9017 4.48 13.6457 4.728 13.2777 4.872C12.9257 5.016 12.4857 4.96 11.9577 4.704C11.4297 4.432 10.8697 4.232 10.2777 4.104C9.68573 3.976 9.07773 3.912 8.45373 3.912C7.44573 3.912 6.66173 4.112 6.10173 4.512C5.55773 4.896 5.28573 5.4 5.28573 6.024C5.28573 6.488 5.45373 6.864 5.78973 7.152C6.12573 7.44 6.70973 7.672 7.54173 7.848L10.2537 8.424C13.3577 9.096 14.9097 10.616 14.9097 12.984C14.9097 14.04 14.6217 14.968 14.0457 15.768C13.4857 16.552 12.6857 17.168 11.6457 17.616C10.6217 18.048 9.40573 18.264 7.99773 18.264ZM18.8367 18.216C17.6207 18.216 17.0127 17.6 17.0127 16.368V2.712C17.0127 1.48 17.6207 0.863999 18.8367 0.863999C20.0367 0.863999 20.6367 1.48 20.6367 2.712V11.088H20.6847L24.1647 7.224C24.5167 6.824 24.8367 6.528 25.1247 6.336C25.4127 6.128 25.8127 6.024 26.3247 6.024C26.8207 6.024 27.2047 6.152 27.4767 6.408C27.7487 6.648 27.8847 6.96 27.8847 7.344C27.8847 7.712 27.7247 8.072 27.4047 8.424L24.3327 11.856L27.8127 15.864C28.1167 16.248 28.2447 16.624 28.1967 16.992C28.1647 17.344 28.0047 17.64 27.7167 17.88C27.4287 18.104 27.0607 18.216 26.6127 18.216C26.0527 18.216 25.6127 18.112 25.2927 17.904C24.9887 17.696 24.6607 17.376 24.3087 16.944L20.6847 12.912H20.6367V16.368C20.6367 17.6 20.0367 18.216 18.8367 18.216ZM33.1662 22.536C32.5262 22.536 32.0702 22.296 31.7982 21.816C31.5422 21.352 31.5582 20.808 31.8462 20.184L33.1182 17.352L29.2062 8.376C28.9502 7.752 28.9502 7.208 29.2062 6.744C29.4782 6.264 30.0142 6.024 30.8142 6.024C31.2462 6.024 31.5902 6.128 31.8462 6.336C32.1182 6.528 32.3662 6.904 32.5902 7.464L35.0382 13.704L37.5822 7.44C37.8062 6.896 38.0542 6.528 38.3262 6.336C38.6142 6.128 38.9982 6.024 39.4782 6.024C40.0862 6.024 40.5102 6.264 40.7502 6.744C41.0062 7.208 40.9982 7.744 40.7262 8.352L35.0862 21.144C34.8462 21.688 34.5742 22.056 34.2702 22.248C33.9822 22.44 33.6142 22.536 33.1662 22.536ZM58.1382 18.264C56.2342 18.264 54.6182 17.904 53.2902 17.184C51.9782 16.464 50.9782 15.456 50.2902 14.16C49.6022 12.864 49.2582 11.344 49.2582 9.6C49.2582 7.808 49.6102 6.256 50.3142 4.944C51.0342 3.632 52.0662 2.616 53.4102 1.896C54.7542 1.176 56.3702 0.816 58.2582 0.816C59.1222 0.816 59.9862 0.911999 60.8502 1.104C61.7142 1.296 62.5462 1.616 63.3462 2.064C63.7782 2.304 64.0342 2.624 64.1142 3.024C64.2102 3.424 64.1702 3.816 63.9942 4.2C63.8182 4.568 63.5462 4.84 63.1782 5.016C62.8262 5.176 62.4022 5.136 61.9062 4.896C60.8342 4.336 59.6262 4.056 58.2822 4.056C56.5702 4.056 55.2822 4.536 54.4182 5.496C53.5702 6.44 53.1462 7.808 53.1462 9.6C53.1462 11.408 53.5782 12.776 54.4422 13.704C55.3222 14.632 56.6182 15.096 58.3302 15.096C59.2422 15.096 60.2022 14.952 61.2102 14.664V11.352H59.0502C58.0582 11.352 57.5622 10.904 57.5622 10.008C57.5622 9.112 58.0582 8.664 59.0502 8.664H62.8182C63.7942 8.664 64.2822 9.16 64.2822 10.152V15.72C64.2822 16.136 64.1942 16.488 64.0182 16.776C63.8582 17.064 63.5942 17.272 63.2262 17.4C62.5062 17.656 61.6982 17.864 60.8022 18.024C59.9062 18.184 59.0182 18.264 58.1382 18.264ZM71.2467 18.264C70.3667 18.264 69.5907 18.096 68.9187 17.76C68.2467 17.424 67.7107 16.968 67.3107 16.392C66.9267 15.816 66.7347 15.168 66.7347 14.448C66.7347 13.6 66.9587 12.92 67.4067 12.408C67.8547 11.896 68.5827 11.536 69.5907 11.328C70.5987 11.104 71.9347 10.992 73.5987 10.992H74.4627V10.584C74.4627 9.88 74.3027 9.384 73.9827 9.096C73.6627 8.792 73.1187 8.64 72.3507 8.64C71.9187 8.64 71.4467 8.696 70.9347 8.808C70.4227 8.904 69.8707 9.072 69.2787 9.312C68.8307 9.504 68.4547 9.52 68.1507 9.36C67.8467 9.184 67.6467 8.928 67.5507 8.592C67.4547 8.24 67.4787 7.888 67.6227 7.536C67.7827 7.184 68.0867 6.928 68.5347 6.768C69.2867 6.48 69.9907 6.28 70.6467 6.168C71.3187 6.04 71.9347 5.976 72.4947 5.976C74.3187 5.976 75.6787 6.392 76.5747 7.224C77.4707 8.04 77.9187 9.312 77.9187 11.04V16.368C77.9187 17.6 77.3587 18.216 76.2387 18.216C75.1027 18.216 74.5347 17.6 74.5347 16.368V16.224C74.2947 16.848 73.8867 17.344 73.3107 17.712C72.7507 18.08 72.0627 18.264 71.2467 18.264ZM72.0627 15.84C72.7347 15.84 73.3027 15.608 73.7667 15.144C74.2307 14.68 74.4627 14.08 74.4627 13.344V12.864H73.6227C72.3907 12.864 71.5187 12.976 71.0067 13.2C70.4947 13.408 70.2387 13.776 70.2387 14.304C70.2387 14.752 70.3907 15.12 70.6947 15.408C71.0147 15.696 71.4707 15.84 72.0627 15.84ZM82.4941 18.216C81.2461 18.216 80.6221 17.6 80.6221 16.368V7.848C80.6221 6.632 81.2141 6.024 82.3981 6.024C83.5821 6.024 84.1741 6.632 84.1741 7.848V8.28C84.7501 6.856 85.9421 6.088 87.7501 5.976C88.1501 5.944 88.4541 6.048 88.6621 6.288C88.8861 6.512 89.0061 6.888 89.0221 7.416C89.0541 7.912 88.9501 8.304 88.7101 8.592C88.4861 8.88 88.1021 9.056 87.5581 9.12L87.0061 9.168C85.2141 9.344 84.3181 10.256 84.3181 11.904V16.368C84.3181 17.6 83.7101 18.216 82.4941 18.216ZM94.8858 18.264C93.8618 18.264 92.9578 18.016 92.1738 17.52C91.4058 17.008 90.8058 16.296 90.3738 15.384C89.9418 14.456 89.7258 13.36 89.7258 12.096C89.7258 10.832 89.9418 9.744 90.3738 8.832C90.8058 7.92 91.4058 7.216 92.1738 6.72C92.9578 6.224 93.8618 5.976 94.8858 5.976C95.6698 5.976 96.3898 6.144 97.0458 6.48C97.7018 6.816 98.1978 7.264 98.5338 7.824V2.712C98.5338 1.48 99.1338 0.863999 100.334 0.863999C101.55 0.863999 102.158 1.48 102.158 2.712V16.368C102.158 17.6 101.558 18.216 100.358 18.216C99.1578 18.216 98.5578 17.6 98.5578 16.368V16.296C98.2378 16.904 97.7418 17.384 97.0698 17.736C96.4138 18.088 95.6858 18.264 94.8858 18.264ZM95.9658 15.552C96.7338 15.552 97.3578 15.272 97.8378 14.712C98.3338 14.152 98.5818 13.28 98.5818 12.096C98.5818 10.928 98.3338 10.072 97.8378 9.528C97.3578 8.968 96.7338 8.688 95.9658 8.688C95.1978 8.688 94.5738 8.968 94.0938 9.528C93.6138 10.072 93.3738 10.928 93.3738 12.096C93.3738 13.28 93.6138 14.152 94.0938 14.712C94.5738 15.272 95.1978 15.552 95.9658 15.552ZM111.07 18.264C109.678 18.264 108.478 18.016 107.47 17.52C106.478 17.008 105.71 16.296 105.166 15.384C104.638 14.456 104.374 13.368 104.374 12.12C104.374 10.904 104.63 9.84 105.142 8.928C105.67 8 106.382 7.28 107.278 6.768C108.19 6.24 109.238 5.976 110.422 5.976C112.134 5.976 113.494 6.52 114.502 7.608C115.51 8.68 116.014 10.136 116.014 11.976C116.014 12.584 115.638 12.888 114.886 12.888H107.83C107.958 13.816 108.294 14.496 108.838 14.928C109.398 15.344 110.166 15.552 111.142 15.552C111.526 15.552 111.958 15.512 112.438 15.432C112.934 15.336 113.406 15.176 113.854 14.952C114.318 14.728 114.71 14.688 115.03 14.832C115.35 14.96 115.566 15.184 115.678 15.504C115.806 15.824 115.806 16.16 115.678 16.512C115.566 16.848 115.302 17.128 114.886 17.352C114.326 17.656 113.702 17.88 113.014 18.024C112.342 18.184 111.694 18.264 111.07 18.264ZM110.566 8.376C109.798 8.376 109.174 8.608 108.694 9.072C108.23 9.536 107.942 10.184 107.83 11.016H113.014C112.918 9.256 112.102 8.376 110.566 8.376ZM119.946 18.216C118.73 18.216 118.122 17.6 118.122 16.368V7.848C118.122 6.632 118.714 6.024 119.898 6.024C121.082 6.024 121.674 6.632 121.674 7.848V7.944C122.074 7.304 122.61 6.816 123.282 6.48C123.954 6.144 124.706 5.976 125.538 5.976C126.93 5.976 127.97 6.384 128.658 7.2C129.346 8 129.69 9.24 129.69 10.92V16.368C129.69 17.6 129.082 18.216 127.866 18.216C127.29 18.216 126.842 18.056 126.522 17.736C126.218 17.416 126.066 16.96 126.066 16.368V11.088C126.066 10.272 125.914 9.688 125.61 9.336C125.306 8.968 124.858 8.784 124.266 8.784C123.498 8.784 122.882 9.024 122.418 9.504C121.97 9.984 121.746 10.624 121.746 11.424V16.368C121.746 17.6 121.146 18.216 119.946 18.216Z" fill="url(#paint0_linear_42_550)"/>
<path d="M2.26173 16.944L3.25798 15.2098L3.23229 15.195L3.20617 15.181L2.26173 16.944ZM1.42173 15.984L-0.509504 16.5039L-0.506901 16.5136L-0.504201 16.5233L1.42173 15.984ZM1.49373 14.784L-0.352427 14.0148L1.49373 14.784ZM2.26173 13.968L1.43412 12.1473H1.43412L2.26173 13.968ZM3.53373 14.088L4.53067 12.3542L4.46894 12.3187L4.40485 12.2877L3.53373 14.088ZM5.66973 14.904L6.1078 12.9526L5.66973 14.904ZM10.4697 14.64L11.6272 16.271L11.637 16.264L10.4697 14.64ZM10.7097 12.168L9.48683 13.7506L9.48683 13.7506L10.7097 12.168ZM8.86173 11.472L9.28807 9.51794L9.27724 9.51564L8.86173 11.472ZM6.14973 10.896L6.56524 8.93964L6.56384 8.93934L6.14973 10.896ZM2.47773 3.384L4.1008 4.55261L4.10627 4.54501L4.11166 4.53737L2.47773 3.384ZM4.87773 1.488L4.08647 -0.348855L4.07609 -0.344315L4.87773 1.488ZM11.1177 1.152L10.6158 3.08799L10.6327 3.09237L10.6496 3.09645L11.1177 1.152ZM13.3977 2.088L12.3266 3.77702L12.3475 3.79026L12.3687 3.80298L13.3977 2.088ZM14.1417 3.024L16.082 2.53893L16.082 2.53893L14.1417 3.024ZM14.0457 4.128L12.225 3.3004L12.2091 3.33527L12.1946 3.37073L14.0457 4.128ZM13.2777 4.872L12.5489 3.00951L12.5347 3.0151L12.5205 3.02091L13.2777 4.872ZM11.9577 4.704L11.0418 6.48195L11.0634 6.49305L11.0852 6.50363L11.9577 4.704ZM10.2777 4.104L10.7004 2.14917L10.7004 2.14917L10.2777 4.104ZM6.10173 4.512L7.25511 6.14596L7.2642 6.13947L6.10173 4.512ZM7.54173 7.848L7.95724 5.89164L7.95564 5.8913L7.54173 7.848ZM10.2537 8.424L10.6769 6.46927L10.6692 6.46764L10.2537 8.424ZM14.0457 15.768L12.4226 14.5994L12.4183 14.6055L14.0457 15.768ZM11.6457 17.616L12.4231 19.4587L12.4301 19.4558L12.437 19.4528L11.6457 17.616ZM7.99773 16.264C7.12081 16.264 6.24006 16.1682 5.35312 15.9742L4.49833 19.8818C5.6594 20.1358 6.82665 20.264 7.99773 20.264V16.264ZM5.35312 15.9742C4.48863 15.7851 3.80022 15.5213 3.25798 15.2098L1.26548 18.6782C2.22724 19.2307 3.31483 19.6229 4.49833 19.8818L5.35312 15.9742ZM3.20617 15.181C3.15399 15.1531 3.17473 15.1542 3.22088 15.207C3.27262 15.2661 3.32124 15.3504 3.34766 15.4447L-0.504201 16.5233C-0.213543 17.5613 0.504046 18.2713 1.31728 18.707L3.20617 15.181ZM3.35296 15.4641C3.34883 15.4487 3.354 15.4608 3.35214 15.4918C3.35129 15.5059 3.3492 15.5197 3.34632 15.532C3.34347 15.5441 3.34063 15.5514 3.33988 15.5532L-0.352427 14.0148C-0.689039 14.8226 -0.732136 15.677 -0.509504 16.5039L3.35296 15.4641ZM3.33988 15.5532C3.33773 15.5584 3.31692 15.6045 3.26213 15.6627C3.20551 15.7229 3.14171 15.7649 3.08933 15.7887L1.43412 12.1473C0.585106 12.5332 -0.0141306 13.2029 -0.352427 14.0148L3.33988 15.5532ZM3.08933 15.7887C2.916 15.8675 2.75526 15.8785 2.65588 15.8692C2.5723 15.8613 2.56928 15.8432 2.66261 15.8883L4.40485 12.2877C3.61008 11.9031 2.52779 11.6501 1.43412 12.1473L3.08933 15.7887ZM2.53679 15.8218C3.36577 16.2985 4.26873 16.6393 5.23165 16.8554L6.1078 12.9526C5.50272 12.8167 4.98169 12.6135 4.53067 12.3542L2.53679 15.8218ZM5.23165 16.8554C6.15281 17.0622 7.07571 17.168 7.99773 17.168V13.168C7.38374 13.168 6.75465 13.0978 6.1078 12.9526L5.23165 16.8554ZM7.99773 17.168C9.2479 17.168 10.6038 16.9973 11.6272 16.271L9.31223 13.009C9.35411 12.9793 9.30368 13.0285 9.06197 13.0801C8.82691 13.1303 8.48064 13.168 7.99773 13.168V17.168ZM11.637 16.264C12.5766 15.5887 13.2377 14.5688 13.2377 13.272H9.23773C9.23773 13.2497 9.24054 13.2131 9.25221 13.1675C9.26399 13.1215 9.28162 13.0788 9.30176 13.0429C9.34297 12.9695 9.36942 12.9678 9.30246 13.016L11.637 16.264ZM13.2377 13.272C13.2377 12.2197 12.7988 11.2548 11.9326 10.5854L9.48683 13.7506C9.43827 13.713 9.36025 13.6338 9.30146 13.5109C9.24395 13.3907 9.23773 13.2975 9.23773 13.272H13.2377ZM11.9326 10.5854C11.2092 10.0264 10.2203 9.72136 9.28806 9.51797L8.43539 13.426C8.81254 13.5083 9.08769 13.5897 9.27882 13.6617C9.481 13.7378 9.52405 13.7793 9.48683 13.7506L11.9326 10.5854ZM9.27724 9.51564L6.56524 8.93964L5.73422 12.8524L8.44622 13.4284L9.27724 9.51564ZM6.56384 8.93934C5.28556 8.66881 4.57223 8.25079 4.18742 7.85173C3.84376 7.49534 3.61373 7.0037 3.61373 6.192H-0.386272C-0.386272 7.8763 0.139699 9.41666 1.30804 10.6283C2.43523 11.7972 3.9899 12.4832 5.73562 12.8527L6.56384 8.93934ZM3.61373 6.192C3.61373 5.50077 3.79153 4.98215 4.1008 4.55261L0.854659 2.21539C0.0119295 3.38585 -0.386272 4.73923 -0.386272 6.192H3.61373ZM4.11166 4.53737C4.45303 4.05376 4.94869 3.63998 5.67937 3.32031L4.07609 -0.344315C2.75877 0.232014 1.65442 1.08224 0.843792 2.23063L4.11166 4.53737ZM5.66897 3.32482C6.41414 3.00383 7.33622 2.816 8.47773 2.816V-1.184C6.89923 -1.184 5.42132 -0.923833 4.08648 -0.348826L5.66897 3.32482ZM8.47773 2.816C9.20504 2.816 9.91636 2.90666 10.6158 3.08799L11.6197 -0.783994C10.5911 -1.05066 9.54241 -1.184 8.47773 -1.184V2.816ZM10.6496 3.09645C11.3302 3.2603 11.8808 3.49431 12.3266 3.77702L14.4688 0.398981C13.6026 -0.15031 12.6332 -0.540302 11.5858 -0.792448L10.6496 3.09645ZM12.3687 3.80298C12.3975 3.82022 12.3664 3.80724 12.3181 3.74649C12.2657 3.68059 12.2232 3.59602 12.2014 3.50907L16.082 2.53893C15.8346 1.54924 15.1942 0.833482 14.4267 0.373015L12.3687 3.80298ZM12.2014 3.50907C12.1995 3.50146 12.1927 3.46686 12.1972 3.41474C12.2018 3.36201 12.2154 3.32141 12.225 3.3004L15.8665 4.9556C16.2182 4.18168 16.2848 3.35016 16.082 2.53893L12.2014 3.50907ZM12.1946 3.37073C12.2201 3.30842 12.2706 3.22242 12.3541 3.14152C12.4363 3.06188 12.5128 3.02363 12.5489 3.00951L14.0065 6.73448C14.8617 6.39986 15.5367 5.7655 15.8968 4.88527L12.1946 3.37073ZM12.5205 3.02091C12.7135 2.94192 12.8712 2.94573 12.9362 2.954C12.9884 2.96064 12.9582 2.96639 12.8303 2.90437L11.0852 6.50363C11.8486 6.87377 12.9279 7.17598 14.035 6.72309L12.5205 3.02091ZM12.8736 2.92605C12.1866 2.57213 11.4604 2.31351 10.7004 2.14917L9.85506 6.05883C10.279 6.15049 10.6728 6.29187 11.0418 6.48195L12.8736 2.92605ZM10.7004 2.14917C9.96537 1.99025 9.21552 1.912 8.45373 1.912V5.912C8.93994 5.912 9.40609 5.96175 9.85506 6.05883L10.7004 2.14917ZM8.45373 1.912C7.21368 1.912 5.96294 2.15333 4.93925 2.88453L7.2642 6.13947C7.36051 6.07067 7.67777 5.912 8.45373 5.912V1.912ZM4.94836 2.87806C3.9154 3.60721 3.28573 4.70046 3.28573 6.024H7.28573C7.28573 6.0141 7.2867 6.02371 7.281 6.04733C7.27511 6.07174 7.26473 6.10015 7.24977 6.12786C7.23501 6.15522 7.2216 6.17116 7.21738 6.17575C7.21385 6.17959 7.2233 6.16838 7.25509 6.14594L4.94836 2.87806ZM3.28573 6.024C3.28573 7.03951 3.68488 7.982 4.48814 8.67051L7.09131 5.63349C7.13088 5.6674 7.19221 5.73621 7.23775 5.83812C7.28215 5.93751 7.28573 6.0105 7.28573 6.024H3.28573ZM4.48814 8.67051C5.22005 9.29786 6.2182 9.61228 7.12781 9.8047L7.95564 5.8913C7.61444 5.81912 7.37556 5.74584 7.21812 5.6833C7.05235 5.61744 7.03742 5.58729 7.09131 5.63349L4.48814 8.67051ZM7.12622 9.80436L9.83822 10.3804L10.6692 6.46764L7.95724 5.89164L7.12622 9.80436ZM9.83054 10.3787C11.1745 10.6697 11.9368 11.0958 12.3463 11.4969C12.7016 11.8448 12.9097 12.2841 12.9097 12.984H16.9097C16.9097 11.3159 16.3419 9.8112 15.1451 8.63913C14.0027 7.5202 12.437 6.85033 10.6769 6.46928L9.83054 10.3787ZM12.9097 12.984C12.9097 13.6522 12.7357 14.1646 12.4227 14.5994L15.6688 16.9366C16.5077 15.7714 16.9097 14.4278 16.9097 12.984H12.9097ZM12.4183 14.6055C12.105 15.0441 11.6189 15.4499 10.8545 15.7792L12.437 19.4528C13.7526 18.8861 14.8665 18.0599 15.6732 16.9305L12.4183 14.6055ZM10.8683 15.7733C10.1465 16.0778 9.20729 16.264 7.99773 16.264V20.264C9.60417 20.264 11.0969 20.0182 12.4231 19.4587L10.8683 15.7733ZM20.6367 11.088H18.6367V13.088H20.6367V11.088ZM20.6847 11.088V13.088H21.575L22.1709 12.4264L20.6847 11.088ZM24.1647 7.224L25.6509 8.56244L25.6586 8.55389L25.6662 8.54526L24.1647 7.224ZM25.1247 6.336L26.2341 8.0001L26.2653 7.97931L26.2957 7.95736L25.1247 6.336ZM27.4767 6.408L26.106 7.8644L26.1294 7.88642L26.1535 7.90768L27.4767 6.408ZM27.4047 8.424L25.9248 7.07865L25.9197 7.08436L25.9145 7.09011L27.4047 8.424ZM24.3327 11.856L22.8425 10.5221L21.6666 11.8359L22.8225 13.1672L24.3327 11.856ZM27.8127 15.864L29.3808 14.6226L29.3527 14.587L29.3229 14.5528L27.8127 15.864ZM28.1967 16.992L26.2135 16.7333L26.2085 16.772L26.2049 16.8109L28.1967 16.992ZM27.7167 17.88L28.9446 19.4587L28.9712 19.438L28.9971 19.4164L27.7167 17.88ZM25.2927 17.904L24.1634 19.5546L24.1829 19.568L24.2028 19.5809L25.2927 17.904ZM24.3087 16.944L25.8592 15.6807L25.8286 15.6431L25.7962 15.607L24.3087 16.944ZM20.6847 12.912L22.1722 11.575L21.5762 10.912H20.6847V12.912ZM20.6367 12.912V10.912H18.6367V12.912H20.6367ZM18.8367 16.216C18.6957 16.216 18.6544 16.1975 18.6787 16.2056C18.6927 16.2104 18.7235 16.2225 18.7641 16.2471C18.8054 16.2722 18.8498 16.3061 18.8922 16.3491C18.9345 16.392 18.9669 16.4358 18.9901 16.475C19.0129 16.5135 19.0232 16.5413 19.0265 16.5515C19.0319 16.5677 19.0127 16.5175 19.0127 16.368H15.0127C15.0127 17.2858 15.2397 18.3427 16.0453 19.1589C16.8557 19.98 17.9138 20.216 18.8367 20.216V16.216ZM19.0127 16.368V2.712H15.0127V16.368H19.0127ZM19.0127 2.712C19.0127 2.56246 19.0319 2.51233 19.0265 2.52855C19.0232 2.53869 19.0129 2.56649 18.9901 2.60499C18.9669 2.64421 18.9345 2.68805 18.8922 2.73094C18.8498 2.77387 18.8054 2.80779 18.7641 2.83288C18.7235 2.85755 18.6927 2.8696 18.6787 2.87436C18.6544 2.88255 18.6957 2.864 18.8367 2.864V-1.136C17.9138 -1.136 16.8557 -0.899977 16.0453 -0.0789411C15.2397 0.737276 15.0127 1.79424 15.0127 2.712H19.0127ZM18.8367 2.864C18.9714 2.864 19.0065 2.88196 18.9767 2.87176C18.9598 2.86601 18.9269 2.85272 18.8846 2.82672C18.8418 2.8003 18.7966 2.76518 18.754 2.72148C18.6636 2.62863 18.6294 2.54386 18.622 2.52111C18.6175 2.50744 18.6367 2.56022 18.6367 2.712H22.6367C22.6367 1.80072 22.4152 0.74747 21.6194 -0.0694854C20.8142 -0.8962 19.7586 -1.136 18.8367 -1.136V2.864ZM18.6367 2.712V11.088H22.6367V2.712H18.6367ZM20.6367 13.088H20.6847V9.088H20.6367V13.088ZM22.1709 12.4264L25.6509 8.56244L22.6786 5.88556L19.1986 9.74956L22.1709 12.4264ZM25.6662 8.54526C25.9578 8.21386 26.147 8.05821 26.2341 8.0001L24.0153 4.6719C23.5265 4.99778 23.0757 5.43414 22.6633 5.90274L25.6662 8.54526ZM26.2957 7.95736C26.2086 8.0203 26.1455 8.03725 26.144 8.03764C26.1438 8.0377 26.1576 8.03413 26.1883 8.03062C26.2191 8.02711 26.2639 8.024 26.3247 8.024V4.024C25.5706 4.024 24.7032 4.1734 23.9537 4.71464L26.2957 7.95736ZM26.3247 8.024C26.4044 8.024 26.4042 8.03467 26.3523 8.01737C26.2925 7.99743 26.1984 7.95139 26.106 7.8644L28.8475 4.9516C28.0962 4.24449 27.1589 4.024 26.3247 4.024V8.024ZM26.1535 7.90768C26.085 7.84724 26.0057 7.75057 25.9493 7.62117C25.8942 7.49465 25.8847 7.39176 25.8847 7.344H29.8847C29.8847 6.42428 29.53 5.55249 28.8 4.90832L26.1535 7.90768ZM25.8847 7.344C25.8847 7.22879 25.9116 7.13513 25.9371 7.07772C25.9597 7.02697 25.97 7.02894 25.9248 7.07865L28.8846 9.76935C29.4384 9.16014 29.8847 8.34148 29.8847 7.344H25.8847ZM25.9145 7.09011L22.8425 10.5221L25.8229 13.1899L28.8949 9.75789L25.9145 7.09011ZM22.8225 13.1672L26.3025 17.1752L29.3229 14.5528L25.8429 10.5448L22.8225 13.1672ZM26.2446 17.1054C26.2868 17.1586 26.2679 17.1503 26.2434 17.0785C26.2157 16.9972 26.1951 16.8744 26.2135 16.7333L30.1799 17.2507C30.318 16.1918 29.9084 15.2891 29.3808 14.6226L26.2446 17.1054ZM26.2049 16.8109C26.2122 16.731 26.2381 16.6292 26.2933 16.527C26.3474 16.427 26.4072 16.3679 26.4364 16.3436L28.9971 19.4164C29.6652 18.8597 30.1054 18.0879 30.1885 17.1731L26.2049 16.8109ZM26.4888 16.3013C26.5481 16.2552 26.6054 16.2299 26.6424 16.2187C26.6753 16.2087 26.6711 16.216 26.6127 16.216V20.216C27.4015 20.216 28.2315 20.0134 28.9446 19.4587L26.4888 16.3013ZM26.6127 16.216C26.4525 16.216 26.3613 16.2007 26.3228 16.1916C26.2864 16.183 26.3179 16.185 26.3827 16.2271L24.2028 19.5809C24.9655 20.0767 25.8365 20.216 26.6127 20.216V16.216ZM26.4221 16.2534C26.3352 16.1939 26.1454 16.0319 25.8592 15.6807L22.7583 18.2073C23.176 18.7201 23.6423 19.1981 24.1634 19.5546L26.4221 16.2534ZM25.7962 15.607L22.1722 11.575L19.1973 14.249L22.8213 18.281L25.7962 15.607ZM20.6847 10.912H20.6367V14.912H20.6847V10.912ZM18.6367 12.912V16.368H22.6367V12.912H18.6367ZM18.6367 16.368C18.6367 16.5198 18.6175 16.5726 18.622 16.5589C18.6294 16.5361 18.6636 16.4514 18.754 16.3585C18.7966 16.3148 18.8418 16.2797 18.8846 16.2533C18.9269 16.2273 18.9598 16.214 18.9767 16.2082C19.0065 16.198 18.9714 16.216 18.8367 16.216V20.216C19.7586 20.216 20.8142 19.9762 21.6194 19.1495C22.4152 18.3325 22.6367 17.2793 22.6367 16.368H18.6367ZM31.7982 21.816L30.0471 22.7822L30.0526 22.7921L30.0582 22.802L31.7982 21.816ZM31.8462 20.184L33.6621 21.0221L33.6664 21.0128L33.6707 21.0034L31.8462 20.184ZM33.1182 17.352L34.9426 18.1714L35.3052 17.3642L34.9517 16.5529L33.1182 17.352ZM29.2062 8.376L27.3559 9.13511L27.3641 9.15518L27.3728 9.17507L29.2062 8.376ZM29.2062 6.744L27.4662 5.75797L27.4606 5.76788L27.4551 5.77784L29.2062 6.744ZM31.8462 6.336L30.585 7.88823L30.6376 7.93091L30.6929 7.96994L31.8462 6.336ZM32.5902 7.464L34.4521 6.73357L34.4472 6.72122L32.5902 7.464ZM35.0382 13.704L33.1764 14.4344L35.0061 19.0983L36.8912 14.4566L35.0382 13.704ZM37.5822 7.44L35.7328 6.67849L35.7292 6.68744L37.5822 7.44ZM38.3262 6.336L39.4796 7.96993L39.4884 7.96369L39.4972 7.95736L38.3262 6.336ZM40.7502 6.744L38.9614 7.63843L38.9795 7.67467L38.9991 7.71016L40.7502 6.744ZM40.7262 8.352L38.9006 7.53526L38.8962 7.54514L40.7262 8.352ZM35.0862 21.144L36.9161 21.9513L36.9162 21.9509L35.0862 21.144ZM34.2702 22.248L33.2022 20.557L33.1814 20.5702L33.1608 20.5839L34.2702 22.248ZM33.1662 20.536C33.0936 20.536 33.1552 20.5227 33.2757 20.5862C33.3351 20.6174 33.3929 20.6593 33.4431 20.709C33.4926 20.7579 33.5226 20.8024 33.5383 20.83L30.0582 22.802C30.7485 24.0202 31.944 24.536 33.1662 24.536V20.536ZM33.5494 20.8498C33.5706 20.8883 33.5901 20.9361 33.6028 20.9898C33.6155 21.0431 33.6183 21.0881 33.6174 21.1188C33.6157 21.177 33.6025 21.1514 33.6621 21.0221L30.0303 19.3459C29.5627 20.359 29.3957 21.6016 30.0471 22.7822L33.5494 20.8498ZM33.6707 21.0034L34.9426 18.1714L31.2938 16.5326L30.0218 19.3646L33.6707 21.0034ZM34.9517 16.5529L31.0397 7.57693L27.3728 9.17507L31.2848 18.1511L34.9517 16.5529ZM31.0566 7.61689C31.0044 7.48985 31.0142 7.45734 31.0142 7.5C31.0142 7.52236 31.0114 7.55713 31.0007 7.59931C30.9899 7.64175 30.9742 7.67971 30.9574 7.71015L27.4551 5.77784C26.8294 6.91192 26.9382 8.1171 27.3559 9.13511L31.0566 7.61689ZM30.9463 7.73003C30.9086 7.79655 30.8558 7.8638 30.7903 7.92219C30.7258 7.97968 30.6668 8.01272 30.6296 8.02937C30.5652 8.05818 30.5998 8.024 30.8142 8.024V4.024C29.6525 4.024 28.2404 4.39169 27.4662 5.75797L30.9463 7.73003ZM30.8142 8.024C30.8724 8.024 30.8665 8.03126 30.8174 8.01642C30.763 7.99996 30.6762 7.96231 30.585 7.88823L33.1074 4.78377C32.3975 4.20695 31.562 4.024 30.8142 4.024V8.024ZM30.6929 7.96994C30.6272 7.9236 30.5877 7.8837 30.5706 7.86501C30.5535 7.8464 30.5533 7.8429 30.5667 7.86319C30.5961 7.90779 30.6557 8.01296 30.7333 8.20678L34.4472 6.72122C34.1803 6.05395 33.7529 5.23378 32.9996 4.70206L30.6929 7.96994ZM30.7284 8.19442L33.1764 14.4344L36.9001 12.9736L34.4521 6.73358L30.7284 8.19442ZM36.8912 14.4566L39.4352 8.19256L35.7292 6.68744L33.1852 12.9514L36.8912 14.4566ZM39.4316 8.2015C39.5077 8.01666 39.566 7.91632 39.5948 7.87371C39.6079 7.85427 39.608 7.85699 39.5923 7.8739C39.5765 7.89092 39.54 7.92729 39.4796 7.96993L37.1729 4.70206C36.4339 5.22372 36.0048 6.01821 35.7329 6.6785L39.4316 8.2015ZM39.4972 7.95736C39.4617 7.983 39.429 8.00119 39.4025 8.01352C39.3762 8.02569 39.3586 8.03094 39.3531 8.03245C39.3438 8.03496 39.3798 8.024 39.4782 8.024V4.024C38.7231 4.024 37.8855 4.18724 37.1552 4.71464L39.4972 7.95736ZM39.4782 8.024C39.5214 8.024 39.4214 8.03187 39.267 7.94451C39.0981 7.84891 39.0004 7.71646 38.9614 7.63843L42.5391 5.84957C42.2601 5.29154 41.8303 4.79909 41.2374 4.46349C40.6591 4.13613 40.043 4.024 39.4782 4.024V8.024ZM38.9991 7.71016C38.9813 7.67795 38.9637 7.6359 38.9515 7.58692C38.9394 7.53806 38.936 7.49538 38.9365 7.46415C38.9374 7.40349 38.9518 7.42077 38.9006 7.53527L42.5519 9.16873C43.0074 8.15051 43.1375 6.93089 42.5014 5.77784L38.9991 7.71016ZM38.8962 7.54514L33.2562 20.3371L36.9162 21.9509L42.5563 9.15886L38.8962 7.54514ZM33.2564 20.3367C33.1793 20.5115 33.1207 20.603 33.0939 20.6392C33.0668 20.6758 33.096 20.6241 33.2022 20.557L35.3382 23.939C36.1332 23.4369 36.6103 22.6445 36.9161 21.9513L33.2564 20.3367ZM33.1608 20.5839C33.1889 20.5652 33.2145 20.5518 33.2352 20.5427C33.2558 20.5337 33.2693 20.5298 33.2734 20.5288C33.2804 20.5269 33.2492 20.536 33.1662 20.536V24.536C33.894 24.536 34.6789 24.3793 35.3796 23.9121L33.1608 20.5839ZM53.2902 17.184L52.328 18.9374L52.337 18.9422L53.2902 17.184ZM50.2902 14.16L52.0567 13.2222L50.2902 14.16ZM50.3142 4.944L48.5609 3.9818L48.5564 3.99006L48.5519 3.99836L50.3142 4.944ZM53.4102 1.896L54.3547 3.65896V3.65896L53.4102 1.896ZM60.8502 1.104L61.2841 -0.848375V-0.848376L60.8502 1.104ZM63.3462 2.064L62.369 3.80902L62.3749 3.81231L63.3462 2.064ZM64.1142 3.024L62.1531 3.41623L62.1606 3.45364L62.1695 3.49074L64.1142 3.024ZM63.9942 4.2L65.7985 5.06291L65.8055 5.04816L65.8124 5.03331L63.9942 4.2ZM63.1782 5.016L64.0058 6.83673L64.0236 6.82867L64.0411 6.82027L63.1782 5.016ZM61.9062 4.896L60.9802 6.6687L61.0074 6.68293L61.0351 6.69632L61.9062 4.896ZM54.4182 5.496L52.9316 4.15807L52.9304 4.15946L54.4182 5.496ZM54.4422 13.704L52.9784 15.0668L52.9847 15.0735L52.991 15.0802L54.4422 13.704ZM61.2102 14.664L61.7597 16.587L63.2102 16.1726V14.664H61.2102ZM61.2102 11.352H63.2102V9.352H61.2102V11.352ZM64.0182 16.776L62.3117 15.7331L62.29 15.7685L62.2699 15.8047L64.0182 16.776ZM63.2262 17.4L62.5692 15.511L62.5562 15.5156L63.2262 17.4ZM60.8022 18.024L60.4506 16.0551L60.8022 18.024ZM58.1382 16.264C56.4822 16.264 55.2122 15.951 54.2435 15.4258L52.337 18.9422C54.0242 19.857 55.9863 20.264 58.1382 20.264V16.264ZM54.2524 15.4307C53.2751 14.8943 52.558 14.1665 52.0567 13.2222L48.5237 15.0978C49.3984 16.7455 50.6814 18.0337 52.328 18.9373L54.2524 15.4307ZM52.0567 13.2222C51.5485 12.2648 51.2582 11.0785 51.2582 9.6H47.2582C47.2582 11.6095 47.6559 13.4632 48.5237 15.0978L52.0567 13.2222ZM51.2582 9.6C51.2582 8.07123 51.5574 6.85722 52.0765 5.88963L48.5519 3.99836C47.6631 5.65478 47.2582 7.54477 47.2582 9.6H51.2582ZM52.0676 5.90619C52.5975 4.94053 53.3454 4.19966 54.3547 3.65896L52.4658 0.13304C50.7871 1.03234 49.471 2.32346 48.5609 3.9818L52.0676 5.90619ZM54.3547 3.65896C55.3469 3.1274 56.6224 2.816 58.2582 2.816V-1.184C56.118 -1.184 54.1615 -0.775404 52.4658 0.13304L54.3547 3.65896ZM58.2582 2.816C58.9728 2.816 59.6913 2.89525 60.4164 3.05637L61.2841 -0.848376C60.2811 -1.07126 59.2717 -1.184 58.2582 -1.184V2.816ZM60.4164 3.05637C61.0833 3.20459 61.7329 3.45279 62.369 3.80901L64.3234 0.318987C63.3596 -0.22079 62.3451 -0.612593 61.2841 -0.848375L60.4164 3.05637ZM62.3749 3.81231C62.4093 3.83139 62.3647 3.81371 62.3005 3.73339C62.2297 3.64491 62.1761 3.53127 62.1531 3.41623L66.0754 2.63177C65.8561 1.53523 65.1435 0.77458 64.3175 0.315684L62.3749 3.81231ZM62.1695 3.49074C62.1672 3.48135 62.1627 3.45291 62.1666 3.41497C62.1704 3.3777 62.1794 3.35958 62.1761 3.36669L65.8124 5.03331C66.1695 4.25417 66.2625 3.40505 66.059 2.55725L62.1695 3.49074ZM62.19 3.33709C62.1938 3.32899 62.2102 3.29959 62.244 3.26579C62.2778 3.23198 62.3072 3.21561 62.3153 3.21173L64.0411 6.82027C64.8212 6.44719 65.4254 5.84299 65.7985 5.06291L62.19 3.33709ZM62.3506 3.19527C62.524 3.11648 62.6847 3.10547 62.7841 3.11484C62.8677 3.12273 62.8707 3.14084 62.7774 3.09568L61.0351 6.69632C61.8299 7.08088 62.9122 7.33385 64.0058 6.83673L62.3506 3.19527ZM62.8323 3.1233C61.4438 2.39797 59.9123 2.056 58.2822 2.056V6.056C59.3402 6.056 60.2247 6.27402 60.9802 6.6687L62.8323 3.1233ZM58.2822 2.056C56.1976 2.056 54.2879 2.65107 52.9316 4.15807L55.9048 6.83393C56.2765 6.42093 56.9429 6.056 58.2822 6.056V2.056ZM52.9304 4.15946C51.6386 5.59751 51.1462 7.51708 51.1462 9.6H55.1462C55.1462 8.09892 55.5019 7.28249 55.9061 6.83253L52.9304 4.15946ZM51.1462 9.6C51.1462 11.6989 51.647 13.6368 52.9784 15.0668L55.906 12.3412C55.5094 11.9152 55.1462 11.1171 55.1462 9.6H51.1462ZM52.991 15.0802C54.3637 16.5278 56.2627 17.096 58.3302 17.096V13.096C56.9737 13.096 56.2807 12.7362 55.8935 12.3278L52.991 15.0802ZM58.3302 17.096C59.4534 17.096 60.5991 16.9186 61.7597 16.587L60.6608 12.741C59.8054 12.9854 59.0311 13.096 58.3302 13.096V17.096ZM63.2102 14.664V11.352H59.2102V14.664H63.2102ZM61.2102 9.352H59.0502V13.352H61.2102V9.352ZM59.0502 9.352C58.8151 9.352 59.0121 9.29451 59.2748 9.53179C59.4078 9.65194 59.4898 9.79054 59.5315 9.90355C59.569 10.005 59.5622 10.0526 59.5622 10.008H55.5622C55.5622 10.8198 55.7963 11.78 56.5937 12.5002C57.3524 13.1855 58.2934 13.352 59.0502 13.352V9.352ZM59.5622 10.008C59.5622 9.96338 59.569 10.011 59.5315 10.1124C59.4898 10.2255 59.4078 10.3641 59.2748 10.4842C59.0121 10.7215 58.8151 10.664 59.0502 10.664V6.664C58.2934 6.664 57.3524 6.83051 56.5937 7.51579C55.7963 8.23601 55.5622 9.1962 55.5622 10.008H59.5622ZM59.0502 10.664H62.8182V6.664H59.0502V10.664ZM62.8182 10.664C62.9896 10.664 62.7527 10.7051 62.4906 10.4387C62.2344 10.1783 62.2822 9.95619 62.2822 10.152H66.2822C66.2822 9.35581 66.0861 8.38974 65.3419 7.63333C64.5918 6.87092 63.6228 6.664 62.8182 6.664V10.664ZM62.2822 10.152V15.72H66.2822V10.152H62.2822ZM62.2822 15.72C62.2822 15.7878 62.275 15.8147 62.2759 15.8109C62.2765 15.8088 62.2789 15.7997 62.2849 15.7853C62.2908 15.7708 62.2996 15.7529 62.3117 15.7331L65.7248 17.8189C66.1328 17.1513 66.2822 16.4186 66.2822 15.72H62.2822ZM62.2699 15.8047C62.3213 15.7122 62.3905 15.6337 62.4625 15.577C62.5304 15.5235 62.5761 15.5086 62.5692 15.511L63.8833 19.289C64.6258 19.0307 65.3255 18.5411 65.7665 17.7473L62.2699 15.8047ZM62.5562 15.5156C61.9572 15.7285 61.2582 15.9109 60.4506 16.0551L61.1538 19.9929C62.1383 19.8171 63.0552 19.5835 63.8962 19.2844L62.5562 15.5156ZM60.4506 16.0551C59.6667 16.1951 58.8964 16.264 58.1382 16.264V20.264C59.1401 20.264 60.1457 20.1729 61.1538 19.9929L60.4506 16.0551ZM68.9187 17.76L68.0243 19.5489L68.9187 17.76ZM67.3107 16.392L65.6466 17.5014L65.6572 17.5172L65.668 17.5328L67.3107 16.392ZM67.4067 12.408L65.9016 11.091V11.091L67.4067 12.408ZM69.5907 11.328L69.9949 13.2867L70.0098 13.2837L70.0246 13.2804L69.5907 11.328ZM74.4627 10.992V12.992H76.4627V10.992H74.4627ZM73.9827 9.096L72.6052 10.546L72.6248 10.5646L72.6448 10.5826L73.9827 9.096ZM70.9347 8.808L71.3033 10.7737L71.3328 10.7682L71.3621 10.7618L70.9347 8.808ZM69.2787 9.312L68.5273 7.45852L68.509 7.46594L68.4909 7.47371L69.2787 9.312ZM68.1507 9.36L67.1487 11.0909L67.1836 11.1111L67.2192 11.1298L68.1507 9.36ZM67.5507 8.592L65.6212 9.11823L65.6244 9.12986L65.6277 9.14144L67.5507 8.592ZM67.6227 7.536L65.802 6.70839L65.7861 6.74327L65.7716 6.77873L67.6227 7.536ZM68.5347 6.768L69.2074 8.65148L69.2288 8.64384L69.25 8.63571L68.5347 6.768ZM70.6467 6.168L70.9833 8.13947L71.0022 8.13625L71.021 8.13268L70.6467 6.168ZM76.5747 7.224L75.2138 8.68959L75.2209 8.69617L75.2281 8.70268L76.5747 7.224ZM74.5347 16.224H76.5347L72.668 15.506L74.5347 16.224ZM73.3107 17.712L72.2339 16.0266L72.2231 16.0335L72.2124 16.0406L73.3107 17.712ZM73.7667 15.144L75.1809 16.5582V16.5582L73.7667 15.144ZM74.4627 12.864H76.4627V10.864H74.4627V12.864ZM71.0067 13.2L71.7595 15.0529L71.7841 15.0429L71.8084 15.0323L71.0067 13.2ZM70.6947 15.408L69.3192 16.8599L69.3378 16.8775L69.3568 16.8946L70.6947 15.408ZM71.2467 16.264C70.6242 16.264 70.1636 16.1464 69.8132 15.9711L68.0243 19.5489C69.0178 20.0456 70.1093 20.264 71.2467 20.264V16.264ZM69.8132 15.9711C69.4189 15.774 69.1487 15.5323 68.9535 15.2512L65.668 17.5328C66.2728 18.4037 67.0745 19.074 68.0243 19.5489L69.8132 15.9711ZM68.9748 15.2826C68.8189 15.0488 68.7347 14.7899 68.7347 14.448H64.7347C64.7347 15.5461 65.0345 16.5832 65.6466 17.5014L68.9748 15.2826ZM68.7347 14.448C68.7347 13.9607 68.8559 13.789 68.9119 13.725L65.9016 11.091C65.0615 12.051 64.7347 13.2393 64.7347 14.448H68.7347ZM68.9119 13.725C68.9588 13.6714 69.2063 13.4495 69.9949 13.2867L69.1865 9.36927C67.9592 9.62253 66.7506 10.1206 65.9016 11.091L68.9119 13.725ZM70.0246 13.2804C70.8307 13.1012 72.0037 12.992 73.5987 12.992V8.992C71.8658 8.992 70.3667 9.10677 69.1569 9.37563L70.0246 13.2804ZM73.5987 12.992H74.4627V8.992H73.5987V12.992ZM76.4627 10.992V10.584H72.4627V10.992H76.4627ZM76.4627 10.584C76.4627 9.66208 76.2659 8.4601 75.3207 7.60941L72.6448 10.5826C72.5722 10.5172 72.5209 10.4506 72.487 10.3953C72.4542 10.3416 72.4416 10.305 72.4393 10.298C72.4372 10.2916 72.4436 10.3095 72.4503 10.3593C72.4569 10.4089 72.4627 10.4825 72.4627 10.584H76.4627ZM75.3602 7.646C74.4754 6.80541 73.2821 6.64 72.3507 6.64V10.64C72.6133 10.64 72.7498 10.6672 72.7965 10.6802C72.8397 10.6923 72.7389 10.673 72.6052 10.546L75.3602 7.646ZM72.3507 6.64C71.7484 6.64 71.1311 6.71774 70.5073 6.8542L71.3621 10.7618C71.7623 10.6743 72.089 10.64 72.3507 10.64V6.64ZM70.5661 6.84226C69.8976 6.9676 69.2163 7.17921 68.5273 7.45852L70.0301 11.1655C70.5252 10.9648 70.9478 10.8404 71.3033 10.7737L70.5661 6.84226ZM68.4909 7.47371C68.4271 7.50105 68.462 7.47465 68.5757 7.46981C68.7061 7.46426 68.8921 7.49012 69.0822 7.59016L67.2192 11.1298C68.2531 11.674 69.307 11.4758 70.0666 11.1503L68.4909 7.47371ZM69.1528 7.62915C69.2042 7.6589 69.2788 7.71511 69.3488 7.80471C69.4189 7.89448 69.4565 7.98196 69.4738 8.04256L65.6277 9.14144C65.8669 9.97859 66.3988 10.6567 67.1487 11.0909L69.1528 7.62915ZM69.4803 8.06577C69.489 8.09785 69.4958 8.14559 69.4921 8.20005C69.4884 8.25352 69.4765 8.28667 69.4738 8.29327L65.7716 6.77873C65.4685 7.51972 65.4042 8.32249 65.6212 9.11823L69.4803 8.06577ZM69.4435 8.3636C69.3969 8.46603 69.328 8.55175 69.259 8.60982C69.1965 8.66243 69.1649 8.66665 69.2074 8.65148L67.8621 4.88452C67.0295 5.18184 66.2357 5.75433 65.802 6.70839L69.4435 8.3636ZM69.25 8.63571C69.9041 8.38523 70.4802 8.22536 70.9833 8.13947L70.3101 4.19653C69.5012 4.33463 68.6694 4.57477 67.8194 4.90029L69.25 8.63571ZM71.021 8.13268C71.5956 8.02322 72.0843 7.976 72.4947 7.976V3.976C71.7852 3.976 71.0419 4.05678 70.2725 4.20332L71.021 8.13268ZM72.4947 7.976C74.0571 7.976 74.834 8.33688 75.2138 8.68959L77.9356 5.75841C76.5235 4.44712 74.5804 3.976 72.4947 3.976V7.976ZM75.2281 8.70268C75.5558 9.00118 75.9187 9.62965 75.9187 11.04H79.9187C79.9187 8.99435 79.3856 7.07882 77.9214 5.74531L75.2281 8.70268ZM75.9187 11.04V16.368H79.9187V11.04H75.9187ZM75.9187 16.368C75.9187 16.5309 75.8995 16.5971 75.8997 16.5965C75.9021 16.5886 75.9296 16.5069 76.0188 16.4087C76.1119 16.3063 76.2156 16.2483 76.2852 16.2227C76.3434 16.2014 76.3406 16.216 76.2387 16.216V20.216C77.1587 20.216 78.2014 19.9542 78.9786 19.0993C79.7229 18.2806 79.9187 17.2476 79.9187 16.368H75.9187ZM76.2387 16.216C76.1301 16.216 76.1207 16.2007 76.1732 16.2196C76.2369 16.2427 76.3382 16.2975 76.4311 16.3982C76.5207 16.4955 76.5496 16.5779 76.553 16.5889C76.554 16.5922 76.5347 16.5287 76.5347 16.368H72.5347C72.5347 17.2539 72.7355 18.2911 73.4904 19.1098C74.2735 19.9591 75.3189 20.216 76.2387 20.216V16.216ZM76.5347 16.368V16.224H72.5347V16.368H76.5347ZM72.668 15.506C72.585 15.722 72.4588 15.883 72.2339 16.0266L74.3875 19.3974C75.3147 18.805 76.0045 17.974 76.4014 16.942L72.668 15.506ZM72.2124 16.0406C72.0435 16.1515 71.7581 16.264 71.2467 16.264V20.264C72.3673 20.264 73.4579 20.0085 74.4091 19.3834L72.2124 16.0406ZM72.0627 17.84C73.2508 17.84 74.3319 17.4073 75.1809 16.5582L72.3525 13.7298C72.2736 13.8087 72.2186 13.84 72.0627 13.84V17.84ZM75.1809 16.5582C76.0671 15.6721 76.4627 14.54 76.4627 13.344H72.4627C72.4627 13.62 72.3944 13.6879 72.3525 13.7298L75.1809 16.5582ZM76.4627 13.344V12.864H72.4627V13.344H76.4627ZM74.4627 10.864H73.6227V14.864H74.4627V10.864ZM73.6227 10.864C72.3684 10.864 71.1288 10.9636 70.2051 11.3677L71.8084 15.0323C71.8056 15.0335 71.841 15.0182 71.9301 14.9965C72.0172 14.9754 72.1384 14.9524 72.2995 14.9317C72.6251 14.8899 73.061 14.864 73.6227 14.864V10.864ZM70.254 11.3471C69.7229 11.5628 69.1847 11.9209 68.7889 12.4899C68.3885 13.0654 68.2387 13.7061 68.2387 14.304H72.2387C72.2387 14.3739 72.2169 14.5666 72.0725 14.7741C71.9327 14.9751 71.7786 15.0452 71.7595 15.0529L70.254 11.3471ZM68.2387 14.304C68.2387 15.2584 68.5865 16.1657 69.3192 16.8599L72.0702 13.9561C72.1118 13.9955 72.1642 14.0629 72.2012 14.1525C72.237 14.2391 72.2387 14.2987 72.2387 14.304H68.2387ZM69.3568 16.8946C70.1623 17.6196 71.1631 17.84 72.0627 17.84V13.84C71.9952 13.84 71.9474 13.8359 71.9165 13.8316C71.8858 13.8274 71.8746 13.8235 71.879 13.8248C71.8838 13.8264 71.9036 13.8331 71.933 13.8495C71.963 13.8662 71.9977 13.8899 72.0327 13.9214L69.3568 16.8946ZM84.1741 8.28H82.1741L86.0282 9.02996L84.1741 8.28ZM87.7501 5.976L87.8738 7.97217L87.8917 7.97106L87.9096 7.96963L87.7501 5.976ZM88.6621 6.288L87.1507 7.59786L87.1974 7.65177L87.2479 7.70221L88.6621 6.288ZM89.0221 7.416L87.023 7.47658L87.0241 7.5107L87.0263 7.54476L89.0221 7.416ZM88.7101 8.592L87.1737 7.31163L87.1521 7.33752L87.1314 7.36412L88.7101 8.592ZM87.5581 9.12L87.7314 11.1125L87.7616 11.1098L87.7918 11.1063L87.5581 9.12ZM87.0061 9.168L86.8328 7.17552L86.8217 7.17649L86.8106 7.17758L87.0061 9.168ZM82.4941 16.216C82.3406 16.216 82.287 16.1964 82.3002 16.2007C82.3089 16.2036 82.3353 16.2133 82.3726 16.2353C82.4106 16.2578 82.4533 16.2893 82.4952 16.3307C82.5371 16.3721 82.5701 16.4153 82.5944 16.4554C82.6183 16.4947 82.6298 16.5241 82.634 16.5367C82.6412 16.5579 82.6221 16.5131 82.6221 16.368H78.6221C78.6221 17.2989 78.8601 18.3629 79.685 19.1773C80.5052 19.987 81.5683 20.216 82.4941 20.216V16.216ZM82.6221 16.368V7.848H78.6221V16.368H82.6221ZM82.6221 7.848C82.6221 7.70017 82.6408 7.65081 82.6354 7.66742C82.6271 7.69309 82.5914 7.78035 82.499 7.87523C82.4055 7.97126 82.312 8.01542 82.2689 8.03019C82.236 8.04144 82.2675 8.024 82.3981 8.024V4.024C81.4841 4.024 80.4344 4.2619 79.6332 5.08477C78.8416 5.89774 78.6221 6.94489 78.6221 7.848H82.6221ZM82.3981 8.024C82.5287 8.024 82.5602 8.04144 82.5273 8.03019C82.4842 8.01542 82.3907 7.97126 82.2972 7.87523C82.2048 7.78035 82.1691 7.69309 82.1608 7.66742C82.1554 7.65081 82.1741 7.70017 82.1741 7.848H86.1741C86.1741 6.94489 85.9546 5.89774 85.163 5.08477C84.3618 4.2619 83.3121 4.024 82.3981 4.024V8.024ZM82.1741 7.848V8.28H86.1741V7.848H82.1741ZM86.0282 9.02996C86.175 8.66695 86.3634 8.45895 86.5833 8.31726C86.8225 8.16313 87.2186 8.01276 87.8738 7.97217L87.6264 3.97983C86.4736 4.05124 85.3697 4.34087 84.4169 4.95474C83.4448 5.58105 82.7492 6.46905 82.32 7.53004L86.0282 9.02996ZM87.9096 7.96963C87.9024 7.97021 87.7938 7.97813 87.6307 7.92233C87.4524 7.86133 87.281 7.74821 87.1507 7.59786L90.1735 4.97814C89.4406 4.13248 88.4393 3.91447 87.5906 3.98237L87.9096 7.96963ZM87.2479 7.70221C87.0855 7.53978 87.0284 7.38883 87.0148 7.34608C87.0028 7.30855 87.0189 7.34 87.023 7.47658L91.0212 7.35542C90.9994 6.63669 90.8359 5.63335 90.0763 4.87379L87.2479 7.70221ZM87.0263 7.54476C87.0313 7.62378 87.0206 7.62323 87.035 7.56913C87.0515 7.50685 87.0922 7.40939 87.1737 7.31163L90.2465 9.87237C90.9099 9.07638 91.0719 8.1234 91.018 7.28724L87.0263 7.54476ZM87.1314 7.36412C87.2458 7.21696 87.3668 7.14663 87.4208 7.12187C87.4654 7.10143 87.4471 7.11927 87.3244 7.1337L87.7918 11.1063C88.6036 11.0108 89.6026 10.7022 90.2888 9.81988L87.1314 7.36412ZM87.3848 7.12752L86.8328 7.17552L87.1794 11.1605L87.7314 11.1125L87.3848 7.12752ZM86.8106 7.17758C85.636 7.29294 84.4519 7.67803 83.5634 8.58236C82.6504 9.51167 82.3181 10.7137 82.3181 11.904H86.3181C86.3181 11.6702 86.3502 11.5342 86.3738 11.4667C86.3946 11.4074 86.4116 11.391 86.4168 11.3856C86.4243 11.378 86.5842 11.2191 87.2016 11.1584L86.8106 7.17758ZM82.3181 11.904V16.368H86.3181V11.904H82.3181ZM82.3181 16.368C82.3181 16.5175 82.299 16.5677 82.3043 16.5515C82.3076 16.5413 82.3179 16.5135 82.3407 16.475C82.364 16.4358 82.3963 16.392 82.4387 16.3491C82.481 16.3061 82.5254 16.2722 82.5667 16.2471C82.6073 16.2225 82.6381 16.2104 82.6522 16.2056C82.6764 16.1975 82.6351 16.216 82.4941 16.216V20.216C83.4171 20.216 84.4752 19.98 85.2855 19.1589C86.0911 18.3427 86.3181 17.2858 86.3181 16.368H82.3181ZM92.1738 17.52L91.0644 19.1841L91.0843 19.1974L91.1045 19.2102L92.1738 17.52ZM90.3738 15.384L88.5606 16.2281L88.5663 16.2402L90.3738 15.384ZM90.3738 8.832L88.5663 7.97583L90.3738 8.832ZM92.1738 6.72L91.1045 5.02984L91.0966 5.03484L91.0887 5.03992L92.1738 6.72ZM97.0458 6.48L96.134 8.26009L97.0458 6.48ZM98.5338 7.824L96.8188 8.85299L100.534 15.0446V7.824H98.5338ZM98.5578 16.296H100.558L96.788 15.3645L98.5578 16.296ZM97.0698 17.736L96.1418 15.9643L96.1329 15.969L96.1242 15.9737L97.0698 17.736ZM97.8378 14.712L96.3406 13.3859L96.3298 13.3981L96.3193 13.4104L97.8378 14.712ZM97.8378 9.528L96.3193 10.8296L96.3392 10.8529L96.3599 10.8755L97.8378 9.528ZM94.0938 9.528L95.5935 10.8512L95.603 10.8405L95.6123 10.8296L94.0938 9.528ZM94.0938 14.712L95.6123 13.4104L94.0938 14.712ZM94.8858 16.264C94.1997 16.264 93.6744 16.1028 93.2431 15.8298L91.1045 19.2102C92.2411 19.9292 93.5239 20.264 94.8858 20.264V16.264ZM93.2832 15.8559C92.8446 15.5635 92.473 15.1438 92.1813 14.5278L88.5663 16.2402C89.1385 17.4482 89.967 18.4525 91.0644 19.1841L93.2832 15.8559ZM92.187 14.5399C91.9034 13.9309 91.7258 13.1352 91.7258 12.096H87.7258C87.7258 13.5848 87.9802 14.9811 88.5606 16.2281L92.187 14.5399ZM91.7258 12.096C91.7258 11.0554 91.9039 10.2738 92.1813 9.68817L88.5663 7.97583C87.9797 9.21421 87.7258 10.6086 87.7258 12.096H91.7258ZM92.1813 9.68817C92.4709 9.07662 92.8356 8.67344 93.2588 8.40008L91.0887 5.03992C89.976 5.75856 89.1406 6.76337 88.5663 7.97583L92.1813 9.68817ZM93.2431 8.41016C93.6744 8.13725 94.1997 7.976 94.8858 7.976V3.976C93.5239 3.976 92.2411 4.31075 91.1045 5.02984L93.2431 8.41016ZM94.8858 7.976C95.3735 7.976 95.7781 8.07779 96.134 8.26009L97.9575 4.69991C97.0015 4.21021 95.9661 3.976 94.8858 3.976V7.976ZM96.134 8.26009C96.5013 8.44819 96.699 8.65333 96.8188 8.85299L100.249 6.79501C99.6966 5.87467 98.9023 5.18381 97.9575 4.69991L96.134 8.26009ZM100.534 7.824V2.712H96.5338V7.824H100.534ZM100.534 2.712C100.534 2.56022 100.553 2.50744 100.549 2.52111C100.541 2.54386 100.507 2.62863 100.416 2.72148C100.374 2.76518 100.329 2.8003 100.286 2.82672C100.244 2.85272 100.211 2.86601 100.194 2.87176C100.164 2.88196 100.199 2.864 100.334 2.864V-1.136C99.4119 -1.136 98.3563 -0.8962 97.5511 -0.0694854C96.7554 0.74747 96.5338 1.80072 96.5338 2.712H100.534ZM100.334 2.864C100.475 2.864 100.516 2.88255 100.492 2.87436C100.478 2.8696 100.447 2.85755 100.406 2.83288C100.365 2.80779 100.321 2.77387 100.278 2.73094C100.236 2.68805 100.204 2.64421 100.18 2.60499C100.158 2.56649 100.147 2.53869 100.144 2.52855C100.139 2.51233 100.158 2.56246 100.158 2.712H104.158C104.158 1.79424 103.931 0.737276 103.125 -0.0789413C102.315 -0.899977 101.257 -1.136 100.334 -1.136V2.864ZM100.158 2.712V16.368H104.158V2.712H100.158ZM100.158 16.368C100.158 16.5198 100.139 16.5726 100.143 16.5589C100.15 16.5361 100.185 16.4514 100.275 16.3585C100.318 16.3148 100.363 16.2797 100.406 16.2533C100.448 16.2273 100.481 16.214 100.498 16.2082C100.528 16.198 100.492 16.216 100.358 16.216V20.216C101.28 20.216 102.335 19.9762 103.14 19.1495C103.936 18.3325 104.158 17.2793 104.158 16.368H100.158ZM100.358 16.216C100.223 16.216 100.188 16.198 100.218 16.2082C100.235 16.214 100.268 16.2273 100.31 16.2533C100.353 16.2797 100.398 16.3148 100.44 16.3585C100.531 16.4514 100.565 16.5361 100.573 16.5589C100.577 16.5726 100.558 16.5198 100.558 16.368H96.5578C96.5578 17.2793 96.7794 18.3325 97.5751 19.1495C98.3803 19.9762 99.436 20.216 100.358 20.216V16.216ZM100.558 16.368V16.296H96.5578V16.368H100.558ZM96.788 15.3645C96.6764 15.5764 96.4935 15.7801 96.1418 15.9643L97.9978 19.5077C98.9901 18.9879 99.7992 18.2316 100.328 17.2275L96.788 15.3645ZM96.1242 15.9737C95.7804 16.1581 95.3811 16.264 94.8858 16.264V20.264C95.9905 20.264 97.0471 20.0179 98.0154 19.4983L96.1242 15.9737ZM95.9658 17.552C97.2901 17.552 98.4788 17.0374 99.3563 16.0136L96.3193 13.4104C96.2558 13.4844 96.2134 13.5072 96.191 13.5173C96.1665 13.5283 96.1023 13.552 95.9658 13.552V17.552ZM99.335 16.0381C100.298 14.9508 100.582 13.4981 100.582 12.096H96.5818C96.5818 13.0619 96.3696 13.3532 96.3406 13.3859L99.335 16.0381ZM100.582 12.096C100.582 10.7081 100.297 9.25693 99.3157 8.18049L96.3599 10.8755C96.3704 10.8871 96.5818 11.1479 96.5818 12.096H100.582ZM99.3563 8.22642C98.4788 7.20261 97.2901 6.688 95.9658 6.688V10.688C96.1023 10.688 96.1665 10.7117 96.191 10.7227C96.2134 10.7328 96.2558 10.7555 96.3193 10.8296L99.3563 8.22642ZM95.9658 6.688C94.6415 6.688 93.4528 7.20261 92.5753 8.22642L95.6123 10.8296C95.6758 10.7555 95.7182 10.7328 95.7406 10.7227C95.7651 10.7117 95.8293 10.688 95.9658 10.688V6.688ZM92.5941 8.20476C91.645 9.28038 91.3738 10.7209 91.3738 12.096H95.3738C95.3738 11.1351 95.5825 10.8636 95.5935 10.8512L92.5941 8.20476ZM91.3738 12.096C91.3738 13.4857 91.6445 14.9277 92.5753 16.0136L95.6123 13.4104C95.5831 13.3763 95.3738 13.0743 95.3738 12.096H91.3738ZM92.5753 16.0136C93.4528 17.0374 94.6415 17.552 95.9658 17.552V13.552C95.8293 13.552 95.7651 13.5283 95.7406 13.5173C95.7182 13.5072 95.6758 13.4844 95.6123 13.4104L92.5753 16.0136ZM107.47 17.52L106.553 19.2972L106.57 19.306L106.587 19.3145L107.47 17.52ZM105.166 15.384L103.428 16.373L103.438 16.3909L103.449 16.4086L105.166 15.384ZM105.142 8.928L103.404 7.93893L103.398 7.94893L105.142 8.928ZM107.278 6.768L108.271 8.50451L108.28 8.49885L107.278 6.768ZM114.502 7.608L113.035 8.96725L113.04 8.97267L113.045 8.97805L114.502 7.608ZM107.83 12.888V10.888H105.535L105.849 13.1613L107.83 12.888ZM108.838 14.928L107.594 16.4942L107.62 16.5143L107.646 16.5335L108.838 14.928ZM112.438 15.432L112.767 17.4048L112.793 17.4005L112.818 17.3956L112.438 15.432ZM113.854 14.952L112.985 13.1509L112.972 13.1569L112.96 13.1631L113.854 14.952ZM115.03 14.832L114.209 16.6558L114.248 16.6732L114.287 16.689L115.03 14.832ZM115.678 15.504L113.791 16.1647L113.805 16.2061L113.821 16.2468L115.678 15.504ZM115.678 16.512L113.799 15.8285L113.789 15.8539L113.781 15.8795L115.678 16.512ZM114.886 17.352L113.938 15.591L113.932 15.5943L114.886 17.352ZM113.014 18.024L112.604 16.0664L112.578 16.072L112.551 16.0784L113.014 18.024ZM108.694 9.072L107.304 7.63402L107.292 7.6458L107.28 7.65779L108.694 9.072ZM107.83 11.016L105.848 10.7492L105.543 13.016H107.83V11.016ZM113.014 11.016V13.016H115.126L115.011 10.9071L113.014 11.016ZM111.07 16.264C109.913 16.264 109.029 16.0579 108.353 15.7255L106.587 19.3145C107.928 19.9741 109.444 20.264 111.07 20.264V16.264ZM108.388 15.7428C107.71 15.3928 107.227 14.934 106.884 14.3594L103.449 16.4086C104.194 17.658 105.247 18.6232 106.553 19.2972L108.388 15.7428ZM106.905 14.395C106.575 13.8158 106.374 13.0802 106.374 12.12H102.374C102.374 13.6558 102.701 15.0962 103.428 16.373L106.905 14.395ZM106.374 12.12C106.374 11.1907 106.568 10.4746 106.886 9.90707L103.398 7.94893C102.693 9.20542 102.374 10.6173 102.374 12.12H106.374ZM106.881 9.91705C107.238 9.28925 107.697 8.83235 108.271 8.50449L106.286 5.03151C105.068 5.72765 104.103 6.71075 103.404 7.93895L106.881 9.91705ZM108.28 8.49885C108.852 8.16814 109.546 7.976 110.422 7.976V3.976C108.931 3.976 107.529 4.31185 106.276 5.03715L108.28 8.49885ZM110.422 7.976C111.672 7.976 112.465 8.35213 113.035 8.96725L115.969 6.24875C114.523 4.68787 112.597 3.976 110.422 3.976V7.976ZM113.045 8.97805C113.623 9.59217 114.014 10.5117 114.014 11.976H118.014C118.014 9.76027 117.398 7.76783 115.959 6.23795L113.045 8.97805ZM114.014 11.976C114.014 11.9255 114.022 11.7896 114.095 11.6127C114.173 11.4235 114.303 11.2437 114.475 11.1047C114.793 10.8475 115.045 10.888 114.886 10.888V14.888C115.48 14.888 116.295 14.7765 116.99 14.2153C117.765 13.5883 118.014 12.7141 118.014 11.976H114.014ZM114.886 10.888H107.83V14.888H114.886V10.888ZM105.849 13.1613C106.022 14.4175 106.524 15.6439 107.594 16.4942L110.082 13.3618C110.065 13.3481 109.894 13.2145 109.811 12.6147L105.849 13.1613ZM107.646 16.5335C108.664 17.29 109.904 17.552 111.142 17.552V13.552C110.429 13.552 110.132 13.398 110.031 13.3225L107.646 16.5335ZM111.142 17.552C111.661 17.552 112.206 17.4984 112.767 17.4048L112.109 13.4592C111.711 13.5256 111.392 13.552 111.142 13.552V17.552ZM112.818 17.3956C113.491 17.2653 114.137 17.0469 114.749 16.7409L112.96 13.1631C112.676 13.3051 112.377 13.4067 112.058 13.4684L112.818 17.3956ZM114.724 16.7531C114.807 16.7128 114.794 16.734 114.699 16.7437C114.589 16.7549 114.408 16.7453 114.209 16.6558L115.851 13.0082C114.778 12.5252 113.725 12.7933 112.985 13.1509L114.724 16.7531ZM114.287 16.689C114.213 16.6592 114.101 16.597 113.993 16.4843C113.883 16.3708 113.821 16.252 113.791 16.1647L117.566 14.8433C117.259 13.9676 116.619 13.3136 115.773 12.975L114.287 16.689ZM113.821 16.2468C113.793 16.1768 113.774 16.089 113.774 15.996C113.774 15.9057 113.792 15.8466 113.799 15.8285L117.558 17.1955C117.838 16.4249 117.862 15.5789 117.535 14.7612L113.821 16.2468ZM113.781 15.8795C113.825 15.7486 113.891 15.6549 113.941 15.602C113.985 15.5552 113.999 15.5584 113.938 15.5911L115.834 19.1129C116.546 18.73 117.255 18.107 117.576 17.1445L113.781 15.8795ZM113.932 15.5943C113.559 15.7966 113.122 15.9582 112.604 16.0664L113.424 19.9816C114.283 19.8018 115.093 19.5154 115.84 19.1097L113.932 15.5943ZM112.551 16.0784C112.015 16.2061 111.523 16.264 111.07 16.264V20.264C111.866 20.264 112.67 20.1619 113.477 19.9696L112.551 16.0784ZM110.566 6.376C109.364 6.376 108.214 6.75499 107.304 7.63402L110.084 10.51C110.135 10.461 110.233 10.376 110.566 10.376V6.376ZM107.28 7.65779C106.429 8.50899 106.002 9.60529 105.848 10.7492L109.812 11.2828C109.882 10.7627 110.032 10.563 110.108 10.4862L107.28 7.65779ZM107.83 13.016H113.014V9.016H107.83V13.016ZM115.011 10.9071C114.949 9.773 114.642 8.58716 113.797 7.67612C112.911 6.72081 111.726 6.376 110.566 6.376V10.376C110.763 10.376 110.856 10.4044 110.882 10.4142C110.899 10.4202 110.881 10.4149 110.864 10.3959C110.835 10.3648 110.983 10.499 111.017 11.1249L115.011 10.9071ZM121.674 7.944H119.674V14.9176L123.37 9.004L121.674 7.944ZM123.282 6.48L124.177 8.26885L123.282 6.48ZM128.658 7.2L127.129 8.48919L127.135 8.49667L127.142 8.50408L128.658 7.2ZM126.522 17.736L125.072 19.1135L125.09 19.1321L125.108 19.1502L126.522 17.736ZM125.61 9.336L124.068 10.6098L124.082 10.6267L124.096 10.6432L125.61 9.336ZM122.418 9.504L120.98 8.11396L120.968 8.12655L120.956 8.13936L122.418 9.504ZM119.946 16.216C119.805 16.216 119.764 16.1975 119.788 16.2056C119.802 16.2104 119.833 16.2225 119.874 16.2471C119.915 16.2722 119.959 16.3061 120.002 16.3491C120.044 16.392 120.076 16.4358 120.099 16.475C120.122 16.5135 120.133 16.5413 120.136 16.5515C120.141 16.5677 120.122 16.5175 120.122 16.368H116.122C116.122 17.2858 116.349 18.3427 117.155 19.1589C117.965 19.98 119.023 20.216 119.946 20.216V16.216ZM120.122 16.368V7.848H116.122V16.368H120.122ZM120.122 7.848C120.122 7.70017 120.141 7.65081 120.135 7.66742C120.127 7.69309 120.091 7.78035 119.999 7.87523C119.906 7.97126 119.812 8.01542 119.769 8.03019C119.736 8.04144 119.767 8.024 119.898 8.024V4.024C118.984 4.024 117.934 4.2619 117.133 5.08477C116.342 5.89774 116.122 6.94489 116.122 7.848H120.122ZM119.898 8.024C120.029 8.024 120.06 8.04144 120.027 8.03019C119.984 8.01542 119.891 7.97126 119.797 7.87523C119.705 7.78035 119.669 7.69309 119.661 7.66742C119.655 7.65081 119.674 7.70017 119.674 7.848H123.674C123.674 6.94489 123.455 5.89774 122.663 5.08477C121.862 4.2619 120.812 4.024 119.898 4.024V8.024ZM119.674 7.848V7.944H123.674V7.848H119.674ZM123.37 9.004C123.576 8.67457 123.835 8.43949 124.177 8.26885L122.388 4.69114C121.385 5.19251 120.572 5.93342 119.978 6.884L123.37 9.004ZM124.177 8.26885C124.542 8.08607 124.983 7.976 125.538 7.976V3.976C124.429 3.976 123.366 4.20193 122.388 4.69115L124.177 8.26885ZM125.538 7.976C126.533 7.976 126.93 8.25254 127.129 8.48919L130.187 5.91081C129.011 4.51546 127.328 3.976 125.538 3.976V7.976ZM127.142 8.50408C127.379 8.77996 127.69 9.45107 127.69 10.92H131.69C131.69 9.02893 131.313 7.22004 130.174 5.89592L127.142 8.50408ZM127.69 10.92V16.368H131.69V10.92H127.69ZM127.69 16.368C127.69 16.5175 127.671 16.5677 127.676 16.5515C127.68 16.5413 127.69 16.5135 127.713 16.475C127.736 16.4358 127.768 16.392 127.811 16.3491C127.853 16.3061 127.897 16.2722 127.939 16.2471C127.979 16.2225 128.01 16.2104 128.024 16.2056C128.048 16.1975 128.007 16.216 127.866 16.216V20.216C128.789 20.216 129.847 19.98 130.658 19.1589C131.463 18.3427 131.69 17.2858 131.69 16.368H127.69ZM127.866 16.216C127.761 16.216 127.739 16.2011 127.771 16.2125C127.787 16.2185 127.814 16.23 127.846 16.25C127.878 16.2702 127.909 16.2947 127.936 16.3218L125.108 19.1502C125.898 19.9406 126.912 20.216 127.866 20.216V16.216ZM127.972 16.3585C128.003 16.3912 128.028 16.4254 128.047 16.4572C128.065 16.4886 128.074 16.5119 128.077 16.5215C128.083 16.5384 128.066 16.4969 128.066 16.368H124.066C124.066 17.2937 124.308 18.3097 125.072 19.1135L127.972 16.3585ZM128.066 16.368V11.088H124.066V16.368H128.066ZM128.066 11.088C128.066 10.1199 127.904 8.93251 127.124 8.02876L124.096 10.6432C123.998 10.5288 123.996 10.4613 124.017 10.5418C124.038 10.6231 124.066 10.7946 124.066 11.088H128.066ZM127.152 8.06224C126.378 7.12581 125.298 6.784 124.266 6.784V10.784C124.358 10.784 124.351 10.7984 124.286 10.772C124.254 10.7587 124.214 10.7376 124.172 10.7068C124.13 10.6759 124.095 10.642 124.068 10.6098L127.152 8.06224ZM124.266 6.784C123.045 6.784 121.879 7.18454 120.98 8.11396L123.856 10.894C123.886 10.8635 123.951 10.784 124.266 10.784V6.784ZM120.956 8.13936C120.09 9.06697 119.746 10.234 119.746 11.424H123.746C123.746 11.014 123.85 10.901 123.88 10.8686L120.956 8.13936ZM119.746 11.424V16.368H123.746V11.424H119.746ZM119.746 16.368C119.746 16.5198 119.727 16.5726 119.731 16.5589C119.739 16.5361 119.773 16.4514 119.863 16.3585C119.906 16.3148 119.951 16.2797 119.994 16.2533C120.036 16.2273 120.069 16.214 120.086 16.2082C120.116 16.198 120.081 16.216 119.946 16.216V20.216C120.868 20.216 121.924 19.9762 122.729 19.1495C123.525 18.3325 123.746 17.2793 123.746 16.368H119.746Z" fill="#5B3511"/>
</g>
<defs>
<filter id="filter0_d_42_550" x="0.253784" y="0.815918" width="130.436" height="24.72" filterUnits="userSpaceOnUse" color-interpolation-filters="sRGB">
<feFlood flood-opacity="0" result="BackgroundImageFix"/>
<feColorMatrix in="SourceAlpha" type="matrix" values="0 0 0 0 0 0 0 0 0 0 0 0 0 0 0 0 0 0 127 0" result="hardAlpha"/>
<feOffset dy="2"/>
<feGaussianBlur stdDeviation="0.5"/>
<feComposite in2="hardAlpha" operator="out"/>
<feColorMatrix type="matrix" values="0 0 0 0 0 0 0 0 0 0 0 0 0 0 0 0 0 0 0.25 0"/>
<feBlend mode="normal" in2="BackgroundImageFix" result="effect1_dropShadow_42_550"/>
<feBlend mode="normal" in="SourceGraphic" in2="effect1_dropShadow_42_550" result="shape"/>
</filter>
<linearGradient id="paint0_linear_42_550" x1="65.6246" y1="-3" x2="65.6246" y2="23" gradientUnits="userSpaceOnUse">
<stop stop-color="#FDE092"/>
<stop offset="1" stop-color="#C18B2C"/>
</linearGradient>
</defs>
</svg>
