<svg width="64" height="25" viewBox="0 0 64 25" fill="none" xmlns="http://www.w3.org/2000/svg">
<g filter="url(#filter0_d_232_125)">
<path d="M8.08013 18.264C7.05613 18.264 6.03213 18.152 5.00813 17.928C3.98413 17.704 3.09613 17.376 2.34413 16.944C1.89613 16.704 1.61613 16.384 1.50413 15.984C1.39213 15.568 1.41613 15.168 1.57613 14.784C1.73613 14.4 1.99213 14.128 2.34413 13.968C2.69613 13.808 3.12013 13.848 3.61613 14.088C4.25613 14.456 4.96813 14.728 5.75213 14.904C6.53613 15.08 7.31213 15.168 8.08013 15.168C9.23213 15.168 10.0561 14.992 10.5521 14.64C11.0641 14.272 11.3201 13.816 11.3201 13.272C11.3201 12.808 11.1441 12.44 10.7921 12.168C10.4401 11.896 9.82413 11.664 8.94413 11.472L6.23213 10.896C3.20813 10.256 1.69613 8.688 1.69613 6.192C1.69613 5.12 1.98413 4.184 2.56013 3.384C3.13613 2.568 3.93613 1.936 4.96013 1.488C6.00013 1.04 7.20013 0.816 8.56013 0.816C9.45613 0.816 10.3361 0.927999 11.2001 1.152C12.0641 1.36 12.8241 1.672 13.4801 2.088C13.8801 2.328 14.1281 2.64 14.2241 3.024C14.3201 3.408 14.2881 3.776 14.1281 4.128C13.9841 4.48 13.7281 4.728 13.3601 4.872C13.0081 5.016 12.5681 4.96 12.0401 4.704C11.5121 4.432 10.9521 4.232 10.3601 4.104C9.76813 3.976 9.16013 3.912 8.53613 3.912C7.52813 3.912 6.74413 4.112 6.18413 4.512C5.64013 4.896 5.36813 5.4 5.36813 6.024C5.36813 6.488 5.53613 6.864 5.87213 7.152C6.20813 7.44 6.79213 7.672 7.62413 7.848L10.3361 8.424C13.4401 9.096 14.9921 10.616 14.9921 12.984C14.9921 14.04 14.7041 14.968 14.1281 15.768C13.5681 16.552 12.7681 17.168 11.7281 17.616C10.7041 18.048 9.48813 18.264 8.08013 18.264ZM22.7151 18.264C19.4031 18.264 17.7471 16.656 17.7471 13.44V8.928H16.7391C15.7951 8.928 15.3231 8.48 15.3231 7.584C15.3231 6.672 15.7951 6.216 16.7391 6.216H17.7471V4.392C17.7471 3.16 18.3551 2.544 19.5711 2.544C20.7711 2.544 21.3711 3.16 21.3711 4.392V6.216H23.6511C24.5791 6.216 25.0431 6.672 25.0431 7.584C25.0431 8.48 24.5791 8.928 23.6511 8.928H21.3711V13.296C21.3711 13.968 21.5231 14.472 21.8271 14.808C22.1471 15.144 22.6511 15.312 23.3391 15.312C23.5791 15.312 23.8031 15.288 24.0111 15.24C24.2191 15.192 24.4111 15.16 24.5871 15.144C24.8111 15.128 24.9951 15.2 25.1391 15.36C25.2831 15.52 25.3551 15.848 25.3551 16.344C25.3551 16.744 25.2911 17.088 25.1631 17.376C25.0351 17.648 24.8111 17.848 24.4911 17.976C24.2831 18.056 23.9951 18.12 23.6271 18.168C23.2751 18.232 22.9711 18.264 22.7151 18.264ZM32.181 18.264C30.917 18.264 29.813 18.016 28.869 17.52C27.941 17.008 27.221 16.296 26.709 15.384C26.197 14.456 25.941 13.36 25.941 12.096C25.941 10.848 26.197 9.768 26.709 8.856C27.221 7.928 27.941 7.216 28.869 6.72C29.813 6.224 30.917 5.976 32.181 5.976C33.445 5.976 34.541 6.224 35.469 6.72C36.413 7.216 37.141 7.928 37.653 8.856C38.181 9.768 38.445 10.848 38.445 12.096C38.445 13.36 38.181 14.456 37.653 15.384C37.141 16.296 36.413 17.008 35.469 17.52C34.541 18.016 33.445 18.264 32.181 18.264ZM32.181 15.552C32.949 15.552 33.573 15.272 34.053 14.712C34.549 14.152 34.797 13.28 34.797 12.096C34.797 10.928 34.549 10.072 34.053 9.528C33.573 8.968 32.949 8.688 32.181 8.688C31.413 8.688 30.789 8.968 30.309 9.528C29.829 10.072 29.589 10.928 29.589 12.096C29.589 13.28 29.829 14.152 30.309 14.712C30.789 15.272 31.413 15.552 32.181 15.552ZM42.5218 18.216C41.2738 18.216 40.6498 17.6 40.6498 16.368V7.848C40.6498 6.632 41.2418 6.024 42.4258 6.024C43.6098 6.024 44.2018 6.632 44.2018 7.848V8.28C44.7778 6.856 45.9698 6.088 47.7778 5.976C48.1778 5.944 48.4818 6.048 48.6898 6.288C48.9138 6.512 49.0338 6.888 49.0498 7.416C49.0818 7.912 48.9778 8.304 48.7378 8.592C48.5138 8.88 48.1298 9.056 47.5858 9.12L47.0338 9.168C45.2418 9.344 44.3458 10.256 44.3458 11.904V16.368C44.3458 17.6 43.7378 18.216 42.5218 18.216ZM54.483 22.536C53.843 22.536 53.387 22.296 53.115 21.816C52.859 21.352 52.875 20.808 53.163 20.184L54.435 17.352L50.523 8.376C50.267 7.752 50.267 7.208 50.523 6.744C50.795 6.264 51.331 6.024 52.131 6.024C52.563 6.024 52.907 6.128 53.163 6.336C53.435 6.528 53.683 6.904 53.907 7.464L56.355 13.704L58.899 7.44C59.123 6.896 59.371 6.528 59.643 6.336C59.931 6.128 60.315 6.024 60.795 6.024C61.403 6.024 61.827 6.264 62.067 6.744C62.323 7.208 62.315 7.744 62.043 8.352L56.403 21.144C56.163 21.688 55.891 22.056 55.587 22.248C55.299 22.44 54.931 22.536 54.483 22.536Z" fill="url(#paint0_linear_232_125)"/>
<path d="M2.34413 16.944L3.09131 15.6433L3.07204 15.6323L3.05246 15.6218L2.34413 16.944ZM1.50413 15.984L0.0557014 16.374L0.0576539 16.3812L0.059679 16.3884L1.50413 15.984ZM1.57613 14.784L0.19151 14.2071L1.57613 14.784ZM2.34413 13.968L1.72342 12.6024H1.72342L2.34413 13.968ZM3.61613 14.088L4.36383 12.7876L4.31754 12.761L4.26947 12.7378L3.61613 14.088ZM5.75213 14.904L6.08068 13.4404H6.08068L5.75213 14.904ZM10.5521 14.64L11.4203 15.8633L11.4276 15.858L10.5521 14.64ZM10.7921 12.168L9.87495 13.3549H9.87495L10.7921 12.168ZM8.94413 11.472L9.26388 10.0065L9.25576 10.0047L8.94413 11.472ZM6.23213 10.896L6.54376 9.42873L6.54271 9.42851L6.23213 10.896ZM2.56013 3.384L3.77748 4.26049L3.78558 4.24902L2.56013 3.384ZM4.96012 1.488L4.36668 0.110358L4.3589 0.113763L4.96012 1.488ZM11.2001 1.152L10.8237 2.60399L10.8363 2.60728L10.849 2.61034L11.2001 1.152ZM13.4801 2.088L12.6768 3.35476L12.6925 3.36469L12.7084 3.37424L13.4801 2.088ZM14.2241 3.024L15.6793 2.6602L15.6793 2.66019L14.2241 3.024ZM14.1281 4.128L12.7626 3.5073L12.7507 3.53345L12.7398 3.56005L14.1281 4.128ZM13.3601 4.872L12.8135 3.47513L12.8028 3.47932L12.7922 3.48368L13.3601 4.872ZM12.0401 4.704L11.3532 6.03746L11.3694 6.04579L11.3857 6.05372L12.0401 4.704ZM10.3601 4.104L10.6771 2.63788H10.6771L10.3601 4.104ZM6.18413 4.512L7.04916 5.73747L7.05598 5.7326L6.18413 4.512ZM7.62413 7.848L7.93576 6.38073L7.93456 6.38048L7.62413 7.848ZM10.3361 8.424L10.6535 6.95795L10.6478 6.95673L10.3361 8.424ZM14.1281 15.768L12.9108 14.8915L12.9075 14.8961L14.1281 15.768ZM11.7281 17.616L12.3112 18.9981L12.3216 18.9936L11.7281 17.616ZM8.08013 16.764C7.16643 16.764 6.24987 16.6642 5.32867 16.4627L4.68758 19.3934C5.81438 19.6398 6.94582 19.764 8.08013 19.764V16.764ZM5.32867 16.4627C4.4243 16.2648 3.68599 15.985 3.09131 15.6433L1.59694 18.2447C2.50626 18.767 3.54395 19.1432 4.68758 19.3934L5.32867 16.4627ZM3.05246 15.6218C2.95732 15.5708 2.92738 15.5367 2.92699 15.5362C2.92687 15.5361 2.93138 15.5414 2.93703 15.5517C2.94273 15.5622 2.94654 15.5723 2.94857 15.5796L0.059679 16.3884C0.305672 17.267 0.913864 17.8795 1.63579 18.2662L3.05246 15.6218ZM2.95255 15.594C2.92352 15.4862 2.9332 15.427 2.96074 15.3609L0.19151 14.2071C-0.10095 14.909 -0.139273 15.6498 0.0557014 16.374L2.95255 15.594ZM2.96074 15.3609C2.97026 15.3381 2.97763 15.3255 2.98089 15.3203C2.984 15.3154 2.9841 15.3161 2.98043 15.32C2.97665 15.3241 2.97181 15.3283 2.96694 15.3318C2.96216 15.3352 2.9607 15.3354 2.96483 15.3335L1.72342 12.6024C0.998659 12.9319 0.485231 13.5021 0.19151 14.2071L2.96074 15.3609ZM2.96483 15.3335C2.92635 15.351 2.88696 15.3623 2.85086 15.3679C2.81555 15.3733 2.79224 15.372 2.78524 15.3714C2.77903 15.3708 2.79016 15.3712 2.82088 15.3805C2.85179 15.3899 2.8988 15.4073 2.96278 15.4382L4.26947 12.7378C3.54939 12.3893 2.63167 12.1896 1.72342 12.6024L2.96483 15.3335ZM2.86842 15.3884C3.65015 15.8379 4.50538 16.1614 5.42357 16.3676L6.08068 13.4404C5.43087 13.2945 4.8621 13.0741 4.36383 12.7876L2.86842 15.3884ZM5.42357 16.3676C6.31044 16.5667 7.19661 16.668 8.08013 16.668V13.668C7.42764 13.668 6.76181 13.5933 6.08068 13.4404L5.42357 16.3676ZM8.08013 16.668C9.30576 16.668 10.5286 16.496 11.4202 15.8633L9.68401 13.4167C9.58361 13.488 9.15849 13.668 8.08013 13.668V16.668ZM11.4276 15.858C12.2602 15.2595 12.8201 14.3806 12.8201 13.272H9.82013C9.82013 13.2893 9.81823 13.2944 9.81899 13.2915C9.81982 13.2882 9.82104 13.2861 9.82015 13.2877C9.81905 13.2896 9.7909 13.3399 9.67667 13.422L11.4276 15.858ZM12.8201 13.272C12.8201 12.3668 12.4469 11.5511 11.7093 10.9811L9.87495 13.3549C9.88093 13.3595 9.87605 13.3567 9.86607 13.3446C9.85575 13.3321 9.84445 13.3151 9.83492 13.2952C9.82547 13.2754 9.82118 13.2599 9.8196 13.2524C9.81815 13.2456 9.82013 13.2509 9.82013 13.272H12.8201ZM11.7093 10.9811C11.0787 10.4938 10.183 10.207 9.26388 10.0065L8.62438 12.9375C9.46522 13.121 9.80152 13.2982 9.87495 13.3549L11.7093 10.9811ZM9.25576 10.0047L6.54376 9.42873L5.92049 12.3633L8.63249 12.9393L9.25576 10.0047ZM6.54271 9.42851C5.206 9.1456 4.3875 8.69409 3.90989 8.1988C3.46315 7.73551 3.19613 7.11278 3.19613 6.192H0.196125C0.196125 7.76722 0.685104 9.17649 1.75036 10.2812C2.78475 11.3539 4.23425 12.0064 5.92154 12.3635L6.54271 9.42851ZM3.19613 6.192C3.19613 5.40558 3.40147 4.78261 3.77743 4.26046L1.34282 2.50754C0.566776 3.58539 0.196125 4.83442 0.196125 6.192H3.19613ZM3.78558 4.24902C4.18561 3.68232 4.75735 3.21399 5.56135 2.86224L4.3589 0.113763C3.1149 0.65801 2.08665 1.45368 1.33467 2.51897L3.78558 4.24902ZM5.55356 2.86562C6.37243 2.51287 7.364 2.316 8.56013 2.316V-0.684C7.03626 -0.684 5.62782 -0.432875 4.36669 0.110381L5.55356 2.86562ZM8.56013 2.316C9.32961 2.316 10.0831 2.41199 10.8237 2.60399L11.5766 -0.299996C10.5891 -0.555994 9.58264 -0.684 8.56013 -0.684V2.316ZM10.849 2.61034C11.5755 2.78523 12.1785 3.03873 12.6768 3.35476L14.2834 0.821235C13.4698 0.305268 12.5527 -0.0652266 11.5512 -0.306336L10.849 2.61034ZM12.7084 3.37424C12.7799 3.41717 12.7971 3.44193 12.7919 3.43537C12.7895 3.43232 12.7843 3.42502 12.7789 3.41413C12.7735 3.40321 12.7704 3.39369 12.7689 3.38781L15.6793 2.66019C15.4698 1.82193 14.9275 1.20711 14.2519 0.801761L12.7084 3.37424ZM12.7689 3.3878C12.7795 3.4301 12.7784 3.45115 12.7778 3.45805C12.7772 3.46451 12.7754 3.47906 12.7626 3.5073L15.4937 4.7487C15.7975 4.08026 15.8554 3.36462 15.6793 2.6602L12.7689 3.3878ZM12.7398 3.56005C12.7396 3.5606 12.7427 3.553 12.7511 3.54045C12.7596 3.52767 12.7709 3.51376 12.7844 3.50064C12.8141 3.47191 12.8325 3.46772 12.8135 3.47513L13.9067 6.26886C14.6401 5.9819 15.2104 5.44413 15.5164 4.69595L12.7398 3.56005ZM12.7922 3.48368C12.8389 3.46457 12.8814 3.4553 12.914 3.45167C12.9455 3.44818 12.9608 3.45068 12.9555 3.45C12.9496 3.44925 12.9251 3.44543 12.8798 3.43083C12.8345 3.41622 12.773 3.39233 12.6945 3.35428L11.3857 6.05372C12.0903 6.39532 13.0098 6.63598 13.9281 6.26032L12.7922 3.48368ZM12.7271 3.37054C12.0798 3.0371 11.3952 2.79313 10.6771 2.63788L10.0431 5.57012C10.5091 5.67087 10.9445 5.8269 11.3532 6.03746L12.7271 3.37054ZM10.6771 2.63788C9.97785 2.48668 9.26347 2.412 8.53613 2.412V5.412C9.05678 5.412 9.5584 5.46531 10.0431 5.57012L10.6771 2.63788ZM8.53613 2.412C7.35409 2.412 6.22004 2.64299 5.31227 3.2914L7.05598 5.7326C7.26821 5.58101 7.70216 5.412 8.53613 5.412V2.412ZM5.3191 3.28655C4.40838 3.92941 3.86813 4.87534 3.86813 6.024H6.86812C6.86812 5.9379 6.88466 5.90429 6.89216 5.8904C6.90156 5.87298 6.93565 5.81757 7.04915 5.73745L5.3191 3.28655ZM3.86813 6.024C3.86813 6.90163 4.20949 7.7025 4.89594 8.29088L6.84831 6.01311C6.84026 6.00621 6.84117 6.00568 6.84642 6.0126C6.84891 6.01588 6.85192 6.02024 6.85508 6.02557C6.85825 6.03091 6.86114 6.0365 6.86364 6.04209C6.86613 6.04767 6.86789 6.05247 6.86905 6.05615C6.8702 6.05979 6.87056 6.06166 6.8705 6.06133C6.8704 6.06083 6.86812 6.04934 6.86812 6.024H3.86813ZM4.89594 8.29088C5.52886 8.83339 6.42348 9.12721 7.31369 9.31552L7.93456 6.38048C7.57466 6.30434 7.307 6.22388 7.11592 6.14797C7.02181 6.11059 6.9545 6.07754 6.90871 6.05166C6.86257 6.02557 6.84598 6.01112 6.84831 6.01311L4.89594 8.29088ZM7.31249 9.31527L10.0245 9.89127L10.6478 6.95673L7.93576 6.38073L7.31249 9.31527ZM10.0187 9.89004C11.4147 10.1923 12.2774 10.6488 12.7786 11.1397C13.239 11.5906 13.4921 12.1631 13.4921 12.984H16.4921C16.4921 11.4369 15.9692 10.0654 14.8777 8.99635C13.8268 7.96715 12.3616 7.32775 10.6535 6.95796L10.0187 9.89004ZM13.4921 12.984C13.4921 13.7491 13.2896 14.3654 12.9108 14.8915L15.3454 16.6445C16.1186 15.5706 16.4921 14.3309 16.4921 12.984H13.4921ZM12.9075 14.8961C12.5326 15.4211 11.968 15.8794 11.1347 16.2384L12.3216 18.9936C13.5683 18.4566 14.6037 17.6829 15.3487 16.6399L12.9075 14.8961ZM11.1451 16.234C10.3477 16.5703 9.33929 16.764 8.08013 16.764V19.764C9.63696 19.764 11.0605 19.5257 12.3112 18.998L11.1451 16.234ZM17.7471 8.928H19.2471V7.428H17.7471V8.928ZM17.7471 6.216V7.716H19.2471V6.216H17.7471ZM21.3711 6.216H19.8711V7.716H21.3711V6.216ZM21.3711 8.928V7.428H19.8711V8.928H21.3711ZM21.8271 14.808L20.7148 15.8144L20.7276 15.8286L20.7409 15.8425L21.8271 14.808ZM24.0111 15.24L24.3484 16.7016V16.7016L24.0111 15.24ZM24.5871 15.144L24.4802 13.6478L24.4657 13.6488L24.4513 13.6502L24.5871 15.144ZM25.1391 15.36L24.0241 16.3634L24.0241 16.3634L25.1391 15.36ZM25.1631 17.376L26.5203 18.0147L26.5272 18L26.5338 17.9852L25.1631 17.376ZM24.4911 17.976L25.0295 19.376L25.0389 19.3724L25.0481 19.3687L24.4911 17.976ZM23.6271 18.168L23.4331 16.6806L23.3957 16.6855L23.3587 16.6922L23.6271 18.168ZM22.7151 16.764C21.2794 16.764 20.4802 16.4151 20.034 15.9819C19.596 15.5566 19.2471 14.8054 19.2471 13.44H16.2471C16.2471 15.2906 16.7261 16.9514 17.9441 18.1341C19.1539 19.3089 20.8387 19.764 22.7151 19.764V16.764ZM19.2471 13.44V8.928H16.2471V13.44H19.2471ZM17.7471 7.428H16.7391V10.428H17.7471V7.428ZM16.7391 7.428C16.617 7.428 16.5692 7.41298 16.572 7.41387C16.5812 7.41676 16.6409 7.43873 16.7097 7.50404C16.7423 7.53497 16.7693 7.56856 16.7901 7.6015C16.8106 7.63397 16.8216 7.66019 16.8268 7.67497C16.8363 7.70184 16.8231 7.6805 16.8231 7.584H13.8231C13.8231 8.28377 14.0112 9.07898 14.6444 9.67996C15.2629 10.267 16.0548 10.428 16.7391 10.428V7.428ZM16.8231 7.584C16.8231 7.48108 16.8369 7.45345 16.8295 7.47474C16.8254 7.48679 16.8156 7.51087 16.7964 7.54175C16.777 7.57314 16.7512 7.606 16.7193 7.63679C16.6875 7.66749 16.6557 7.69028 16.6284 7.70611C16.6017 7.72161 16.5836 7.72793 16.5794 7.72929C16.574 7.73101 16.6192 7.716 16.7391 7.716V4.716C16.0486 4.716 15.2529 4.88215 14.6348 5.47921C14.0072 6.08557 13.8231 6.88338 13.8231 7.584H16.8231ZM16.7391 7.716H17.7471V4.716H16.7391V7.716ZM19.2471 6.216V4.392H16.2471V6.216H19.2471ZM19.2471 4.392C19.2471 4.00232 19.3428 3.98654 19.2706 4.0597C19.1949 4.13648 19.1993 4.044 19.5711 4.044V1.044C18.7268 1.044 17.8193 1.25952 17.1355 1.95229C16.4553 2.64146 16.2471 3.54968 16.2471 4.392H19.2471ZM19.5711 4.044C19.7471 4.044 19.839 4.06709 19.8729 4.07869C19.8991 4.08766 19.8777 4.0846 19.8465 4.05261C19.7747 3.9789 19.8711 3.99746 19.8711 4.392H22.8711C22.8711 3.55454 22.6674 2.6491 21.9956 1.95939C21.3167 1.26235 20.4124 1.044 19.5711 1.044V4.044ZM19.8711 4.392V6.216H22.8711V4.392H19.8711ZM21.3711 7.716H23.6511V4.716H21.3711V7.716ZM23.6511 7.716C23.7648 7.716 23.8039 7.7305 23.7931 7.72696C23.7862 7.72469 23.7659 7.71725 23.7374 7.70047C23.7084 7.68337 23.6758 7.65939 23.6437 7.62784C23.6115 7.59626 23.586 7.56305 23.5671 7.532C23.5484 7.50147 23.5392 7.47817 23.5355 7.46731C23.5292 7.4485 23.5431 7.4788 23.5431 7.584H26.5431C26.5431 6.89011 26.3646 6.09567 25.7465 5.48816C25.1331 4.88538 24.3398 4.716 23.6511 4.716V7.716ZM23.5431 7.584C23.5431 7.68284 23.5298 7.70687 23.5382 7.68249C23.5429 7.6689 23.5533 7.64342 23.5733 7.61128C23.5936 7.57863 23.6203 7.54466 23.6532 7.5129C23.7229 7.44557 23.7856 7.42092 23.8005 7.41613C23.8088 7.41347 23.767 7.428 23.6511 7.428V10.428C24.3334 10.428 25.1229 10.264 25.737 9.6711C26.3608 9.06879 26.5431 8.27686 26.5431 7.584H23.5431ZM23.6511 7.428H21.3711V10.428H23.6511V7.428ZM19.8711 8.928V13.296H22.8711V8.928H19.8711ZM19.8711 13.296C19.8711 14.1642 20.0642 15.0953 20.7148 15.8144L22.9394 13.8016C22.9819 13.8487 22.8711 13.7718 22.8711 13.296H19.8711ZM20.7409 15.8425C21.4565 16.5939 22.4388 16.812 23.3391 16.812V13.812C23.1113 13.812 22.9809 13.7835 22.9194 13.763C22.866 13.7452 22.881 13.7397 22.9133 13.7735L20.7409 15.8425ZM23.3391 16.812C23.6788 16.812 24.017 16.778 24.3484 16.7016L23.6738 13.7784C23.5891 13.798 23.4793 13.812 23.3391 13.812V16.812ZM24.3484 16.7016C24.5031 16.6659 24.6269 16.6466 24.7229 16.6378L24.4513 13.6502C24.1952 13.6734 23.935 13.7181 23.6738 13.7784L24.3484 16.7016ZM24.6939 16.6402C24.6139 16.6459 24.4889 16.6386 24.3465 16.5829C24.202 16.5263 24.0941 16.4412 24.0241 16.3634L26.254 14.3566C25.7853 13.8357 25.1424 13.6005 24.4802 13.6478L24.6939 16.6402ZM24.0241 16.3634C23.9323 16.2614 23.8843 16.1692 23.8619 16.1186C23.8395 16.0679 23.8342 16.0398 23.8359 16.0476C23.8374 16.0542 23.8426 16.0812 23.8473 16.1341C23.8518 16.1861 23.8551 16.2553 23.8551 16.344H26.8551C26.8551 16.0339 26.8335 15.7111 26.7662 15.4044C26.7029 15.116 26.5709 14.7087 26.254 14.3566L24.0241 16.3634ZM23.8551 16.344C23.8551 16.5886 23.8154 16.7148 23.7923 16.7668L26.5338 17.9852C26.7667 17.4612 26.8551 16.8994 26.8551 16.344H23.8551ZM23.8058 16.7373C23.8276 16.691 23.8614 16.6456 23.9 16.6111C23.936 16.579 23.9555 16.5747 23.934 16.5833L25.0481 19.3687C25.6652 19.1219 26.2069 18.6807 26.5203 18.0147L23.8058 16.7373ZM23.9526 16.576C23.9045 16.5945 23.75 16.6393 23.4331 16.6806L23.8211 19.6554C24.2401 19.6007 24.6616 19.5175 25.0295 19.376L23.9526 16.576ZM23.3587 16.6922C23.0633 16.7459 22.8535 16.764 22.7151 16.764V19.764C23.0886 19.764 23.4868 19.7181 23.8954 19.6438L23.3587 16.6922ZM28.869 17.52L28.1444 18.8334L28.1578 18.8408L28.1713 18.8479L28.869 17.52ZM26.709 15.384L25.3956 16.1086L25.401 16.1183L26.709 15.384ZM26.709 8.856L28.017 9.59032L28.0224 9.58062L26.709 8.856ZM28.869 6.72L28.1713 5.3921L28.1619 5.3971L28.869 6.72ZM35.469 6.72L34.7619 8.04293L34.7713 8.04786L35.469 6.72ZM37.653 8.856L36.3396 9.58062L36.3471 9.59416L36.3549 9.60755L37.653 8.856ZM37.653 15.384L36.3492 14.6422L36.345 14.6497L37.653 15.384ZM35.469 17.52L36.1761 18.8429L36.1841 18.8385L35.469 17.52ZM34.053 14.712L32.9301 13.7174L32.922 13.7266L32.9141 13.7358L34.053 14.712ZM34.053 9.528L32.9141 10.5042L32.9291 10.5216L32.9446 10.5386L34.053 9.528ZM30.309 9.528L31.4338 10.5204L31.4409 10.5124L31.4479 10.5042L30.309 9.528ZM30.309 14.712L31.4479 13.7358L30.309 14.712ZM32.181 16.764C31.1152 16.764 30.259 16.5559 29.5667 16.1921L28.1713 18.8479C29.367 19.4761 30.7188 19.764 32.181 19.764V16.764ZM29.5936 16.2066C28.9067 15.8277 28.3903 15.3147 28.017 14.6497L25.401 16.1183C26.0517 17.2773 26.9753 18.1883 28.1444 18.8334L29.5936 16.2066ZM28.0224 14.6594C27.6544 13.9924 27.441 13.1553 27.441 12.096H24.441C24.441 13.5647 24.7396 14.9196 25.3956 16.1086L28.0224 14.6594ZM27.441 12.096C27.441 11.0555 27.6532 10.2383 28.017 9.5903L25.401 8.1217C24.7408 9.29765 24.441 10.6405 24.441 12.096H27.441ZM28.0224 9.58062C28.3954 8.90448 28.9057 8.4012 29.5761 8.0429L28.1619 5.3971C26.9763 6.0308 26.0466 6.95152 25.3956 8.13138L28.0224 9.58062ZM29.5667 8.04786C30.259 7.68412 31.1152 7.476 32.181 7.476V4.476C30.7188 4.476 29.367 4.76388 28.1713 5.39213L29.5667 8.04786ZM32.181 7.476C33.2477 7.476 34.0912 7.6844 34.7619 8.0429L36.1761 5.3971C34.9908 4.7636 33.6423 4.476 32.181 4.476V7.476ZM34.7713 8.04786C35.4572 8.40824 35.9703 8.91128 36.3396 9.58062L38.9664 8.13138C38.3117 6.94472 37.3688 6.02376 36.1667 5.39213L34.7713 8.04786ZM36.3549 9.60755C36.7281 10.2523 36.945 11.063 36.945 12.096H39.945C39.945 10.633 39.6339 9.28373 38.9511 8.10445L36.3549 9.60755ZM36.945 12.096C36.945 13.1479 36.7268 13.9786 36.3493 14.6422L38.9567 16.1258C39.6352 14.9334 39.945 13.5721 39.945 12.096H36.945ZM36.345 14.6497C35.9754 15.308 35.4561 15.8206 34.7539 16.2015L36.1841 18.8385C37.3699 18.1954 38.3066 17.284 38.961 16.1183L36.345 14.6497ZM34.7619 16.1971C34.0912 16.5556 33.2477 16.764 32.181 16.764V19.764C33.6423 19.764 34.9908 19.4764 36.1761 18.8429L34.7619 16.1971ZM32.181 17.052C33.3662 17.052 34.4137 16.596 35.1919 15.6882L32.9141 13.7358C32.7323 13.948 32.5318 14.052 32.181 14.052V17.052ZM35.1759 15.7066C36.0221 14.7511 36.297 13.4436 36.297 12.096H33.297C33.297 13.1164 33.0759 13.5529 32.9301 13.7174L35.1759 15.7066ZM36.297 12.096C36.297 10.7631 36.0215 9.4607 35.1614 8.51737L32.9446 10.5386C33.0765 10.6833 33.297 11.0929 33.297 12.096H36.297ZM35.1919 8.55181C34.4137 7.64396 33.3662 7.188 32.181 7.188V10.188C32.5318 10.188 32.7323 10.292 32.9141 10.5042L35.1919 8.55181ZM32.181 7.188C30.9958 7.188 29.9483 7.64396 29.1701 8.55181L31.4479 10.5042C31.6297 10.292 31.8302 10.188 32.181 10.188V7.188ZM29.1842 8.53557C28.3524 9.47828 28.089 10.7727 28.089 12.096H31.089C31.089 11.0833 31.3056 10.6657 31.4338 10.5204L29.1842 8.53557ZM28.089 12.096C28.089 13.4343 28.352 14.7338 29.1701 15.6882L31.4479 13.7358C31.306 13.5702 31.089 13.1257 31.089 12.096H28.089ZM29.1701 15.6882C29.9483 16.596 30.9958 17.052 32.181 17.052V14.052C31.8302 14.052 31.6297 13.948 31.4479 13.7358L29.1701 15.6882ZM44.2018 8.28H42.7018L45.5924 8.84247L44.2018 8.28ZM47.7778 5.976L47.8706 7.47313L47.884 7.4723L47.8974 7.47122L47.7778 5.976ZM48.6898 6.288L47.5563 7.27039L47.5913 7.31083L47.6292 7.34866L48.6898 6.288ZM49.0498 7.416L47.5505 7.46143L47.5513 7.48702L47.5529 7.51257L49.0498 7.416ZM48.7378 8.592L47.5855 7.63172L47.5693 7.65114L47.5538 7.67109L48.7378 8.592ZM47.5858 9.12L47.7158 10.6144L47.7384 10.6124L47.7611 10.6097L47.5858 9.12ZM47.0338 9.168L46.9039 7.67364L46.8955 7.67436L46.8872 7.67518L47.0338 9.168ZM42.5218 16.716C42.1242 16.716 42.1025 16.6182 42.1716 16.6865C42.2443 16.7583 42.1498 16.7479 42.1498 16.368H39.1498C39.1498 17.2201 39.3673 18.1337 40.064 18.8215C40.7572 19.5057 41.6714 19.716 42.5218 19.716V16.716ZM42.1498 16.368V7.848H39.1498V16.368H42.1498ZM42.1498 7.848C42.1498 7.46133 42.2442 7.4487 42.1685 7.52642C42.1354 7.56044 42.1115 7.56507 42.1346 7.55714C42.1655 7.54658 42.2538 7.524 42.4258 7.524V4.524C41.5923 4.524 40.694 4.74043 40.0191 5.43357C39.3514 6.1193 39.1498 7.01867 39.1498 7.848H42.1498ZM42.4258 7.524C42.5978 7.524 42.6861 7.54658 42.717 7.55714C42.7401 7.56507 42.7162 7.56044 42.6831 7.52642C42.6074 7.4487 42.7018 7.46133 42.7018 7.848H45.7018C45.7018 7.01867 45.5002 6.1193 44.8325 5.43357C44.1576 4.74043 43.2593 4.524 42.4258 4.524V7.524ZM42.7018 7.848V8.28H45.7018V7.848H42.7018ZM45.5924 8.84247C45.7745 8.39221 46.0263 8.09921 46.3402 7.89694C46.6686 7.68535 47.1532 7.51757 47.8706 7.47313L47.6851 4.47887C46.5945 4.54643 45.579 4.81865 44.7154 5.37506C43.8373 5.94078 43.2051 6.74379 42.8113 7.71753L45.5924 8.84247ZM47.8974 7.47122C47.942 7.46766 47.9046 7.4781 47.8203 7.44925C47.7246 7.4165 47.628 7.35315 47.5563 7.27039L49.8233 5.3056C49.2217 4.61136 48.3947 4.42185 47.6582 4.48078L47.8974 7.47122ZM47.6292 7.34866C47.5353 7.25484 47.5141 7.17913 47.5188 7.19406C47.5211 7.20121 47.5281 7.22556 47.535 7.27165C47.5419 7.31757 47.548 7.38001 47.5505 7.46143L50.5491 7.37057C50.5288 6.69952 50.3761 5.85301 49.7505 5.22734L47.6292 7.34866ZM47.5529 7.51257C47.5607 7.63384 47.5482 7.68893 47.546 7.69735C47.5451 7.7007 47.5467 7.6935 47.5538 7.67939C47.5611 7.66494 47.5718 7.6482 47.5855 7.63172L49.8901 9.55228C50.4476 8.88328 50.5952 8.07055 50.5467 7.31943L47.5529 7.51257ZM47.5538 7.67109C47.5808 7.63637 47.6081 7.61114 47.6298 7.59457C47.6508 7.57853 47.6622 7.57396 47.6568 7.5764C47.6423 7.58307 47.5706 7.61145 47.4105 7.63027L47.7611 10.6097C48.506 10.5221 49.3512 10.2466 49.9218 9.51291L47.5538 7.67109ZM47.4559 7.62564L46.9039 7.67364L47.1638 10.6624L47.7158 10.6144L47.4559 7.62564ZM46.8872 7.67518C45.7822 7.7837 44.7262 8.14052 43.9478 8.93277C43.151 9.74376 42.8458 10.8053 42.8458 11.904H45.8458C45.8458 11.3547 45.9886 11.1362 46.0878 11.0352C46.2055 10.9155 46.4934 10.7283 47.1804 10.6608L46.8872 7.67518ZM42.8458 11.904V16.368H45.8458V11.904H42.8458ZM42.8458 16.368C42.8458 16.7577 42.75 16.7735 42.8222 16.7003C42.898 16.6235 42.8936 16.716 42.5218 16.716V19.716C43.366 19.716 44.2736 19.5005 44.9574 18.8077C45.6376 18.1185 45.8458 17.2103 45.8458 16.368H42.8458ZM53.115 21.816L51.8016 22.5406L51.8058 22.5481L51.81 22.5555L53.115 21.816ZM53.163 20.184L54.5249 20.8126L54.5282 20.8056L54.5313 20.7986L53.163 20.184ZM54.435 17.352L55.8033 17.9666L56.0753 17.3611L55.8101 16.7527L54.435 17.352ZM50.523 8.376L49.1352 8.94533L49.1414 8.96039L49.1479 8.9753L50.523 8.376ZM50.523 6.744L49.218 6.00448L49.2138 6.01191L49.2096 6.01938L50.523 6.744ZM53.163 6.336L52.2171 7.50017L52.2565 7.53218L52.298 7.56145L53.163 6.336ZM53.907 7.464L55.3034 6.91617L55.2997 6.90691L53.907 7.464ZM56.355 13.704L54.9586 14.2518L56.3309 17.7498L57.7448 14.2684L56.355 13.704ZM58.899 7.44L57.512 6.86887L57.5092 6.87558L58.899 7.44ZM59.643 6.336L60.508 7.56145L60.5147 7.55677L60.5212 7.55202L59.643 6.336ZM62.067 6.744L60.7254 7.41482L60.739 7.44201L60.7536 7.46862L62.067 6.744ZM62.043 8.352L60.6738 7.73944L60.6705 7.74686L62.043 8.352ZM56.403 21.144L57.7754 21.7495L57.7755 21.7491L56.403 21.144ZM55.587 22.248L54.786 20.9798L54.7704 20.9897L54.7549 20.9999L55.587 22.248ZM54.483 21.036C54.3485 21.036 54.3262 21.011 54.3596 21.0286C54.3757 21.0371 54.3934 21.0498 54.4083 21.0645C54.4226 21.0787 54.4253 21.0858 54.42 21.0765L51.81 22.5555C52.3957 23.5892 53.4063 24.036 54.483 24.036V21.036ZM54.4284 21.0914C54.4283 21.0912 54.4311 21.0968 54.4332 21.1056C54.4352 21.1141 54.434 21.115 54.4344 21.1041C54.4351 21.0798 54.4442 20.9875 54.5249 20.8126L51.8011 19.5554C51.3784 20.4712 51.2491 21.5392 51.8016 22.5406L54.4284 21.0914ZM54.5313 20.7986L55.8033 17.9666L53.0667 16.7374L51.7947 19.5694L54.5313 20.7986ZM55.8101 16.7527L51.8981 7.7767L49.1479 8.9753L53.0599 17.9513L55.8101 16.7527ZM51.9108 7.80667C51.8397 7.63339 51.831 7.536 51.831 7.5C51.831 7.47441 51.8341 7.47266 51.8364 7.46862L49.2096 6.01938C48.6764 6.98594 48.758 8.02582 49.1352 8.94533L51.9108 7.80667ZM51.828 7.48352C51.8168 7.50342 51.7983 7.5276 51.7744 7.54889C51.7513 7.56951 51.7364 7.57554 51.742 7.57303C51.7607 7.56464 51.8702 7.524 52.131 7.524V4.524C51.0597 4.524 49.8666 4.85977 49.218 6.00448L51.828 7.48352ZM52.131 7.524C52.2286 7.524 52.2727 7.53595 52.2789 7.53782C52.2814 7.53857 52.275 7.53684 52.2625 7.53032C52.2497 7.52368 52.2338 7.51376 52.2171 7.50017L54.1089 5.17183C53.5124 4.68721 52.7998 4.524 52.131 4.524V7.524ZM52.298 7.56145C52.2376 7.51885 52.2458 7.50438 52.3008 7.58789C52.3539 7.66834 52.4281 7.80572 52.5143 8.02109L55.2997 6.90691C55.0435 6.26646 54.661 5.55734 54.028 5.11055L52.298 7.56145ZM52.5106 8.01181L54.9586 14.2518L57.7514 13.1562L55.3034 6.91619L52.5106 8.01181ZM57.7448 14.2684L60.2888 8.00442L57.5092 6.87558L54.9652 13.1396L57.7448 14.2684ZM60.286 8.01112C60.3711 7.80449 60.4444 7.67224 60.4969 7.59428C60.551 7.51395 60.5612 7.52394 60.508 7.56145L58.778 5.11055C58.1557 5.54979 57.7719 6.23766 57.512 6.86887L60.286 8.01112ZM60.5212 7.55202C60.4776 7.58357 60.5214 7.524 60.795 7.524V4.524C60.1086 4.524 59.3844 4.67243 58.7648 5.11998L60.5212 7.55202ZM60.795 7.524C60.9034 7.524 60.8929 7.5449 60.8301 7.50939C60.7999 7.49229 60.7718 7.46977 60.7498 7.44591C60.7286 7.42295 60.7224 7.40887 60.7254 7.41482L63.4086 6.07318C63.1694 5.59465 62.8056 5.18032 62.3079 4.89861C61.8211 4.6231 61.2946 4.524 60.795 4.524V7.524ZM60.7536 7.46862C60.7563 7.47346 60.755 7.47205 60.7536 7.46656C60.7523 7.46117 60.7533 7.46153 60.7532 7.47161C60.7528 7.49312 60.7462 7.57758 60.6738 7.73945L63.4122 8.96455C63.8219 8.04888 63.9215 7.00017 63.3804 6.01938L60.7536 7.46862ZM60.6705 7.74686L55.0305 20.5389L57.7755 21.7491L63.4155 8.95714L60.6705 7.74686ZM55.0306 20.5385C54.9428 20.7377 54.8668 20.8632 54.8127 20.9364C54.7584 21.0099 54.7443 21.0061 54.786 20.9798L56.388 23.5162C57.0602 23.0917 57.486 22.4053 57.7754 21.7495L55.0306 20.5385ZM54.7549 20.9999C54.7765 20.9856 54.7212 21.036 54.483 21.036V24.036C55.1408 24.036 55.8215 23.8944 56.4191 23.4961L54.7549 20.9999Z" fill="#5B3511"/>
</g>
<defs>
<filter id="filter0_d_232_125" x="0.336182" y="0.81601" width="63.1147" height="23.72" filterUnits="userSpaceOnUse" color-interpolation-filters="sRGB">
<feFlood flood-opacity="0" result="BackgroundImageFix"/>
<feColorMatrix in="SourceAlpha" type="matrix" values="0 0 0 0 0 0 0 0 0 0 0 0 0 0 0 0 0 0 127 0" result="hardAlpha"/>
<feOffset dy="1"/>
<feGaussianBlur stdDeviation="0.5"/>
<feComposite in2="hardAlpha" operator="out"/>
<feColorMatrix type="matrix" values="0 0 0 0 0 0 0 0 0 0 0 0 0 0 0 0 0 0 0.25 0"/>
<feBlend mode="normal" in2="BackgroundImageFix" result="effect1_dropShadow_232_125"/>
<feBlend mode="normal" in="SourceGraphic" in2="effect1_dropShadow_232_125" result="shape"/>
</filter>
<linearGradient id="paint0_linear_232_125" x1="31.5" y1="-6" x2="31.5" y2="27" gradientUnits="userSpaceOnUse">
<stop stop-color="#FDE092"/>
<stop offset="1" stop-color="#C18B2C"/>
</linearGradient>
</defs>
</svg>
