<svg width="84" height="33" viewBox="0 0 84 33" fill="none" xmlns="http://www.w3.org/2000/svg">
<g filter="url(#filter0_d_42_351)">
<path d="M10.2735 23.352C8.90817 23.352 7.54283 23.2027 6.1775 22.904C4.81217 22.6053 3.62817 22.168 2.6255 21.592C2.02817 21.272 1.65483 20.8453 1.5055 20.312C1.35617 19.7573 1.38817 19.224 1.6015 18.712C1.81483 18.2 2.15617 17.8373 2.6255 17.624C3.09483 17.4107 3.66017 17.464 4.3215 17.784C5.17483 18.2747 6.12417 18.6373 7.1695 18.872C8.21483 19.1067 9.2495 19.224 10.2735 19.224C11.8095 19.224 12.9082 18.9893 13.5695 18.52C14.2522 18.0293 14.5935 17.4213 14.5935 16.696C14.5935 16.0773 14.3588 15.5867 13.8895 15.224C13.4202 14.8613 12.5988 14.552 11.4255 14.296L7.8095 13.528C3.7775 12.6747 1.7615 10.584 1.7615 7.256C1.7615 5.82667 2.1455 4.57867 2.9135 3.512C3.6815 2.424 4.74817 1.58133 6.1135 0.983999C7.50017 0.386666 9.10017 0.0879993 10.9135 0.0879993C12.1082 0.0879993 13.2815 0.237333 14.4335 0.535999C15.5855 0.813333 16.5988 1.22933 17.4735 1.784C18.0068 2.104 18.3375 2.52 18.4655 3.032C18.5935 3.544 18.5508 4.03467 18.3375 4.504C18.1455 4.97333 17.8042 5.304 17.3135 5.496C16.8442 5.688 16.2575 5.61333 15.5535 5.272C14.8495 4.90933 14.1028 4.64267 13.3135 4.472C12.5242 4.30133 11.7135 4.216 10.8815 4.216C9.5375 4.216 8.49217 4.48267 7.7455 5.016C7.02017 5.528 6.6575 6.2 6.6575 7.032C6.6575 7.65067 6.8815 8.152 7.3295 8.536C7.7775 8.92 8.55617 9.22933 9.6655 9.464L13.2815 10.232C17.4202 11.128 19.4895 13.1547 19.4895 16.312C19.4895 17.72 19.1055 18.9573 18.3375 20.024C17.5908 21.0693 16.5242 21.8907 15.1375 22.488C13.7722 23.064 12.1508 23.352 10.2735 23.352ZM29.7868 23.352C25.3708 23.352 23.1628 21.208 23.1628 16.92V10.904H21.8188C20.5601 10.904 19.9307 10.3067 19.9307 9.112C19.9307 7.896 20.5601 7.288 21.8188 7.288H23.1628V4.856C23.1628 3.21333 23.9734 2.392 25.5948 2.392C27.1948 2.392 27.9948 3.21333 27.9948 4.856V7.288H31.0348C32.2721 7.288 32.8908 7.896 32.8908 9.112C32.8908 10.3067 32.2721 10.904 31.0348 10.904H27.9948V16.728C27.9948 17.624 28.1974 18.296 28.6028 18.744C29.0294 19.192 29.7014 19.416 30.6188 19.416C30.9388 19.416 31.2374 19.384 31.5148 19.32C31.7921 19.256 32.0481 19.2133 32.2828 19.192C32.5814 19.1707 32.8268 19.2667 33.0188 19.48C33.2108 19.6933 33.3068 20.1307 33.3068 20.792C33.3068 21.3253 33.2214 21.784 33.0508 22.168C32.8801 22.5307 32.5814 22.7973 32.1548 22.968C31.8774 23.0747 31.4934 23.16 31.0028 23.224C30.5334 23.3093 30.1281 23.352 29.7868 23.352ZM42.408 23.352C40.7227 23.352 39.2507 23.0213 37.992 22.36C36.7547 21.6773 35.7947 20.728 35.112 19.512C34.4293 18.2747 34.088 16.8133 34.088 15.128C34.088 13.464 34.4293 12.024 35.112 10.808C35.7947 9.57067 36.7547 8.62133 37.992 7.96C39.2507 7.29867 40.7227 6.968 42.408 6.968C44.0933 6.968 45.5547 7.29867 46.792 7.96C48.0507 8.62133 49.0213 9.57067 49.704 10.808C50.408 12.024 50.76 13.464 50.76 15.128C50.76 16.8133 50.408 18.2747 49.704 19.512C49.0213 20.728 48.0507 21.6773 46.792 22.36C45.5547 23.0213 44.0933 23.352 42.408 23.352ZM42.408 19.736C43.432 19.736 44.264 19.3627 44.904 18.616C45.5653 17.8693 45.896 16.7067 45.896 15.128C45.896 13.5707 45.5653 12.4293 44.904 11.704C44.264 10.9573 43.432 10.584 42.408 10.584C41.384 10.584 40.552 10.9573 39.912 11.704C39.272 12.4293 38.952 13.5707 38.952 15.128C38.952 16.7067 39.272 17.8693 39.912 18.616C40.552 19.3627 41.384 19.736 42.408 19.736ZM56.1958 23.288C54.5318 23.288 53.6998 22.4667 53.6998 20.824V9.464C53.6998 7.84267 54.4891 7.032 56.0677 7.032C57.6464 7.032 58.4358 7.84267 58.4358 9.464V10.04C59.2038 8.14133 60.7931 7.11733 63.2038 6.968C63.7371 6.92533 64.1424 7.064 64.4198 7.384C64.7184 7.68267 64.8784 8.184 64.8998 8.888C64.9424 9.54933 64.8038 10.072 64.4838 10.456C64.1851 10.84 63.6731 11.0747 62.9478 11.16L62.2118 11.224C59.8224 11.4587 58.6278 12.6747 58.6278 14.872V20.824C58.6278 22.4667 57.8171 23.288 56.1958 23.288ZM72.144 29.048C71.2907 29.048 70.6827 28.728 70.32 28.088C69.9787 27.4693 70 26.744 70.384 25.912L72.08 22.136L66.864 10.168C66.5227 9.336 66.5227 8.61067 66.864 7.992C67.2267 7.352 67.9413 7.032 69.008 7.032C69.584 7.032 70.0427 7.17067 70.384 7.448C70.7467 7.704 71.0773 8.20533 71.376 8.952L74.64 17.272L78.032 8.92C78.3307 8.19467 78.6613 7.704 79.024 7.448C79.408 7.17067 79.92 7.032 80.56 7.032C81.3707 7.032 81.936 7.352 82.256 7.992C82.5973 8.61067 82.5867 9.32533 82.224 10.136L74.704 27.192C74.384 27.9173 74.0213 28.408 73.616 28.664C73.232 28.92 72.7413 29.048 72.144 29.048Z" fill="url(#paint0_linear_42_351)"/>
<path d="M2.6255 21.592L4.11987 18.9907L4.08134 18.9685L4.04216 18.9476L2.6255 21.592ZM1.5055 20.312L-1.39135 21.0919L-1.38744 21.1064L-1.38339 21.1209L1.5055 20.312ZM1.6015 18.712L-1.16773 17.5582L1.6015 18.712ZM2.6255 17.624L1.38409 14.8929H1.38409L2.6255 17.624ZM4.3215 17.784L5.81691 15.1833L5.72432 15.13L5.62818 15.0835L4.3215 17.784ZM7.1695 18.872L7.82662 15.9449H7.82661L7.1695 18.872ZM13.5695 18.52L15.3057 20.9665L15.3131 20.9613L15.3204 20.956L13.5695 18.52ZM13.8895 15.224L12.0552 17.5979L12.0552 17.5979L13.8895 15.224ZM11.4255 14.296L12.065 11.365L12.0569 11.3632L12.0488 11.3615L11.4255 14.296ZM7.8095 13.528L8.43277 10.5935L8.43066 10.593L7.8095 13.528ZM2.9135 3.512L5.3481 5.26491L5.35631 5.25352L5.3644 5.24205L2.9135 3.512ZM6.1135 0.983999L4.92663 -1.77124L4.91883 -1.76788L4.91104 -1.76447L6.1135 0.983999ZM14.4335 0.535999L13.6806 3.43999L13.7059 3.44655L13.7313 3.45267L14.4335 0.535999ZM17.4735 1.784L15.8669 4.31753L15.8982 4.33739L15.93 4.35647L17.4735 1.784ZM18.4655 3.032L21.3759 2.30439V2.30439L18.4655 3.032ZM18.3375 4.504L15.6064 3.26259L15.5826 3.31491L15.5609 3.3681L18.3375 4.504ZM17.3135 5.496L16.2203 2.70227L16.1989 2.71065L16.1776 2.71936L17.3135 5.496ZM15.5535 5.272L14.1796 7.93892L14.212 7.95558L14.2447 7.97144L15.5535 5.272ZM13.3135 4.472L13.9475 1.53976L13.9475 1.53975L13.3135 4.472ZM7.7455 5.016L9.47555 7.4669L9.4824 7.46207L9.48921 7.4572L7.7455 5.016ZM9.6655 9.464L10.2888 6.52946L10.2864 6.52895L9.6655 9.464ZM13.2815 10.232L13.9163 7.2999L13.9048 7.29746L13.2815 10.232ZM18.3375 20.024L15.9029 18.2711L15.8963 18.2803L18.3375 20.024ZM15.1375 22.488L16.3036 25.2521L16.314 25.2477L16.3244 25.2432L15.1375 22.488ZM10.2735 20.352C9.12878 20.352 7.97833 20.227 6.81859 19.9733L5.53641 25.8347C7.10734 26.1783 8.68755 26.352 10.2735 26.352V20.352ZM6.81859 19.9733C5.69252 19.727 4.8079 19.3859 4.11987 18.9907L1.13113 24.1933C2.44843 24.9501 3.93182 25.4837 5.53641 25.8347L6.81859 19.9733ZM4.04216 18.9476C4.00122 18.9256 4.06267 18.9507 4.15523 19.0565C4.25617 19.1718 4.34544 19.3283 4.39439 19.5031L-1.38339 21.1209C-0.966073 22.6113 0.0636449 23.6229 1.20884 24.2364L4.04216 18.9476ZM4.40235 19.5321C4.40549 19.5438 4.4169 19.5959 4.41211 19.6757C4.40725 19.7567 4.38818 19.824 4.37073 19.8658L-1.16773 17.5582C-1.64598 18.706 -1.70663 19.9209 -1.39135 21.0919L4.40235 19.5321ZM4.37073 19.8658C4.35417 19.9056 4.30562 20.0021 4.2021 20.1121C4.09584 20.225 3.97481 20.3061 3.86691 20.3551L1.38409 14.8929C0.169234 15.4451 -0.686954 16.4043 -1.16773 17.5582L4.37073 19.8658ZM3.86691 20.3551C3.57757 20.4866 3.30413 20.5081 3.11973 20.4907C2.95903 20.4756 2.91616 20.4367 3.01482 20.4845L5.62818 15.0835C4.51869 14.5467 2.96593 14.1739 1.38409 14.8929L3.86691 20.3551ZM2.82609 20.3847C3.96289 21.0384 5.19867 21.5042 6.51239 21.7991L7.82661 15.9449C7.04966 15.7704 6.38678 15.511 5.81691 15.1833L2.82609 20.3847ZM6.51239 21.7991C7.76346 22.08 9.01848 22.224 10.2735 22.224V16.224C9.48052 16.224 8.66621 16.1333 7.82662 15.9449L6.51239 21.7991ZM10.2735 22.224C11.9568 22.224 13.8532 21.9974 15.3057 20.9665L11.8333 16.0735C11.9374 15.9996 11.9168 16.0514 11.6229 16.1142C11.3389 16.1748 10.9019 16.224 10.2735 16.224V22.224ZM15.3204 20.956C16.6444 20.0044 17.5935 18.5505 17.5935 16.696H11.5935C11.5935 16.5658 11.6301 16.3903 11.7215 16.2274C11.8047 16.0793 11.8764 16.0424 11.8186 16.084L15.3204 20.956ZM17.5935 16.696C17.5935 15.1948 16.9645 13.8088 15.7238 12.8501L12.0552 17.5979C11.953 17.5189 11.814 17.3734 11.7111 17.1584C11.6102 16.9473 11.5935 16.7729 11.5935 16.696H17.5935ZM15.7238 12.8501C14.6974 12.057 13.3167 11.638 12.065 11.365L10.786 17.227C11.2784 17.3345 11.6288 17.4388 11.8641 17.5275C12.1161 17.6224 12.1403 17.6637 12.0552 17.5979L15.7238 12.8501ZM12.0488 11.3615L8.43277 10.5935L7.18623 16.4625L10.8022 17.2305L12.0488 11.3615ZM8.43066 10.593C6.76525 10.2405 5.88425 9.70552 5.43303 9.23759C5.04354 8.83368 4.7615 8.26556 4.7615 7.256H-1.2385C-1.2385 9.57444 -0.512543 11.7157 1.11397 13.4024C2.67875 15.0251 4.82176 15.9621 7.18834 16.463L8.43066 10.593ZM4.7615 7.256C4.7615 6.39782 4.9802 5.77589 5.3481 5.26491L0.478897 1.75909C-0.689198 3.38144 -1.2385 5.25551 -1.2385 7.256H4.7615ZM5.3644 5.24205C5.78046 4.65264 6.39061 4.13731 7.31596 3.73247L4.91104 -1.76447C3.10572 -0.974646 1.58254 0.195363 0.462596 1.78195L5.3644 5.24205ZM7.30037 3.73924C8.24478 3.33241 9.42791 3.088 10.9135 3.088V-2.912C8.77243 -2.912 6.75555 -2.55908 4.92663 -1.77124L7.30037 3.73924ZM10.9135 3.088C11.8551 3.088 12.7755 3.20532 13.6806 3.43999L15.1864 -2.36799C13.7875 -2.73065 12.3612 -2.912 10.9135 -2.912V3.088ZM13.7313 3.45267C14.6083 3.66379 15.3075 3.9628 15.8669 4.31753L19.0801 -0.749529C17.8902 -1.50413 16.5627 -2.03712 15.1357 -2.38067L13.7313 3.45267ZM15.93 4.35647C15.9398 4.36234 15.8661 4.31987 15.773 4.20273C15.6738 4.07788 15.5957 3.92204 15.5551 3.75961L21.3759 2.30439C21.0208 0.883853 20.1015 -0.137776 19.017 -0.788478L15.93 4.35647ZM15.5551 3.75961C15.5442 3.71619 15.5313 3.63296 15.5408 3.52411C15.5503 3.41435 15.5787 3.32345 15.6064 3.26259L21.0686 5.74541C21.5696 4.64319 21.6641 3.45725 21.3759 2.30439L15.5551 3.75961ZM15.5609 3.3681C15.6111 3.2453 15.7035 3.0913 15.8501 2.94928C15.9948 2.80915 16.1355 2.73545 16.2203 2.70227L18.4067 8.28973C19.6281 7.81179 20.598 6.90159 21.1141 5.6399L15.5609 3.3681ZM16.1776 2.71936C16.4965 2.58888 16.7661 2.59092 16.9003 2.608C17.0151 2.62262 17.0102 2.64426 16.8623 2.57256L14.2447 7.97144C15.3018 8.48398 16.8475 8.92797 18.4494 8.27264L16.1776 2.71936ZM16.9274 2.60508C15.9848 2.11953 14.9889 1.76492 13.9475 1.53976L12.6795 7.40424C13.2168 7.52041 13.7142 7.69914 14.1796 7.93892L16.9274 2.60508ZM13.9475 1.53975C12.9436 1.3227 11.9202 1.216 10.8815 1.216V7.216C11.5068 7.216 12.1047 7.27996 12.6795 7.40424L13.9475 1.53975ZM10.8815 1.216C9.18943 1.216 7.44399 1.54465 6.00179 2.5748L9.48921 7.4572C9.54035 7.42068 9.88557 7.216 10.8815 7.216V1.216ZM6.01545 2.56509C4.55667 3.59482 3.6575 5.15068 3.6575 7.032H9.6575C9.6575 7.04315 9.65612 7.08232 9.64191 7.14125C9.62741 7.20137 9.60333 7.26623 9.56957 7.3288C9.4977 7.46196 9.42988 7.49914 9.47555 7.4669L6.01545 2.56509ZM3.6575 7.032C3.6575 8.47794 4.22822 9.82899 5.37713 10.8138L9.28188 6.25823C9.36923 6.33311 9.48223 6.46399 9.56453 6.64818C9.64514 6.82859 9.6575 6.97308 9.6575 7.032H3.6575ZM5.37713 10.8138C6.41898 11.7068 7.81888 12.1398 9.04462 12.399L10.2864 6.52895C9.84391 6.43535 9.54458 6.34243 9.35708 6.26794C9.1571 6.1885 9.17304 6.16494 9.28188 6.25823L5.37713 10.8138ZM9.04223 12.3985L12.6582 13.1665L13.9048 7.29746L10.2888 6.52946L9.04223 12.3985ZM12.6467 13.1641C14.4039 13.5445 15.3534 14.0924 15.8384 14.5673C16.2419 14.9625 16.4895 15.4595 16.4895 16.312H22.4895C22.4895 14.0071 21.7024 11.9121 20.0366 10.2807C18.4522 8.72897 16.2977 7.8155 13.9163 7.29992L12.6467 13.1641ZM16.4895 16.312C16.4895 17.1383 16.2765 17.7522 15.9029 18.2711L20.7721 21.7769C21.9345 20.1625 22.4895 18.3017 22.4895 16.312H16.4895ZM15.8963 18.2803C15.5197 18.8075 14.9239 19.3135 13.9506 19.7328L16.3244 25.2432C18.1244 24.4678 19.662 23.3312 20.7787 21.7677L15.8963 18.2803ZM13.9714 19.7239C13.0594 20.1087 11.8532 20.352 10.2735 20.352V26.352C12.4485 26.352 14.485 26.0193 16.3036 25.2521L13.9714 19.7239ZM23.1628 10.904H26.1628V7.904H23.1628V10.904ZM23.1628 7.288V10.288H26.1628V7.288H23.1628ZM27.9948 7.288H24.9948V10.288H27.9948V7.288ZM27.9948 10.904V7.904H24.9948V10.904H27.9948ZM28.6028 18.744L26.3781 20.7567L26.4039 20.7852L26.4303 20.813L28.6028 18.744ZM31.5148 19.32L32.1893 22.2432L32.1893 22.2432L31.5148 19.32ZM32.2827 19.192L32.069 16.1996L32.0401 16.2017L32.0111 16.2043L32.2827 19.192ZM33.0187 19.48L30.7889 21.4869H30.7889L33.0187 19.48ZM33.0508 22.168L35.7652 23.4454L35.779 23.416L35.7922 23.3864L33.0508 22.168ZM32.1548 22.968L33.2317 25.768L33.2504 25.7609L33.2689 25.7534L32.1548 22.968ZM31.0028 23.224L30.6147 20.2492L30.5401 20.2589L30.4661 20.2724L31.0028 23.224ZM29.7868 20.352C28.0194 20.352 27.249 19.9222 26.9086 19.5917C26.5847 19.2772 26.1628 18.5788 26.1628 16.92H20.1628C20.1628 19.5492 20.8448 22.0668 22.7289 23.8963C24.5965 25.7098 27.1381 26.352 29.7868 26.352V20.352ZM26.1628 16.92V10.904H20.1628V16.92H26.1628ZM23.1628 7.904H21.8188V13.904H23.1628V7.904ZM21.8188 7.904C21.6139 7.904 22.0177 7.85262 22.468 8.28008C22.9477 8.73538 22.9307 9.20579 22.9307 9.112H16.9307C16.9307 10.2129 17.2284 11.5793 18.3375 12.6319C19.4172 13.6567 20.7649 13.904 21.8188 13.904V7.904ZM22.9307 9.112C22.9307 8.99324 22.9558 9.44886 22.4872 9.90157C22.0378 10.3357 21.6264 10.288 21.8188 10.288V4.288C20.7524 4.288 19.397 4.54431 18.3183 5.58643C17.2204 6.64714 16.9307 8.01476 16.9307 9.112H22.9307ZM21.8188 10.288H23.1628V4.288H21.8188V10.288ZM26.1628 7.288V4.856H20.1628V7.288H26.1628ZM26.1628 4.856C26.1628 4.4873 26.253 4.76375 25.9059 5.11541C25.7441 5.27933 25.58 5.35812 25.4906 5.38829C25.4163 5.4134 25.4339 5.392 25.5947 5.392V-0.608002C24.3117 -0.608002 22.8005 -0.279633 21.6356 0.900588C20.4779 2.07358 20.1628 3.58203 20.1628 4.856H26.1628ZM25.5947 5.392C25.7468 5.392 25.7556 5.41252 25.6734 5.38439C25.5758 5.35099 25.408 5.26786 25.2457 5.10122C24.9021 4.74846 24.9948 4.47758 24.9948 4.856H30.9948C30.9948 3.59175 30.6874 2.08887 29.5438 0.914772C28.3859 -0.273967 26.8775 -0.608002 25.5947 -0.608002V5.392ZM24.9948 4.856V7.288H30.9948V4.856H24.9948ZM27.9948 10.288H31.0348V4.288H27.9948V10.288ZM31.0348 10.288C31.204 10.288 30.7773 10.3292 30.324 9.88368C29.8609 9.42866 29.8908 8.97977 29.8908 9.112H35.8908C35.8908 8.02822 35.6112 6.66734 34.5295 5.60431C33.4575 4.55076 32.1029 4.288 31.0348 4.288V10.288ZM29.8908 9.112C29.8908 9.21961 29.8687 8.75575 30.343 8.29779C30.7977 7.85875 31.2168 7.904 31.0348 7.904V13.904C32.09 13.904 33.4371 13.6506 34.5105 12.6142C35.6035 11.5589 35.8908 10.1991 35.8908 9.112H29.8908ZM31.0348 7.904H27.9948V13.904H31.0348V7.904ZM24.9948 10.904V16.728H30.9948V10.904H24.9948ZM24.9948 16.728C24.9948 18.0164 25.2797 19.5427 26.3781 20.7567L30.8274 16.7313C30.8944 16.8054 30.9418 16.8766 30.9733 16.9347C31.0042 16.9916 31.0165 17.0294 31.019 17.0378C31.0213 17.0455 31.0148 17.0264 31.008 16.9734C31.0012 16.9205 30.9948 16.8401 30.9948 16.728H24.9948ZM26.4303 20.813C27.6483 22.0918 29.2769 22.416 30.6188 22.416V16.416C30.3926 16.416 30.3305 16.387 30.3754 16.402C30.402 16.4108 30.4592 16.433 30.5341 16.4788C30.6105 16.5255 30.6945 16.5903 30.7752 16.675L26.4303 20.813ZM30.6188 22.416C31.1382 22.416 31.6654 22.3641 32.1893 22.2432L30.8402 16.3968C30.8094 16.4039 30.7393 16.416 30.6188 16.416V22.416ZM32.1893 22.2432C32.3602 22.2037 32.4797 22.1865 32.5544 22.1797L32.0111 16.2043C31.6164 16.2402 31.2239 16.3083 30.8402 16.3968L32.1893 22.2432ZM32.4965 22.1844C32.2618 22.2011 31.9437 22.1772 31.5976 22.0417C31.2473 21.9047 30.9769 21.6958 30.7889 21.4869L35.2486 17.4731C34.4072 16.5381 33.2442 16.1157 32.069 16.1996L32.4965 22.1844ZM30.7889 21.4869C30.5812 21.2562 30.4642 21.038 30.4015 20.8962C30.3385 20.754 30.3131 20.6502 30.3045 20.6112C30.2899 20.5445 30.3068 20.5855 30.3068 20.792H36.3068C36.3068 20.3372 36.2756 19.8289 36.165 19.3248C36.0624 18.8573 35.8345 18.1241 35.2486 17.4731L30.7889 21.4869ZM30.3068 20.792C30.3068 21.0146 30.2702 21.0376 30.3093 20.9496L35.7922 23.3864C36.1726 22.5304 36.3068 21.6361 36.3068 20.792H30.3068ZM30.3363 20.8906C30.4226 20.7073 30.5488 20.5379 30.7007 20.4022C30.8473 20.2713 30.9769 20.2081 31.0406 20.1826L33.2689 25.7534C34.2897 25.3451 35.2237 24.5961 35.7652 23.4454L30.3363 20.8906ZM31.0778 20.168C31.1139 20.1541 31.0983 20.1634 31.008 20.1834C30.9216 20.2026 30.7932 20.2259 30.6147 20.2492L31.3908 26.1988C31.9835 26.1215 32.6345 25.9977 33.2317 25.768L31.0778 20.168ZM30.4661 20.2724C30.1099 20.3372 29.893 20.352 29.7868 20.352V26.352C30.3631 26.352 30.957 26.2815 31.5394 26.1756L30.4661 20.2724ZM37.992 22.36L36.5428 24.9867L36.5695 25.0015L36.5966 25.0157L37.992 22.36ZM35.112 19.512L32.4853 20.9612L32.4906 20.9709L32.496 20.9806L35.112 19.512ZM35.112 10.808L37.728 12.2766L37.7334 12.2669L37.7387 12.2572L35.112 10.808ZM37.992 7.96L36.5966 5.30427L36.5872 5.3092L36.5779 5.31421L37.992 7.96ZM46.792 7.96L45.3779 10.6058L45.3872 10.6108L45.3966 10.6157L46.792 7.96ZM49.704 10.808L47.0773 12.2572L47.0922 12.2843L47.1077 12.3111L49.704 10.808ZM49.704 19.512L47.0965 18.0284L47.0923 18.0359L47.0881 18.0434L49.704 19.512ZM46.792 22.36L48.2061 25.0058L48.2142 25.0015L48.2223 24.9971L46.792 22.36ZM44.904 18.616L42.6582 16.6269L42.6421 16.6451L42.6262 16.6636L44.904 18.616ZM44.904 11.704L42.6262 13.6564L42.6562 13.6913L42.6871 13.7253L44.904 11.704ZM39.912 11.704L42.1615 13.6889L42.1758 13.6727L42.1898 13.6564L39.912 11.704ZM39.912 18.616L42.1898 16.6636L39.912 18.616ZM42.408 20.352C41.119 20.352 40.1426 20.1011 39.3874 19.7043L36.5966 25.0157C38.3587 25.9416 40.3264 26.352 42.408 26.352V20.352ZM39.4412 19.7333C38.6861 19.3167 38.1333 18.7654 37.728 18.0434L32.496 20.9806C33.456 22.6906 34.8232 24.038 36.5428 24.9867L39.4412 19.7333ZM37.7387 18.0628C37.3441 17.3474 37.088 16.404 37.088 15.128H31.088C31.088 17.2227 31.5146 19.2019 32.4853 20.9612L37.7387 18.0628ZM37.088 15.128C37.088 13.8789 37.3417 12.9647 37.728 12.2766L32.496 9.3394C31.517 11.0833 31.088 13.0491 31.088 15.128H37.088ZM37.7387 12.2572C38.1435 11.5236 38.6841 10.9917 39.4061 10.6058L36.5779 5.31421C34.8253 6.25094 33.4459 7.6177 32.4853 9.35877L37.7387 12.2572ZM39.3874 10.6157C40.1426 10.2189 41.119 9.968 42.408 9.968V3.968C40.3264 3.968 38.3587 4.37843 36.5966 5.30427L39.3874 10.6157ZM42.408 9.968C43.6987 9.968 44.6551 10.2195 45.3779 10.6058L48.2061 5.31421C46.4543 4.37786 44.4879 3.968 42.408 3.968V9.968ZM45.3966 10.6157C46.139 11.0058 46.68 11.5372 47.0773 12.2572L52.3307 9.35877C51.3626 7.60411 49.9623 6.23685 48.1874 5.30427L45.3966 10.6157ZM47.1077 12.3111C47.5022 12.9925 47.76 13.894 47.76 15.128H53.76C53.76 13.034 53.3138 11.0555 52.3003 9.30489L47.1077 12.3111ZM47.76 15.128C47.76 16.3892 47.4996 17.3199 47.0965 18.0284L52.3115 20.9956C53.3164 19.2294 53.76 17.2375 53.76 15.128H47.76ZM47.0881 18.0434C46.6902 18.7521 46.1369 19.3025 45.3617 19.7229L48.2223 24.9971C49.9644 24.0522 51.3525 22.7039 52.32 20.9806L47.0881 18.0434ZM45.3779 19.7142C44.6551 20.1005 43.6987 20.352 42.408 20.352V26.352C44.4879 26.352 46.4543 25.9421 48.2061 25.0058L45.3779 19.7142ZM42.408 22.736C44.2664 22.736 45.9455 22.0107 47.1818 20.5684L42.6262 16.6636C42.5955 16.6995 42.5765 16.7147 42.5714 16.7185C42.567 16.7219 42.5681 16.7206 42.5718 16.7189C42.5754 16.7173 42.5696 16.7206 42.5484 16.7249C42.5263 16.7294 42.4814 16.736 42.408 16.736V22.736ZM47.1498 20.6051C48.5116 19.0676 48.896 17.0339 48.896 15.128H42.896C42.896 16.3795 42.6191 16.6711 42.6582 16.6269L47.1498 20.6051ZM48.896 15.128C48.896 13.2408 48.5104 11.2067 47.1209 9.68274L42.6871 13.7253C42.65 13.6845 42.7024 13.7177 42.7665 13.9388C42.8332 14.1691 42.896 14.5496 42.896 15.128H48.896ZM47.1818 9.75163C45.9455 8.30925 44.2664 7.584 42.408 7.584V13.584C42.4814 13.584 42.5263 13.5906 42.5484 13.5951C42.5696 13.5994 42.5754 13.6027 42.5718 13.6011C42.5681 13.5994 42.567 13.5981 42.5714 13.6015C42.5765 13.6053 42.5955 13.6205 42.6262 13.6564L47.1818 9.75163ZM42.408 7.584C40.5496 7.584 38.8705 8.30926 37.6342 9.75163L42.1898 13.6564C42.2205 13.6205 42.2395 13.6053 42.2446 13.6015C42.249 13.5981 42.248 13.5994 42.2442 13.6011C42.2406 13.6027 42.2464 13.5994 42.2676 13.5951C42.2897 13.5906 42.3346 13.584 42.408 13.584V7.584ZM37.6625 9.71914C36.3189 11.2419 35.952 13.26 35.952 15.128H41.952C41.952 14.5427 42.0135 14.1533 42.0806 13.9139C42.1457 13.6819 42.1999 13.6453 42.1615 13.6889L37.6625 9.71914ZM35.952 15.128C35.952 17.0153 36.3181 19.0328 37.6342 20.5684L42.1898 16.6636C42.2148 16.6929 42.1532 16.6376 42.0844 16.3879C42.0139 16.1316 41.952 15.7262 41.952 15.128H35.952ZM37.6342 20.5684C38.8705 22.0107 40.5496 22.736 42.408 22.736V16.736C42.3346 16.736 42.2897 16.7294 42.2676 16.7249C42.2464 16.7206 42.2406 16.7173 42.2442 16.7189C42.248 16.7206 42.249 16.7219 42.2446 16.7185C42.2395 16.7147 42.2205 16.6995 42.1898 16.6636L37.6342 20.5684ZM58.4358 10.04H55.4357L61.2169 11.1649L58.4358 10.04ZM63.2038 6.968L63.3892 9.96226L63.4161 9.96059L63.443 9.95844L63.2038 6.968ZM64.4198 7.384L62.1527 9.34879L62.2228 9.42965L62.2984 9.50532L64.4198 7.384ZM64.8997 8.888L61.9011 8.97887L61.9027 9.03005L61.906 9.08115L64.8997 8.888ZM64.4837 10.456L62.1791 8.53545L62.1467 8.57428L62.1157 8.61418L64.4837 10.456ZM62.9478 11.16L63.2076 14.1487L63.253 14.1448L63.2983 14.1395L62.9478 11.16ZM62.2117 11.224L61.9519 8.23528L61.9352 8.23673L61.9185 8.23837L62.2117 11.224ZM56.1958 20.288C56.0175 20.288 55.9826 20.2649 56.0415 20.2843C56.1144 20.3083 56.2709 20.3787 56.4313 20.537C56.5926 20.6962 56.6693 20.857 56.6981 20.9422C56.7218 21.0126 56.6997 20.9902 56.6997 20.824H50.6997C50.6997 22.1176 51.0307 23.6367 52.2162 24.807C53.3945 25.9702 54.911 26.288 56.1958 26.288V20.288ZM56.6997 20.824V9.464H50.6997V20.824H56.6997ZM56.6997 9.464C56.6997 9.09599 56.7899 9.37472 56.4412 9.73285C56.2762 9.90222 56.1051 9.98747 56.0034 10.0223C55.9171 10.0518 55.9212 10.032 56.0677 10.032V4.032C54.7954 4.032 53.2948 4.36352 52.1423 5.54715C51.0043 6.71594 50.6997 8.21067 50.6997 9.464H56.6997ZM56.0677 10.032C56.2144 10.032 56.2184 10.0518 56.1321 10.0223C56.0304 9.98747 55.8592 9.90222 55.6943 9.73285C55.3456 9.37472 55.4357 9.09599 55.4357 9.464H61.4358C61.4358 8.21067 61.1312 6.71594 59.9932 5.54715C58.8407 4.36352 57.3401 4.032 56.0677 4.032V10.032ZM55.4357 9.464V10.04H61.4358V9.464H55.4357ZM61.2169 11.1649C61.3891 10.7391 61.598 10.5184 61.8286 10.3699C62.0881 10.2027 62.5571 10.0138 63.3892 9.96226L63.0183 3.97374C61.4397 4.07152 59.9088 4.46931 58.5789 5.32611C57.2201 6.20157 56.2504 7.44224 55.6547 8.91506L61.2169 11.1649ZM63.443 9.95844C63.3988 9.96198 63.2067 9.97086 62.9367 9.87849C62.6439 9.77833 62.3655 9.59431 62.1527 9.34879L66.6868 5.41921C65.6221 4.19073 64.1709 3.88104 62.9645 3.97755L63.443 9.95844ZM62.2984 9.50532C62.0361 9.24301 61.9362 8.99158 61.9058 8.89612C61.8778 8.80849 61.8963 8.81799 61.9011 8.97887L67.8984 8.79713C67.8684 7.80704 67.6431 6.3647 66.5411 5.26268L62.2984 9.50532ZM61.906 9.08115C61.911 9.15834 61.8979 9.12052 61.9281 9.00669C61.9615 8.88061 62.0369 8.70608 62.1791 8.53545L66.7884 12.3766C67.7434 11.2306 67.9691 9.86644 67.8935 8.69485L61.906 9.08115ZM62.1157 8.61418C62.306 8.36945 62.5127 8.24462 62.6258 8.19281C62.7247 8.14747 62.7359 8.16423 62.5972 8.18055L63.2983 14.1395C64.4254 14.0068 65.8598 13.5732 66.8518 12.2978L62.1157 8.61418ZM62.6879 8.17128L61.9519 8.23528L62.4716 14.2127L63.2076 14.1487L62.6879 8.17128ZM61.9185 8.23837C60.3059 8.39674 58.6418 8.92905 57.3837 10.2095C56.0889 11.5275 55.6278 13.2238 55.6278 14.872H61.6277C61.6277 14.5899 61.6665 14.447 61.6833 14.399C61.6958 14.3634 61.6933 14.3844 61.6638 14.4145C61.6004 14.479 61.7282 14.2859 62.505 14.2096L61.9185 8.23837ZM55.6278 14.872V20.824H61.6277V14.872H55.6278ZM55.6278 20.824C55.6278 21.1927 55.5375 20.9162 55.8846 20.5646C56.0464 20.4007 56.2105 20.3219 56.2999 20.2917C56.3742 20.2666 56.3566 20.288 56.1958 20.288V26.288C57.4788 26.288 58.99 25.9596 60.1549 24.7794C61.3126 23.6064 61.6277 22.098 61.6277 20.824H55.6278ZM70.32 28.088L67.6933 29.5372L67.7015 29.5522L67.7099 29.567L70.32 28.088ZM70.384 25.912L73.1079 27.1692L73.1143 27.1552L73.1206 27.1412L70.384 25.912ZM72.08 22.136L74.8166 23.3652L75.3605 22.1543L74.8302 20.9374L72.08 22.136ZM66.864 10.168L64.0885 11.3067L64.1008 11.3368L64.1138 11.3666L66.864 10.168ZM66.864 7.992L64.2539 6.51296L64.2455 6.52782L64.2373 6.54277L66.864 7.992ZM70.384 7.448L68.4922 9.77634L68.571 9.84036L68.654 9.8989L70.384 7.448ZM71.376 8.952L74.1688 7.85637L74.1651 7.84709L74.1614 7.83783L71.376 8.952ZM74.64 17.272L71.8472 18.3676L74.5918 25.3635L77.4195 18.4008L74.64 17.272ZM78.032 8.92L75.258 7.77775L75.2552 7.78444L75.2525 7.79115L78.032 8.92ZM79.024 7.448L80.7541 9.8989L80.7673 9.88954L80.7805 9.88004L79.024 7.448ZM82.256 7.992L79.5727 9.33364L79.5999 9.38801L79.6293 9.44123L82.256 7.992ZM82.224 10.136L79.4855 8.9109L79.4822 8.9183L79.479 8.92571L82.224 10.136ZM74.704 27.192L77.4488 28.4029L77.449 28.4023L74.704 27.192ZM73.616 28.664L72.014 26.1275L71.9827 26.1473L71.9519 26.1679L73.616 28.664ZM72.144 26.048C72.0884 26.048 72.2264 26.0381 72.4452 26.1532C72.6861 26.28 72.849 26.4659 72.9301 26.609L67.7099 29.567C68.7001 31.3143 70.4173 32.048 72.144 32.048V26.048ZM72.9467 26.6388C72.9892 26.7158 73.0263 26.8077 73.0504 26.9091C73.0745 27.0101 73.0807 27.0994 73.0787 27.1682C73.0748 27.3009 73.0424 27.311 73.1079 27.1692L67.6601 24.6548C67.0068 26.0704 66.7589 27.8437 67.6933 29.5372L72.9467 26.6388ZM73.1206 27.1412L74.8166 23.3652L69.3434 20.9068L67.6474 24.6828L73.1206 27.1412ZM74.8302 20.9374L69.6142 8.9694L64.1138 11.3666L69.3298 23.3346L74.8302 20.9374ZM69.6395 9.02933C69.5827 8.89078 69.608 8.89067 69.608 9C69.608 9.0562 69.6011 9.1302 69.5797 9.21446C69.5582 9.29912 69.5266 9.37623 69.4907 9.44123L64.2373 6.54277C63.3414 8.16654 63.5047 9.88364 64.0885 11.3067L69.6395 9.02933ZM69.4741 9.47104C69.4062 9.59083 69.313 9.7092 69.1978 9.81178C69.0842 9.91303 68.9761 9.97507 68.898 10.0101C68.7568 10.0733 68.753 10.032 69.008 10.032V4.032C67.3988 4.032 65.3699 4.54354 64.2539 6.51296L69.4741 9.47104ZM69.008 10.032C69.0593 10.032 69.0181 10.0386 68.9158 10.0076C68.8055 9.97428 68.6503 9.90479 68.4922 9.77634L72.2758 5.11966C71.2535 4.28909 70.0576 4.032 69.008 4.032V10.032ZM68.654 9.8989C68.5442 9.8214 68.4737 9.75164 68.4372 9.71176C68.4009 9.67201 68.3899 9.65301 68.3997 9.66778C68.4091 9.68211 68.4327 9.7201 68.4673 9.78879C68.5017 9.85703 68.5434 9.9482 68.5906 10.0662L74.1614 7.83783C73.7984 6.93026 73.1986 5.76267 72.1141 4.9971L68.654 9.8989ZM68.5832 10.0476L71.8472 18.3676L77.4328 16.1764L74.1688 7.85637L68.5832 10.0476ZM77.4195 18.4008L80.8115 10.0488L75.2525 7.79115L71.8605 16.1432L77.4195 18.4008ZM80.806 10.0622C80.8522 9.95004 80.8929 9.86349 80.9263 9.7989C80.96 9.73392 80.9827 9.69802 80.9918 9.68456C81.0011 9.67074 80.9908 9.68832 80.9564 9.72535C80.9218 9.76255 80.856 9.82693 80.7541 9.8989L77.294 4.9971C76.2308 5.74758 75.6285 6.87798 75.258 7.77775L80.806 10.0622ZM80.7805 9.88004C80.646 9.97717 80.532 10.0177 80.4802 10.0317C80.4344 10.0441 80.4523 10.032 80.56 10.032V4.032C79.5073 4.032 78.3149 4.25953 77.2675 5.01596L80.7805 9.88004ZM80.56 10.032C80.5741 10.032 80.381 10.0338 80.1142 9.88277C79.8255 9.71936 79.6512 9.49069 79.5727 9.33364L84.9393 6.65036C84.5408 5.8533 83.9238 5.14464 83.0698 4.66123C82.2376 4.19019 81.3565 4.032 80.56 4.032V10.032ZM79.6293 9.44123C79.5919 9.3736 79.5576 9.29044 79.5342 9.19613C79.5109 9.10201 79.5033 9.0164 79.5043 8.94723C79.5064 8.81157 79.5397 8.78982 79.4855 8.9109L84.9625 11.3611C85.6004 9.9351 85.7943 8.195 84.8827 6.54276L79.6293 9.44123ZM79.479 8.92571L71.959 25.9817L77.449 28.4023L84.969 11.3463L79.479 8.92571ZM71.9593 25.9811C71.9129 26.0862 71.8725 26.1656 71.84 26.2234C71.8075 26.2815 71.7862 26.3117 71.7795 26.3208C71.7726 26.3301 71.785 26.3117 71.8208 26.277C71.8569 26.2419 71.9202 26.1868 72.014 26.1275L75.218 31.2005C76.3598 30.4793 77.03 29.352 77.4488 28.4029L71.9593 25.9811ZM71.9519 26.1679C72.0635 26.0934 72.157 26.0611 72.2027 26.0491C72.2439 26.0384 72.2311 26.048 72.144 26.048V32.048C73.161 32.048 74.277 31.8289 75.2801 31.1601L71.9519 26.1679Z" fill="#5B3511"/>
</g>
<defs>
<filter id="filter0_d_42_351" x="0.281494" y="0.0880127" width="83.4865" height="31.96" filterUnits="userSpaceOnUse" color-interpolation-filters="sRGB">
<feFlood flood-opacity="0" result="BackgroundImageFix"/>
<feColorMatrix in="SourceAlpha" type="matrix" values="0 0 0 0 0 0 0 0 0 0 0 0 0 0 0 0 0 0 127 0" result="hardAlpha"/>
<feOffset dy="2"/>
<feGaussianBlur stdDeviation="0.5"/>
<feComposite in2="hardAlpha" operator="out"/>
<feColorMatrix type="matrix" values="0 0 0 0 0 0 0 0 0 0 0 0 0 0 0 0 0 0 0.25 0"/>
<feBlend mode="normal" in2="BackgroundImageFix" result="effect1_dropShadow_42_351"/>
<feBlend mode="normal" in="SourceGraphic" in2="effect1_dropShadow_42_351" result="shape"/>
</filter>
<linearGradient id="paint0_linear_42_351" x1="41.5" y1="-13" x2="41.5" y2="37" gradientUnits="userSpaceOnUse">
<stop stop-color="#FDE092"/>
<stop offset="1" stop-color="#C18B2C"/>
</linearGradient>
</defs>
</svg>
