<svg width="195" height="38" viewBox="0 0 195 38" fill="none" xmlns="http://www.w3.org/2000/svg">
<g filter="url(#filter0_d_29_1754)">
<path d="M5.35625 34.432C4.14025 34.432 3.19625 34.096 2.52425 33.424C1.88425 32.752 1.56425 31.776 1.56425 30.496V4.048C1.56425 2.8 1.90025 1.84 2.57225 1.168C3.24425 0.495998 4.20425 0.159998 5.45225 0.159998H21.8683C22.8283 0.159998 23.5483 0.415998 24.0283 0.927999C24.5403 1.408 24.7963 2.112 24.7963 3.04C24.7963 4 24.5403 4.736 24.0283 5.248C23.5483 5.728 22.8283 5.968 21.8683 5.968H9.00425V14.224H20.8123C21.7723 14.224 22.5083 14.48 23.0203 14.992C23.5323 15.472 23.7883 16.176 23.7883 17.104C23.7883 18.032 23.5323 18.752 23.0203 19.264C22.5083 19.776 21.7723 20.032 20.8123 20.032H9.00425V30.496C9.00425 33.12 7.78825 34.432 5.35625 34.432ZM39.7584 34.528C36.9744 34.528 34.5744 34.032 32.5584 33.04C30.5744 32.016 29.0384 30.592 27.9504 28.768C26.8944 26.912 26.3664 24.736 26.3664 22.24C26.3664 19.808 26.8784 17.68 27.9024 15.856C28.9264 14 30.3504 12.56 32.1744 11.536C34.0304 10.48 36.1264 9.952 38.4624 9.952C40.1584 9.952 41.6944 10.24 43.0704 10.816C44.4464 11.36 45.6304 12.16 46.6224 13.216C47.6144 14.24 48.3664 15.504 48.8784 17.008C49.3904 18.48 49.6464 20.128 49.6464 21.952C49.6464 22.56 49.4544 23.024 49.0704 23.344C48.6864 23.632 48.1264 23.776 47.3904 23.776H32.3184V20.032H44.4144L43.6464 20.704C43.6464 19.392 43.4544 18.304 43.0704 17.44C42.6864 16.544 42.1264 15.872 41.3904 15.424C40.6864 14.976 39.8064 14.752 38.7504 14.752C37.5664 14.752 36.5584 15.024 35.7264 15.568C34.8944 16.112 34.2544 16.896 33.8064 17.92C33.3584 18.944 33.1344 20.176 33.1344 21.616V22C33.1344 24.432 33.6944 26.224 34.8144 27.376C35.9664 28.528 37.6624 29.104 39.9024 29.104C40.6704 29.104 41.5504 29.008 42.5424 28.816C43.5344 28.624 44.4624 28.32 45.3264 27.904C46.0624 27.552 46.7184 27.44 47.2944 27.568C47.8704 27.664 48.3184 27.92 48.6384 28.336C48.9584 28.752 49.1344 29.232 49.1664 29.776C49.2304 30.32 49.1184 30.864 48.8304 31.408C48.5424 31.92 48.0624 32.352 47.3904 32.704C46.3024 33.312 45.0704 33.76 43.6944 34.048C42.3504 34.368 41.0384 34.528 39.7584 34.528ZM61.8301 34.528C60.1021 34.528 58.5501 34.192 57.1741 33.52C55.7981 32.848 54.7261 31.936 53.9581 30.784C53.1901 29.632 52.8061 28.336 52.8061 26.896C52.8061 25.168 53.2541 23.808 54.1501 22.816C55.0461 21.792 56.5021 21.072 58.5181 20.656C60.5341 20.208 63.2061 19.984 66.5341 19.984H69.0781V23.728H66.5821C64.9501 23.728 63.6221 23.824 62.5981 24.016C61.6061 24.176 60.8861 24.464 60.4381 24.88C60.0221 25.296 59.8141 25.872 59.8141 26.608C59.8141 27.504 60.1181 28.24 60.7261 28.816C61.3661 29.392 62.2781 29.68 63.4621 29.68C64.3901 29.68 65.2061 29.472 65.9101 29.056C66.6461 28.608 67.2221 28.016 67.6381 27.28C68.0541 26.512 68.2621 25.648 68.2621 24.688V19.168C68.2621 17.76 67.9421 16.768 67.3021 16.192C66.6621 15.584 65.5741 15.28 64.0381 15.28C63.1741 15.28 62.2301 15.392 61.2061 15.616C60.2141 15.808 59.1101 16.144 57.8941 16.624C57.1901 16.944 56.5661 17.024 56.0221 16.864C55.4781 16.672 55.0621 16.352 54.7741 15.904C54.4861 15.424 54.3421 14.912 54.3421 14.368C54.3421 13.792 54.5021 13.248 54.8221 12.736C55.1421 12.192 55.6701 11.792 56.4061 11.536C57.9101 10.928 59.3181 10.512 60.6301 10.288C61.9741 10.064 63.2061 9.952 64.3261 9.952C66.7901 9.952 68.8061 10.32 70.3741 11.056C71.9741 11.76 73.1741 12.864 73.9741 14.368C74.7741 15.84 75.1741 17.744 75.1741 20.08V30.736C75.1741 31.92 74.8861 32.832 74.3101 33.472C73.7341 34.112 72.9021 34.432 71.8141 34.432C70.7261 34.432 69.8781 34.112 69.2701 33.472C68.6941 32.832 68.4061 31.92 68.4061 30.736V28.96L68.7421 29.248C68.5501 30.336 68.1341 31.28 67.4941 32.08C66.8861 32.848 66.1021 33.456 65.1421 33.904C64.1821 34.32 63.0781 34.528 61.8301 34.528ZM92.1489 34.528C89.9409 34.528 88.0849 34.16 86.5809 33.424C85.1089 32.688 84.0049 31.616 83.2689 30.208C82.5649 28.8 82.2129 27.024 82.2129 24.88V15.856H80.1969C79.3009 15.856 78.5969 15.616 78.0849 15.136C77.6049 14.656 77.3649 14 77.3649 13.168C77.3649 12.272 77.6049 11.6 78.0849 11.152C78.5969 10.672 79.3009 10.432 80.1969 10.432H82.2129V6.784C82.2129 5.568 82.5329 4.656 83.1729 4.048C83.8129 3.408 84.7089 3.088 85.8609 3.088C87.0449 3.088 87.9409 3.408 88.5489 4.048C89.1569 4.656 89.4609 5.568 89.4609 6.784V10.432H94.0209C94.9169 10.432 95.6049 10.672 96.0849 11.152C96.5649 11.6 96.8049 12.272 96.8049 13.168C96.8049 14 96.5649 14.656 96.0849 15.136C95.6049 15.616 94.9169 15.856 94.0209 15.856H89.4609V24.592C89.4609 25.936 89.7649 26.944 90.3729 27.616C91.0129 28.288 92.0209 28.624 93.3969 28.624C93.8769 28.624 94.3249 28.576 94.7409 28.48C95.1569 28.384 95.5409 28.32 95.8929 28.288C96.3409 28.256 96.7089 28.4 96.9969 28.72C97.2849 29.008 97.4289 29.664 97.4289 30.688C97.4289 31.456 97.3009 32.128 97.0449 32.704C96.7889 33.28 96.3409 33.696 95.7009 33.952C95.2849 34.112 94.7089 34.24 93.9729 34.336C93.2689 34.464 92.6609 34.528 92.1489 34.528ZM108.675 34.528C106.691 34.528 105.043 34.16 103.731 33.424C102.419 32.688 101.443 31.584 100.803 30.112C100.195 28.608 99.8911 26.752 99.8911 24.544V13.696C99.8911 12.48 100.195 11.568 100.803 10.96C101.443 10.352 102.339 10.048 103.491 10.048C104.643 10.048 105.539 10.352 106.179 10.96C106.819 11.568 107.139 12.48 107.139 13.696V24.736C107.139 26.144 107.427 27.2 108.003 27.904C108.579 28.576 109.491 28.912 110.739 28.912C112.115 28.912 113.235 28.432 114.099 27.472C114.995 26.48 115.443 25.184 115.443 23.584V13.696C115.443 12.48 115.747 11.568 116.355 10.96C116.995 10.352 117.891 10.048 119.043 10.048C120.227 10.048 121.123 10.352 121.731 10.96C122.371 11.568 122.691 12.48 122.691 13.696V30.736C122.691 33.2 121.523 34.432 119.187 34.432C118.035 34.432 117.155 34.112 116.547 33.472C115.939 32.832 115.635 31.92 115.635 30.736V27.52L116.355 29.392C115.651 31.024 114.643 32.288 113.331 33.184C112.019 34.08 110.467 34.528 108.675 34.528ZM132.044 34.432C130.828 34.432 129.9 34.112 129.26 33.472C128.62 32.832 128.3 31.92 128.3 30.736V13.696C128.3 12.512 128.604 11.616 129.212 11.008C129.852 10.368 130.732 10.048 131.852 10.048C133.004 10.048 133.884 10.368 134.492 11.008C135.1 11.616 135.404 12.512 135.404 13.696V16.192H134.924C135.308 14.272 136.156 12.784 137.468 11.728C138.78 10.672 140.476 10.08 142.556 9.952C143.356 9.888 143.964 10.096 144.38 10.576C144.828 11.024 145.068 11.776 145.1 12.832C145.164 13.824 144.956 14.608 144.476 15.184C144.028 15.76 143.26 16.112 142.172 16.24L141.068 16.336C139.244 16.496 137.884 17.024 136.988 17.92C136.124 18.816 135.692 20.112 135.692 21.808V30.736C135.692 31.92 135.372 32.832 134.732 33.472C134.124 34.112 133.228 34.432 132.044 34.432ZM159.899 34.528C157.115 34.528 154.715 34.032 152.699 33.04C150.715 32.016 149.179 30.592 148.091 28.768C147.035 26.912 146.507 24.736 146.507 22.24C146.507 19.808 147.019 17.68 148.043 15.856C149.067 14 150.491 12.56 152.315 11.536C154.171 10.48 156.267 9.952 158.603 9.952C160.299 9.952 161.835 10.24 163.211 10.816C164.587 11.36 165.771 12.16 166.763 13.216C167.755 14.24 168.507 15.504 169.019 17.008C169.531 18.48 169.787 20.128 169.787 21.952C169.787 22.56 169.595 23.024 169.211 23.344C168.827 23.632 168.267 23.776 167.531 23.776H152.459V20.032H164.555L163.787 20.704C163.787 19.392 163.595 18.304 163.211 17.44C162.827 16.544 162.267 15.872 161.531 15.424C160.827 14.976 159.947 14.752 158.891 14.752C157.707 14.752 156.699 15.024 155.867 15.568C155.035 16.112 154.395 16.896 153.947 17.92C153.499 18.944 153.275 20.176 153.275 21.616V22C153.275 24.432 153.835 26.224 154.955 27.376C156.107 28.528 157.803 29.104 160.043 29.104C160.811 29.104 161.691 29.008 162.683 28.816C163.675 28.624 164.603 28.32 165.467 27.904C166.203 27.552 166.859 27.44 167.435 27.568C168.011 27.664 168.459 27.92 168.779 28.336C169.099 28.752 169.275 29.232 169.307 29.776C169.371 30.32 169.259 30.864 168.971 31.408C168.683 31.92 168.203 32.352 167.531 32.704C166.443 33.312 165.211 33.76 163.835 34.048C162.491 34.368 161.179 34.528 159.899 34.528ZM183.027 34.528C181.619 34.528 180.163 34.4 178.659 34.144C177.187 33.888 175.843 33.456 174.627 32.848C173.987 32.528 173.523 32.128 173.235 31.648C172.979 31.136 172.867 30.624 172.899 30.112C172.931 29.6 173.091 29.136 173.379 28.72C173.699 28.304 174.099 28.032 174.579 27.904C175.091 27.744 175.651 27.792 176.259 28.048C177.571 28.592 178.771 28.976 179.859 29.2C180.947 29.424 182.019 29.536 183.075 29.536C184.451 29.536 185.443 29.328 186.051 28.912C186.691 28.464 187.011 27.888 187.011 27.184C187.011 26.544 186.803 26.064 186.387 25.744C185.971 25.424 185.363 25.2 184.563 25.072L179.523 24.16C177.539 23.808 176.003 23.088 174.915 22C173.859 20.88 173.331 19.456 173.331 17.728C173.331 16.128 173.779 14.752 174.675 13.6C175.571 12.416 176.803 11.52 178.371 10.912C179.971 10.272 181.779 9.952 183.795 9.952C185.235 9.952 186.563 10.08 187.779 10.336C188.995 10.592 190.163 11.008 191.283 11.584C191.859 11.872 192.259 12.256 192.483 12.736C192.739 13.216 192.819 13.712 192.723 14.224C192.659 14.736 192.467 15.2 192.147 15.616C191.827 16.032 191.411 16.304 190.899 16.432C190.419 16.56 189.859 16.496 189.219 16.24C188.195 15.76 187.251 15.424 186.387 15.232C185.523 15.008 184.691 14.896 183.891 14.896C182.451 14.896 181.411 15.136 180.771 15.616C180.131 16.064 179.811 16.64 179.811 17.344C179.811 17.888 179.987 18.352 180.339 18.736C180.723 19.088 181.299 19.328 182.067 19.456L187.107 20.368C189.187 20.72 190.771 21.424 191.859 22.48C192.947 23.504 193.491 24.912 193.491 26.704C193.491 29.136 192.531 31.056 190.611 32.464C188.723 33.84 186.195 34.528 183.027 34.528Z" fill="url(#paint0_linear_29_1754)"/>
<path d="M2.52425 33.424L0.351837 35.493L0.377064 35.5195L0.40293 35.5453L2.52425 33.424ZM2.57225 1.168L4.69357 3.28932L4.69357 3.28932L2.57225 1.168ZM24.0283 0.927999L21.8396 2.97982L21.9058 3.05042L21.9764 3.11661L24.0283 0.927999ZM9.00425 5.968V2.968H6.00425V5.968H9.00425ZM9.00425 14.224H6.00425V17.224H9.00425V14.224ZM23.0203 14.992L20.8989 17.1133L20.9331 17.1475L20.9684 17.1806L23.0203 14.992ZM23.0203 19.264L20.8989 17.1427L20.8989 17.1427L23.0203 19.264ZM9.00425 20.032V17.032H6.00425V20.032H9.00425ZM5.35625 31.432C5.02017 31.432 4.83066 31.3852 4.74222 31.3537C4.66637 31.3267 4.64965 31.3068 4.64557 31.3027L0.40293 35.5453C1.78332 36.9257 3.57769 37.432 5.35625 37.432V31.432ZM4.69666 31.355C4.76195 31.4236 4.56425 31.3017 4.56425 30.496H-1.43575C-1.43575 32.2503 -0.993448 34.0804 0.351837 35.493L4.69666 31.355ZM4.56425 30.496V4.048H-1.43575V30.496H4.56425ZM4.56425 4.048C4.56425 3.68761 4.61334 3.48157 4.64783 3.38305C4.6645 3.33541 4.67824 3.31123 4.68364 3.30248C4.68867 3.29434 4.69139 3.2915 4.69357 3.28932L0.450932 -0.953323C-0.94351 0.441116 -1.43575 2.26318 -1.43575 4.048H4.56425ZM4.69357 3.28932C4.69575 3.28714 4.69859 3.28442 4.70673 3.27939C4.71549 3.27398 4.73966 3.26025 4.7873 3.24357C4.88582 3.20909 5.09186 3.16 5.45225 3.16V-2.84C3.66743 -2.84 1.84537 -2.34776 0.450928 -0.95332L4.69357 3.28932ZM5.45225 3.16H21.8683V-2.84H5.45225V3.16ZM21.8683 3.16C22.0898 3.16 22.1565 3.19049 22.1232 3.17864C22.1039 3.17178 22.0614 3.15424 22.0061 3.11881C21.9498 3.0828 21.8923 3.03595 21.8396 2.97982L26.2169 -1.12382C24.985 -2.43778 23.342 -2.84 21.8683 -2.84V3.16ZM21.9764 3.11661C21.9265 3.06983 21.8826 3.01692 21.8474 2.96257C21.8126 2.9089 21.7937 2.8654 21.7849 2.84123C21.7687 2.79672 21.7962 2.84527 21.7962 3.04H27.7962C27.7962 1.56253 27.3747 -0.0469398 26.0801 -1.26061L21.9764 3.11661ZM21.7962 3.04C21.7962 3.25939 21.7664 3.3391 21.7708 3.32644C21.7736 3.3183 21.7845 3.28994 21.8093 3.24971C21.8344 3.2088 21.8675 3.16612 21.9069 3.12668L26.1496 7.36932C27.3891 6.12977 27.7962 4.52728 27.7962 3.04H21.7962ZM21.9069 3.12668C21.9657 3.06796 22.0259 3.02282 22.0798 2.99052C22.1325 2.95886 22.1693 2.94538 22.1796 2.94195C22.1889 2.93883 22.1714 2.94567 22.119 2.95315C22.0664 2.96067 21.9844 2.968 21.8683 2.968V8.968C23.2907 8.968 24.9085 8.61036 26.1496 7.36932L21.9069 3.12668ZM21.8683 2.968H9.00425V8.968H21.8683V2.968ZM6.00425 5.968V14.224H12.0043V5.968H6.00425ZM9.00425 17.224H20.8123V11.224H9.00425V17.224ZM20.8123 17.224C21.0316 17.224 21.1114 17.2539 21.0987 17.2495C21.0905 17.2467 21.0622 17.2357 21.022 17.211C20.981 17.1858 20.9384 17.1528 20.8989 17.1133L25.1416 12.8707C23.902 11.6311 22.2995 11.224 20.8123 11.224V17.224ZM20.9684 17.1806C20.9185 17.1338 20.8746 17.0809 20.8394 17.0266C20.8046 16.9729 20.7857 16.9294 20.7769 16.9052C20.7607 16.8607 20.7883 16.9093 20.7883 17.104H26.7883C26.7883 15.6265 26.3667 14.0171 25.0721 12.8034L20.9684 17.1806ZM20.7883 17.104C20.7883 17.2966 20.7613 17.3584 20.7696 17.335C20.7742 17.3221 20.7863 17.2927 20.8104 17.254C20.8348 17.2148 20.8652 17.1765 20.8989 17.1427L25.1416 21.3853C26.3629 20.164 26.7883 18.5929 26.7883 17.104H20.7883ZM20.8989 17.1427C20.9384 17.1032 20.981 17.0702 21.022 17.045C21.0622 17.0203 21.0905 17.0093 21.0987 17.0065C21.1114 17.0021 21.0316 17.032 20.8123 17.032V23.032C22.2995 23.032 23.902 22.6249 25.1416 21.3853L20.8989 17.1427ZM20.8123 17.032H9.00425V23.032H20.8123V17.032ZM6.00425 20.032V30.496H12.0043V20.032H6.00425ZM6.00425 30.496C6.00425 31.3998 5.79014 31.5186 5.89196 31.4087C5.94133 31.3554 5.97955 31.3477 5.93697 31.363C5.87763 31.3844 5.70261 31.432 5.35625 31.432V37.432C7.09564 37.432 8.93485 36.9522 10.2925 35.4873C11.6104 34.0654 12.0043 32.2162 12.0043 30.496H6.00425ZM32.5584 33.04L31.1824 35.7059L31.208 35.7191L31.2339 35.7318L32.5584 33.04ZM27.9504 28.768L25.3429 30.2516L25.3581 30.2784L25.3739 30.3048L27.9504 28.768ZM27.9024 15.856L30.5183 17.3246L30.5238 17.3149L30.5291 17.3052L27.9024 15.856ZM32.1744 11.536L33.643 14.152L33.6505 14.1477L33.6579 14.1435L32.1744 11.536ZM43.0704 10.816L41.912 13.5833L41.9396 13.5949L41.9674 13.6059L43.0704 10.816ZM46.6224 13.216L44.4358 15.27L44.4516 15.2868L44.4677 15.3034L46.6224 13.216ZM48.8784 17.008L46.0384 17.9748L46.0416 17.9842L46.0449 17.9936L48.8784 17.008ZM49.0704 23.344L50.8704 25.744L50.9319 25.6979L50.9909 25.6487L49.0704 23.344ZM32.3184 23.776H29.3184V26.776H32.3184V23.776ZM32.3184 20.032V17.032H29.3184V20.032H32.3184ZM44.4144 20.032L46.3899 22.2897L52.3987 17.032H44.4144V20.032ZM43.6464 20.704H40.6464V27.3153L45.6219 22.9617L43.6464 20.704ZM43.0704 17.44L40.3129 18.6218L40.3208 18.6401L40.3289 18.6584L43.0704 17.44ZM41.3904 15.424L39.7797 17.955L39.805 17.971L39.8305 17.9866L41.3904 15.424ZM35.7264 15.568L37.3681 18.0789L37.3681 18.0789L35.7264 15.568ZM34.8144 27.376L32.6634 29.4672L32.6781 29.4824L32.6931 29.4973L34.8144 27.376ZM42.5424 28.816L43.1124 31.7613L42.5424 28.816ZM45.3264 27.904L44.032 25.1976L44.0249 25.201L45.3264 27.904ZM47.2944 27.568L46.6436 30.4966L46.722 30.514L46.8012 30.5272L47.2944 27.568ZM49.1664 29.776L46.1716 29.9522L46.1767 30.0396L46.1869 30.1265L49.1664 29.776ZM48.8304 31.408L51.4451 32.8788L51.4638 32.8455L51.4817 32.8117L48.8304 31.408ZM47.3904 32.704L45.9984 30.0465L45.9624 30.0654L45.9269 30.0852L47.3904 32.704ZM43.6944 34.048L43.0798 31.1116L43.0395 31.1201L42.9995 31.1296L43.6944 34.048ZM39.7584 31.528C37.3262 31.528 35.4002 31.0948 33.8829 30.3482L31.2339 35.7318C33.7486 36.9692 36.6226 37.528 39.7584 37.528V31.528ZM33.9343 30.3741C32.4213 29.5932 31.3129 28.549 30.5268 27.2312L25.3739 30.3048C26.7639 32.635 28.7274 34.4388 31.1824 35.7059L33.9343 30.3741ZM30.5579 27.2844C29.7996 25.9517 29.3664 24.3043 29.3664 22.24H23.3664C23.3664 25.1677 23.9891 27.8723 25.3429 30.2516L30.5579 27.2844ZM29.3664 22.24C29.3664 20.238 29.7844 18.6319 30.5183 17.3246L25.2864 14.3874C23.9723 16.7281 23.3664 19.378 23.3664 22.24H29.3664ZM30.5291 17.3052C31.287 15.9315 32.313 14.8986 33.643 14.152L30.7058 8.92005C28.3878 10.2214 26.5657 12.0685 25.2756 14.4068L30.5291 17.3052ZM33.6579 14.1435C35.0201 13.3685 36.5964 12.952 38.4624 12.952V6.952C35.6564 6.952 33.0407 7.59152 30.6908 8.92851L33.6579 14.1435ZM38.4624 12.952C39.8148 12.952 40.9497 13.1805 41.912 13.5833L44.2288 8.04868C42.439 7.29946 40.5019 6.952 38.4624 6.952V12.952ZM41.9674 13.6059C42.9414 13.991 43.753 14.5431 44.4358 15.27L48.8089 11.162C47.5078 9.77689 45.9513 8.72904 44.1734 8.02612L41.9674 13.6059ZM44.4677 15.3034C45.1176 15.9743 45.6528 16.842 46.0384 17.9748L51.7183 16.0412C51.08 14.166 50.1112 12.5057 48.7771 11.1286L44.4677 15.3034ZM46.0449 17.9936C46.4297 19.0999 46.6464 20.4076 46.6464 21.952H52.6464C52.6464 19.8484 52.3511 17.8601 51.7119 16.0224L46.0449 17.9936ZM46.6464 21.952C46.6464 21.9433 46.6477 21.8086 46.7303 21.6089C46.8193 21.3939 46.9666 21.192 47.1498 21.0393L50.9909 25.6487C52.2063 24.6358 52.6464 23.2388 52.6464 21.952H46.6464ZM47.2704 20.944C47.4501 20.8092 47.5907 20.7688 47.6153 20.7625C47.6351 20.7574 47.5713 20.776 47.3904 20.776V26.776C48.4493 26.776 49.7558 26.5799 50.8704 25.744L47.2704 20.944ZM47.3904 20.776H32.3184V26.776H47.3904V20.776ZM35.3184 23.776V20.032H29.3184V23.776H35.3184ZM32.3184 23.032H44.4144V17.032H32.3184V23.032ZM42.4389 17.7743L41.6709 18.4463L45.6219 22.9617L46.3899 22.2897L42.4389 17.7743ZM46.6464 20.704C46.6464 19.1245 46.4188 17.5874 45.8118 16.2216L40.3289 18.6584C40.4899 19.0206 40.6464 19.6595 40.6464 20.704H46.6464ZM45.8278 16.2582C45.2316 14.867 44.2879 13.6756 42.9502 12.8614L39.8305 17.9866C39.9649 18.0684 40.1412 18.221 40.3129 18.6218L45.8278 16.2582ZM43.001 12.893C41.7028 12.0669 40.2265 11.752 38.7504 11.752V17.752C39.3862 17.752 39.67 17.8851 39.7797 17.955L43.001 12.893ZM38.7504 11.752C37.0963 11.752 35.4915 12.1372 34.0846 13.0571L37.3681 18.0789C37.6253 17.9108 38.0364 17.752 38.7504 17.752V11.752ZM34.0846 13.0571C32.7052 13.959 31.7097 15.2277 31.0579 16.7175L36.5548 19.1225C36.7991 18.5643 37.0836 18.265 37.3681 18.0789L34.0846 13.0571ZM31.0579 16.7175C30.4036 18.2132 30.1344 19.8766 30.1344 21.616H36.1344C36.1344 20.4754 36.3132 19.6748 36.5548 19.1225L31.0579 16.7175ZM30.1344 21.616V22H36.1344V21.616H30.1344ZM30.1344 22C30.1344 24.8197 30.7755 27.5254 32.6634 29.4672L36.9654 25.2848C36.6132 24.9226 36.1344 24.0443 36.1344 22H30.1344ZM32.6931 29.4973C34.5917 31.3959 37.1715 32.104 39.9024 32.104V26.104C38.1532 26.104 37.3411 25.6601 36.9357 25.2547L32.6931 29.4973ZM39.9024 32.104C40.9106 32.104 41.9877 31.979 43.1124 31.7613L41.9723 25.8707C41.1131 26.037 40.4301 26.104 39.9024 26.104V32.104ZM43.1124 31.7613C44.3441 31.523 45.5193 31.1407 46.6278 30.607L44.0249 25.201C43.4054 25.4993 42.7247 25.725 41.9723 25.8707L43.1124 31.7613ZM46.6207 30.6104C46.7048 30.5702 46.7683 30.5456 46.8121 30.531C46.8557 30.5165 46.8762 30.5131 46.8753 30.5132C46.8739 30.5134 46.8505 30.5173 46.8084 30.5167C46.7656 30.5162 46.7092 30.5111 46.6436 30.4966L47.9452 24.6394C46.5039 24.3191 45.145 24.6653 44.032 25.1976L46.6207 30.6104ZM46.8012 30.5272C46.7847 30.5244 46.6959 30.5064 46.574 30.4367C46.447 30.3642 46.3385 30.2665 46.2605 30.1651L51.0163 26.5069C50.18 25.4198 49.0208 24.8144 47.7876 24.6088L46.8012 30.5272ZM46.2605 30.1651C46.2396 30.138 46.2135 30.0946 46.1937 30.0408C46.1846 30.0158 46.1788 29.994 46.1754 29.9772C46.172 29.9605 46.1715 29.9516 46.1716 29.9522L52.1612 29.5998C52.0953 28.4798 51.7175 27.4186 51.0163 26.5069L46.2605 30.1651ZM46.1869 30.1265C46.1842 30.1033 46.1831 30.0779 46.1843 30.0518C46.1854 30.0258 46.1886 30.0037 46.192 29.987C46.1992 29.9523 46.2042 29.9568 46.179 30.0043L51.4817 32.8117C52.0179 31.7989 52.2896 30.6473 52.1458 29.4255L46.1869 30.1265ZM46.2156 29.9372C46.2467 29.882 46.2689 29.8668 46.2475 29.8861C46.2228 29.9083 46.1499 29.9671 45.9984 30.0465L48.7824 35.3615C49.8202 34.8179 50.8007 34.0244 51.4451 32.8788L46.2156 29.9372ZM45.9269 30.0852C45.1356 30.5274 44.1959 30.878 43.0798 31.1116L44.309 36.9844C45.9449 36.642 47.4691 36.0966 48.8538 35.3228L45.9269 30.0852ZM42.9995 31.1296C41.8653 31.3996 40.7867 31.528 39.7584 31.528V37.528C41.2901 37.528 42.8355 37.3364 44.3892 36.9664L42.9995 31.1296ZM57.1741 33.52L58.4906 30.8243L57.1741 33.52ZM53.9581 30.784L51.462 32.4481L53.9581 30.784ZM54.1501 22.816L56.3764 24.8269L56.3923 24.8093L56.4079 24.7915L54.1501 22.816ZM58.5181 20.656L59.1244 23.5941L59.1467 23.5895L59.1689 23.5846L58.5181 20.656ZM69.0781 19.984H72.0781V16.984H69.0781V19.984ZM69.0781 23.728V26.728H72.0781V23.728H69.0781ZM62.5981 24.016L63.0758 26.9777L63.1135 26.9716L63.151 26.9646L62.5981 24.016ZM60.4381 24.88L58.3968 22.6816L58.3561 22.7194L58.3168 22.7587L60.4381 24.88ZM60.7261 28.816L58.6629 30.9939L58.6907 31.0202L58.7192 31.0459L60.7261 28.816ZM65.9101 29.056L67.4363 31.6388L67.4532 31.6288L67.47 31.6186L65.9101 29.056ZM67.6381 27.28L70.2498 28.7562L70.2631 28.7326L70.276 28.7088L67.6381 27.28ZM67.3021 16.192L65.2359 18.367L65.2652 18.3948L65.2952 18.4219L67.3021 16.192ZM61.2061 15.616L61.7762 18.5613L61.8118 18.5544L61.8472 18.5467L61.2061 15.616ZM57.8941 16.624L56.7926 13.8335L56.7219 13.8614L56.6527 13.8929L57.8941 16.624ZM56.0221 16.864L55.0237 19.693L55.099 19.7196L55.1756 19.7421L56.0221 16.864ZM54.7741 15.904L52.2016 17.4475L52.2255 17.4873L52.2506 17.5263L54.7741 15.904ZM54.8221 12.736L57.3661 14.326L57.3875 14.2918L57.4079 14.2571L54.8221 12.736ZM56.4061 11.536L57.3917 14.3695L57.4617 14.3451L57.5305 14.3173L56.4061 11.536ZM60.6301 10.288L60.1369 7.32879L60.1252 7.33079L60.6301 10.288ZM70.3741 11.056L69.0994 13.7717L69.1325 13.7872L69.1659 13.8019L70.3741 11.056ZM73.9741 14.368L71.3255 15.7768L71.3318 15.7887L71.3382 15.8005L73.9741 14.368ZM74.3101 33.472L72.0802 31.4651L74.3101 33.472ZM69.2701 33.472L67.0402 35.4789L67.0673 35.5089L67.0951 35.5382L69.2701 33.472ZM68.4061 28.96L70.3585 26.6822L65.4061 22.4373V28.96H68.4061ZM68.7421 29.248L71.6965 29.7694L71.9939 28.084L70.6945 26.9702L68.7421 29.248ZM67.4941 32.08L65.1515 30.2059L65.1467 30.2119L65.142 30.2179L67.4941 32.08ZM65.1421 33.904L66.3349 36.6567L66.3731 36.6401L66.4108 36.6226L65.1421 33.904ZM61.8301 31.528C60.4994 31.528 59.4067 31.2717 58.4906 30.8243L55.8576 36.2157C57.6935 37.1123 59.7048 37.528 61.8301 37.528V31.528ZM58.4906 30.8243C57.5403 30.3602 56.8969 29.7838 56.4543 29.1199L51.462 32.4481C52.5554 34.0882 54.0559 35.3358 55.8576 36.2157L58.4906 30.8243ZM56.4543 29.1199C56.0285 28.4812 55.8061 27.7688 55.8061 26.896H49.8061C49.8061 28.9032 50.3518 30.7828 51.462 32.4481L56.4543 29.1199ZM55.8061 26.896C55.8061 25.6873 56.1104 25.1214 56.3764 24.8269L51.9238 20.8051C50.3979 22.4946 49.8061 24.6487 49.8061 26.896H55.8061ZM56.4079 24.7915C56.7023 24.455 57.4375 23.9422 59.1244 23.5941L57.9118 17.7179C55.5668 18.2018 53.39 19.129 51.8924 20.8405L56.4079 24.7915ZM59.1689 23.5846C60.8821 23.2038 63.3095 22.984 66.5341 22.984V16.984C63.1027 16.984 60.1861 17.2122 57.8673 17.7274L59.1689 23.5846ZM66.5341 22.984H69.0781V16.984H66.5341V22.984ZM66.0781 19.984V23.728H72.0781V19.984H66.0781ZM69.0781 20.728H66.5821V26.728H69.0781V20.728ZM66.5821 20.728C64.8561 20.728 63.3236 20.8277 62.0453 21.0674L63.151 26.9646C63.9206 26.8203 65.0441 26.728 66.5821 26.728V20.728ZM62.1204 21.0543C60.8837 21.2537 59.4771 21.6785 58.3968 22.6816L62.4795 27.0784C62.3714 27.1787 62.3228 27.1796 62.4283 27.1374C62.5334 27.0954 62.7375 27.0323 63.0758 26.9777L62.1204 21.0543ZM58.3168 22.7587C57.2048 23.8707 56.8141 25.2873 56.8141 26.608H62.8141C62.8141 26.5193 62.8269 26.5457 62.7918 26.6429C62.7524 26.7519 62.6759 26.8849 62.5594 27.0013L58.3168 22.7587ZM56.8141 26.608C56.8141 28.2635 57.4118 29.8086 58.6629 30.9939L62.7894 26.6381C62.7791 26.6284 62.7819 26.6293 62.7905 26.6417C62.7945 26.6475 62.799 26.6546 62.8035 26.6629C62.808 26.6711 62.8118 26.6792 62.8149 26.6867C62.8215 26.7027 62.822 26.709 62.8204 26.7006C62.8187 26.6915 62.8141 26.6622 62.8141 26.608H56.8141ZM58.7192 31.0459C60.0875 32.2774 61.8166 32.68 63.4621 32.68V26.68C62.7396 26.68 62.6447 26.5066 62.733 26.5861L58.7192 31.0459ZM63.4621 32.68C64.8532 32.68 66.2104 32.3632 67.4363 31.6388L64.3839 26.4732C64.2019 26.5808 63.9271 26.68 63.4621 26.68V32.68ZM67.47 31.6186C68.6348 30.9095 69.5767 29.947 70.2498 28.7562L65.0264 25.8038C64.8675 26.085 64.6574 26.3065 64.3503 26.4934L67.47 31.6186ZM70.276 28.7088C70.9526 27.4597 71.2621 26.0964 71.2621 24.688H65.2621C65.2621 25.1996 65.1556 25.5643 65.0003 25.8512L70.276 28.7088ZM71.2621 24.688V19.168H65.2621V24.688H71.2621ZM71.2621 19.168C71.2621 17.4331 70.8868 15.3821 69.309 13.9621L65.2952 18.4219C65.1469 18.2883 65.1352 18.1906 65.167 18.289C65.204 18.4037 65.2621 18.6746 65.2621 19.168H71.2621ZM69.3684 14.017C67.8811 12.6041 65.8192 12.28 64.0381 12.28V18.28C64.624 18.28 64.9927 18.3397 65.1988 18.3973C65.3996 18.4534 65.3564 18.4815 65.2359 18.367L69.3684 14.017ZM64.0381 12.28C62.9187 12.28 61.7567 12.4246 60.565 12.6853L61.8472 18.5467C62.7035 18.3594 63.4296 18.28 64.0381 18.28V12.28ZM60.6361 12.6707C59.4187 12.9063 58.1334 13.3043 56.7926 13.8335L58.9956 19.4145C60.0868 18.9837 61.0095 18.7097 61.7762 18.5613L60.6361 12.6707ZM56.6527 13.8929C56.5135 13.9562 56.4724 13.954 56.5166 13.9484C56.5407 13.9453 56.5866 13.9417 56.6501 13.946C56.7145 13.9504 56.7889 13.9625 56.8686 13.9859L55.1756 19.7421C56.6268 20.1689 58.0151 19.8644 59.1355 19.3551L56.6527 13.8929ZM57.0206 14.035C57.0181 14.0342 57.0643 14.0506 57.1313 14.1021C57.2005 14.1554 57.2581 14.2202 57.2977 14.2817L52.2506 17.5263C52.9295 18.5824 53.9071 19.2989 55.0237 19.693L57.0206 14.035ZM57.3466 14.3605C57.3391 14.3479 57.3361 14.3412 57.3356 14.3402C57.3352 14.3393 57.3365 14.342 57.3381 14.3478C57.3397 14.3535 57.3409 14.3595 57.3416 14.3647C57.3423 14.3698 57.3421 14.3712 57.3421 14.368H51.3421C51.3421 15.472 51.6424 16.5154 52.2016 17.4475L57.3466 14.3605ZM57.3421 14.368C57.3421 14.3634 57.3424 14.3632 57.342 14.3663C57.3415 14.3694 57.3408 14.3725 57.3402 14.3745C57.3396 14.3765 57.3401 14.3743 57.3432 14.3674C57.3464 14.3604 57.3532 14.3466 57.3661 14.326L52.2781 11.146C51.6752 12.1107 51.3421 13.202 51.3421 14.368H57.3421ZM57.4079 14.2571C57.3858 14.2946 57.36 14.3296 57.3329 14.3598C57.306 14.3898 57.2831 14.4092 57.2697 14.4193C57.2435 14.4391 57.2695 14.412 57.3917 14.3695L55.4206 8.70251C54.1757 9.1355 52.9961 9.92328 52.2363 11.2149L57.4079 14.2571ZM57.5305 14.3173C58.8766 13.7732 60.0754 13.4261 61.135 13.2452L60.1252 7.33079C58.5609 7.59787 56.9437 8.08283 55.2818 8.75467L57.5305 14.3173ZM61.1233 13.2472C62.3379 13.0448 63.4022 12.952 64.3261 12.952V6.952C63.01 6.952 61.6103 7.08325 60.1369 7.32882L61.1233 13.2472ZM64.3261 12.952C66.5227 12.952 68.0619 13.2847 69.0994 13.7717L71.6488 8.34029C69.5503 7.35528 67.0576 6.952 64.3261 6.952V12.952ZM69.1659 13.8019C70.1667 14.2423 70.8507 14.8842 71.3255 15.7768L76.6227 12.9592C75.4975 10.8438 73.7816 9.27771 71.5823 8.31005L69.1659 13.8019ZM71.3382 15.8005C71.8237 16.6937 72.1741 18.0576 72.1741 20.08H78.1741C78.1741 17.4304 77.7246 14.9863 76.61 12.9355L71.3382 15.8005ZM72.1741 20.08V30.736H78.1741V20.08H72.1741ZM72.1741 30.736C72.1741 31.4585 72.0008 31.5534 72.0802 31.4651L76.54 35.4789C77.7715 34.1106 78.1741 32.3815 78.1741 30.736H72.1741ZM72.0802 31.4651C72.095 31.4487 72.1159 31.4299 72.1401 31.4133C72.164 31.397 72.1791 31.3912 72.1772 31.392C72.1714 31.3942 72.0686 31.432 71.8141 31.432V37.432C73.5126 37.432 75.2522 36.9098 76.54 35.4789L72.0802 31.4651ZM71.8141 31.432C71.5613 31.432 71.4465 31.3947 71.4213 31.3852C71.4091 31.3806 71.4117 31.3803 71.4225 31.3874C71.4335 31.3947 71.4418 31.4022 71.4451 31.4058L67.0951 35.5382C68.3965 36.9081 70.1083 37.432 71.8141 37.432V31.432ZM71.5 31.4651C71.5795 31.5534 71.4061 31.4585 71.4061 30.736H65.4061C65.4061 32.3815 65.8088 34.1106 67.0402 35.4789L71.5 31.4651ZM71.4061 30.736V28.96H65.4061V30.736H71.4061ZM66.4538 31.2378L66.7897 31.5258L70.6945 26.9702L70.3585 26.6822L66.4538 31.2378ZM65.7878 28.7266C65.6761 29.3595 65.4531 29.8289 65.1515 30.2059L69.8367 33.9541C70.8151 32.7311 71.4242 31.3125 71.6965 29.7694L65.7878 28.7266ZM65.142 30.2179C64.8468 30.5908 64.4458 30.9184 63.8735 31.1855L66.4108 36.6226C67.7585 35.9936 68.9255 35.1052 69.8463 33.9421L65.142 30.2179ZM63.9493 31.1513C63.4311 31.3759 62.7455 31.528 61.8301 31.528V37.528C63.4107 37.528 64.9331 37.2641 66.3349 36.6567L63.9493 31.1513ZM86.5809 33.424L85.2392 36.1073L85.2507 36.113L85.2622 36.1186L86.5809 33.424ZM83.2689 30.208L80.5856 31.5496L80.5977 31.5738L80.6102 31.5978L83.2689 30.208ZM82.2129 15.856H85.2129V12.856H82.2129V15.856ZM78.0849 15.136L75.9636 17.2573L75.9978 17.2915L76.0331 17.3246L78.0849 15.136ZM78.0849 11.152L80.1318 13.3452L80.1367 13.3406L78.0849 11.152ZM82.2129 10.432V13.432H85.2129V10.432H82.2129ZM83.1729 4.048L85.2391 6.223L85.267 6.19651L85.2942 6.16932L83.1729 4.048ZM88.5489 4.048L86.3739 6.11424L86.4004 6.14213L86.4276 6.16932L88.5489 4.048ZM89.4609 10.432H86.4609V13.432H89.4609V10.432ZM96.0849 11.152L93.9636 13.2733L94.0001 13.3099L94.0379 13.3452L96.0849 11.152ZM89.4609 15.856V12.856H86.4609V15.856H89.4609ZM90.3729 27.616L88.1483 29.6287L88.174 29.6572L88.2005 29.685L90.3729 27.616ZM94.7409 28.48L95.4155 31.4032L95.4155 31.4032L94.7409 28.48ZM95.8929 28.288L95.6791 25.2956L95.6502 25.2977L95.6213 25.3003L95.8929 28.288ZM96.9969 28.72L94.767 30.7269L94.8198 30.7855L94.8756 30.8413L96.9969 28.72ZM97.0449 32.704L99.7863 33.9224V33.9224L97.0449 32.704ZM95.7009 33.952L96.7778 36.752L96.7965 36.7449L96.815 36.7374L95.7009 33.952ZM93.9729 34.336L93.5849 31.3612L93.5102 31.3709L93.4362 31.3844L93.9729 34.336ZM92.1489 31.528C90.2584 31.528 88.8837 31.211 87.8995 30.7294L85.2622 36.1186C87.286 37.109 89.6234 37.528 92.1489 37.528V31.528ZM87.9225 30.7407C86.993 30.2759 86.3604 29.6463 85.9276 28.8182L80.6102 31.5978C81.6493 33.5857 83.2248 35.1001 85.2392 36.1073L87.9225 30.7407ZM85.9522 28.8664C85.5178 27.9976 85.2129 26.7182 85.2129 24.88H79.2129C79.2129 27.3298 79.6119 29.6024 80.5856 31.5496L85.9522 28.8664ZM85.2129 24.88V15.856H79.2129V24.88H85.2129ZM82.2129 12.856H80.1969V18.856H82.2129V12.856ZM80.1969 12.856C80.0129 12.856 79.9489 12.831 79.9649 12.8365C79.9739 12.8395 79.9988 12.8491 80.0333 12.8696C80.0683 12.8903 80.104 12.9167 80.1367 12.9474L76.0331 17.3246C77.2426 18.4585 78.7577 18.856 80.1969 18.856V12.856ZM80.2062 13.0147C80.2408 13.0493 80.2745 13.0908 80.3038 13.137C80.3329 13.1829 80.3514 13.2237 80.3622 13.2533C80.3837 13.3118 80.3649 13.2979 80.3649 13.168H74.3649C74.3649 14.6048 74.799 16.0928 75.9636 17.2573L80.2062 13.0147ZM80.3649 13.168C80.3649 12.9797 80.391 12.9424 80.3701 13.001C80.3587 13.0329 80.3355 13.0868 80.2934 13.1523C80.2507 13.2187 80.1963 13.285 80.1318 13.3452L76.0379 8.95883C74.7533 10.1579 74.3649 11.7545 74.3649 13.168H80.3649ZM80.1367 13.3406C80.104 13.3713 80.0683 13.3977 80.0334 13.4184C79.9988 13.4389 79.9739 13.4485 79.9649 13.4515C79.9489 13.457 80.0129 13.432 80.1969 13.432V7.432C78.7577 7.432 77.2426 7.82945 76.0331 8.96339L80.1367 13.3406ZM80.1969 13.432H82.2129V7.432H80.1969V13.432ZM85.2129 10.432V6.784H79.2129V10.432H85.2129ZM85.2129 6.784C85.2129 6.43074 85.2603 6.2478 85.2837 6.18126C85.3014 6.13084 85.2959 6.16902 85.2391 6.223L81.1066 1.873C79.6728 3.23511 79.2129 5.06518 79.2129 6.784H85.2129ZM85.2942 6.16932C85.2945 6.16906 85.2938 6.16973 85.2924 6.1708C85.2911 6.17187 85.2904 6.1723 85.2909 6.17199C85.2909 6.17197 85.3029 6.1643 85.3339 6.15322C85.3979 6.13035 85.5585 6.088 85.8609 6.088V0.0879974C84.1411 0.0879974 82.3971 0.58117 81.0516 1.92668L85.2942 6.16932ZM85.8609 6.088C86.1897 6.088 86.3559 6.13323 86.4119 6.15322C86.4523 6.16767 86.4185 6.16121 86.3739 6.11424L90.7239 1.98175C89.3759 0.562813 87.5756 0.0879974 85.8609 0.0879974V6.088ZM86.4276 6.16932C86.3651 6.10683 86.3645 6.0698 86.3868 6.13668C86.414 6.21809 86.4609 6.41705 86.4609 6.784H92.4609C92.4609 5.10556 92.0392 3.29572 90.6702 1.92668L86.4276 6.16932ZM86.4609 6.784V10.432H92.4609V6.784H86.4609ZM89.4609 13.432H94.0209V7.432H89.4609V13.432ZM94.0209 13.432C94.2069 13.432 94.2578 13.4575 94.2208 13.4446C94.2005 13.4375 94.1614 13.4215 94.1116 13.3908C94.0612 13.3597 94.0102 13.32 93.9636 13.2733L98.2062 9.03068C97.001 7.8255 95.4486 7.432 94.0209 7.432V13.432ZM94.0379 13.3452C93.9735 13.285 93.919 13.2187 93.8763 13.1523C93.8342 13.0868 93.811 13.0329 93.7997 13.001C93.7787 12.9424 93.8049 12.9797 93.8049 13.168H99.8049C99.8049 11.7545 99.4165 10.1579 98.1318 8.95883L94.0379 13.3452ZM93.8049 13.168C93.8049 13.2979 93.7861 13.3118 93.8075 13.2533C93.8183 13.2237 93.8368 13.1829 93.866 13.137C93.8952 13.0908 93.929 13.0493 93.9636 13.0147L98.2062 17.2573C99.3708 16.0928 99.8049 14.6048 99.8049 13.168H93.8049ZM93.9636 13.0147C94.0102 12.968 94.0612 12.9283 94.1116 12.8972C94.1614 12.8665 94.2005 12.8505 94.2208 12.8434C94.2578 12.8305 94.2069 12.856 94.0209 12.856V18.856C95.4486 18.856 97.001 18.4625 98.2062 17.2573L93.9636 13.0147ZM94.0209 12.856H89.4609V18.856H94.0209V12.856ZM86.4609 15.856V24.592H92.4609V15.856H86.4609ZM86.4609 24.592C86.4609 26.3284 86.8472 28.1907 88.1483 29.6287L92.5975 25.6033C92.6826 25.6973 92.4609 25.5436 92.4609 24.592H86.4609ZM88.2005 29.685C89.6317 31.1878 91.5963 31.624 93.3969 31.624V25.624C92.9414 25.624 92.6806 25.567 92.5576 25.526C92.4508 25.4904 92.4808 25.4793 92.5453 25.547L88.2005 29.685ZM93.3969 31.624C94.0763 31.624 94.7529 31.5561 95.4155 31.4032L94.0663 25.5568C93.8969 25.5959 93.6774 25.624 93.3969 25.624V31.624ZM95.4155 31.4032C95.725 31.3317 95.9725 31.2931 96.1645 31.2757L95.6213 25.3003C95.1092 25.3469 94.5887 25.4363 94.0663 25.5568L95.4155 31.4032ZM96.1066 31.2804C95.9466 31.2918 95.6965 31.2772 95.4117 31.1657C95.1227 31.0527 94.907 30.8825 94.767 30.7269L99.2268 26.7131C98.2893 25.6715 97.0036 25.201 95.6791 25.2956L96.1066 31.2804ZM94.8756 30.8413C94.6364 30.6021 94.5136 30.375 94.458 30.2534C94.4017 30.1305 94.3878 30.0583 94.3906 30.0712C94.3926 30.0803 94.4033 30.1341 94.4128 30.2452C94.4222 30.3543 94.4289 30.5001 94.4289 30.688H100.429C100.429 30.0598 100.387 29.4034 100.251 28.7848C100.128 28.2236 99.8524 27.3329 99.1182 26.5987L94.8756 30.8413ZM94.4289 30.688C94.4289 31.1259 94.356 31.3674 94.3034 31.4856L99.7863 33.9224C100.246 32.8886 100.429 31.7861 100.429 30.688H94.4289ZM94.3034 31.4856C94.3349 31.4147 94.393 31.3262 94.4755 31.2496C94.5541 31.1767 94.6076 31.1582 94.5867 31.1666L96.815 36.7374C98.1065 36.2208 99.1817 35.2829 99.7863 33.9224L94.3034 31.4856ZM94.6239 31.152C94.5278 31.1889 94.2188 31.2785 93.5849 31.3612L94.3609 37.3108C95.1989 37.2015 96.042 37.0351 96.7778 36.752L94.6239 31.152ZM93.4362 31.3844C92.8453 31.4918 92.4258 31.528 92.1489 31.528V37.528C92.8959 37.528 93.6924 37.4362 94.5095 37.2876L93.4362 31.3844ZM103.731 33.424L105.199 30.8076L103.731 33.424ZM100.803 30.112L98.0218 31.2364L98.0364 31.2725L98.0519 31.3082L100.803 30.112ZM100.803 10.96L98.7369 8.785L98.709 8.81149L98.6818 8.83868L100.803 10.96ZM106.179 10.96L104.113 13.135L106.179 10.96ZM108.003 27.904L105.681 29.8037L105.703 29.8303L105.725 29.8564L108.003 27.904ZM114.099 27.472L111.873 25.4611L111.869 25.4651L114.099 27.472ZM116.355 10.96L114.289 8.785L114.261 8.81149L114.234 8.83868L116.355 10.96ZM121.731 10.96L119.61 13.0813L119.637 13.1085L119.665 13.135L121.731 10.96ZM116.547 33.472L118.722 31.4058L116.547 33.472ZM115.635 27.52L118.435 26.4431L112.635 27.52H115.635ZM116.355 29.392L119.11 30.5803L119.594 29.4569L119.155 28.3151L116.355 29.392ZM113.331 33.184L115.023 35.6614L113.331 33.184ZM108.675 31.528C107.046 31.528 105.942 31.2244 105.199 30.8076L102.263 36.0404C104.144 37.0956 106.336 37.528 108.675 37.528V31.528ZM105.199 30.8076C104.498 30.4143 103.952 29.8299 103.554 28.9158L98.0519 31.3082C98.9345 33.3381 100.34 34.9617 102.263 36.0404L105.199 30.8076ZM103.584 28.9876C103.163 27.9446 102.891 26.497 102.891 24.544H96.8911C96.8911 27.007 97.2274 29.2714 98.0218 31.2364L103.584 28.9876ZM102.891 24.544V13.696H96.8911V24.544H102.891ZM102.891 13.696C102.891 13.329 102.938 13.1301 102.965 13.0487C102.987 12.9818 102.987 13.0188 102.924 13.0813L98.6818 8.83868C97.3128 10.2077 96.8911 12.0176 96.8911 13.696H102.891ZM102.869 13.135C102.852 13.1513 102.852 13.1396 102.919 13.1169C102.997 13.0903 103.174 13.048 103.491 13.048V7.048C101.812 7.048 100.088 7.50117 98.7369 8.785L102.869 13.135ZM103.491 13.048C103.808 13.048 103.985 13.0903 104.063 13.1169C104.13 13.1396 104.13 13.1513 104.113 13.135L108.245 8.785C106.894 7.50117 105.17 7.048 103.491 7.048V13.048ZM104.113 13.135C104.056 13.081 104.051 13.0428 104.068 13.0933C104.092 13.1598 104.139 13.3427 104.139 13.696H110.139C110.139 11.9772 109.679 10.1471 108.245 8.785L104.113 13.135ZM104.139 13.696V24.736H110.139V13.696H104.139ZM104.139 24.736C104.139 26.4766 104.483 28.3391 105.681 29.8037L110.325 26.0043C110.371 26.0609 110.139 25.8114 110.139 24.736H104.139ZM105.725 29.8564C107.076 31.432 108.988 31.912 110.739 31.912V25.912C110.373 25.912 110.201 25.8614 110.156 25.845C110.138 25.8381 110.15 25.8405 110.181 25.8612C110.212 25.8828 110.248 25.9137 110.281 25.9516L105.725 29.8564ZM110.739 31.912C112.903 31.912 114.855 31.1162 116.329 29.4789L111.869 25.4651C111.615 25.7478 111.327 25.912 110.739 25.912V31.912ZM116.325 29.4829C117.814 27.8348 118.443 25.7726 118.443 23.584H112.443C112.443 24.5954 112.176 25.1252 111.873 25.4611L116.325 29.4829ZM118.443 23.584V13.696H112.443V23.584H118.443ZM118.443 13.696C118.443 13.329 118.49 13.1301 118.517 13.0487C118.539 12.9818 118.539 13.0188 118.476 13.0813L114.234 8.83868C112.865 10.2077 112.443 12.0176 112.443 13.696H118.443ZM118.421 13.135C118.404 13.1513 118.404 13.1396 118.471 13.1169C118.549 13.0903 118.726 13.048 119.043 13.048V7.048C117.364 7.048 115.64 7.50117 114.289 8.785L118.421 13.135ZM119.043 13.048C119.386 13.048 119.568 13.0929 119.639 13.1169C119.696 13.1361 119.663 13.1344 119.61 13.0813L123.852 8.83868C122.497 7.48328 120.716 7.048 119.043 7.048V13.048ZM119.665 13.135C119.608 13.081 119.603 13.0428 119.62 13.0933C119.644 13.1598 119.691 13.3427 119.691 13.696H125.691C125.691 11.9772 125.231 10.1471 123.797 8.785L119.665 13.135ZM119.691 13.696V30.736H125.691V13.696H119.691ZM119.691 30.736C119.691 31.5443 119.497 31.5931 119.638 31.444C119.704 31.3748 119.757 31.3597 119.725 31.3708C119.677 31.3877 119.516 31.432 119.187 31.432V37.432C120.86 37.432 122.654 36.9831 123.992 35.572C125.302 34.1909 125.691 32.3917 125.691 30.736H119.691ZM119.187 31.432C118.883 31.432 118.734 31.3892 118.688 31.3726C118.658 31.3614 118.687 31.3688 118.722 31.4058L114.372 35.5382C115.705 36.9416 117.476 37.432 119.187 37.432V31.432ZM118.722 31.4058C118.747 31.4322 118.735 31.4358 118.709 31.3593C118.68 31.2706 118.635 31.0773 118.635 30.736H112.635C112.635 32.4206 113.075 34.1725 114.372 35.5382L118.722 31.4058ZM118.635 30.736V27.52H112.635V30.736H118.635ZM112.835 28.5969L113.555 30.4689L119.155 28.3151L118.435 26.4431L112.835 28.5969ZM113.6 28.2037C113.094 29.3779 112.428 30.1681 111.639 30.7066L115.023 35.6614C116.858 34.4079 118.208 32.6701 119.11 30.5803L113.6 28.2037ZM111.639 30.7066C110.888 31.2196 109.943 31.528 108.675 31.528V37.528C110.991 37.528 113.15 36.9404 115.023 35.6614L111.639 30.7066ZM129.26 33.472L127.138 35.5933L129.26 33.472ZM129.212 11.008L127.09 8.88668V8.88668L129.212 11.008ZM134.492 11.008L132.317 13.0742L132.343 13.1021L132.37 13.1293L134.492 11.008ZM135.404 16.192V19.192H138.404V16.192H135.404ZM134.924 16.192L131.982 15.6037L131.264 19.192H134.924V16.192ZM142.556 9.952L142.74 12.9463L142.767 12.9446L142.795 12.9424L142.556 9.952ZM144.38 10.576L142.113 12.5408L142.183 12.6217L142.258 12.6973L144.38 10.576ZM145.1 12.832L142.101 12.9229L142.103 12.974L142.106 13.0251L145.1 12.832ZM144.476 15.184L142.171 13.2634L142.139 13.3023L142.108 13.3422L144.476 15.184ZM142.172 16.24L142.432 19.2287L142.477 19.2248L142.522 19.2195L142.172 16.24ZM141.068 16.336L140.808 13.3473L140.805 13.3475L141.068 16.336ZM136.988 17.92L134.866 15.7987L134.847 15.818L134.828 15.8376L136.988 17.92ZM134.732 33.472L132.61 31.3507L132.583 31.3779L132.557 31.4058L134.732 33.472ZM132.044 31.432C131.692 31.432 131.498 31.385 131.414 31.3559C131.343 31.3315 131.352 31.3221 131.381 31.3507L127.138 35.5933C128.513 36.9679 130.314 37.432 132.044 37.432V31.432ZM131.381 31.3507C131.4 31.3701 131.392 31.3757 131.37 31.3147C131.344 31.2405 131.3 31.0632 131.3 30.736H125.3C125.3 32.4606 125.778 34.2329 127.138 35.5933L131.381 31.3507ZM131.3 30.736V13.696H125.3V30.736H131.3ZM131.3 13.696C131.3 13.353 131.345 13.1707 131.369 13.0999C131.388 13.0434 131.386 13.0762 131.333 13.1293L127.09 8.88668C125.735 10.2421 125.3 12.0227 125.3 13.696H131.3ZM131.333 13.1293C131.337 13.1254 131.338 13.1249 131.339 13.1245C131.34 13.1238 131.35 13.117 131.377 13.1074C131.431 13.0877 131.575 13.048 131.852 13.048V7.048C130.136 7.048 128.42 7.55676 127.09 8.88668L131.333 13.1293ZM131.852 13.048C132.156 13.048 132.305 13.0908 132.35 13.1074C132.381 13.1186 132.352 13.1112 132.317 13.0742L136.667 8.94175C135.333 7.5384 133.563 7.048 131.852 7.048V13.048ZM132.37 13.1293C132.317 13.0762 132.316 13.0434 132.335 13.0999C132.359 13.1707 132.404 13.353 132.404 13.696H138.404C138.404 12.0227 137.968 10.2421 136.613 8.88668L132.37 13.1293ZM132.404 13.696V16.192H138.404V13.696H132.404ZM135.404 13.192H134.924V19.192H135.404V13.192ZM137.865 16.7803C138.135 15.4315 138.671 14.6104 139.349 14.065L135.587 9.39096C133.64 10.9576 132.48 13.1125 131.982 15.6037L137.865 16.7803ZM139.349 14.065C140.072 13.4826 141.131 13.0453 142.74 12.9463L142.371 6.95766C139.82 7.11466 137.487 7.86138 135.587 9.39096L139.349 14.065ZM142.795 12.9424C142.884 12.9353 142.809 12.9562 142.641 12.8985C142.449 12.833 142.256 12.7063 142.113 12.5408L146.647 8.61121C145.443 7.22272 143.789 6.84371 142.316 6.96155L142.795 12.9424ZM142.258 12.6973C142.071 12.5097 142.028 12.3583 142.038 12.3881C142.042 12.4024 142.056 12.4511 142.07 12.5433C142.084 12.6351 142.096 12.76 142.101 12.9229L148.098 12.7411C148.058 11.399 147.752 9.70603 146.501 8.45468L142.258 12.6973ZM142.106 13.0251C142.121 13.2677 142.096 13.3779 142.092 13.3947C142.09 13.4014 142.093 13.387 142.108 13.3588C142.122 13.3299 142.144 13.2964 142.171 13.2634L146.78 17.1046C147.895 15.7666 148.19 14.1411 148.093 12.6389L142.106 13.0251ZM142.108 13.3422C142.162 13.2727 142.216 13.2223 142.26 13.1891C142.302 13.1571 142.324 13.1479 142.314 13.1528C142.285 13.1661 142.141 13.2229 141.821 13.2605L142.522 19.2195C144.012 19.0442 145.702 18.4932 146.844 17.0258L142.108 13.3422ZM141.912 13.2513L140.808 13.3473L141.328 19.3247L142.432 19.2287L141.912 13.2513ZM140.805 13.3475C138.585 13.5423 136.442 14.2233 134.866 15.7987L139.109 20.0413C139.326 19.8247 139.903 19.4497 141.33 19.3245L140.805 13.3475ZM134.828 15.8376C133.254 17.47 132.692 19.6223 132.692 21.808H138.692C138.692 20.6017 138.993 20.162 139.147 20.0024L134.828 15.8376ZM132.692 21.808V30.736H138.692V21.808H132.692ZM132.692 30.736C132.692 31.0632 132.647 31.2405 132.621 31.3147C132.599 31.3757 132.591 31.3701 132.61 31.3507L136.853 35.5933C138.213 34.2329 138.692 32.4606 138.692 30.736H132.692ZM132.557 31.4058C132.601 31.3588 132.635 31.3523 132.595 31.3668C132.539 31.3868 132.372 31.432 132.044 31.432V37.432C133.758 37.432 135.559 36.9572 136.907 35.5382L132.557 31.4058ZM152.699 33.04L151.323 35.7059L151.349 35.7191L151.374 35.7318L152.699 33.04ZM148.091 28.768L145.484 30.2516L145.499 30.2784L145.515 30.3048L148.091 28.768ZM148.043 15.856L150.659 17.3246L150.664 17.3149L150.67 17.3052L148.043 15.856ZM152.315 11.536L153.784 14.152L153.791 14.1477L153.799 14.1435L152.315 11.536ZM163.211 10.816L162.053 13.5833L162.08 13.5949L162.108 13.6059L163.211 10.816ZM166.763 13.216L164.576 15.27L164.592 15.2868L164.608 15.3034L166.763 13.216ZM169.019 17.008L166.179 17.9748L166.182 17.9842L166.186 17.9936L169.019 17.008ZM169.211 23.344L171.011 25.744L171.072 25.6979L171.132 25.6487L169.211 23.344ZM152.459 23.776H149.459V26.776H152.459V23.776ZM152.459 20.032V17.032H149.459V20.032H152.459ZM164.555 20.032L166.531 22.2897L172.539 17.032H164.555V20.032ZM163.787 20.704H160.787V27.3153L165.763 22.9617L163.787 20.704ZM163.211 17.44L160.454 18.6218L160.461 18.6401L160.47 18.6584L163.211 17.44ZM161.531 15.424L159.92 17.955L159.946 17.971L159.971 17.9866L161.531 15.424ZM155.867 15.568L157.509 18.0789V18.0789L155.867 15.568ZM154.955 27.376L152.804 29.4672L152.819 29.4824L152.834 29.4973L154.955 27.376ZM162.683 28.816L163.253 31.7613L162.683 28.816ZM165.467 27.904L164.173 25.1976L164.166 25.201L165.467 27.904ZM167.435 27.568L166.784 30.4966L166.863 30.514L166.942 30.5272L167.435 27.568ZM169.307 29.776L166.312 29.9522L166.317 30.0396L166.328 30.1265L169.307 29.776ZM168.971 31.408L171.586 32.8788L171.604 32.8455L171.622 32.8117L168.971 31.408ZM167.531 32.704L166.139 30.0465L166.103 30.0654L166.068 30.0852L167.531 32.704ZM163.835 34.048L163.22 31.1116L163.18 31.1201L163.14 31.1296L163.835 34.048ZM159.899 31.528C157.467 31.528 155.541 31.0948 154.024 30.3482L151.374 35.7318C153.889 36.9692 156.763 37.528 159.899 37.528V31.528ZM154.075 30.3741C152.562 29.5932 151.454 28.549 150.667 27.2312L145.515 30.3048C146.904 32.635 148.868 34.4388 151.323 35.7059L154.075 30.3741ZM150.698 27.2844C149.94 25.9517 149.507 24.3043 149.507 22.24H143.507C143.507 25.1677 144.13 27.8723 145.484 30.2516L150.698 27.2844ZM149.507 22.24C149.507 20.238 149.925 18.6319 150.659 17.3246L145.427 14.3874C144.113 16.7281 143.507 19.378 143.507 22.24H149.507ZM150.67 17.3052C151.428 15.9315 152.454 14.8986 153.784 14.152L150.846 8.92005C148.528 10.2214 146.706 12.0685 145.416 14.4068L150.67 17.3052ZM153.799 14.1435C155.161 13.3685 156.737 12.952 158.603 12.952V6.952C155.797 6.952 153.181 7.59152 150.831 8.92851L153.799 14.1435ZM158.603 12.952C159.955 12.952 161.09 13.1805 162.053 13.5833L164.369 8.04868C162.58 7.29946 160.643 6.952 158.603 6.952V12.952ZM162.108 13.6059C163.082 13.991 163.894 14.5431 164.576 15.27L168.95 11.162C167.648 9.77689 166.092 8.72904 164.314 8.02612L162.108 13.6059ZM164.608 15.3034C165.258 15.9743 165.793 16.842 166.179 17.9748L171.859 16.0412C171.221 14.166 170.252 12.5057 168.918 11.1286L164.608 15.3034ZM166.186 17.9936C166.57 19.0999 166.787 20.4076 166.787 21.952H172.787C172.787 19.8484 172.492 17.8601 171.852 16.0224L166.186 17.9936ZM166.787 21.952C166.787 21.9433 166.788 21.8086 166.871 21.6089C166.96 21.3939 167.107 21.192 167.29 21.0393L171.132 25.6487C172.347 24.6358 172.787 23.2388 172.787 21.952H166.787ZM167.411 20.944C167.591 20.8092 167.731 20.7688 167.756 20.7625C167.776 20.7574 167.712 20.776 167.531 20.776V26.776C168.59 26.776 169.896 26.5799 171.011 25.744L167.411 20.944ZM167.531 20.776H152.459V26.776H167.531V20.776ZM155.459 23.776V20.032H149.459V23.776H155.459ZM152.459 23.032H164.555V17.032H152.459V23.032ZM162.579 17.7743L161.811 18.4463L165.763 22.9617L166.531 22.2897L162.579 17.7743ZM166.787 20.704C166.787 19.1245 166.559 17.5874 165.952 16.2216L160.47 18.6584C160.631 19.0206 160.787 19.6595 160.787 20.704H166.787ZM165.968 16.2582C165.372 14.867 164.428 13.6756 163.091 12.8614L159.971 17.9866C160.106 18.0684 160.282 18.221 160.454 18.6218L165.968 16.2582ZM163.142 12.893C161.843 12.0669 160.367 11.752 158.891 11.752V17.752C159.527 17.752 159.811 17.8851 159.92 17.955L163.142 12.893ZM158.891 11.752C157.237 11.752 155.632 12.1372 154.225 13.0571L157.509 18.0789C157.766 17.9108 158.177 17.752 158.891 17.752V11.752ZM154.225 13.0571C152.846 13.959 151.85 15.2277 151.199 16.7175L156.695 19.1225C156.94 18.5643 157.224 18.265 157.509 18.0789L154.225 13.0571ZM151.199 16.7175C150.544 18.2132 150.275 19.8766 150.275 21.616H156.275C156.275 20.4754 156.454 19.6748 156.695 19.1225L151.199 16.7175ZM150.275 21.616V22H156.275V21.616H150.275ZM150.275 22C150.275 24.8197 150.916 27.5254 152.804 29.4672L157.106 25.2848C156.754 24.9226 156.275 24.0443 156.275 22H150.275ZM152.834 29.4973C154.732 31.3959 157.312 32.104 160.043 32.104V26.104C158.294 26.104 157.482 25.6601 157.076 25.2547L152.834 29.4973ZM160.043 32.104C161.051 32.104 162.128 31.979 163.253 31.7613L162.113 25.8707C161.254 26.037 160.571 26.104 160.043 26.104V32.104ZM163.253 31.7613C164.485 31.523 165.66 31.1407 166.768 30.607L164.166 25.201C163.546 25.4993 162.865 25.725 162.113 25.8707L163.253 31.7613ZM166.761 30.6104C166.845 30.5702 166.909 30.5456 166.953 30.531C166.996 30.5165 167.017 30.5131 167.016 30.5132C167.014 30.5134 166.991 30.5173 166.949 30.5167C166.906 30.5162 166.85 30.5111 166.784 30.4966L168.086 24.6394C166.645 24.3191 165.286 24.6653 164.173 25.1976L166.761 30.6104ZM166.942 30.5272C166.925 30.5244 166.837 30.5064 166.715 30.4367C166.588 30.3642 166.479 30.2665 166.401 30.1651L171.157 26.5069C170.321 25.4198 169.161 24.8144 167.928 24.6088L166.942 30.5272ZM166.401 30.1651C166.38 30.138 166.354 30.0946 166.334 30.0408C166.325 30.0158 166.319 29.994 166.316 29.9772C166.313 29.9605 166.312 29.9516 166.312 29.9522L172.302 29.5998C172.236 28.4798 171.858 27.4186 171.157 26.5069L166.401 30.1651ZM166.328 30.1265C166.325 30.1033 166.324 30.0779 166.325 30.0518C166.326 30.0258 166.329 30.0037 166.333 29.987C166.34 29.9523 166.345 29.9568 166.32 30.0043L171.622 32.8117C172.159 31.7989 172.43 30.6473 172.286 29.4255L166.328 30.1265ZM166.356 29.9372C166.387 29.882 166.41 29.8668 166.388 29.8861C166.363 29.9083 166.291 29.9671 166.139 30.0465L168.923 35.3615C169.961 34.8179 170.941 34.0244 171.586 32.8788L166.356 29.9372ZM166.068 30.0852C165.276 30.5274 164.336 30.878 163.22 31.1116L164.45 36.9844C166.086 36.642 167.61 36.0966 168.994 35.3228L166.068 30.0852ZM163.14 31.1296C162.006 31.3996 160.927 31.528 159.899 31.528V37.528C161.431 37.528 162.976 37.3364 164.53 36.9664L163.14 31.1296ZM178.659 34.144L178.145 37.0997L178.155 37.1015L178.659 34.144ZM174.627 32.848L173.285 35.5313L174.627 32.848ZM173.235 31.648L170.551 32.9896L170.603 33.0927L170.662 33.1915L173.235 31.648ZM172.899 30.112L169.905 29.9249L172.899 30.112ZM173.379 28.72L171.001 26.8909L170.955 26.9505L170.912 27.0124L173.379 28.72ZM174.579 27.904L175.352 30.8027L175.413 30.7864L175.474 30.7674L174.579 27.904ZM176.259 28.048L175.095 30.8129L175.102 30.8161L175.11 30.8192L176.259 28.048ZM179.859 29.2L179.254 32.1384L179.859 29.2ZM186.051 28.912L187.745 31.3879L187.758 31.3789L187.771 31.3697L186.051 28.912ZM184.563 25.072L184.029 28.0241L184.059 28.0295L184.089 28.0343L184.563 25.072ZM179.523 24.16L180.057 21.2079L180.047 21.2061L179.523 24.16ZM174.915 22L172.732 24.058L172.762 24.0901L172.793 24.1213L174.915 22ZM174.675 13.6L177.043 15.4418L177.055 15.4262L177.067 15.4103L174.675 13.6ZM178.371 10.912L179.455 13.7091L179.47 13.7033L179.485 13.6974L178.371 10.912ZM187.779 10.336L188.397 7.40035L187.779 10.336ZM191.283 11.584L189.911 14.2519L189.926 14.2597L189.941 14.2673L191.283 11.584ZM192.483 12.736L189.764 14.0047L189.798 14.0772L189.836 14.1478L192.483 12.736ZM192.723 14.224L189.774 13.6711L189.757 13.7611L189.746 13.8519L192.723 14.224ZM190.899 16.432L190.171 13.5216L190.148 13.5273L190.126 13.5333L190.899 16.432ZM189.219 16.24L187.945 18.9564L188.024 18.9932L188.105 19.0254L189.219 16.24ZM186.387 15.232L185.634 18.136L185.685 18.1492L185.736 18.1606L186.387 15.232ZM180.771 15.616L182.491 18.0737L182.531 18.0455L182.571 18.016L180.771 15.616ZM180.339 18.736L178.127 20.7632L178.215 20.8593L178.312 20.9475L180.339 18.736ZM182.067 19.456L182.601 16.5039L182.58 16.5002L182.56 16.4968L182.067 19.456ZM187.107 20.368L186.573 23.3201L186.589 23.3231L186.606 23.3259L187.107 20.368ZM191.859 22.48L189.769 24.6327L189.786 24.6488L189.803 24.6646L191.859 22.48ZM190.611 32.464L192.378 34.8884L192.385 34.8832L190.611 32.464ZM183.027 31.528C181.801 31.528 180.514 31.4166 179.162 31.1865L178.155 37.1015C179.812 37.3834 181.437 37.528 183.027 37.528V31.528ZM179.173 31.1884C177.96 30.9775 176.899 30.6299 175.968 30.1647L173.285 35.5313C174.787 36.2821 176.413 36.7985 178.145 37.0996L179.173 31.1884ZM175.968 30.1647C175.834 30.0976 175.773 30.0493 175.758 30.0358C175.745 30.0248 175.772 30.0458 175.807 30.1045L170.662 33.1915C171.315 34.28 172.275 35.0264 173.285 35.5313L175.968 30.1647ZM175.918 30.3064C175.904 30.279 175.897 30.2601 175.893 30.2494C175.889 30.2388 175.889 30.2355 175.889 30.2389C175.89 30.2424 175.892 30.2505 175.893 30.2623C175.894 30.2742 175.894 30.2868 175.893 30.2991L169.905 29.9249C169.836 31.0242 170.087 32.0605 170.551 32.9896L175.918 30.3064ZM175.893 30.2991C175.893 30.2986 175.893 30.3047 175.89 30.3161C175.888 30.3275 175.884 30.3419 175.879 30.358C175.867 30.3928 175.852 30.4174 175.845 30.4276L170.912 27.0124C170.309 27.8842 169.97 28.8754 169.905 29.9249L175.893 30.2991ZM175.757 30.5491C175.739 30.5722 175.691 30.627 175.606 30.6848C175.519 30.7436 175.429 30.7822 175.352 30.8027L173.806 25.0053C172.65 25.3135 171.699 25.9831 171.001 26.8909L175.757 30.5491ZM175.474 30.7674C175.34 30.8092 175.216 30.8167 175.127 30.809C175.045 30.8021 175.031 30.786 175.095 30.8129L177.423 25.2831C176.317 24.8176 175.018 24.6238 173.684 25.0406L175.474 30.7674ZM175.11 30.8192C176.551 31.417 177.936 31.8672 179.254 32.1384L180.464 26.2616C179.605 26.0848 178.59 25.767 177.408 25.2768L175.11 30.8192ZM179.254 32.1384C180.531 32.4012 181.805 32.536 183.075 32.536V26.536C182.232 26.536 181.363 26.4468 180.464 26.2616L179.254 32.1384ZM183.075 32.536C184.606 32.536 186.364 32.3324 187.745 31.3879L184.357 26.4361C184.476 26.3544 184.481 26.3924 184.235 26.4438C183.999 26.4934 183.624 26.536 183.075 26.536V32.536ZM187.771 31.3697C189.111 30.4321 190.011 28.9858 190.011 27.184H184.011C184.011 27.0622 184.044 26.8752 184.148 26.6871C184.247 26.5102 184.346 26.4432 184.33 26.4543L187.771 31.3697ZM190.011 27.184C190.011 25.8401 189.533 24.3797 188.216 23.3661L184.558 28.1219C184.364 27.9726 184.201 27.7654 184.102 27.5368C184.011 27.3262 184.011 27.185 184.011 27.184H190.011ZM188.216 23.3661C187.246 22.6198 186.086 22.2775 185.037 22.1097L184.089 28.0343C184.342 28.0749 184.499 28.1205 184.582 28.151C184.665 28.1818 184.639 28.1842 184.558 28.1219L188.216 23.3661ZM185.097 22.1199L180.057 21.2079L178.989 27.1121L184.029 28.0241L185.097 22.1199ZM180.047 21.2061C178.482 20.9285 177.573 20.4155 177.036 19.8787L172.793 24.1213C174.433 25.7605 176.595 26.6875 178.999 27.1139L180.047 21.2061ZM177.098 19.942C176.632 19.4484 176.331 18.7924 176.331 17.728H170.331C170.331 20.1196 171.085 22.3116 172.732 24.058L177.098 19.942ZM176.331 17.728C176.331 16.7269 176.596 16.0158 177.043 15.4418L172.307 11.7582C170.961 13.4882 170.331 15.5291 170.331 17.728H176.331ZM177.067 15.4103C177.584 14.7269 178.336 14.1432 179.455 13.7091L177.286 8.11491C175.27 8.8968 173.557 10.1051 172.283 11.7897L177.067 15.4103ZM179.485 13.6974C180.676 13.2211 182.097 12.952 183.795 12.952V6.952C181.461 6.952 179.266 7.32291 177.257 8.12657L179.485 13.6974ZM183.795 12.952C185.059 12.952 186.177 13.0645 187.161 13.2716L188.397 7.40035C186.949 7.09545 185.41 6.952 183.795 6.952V12.952ZM187.161 13.2716C188.111 13.4717 189.026 13.7967 189.911 14.2519L192.655 8.91614C191.3 8.21928 189.879 7.71229 188.397 7.40035L187.161 13.2716ZM189.941 14.2673C190.002 14.2975 189.987 14.2998 189.937 14.2522C189.883 14.1999 189.816 14.1157 189.764 14.0047L195.201 11.4673C194.633 10.2501 193.671 9.42406 192.624 8.90072L189.941 14.2673ZM189.836 14.1478C189.821 14.12 189.79 14.0502 189.773 13.9457C189.756 13.8395 189.761 13.7426 189.774 13.6711L195.671 14.7769C195.899 13.5634 195.691 12.377 195.13 11.3242L189.836 14.1478ZM189.746 13.8519C189.746 13.8519 189.746 13.8506 189.747 13.8481C189.747 13.8455 189.748 13.8421 189.749 13.8379C189.751 13.829 189.755 13.8191 189.759 13.8089C189.763 13.7988 189.767 13.7911 189.77 13.7863C189.772 13.7816 189.773 13.7818 189.769 13.7869L194.525 17.4451C195.165 16.6131 195.568 15.6479 195.7 14.5961L189.746 13.8519ZM189.769 13.7869C189.803 13.7429 189.864 13.6795 189.953 13.6211C190.042 13.5628 190.122 13.5337 190.171 13.5216L191.626 19.3424C192.791 19.0514 193.79 18.4005 194.525 17.4451L189.769 13.7869ZM190.126 13.5333C190.294 13.4884 190.416 13.4945 190.459 13.4994C190.496 13.5036 190.458 13.5045 190.333 13.4546L188.105 19.0254C189.117 19.4305 190.366 19.679 191.672 19.3307L190.126 13.5333ZM190.492 13.5236C189.321 12.9747 188.166 12.5542 187.038 12.3034L185.736 18.1606C186.336 18.2938 187.069 18.5453 187.945 18.9564L190.492 13.5236ZM187.14 12.328C186.058 12.0475 184.972 11.896 183.891 11.896V17.896C184.409 17.896 184.988 17.9685 185.634 18.136L187.14 12.328ZM183.891 11.896C182.258 11.896 180.404 12.1409 178.971 13.216L182.571 18.016C182.464 18.0958 182.464 18.0549 182.705 17.9992C182.943 17.9444 183.325 17.896 183.891 17.896V11.896ZM179.05 13.1583C177.711 14.0959 176.811 15.5422 176.811 17.344H182.811C182.811 17.4658 182.778 17.6528 182.673 17.8409C182.575 18.0178 182.475 18.0848 182.491 18.0737L179.05 13.1583ZM176.811 17.344C176.811 18.602 177.244 19.7995 178.127 20.7632L182.55 16.7088C182.618 16.7832 182.694 16.8947 182.748 17.036C182.801 17.1752 182.811 17.2875 182.811 17.344H176.811ZM178.312 20.9475C179.286 21.8411 180.498 22.236 181.574 22.4152L182.56 16.4968C182.349 16.4617 182.244 16.4237 182.213 16.4108C182.184 16.3989 182.256 16.424 182.366 16.5245L178.312 20.9475ZM181.533 22.4081L186.573 23.3201L187.641 17.4159L182.601 16.5039L181.533 22.4081ZM186.606 23.3259C188.314 23.615 189.257 24.1359 189.769 24.6327L193.948 20.3273C192.284 18.7121 190.059 17.825 187.607 17.4101L186.606 23.3259ZM189.803 24.6646C190.17 25.0101 190.491 25.5609 190.491 26.704H196.491C196.491 24.2631 195.724 21.9979 193.915 20.2954L189.803 24.6646ZM190.491 26.704C190.491 28.2046 189.967 29.2161 188.837 30.0448L192.385 34.8832C195.095 32.8959 196.491 30.0674 196.491 26.704H190.491ZM188.844 30.0396C187.624 30.9289 185.782 31.528 183.027 31.528V37.528C186.607 37.528 189.822 36.7511 192.378 34.8884L188.844 30.0396Z" fill="#5B3511"/>
</g>
<defs>
<filter id="filter0_d_29_1754" x="0.564255" y="0.159912" width="193.926" height="37.3682" filterUnits="userSpaceOnUse" color-interpolation-filters="sRGB">
<feFlood flood-opacity="0" result="BackgroundImageFix"/>
<feColorMatrix in="SourceAlpha" type="matrix" values="0 0 0 0 0 0 0 0 0 0 0 0 0 0 0 0 0 0 127 0" result="hardAlpha"/>
<feOffset dy="2"/>
<feGaussianBlur stdDeviation="0.5"/>
<feComposite in2="hardAlpha" operator="out"/>
<feColorMatrix type="matrix" values="0 0 0 0 0 0 0 0 0 0 0 0 0 0 0 0 0 0 0.25 0"/>
<feBlend mode="normal" in2="BackgroundImageFix" result="effect1_dropShadow_29_1754"/>
<feBlend mode="normal" in="SourceGraphic" in2="effect1_dropShadow_29_1754" result="shape"/>
</filter>
<linearGradient id="paint0_linear_29_1754" x1="96.5" y1="-14" x2="96.5" y2="51" gradientUnits="userSpaceOnUse">
<stop stop-color="#FDE092"/>
<stop offset="1" stop-color="#C18B2C"/>
</linearGradient>
</defs>
</svg>
