<svg width="130" height="22" viewBox="0 0 130 22" fill="none" xmlns="http://www.w3.org/2000/svg">
<g filter="url(#filter0_d_35_108)">
<path d="M8.38597 18.216C7.87397 18.216 7.45797 18.096 7.13797 17.856C6.81797 17.6 6.56197 17.216 6.36997 16.704L1.52197 3.072C1.31397 2.464 1.35397 1.944 1.64197 1.512C1.94597 1.08 2.46597 0.863999 3.20197 0.863999C3.71397 0.863999 4.10597 0.983999 4.37797 1.224C4.66597 1.464 4.89797 1.84 5.07397 2.352L9.03397 14.136H8.00197L12.178 2.376C12.37 1.864 12.602 1.488 12.874 1.248C13.162 0.991999 13.538 0.863999 14.002 0.863999C14.45 0.863999 14.81 0.991999 15.082 1.248C15.354 1.488 15.586 1.872 15.778 2.4L19.762 14.136H18.874L22.906 2.352C23.066 1.856 23.29 1.488 23.578 1.248C23.866 0.991999 24.258 0.863999 24.754 0.863999C25.378 0.863999 25.834 1.08 26.122 1.512C26.41 1.944 26.442 2.464 26.218 3.072L21.322 16.728C21.146 17.224 20.906 17.6 20.602 17.856C20.298 18.096 19.882 18.216 19.354 18.216C18.842 18.216 18.434 18.096 18.13 17.856C17.826 17.6 17.578 17.216 17.386 16.704L13.594 5.976H14.17L10.33 16.728C10.138 17.224 9.88997 17.6 9.58597 17.856C9.29797 18.096 8.89797 18.216 8.38597 18.216ZM31.2002 18.264C30.3362 18.264 29.5602 18.096 28.8722 17.76C28.1842 17.424 27.6482 16.968 27.2642 16.392C26.8802 15.816 26.6882 15.168 26.6882 14.448C26.6882 13.584 26.9122 12.904 27.3602 12.408C27.8082 11.896 28.5362 11.536 29.5442 11.328C30.5522 11.104 31.8882 10.992 33.5522 10.992H34.8242V12.864H33.5762C32.7602 12.864 32.0962 12.912 31.5842 13.008C31.0882 13.088 30.7282 13.232 30.5042 13.44C30.2962 13.648 30.1922 13.936 30.1922 14.304C30.1922 14.752 30.3442 15.12 30.6482 15.408C30.9682 15.696 31.4242 15.84 32.0162 15.84C32.4802 15.84 32.8882 15.736 33.2402 15.528C33.6082 15.304 33.8962 15.008 34.1042 14.64C34.3122 14.256 34.4162 13.824 34.4162 13.344V10.584C34.4162 9.88 34.2562 9.384 33.9362 9.096C33.6162 8.792 33.0722 8.64 32.3042 8.64C31.8722 8.64 31.4002 8.696 30.8882 8.808C30.3922 8.904 29.8402 9.072 29.2322 9.312C28.8802 9.472 28.5682 9.512 28.2962 9.432C28.0242 9.336 27.8162 9.176 27.6722 8.952C27.5282 8.712 27.4562 8.456 27.4562 8.184C27.4562 7.896 27.5362 7.624 27.6962 7.368C27.8562 7.096 28.1202 6.896 28.4882 6.768C29.2402 6.464 29.9442 6.256 30.6002 6.144C31.2722 6.032 31.8882 5.976 32.4482 5.976C33.6802 5.976 34.6882 6.16 35.4722 6.528C36.2722 6.88 36.8722 7.432 37.2722 8.184C37.6722 8.92 37.8722 9.872 37.8722 11.04V16.368C37.8722 16.96 37.7282 17.416 37.4402 17.736C37.1522 18.056 36.7362 18.216 36.1922 18.216C35.6482 18.216 35.2242 18.056 34.9202 17.736C34.6322 17.416 34.4882 16.96 34.4882 16.368V15.48L34.6562 15.624C34.5602 16.168 34.3522 16.64 34.0322 17.04C33.7282 17.424 33.3362 17.728 32.8562 17.952C32.3762 18.16 31.8242 18.264 31.2002 18.264ZM42.4476 18.216C41.8396 18.216 41.3756 18.056 41.0556 17.736C40.7356 17.416 40.5756 16.96 40.5756 16.368V7.848C40.5756 7.256 40.7276 6.808 41.0316 6.504C41.3516 6.184 41.7916 6.024 42.3516 6.024C42.9276 6.024 43.3676 6.184 43.6716 6.504C43.9756 6.808 44.1276 7.256 44.1276 7.848V9.096H43.8876C44.0796 8.136 44.5036 7.392 45.1596 6.864C45.8156 6.336 46.6636 6.04 47.7036 5.976C48.1036 5.944 48.4076 6.048 48.6156 6.288C48.8396 6.512 48.9596 6.888 48.9756 7.416C49.0076 7.912 48.9036 8.304 48.6636 8.592C48.4396 8.88 48.0556 9.056 47.5116 9.12L46.9596 9.168C46.0476 9.248 45.3676 9.512 44.9196 9.96C44.4876 10.408 44.2716 11.056 44.2716 11.904V16.368C44.2716 16.96 44.1116 17.416 43.7916 17.736C43.4876 18.056 43.0396 18.216 42.4476 18.216ZM56.3753 18.264C54.9833 18.264 53.7833 18.016 52.7753 17.52C51.7833 17.008 51.0153 16.296 50.4713 15.384C49.9433 14.456 49.6793 13.368 49.6793 12.12C49.6793 10.904 49.9353 9.84 50.4473 8.928C50.9593 8 51.6713 7.28 52.5833 6.768C53.5113 6.24 54.5593 5.976 55.7273 5.976C56.5753 5.976 57.3433 6.12 58.0313 6.408C58.7193 6.68 59.3113 7.08 59.8073 7.608C60.3033 8.12 60.6793 8.752 60.9353 9.504C61.1913 10.24 61.3193 11.064 61.3193 11.976C61.3193 12.28 61.2233 12.512 61.0313 12.672C60.8393 12.816 60.5593 12.888 60.1913 12.888H52.6553V11.016H58.7033L58.3193 11.352C58.3193 10.696 58.2233 10.152 58.0313 9.72C57.8393 9.272 57.5593 8.936 57.1913 8.712C56.8393 8.488 56.3993 8.376 55.8713 8.376C55.2793 8.376 54.7753 8.512 54.3593 8.784C53.9433 9.056 53.6233 9.448 53.3993 9.96C53.1753 10.472 53.0633 11.088 53.0633 11.808V12C53.0633 13.216 53.3433 14.112 53.9033 14.688C54.4793 15.264 55.3273 15.552 56.4473 15.552C56.8313 15.552 57.2713 15.504 57.7673 15.408C58.2633 15.312 58.7273 15.16 59.1593 14.952C59.5273 14.776 59.8553 14.72 60.1433 14.784C60.4313 14.832 60.6553 14.96 60.8153 15.168C60.9753 15.376 61.0633 15.616 61.0793 15.888C61.1113 16.16 61.0553 16.432 60.9113 16.704C60.7673 16.96 60.5273 17.176 60.1913 17.352C59.6473 17.656 59.0313 17.88 58.3433 18.024C57.6713 18.184 57.0153 18.264 56.3753 18.264ZM65.2512 18.216C64.6592 18.216 64.2032 18.056 63.8832 17.736C63.5792 17.416 63.4272 16.96 63.4272 16.368V2.712C63.4272 2.104 63.5792 1.648 63.8832 1.344C64.2032 1.024 64.6592 0.863999 65.2512 0.863999C65.8272 0.863999 66.2672 1.024 66.5712 1.344C66.8912 1.648 67.0512 2.104 67.0512 2.712V8.424H66.7152C67.0832 7.64 67.6272 7.04 68.3472 6.624C69.0832 6.192 69.9152 5.976 70.8432 5.976C71.7872 5.976 72.5632 6.16 73.1712 6.528C73.7792 6.88 74.2352 7.424 74.5392 8.16C74.8432 8.88 74.9952 9.8 74.9952 10.92V16.368C74.9952 16.96 74.8352 17.416 74.5152 17.736C74.2112 18.056 73.7632 18.216 73.1712 18.216C72.5952 18.216 72.1472 18.056 71.8272 17.736C71.5232 17.416 71.3712 16.96 71.3712 16.368V11.088C71.3712 10.272 71.2192 9.688 70.9152 9.336C70.6272 8.968 70.1792 8.784 69.5712 8.784C68.8032 8.784 68.1872 9.024 67.7232 9.504C67.2752 9.984 67.0512 10.624 67.0512 11.424V16.368C67.0512 17.6 66.4512 18.216 65.2512 18.216ZM83.3646 18.264C82.1006 18.264 80.9966 18.016 80.0526 17.52C79.1246 17.024 78.4046 16.312 77.8926 15.384C77.3806 14.456 77.1246 13.36 77.1246 12.096C77.1246 11.152 77.2686 10.304 77.5566 9.552C77.8446 8.8 78.2606 8.16 78.8046 7.632C79.3646 7.088 80.0286 6.68 80.7966 6.408C81.5646 6.12 82.4206 5.976 83.3646 5.976C84.6286 5.976 85.7246 6.224 86.6526 6.72C87.5966 7.216 88.3246 7.92 88.8366 8.832C89.3646 9.744 89.6286 10.832 89.6286 12.096C89.6286 13.056 89.4766 13.912 89.1726 14.664C88.8846 15.416 88.4686 16.064 87.9246 16.608C87.3806 17.152 86.7166 17.568 85.9326 17.856C85.1646 18.128 84.3086 18.264 83.3646 18.264ZM83.3646 15.552C83.8926 15.552 84.3486 15.424 84.7326 15.168C85.1166 14.912 85.4206 14.536 85.6446 14.04C85.8686 13.528 85.9806 12.88 85.9806 12.096C85.9806 10.928 85.7406 10.072 85.2606 9.528C84.7806 8.968 84.1486 8.688 83.3646 8.688C82.8526 8.688 82.3966 8.808 81.9966 9.048C81.6126 9.288 81.3086 9.664 81.0846 10.176C80.8766 10.672 80.7726 11.312 80.7726 12.096C80.7726 13.264 81.0126 14.136 81.4926 14.712C81.9726 15.272 82.5966 15.552 83.3646 15.552ZM96.1774 18.264C95.1854 18.264 94.3614 18.08 93.7054 17.712C93.0494 17.344 92.5614 16.792 92.2414 16.056C91.9374 15.304 91.7854 14.376 91.7854 13.272V7.848C91.7854 7.24 91.9374 6.784 92.2414 6.48C92.5614 6.176 93.0094 6.024 93.5854 6.024C94.1614 6.024 94.6094 6.176 94.9294 6.48C95.2494 6.784 95.4094 7.24 95.4094 7.848V13.368C95.4094 14.072 95.5534 14.6 95.8414 14.952C96.1294 15.288 96.5854 15.456 97.2094 15.456C97.8974 15.456 98.4574 15.216 98.8894 14.736C99.3374 14.24 99.5614 13.592 99.5614 12.792V7.848C99.5614 7.24 99.7134 6.784 100.017 6.48C100.337 6.176 100.785 6.024 101.361 6.024C101.953 6.024 102.401 6.176 102.705 6.48C103.025 6.784 103.185 7.24 103.185 7.848V16.368C103.185 17.6 102.601 18.216 101.433 18.216C100.857 18.216 100.417 18.056 100.113 17.736C99.8094 17.416 99.6574 16.96 99.6574 16.368V14.76L100.017 15.696C99.6654 16.512 99.1614 17.144 98.5054 17.592C97.8494 18.04 97.0734 18.264 96.1774 18.264ZM110.502 18.264C109.798 18.264 109.07 18.2 108.318 18.072C107.582 17.944 106.91 17.728 106.302 17.424C105.982 17.264 105.75 17.064 105.606 16.824C105.478 16.568 105.422 16.312 105.438 16.056C105.454 15.8 105.534 15.568 105.678 15.36C105.838 15.152 106.038 15.016 106.278 14.952C106.534 14.872 106.814 14.896 107.118 15.024C107.774 15.296 108.374 15.488 108.918 15.6C109.462 15.712 109.998 15.768 110.526 15.768C111.214 15.768 111.71 15.664 112.014 15.456C112.334 15.232 112.494 14.944 112.494 14.592C112.494 14.272 112.39 14.032 112.182 13.872C111.974 13.712 111.67 13.6 111.27 13.536L108.75 13.08C107.758 12.904 106.99 12.544 106.446 12C105.918 11.44 105.654 10.728 105.654 9.864C105.654 9.064 105.878 8.376 106.326 7.8C106.774 7.208 107.39 6.76 108.174 6.456C108.974 6.136 109.878 5.976 110.886 5.976C111.606 5.976 112.27 6.04 112.878 6.168C113.486 6.296 114.07 6.504 114.63 6.792C114.918 6.936 115.118 7.128 115.23 7.368C115.358 7.608 115.398 7.856 115.35 8.112C115.318 8.368 115.222 8.6 115.062 8.808C114.902 9.016 114.694 9.152 114.438 9.216C114.198 9.28 113.918 9.248 113.598 9.12C113.086 8.88 112.614 8.712 112.182 8.616C111.75 8.504 111.334 8.448 110.934 8.448C110.214 8.448 109.694 8.568 109.374 8.808C109.054 9.032 108.894 9.32 108.894 9.672C108.894 9.944 108.982 10.176 109.158 10.368C109.35 10.544 109.638 10.664 110.022 10.728L112.542 11.184C113.582 11.36 114.374 11.712 114.918 12.24C115.462 12.752 115.734 13.456 115.734 14.352C115.734 15.568 115.254 16.528 114.294 17.232C113.35 17.92 112.086 18.264 110.502 18.264ZM123.922 18.264C122.53 18.264 121.33 18.016 120.322 17.52C119.33 17.008 118.562 16.296 118.018 15.384C117.49 14.456 117.226 13.368 117.226 12.12C117.226 10.904 117.482 9.84 117.994 8.928C118.506 8 119.218 7.28 120.13 6.768C121.058 6.24 122.106 5.976 123.274 5.976C124.122 5.976 124.89 6.12 125.578 6.408C126.266 6.68 126.858 7.08 127.354 7.608C127.85 8.12 128.226 8.752 128.482 9.504C128.738 10.24 128.866 11.064 128.866 11.976C128.866 12.28 128.77 12.512 128.578 12.672C128.386 12.816 128.106 12.888 127.738 12.888H120.202V11.016H126.25L125.866 11.352C125.866 10.696 125.77 10.152 125.578 9.72C125.386 9.272 125.106 8.936 124.738 8.712C124.386 8.488 123.946 8.376 123.418 8.376C122.826 8.376 122.322 8.512 121.906 8.784C121.49 9.056 121.17 9.448 120.946 9.96C120.722 10.472 120.61 11.088 120.61 11.808V12C120.61 13.216 120.89 14.112 121.45 14.688C122.026 15.264 122.874 15.552 123.994 15.552C124.378 15.552 124.818 15.504 125.314 15.408C125.81 15.312 126.274 15.16 126.706 14.952C127.074 14.776 127.402 14.72 127.69 14.784C127.978 14.832 128.202 14.96 128.362 15.168C128.522 15.376 128.61 15.616 128.626 15.888C128.658 16.16 128.602 16.432 128.458 16.704C128.314 16.96 128.074 17.176 127.738 17.352C127.194 17.656 126.578 17.88 125.89 18.024C125.218 18.184 124.562 18.264 123.922 18.264Z" fill="url(#paint0_linear_35_108)"/>
<path d="M7.13797 17.856L5.88858 19.4177L5.91297 19.4373L5.93797 19.456L7.13797 17.856ZM6.36997 16.704L4.48559 17.3741L4.49131 17.3902L4.49731 17.4062L6.36997 16.704ZM1.52197 3.072L-0.370359 3.71937L-0.366455 3.73079L-0.362414 3.74215L1.52197 3.072ZM1.64197 1.512L0.00635571 0.361013L-0.00815014 0.381626L-0.0221319 0.402599L1.64197 1.512ZM4.37797 1.224L3.05473 2.72367L3.0759 2.74236L3.0976 2.76044L4.37797 1.224ZM5.07397 2.352L6.96983 1.7149L6.96534 1.70184L5.07397 2.352ZM9.03397 14.136V16.136H11.816L10.9298 13.4989L9.03397 14.136ZM8.00197 14.136L6.11727 13.4667L5.16941 16.136H8.00197V14.136ZM12.178 2.376L10.3053 1.67375L10.2991 1.69019L10.2933 1.70674L12.178 2.376ZM12.874 1.248L14.1972 2.74769L14.2027 2.74282L12.874 1.248ZM15.082 1.248L13.7112 2.7044L13.7346 2.72642L13.7587 2.74768L15.082 1.248ZM15.778 2.4L17.6718 1.7571L17.6649 1.73673L17.6576 1.71651L15.778 2.4ZM19.762 14.136V16.136H22.553L21.6558 13.4931L19.762 14.136ZM18.874 14.136L16.9817 13.4885L16.0758 16.136H18.874V14.136ZM22.906 2.352L24.7983 2.99947L24.804 2.98278L24.8094 2.966L22.906 2.352ZM23.578 1.248L24.8583 2.78444L24.8829 2.76402L24.9067 2.74282L23.578 1.248ZM26.218 3.072L24.3413 2.38059L24.3383 2.38879L24.3353 2.39702L26.218 3.072ZM21.322 16.728L19.4393 16.053L19.4371 16.0592L21.322 16.728ZM20.602 17.856L21.8413 19.4258L21.8661 19.4062L21.8902 19.3858L20.602 17.856ZM18.13 17.856L16.8417 19.3858L16.8659 19.4062L16.8907 19.4258L18.13 17.856ZM17.386 16.704L15.5003 17.3705L15.5066 17.3884L15.5133 17.4062L17.386 16.704ZM13.594 5.976V3.976H10.7658L11.7083 6.64252L13.594 5.976ZM14.17 5.976L16.0535 6.64867L17.008 3.976H14.17V5.976ZM10.33 16.728L12.1951 17.45L12.2046 17.4255L12.2135 17.4007L10.33 16.728ZM9.58597 17.856L10.8664 19.3925L10.8742 19.3858L9.58597 17.856ZM8.38597 16.216C8.28433 16.216 8.24279 16.2039 8.24429 16.2044C8.24557 16.2047 8.2567 16.2081 8.27474 16.2169C8.29303 16.2258 8.31491 16.2387 8.33797 16.256L5.93797 19.456C6.69049 20.0204 7.56326 20.216 8.38597 20.216V16.216ZM8.38736 16.2943C8.42776 16.3266 8.3491 16.2857 8.24263 16.0018L4.49731 17.4062C4.77484 18.1463 5.20818 18.8734 5.88858 19.4177L8.38736 16.2943ZM8.25435 16.0338L3.40635 2.40185L-0.362414 3.74215L4.48559 17.3741L8.25435 16.0338ZM3.4143 2.42462C3.37844 2.3198 3.39517 2.3132 3.39008 2.37939C3.38749 2.41303 3.3798 2.45633 3.36338 2.50399C3.34695 2.5517 3.32596 2.59156 3.30607 2.6214L-0.0221319 0.402599C-0.737404 1.47551 -0.726807 2.67745 -0.370359 3.71937L3.4143 2.42462ZM3.27758 2.66299C3.24255 2.71276 3.19786 2.76044 3.14679 2.80061C3.09645 2.84019 3.0529 2.86231 3.02718 2.87299C2.9818 2.89184 3.02032 2.864 3.20197 2.864V-1.136C2.0914 -1.136 0.819837 -0.794988 0.00635571 0.361013L3.27758 2.66299ZM3.20197 2.864C3.30668 2.864 3.32859 2.87682 3.29454 2.8664C3.25352 2.85384 3.15865 2.81537 3.05473 2.72367L5.70121 -0.275678C4.93791 -0.949176 4.00209 -1.136 3.20197 -1.136V2.864ZM3.0976 2.76044C3.04911 2.72004 3.04356 2.70002 3.0659 2.73621C3.08911 2.77383 3.13237 2.85604 3.1826 3.00216L6.96534 1.70184C6.72029 0.988973 6.32526 0.243323 5.65834 -0.312442L3.0976 2.76044ZM3.17815 2.98909L7.13815 14.7731L10.9298 13.4989L6.96979 1.71491L3.17815 2.98909ZM9.03397 12.136H8.00197V16.136H9.03397V12.136ZM9.88667 14.8053L14.0627 3.04526L10.2933 1.70674L6.11727 13.4667L9.88667 14.8053ZM14.0506 3.07825C14.1114 2.91617 14.1638 2.8157 14.198 2.76022C14.2323 2.70473 14.237 2.71257 14.1972 2.74768L11.5507 -0.251678C10.9396 0.287544 10.5588 0.997854 10.3053 1.67375L14.0506 3.07825ZM14.2027 2.74282C14.1413 2.7974 14.0729 2.8341 14.0165 2.8533C13.9654 2.8707 13.9532 2.864 14.002 2.864V-1.136C13.1532 -1.136 12.2709 -0.891861 11.5452 -0.246816L14.2027 2.74282ZM14.002 2.864C14.0362 2.864 14.0066 2.86883 13.9379 2.84443C13.8634 2.81793 13.7814 2.77041 13.7112 2.7044L16.4527 -0.208397C15.7381 -0.881012 14.8517 -1.136 14.002 -1.136V2.864ZM13.7587 2.74768C13.7112 2.70574 13.7134 2.69276 13.7481 2.75023C13.7827 2.80736 13.8362 2.91249 13.8984 3.08349L17.6576 1.71651C17.4083 1.03115 17.0289 0.298615 16.4052 -0.251678L13.7587 2.74768ZM13.8841 3.0429L17.8681 14.7789L21.6558 13.4931L17.6718 1.7571L13.8841 3.0429ZM19.762 12.136H18.874V16.136H19.762V12.136ZM20.7663 14.7835L24.7983 2.99947L21.0137 1.70453L16.9817 13.4885L20.7663 14.7835ZM24.8094 2.966C24.851 2.83716 24.8867 2.76961 24.9024 2.74389C24.9167 2.72028 24.9065 2.74433 24.8583 2.78444L22.2976 -0.288444C21.6263 0.271 21.2352 1.01676 21.0026 1.738L24.8094 2.966ZM24.9067 2.74282C24.8713 2.77431 24.8338 2.80069 24.7969 2.82151C24.7604 2.84214 24.7296 2.8544 24.7088 2.86121C24.6685 2.87437 24.6754 2.864 24.754 2.864V-1.136C23.9127 -1.136 22.9986 -0.912957 22.2492 -0.246818L24.9067 2.74282ZM24.754 2.864C24.8383 2.864 24.8031 2.8786 24.7078 2.83348C24.6602 2.81091 24.6091 2.77863 24.5609 2.73666C24.513 2.69494 24.4793 2.65355 24.4579 2.6214L27.7861 0.402599C27.0487 -0.70347 25.8917 -1.136 24.754 -1.136V2.864ZM24.4579 2.6214C24.4355 2.58788 24.4122 2.54322 24.3942 2.48973C24.3762 2.43628 24.3681 2.38739 24.3657 2.34884C24.3611 2.27335 24.3801 2.27524 24.3413 2.38059L28.0947 3.76341C28.4785 2.72158 28.5165 1.49817 27.7861 0.402599L24.4579 2.6214ZM24.3353 2.39702L19.4393 16.053L23.2046 17.403L28.1006 3.74698L24.3353 2.39702ZM19.4371 16.0592C19.3426 16.3256 19.2715 16.3617 19.3137 16.3262L21.8902 19.3858C22.5404 18.8383 22.9494 18.1224 23.2068 17.3968L19.4371 16.0592ZM19.3627 16.2862C19.398 16.2584 19.4312 16.2383 19.4585 16.2246C19.4855 16.2112 19.5032 16.2056 19.5076 16.2044C19.5117 16.2032 19.5025 16.2062 19.4768 16.2095C19.4509 16.2128 19.4107 16.216 19.354 16.216V20.216C20.1697 20.216 21.0753 20.0305 21.8413 19.4258L19.3627 16.2862ZM19.354 16.216C19.2514 16.216 19.2162 16.2037 19.2283 16.2073C19.2352 16.2093 19.2536 16.2154 19.2799 16.2287C19.3065 16.2421 19.3373 16.261 19.3693 16.2862L16.8907 19.4258C17.6468 20.0227 18.5374 20.216 19.354 20.216V16.216ZM19.4182 16.3262C19.4572 16.359 19.3733 16.3076 19.2586 16.0018L15.5133 17.4062C15.7826 18.1244 16.1947 18.841 16.8417 19.3858L19.4182 16.3262ZM19.2716 16.0375L15.4796 5.30948L11.7083 6.64252L15.5003 17.3705L19.2716 16.0375ZM13.594 7.976H14.17V3.976H13.594V7.976ZM12.2865 5.30333L8.44649 16.0553L12.2135 17.4007L16.0535 6.64867L12.2865 5.30333ZM8.46483 16.006C8.35472 16.2905 8.27224 16.3476 8.2977 16.3262L10.8742 19.3858C11.5077 18.8524 11.9212 18.1575 12.1951 17.45L8.46483 16.006ZM8.3056 16.3196C8.34643 16.2855 8.38647 16.2599 8.42173 16.2414C8.45653 16.2232 8.48256 16.2142 8.49527 16.2103C8.51823 16.2035 8.48952 16.216 8.38597 16.216V20.216C9.19511 20.216 10.1066 20.0256 10.8663 19.3924L8.3056 16.3196ZM28.8722 17.76L29.7499 15.9629L28.8722 17.76ZM27.2642 16.392L25.6001 17.5014L27.2642 16.392ZM27.3602 12.408L28.8444 13.7486L28.855 13.7369L28.8654 13.725L27.3602 12.408ZM29.5442 11.328L29.9484 13.2867L29.9633 13.2837L29.9781 13.2804L29.5442 11.328ZM34.8242 10.992H36.8242V8.992H34.8242V10.992ZM34.8242 12.864V14.864H36.8242V12.864H34.8242ZM31.5842 13.008L31.9027 14.9825L31.9278 14.9784L31.9528 14.9737L31.5842 13.008ZM30.5042 13.44L29.1433 11.9744L29.1162 11.9996L29.09 12.0258L30.5042 13.44ZM30.6482 15.408L29.2727 16.8599L29.2913 16.8775L29.3103 16.8946L30.6482 15.408ZM33.2402 15.528L34.2577 17.2499L34.2689 17.2432L34.2801 17.2364L33.2402 15.528ZM34.1042 14.64L35.8453 15.6241L35.8542 15.6084L35.8628 15.5926L34.1042 14.64ZM33.9362 9.096L32.5587 10.546L32.5783 10.5646L32.5983 10.5826L33.9362 9.096ZM30.8882 8.808L31.2683 10.7716L31.292 10.767L31.3156 10.7618L30.8882 8.808ZM29.2322 9.312L28.4979 7.45169L28.4507 7.4703L28.4046 7.49127L29.2322 9.312ZM28.2962 9.432L27.6306 11.318L27.6808 11.3357L27.7319 11.3507L28.2962 9.432ZM27.6722 8.952L25.9572 9.98099L25.9731 10.0075L25.9899 10.0335L27.6722 8.952ZM27.6962 7.368L29.3922 8.428L29.4065 8.40521L29.4201 8.38204L27.6962 7.368ZM28.4882 6.768L29.1453 8.65699L29.192 8.64075L29.2378 8.62222L28.4882 6.768ZM30.6002 6.144L30.2714 4.1712L30.2636 4.17253L30.6002 6.144ZM35.4722 6.528L34.6224 8.33847L34.6445 8.34882L34.6667 8.35863L35.4722 6.528ZM37.2722 8.184L35.5065 9.12323L35.5107 9.13115L35.515 9.13903L37.2722 8.184ZM37.4402 17.736L35.9536 16.3981L37.4402 17.736ZM34.9202 17.736L33.4336 19.0739L33.4517 19.094L33.4702 19.1135L34.9202 17.736ZM34.4882 15.48L35.7898 13.9615L32.4882 11.1316V15.48H34.4882ZM34.6562 15.624L36.6258 15.9716L36.8241 14.848L35.9578 14.1055L34.6562 15.624ZM34.0322 17.04L32.4705 15.7906L32.4641 15.7986L34.0322 17.04ZM32.8562 17.952L33.6514 19.7871L33.6769 19.7761L33.702 19.7644L32.8562 17.952ZM31.2002 16.264C30.6011 16.264 30.1313 16.1491 29.7499 15.9629L27.9945 19.5571C28.9891 20.0429 30.0714 20.264 31.2002 20.264V16.264ZM29.7499 15.9629C29.3457 15.7655 29.0954 15.5332 28.9283 15.2826L25.6001 17.5014C26.201 18.4028 27.0228 19.0825 27.9945 19.5571L29.7499 15.9629ZM28.9283 15.2826C28.7724 15.0488 28.6882 14.7899 28.6882 14.448H24.6882C24.6882 15.5461 24.988 16.5832 25.6001 17.5014L28.9283 15.2826ZM28.6882 14.448C28.6882 13.9302 28.8164 13.7796 28.8444 13.7486L25.876 11.0674C25.008 12.0284 24.6882 13.2378 24.6882 14.448H28.6882ZM28.8654 13.725C28.9123 13.6714 29.1598 13.4495 29.9484 13.2867L29.14 9.36927C27.9127 9.62253 26.7041 10.1206 25.8551 11.091L28.8654 13.725ZM29.9781 13.2804C30.7842 13.1012 31.9571 12.992 33.5522 12.992V8.992C31.8193 8.992 30.3202 9.10677 29.1104 9.37563L29.9781 13.2804ZM33.5522 12.992H34.8242V8.992H33.5522V12.992ZM32.8242 10.992V12.864H36.8242V10.992H32.8242ZM34.8242 10.864H33.5762V14.864H34.8242V10.864ZM33.5762 10.864C32.6976 10.864 31.8972 10.9145 31.2156 11.0423L31.9528 14.9737C32.2952 14.9095 32.8229 14.864 33.5762 14.864V10.864ZM31.2658 11.0335C30.6066 11.1398 29.7889 11.375 29.1433 11.9744L31.8651 14.9056C31.8097 14.9571 31.7616 14.99 31.7302 15.0089C31.6991 15.0276 31.6819 15.0342 31.685 15.033C31.688 15.0317 31.7064 15.0247 31.744 15.0149C31.7815 15.0051 31.8336 14.9936 31.9027 14.9825L31.2658 11.0335ZM29.09 12.0258C28.418 12.6978 28.1922 13.5462 28.1922 14.304H32.1922C32.1922 14.3062 32.1921 14.3785 32.1513 14.4913C32.1077 14.612 32.0307 14.7419 31.9184 14.8542L29.09 12.0258ZM28.1922 14.304C28.1922 15.2584 28.54 16.1657 29.2727 16.8599L32.0237 13.9561C32.0653 13.9955 32.1177 14.0629 32.1547 14.1525C32.1905 14.2391 32.1922 14.2987 32.1922 14.304H28.1922ZM29.3103 16.8946C30.1158 17.6196 31.1165 17.84 32.0162 17.84V13.84C31.9487 13.84 31.9008 13.8359 31.87 13.8316C31.8393 13.8274 31.8281 13.8235 31.8325 13.8248C31.8373 13.8264 31.8571 13.8331 31.8865 13.8495C31.9165 13.8662 31.9512 13.8899 31.9861 13.9214L29.3103 16.8946ZM32.0162 17.84C32.7889 17.84 33.5577 17.6635 34.2577 17.2499L32.2228 13.8061C32.2187 13.8085 32.1715 13.84 32.0162 13.84V17.84ZM34.2801 17.2364C34.934 16.8384 35.4659 16.2954 35.8453 15.6241L32.3631 13.6559C32.3265 13.7206 32.2824 13.7696 32.2003 13.8196L34.2801 17.2364ZM35.8628 15.5926C36.2446 14.8878 36.4162 14.123 36.4162 13.344H32.4162C32.4162 13.525 32.3799 13.6242 32.3456 13.6874L35.8628 15.5926ZM36.4162 13.344V10.584H32.4162V13.344H36.4162ZM36.4162 10.584C36.4162 9.66208 36.2194 8.4601 35.2742 7.60941L32.5983 10.5826C32.5257 10.5172 32.4744 10.4506 32.4405 10.3953C32.4076 10.3416 32.3951 10.305 32.3928 10.298C32.3907 10.2916 32.3971 10.3095 32.4038 10.3593C32.4104 10.4089 32.4162 10.4825 32.4162 10.584H36.4162ZM35.3137 7.646C34.4289 6.80541 33.2356 6.64 32.3042 6.64V10.64C32.5668 10.64 32.7033 10.6672 32.75 10.6802C32.7932 10.6923 32.6924 10.673 32.5587 10.546L35.3137 7.646ZM32.3042 6.64C31.7019 6.64 31.0846 6.71774 30.4608 6.8542L31.3156 10.7618C31.7158 10.6743 32.0425 10.64 32.3042 10.64V6.64ZM30.5082 6.84444C29.8619 6.96952 29.1891 7.17885 28.4979 7.45169L29.9666 11.1723C30.4913 10.9652 30.9225 10.8385 31.2683 10.7716L30.5082 6.84444ZM28.4046 7.49127C28.3302 7.52507 28.5277 7.41538 28.8606 7.51327L27.7319 11.3507C28.6087 11.6086 29.4302 11.4189 30.0598 11.1327L28.4046 7.49127ZM28.9619 7.54602C29.0055 7.56143 29.0763 7.59376 29.1556 7.65475C29.2365 7.71692 29.3042 7.79214 29.3546 7.87049L25.9899 10.0335C26.3945 10.6629 26.9768 11.0872 27.6306 11.318L28.9619 7.54602ZM29.3872 7.92301C29.4019 7.94744 29.4209 7.98663 29.4355 8.03851C29.4502 8.09075 29.4562 8.14115 29.4562 8.184H25.4562C25.4562 8.82936 25.6324 9.43962 25.9572 9.98099L29.3872 7.92301ZM29.4562 8.184C29.4562 8.22797 29.4497 8.27816 29.4349 8.32833C29.4204 8.37785 29.4024 8.41165 29.3922 8.428L26.0002 6.308C25.6516 6.8658 25.4562 7.50265 25.4562 8.184H29.4562ZM29.4201 8.38204C29.3611 8.48236 29.2877 8.55833 29.2219 8.60818C29.1605 8.65473 29.1251 8.66399 29.1453 8.65699L27.8312 4.87901C27.124 5.125 26.4256 5.58352 25.9724 6.35396L29.4201 8.38204ZM29.2378 8.62222C29.8845 8.36078 30.449 8.19875 30.9368 8.11547L30.2636 4.17253C29.4394 4.31325 28.5959 4.56722 27.7386 4.91378L29.2378 8.62222ZM30.929 8.11679C31.5147 8.01917 32.019 7.976 32.4482 7.976V3.976C31.7575 3.976 31.0297 4.04483 30.2714 4.17121L30.929 8.11679ZM32.4482 7.976C33.5019 7.976 34.1921 8.13648 34.6224 8.33847L36.322 4.71753C35.1844 4.18352 33.8585 3.976 32.4482 3.976V7.976ZM34.6667 8.35863C35.0673 8.53486 35.3233 8.77882 35.5065 9.12323L39.038 7.24477C38.4212 6.08518 37.4772 5.22514 36.2777 4.69737L34.6667 8.35863ZM35.515 9.13903C35.7052 9.48912 35.8722 10.081 35.8722 11.04H39.8722C39.8722 9.66295 39.6392 8.35088 39.0295 7.22897L35.515 9.13903ZM35.8722 11.04V16.368H39.8722V11.04H35.8722ZM35.8722 16.368C35.8722 16.4355 35.8681 16.4834 35.8638 16.5142C35.8596 16.545 35.8557 16.5561 35.8571 16.5517C35.8586 16.5469 35.8654 16.5271 35.8818 16.4977C35.8984 16.4677 35.9221 16.4331 35.9536 16.3981L38.9268 19.0739C39.6518 18.2684 39.8722 17.2677 39.8722 16.368H35.8722ZM35.9536 16.3981C35.9875 16.3605 36.028 16.3246 36.0735 16.2935C36.1188 16.2627 36.1609 16.2422 36.1943 16.2293C36.2597 16.2041 36.2712 16.216 36.1922 16.216V20.216C37.1432 20.216 38.1643 19.9212 38.9268 19.0739L35.9536 16.3981ZM36.1922 16.216C36.1144 16.216 36.1185 16.2045 36.1723 16.2248C36.1995 16.2351 36.2341 16.2515 36.2716 16.2763C36.3093 16.3011 36.3427 16.3295 36.3702 16.3585L33.4702 19.1135C34.2364 19.92 35.2364 20.216 36.1922 20.216V16.216ZM36.4068 16.3981C36.4383 16.4331 36.462 16.4677 36.4787 16.4977C36.4951 16.5271 36.5019 16.5469 36.5034 16.5517C36.5048 16.5561 36.5008 16.545 36.4966 16.5142C36.4924 16.4834 36.4882 16.4355 36.4882 16.368H32.4882C32.4882 17.2677 32.7086 18.2684 33.4336 19.0739L36.4068 16.3981ZM36.4882 16.368V15.48H32.4882V16.368H36.4882ZM33.1866 16.9985L33.3546 17.1425L35.9578 14.1055L35.7898 13.9615L33.1866 16.9985ZM32.6867 15.2764C32.6442 15.517 32.5649 15.6726 32.4705 15.7906L35.594 18.2894C36.1396 17.6074 36.4762 16.819 36.6258 15.9716L32.6867 15.2764ZM32.4641 15.7986C32.3687 15.9192 32.232 16.0362 32.0104 16.1396L33.702 19.7644C34.4404 19.4198 35.0878 18.9288 35.6003 18.2814L32.4641 15.7986ZM32.061 16.1169C31.8756 16.1972 31.6025 16.264 31.2002 16.264V20.264C32.0459 20.264 32.8769 20.1228 33.6514 19.7871L32.061 16.1169ZM41.0556 17.736L39.6414 19.1502L41.0556 17.736ZM41.0316 6.504L39.6174 5.08979L39.6174 5.08979L41.0316 6.504ZM43.6716 6.504L42.2216 7.8815L42.2393 7.90008L42.2574 7.91821L43.6716 6.504ZM44.1276 9.096V11.096H46.1276V9.096H44.1276ZM43.8876 9.096L41.9264 8.70377L41.448 11.096H43.8876V9.096ZM47.7036 5.976L47.8264 7.97222L47.8448 7.97109L47.8631 7.96963L47.7036 5.976ZM48.6156 6.288L47.1042 7.59786L47.1509 7.65177L47.2014 7.70221L48.6156 6.288ZM48.9756 7.416L46.9765 7.47658L46.9775 7.5107L46.9797 7.54476L48.9756 7.416ZM48.6636 8.592L47.1272 7.31163L47.1056 7.33752L47.0849 7.36412L48.6636 8.592ZM47.5116 9.12L47.6849 11.1125L47.7151 11.1098L47.7453 11.1063L47.5116 9.12ZM46.9596 9.168L46.7863 7.17552L46.7848 7.17565L46.9596 9.168ZM44.9196 9.96L43.5054 8.54579L43.4925 8.55864L43.4799 8.57173L44.9196 9.96ZM43.7916 17.736L42.3774 16.3218L42.3593 16.3399L42.3416 16.3585L43.7916 17.736ZM42.4476 16.216C42.3146 16.216 42.2746 16.198 42.2956 16.2053C42.3074 16.2093 42.3332 16.2196 42.3669 16.2403C42.4011 16.2613 42.4367 16.2887 42.4698 16.3218L39.6414 19.1502C40.4511 19.9599 41.4969 20.216 42.4476 20.216V16.216ZM42.4698 16.3218C42.4999 16.3519 42.5259 16.3851 42.5465 16.4184C42.5668 16.4513 42.5778 16.4775 42.5828 16.4918C42.5921 16.5184 42.5756 16.4874 42.5756 16.368H38.5756C38.5756 17.3204 38.8411 18.35 39.6414 19.1502L42.4698 16.3218ZM42.5756 16.368V7.848H38.5756V16.368H42.5756ZM42.5756 7.848C42.5756 7.71798 42.5929 7.68311 42.5835 7.71059C42.5783 7.72601 42.5661 7.75661 42.5422 7.79601C42.518 7.83601 42.4858 7.87823 42.4458 7.91821L39.6174 5.08979C38.8151 5.89205 38.5756 6.92977 38.5756 7.848H42.5756ZM42.4458 7.91821C42.4217 7.94228 42.3933 7.96529 42.3621 7.98498C42.3311 8.00455 42.304 8.0167 42.2851 8.02359C42.2478 8.03715 42.2602 8.024 42.3516 8.024V4.024C41.3946 4.024 40.3973 4.30984 39.6174 5.08979L42.4458 7.91821ZM42.3516 8.024C42.4583 8.024 42.4731 8.03921 42.4301 8.02359C42.4076 8.01538 42.3736 8.00022 42.3338 7.97459C42.2937 7.94871 42.2554 7.91705 42.2216 7.8815L45.1216 5.1265C44.3341 4.2976 43.3003 4.024 42.3516 4.024V8.024ZM42.2574 7.91821C42.2174 7.87823 42.1852 7.83601 42.1609 7.79601C42.1371 7.75661 42.1249 7.72601 42.1196 7.71059C42.1103 7.68311 42.1276 7.71798 42.1276 7.848H46.1276C46.1276 6.92977 45.8881 5.89205 45.0858 5.08979L42.2574 7.91821ZM42.1276 7.848V9.096H46.1276V7.848H42.1276ZM44.1276 7.096H43.8876V11.096H44.1276V7.096ZM45.8488 9.48823C45.9646 8.90901 46.1806 8.60961 46.4136 8.42202L43.9056 5.30598C42.8266 6.17439 42.1946 7.36298 41.9264 8.70377L45.8488 9.48823ZM46.4136 8.42202C46.6774 8.20975 47.1005 8.0169 47.8264 7.97222L47.5807 3.97978C46.2267 4.0631 44.9538 4.46225 43.9056 5.30598L46.4136 8.42202ZM47.8631 7.96963C47.8559 7.97021 47.7473 7.97813 47.5842 7.92233C47.4059 7.86133 47.2345 7.74821 47.1042 7.59786L50.127 4.97814C49.3941 4.13248 48.3928 3.91447 47.5441 3.98237L47.8631 7.96963ZM47.2014 7.70221C47.0389 7.53978 46.9819 7.38883 46.9683 7.34608C46.9563 7.30855 46.9724 7.34 46.9765 7.47658L50.9747 7.35542C50.9529 6.63669 50.7894 5.63335 50.0298 4.87379L47.2014 7.70221ZM46.9797 7.54476C46.9848 7.62378 46.9741 7.62323 46.9885 7.56913C47.005 7.50685 47.0457 7.40939 47.1272 7.31163L50.2 9.87237C50.8634 9.07638 51.0254 8.1234 50.9714 7.28724L46.9797 7.54476ZM47.0849 7.36412C47.1993 7.21696 47.3203 7.14663 47.3743 7.12187C47.4189 7.10143 47.4006 7.11927 47.2779 7.1337L47.7453 11.1063C48.5571 11.0108 49.5561 10.7022 50.2423 9.81988L47.0849 7.36412ZM47.3383 7.12752L46.7863 7.17552L47.1329 11.1605L47.6849 11.1125L47.3383 7.12752ZM46.7848 7.17565C45.6083 7.27885 44.4063 7.64488 43.5054 8.54579L46.3338 11.3742C46.3339 11.3741 46.3694 11.337 46.4894 11.2904C46.6152 11.2416 46.8209 11.1878 47.1344 11.1603L46.7848 7.17565ZM43.4799 8.57173C42.5745 9.51065 42.2716 10.7296 42.2716 11.904H46.2716C46.2716 11.6452 46.3051 11.4921 46.331 11.4145C46.354 11.3454 46.3698 11.3374 46.3593 11.3483L43.4799 8.57173ZM42.2716 11.904V16.368H46.2716V11.904H42.2716ZM42.2716 16.368C42.2716 16.4874 42.2551 16.5184 42.2644 16.4918C42.2694 16.4775 42.2803 16.4513 42.3007 16.4184C42.3213 16.3851 42.3473 16.3519 42.3774 16.3218L45.2058 19.1502C46.0061 18.35 46.2716 17.3204 46.2716 16.368H42.2716ZM42.3416 16.3585C42.3785 16.3197 42.4193 16.2865 42.4605 16.2602C42.5012 16.2342 42.5348 16.2197 42.5549 16.2125C42.5923 16.1992 42.5682 16.216 42.4476 16.216V20.216C43.3934 20.216 44.4443 19.9528 45.2416 19.1135L42.3416 16.3585ZM52.7753 17.52L51.858 19.2972L51.875 19.306L51.8923 19.3145L52.7753 17.52ZM50.4713 15.384L48.733 16.373L48.7431 16.3909L48.7536 16.4086L50.4713 15.384ZM50.4473 8.928L52.1912 9.90707L52.1949 9.90063L52.1984 9.89415L50.4473 8.928ZM52.5833 6.768L53.5624 8.512L53.5723 8.50633L52.5833 6.768ZM58.0313 6.408L57.259 8.25288L57.2774 8.26059L57.296 8.26792L58.0313 6.408ZM59.8073 7.608L58.3496 8.97735L58.3601 8.98855L58.3708 8.99959L59.8073 7.608ZM60.9353 9.504L59.0419 10.1485L59.0463 10.161L60.9353 9.504ZM61.0313 12.672L62.2313 14.272L62.2723 14.2413L62.3116 14.2084L61.0313 12.672ZM52.6553 12.888H50.6553V14.888H52.6553V12.888ZM52.6553 11.016V9.016H50.6553V11.016H52.6553ZM58.7033 11.016L60.0203 12.5212L64.0262 9.016H58.7033V11.016ZM58.3193 11.352H56.3193V15.7595L59.6363 12.8572L58.3193 11.352ZM58.0313 9.72L56.193 10.5078L56.1982 10.5201L56.2037 10.5323L58.0313 9.72ZM57.1913 8.712L56.1175 10.3993L56.1344 10.41L56.1514 10.4204L57.1913 8.712ZM54.3593 8.784L55.4538 10.4579L54.3593 8.784ZM53.9033 14.688L52.4693 16.0822L52.4791 16.0923L52.4891 16.1022L53.9033 14.688ZM57.7673 15.408L58.1473 17.3716H58.1473L57.7673 15.408ZM59.1593 14.952L58.2964 13.1477L58.2917 13.15L59.1593 14.952ZM60.1433 14.784L59.7094 16.7364L59.7617 16.748L59.8145 16.7568L60.1433 14.784ZM61.0793 15.888L59.0827 16.0054L59.0862 16.0637L59.093 16.1217L61.0793 15.888ZM60.9113 16.704L62.6544 17.6845L62.6669 17.6623L62.6789 17.6398L60.9113 16.704ZM60.1913 17.352L59.2633 15.5803L59.2393 15.5929L59.2156 15.6061L60.1913 17.352ZM58.3433 18.024L57.9336 16.0664L57.9067 16.072L57.88 16.0784L58.3433 18.024ZM56.3753 16.264C55.2178 16.264 54.3338 16.0579 53.6583 15.7255L51.8923 19.3145C53.2328 19.9741 54.7487 20.264 56.3753 20.264V16.264ZM53.6926 15.7428C53.0146 15.3928 52.5316 14.934 52.1889 14.3594L48.7536 16.4086C49.4989 17.658 50.552 18.6232 51.858 19.2972L53.6926 15.7428ZM52.2096 14.395C51.8801 13.8158 51.6793 13.0802 51.6793 12.12H47.6793C47.6793 13.6558 48.0065 15.0962 48.733 16.373L52.2096 14.395ZM51.6793 12.12C51.6793 11.1907 51.8727 10.4746 52.1912 9.90707L48.7033 7.94893C47.9979 9.20542 47.6793 10.6173 47.6793 12.12H51.6793ZM52.1984 9.89415C52.5331 9.28765 52.9797 8.83908 53.5624 8.51197L51.6042 5.02403C50.3629 5.72091 49.3855 6.71235 48.6961 7.96184L52.1984 9.89415ZM53.5723 8.50633C54.1711 8.16565 54.8726 7.976 55.7273 7.976V3.976C54.246 3.976 52.8515 4.31435 51.5942 5.02967L53.5723 8.50633ZM55.7273 7.976C56.3463 7.976 56.8469 8.08036 57.259 8.25288L58.8036 4.56312C57.8397 4.15964 56.8043 3.976 55.7273 3.976V7.976ZM57.296 8.26792C57.716 8.43397 58.0597 8.66874 58.3496 8.97735L61.265 6.23865C60.5629 5.49126 59.7226 4.92602 58.7666 4.54808L57.296 8.26792ZM58.3708 8.99959C58.6388 9.27619 58.8702 9.64399 59.042 10.1485L62.8286 8.85947C62.4883 7.86001 61.9678 6.9638 61.2438 6.21641L58.3708 8.99959ZM59.0463 10.161C59.2175 10.6532 59.3193 11.2504 59.3193 11.976H63.3193C63.3193 10.8776 63.1651 9.82676 62.8243 8.84696L59.0463 10.161ZM59.3193 11.976C59.3193 11.9196 59.3282 11.7851 59.3993 11.6133C59.4746 11.4313 59.5968 11.264 59.7509 11.1356L62.3116 14.2084C63.0579 13.5866 63.3193 12.7325 63.3193 11.976H59.3193ZM59.8313 11.072C59.9831 10.9581 60.1161 10.9132 60.1792 10.897C60.2391 10.8816 60.2505 10.888 60.1913 10.888V14.888C60.7746 14.888 61.5522 14.7813 62.2313 14.272L59.8313 11.072ZM60.1913 10.888H52.6553V14.888H60.1913V10.888ZM54.6553 12.888V11.016H50.6553V12.888H54.6553ZM52.6553 13.016H58.7033V9.016H52.6553V13.016ZM57.3863 9.51085L57.0023 9.84685L59.6363 12.8572L60.0203 12.5212L57.3863 9.51085ZM60.3193 11.352C60.3193 10.5176 60.1996 9.67426 59.8589 8.90772L56.2037 10.5323C56.247 10.6297 56.3193 10.8744 56.3193 11.352H60.3193ZM59.8696 8.93216C59.5361 8.15401 59.0003 7.47175 58.2312 7.0036L56.1514 10.4204C56.1494 10.4192 56.1463 10.417 56.1431 10.4142C56.1399 10.4115 56.1391 10.4103 56.1408 10.4124C56.1437 10.4158 56.1646 10.4417 56.193 10.5078L59.8696 8.93216ZM58.265 7.02468C57.5169 6.54859 56.6794 6.376 55.8713 6.376V10.376C56.1192 10.376 56.1617 10.4274 56.1175 10.3993L58.265 7.02468ZM55.8713 6.376C54.9659 6.376 54.064 6.58749 53.2648 7.11006L55.4538 10.4579C55.4865 10.4365 55.5926 10.376 55.8713 10.376V6.376ZM53.2648 7.11006C52.4838 7.62069 51.9268 8.33582 51.567 9.15836L55.2316 10.7616C55.3197 10.5602 55.4027 10.4913 55.4538 10.4579L53.2648 7.11006ZM51.567 9.15836C51.2054 9.98477 51.0633 10.8884 51.0633 11.808H55.0633C55.0633 11.2876 55.1451 10.9592 55.2316 10.7616L51.567 9.15836ZM51.0633 11.808V12H55.0633V11.808H51.0633ZM51.0633 12C51.0633 13.4745 51.3974 14.9796 52.4693 16.0822L55.3373 13.2938C55.2892 13.2444 55.0633 12.9575 55.0633 12H51.0633ZM52.4891 16.1022C53.5628 17.176 55 17.552 56.4473 17.552V13.552C55.6545 13.552 55.3957 13.352 55.3175 13.2738L52.4891 16.1022ZM56.4473 17.552C56.9915 17.552 57.5628 17.4847 58.1473 17.3716L57.3872 13.4444C56.9798 13.5233 56.6711 13.552 56.4473 13.552V17.552ZM58.1473 17.3716C58.8031 17.2446 59.4319 17.0405 60.0269 16.754L58.2917 13.15C58.0227 13.2795 57.7235 13.3794 57.3872 13.4444L58.1473 17.3716ZM60.0222 16.7563C60.1388 16.7005 59.9983 16.8006 59.7094 16.7364L60.5771 12.8316C59.7123 12.6394 58.9157 12.8515 58.2964 13.1477L60.0222 16.7563ZM59.8145 16.7568C59.7555 16.747 59.6536 16.7203 59.535 16.6525C59.413 16.5828 59.3087 16.4896 59.23 16.3874L62.4005 13.9486C61.8964 13.2932 61.1982 12.9322 60.4721 12.8112L59.8145 16.7568ZM59.23 16.3874C59.1895 16.3347 59.1513 16.2684 59.1235 16.1925C59.0959 16.1173 59.0855 16.0517 59.0827 16.0054L63.0758 15.7706C63.0372 15.1146 62.8147 14.487 62.4005 13.9486L59.23 16.3874ZM59.093 16.1217C59.0836 16.0423 59.0878 15.9632 59.1024 15.8927C59.1165 15.8242 59.1365 15.7818 59.1437 15.7682L62.6789 17.6398C62.9883 17.0553 63.1507 16.3782 63.0656 15.6543L59.093 16.1217ZM59.1681 15.7235C59.2128 15.644 59.2596 15.5946 59.2854 15.5714C59.3089 15.5502 59.3083 15.5568 59.2633 15.5803L61.1193 19.1237C61.6991 18.8199 62.2728 18.3629 62.6544 17.6845L59.1681 15.7235ZM59.2156 15.6061C58.8695 15.7996 58.4483 15.9587 57.9336 16.0664L58.753 19.9816C59.6143 19.8013 60.4251 19.5124 61.1669 19.0979L59.2156 15.6061ZM57.88 16.0784C57.3479 16.2051 56.8475 16.264 56.3753 16.264V20.264C57.1831 20.264 57.9947 20.1629 58.8065 19.9696L57.88 16.0784ZM63.8832 17.736L62.4332 19.1135L62.4508 19.1321L62.4689 19.1502L63.8832 17.736ZM63.8832 1.344L65.2974 2.75821V2.75821L63.8832 1.344ZM66.5712 1.344L65.1212 2.7215L65.1565 2.75868L65.1937 2.794L66.5712 1.344ZM67.0512 8.424V10.424H69.0512V8.424H67.0512ZM66.7152 8.424L64.9047 7.57419L63.567 10.424H66.7152V8.424ZM68.3472 6.624L69.3477 8.35577L69.3596 8.34883L68.3472 6.624ZM73.1712 6.528L72.1356 8.239L72.1522 8.24909L72.1691 8.25885L73.1712 6.528ZM74.5392 8.16L72.6906 8.92352L72.6936 8.93074L72.6967 8.93794L74.5392 8.16ZM74.5152 17.736L73.1009 16.3218L73.0828 16.3399L73.0652 16.3585L74.5152 17.736ZM71.8272 17.736L70.3772 19.1135L70.3948 19.1321L70.4129 19.1502L71.8272 17.736ZM70.9152 9.336L69.3401 10.5686L69.3699 10.6067L69.4015 10.6432L70.9152 9.336ZM67.7232 9.504L66.2852 8.11396L66.273 8.12655L66.261 8.13936L67.7232 9.504ZM65.2512 16.216C65.1317 16.216 65.1008 16.1995 65.1273 16.2088C65.1416 16.2138 65.1679 16.2247 65.2008 16.2451C65.2341 16.2657 65.2673 16.2917 65.2974 16.3218L62.4689 19.1502C63.2692 19.9505 64.2987 20.216 65.2512 20.216V16.216ZM65.3332 16.3585C65.3642 16.3912 65.3892 16.4254 65.408 16.4572C65.4264 16.4886 65.4353 16.5119 65.4385 16.5215C65.4441 16.5384 65.4272 16.4969 65.4272 16.368H61.4272C61.4272 17.2937 61.6695 18.3097 62.4332 19.1135L65.3332 16.3585ZM65.4272 16.368V2.712H61.4272V16.368H65.4272ZM65.4272 2.712C65.4272 2.5687 65.4458 2.52473 65.4385 2.54646C65.4342 2.55932 65.4227 2.58932 65.3986 2.62949C65.3741 2.67038 65.3405 2.71507 65.2974 2.75821L62.4689 -0.0702143C61.6576 0.741145 61.4272 1.79571 61.4272 2.712H65.4272ZM65.2974 2.75821C65.2673 2.78833 65.2341 2.81431 65.2008 2.8349C65.1679 2.85525 65.1416 2.86618 65.1273 2.8712C65.1008 2.88051 65.1317 2.864 65.2512 2.864V-1.136C64.2987 -1.136 63.2692 -0.870462 62.4689 -0.0702119L65.2974 2.75821ZM65.2512 2.864C65.3578 2.864 65.3726 2.87921 65.3297 2.86359C65.3071 2.85538 65.2731 2.84022 65.2334 2.81459C65.1933 2.78871 65.1549 2.75705 65.1212 2.7215L68.0212 -0.0334978C67.2337 -0.862399 66.1999 -1.136 65.2512 -1.136V2.864ZM65.1937 2.794C65.1516 2.75403 65.1169 2.71072 65.0902 2.66849C65.0639 2.62688 65.0501 2.59381 65.044 2.57617C65.0329 2.54453 65.0512 2.57783 65.0512 2.712H69.0512C69.0512 1.76879 68.7979 0.700742 67.9487 -0.105999L65.1937 2.794ZM65.0512 2.712V8.424H69.0512V2.712H65.0512ZM67.0512 6.424H66.7152V10.424H67.0512V6.424ZM68.5256 9.27381C68.7277 8.84329 68.9967 8.55854 69.3477 8.35573L67.3466 4.89227C66.2576 5.52146 65.4386 6.43671 64.9047 7.57419L68.5256 9.27381ZM69.3596 8.34883C69.762 8.11259 70.239 7.976 70.8432 7.976V3.976C69.5913 3.976 68.4043 4.27141 67.3348 4.89917L69.3596 8.34883ZM70.8432 7.976C71.5386 7.976 71.9265 8.11244 72.1356 8.239L74.2068 4.817C73.1999 4.20755 72.0357 3.976 70.8432 3.976V7.976ZM72.1691 8.25885C72.3461 8.36132 72.5311 8.53735 72.6906 8.92352L76.3877 7.39648C75.9392 6.31065 75.2122 5.39868 74.1732 4.79715L72.1691 8.25885ZM72.6967 8.93794C72.862 9.32952 72.9952 9.96054 72.9952 10.92H76.9952C76.9952 9.63946 76.8243 8.43048 76.3817 7.38206L72.6967 8.93794ZM72.9952 10.92V16.368H76.9952V10.92H72.9952ZM72.9952 16.368C72.9952 16.4874 72.9786 16.5184 72.988 16.4918C72.993 16.4775 73.0039 16.4513 73.0243 16.4184C73.0448 16.3851 73.0708 16.3519 73.1009 16.3218L75.9294 19.1502C76.7296 18.35 76.9952 17.3204 76.9952 16.368H72.9952ZM73.0652 16.3585C73.102 16.3197 73.1429 16.2865 73.1841 16.2602C73.2248 16.2342 73.2584 16.2197 73.2785 16.2125C73.3158 16.1992 73.2917 16.216 73.1712 16.216V20.216C74.1169 20.216 75.1678 19.9528 75.9652 19.1135L73.0652 16.3585ZM73.1712 16.216C73.0656 16.216 73.0439 16.2011 73.0758 16.2125C73.0925 16.2185 73.1192 16.23 73.1512 16.25C73.1834 16.2702 73.2143 16.2947 73.2414 16.3218L70.4129 19.1502C71.2033 19.9406 72.2166 20.216 73.1712 20.216V16.216ZM73.2772 16.3585C73.3082 16.3912 73.3332 16.4254 73.352 16.4572C73.3704 16.4886 73.3793 16.5119 73.3825 16.5215C73.3881 16.5384 73.3712 16.4969 73.3712 16.368H69.3712C69.3712 17.2937 69.6135 18.3097 70.3772 19.1135L73.2772 16.3585ZM73.3712 16.368V11.088H69.3712V16.368H73.3712ZM73.3712 11.088C73.3712 10.1199 73.2093 8.93251 72.4288 8.02876L69.4015 10.6432C69.3027 10.5288 69.3007 10.4613 69.3216 10.5418C69.3428 10.6231 69.3712 10.7946 69.3712 11.088H73.3712ZM72.4902 8.10338C71.7144 7.1121 70.5932 6.784 69.5712 6.784V10.784C69.6787 10.784 69.6734 10.8008 69.6033 10.772C69.5669 10.7571 69.5197 10.7324 69.4692 10.6945C69.4183 10.6564 69.3747 10.6128 69.3401 10.5686L72.4902 8.10338ZM69.5712 6.784C68.3499 6.784 67.1836 7.18454 66.2852 8.11396L69.1611 10.894C69.1907 10.8635 69.2565 10.784 69.5712 10.784V6.784ZM66.261 8.13936C65.3953 9.06697 65.0512 10.234 65.0512 11.424H69.0512C69.0512 11.014 69.155 10.901 69.1853 10.8686L66.261 8.13936ZM65.0512 11.424V16.368H69.0512V11.424H65.0512ZM65.0512 16.368C65.0512 16.5198 65.032 16.5726 65.0364 16.5589C65.0438 16.5361 65.078 16.4514 65.1685 16.3585C65.211 16.3148 65.2562 16.2797 65.2991 16.2533C65.3413 16.2273 65.3743 16.214 65.3911 16.2082C65.4209 16.198 65.3858 16.216 65.2512 16.216V20.216C66.173 20.216 67.2286 19.9762 68.0339 19.1495C68.8296 18.3325 69.0512 17.2793 69.0512 16.368H65.0512ZM80.0526 17.52L79.1098 19.2839L79.1161 19.2872L79.1223 19.2905L80.0526 17.52ZM77.8926 15.384L76.1414 16.3502L77.8926 15.384ZM77.5566 9.552L75.6889 8.8367V8.83671L77.5566 9.552ZM78.8046 7.632L80.1975 9.06716L80.1982 9.06656L78.8046 7.632ZM80.7966 6.408L81.4643 8.29325L81.4816 8.28712L81.4988 8.28066L80.7966 6.408ZM86.6526 6.72L85.7098 8.48386L85.7161 8.4872L85.7223 8.49049L86.6526 6.72ZM88.8366 8.832L87.0926 9.81107L87.0991 9.82261L87.1057 9.83407L88.8366 8.832ZM89.1726 14.664L87.3184 13.9144L87.3115 13.9315L87.3049 13.9487L89.1726 14.664ZM87.9246 16.608L89.3388 18.0222L87.9246 16.608ZM85.9326 17.856L86.6003 19.7413L86.6113 19.7374L86.6222 19.7333L85.9326 17.856ZM84.7326 15.168L83.6232 13.5039L84.7326 15.168ZM85.6446 14.04L87.4673 14.8632L87.4722 14.8524L87.4769 14.8416L85.6446 14.04ZM85.2606 9.528L83.7421 10.8296L83.7514 10.8405L83.7609 10.8512L85.2606 9.528ZM81.9966 9.048L80.9676 7.33301L80.952 7.34237L80.9366 7.352L81.9966 9.048ZM81.0846 10.176L79.2523 9.37436L79.2461 9.38841L79.2402 9.40255L81.0846 10.176ZM81.4926 14.712L79.9562 15.9924L79.965 16.003L79.9741 16.0136L81.4926 14.712ZM83.3646 16.264C82.3648 16.264 81.5912 16.0692 80.9828 15.7495L79.1223 19.2905C80.402 19.9628 81.8364 20.264 83.3646 20.264V16.264ZM80.9953 15.7561C80.4109 15.4437 79.9705 15.01 79.6437 14.4178L76.1414 16.3502C76.8387 17.614 77.8383 18.6043 79.1098 19.2839L80.9953 15.7561ZM79.6437 14.4178C79.3237 13.8378 79.1246 13.0871 79.1246 12.096H75.1246C75.1246 13.6329 75.4374 15.0742 76.1414 16.3502L79.6437 14.4178ZM79.1246 12.096C79.1246 11.3552 79.2374 10.7553 79.4243 10.2673L75.6889 8.83671C75.2998 9.85272 75.1246 10.9488 75.1246 12.096H79.1246ZM79.4243 10.2673C79.6149 9.76968 79.8751 9.38011 80.1975 9.06716L77.4116 6.19684C76.6461 6.93989 76.0743 7.83032 75.6889 8.8367L79.4243 10.2673ZM80.1982 9.06656C80.5425 8.73209 80.9558 8.47336 81.4643 8.29325L80.1289 4.52275C79.1014 4.88664 78.1867 5.4439 77.411 6.19744L80.1982 9.06656ZM81.4988 8.28066C82.0111 8.08855 82.6247 7.976 83.3646 7.976V3.976C82.2165 3.976 81.118 4.15145 80.0943 4.53534L81.4988 8.28066ZM83.3646 7.976C84.3655 7.976 85.1249 8.1712 85.7098 8.48386L87.5954 4.95614C86.3243 4.2768 84.8917 3.976 83.3646 3.976V7.976ZM85.7223 8.49049C86.3315 8.81053 86.7736 9.24285 87.0926 9.81107L90.5806 7.85293C89.8756 6.59715 88.8617 5.62147 87.5828 4.94951L85.7223 8.49049ZM87.1057 9.83407C87.4253 10.386 87.6286 11.1136 87.6286 12.096H91.6286C91.6286 10.5504 91.3039 9.10201 90.5674 7.82993L87.1057 9.83407ZM87.6286 12.096C87.6286 12.8454 87.5101 13.44 87.3184 13.9144L91.0268 15.4136C91.443 14.384 91.6286 13.2666 91.6286 12.096H87.6286ZM87.3049 13.9487C87.1125 14.451 86.8466 14.8576 86.5104 15.1938L89.3388 18.0222C90.0906 17.2704 90.6567 16.381 91.0403 15.3793L87.3049 13.9487ZM86.5104 15.1938C86.1886 15.5156 85.7784 15.782 85.243 15.9787L86.6222 19.7333C87.6548 19.354 88.5726 18.7884 89.3388 18.0222L86.5104 15.1938ZM85.2649 15.9707C84.7423 16.1558 84.1165 16.264 83.3646 16.264V20.264C84.5006 20.264 85.5868 20.1002 86.6003 19.7413L85.2649 15.9707ZM83.3646 17.552C84.2289 17.552 85.0839 17.3375 85.842 16.8321L83.6232 13.5039C83.6133 13.5105 83.5563 13.552 83.3646 13.552V17.552ZM85.842 16.8321C86.5901 16.3334 87.1171 15.6387 87.4673 14.8632L83.8219 13.2168C83.7241 13.4333 83.6431 13.4906 83.6232 13.5039L85.842 16.8321ZM87.4769 14.8416C87.8466 13.9967 87.9806 13.0524 87.9806 12.096H83.9806C83.9806 12.7076 83.8906 13.0593 83.8123 13.2384L87.4769 14.8416ZM87.9806 12.096C87.9806 10.7209 87.7093 9.28038 86.7603 8.20476L83.7609 10.8512C83.7718 10.8636 83.9806 11.1351 83.9806 12.096H87.9806ZM86.7791 8.22642C85.8927 7.19232 84.6906 6.688 83.3646 6.688V10.688C83.6066 10.688 83.6684 10.7437 83.7421 10.8296L86.7791 8.22642ZM83.3646 6.688C82.5266 6.688 81.7083 6.8886 80.9676 7.33301L83.0256 10.763C83.0849 10.7274 83.1786 10.688 83.3646 10.688V6.688ZM80.9366 7.352C80.1383 7.85093 79.5996 8.58042 79.2523 9.37436L82.9169 10.9776C82.9682 10.8604 83.012 10.7969 83.0359 10.7674C83.0578 10.7404 83.0653 10.7386 83.0566 10.744L80.9366 7.352ZM79.2402 9.40255C78.8938 10.2286 78.7726 11.1577 78.7726 12.096H82.7726C82.7726 11.4663 82.8594 11.1154 82.929 10.9495L79.2402 9.40255ZM78.7726 12.096C78.7726 13.4844 79.0493 14.9041 79.9562 15.9924L83.029 13.4316C82.9759 13.3679 82.7726 13.0436 82.7726 12.096H78.7726ZM79.9741 16.0136C80.8516 17.0374 82.0403 17.552 83.3646 17.552V13.552C83.2281 13.552 83.1639 13.5283 83.1394 13.5173C83.117 13.5072 83.0746 13.4844 83.0111 13.4104L79.9741 16.0136ZM93.7054 17.712L94.6839 15.9677L93.7054 17.712ZM92.2414 16.056L90.3872 16.8056L90.3969 16.8296L90.4073 16.8535L92.2414 16.056ZM92.2414 6.48L90.8639 5.03L90.8453 5.04766L90.8272 5.06579L92.2414 6.48ZM94.9294 6.48L93.5519 7.93V7.93L94.9294 6.48ZM95.8414 14.952L94.2935 16.2185L94.308 16.2362L94.3229 16.2536L95.8414 14.952ZM98.8894 14.736L97.4052 13.3954L97.4028 13.3981L98.8894 14.736ZM100.017 6.48L98.6399 5.03L98.6213 5.04766L98.6032 5.06579L100.017 6.48ZM102.705 6.48L101.291 7.89421L101.309 7.91234L101.328 7.93L102.705 6.48ZM100.113 17.736L101.563 16.3585V16.3585L100.113 17.736ZM99.6574 14.76L101.524 14.042L97.6574 14.76H99.6574ZM100.017 15.696L101.854 16.4882L102.177 15.7393L101.884 14.978L100.017 15.696ZM98.5054 17.592L99.6333 19.2436V19.2436L98.5054 17.592ZM96.1774 16.264C95.4223 16.264 94.9606 16.123 94.6839 15.9677L92.7269 19.4563C93.7622 20.037 94.9485 20.264 96.1774 20.264V16.264ZM94.6839 15.9677C94.4352 15.8282 94.2338 15.6226 94.0755 15.2585L90.4073 16.8535C90.889 17.9614 91.6636 18.8598 92.7269 19.4563L94.6839 15.9677ZM94.0956 15.3064C93.9159 14.8618 93.7854 14.206 93.7854 13.272H89.7854C89.7854 14.546 89.9589 15.7462 90.3872 16.8056L94.0956 15.3064ZM93.7854 13.272V7.848H89.7854V13.272H93.7854ZM93.7854 7.848C93.7854 7.7047 93.804 7.66073 93.7968 7.68246C93.7925 7.69532 93.781 7.72532 93.7569 7.76549C93.7324 7.80638 93.6988 7.85107 93.6556 7.89421L90.8272 5.06579C90.0158 5.87715 89.7854 6.93171 89.7854 7.848H93.7854ZM93.6189 7.93C93.5893 7.95815 93.5575 7.98181 93.5265 8.00021C93.4959 8.01838 93.4721 8.02785 93.46 8.03196C93.4376 8.03954 93.4701 8.024 93.5854 8.024V4.024C92.6582 4.024 91.6582 4.27545 90.8639 5.03L93.6189 7.93ZM93.5854 8.024C93.7007 8.024 93.7332 8.03954 93.7108 8.03196C93.6987 8.02785 93.6749 8.01838 93.6443 8.00021C93.6133 7.98181 93.5815 7.95815 93.5519 7.93L96.3069 5.03C95.5126 4.27545 94.5126 4.024 93.5854 4.024V8.024ZM93.5519 7.93C93.5098 7.89003 93.4751 7.84672 93.4484 7.80449C93.4221 7.76288 93.4084 7.72981 93.4022 7.71218C93.3911 7.68053 93.4094 7.71383 93.4094 7.848H97.4094C97.4094 6.90479 97.1561 5.83674 96.3069 5.03L93.5519 7.93ZM93.4094 7.848V13.368H97.4094V7.848H93.4094ZM93.4094 13.368C93.4094 14.2937 93.5906 15.3594 94.2935 16.2185L97.3893 13.6855C97.4554 13.7663 97.4598 13.813 97.4469 13.7658C97.4328 13.7141 97.4094 13.5902 97.4094 13.368H93.4094ZM94.3229 16.2536C95.1272 17.192 96.25 17.456 97.2094 17.456V13.456C97.0695 13.456 97.0446 13.4363 97.0908 13.4533C97.1164 13.4627 97.1592 13.4819 97.2106 13.5167C97.2628 13.552 97.3142 13.5971 97.3599 13.6504L94.3229 16.2536ZM97.2094 17.456C98.4226 17.456 99.5376 17.0055 100.376 16.0739L97.4028 13.3981C97.3836 13.4194 97.3712 13.4291 97.3666 13.4324C97.3623 13.4355 97.36 13.4367 97.3576 13.4377C97.3567 13.4381 97.3175 13.456 97.2094 13.456V17.456ZM100.374 16.0766C101.217 15.1432 101.561 13.9844 101.561 12.792H97.5614C97.5614 13.1996 97.4581 13.3368 97.4052 13.3954L100.374 16.0766ZM101.561 12.792V7.848H97.5614V12.792H101.561ZM101.561 7.848C101.561 7.7047 101.58 7.66073 101.573 7.68246C101.568 7.69532 101.557 7.72532 101.533 7.76549C101.508 7.80638 101.475 7.85107 101.432 7.89421L98.6032 5.06579C97.7918 5.87715 97.5614 6.93171 97.5614 7.848H101.561ZM101.395 7.93C101.365 7.95815 101.333 7.98181 101.302 8.00021C101.272 8.01838 101.248 8.02785 101.236 8.03196C101.214 8.03954 101.246 8.024 101.361 8.024V4.024C100.434 4.024 99.4342 4.27545 98.6399 5.03L101.395 7.93ZM101.361 8.024C101.491 8.024 101.526 8.04128 101.499 8.03196C101.483 8.02672 101.453 8.01454 101.413 7.99065C101.373 7.96639 101.331 7.9342 101.291 7.89421L104.12 5.06578C103.317 4.26352 102.28 4.024 101.361 4.024V8.024ZM101.328 7.93C101.286 7.89003 101.251 7.84672 101.224 7.80448C101.198 7.76288 101.184 7.72981 101.178 7.71217C101.167 7.68053 101.185 7.71383 101.185 7.848H105.185C105.185 6.90479 104.932 5.83674 104.083 5.03L101.328 7.93ZM101.185 7.848V16.368H105.185V7.848H101.185ZM101.185 16.368C101.185 16.5242 101.166 16.5824 101.169 16.5738C101.174 16.5569 101.206 16.4732 101.296 16.378C101.339 16.3328 101.385 16.2953 101.431 16.2661C101.477 16.2374 101.514 16.2216 101.537 16.2137C101.578 16.1993 101.555 16.216 101.433 16.216V20.216C102.354 20.216 103.404 19.9681 104.199 19.13C104.974 18.312 105.185 17.2665 105.185 16.368H101.185ZM101.433 16.216C101.327 16.216 101.312 16.2008 101.355 16.2164C101.377 16.2246 101.411 16.2398 101.451 16.2654C101.491 16.2913 101.53 16.323 101.563 16.3585L98.6634 19.1135C99.4509 19.9424 100.485 20.216 101.433 20.216V16.216ZM101.563 16.3585C101.594 16.3912 101.619 16.4254 101.638 16.4572C101.657 16.4886 101.666 16.5119 101.669 16.5215C101.674 16.5384 101.657 16.4969 101.657 16.368H97.6574C97.6574 17.2937 97.8998 18.3097 98.6634 19.1135L101.563 16.3585ZM101.657 16.368V14.76H97.6574V16.368H101.657ZM97.7907 15.478L98.1507 16.414L101.884 14.978L101.524 14.042L97.7907 15.478ZM98.181 14.9038C97.9606 15.4146 97.6845 15.7307 97.3775 15.9404L99.6333 19.2436C100.638 18.5573 101.37 17.6094 101.854 16.4882L98.181 14.9038ZM97.3775 15.9404C97.0953 16.1331 96.7243 16.264 96.1774 16.264V20.264C97.4225 20.264 98.6035 19.9469 99.6333 19.2436L97.3775 15.9404ZM108.318 18.072L107.975 20.0424L107.982 20.0436L108.318 18.072ZM106.302 17.424L105.407 19.2129L106.302 17.424ZM105.606 16.824L103.817 17.7184L103.851 17.7871L103.891 17.853L105.606 16.824ZM105.438 16.056L103.442 15.9312L105.438 16.056ZM105.678 15.36L104.092 14.1406L104.062 14.1803L104.033 14.2216L105.678 15.36ZM106.278 14.952L106.793 16.8845L106.834 16.8736L106.874 16.861L106.278 14.952ZM107.118 15.024L106.342 16.8673L106.352 16.8715L107.118 15.024ZM108.918 15.6L108.514 17.5589L108.918 15.6ZM112.014 15.456L113.143 17.1066L113.152 17.1006L113.161 17.0945L112.014 15.456ZM111.27 13.536L110.914 15.504L110.934 15.5077L110.954 15.5109L111.27 13.536ZM108.75 13.08L109.106 11.1119L109.099 11.1108L108.75 13.08ZM106.446 12L104.99 13.372L105.011 13.3934L105.031 13.4142L106.446 12ZM106.326 7.8L107.904 9.02788L107.912 9.01744L107.92 9.00688L106.326 7.8ZM108.174 6.456L108.897 8.32072L108.907 8.31689L108.916 8.31295L108.174 6.456ZM112.878 6.168L113.29 4.2109V4.2109L112.878 6.168ZM114.63 6.792L113.715 8.57058L113.725 8.57577L113.735 8.58086L114.63 6.792ZM115.23 7.368L113.417 8.21377L113.44 8.26211L113.465 8.30918L115.23 7.368ZM115.35 8.112L113.384 7.74342L113.373 7.80339L113.365 7.86393L115.35 8.112ZM114.438 9.216L113.953 7.27571L113.937 7.2795L113.922 7.28353L114.438 9.216ZM113.598 9.12L112.749 10.9309L112.801 10.9555L112.855 10.977L113.598 9.12ZM112.182 8.616L111.68 10.552L111.714 10.5608L111.748 10.5684L112.182 8.616ZM109.374 8.808L110.521 10.4465L110.547 10.4277L110.574 10.408L109.374 8.808ZM109.158 10.368L107.683 11.7194L107.742 11.7835L107.806 11.8423L109.158 10.368ZM110.022 10.728L110.378 8.75996L110.364 8.75749L110.35 8.75521L110.022 10.728ZM112.542 11.184L112.186 13.152L112.197 13.1541L112.208 13.156L112.542 11.184ZM114.918 12.24L113.525 13.6752L113.536 13.6859L113.547 13.6964L114.918 12.24ZM114.294 17.232L115.472 18.8483L115.476 18.8448L114.294 17.232ZM110.502 16.264C109.919 16.264 109.304 16.211 108.653 16.1004L107.982 20.0436C108.836 20.189 109.676 20.264 110.502 20.264V16.264ZM108.66 16.1016C108.097 16.0037 107.614 15.844 107.196 15.6351L105.407 19.2129C106.206 19.612 107.066 19.8843 107.975 20.0424L108.66 16.1016ZM107.196 15.6351C107.123 15.5984 107.221 15.6294 107.321 15.795L103.891 17.853C104.278 18.4986 104.841 18.9296 105.407 19.2129L107.196 15.6351ZM107.395 15.9296C107.398 15.9363 107.411 15.9646 107.421 16.0126C107.432 16.0618 107.438 16.1196 107.434 16.1808L103.442 15.9312C103.401 16.5788 103.55 17.1843 103.817 17.7184L107.395 15.9296ZM107.434 16.1808C107.431 16.2243 107.422 16.2802 107.4 16.342C107.379 16.4039 107.351 16.4569 107.322 16.4984L104.033 14.2216C103.679 14.7335 103.48 15.317 103.442 15.9312L107.434 16.1808ZM107.263 16.5794C107.224 16.6295 107.162 16.6947 107.072 16.7559C106.981 16.8177 106.884 16.8601 106.793 16.8845L105.762 13.0195C105.072 13.2036 104.505 13.6047 104.092 14.1406L107.263 16.5794ZM106.874 16.861C106.743 16.9021 106.615 16.9118 106.509 16.9027C106.408 16.894 106.35 16.8707 106.342 16.8673L107.894 13.1807C107.258 12.913 106.485 12.7919 105.681 13.043L106.874 16.861ZM106.352 16.8715C107.094 17.1794 107.817 17.4154 108.514 17.5589L109.321 13.6411C108.93 13.5606 108.453 13.4126 107.884 13.1765L106.352 16.8715ZM108.514 17.5589C109.184 17.6968 109.855 17.768 110.526 17.768V13.768C110.14 13.768 109.739 13.7272 109.321 13.6411L108.514 17.5589ZM110.526 17.768C111.317 17.768 112.324 17.667 113.143 17.1066L110.884 13.8054C111.015 13.7163 111.084 13.7156 111.003 13.7326C110.928 13.7483 110.777 13.768 110.526 13.768V17.768ZM113.161 17.0945C113.947 16.5441 114.494 15.6759 114.494 14.592H110.494C110.494 14.4521 110.529 14.2741 110.625 14.1007C110.718 13.9348 110.824 13.8474 110.867 13.8175L113.161 17.0945ZM114.494 14.592C114.494 13.8027 114.21 12.9091 113.401 12.2868L110.962 15.4572C110.798 15.3311 110.664 15.1596 110.581 14.9672C110.502 14.7868 110.494 14.646 110.494 14.592H114.494ZM113.401 12.2868C112.824 11.8425 112.152 11.6517 111.586 11.5611L110.954 15.5109C111.003 15.5188 111.04 15.5267 111.067 15.5333C111.093 15.5399 111.105 15.5443 111.106 15.5447C111.107 15.5451 111.094 15.5402 111.069 15.5272C111.045 15.5142 111.007 15.492 110.962 15.4572L113.401 12.2868ZM111.626 11.568L109.106 11.112L108.394 15.048L110.914 15.504L111.626 11.568ZM109.099 11.1108C108.387 10.9844 108.036 10.7623 107.86 10.5858L105.031 13.4142C105.943 14.3257 107.129 14.8236 108.4 15.0492L109.099 11.1108ZM107.901 10.628C107.767 10.4856 107.654 10.2856 107.654 9.864H103.654C103.654 11.1704 104.069 12.3944 104.99 13.372L107.901 10.628ZM107.654 9.864C107.654 9.46329 107.756 9.21854 107.904 9.02788L104.747 6.57212C103.999 7.53346 103.654 8.66471 103.654 9.864H107.654ZM107.92 9.00688C108.116 8.74859 108.412 8.5088 108.897 8.32072L107.451 4.59128C106.368 5.0112 105.431 5.66741 104.731 6.59311L107.92 9.00688ZM108.916 8.31295C109.444 8.10206 110.09 7.976 110.886 7.976V3.976C109.666 3.976 108.504 4.16994 107.431 4.59905L108.916 8.31295ZM110.886 7.976C111.488 7.976 112.012 8.0297 112.466 8.1251L113.29 4.2109C112.527 4.0503 111.723 3.976 110.886 3.976V7.976ZM112.466 8.1251C112.896 8.21581 113.312 8.36315 113.715 8.57058L115.544 5.01342C114.828 4.64485 114.075 4.37619 113.29 4.2109L112.466 8.1251ZM113.735 8.58086C113.728 8.57703 113.677 8.55055 113.611 8.48677C113.541 8.41996 113.471 8.32781 113.417 8.21377L117.042 6.52223C116.701 5.79077 116.126 5.30404 115.524 5.00314L113.735 8.58086ZM113.465 8.30918C113.434 8.25069 113.399 8.1635 113.381 8.05246C113.363 7.94031 113.367 7.83375 113.384 7.74342L117.315 8.48058C117.451 7.75693 117.326 7.0487 116.994 6.42682L113.465 8.30918ZM113.365 7.86393C113.371 7.81931 113.383 7.76715 113.406 7.7133C113.428 7.65964 113.454 7.61764 113.476 7.58858L116.647 10.0274C117.02 9.54208 117.257 8.97596 117.334 8.36007L113.365 7.86393ZM113.476 7.58858C113.526 7.52463 113.597 7.45368 113.691 7.39206C113.785 7.33052 113.877 7.29449 113.953 7.27571L114.923 11.1563C115.614 10.9836 116.21 10.595 116.647 10.0274L113.476 7.58858ZM113.922 7.28353C114.233 7.20065 114.412 7.29165 114.34 7.26305L112.855 10.977C113.423 11.2043 114.162 11.3593 114.953 11.1485L113.922 7.28353ZM114.447 7.30908C113.836 7.02311 113.224 6.79877 112.616 6.66363L111.748 10.5684C112.004 10.6252 112.335 10.7369 112.749 10.9309L114.447 7.30908ZM112.684 6.68001C112.106 6.53034 111.521 6.448 110.934 6.448V10.448C111.146 10.448 111.393 10.4777 111.68 10.552L112.684 6.68001ZM110.934 6.448C110.085 6.448 109.023 6.57125 108.174 7.208L110.574 10.408C110.449 10.5012 110.379 10.504 110.453 10.4868C110.525 10.4703 110.676 10.448 110.934 10.448V6.448ZM108.227 7.16954C107.44 7.71993 106.894 8.58813 106.894 9.672H110.894C110.894 9.81189 110.858 9.98987 110.762 10.1633C110.67 10.3292 110.563 10.4166 110.521 10.4465L108.227 7.16954ZM106.894 9.672C106.894 10.42 107.153 11.141 107.683 11.7194L110.632 9.01655C110.707 9.09813 110.779 9.20781 110.83 9.34069C110.88 9.47213 110.894 9.58897 110.894 9.672H106.894ZM107.806 11.8423C108.392 12.3794 109.104 12.6026 109.693 12.7008L110.35 8.75521C110.274 8.74249 110.26 8.7325 110.287 8.74385C110.316 8.75591 110.404 8.79733 110.509 8.89369L107.806 11.8423ZM109.666 12.696L112.186 13.152L112.898 9.21596L110.378 8.75996L109.666 12.696ZM112.208 13.156C113 13.29 113.365 13.52 113.525 13.6752L116.311 10.8048C115.383 9.90405 114.163 9.43 112.875 9.21204L112.208 13.156ZM113.547 13.6964C113.61 13.7561 113.734 13.8886 113.734 14.352H117.734C117.734 13.0234 117.313 11.7479 116.288 10.7836L113.547 13.6964ZM113.734 14.352C113.734 14.9471 113.544 15.3014 113.111 15.6192L115.476 18.8448C116.963 17.7546 117.734 16.1889 117.734 14.352H113.734ZM113.116 15.6157C112.617 15.9793 111.811 16.264 110.502 16.264V20.264C112.361 20.264 114.082 19.8607 115.472 18.8483L113.116 15.6157ZM120.322 17.52L119.405 19.2972L119.422 19.306L119.439 19.3145L120.322 17.52ZM118.018 15.384L116.28 16.373L116.29 16.3909L116.301 16.4086L118.018 15.384ZM117.994 8.928L119.738 9.90707L119.742 9.90063L119.745 9.89415L117.994 8.928ZM120.13 6.768L121.109 8.512L121.119 8.50633L120.13 6.768ZM125.578 6.408L124.806 8.25288L124.824 8.26059L124.843 8.26792L125.578 6.408ZM127.354 7.608L125.896 8.97735L125.907 8.98855L125.918 8.99959L127.354 7.608ZM128.482 9.504L126.589 10.1485L126.593 10.161L128.482 9.504ZM128.578 12.672L129.778 14.272L129.819 14.2413L129.859 14.2084L128.578 12.672ZM120.202 12.888H118.202V14.888H120.202V12.888ZM120.202 11.016V9.016H118.202V11.016H120.202ZM126.25 11.016L127.567 12.5212L131.573 9.016H126.25V11.016ZM125.866 11.352H123.866V15.7595L127.183 12.8572L125.866 11.352ZM125.578 9.72L123.74 10.5078L123.745 10.5201L123.751 10.5323L125.578 9.72ZM124.738 8.712L123.664 10.3993L123.681 10.41L123.698 10.4204L124.738 8.712ZM121.906 8.784L123.001 10.4579L121.906 8.784ZM121.45 14.688L120.016 16.0822L120.026 16.0923L120.036 16.1022L121.45 14.688ZM125.314 15.408L125.694 17.3716L125.314 15.408ZM126.706 14.952L125.843 13.1477L125.839 13.15L126.706 14.952ZM127.69 14.784L127.256 16.7364L127.309 16.748L127.361 16.7568L127.69 14.784ZM128.626 15.888L126.63 16.0054L126.633 16.0637L126.64 16.1217L128.626 15.888ZM128.458 16.704L130.201 17.6845L130.214 17.6623L130.226 17.6398L128.458 16.704ZM127.738 17.352L126.81 15.5803L126.786 15.5929L126.763 15.6061L127.738 17.352ZM125.89 18.024L125.48 16.0664L125.454 16.072L125.427 16.0784L125.89 18.024ZM123.922 16.264C122.765 16.264 121.881 16.0579 121.205 15.7255L119.439 19.3145C120.78 19.9741 122.296 20.264 123.922 20.264V16.264ZM121.239 15.7428C120.561 15.3928 120.078 14.934 119.736 14.3594L116.301 16.4086C117.046 17.658 118.099 18.6232 119.405 19.2972L121.239 15.7428ZM119.756 14.395C119.427 13.8158 119.226 13.0802 119.226 12.12H115.226C115.226 13.6558 115.553 15.0962 116.28 16.373L119.756 14.395ZM119.226 12.12C119.226 11.1907 119.42 10.4746 119.738 9.90707L116.25 7.94893C115.545 9.20542 115.226 10.6173 115.226 12.12H119.226ZM119.745 9.89415C120.08 9.28765 120.527 8.83908 121.109 8.51197L119.151 5.02403C117.91 5.72091 116.932 6.71235 116.243 7.96184L119.745 9.89415ZM121.119 8.50633C121.718 8.16565 122.419 7.976 123.274 7.976V3.976C121.793 3.976 120.398 4.31435 119.141 5.02967L121.119 8.50633ZM123.274 7.976C123.893 7.976 124.394 8.08036 124.806 8.25288L126.35 4.56312C125.387 4.15964 124.351 3.976 123.274 3.976V7.976ZM124.843 8.26792C125.263 8.43397 125.607 8.66874 125.896 8.97735L128.812 6.23865C128.11 5.49126 127.269 4.92602 126.313 4.54808L124.843 8.26792ZM125.918 8.99959C126.186 9.27619 126.417 9.64399 126.589 10.1485L130.375 8.85947C130.035 7.86001 129.515 6.9638 128.791 6.21641L125.918 8.99959ZM126.593 10.161C126.764 10.6532 126.866 11.2504 126.866 11.976H130.866C130.866 10.8776 130.712 9.82676 130.371 8.84696L126.593 10.161ZM126.866 11.976C126.866 11.9196 126.875 11.7851 126.946 11.6133C127.021 11.4313 127.144 11.264 127.298 11.1356L129.859 14.2084C130.605 13.5866 130.866 12.7325 130.866 11.976H126.866ZM127.378 11.072C127.53 10.9581 127.663 10.9132 127.726 10.897C127.786 10.8816 127.797 10.888 127.738 10.888V14.888C128.321 14.888 129.099 14.7813 129.778 14.272L127.378 11.072ZM127.738 10.888H120.202V14.888H127.738V10.888ZM122.202 12.888V11.016H118.202V12.888H122.202ZM120.202 13.016H126.25V9.016H120.202V13.016ZM124.933 9.51085L124.549 9.84685L127.183 12.8572L127.567 12.5212L124.933 9.51085ZM127.866 11.352C127.866 10.5176 127.746 9.67426 127.406 8.90772L123.751 10.5323C123.794 10.6297 123.866 10.8744 123.866 11.352H127.866ZM127.416 8.93216C127.083 8.15401 126.547 7.47175 125.778 7.0036L123.698 10.4204C123.696 10.4192 123.693 10.417 123.69 10.4142C123.687 10.4115 123.686 10.4103 123.688 10.4124C123.691 10.4158 123.712 10.4417 123.74 10.5078L127.416 8.93216ZM125.812 7.02468C125.064 6.54859 124.226 6.376 123.418 6.376V10.376C123.666 10.376 123.709 10.4274 123.664 10.3993L125.812 7.02468ZM123.418 6.376C122.513 6.376 121.611 6.58749 120.812 7.11006L123.001 10.4579C123.033 10.4365 123.14 10.376 123.418 10.376V6.376ZM120.812 7.11006C120.031 7.62069 119.474 8.33582 119.114 9.15836L122.778 10.7616C122.867 10.5602 122.95 10.4913 123.001 10.4579L120.812 7.11006ZM119.114 9.15836C118.752 9.98477 118.61 10.8884 118.61 11.808H122.61C122.61 11.2876 122.692 10.9592 122.778 10.7616L119.114 9.15836ZM118.61 11.808V12H122.61V11.808H118.61ZM118.61 12C118.61 13.4745 118.944 14.9796 120.016 16.0822L122.884 13.2938C122.836 13.2444 122.61 12.9575 122.61 12H118.61ZM120.036 16.1022C121.11 17.176 122.547 17.552 123.994 17.552V13.552C123.201 13.552 122.943 13.352 122.864 13.2738L120.036 16.1022ZM123.994 17.552C124.538 17.552 125.11 17.4847 125.694 17.3716L124.934 13.4444C124.527 13.5233 124.218 13.552 123.994 13.552V17.552ZM125.694 17.3716C126.35 17.2446 126.979 17.0405 127.574 16.754L125.839 13.15C125.57 13.2795 125.27 13.3794 124.934 13.4444L125.694 17.3716ZM127.569 16.7563C127.686 16.7005 127.545 16.8006 127.256 16.7364L128.124 12.8316C127.259 12.6394 126.463 12.8515 125.843 13.1477L127.569 16.7563ZM127.361 16.7568C127.302 16.747 127.201 16.7203 127.082 16.6525C126.96 16.5828 126.856 16.4896 126.777 16.3874L129.947 13.9486C129.443 13.2932 128.745 12.9322 128.019 12.8112L127.361 16.7568ZM126.777 16.3874C126.736 16.3347 126.698 16.2684 126.67 16.1925C126.643 16.1173 126.632 16.0517 126.63 16.0054L130.623 15.7706C130.584 15.1146 130.362 14.487 129.947 13.9486L126.777 16.3874ZM126.64 16.1217C126.631 16.0423 126.635 15.9632 126.649 15.8927C126.663 15.8242 126.683 15.7818 126.691 15.7682L130.226 17.6398C130.535 17.0553 130.698 16.3782 130.612 15.6543L126.64 16.1217ZM126.715 15.7235C126.76 15.644 126.807 15.5946 126.832 15.5714C126.856 15.5502 126.855 15.5568 126.81 15.5803L128.666 19.1237C129.246 18.8199 129.82 18.3629 130.201 17.6845L126.715 15.7235ZM126.763 15.6061C126.416 15.7996 125.995 15.9587 125.48 16.0664L126.3 19.9816C127.161 19.8013 127.972 19.5124 128.714 19.0979L126.763 15.6061ZM125.427 16.0784C124.895 16.2051 124.394 16.264 123.922 16.264V20.264C124.73 20.264 125.542 20.1629 126.353 19.9696L125.427 16.0784Z" fill="#5B3511"/>
</g>
<defs>
<filter id="filter0_d_35_108" x="0.209976" y="0.864014" width="129.656" height="20.3999" filterUnits="userSpaceOnUse" color-interpolation-filters="sRGB">
<feFlood flood-opacity="0" result="BackgroundImageFix"/>
<feColorMatrix in="SourceAlpha" type="matrix" values="0 0 0 0 0 0 0 0 0 0 0 0 0 0 0 0 0 0 127 0" result="hardAlpha"/>
<feOffset dy="2"/>
<feGaussianBlur stdDeviation="0.5"/>
<feComposite in2="hardAlpha" operator="out"/>
<feColorMatrix type="matrix" values="0 0 0 0 0 0 0 0 0 0 0 0 0 0 0 0 0 0 0.25 0"/>
<feBlend mode="normal" in2="BackgroundImageFix" result="effect1_dropShadow_35_108"/>
<feBlend mode="normal" in="SourceGraphic" in2="effect1_dropShadow_35_108" result="shape"/>
</filter>
<linearGradient id="paint0_linear_35_108" x1="65" y1="-6" x2="65" y2="27" gradientUnits="userSpaceOnUse">
<stop stop-color="#FDE092"/>
<stop offset="1" stop-color="#C18B2C"/>
</linearGradient>
</defs>
</svg>
