<svg width="109" height="25" viewBox="0 0 109 25" fill="none" xmlns="http://www.w3.org/2000/svg">
<g filter="url(#filter0_d_232_35)">
<path d="M3.64631 18.216C3.03831 18.216 2.57431 18.048 2.25431 17.712C1.93431 17.376 1.77431 16.904 1.77431 16.296V2.976C1.77431 1.712 2.40631 1.08 3.67031 1.08H9.50231C11.3903 1.08 12.8463 1.536 13.8703 2.448C14.8943 3.36 15.4063 4.632 15.4063 6.264C15.4063 7.528 15.0783 8.584 14.4223 9.432C13.7823 10.264 12.8623 10.832 11.6623 11.136C12.5103 11.392 13.2063 12.008 13.7503 12.984L15.2383 15.744C15.5743 16.352 15.6383 16.92 15.4303 17.448C15.2223 17.96 14.7183 18.216 13.9183 18.216C13.3903 18.216 12.9583 18.104 12.6223 17.88C12.2863 17.656 11.9983 17.312 11.7583 16.848L9.45431 12.6C9.21431 12.152 8.91831 11.848 8.56631 11.688C8.21431 11.528 7.79831 11.448 7.31831 11.448H5.49431V16.296C5.49431 16.904 5.33431 17.376 5.01431 17.712C4.71031 18.048 4.25431 18.216 3.64631 18.216ZM5.49431 8.76H8.83031C10.8303 8.76 11.8303 7.96 11.8303 6.36C11.8303 4.776 10.8303 3.984 8.83031 3.984H5.49431V8.76ZM23.5091 18.264C22.2451 18.264 21.1411 18.016 20.1971 17.52C19.2691 17.008 18.5491 16.296 18.0371 15.384C17.5251 14.456 17.2691 13.36 17.2691 12.096C17.2691 10.848 17.5251 9.768 18.0371 8.856C18.5491 7.928 19.2691 7.216 20.1971 6.72C21.1411 6.224 22.2451 5.976 23.5091 5.976C24.7731 5.976 25.8691 6.224 26.7971 6.72C27.7411 7.216 28.4691 7.928 28.9811 8.856C29.5091 9.768 29.7731 10.848 29.7731 12.096C29.7731 13.36 29.5091 14.456 28.9811 15.384C28.4691 16.296 27.7411 17.008 26.7971 17.52C25.8691 18.016 24.7731 18.264 23.5091 18.264ZM23.5091 15.552C24.2771 15.552 24.9011 15.272 25.3811 14.712C25.8771 14.152 26.1251 13.28 26.1251 12.096C26.1251 10.928 25.8771 10.072 25.3811 9.528C24.9011 8.968 24.2771 8.688 23.5091 8.688C22.7411 8.688 22.1171 8.968 21.6371 9.528C21.1571 10.072 20.9171 10.928 20.9171 12.096C20.9171 13.28 21.1571 14.152 21.6371 14.712C22.1171 15.272 22.7411 15.552 23.5091 15.552ZM35.9619 18.264C35.0819 18.264 34.3059 18.096 33.6339 17.76C32.9619 17.424 32.4259 16.968 32.0259 16.392C31.6419 15.816 31.4499 15.168 31.4499 14.448C31.4499 13.6 31.6739 12.92 32.1219 12.408C32.5699 11.896 33.2979 11.536 34.3059 11.328C35.3139 11.104 36.6499 10.992 38.3139 10.992H39.1779V10.584C39.1779 9.88 39.0179 9.384 38.6979 9.096C38.3779 8.792 37.8339 8.64 37.0659 8.64C36.6339 8.64 36.1619 8.696 35.6499 8.808C35.1379 8.904 34.5859 9.072 33.9939 9.312C33.5459 9.504 33.1699 9.52 32.8659 9.36C32.5619 9.184 32.3619 8.928 32.2659 8.592C32.1699 8.24 32.1939 7.888 32.3379 7.536C32.4979 7.184 32.8019 6.928 33.2499 6.768C34.0019 6.48 34.7059 6.28 35.3619 6.168C36.0339 6.04 36.6499 5.976 37.2099 5.976C39.0339 5.976 40.3939 6.392 41.2899 7.224C42.1859 8.04 42.6339 9.312 42.6339 11.04V16.368C42.6339 17.6 42.0739 18.216 40.9539 18.216C39.8179 18.216 39.2499 17.6 39.2499 16.368V16.224C39.0099 16.848 38.6019 17.344 38.0259 17.712C37.4659 18.08 36.7779 18.264 35.9619 18.264ZM36.7779 15.84C37.4499 15.84 38.0179 15.608 38.4819 15.144C38.9459 14.68 39.1779 14.08 39.1779 13.344V12.864H38.3379C37.1059 12.864 36.2339 12.976 35.7219 13.2C35.2099 13.408 34.9539 13.776 34.9539 14.304C34.9539 14.752 35.1059 15.12 35.4099 15.408C35.7299 15.696 36.1859 15.84 36.7779 15.84ZM49.9213 18.264C48.8973 18.264 47.9933 18.016 47.2093 17.52C46.4413 17.008 45.8413 16.296 45.4093 15.384C44.9773 14.456 44.7613 13.36 44.7613 12.096C44.7613 10.832 44.9773 9.744 45.4093 8.832C45.8413 7.92 46.4413 7.216 47.2093 6.72C47.9933 6.224 48.8973 5.976 49.9213 5.976C50.7053 5.976 51.4253 6.144 52.0813 6.48C52.7373 6.816 53.2333 7.264 53.5693 7.824V2.712C53.5693 1.48 54.1693 0.863999 55.3693 0.863999C56.5853 0.863999 57.1933 1.48 57.1933 2.712V16.368C57.1933 17.6 56.5933 18.216 55.3933 18.216C54.1933 18.216 53.5933 17.6 53.5933 16.368V16.296C53.2733 16.904 52.7773 17.384 52.1053 17.736C51.4493 18.088 50.7213 18.264 49.9213 18.264ZM51.0013 15.552C51.7693 15.552 52.3933 15.272 52.8733 14.712C53.3693 14.152 53.6173 13.28 53.6173 12.096C53.6173 10.928 53.3693 10.072 52.8733 9.528C52.3933 8.968 51.7693 8.688 51.0013 8.688C50.2333 8.688 49.6093 8.968 49.1293 9.528C48.6493 10.072 48.4093 10.928 48.4093 12.096C48.4093 13.28 48.6493 14.152 49.1293 14.712C49.6093 15.272 50.2333 15.552 51.0013 15.552ZM61.8578 18.216C60.6418 18.216 60.0338 17.6 60.0338 16.368V7.848C60.0338 6.632 60.6258 6.024 61.8098 6.024C62.9938 6.024 63.5858 6.632 63.5858 7.848V7.92C63.9378 7.312 64.4178 6.84 65.0258 6.504C65.6498 6.152 66.3698 5.976 67.1858 5.976C68.0178 5.976 68.7218 6.16 69.2978 6.528C69.8898 6.896 70.3378 7.456 70.6418 8.208C71.0098 7.504 71.5378 6.96 72.2258 6.576C72.9298 6.176 73.7058 5.976 74.5538 5.976C75.8978 5.976 76.8978 6.384 77.5538 7.2C78.2098 8 78.5378 9.24 78.5378 10.92V16.368C78.5378 16.96 78.3778 17.416 78.0578 17.736C77.7538 18.056 77.3138 18.216 76.7378 18.216C75.5218 18.216 74.9138 17.6 74.9138 16.368V11.04C74.9138 10.256 74.7858 9.688 74.5298 9.336C74.2898 8.968 73.8738 8.784 73.2818 8.784C72.5938 8.784 72.0578 9.024 71.6738 9.504C71.2898 9.984 71.0978 10.664 71.0978 11.544V16.368C71.0978 17.6 70.4978 18.216 69.2978 18.216C68.7218 18.216 68.2738 18.056 67.9538 17.736C67.6338 17.416 67.4738 16.96 67.4738 16.368V11.04C67.4738 10.256 67.3458 9.688 67.0898 9.336C66.8338 8.968 66.4178 8.784 65.8418 8.784C65.1538 8.784 64.6178 9.024 64.2338 9.504C63.8498 9.984 63.6578 10.664 63.6578 11.544V16.368C63.6578 17.6 63.0578 18.216 61.8578 18.216ZM85.2979 18.264C84.4179 18.264 83.6419 18.096 82.9699 17.76C82.2979 17.424 81.7619 16.968 81.3619 16.392C80.9779 15.816 80.7859 15.168 80.7859 14.448C80.7859 13.6 81.0099 12.92 81.4579 12.408C81.9059 11.896 82.6339 11.536 83.6419 11.328C84.6499 11.104 85.9859 10.992 87.6499 10.992H88.5139V10.584C88.5139 9.88 88.3539 9.384 88.0339 9.096C87.7139 8.792 87.1699 8.64 86.4019 8.64C85.9699 8.64 85.4979 8.696 84.9859 8.808C84.4739 8.904 83.9219 9.072 83.3299 9.312C82.8819 9.504 82.5059 9.52 82.2019 9.36C81.8979 9.184 81.6979 8.928 81.6019 8.592C81.5059 8.24 81.5299 7.888 81.6739 7.536C81.8339 7.184 82.1379 6.928 82.5859 6.768C83.3379 6.48 84.0419 6.28 84.6979 6.168C85.3699 6.04 85.9859 5.976 86.5459 5.976C88.3699 5.976 89.7299 6.392 90.6259 7.224C91.5219 8.04 91.9699 9.312 91.9699 11.04V16.368C91.9699 17.6 91.4099 18.216 90.2899 18.216C89.1539 18.216 88.5859 17.6 88.5859 16.368V16.224C88.3459 16.848 87.9379 17.344 87.3619 17.712C86.8019 18.08 86.1139 18.264 85.2979 18.264ZM86.1139 15.84C86.7859 15.84 87.3539 15.608 87.8179 15.144C88.2819 14.68 88.5139 14.08 88.5139 13.344V12.864H87.6739C86.4419 12.864 85.5699 12.976 85.0579 13.2C84.5459 13.408 84.2899 13.776 84.2899 14.304C84.2899 14.752 84.4419 15.12 84.7459 15.408C85.0659 15.696 85.5219 15.84 86.1139 15.84ZM96.4973 22.536C95.2813 22.536 94.6733 21.92 94.6733 20.688V7.848C94.6733 6.632 95.2653 6.024 96.4492 6.024C97.6493 6.024 98.2493 6.632 98.2493 7.848V7.92C98.5853 7.328 99.0813 6.856 99.7373 6.504C100.393 6.152 101.129 5.976 101.945 5.976C102.969 5.976 103.865 6.224 104.633 6.72C105.417 7.216 106.025 7.92 106.457 8.832C106.889 9.744 107.105 10.832 107.105 12.096C107.105 13.36 106.889 14.456 106.457 15.384C106.025 16.296 105.417 17.008 104.633 17.52C103.865 18.016 102.969 18.264 101.945 18.264C101.161 18.264 100.441 18.096 99.7853 17.76C99.1453 17.424 98.6493 16.976 98.2973 16.416V20.688C98.2973 21.92 97.6973 22.536 96.4973 22.536ZM100.865 15.552C101.633 15.552 102.257 15.272 102.737 14.712C103.217 14.152 103.457 13.28 103.457 12.096C103.457 10.928 103.217 10.072 102.737 9.528C102.257 8.968 101.633 8.688 100.865 8.688C100.081 8.688 99.4493 8.968 98.9693 9.528C98.4893 10.072 98.2493 10.928 98.2493 12.096C98.2493 13.28 98.4893 14.152 98.9693 14.712C99.4493 15.272 100.081 15.552 100.865 15.552Z" fill="url(#paint0_linear_232_35)"/>
<path d="M2.25431 17.712L3.34052 16.6775L2.25431 17.712ZM13.8703 2.448L12.8727 3.56815H12.8727L13.8703 2.448ZM14.4223 9.432L13.2359 8.51419L13.2334 8.51743L14.4223 9.432ZM11.6623 11.136L11.2939 9.68193L6.05328 11.0096L11.2288 12.572L11.6623 11.136ZM13.7503 12.984L15.0707 12.2722L15.0657 12.2629L15.0605 12.2537L13.7503 12.984ZM15.2383 15.744L13.918 16.4558L13.9217 16.4627L13.9255 16.4695L15.2383 15.744ZM15.4303 17.448L16.82 18.0126L16.823 18.0052L16.8259 17.9978L15.4303 17.448ZM12.6223 17.88L11.7903 19.1281L11.7903 19.1281L12.6223 17.88ZM11.7583 16.848L13.0906 16.1589L13.0839 16.1458L13.0769 16.1329L11.7583 16.848ZM9.45431 12.6L8.13208 13.3083L8.13577 13.3151L9.45431 12.6ZM8.56631 11.688L7.94561 13.0535L7.94561 13.0536L8.56631 11.688ZM5.49431 11.448V9.948H3.99431V11.448H5.49431ZM5.01431 17.712L3.92811 16.6775L3.91488 16.6914L3.90201 16.7056L5.01431 17.712ZM5.49431 8.76H3.99431V10.26H5.49431V8.76ZM5.49431 3.984V2.484H3.99431V3.984H5.49431ZM3.64631 16.716C3.47748 16.716 3.38823 16.6924 3.35297 16.6796C3.32512 16.6695 3.33025 16.6667 3.34052 16.6775L1.16811 18.7465C1.85168 19.4642 2.76125 19.716 3.64631 19.716V16.716ZM3.34052 16.6775C3.33917 16.6761 3.33715 16.6738 3.33392 16.6684C3.33052 16.6627 3.32332 16.6492 3.31491 16.6244C3.29759 16.5734 3.27431 16.471 3.27431 16.296H0.274313C0.274313 17.1658 0.508118 18.0535 1.16811 18.7465L3.34052 16.6775ZM3.27431 16.296V2.976H0.274313V16.296H3.27431ZM3.27431 2.976C3.27431 2.57522 3.37349 2.55014 3.30897 2.61466C3.24445 2.67918 3.26953 2.58 3.67031 2.58V-0.420001C2.8071 -0.420001 1.88417 -0.203181 1.18765 0.493339C0.491133 1.18986 0.274313 2.11278 0.274313 2.976H3.27431ZM3.67031 2.58H9.50231V-0.420001H3.67031V2.58ZM9.50231 2.58C11.1616 2.58 12.2121 2.97979 12.8727 3.56815L14.8679 1.32785C13.4806 0.0922093 11.619 -0.420001 9.50231 -0.420001V2.58ZM12.8727 3.56815C13.5162 4.14126 13.9063 4.97096 13.9063 6.264H16.9063C16.9063 4.29304 16.2724 2.57874 14.8679 1.32785L12.8727 3.56815ZM13.9063 6.264C13.9063 7.2575 13.6538 7.97393 13.2359 8.51419L15.6087 10.3498C16.5028 9.19407 16.9063 7.7985 16.9063 6.264H13.9063ZM13.2334 8.51743C12.8339 9.03678 12.2285 9.44518 11.2939 9.68193L12.0307 12.5901C13.4961 12.2188 14.7307 11.4912 15.6112 10.3466L13.2334 8.51743ZM11.2288 12.572C11.6131 12.688 12.0337 12.9852 12.4401 13.7143L15.0605 12.2537C14.3789 11.0308 13.4075 10.096 12.0958 9.70001L11.2288 12.572ZM12.43 13.6958L13.918 16.4558L16.5587 15.0322L15.0707 12.2722L12.43 13.6958ZM13.9255 16.4695C14.0983 16.7823 14.0423 16.879 14.0347 16.8982L16.8259 17.9978C17.2343 16.961 17.0503 15.9217 16.5512 15.0185L13.9255 16.4695ZM14.0406 16.8834C14.053 16.8528 14.0778 16.8084 14.1188 16.7642C14.1594 16.7204 14.1977 16.6964 14.217 16.6866C14.2337 16.6782 14.2243 16.6862 14.1739 16.6961C14.123 16.7061 14.0402 16.716 13.9183 16.716V19.716C15.0074 19.716 16.2815 19.3381 16.82 18.0126L14.0406 16.8834ZM13.9183 16.716C13.5966 16.716 13.4785 16.648 13.4544 16.6319L11.7903 19.1281C12.4381 19.56 13.184 19.716 13.9183 19.716V16.716ZM13.4544 16.6319C13.3829 16.5843 13.2473 16.4617 13.0906 16.1589L10.426 17.5371C10.7494 18.1623 11.1897 18.7277 11.7903 19.1281L13.4544 16.6319ZM13.0769 16.1329L10.7729 11.8849L8.13577 13.3151L10.4398 17.5631L13.0769 16.1329ZM10.7765 11.8917C10.43 11.2448 9.92087 10.656 9.18702 10.3224L7.94561 13.0536C7.91576 13.04 7.99863 13.0592 8.13209 13.3083L10.7765 11.8917ZM9.18702 10.3225C8.59897 10.0552 7.96214 9.948 7.31831 9.948V12.948C7.63449 12.948 7.82965 13.0008 7.94561 13.0535L9.18702 10.3225ZM7.31831 9.948H5.49431V12.948H7.31831V9.948ZM3.99431 11.448V16.296H6.99431V11.448H3.99431ZM3.99431 16.296C3.99431 16.471 3.97103 16.5734 3.95371 16.6244C3.94531 16.6492 3.93811 16.6627 3.93471 16.6684C3.93148 16.6738 3.92946 16.6761 3.92811 16.6775L6.10052 18.7465C6.76051 18.0535 6.99431 17.1658 6.99431 16.296H3.99431ZM3.90201 16.7056C3.92429 16.681 3.94326 16.676 3.92575 16.6825C3.8996 16.6921 3.81602 16.716 3.64631 16.716V19.716C4.52641 19.716 5.45027 19.4659 6.12662 18.7184L3.90201 16.7056ZM5.49431 10.26H8.83031V7.26H5.49431V10.26ZM8.83031 10.26C9.99058 10.26 11.1384 10.0345 12.0174 9.3313C12.9603 8.57697 13.3303 7.49106 13.3303 6.36H10.3303C10.3303 6.82894 10.2004 6.94303 10.1433 6.9887C10.0223 7.08549 9.67005 7.26 8.83031 7.26V10.26ZM13.3303 6.36C13.3303 5.23169 12.9567 4.1506 12.0116 3.40212C11.1333 2.70646 9.98796 2.484 8.83031 2.484V5.484C9.67266 5.484 10.0274 5.65753 10.149 5.75388C10.204 5.7974 10.3303 5.90431 10.3303 6.36H13.3303ZM8.83031 2.484H5.49431V5.484H8.83031V2.484ZM3.99431 3.984V8.76H6.99431V3.984H3.99431ZM20.1971 17.52L19.4725 18.8334L19.4859 18.8408L19.4994 18.8479L20.1971 17.52ZM18.0371 15.384L16.7237 16.1086L16.7291 16.1183L18.0371 15.384ZM18.0371 8.856L19.3451 9.59032L19.3505 9.58062L18.0371 8.856ZM20.1971 6.72L19.4994 5.3921L19.4901 5.3971L20.1971 6.72ZM26.7971 6.72L26.09 8.04293L26.0994 8.04786L26.7971 6.72ZM28.9811 8.856L27.6678 9.58062L27.6752 9.59416L27.683 9.60755L28.9811 8.856ZM28.9811 15.384L27.6774 14.6422L27.6731 14.6497L28.9811 15.384ZM26.7971 17.52L27.5042 18.8429L27.5123 18.8385L26.7971 17.52ZM25.3811 14.712L24.2582 13.7174L24.2502 13.7266L24.2422 13.7358L25.3811 14.712ZM25.3811 9.528L24.2422 10.5042L24.2572 10.5216L24.2727 10.5386L25.3811 9.528ZM21.6371 9.528L22.7619 10.5204L22.769 10.5124L22.776 10.5042L21.6371 9.528ZM21.6371 14.712L22.776 13.7358L21.6371 14.712ZM23.5091 16.764C22.4433 16.764 21.5871 16.5559 20.8948 16.1921L19.4994 18.8479C20.6951 19.4761 22.047 19.764 23.5091 19.764V16.764ZM20.9217 16.2066C20.2349 15.8277 19.7184 15.3147 19.3451 14.6497L16.7291 16.1183C17.3798 17.2773 18.3034 18.1883 19.4725 18.8334L20.9217 16.2066ZM19.3505 14.6594C18.9825 13.9924 18.7691 13.1553 18.7691 12.096H15.7691C15.7691 13.5647 16.0678 14.9196 16.7238 16.1086L19.3505 14.6594ZM18.7691 12.096C18.7691 11.0555 18.9813 10.2383 19.3451 9.5903L16.7291 8.1217C16.069 9.29765 15.7691 10.6405 15.7691 12.096H18.7691ZM19.3505 9.58062C19.7235 8.90448 20.2338 8.4012 20.9042 8.0429L19.4901 5.3971C18.3044 6.0308 17.3747 6.95152 16.7238 8.13138L19.3505 9.58062ZM20.8948 8.04786C21.5871 7.68412 22.4433 7.476 23.5091 7.476V4.476C22.047 4.476 20.6951 4.76388 19.4994 5.39213L20.8948 8.04786ZM23.5091 7.476C24.5758 7.476 25.4193 7.6844 26.0901 8.0429L27.5042 5.3971C26.3189 4.7636 24.9704 4.476 23.5091 4.476V7.476ZM26.0994 8.04786C26.7853 8.40824 27.2985 8.91128 27.6678 9.58062L30.2945 8.13138C29.6398 6.94472 28.6969 6.02376 27.4948 5.39213L26.0994 8.04786ZM27.683 9.60755C28.0562 10.2523 28.2731 11.063 28.2731 12.096H31.2731C31.2731 10.633 30.962 9.28373 30.2793 8.10445L27.683 9.60755ZM28.2731 12.096C28.2731 13.1479 28.0549 13.9786 27.6774 14.6422L30.2849 16.1258C30.9633 14.9334 31.2731 13.5721 31.2731 12.096H28.2731ZM27.6731 14.6497C27.3036 15.308 26.7842 15.8206 26.082 16.2015L27.5123 18.8385C28.698 18.1954 29.6347 17.284 30.2891 16.1183L27.6731 14.6497ZM26.0901 16.1971C25.4193 16.5556 24.5758 16.764 23.5091 16.764V19.764C24.9704 19.764 26.3189 19.4764 27.5042 18.8429L26.0901 16.1971ZM23.5091 17.052C24.6943 17.052 25.7419 16.596 26.52 15.6882L24.2422 13.7358C24.0604 13.948 23.8599 14.052 23.5091 14.052V17.052ZM26.504 15.7066C27.3503 14.7511 27.6251 13.4436 27.6251 12.096H24.6251C24.6251 13.1164 24.404 13.5529 24.2582 13.7174L26.504 15.7066ZM27.6251 12.096C27.6251 10.7631 27.3497 9.4607 26.4896 8.51737L24.2727 10.5386C24.4046 10.6833 24.6251 11.0929 24.6251 12.096H27.6251ZM26.52 8.55181C25.7419 7.64396 24.6943 7.188 23.5091 7.188V10.188C23.8599 10.188 24.0604 10.292 24.2422 10.5042L26.52 8.55181ZM23.5091 7.188C22.3239 7.188 21.2764 7.64396 20.4982 8.55181L22.776 10.5042C22.9579 10.292 23.1583 10.188 23.5091 10.188V7.188ZM20.5124 8.53557C19.6806 9.47828 19.4171 10.7727 19.4171 12.096H22.4171C22.4171 11.0833 22.6337 10.6657 22.7619 10.5204L20.5124 8.53557ZM19.4171 12.096C19.4171 13.4343 19.6802 14.7338 20.4982 15.6882L22.776 13.7358C22.6341 13.5702 22.4171 13.1257 22.4171 12.096H19.4171ZM20.4982 15.6882C21.2764 16.596 22.3239 17.052 23.5091 17.052V14.052C23.1583 14.052 22.9579 13.948 22.776 13.7358L20.4982 15.6882ZM33.6339 17.76L32.9631 19.1016L33.6339 17.76ZM32.0259 16.392L30.7779 17.2241L30.7858 17.2359L30.7939 17.2476L32.0259 16.392ZM32.1219 12.408L30.9931 11.4202L32.1219 12.408ZM34.3059 11.328L34.6091 12.797L34.6202 12.7947L34.6313 12.7923L34.3059 11.328ZM39.1779 10.992V12.492H40.6779V10.992H39.1779ZM38.6979 9.096L37.6648 10.1835L37.6795 10.1974L37.6945 10.2109L38.6979 9.096ZM35.6499 8.808L35.9264 10.2823L35.9485 10.2782L35.9705 10.2733L35.6499 8.808ZM33.9939 9.312L33.4304 7.92189L33.4167 7.92745L33.4031 7.93328L33.9939 9.312ZM32.8659 9.36L32.1144 10.6581L32.1406 10.6733L32.1673 10.6874L32.8659 9.36ZM32.2659 8.592L30.8188 8.98668L30.8212 8.99539L30.8237 9.00408L32.2659 8.592ZM32.3379 7.536L30.9724 6.9153L30.9605 6.94145L30.9496 6.96805L32.3379 7.536ZM33.2499 6.768L33.7544 8.18061L33.7705 8.17488L33.7864 8.16878L33.2499 6.768ZM35.3619 6.168L35.6144 7.6466L35.6285 7.64419L35.6426 7.64151L35.3619 6.168ZM41.2899 7.224L40.2693 8.32319L40.2746 8.32813L40.2799 8.33301L41.2899 7.224ZM39.2499 16.224H40.7499L37.8499 15.6855L39.2499 16.224ZM38.0259 17.712L37.2184 16.448L37.2102 16.4531L37.2022 16.4584L38.0259 17.712ZM38.4819 15.144L39.5426 16.2047L38.4819 15.144ZM39.1779 12.864H40.6779V11.364H39.1779V12.864ZM35.7219 13.2L36.2865 14.5897L36.3049 14.5822L36.3232 14.5742L35.7219 13.2ZM35.4099 15.408L34.3783 16.4969L34.3922 16.5101L34.4065 16.5229L35.4099 15.408ZM35.9619 16.764C35.275 16.764 34.7356 16.6338 34.3048 16.4184L32.9631 19.1016C33.8763 19.5582 34.8888 19.764 35.9619 19.764V16.764ZM34.3048 16.4184C33.8411 16.1865 33.5044 15.8913 33.258 15.5364L30.7939 17.2476C31.3475 18.0447 32.0828 18.6615 32.9631 19.1016L34.3048 16.4184ZM33.274 15.5599C33.0611 15.2406 32.9499 14.8844 32.9499 14.448H29.9499C29.9499 15.4516 30.2228 16.3914 30.7779 17.2241L33.274 15.5599ZM32.9499 14.448C32.9499 13.8705 33.0968 13.5717 33.2508 13.3958L30.9931 11.4202C30.251 12.2683 29.9499 13.3295 29.9499 14.448H32.9499ZM33.2508 13.3958C33.398 13.2275 33.7656 12.9711 34.6091 12.797L34.0028 9.85895C32.8303 10.1009 31.7419 10.5645 30.9931 11.4202L33.2508 13.3958ZM34.6313 12.7923C35.4879 12.6019 36.7016 12.492 38.3139 12.492V9.492C36.5982 9.492 35.1399 9.60608 33.9805 9.86372L34.6313 12.7923ZM38.3139 12.492H39.1779V9.492H38.3139V12.492ZM40.6779 10.992V10.584H37.6779V10.992H40.6779ZM40.6779 10.584C40.6779 9.71656 40.4903 8.69107 39.7014 7.98106L37.6945 10.2109C37.6203 10.1442 37.6145 10.0953 37.6304 10.1445C37.6489 10.2019 37.6779 10.3373 37.6779 10.584H40.6779ZM39.7311 8.0085C38.9874 7.30206 37.9565 7.14 37.0659 7.14V10.14C37.3589 10.14 37.5432 10.1699 37.6463 10.1987C37.7467 10.2267 37.7251 10.2408 37.6648 10.1835L39.7311 8.0085ZM37.0659 7.14C36.5062 7.14 35.9252 7.21231 35.3294 7.34265L35.9705 10.2733C36.3986 10.1797 36.7617 10.14 37.0659 10.14V7.14ZM35.3735 7.33369C34.7441 7.4517 34.0951 7.65241 33.4304 7.92189L34.5575 10.7021C35.0768 10.4916 35.5317 10.3563 35.9264 10.2823L35.3735 7.33369ZM33.4031 7.93328C33.2992 7.97779 33.2739 7.97098 33.3122 7.96936C33.3335 7.96845 33.3704 7.96943 33.4182 7.97954C33.4667 7.98982 33.5169 8.00754 33.5646 8.03262L32.1673 10.6874C33.0187 11.1355 33.9031 10.9829 34.5848 10.6907L33.4031 7.93328ZM33.6175 8.06186C33.6165 8.06128 33.6229 8.06489 33.6336 8.07411C33.6446 8.0835 33.6574 8.09639 33.67 8.11253C33.6826 8.12869 33.6923 8.14454 33.6991 8.15818C33.7024 8.16475 33.7047 8.17013 33.7061 8.174C33.7076 8.17786 33.7082 8.17993 33.7082 8.17992L30.8237 9.00408C31.027 9.71594 31.476 10.2886 32.1144 10.6581L33.6175 8.06186ZM33.7131 8.19732C33.7076 8.17739 33.7082 8.16919 33.7085 8.16604C33.7087 8.16214 33.7103 8.143 33.7263 8.10395L30.9496 6.96805C30.6863 7.61179 30.632 8.30187 30.8188 8.98668L33.7131 8.19732ZM33.7035 8.1567C33.6974 8.17019 33.6885 8.18539 33.6774 8.20001C33.6663 8.21451 33.6567 8.22352 33.6521 8.22737C33.6433 8.23482 33.6666 8.21198 33.7544 8.18061L32.7454 5.35539C32.009 5.61838 31.3376 6.11174 30.9724 6.9153L33.7035 8.1567ZM33.7864 8.16878C34.4649 7.90892 35.0731 7.73902 35.6144 7.6466L35.1095 4.68939C34.3388 4.82098 33.5389 5.05108 32.7135 5.36721L33.7864 8.16878ZM35.6426 7.64151C36.2416 7.52741 36.7621 7.476 37.2099 7.476V4.476C36.5378 4.476 35.8263 4.55258 35.0813 4.69449L35.6426 7.64151ZM37.2099 7.476C38.8377 7.476 39.7604 7.85066 40.2693 8.32319L42.3106 6.12481C41.0275 4.93334 39.2302 4.476 37.2099 4.476V7.476ZM40.2799 8.33301C40.7498 8.76089 41.1339 9.55024 41.1339 11.04H44.1339C44.1339 9.07376 43.6221 7.31911 42.2999 6.11499L40.2799 8.33301ZM41.1339 11.04V16.368H44.1339V11.04H41.1339ZM41.1339 16.368C41.1339 16.7863 41.0358 16.82 41.104 16.745C41.1388 16.7067 41.1728 16.6921 41.1726 16.6922C41.1637 16.6954 41.1003 16.716 40.9539 16.716V19.716C41.7839 19.716 42.671 19.4812 43.3238 18.763C43.9521 18.072 44.1339 17.1817 44.1339 16.368H41.1339ZM40.9539 16.716C40.8015 16.716 40.7323 16.6949 40.7184 16.6898C40.7129 16.6879 40.7445 16.7001 40.7787 16.7372C40.8478 16.8122 40.7499 16.7816 40.7499 16.368H37.7499C37.7499 17.1864 37.9361 18.0798 38.5732 18.7708C39.2315 19.4848 40.1221 19.716 40.9539 19.716V16.716ZM40.7499 16.368V16.224H37.7499V16.368H40.7499ZM37.8499 15.6855C37.7276 16.0035 37.531 16.2482 37.2184 16.448L38.8335 18.976C39.6729 18.4398 40.2923 17.6925 40.65 16.7625L37.8499 15.6855ZM37.2022 16.4584C36.9355 16.6337 36.5495 16.764 35.9619 16.764V19.764C37.0064 19.764 37.9963 19.5263 38.8497 18.9656L37.2022 16.4584ZM36.7779 17.34C37.837 17.34 38.7898 16.9575 39.5426 16.2047L37.4213 14.0833C37.2461 14.2585 37.0628 14.34 36.7779 14.34V17.34ZM39.5426 16.2047C40.3232 15.4241 40.6779 14.425 40.6779 13.344H37.6779C37.6779 13.735 37.5687 13.9359 37.4213 14.0833L39.5426 16.2047ZM40.6779 13.344V12.864H37.6779V13.344H40.6779ZM39.1779 11.364H38.3379V14.364H39.1779V11.364ZM38.3379 11.364C37.0892 11.364 35.9415 11.4667 35.1207 11.8258L36.3232 14.5742C36.5264 14.4853 37.1227 14.364 38.3379 14.364V11.364ZM35.1574 11.8103C34.6951 11.9981 34.2435 12.3027 33.9146 12.7754C33.5823 13.2531 33.4539 13.7896 33.4539 14.304H36.4539C36.4539 14.2932 36.4552 14.3116 36.4442 14.3501C36.4327 14.3905 36.4113 14.4398 36.3773 14.4886C36.3044 14.5933 36.2368 14.6099 36.2865 14.5897L35.1574 11.8103ZM33.4539 14.304C33.4539 15.1318 33.7528 15.9043 34.3783 16.4969L36.4416 14.3191C36.4364 14.3142 36.4378 14.3147 36.4421 14.3208C36.4441 14.3237 36.4464 14.3273 36.4486 14.3314C36.4509 14.3356 36.4528 14.3396 36.4543 14.3434C36.4576 14.3513 36.4579 14.3545 36.4571 14.3503C36.4562 14.3457 36.4539 14.3311 36.4539 14.304H33.4539ZM34.4065 16.5229C35.0906 17.1387 35.9552 17.34 36.7779 17.34V14.34C36.4167 14.34 36.3692 14.2533 36.4134 14.2931L34.4065 16.5229ZM47.2093 17.52L46.3773 18.7681L46.3922 18.778L46.4073 18.7876L47.2093 17.52ZM45.4093 15.384L44.0494 16.0171L44.0537 16.0261L45.4093 15.384ZM45.4093 8.832L44.0537 8.18987L45.4093 8.832ZM47.2093 6.72L46.4073 5.45233L46.3955 5.45994L47.2093 6.72ZM52.0813 6.48L51.3975 7.81506L52.0813 6.48ZM53.5693 7.824L52.2831 8.59574L55.0693 13.2395V7.824H53.5693ZM53.5933 16.296H55.0933L52.2659 15.5974L53.5933 16.296ZM52.1053 17.736L51.4093 16.4073L51.4027 16.4107L51.3961 16.4143L52.1053 17.736ZM52.8733 14.712L51.7504 13.7174L51.7424 13.7266L51.7344 13.7358L52.8733 14.712ZM52.8733 9.528L51.7344 10.5042L51.7494 10.5216L51.7649 10.5386L52.8733 9.528ZM49.1293 9.528L50.2541 10.5204L50.2612 10.5124L50.2682 10.5042L49.1293 9.528ZM49.1293 14.712L50.2682 13.7358L49.1293 14.712ZM49.9213 16.764C49.1507 16.764 48.5308 16.5811 48.0113 16.2524L46.4073 18.7876C47.4558 19.4509 48.6439 19.764 49.9213 19.764V16.764ZM48.0414 16.2719C47.5204 15.9246 47.0917 15.4318 46.7649 14.7419L44.0537 16.0261C44.5909 17.1602 45.3622 18.0914 46.3773 18.7681L48.0414 16.2719ZM46.7692 14.751C46.4485 14.0621 46.2613 13.1914 46.2613 12.096H43.2613C43.2613 13.5286 43.5061 14.8499 44.0494 16.017L46.7692 14.751ZM46.2613 12.096C46.2613 10.9995 46.4489 10.1413 46.7649 9.47413L44.0537 8.18987C43.5058 9.34666 43.2613 10.6645 43.2613 12.096H46.2613ZM46.7649 9.47413C47.0902 8.78747 47.5137 8.30908 48.0231 7.98006L46.3955 5.45994C45.369 6.12292 44.5924 7.05253 44.0537 8.18987L46.7649 9.47413ZM48.0113 7.98762C48.5308 7.65893 49.1507 7.476 49.9213 7.476V4.476C48.6439 4.476 47.4558 4.78906 46.4073 5.45238L48.0113 7.98762ZM49.9213 7.476C50.4831 7.476 50.9666 7.59434 51.3975 7.81506L52.7651 5.14493C51.8841 4.69366 50.9275 4.476 49.9213 4.476V7.476ZM51.3975 7.81506C51.8369 8.04014 52.1092 8.306 52.2831 8.59574L54.8556 7.05226C54.3574 6.222 53.6377 5.59186 52.7651 5.14493L51.3975 7.81506ZM55.0693 7.824V2.712H52.0693V7.824H55.0693ZM55.0693 2.712C55.0693 2.31746 55.1656 2.2989 55.0938 2.37261C55.0627 2.4046 55.0413 2.40766 55.0675 2.39869C55.1014 2.38709 55.1933 2.364 55.3693 2.364V-0.636001C54.5279 -0.636001 53.6237 -0.41765 52.9448 0.279386C52.273 0.969102 52.0693 1.87454 52.0693 2.712H55.0693ZM55.3693 2.364C55.7411 2.364 55.7455 2.45648 55.6697 2.3797C55.5975 2.30654 55.6933 2.32232 55.6933 2.712H58.6933C58.6933 1.86968 58.4851 0.961456 57.8049 0.272294C57.1211 -0.420483 56.2135 -0.636001 55.3693 -0.636001V2.364ZM55.6933 2.712V16.368H58.6933V2.712H55.6933ZM55.6933 16.368C55.6933 16.7625 55.597 16.7811 55.6688 16.7074C55.6999 16.6754 55.7213 16.6723 55.6951 16.6813C55.6612 16.6929 55.5693 16.716 55.3933 16.716V19.716C56.2347 19.716 57.1389 19.4977 57.8178 18.8006C58.4896 18.1109 58.6933 17.2055 58.6933 16.368H55.6933ZM55.3933 16.716C55.2173 16.716 55.1254 16.6929 55.0915 16.6813C55.0653 16.6723 55.0867 16.6754 55.1178 16.7074C55.1896 16.7811 55.0933 16.7625 55.0933 16.368H52.0933C52.0933 17.2055 52.297 18.1109 52.9688 18.8006C53.6477 19.4977 54.5519 19.716 55.3933 19.716V16.716ZM55.0933 16.368V16.296H52.0933V16.368H55.0933ZM52.2659 15.5974C52.1023 15.9083 51.8411 16.1811 51.4093 16.4073L52.8013 19.0647C53.7135 18.5869 54.4443 17.8997 54.9207 16.9946L52.2659 15.5974ZM51.3961 16.4143C50.9743 16.6406 50.4928 16.764 49.9213 16.764V19.764C50.9498 19.764 51.9243 19.5354 52.8145 19.0577L51.3961 16.4143ZM51.0013 17.052C52.1865 17.052 53.234 16.596 54.0122 15.6882L51.7344 13.7358C51.5526 13.948 51.3521 14.052 51.0013 14.052V17.052ZM53.9962 15.7066C54.8424 14.7511 55.1173 13.4436 55.1173 12.096H52.1173C52.1173 13.1164 51.8962 13.5529 51.7504 13.7174L53.9962 15.7066ZM55.1173 12.096C55.1173 10.7631 54.8418 9.4607 53.9817 8.51737L51.7649 10.5386C51.8968 10.6833 52.1173 11.0929 52.1173 12.096H55.1173ZM54.0122 8.55181C53.234 7.64396 52.1865 7.188 51.0013 7.188V10.188C51.3521 10.188 51.5526 10.292 51.7344 10.5042L54.0122 8.55181ZM51.0013 7.188C49.8161 7.188 48.7686 7.64396 47.9904 8.55181L50.2682 10.5042C50.45 10.292 50.6505 10.188 51.0013 10.188V7.188ZM48.0046 8.53557C47.1727 9.47828 46.9093 10.7727 46.9093 12.096H49.9093C49.9093 11.0833 50.1259 10.6657 50.2541 10.5204L48.0046 8.53557ZM46.9093 12.096C46.9093 13.4343 47.1723 14.7338 47.9904 15.6882L50.2682 13.7358C50.1263 13.5702 49.9093 13.1257 49.9093 12.096H46.9093ZM47.9904 15.6882C48.7686 16.596 49.8161 17.052 51.0013 17.052V14.052C50.6505 14.052 50.45 13.948 50.2682 13.7358L47.9904 15.6882ZM63.5858 7.92H62.0858V13.5047L64.8839 8.67155L63.5858 7.92ZM65.0257 6.504L65.7513 7.81691L65.7627 7.81047L65.0257 6.504ZM69.2978 6.528L68.4902 7.79204L68.498 7.79703L68.5059 7.80193L69.2978 6.528ZM70.6418 8.208L69.2511 8.77018L70.4675 11.7793L71.9711 8.90288L70.6418 8.208ZM72.2258 6.576L72.9568 7.88583L72.9668 7.88018L72.2258 6.576ZM77.5537 7.2L76.3847 8.13983L76.3892 8.1455L76.3939 8.15112L77.5537 7.2ZM78.0578 17.736L76.9971 16.6753L76.9835 16.6889L76.9703 16.7029L78.0578 17.736ZM74.5298 9.336L73.2733 10.1554L73.2942 10.1874L73.3166 10.2183L74.5298 9.336ZM67.9538 17.736L69.0144 16.6753L67.9538 17.736ZM67.0898 9.336L65.8584 10.1926L65.8674 10.2055L65.8766 10.2183L67.0898 9.336ZM64.2337 9.504L65.4051 10.441L64.2337 9.504ZM61.8577 16.716C61.486 16.716 61.4815 16.6235 61.5573 16.7003C61.6295 16.7735 61.5337 16.7577 61.5337 16.368H58.5337C58.5337 17.2103 58.742 18.1185 59.4222 18.8077C60.106 19.5005 61.0135 19.716 61.8577 19.716V16.716ZM61.5337 16.368V7.848H58.5337V16.368H61.5337ZM61.5337 7.848C61.5337 7.46133 61.6281 7.4487 61.5525 7.52642C61.5193 7.56044 61.4954 7.56507 61.5186 7.55714C61.5494 7.54658 61.6378 7.524 61.8097 7.524V4.524C60.9762 4.524 60.0779 4.74043 59.403 5.43357C58.7354 6.1193 58.5337 7.01867 58.5337 7.848H61.5337ZM61.8097 7.524C61.9817 7.524 62.0701 7.54658 62.1009 7.55714C62.1241 7.56507 62.1002 7.56044 62.067 7.52642C61.9914 7.4487 62.0858 7.46133 62.0858 7.848H65.0857C65.0857 7.01867 64.8841 6.1193 64.2165 5.43357C63.5415 4.74043 62.6433 4.524 61.8097 4.524V7.524ZM62.0858 7.848V7.92H65.0857V7.848H62.0858ZM64.8839 8.67155C65.1011 8.29633 65.3844 8.01962 65.7513 7.81686L64.3002 5.19114C63.4511 5.66038 62.7744 6.32767 62.2876 7.16845L64.8839 8.67155ZM65.7627 7.81047C66.1321 7.60211 66.5916 7.476 67.1858 7.476V4.476C66.1479 4.476 65.1674 4.70189 64.2888 5.19753L65.7627 7.81047ZM67.1858 7.476C67.7941 7.476 68.2031 7.60865 68.4902 7.79204L70.1053 5.26396C69.2404 4.71135 68.2414 4.476 67.1858 4.476V7.476ZM68.5059 7.80193C68.7855 7.97577 69.046 8.26298 69.2511 8.77018L72.0324 7.64581C71.6295 6.64902 70.994 5.81623 70.0897 5.25407L68.5059 7.80193ZM71.9711 8.90288C72.205 8.45547 72.5261 8.12621 72.9568 7.8858L71.4947 5.2662C70.5494 5.79379 69.8145 6.55253 69.3124 7.51312L71.9711 8.90288ZM72.9668 7.88018C73.434 7.61469 73.9528 7.476 74.5537 7.476V4.476C73.4587 4.476 72.4255 4.73731 71.4847 5.27182L72.9668 7.88018ZM74.5537 7.476C75.5833 7.476 76.0908 7.77432 76.3847 8.13983L78.7228 6.26016C77.7047 4.99368 76.2122 4.476 74.5537 4.476V7.476ZM76.3939 8.15112C76.7294 8.56031 77.0378 9.38554 77.0378 10.92H80.0378C80.0378 9.09446 79.6901 7.43969 78.7137 6.24888L76.3939 8.15112ZM77.0378 10.92V16.368H80.0378V10.92H77.0378ZM77.0378 16.368C77.0378 16.5316 77.0154 16.6203 77.0023 16.6574C76.9917 16.6878 76.9874 16.685 76.9971 16.6753L79.1184 18.7967C79.7986 18.1165 80.0378 17.2303 80.0378 16.368H77.0378ZM76.9703 16.7029C76.9878 16.6844 77.0025 16.6807 76.9871 16.6863C76.9644 16.6946 76.8898 16.716 76.7377 16.716V19.716C77.5933 19.716 78.4787 19.4708 79.1452 18.7691L76.9703 16.7029ZM76.7377 16.716C76.366 16.716 76.3615 16.6235 76.4373 16.7003C76.5095 16.7735 76.4137 16.7577 76.4137 16.368H73.4137C73.4137 17.2103 73.622 18.1185 74.3022 18.8077C74.986 19.5005 75.8935 19.716 76.7377 19.716V16.716ZM76.4137 16.368V11.04H73.4137V16.368H76.4137ZM76.4137 11.04C76.4137 10.1616 76.2835 9.19717 75.7429 8.45374L73.3166 10.2183C73.2913 10.1834 73.321 10.2074 73.3544 10.3558C73.3873 10.5017 73.4137 10.7234 73.4137 11.04H76.4137ZM75.7862 8.5166C75.1773 7.58299 74.1854 7.284 73.2818 7.284V10.284C73.429 10.284 73.4624 10.3077 73.431 10.2938C73.4133 10.286 73.3839 10.2699 73.351 10.2422C73.3177 10.2143 73.2916 10.1834 73.2733 10.1554L75.7862 8.5166ZM73.2818 7.284C72.1998 7.284 71.2075 7.68561 70.5024 8.56696L72.8451 10.441C72.908 10.3624 72.9877 10.284 73.2818 10.284V7.284ZM70.5024 8.56696C69.8307 9.40665 69.5977 10.4668 69.5977 11.544H72.5977C72.5977 10.8612 72.7488 10.5613 72.8451 10.441L70.5024 8.56696ZM69.5977 11.544V16.368H72.5977V11.544H69.5977ZM69.5977 16.368C69.5977 16.7625 69.5014 16.7811 69.5732 16.7074C69.6044 16.6754 69.6258 16.6723 69.5996 16.6813C69.5657 16.6929 69.4738 16.716 69.2978 16.716V19.716C70.1391 19.716 71.0433 19.4977 71.7223 18.8006C72.3941 18.1109 72.5977 17.2055 72.5977 16.368H69.5977ZM69.2978 16.716C69.1466 16.716 69.0663 16.6948 69.0343 16.6834C69.0187 16.6778 69.0128 16.674 69.0127 16.674C69.0125 16.6738 69.0129 16.6741 69.0135 16.6746C69.0142 16.6751 69.0145 16.6755 69.0144 16.6753L66.8931 18.7967C67.5658 19.4694 68.4379 19.716 69.2978 19.716V16.716ZM69.0144 16.6753C69.0241 16.685 69.0198 16.6878 69.0091 16.6574C68.9961 16.6203 68.9737 16.5316 68.9737 16.368H65.9737C65.9737 17.2303 66.2129 18.1165 66.8931 18.7967L69.0144 16.6753ZM68.9737 16.368V11.04H65.9737V16.368H68.9737ZM68.9737 11.04C68.9737 10.1616 68.8435 9.19717 68.3029 8.45374L65.8766 10.2183C65.8513 10.1834 65.881 10.2074 65.9144 10.3558C65.9473 10.5017 65.9737 10.7234 65.9737 11.04H68.9737ZM68.3211 8.4794C67.7061 7.59539 66.7529 7.284 65.8418 7.284V10.284C65.9745 10.284 66.0058 10.3057 65.979 10.2938C65.9645 10.2874 65.9413 10.2747 65.9156 10.2536C65.8898 10.2324 65.8707 10.2103 65.8584 10.1926L68.3211 8.4794ZM65.8418 7.284C64.7598 7.284 63.7675 7.68561 63.0624 8.56696L65.4051 10.441C65.468 10.3624 65.5478 10.284 65.8418 10.284V7.284ZM63.0624 8.56696C62.3907 9.40665 62.1577 10.4668 62.1577 11.544H65.1578C65.1578 10.8612 65.3088 10.5613 65.4051 10.441L63.0624 8.56696ZM62.1577 11.544V16.368H65.1578V11.544H62.1577ZM62.1577 16.368C62.1577 16.7625 62.0614 16.7811 62.1332 16.7074C62.1644 16.6754 62.1858 16.6723 62.1596 16.6813C62.1257 16.6929 62.0338 16.716 61.8577 16.716V19.716C62.6991 19.716 63.6033 19.4976 64.2823 18.8006C64.9541 18.1109 65.1578 17.2055 65.1578 16.368H62.1577ZM82.9699 17.76L82.2991 19.1016L82.9699 17.76ZM81.3619 16.392L80.1138 17.2241L80.1217 17.2359L80.1298 17.2476L81.3619 16.392ZM81.4579 12.408L80.329 11.4202L81.4579 12.408ZM83.6419 11.328L83.945 12.797L83.9562 12.7947L83.9673 12.7923L83.6419 11.328ZM88.5139 10.992V12.492H90.0139V10.992H88.5139ZM88.0339 9.096L87.0008 10.1835L87.0154 10.1974L87.0304 10.2109L88.0339 9.096ZM84.9859 8.808L85.2623 10.2823L85.2844 10.2782L85.3064 10.2733L84.9859 8.808ZM83.3299 9.312L82.7663 7.92189L82.7526 7.92745L82.739 7.93328L83.3299 9.312ZM82.2019 9.36L81.4503 10.6581L81.4765 10.6733L81.5033 10.6874L82.2019 9.36ZM81.6019 8.592L80.1547 8.98668L80.1571 8.99539L80.1596 9.00408L81.6019 8.592ZM81.6739 7.536L80.3083 6.9153L80.2964 6.94145L80.2856 6.96805L81.6739 7.536ZM82.5859 6.768L83.0904 8.18061L83.1064 8.17488L83.1223 8.16878L82.5859 6.768ZM84.6979 6.168L84.9503 7.6466L84.9645 7.64419L84.9785 7.64151L84.6979 6.168ZM90.6259 7.224L89.6052 8.32319L89.6105 8.32813L89.6159 8.33301L90.6259 7.224ZM88.5859 16.224H90.0859L87.1859 15.6855L88.5859 16.224ZM87.3619 17.712L86.5543 16.448L86.5462 16.4531L86.5381 16.4584L87.3619 17.712ZM87.8179 15.144L88.8785 16.2047L87.8179 15.144ZM88.5139 12.864H90.0139V11.364H88.5139V12.864ZM85.0579 13.2L85.6224 14.5897L85.6409 14.5822L85.6591 14.5742L85.0579 13.2ZM84.7459 15.408L83.7143 16.4969L83.7282 16.5101L83.7424 16.5229L84.7459 15.408ZM85.2979 16.764C84.611 16.764 84.0715 16.6338 83.6407 16.4184L82.2991 19.1016C83.2122 19.5582 84.2248 19.764 85.2979 19.764V16.764ZM83.6407 16.4184C83.177 16.1865 82.8404 15.8913 82.5939 15.5364L80.1298 17.2476C80.6834 18.0447 81.4187 18.6615 82.2991 19.1016L83.6407 16.4184ZM82.6099 15.5599C82.397 15.2406 82.2859 14.8844 82.2859 14.448H79.2859C79.2859 15.4516 79.5587 16.3914 80.1138 17.2241L82.6099 15.5599ZM82.2859 14.448C82.2859 13.8705 82.4328 13.5717 82.5867 13.3958L80.329 11.4202C79.587 12.2683 79.2859 13.3295 79.2859 14.448H82.2859ZM82.5867 13.3958C82.7339 13.2275 83.1015 12.9711 83.945 12.797L83.3387 9.85895C82.1662 10.1009 81.0778 10.5645 80.329 11.4202L82.5867 13.3958ZM83.9673 12.7923C84.8239 12.6019 86.0376 12.492 87.6499 12.492V9.492C85.9342 9.492 84.4759 9.60608 83.3165 9.86372L83.9673 12.7923ZM87.6499 12.492H88.5139V9.492H87.6499V12.492ZM90.0139 10.992V10.584H87.0139V10.992H90.0139ZM90.0139 10.584C90.0139 9.71656 89.8262 8.69107 89.0373 7.98106L87.0304 10.2109C86.9562 10.1442 86.9504 10.0953 86.9663 10.1445C86.9848 10.2019 87.0139 10.3373 87.0139 10.584H90.0139ZM89.067 8.0085C88.3234 7.30206 87.2924 7.14 86.4019 7.14V10.14C86.6948 10.14 86.8792 10.1699 86.9822 10.1987C87.0826 10.2267 87.061 10.2408 87.0008 10.1835L89.067 8.0085ZM86.4019 7.14C85.8422 7.14 85.2612 7.21231 84.6653 7.34265L85.3064 10.2733C85.7346 10.1797 86.0976 10.14 86.4019 10.14V7.14ZM84.7094 7.33369C84.0801 7.4517 83.431 7.65241 82.7663 7.92189L83.8934 10.7021C84.4127 10.4916 84.8677 10.3563 85.2623 10.2823L84.7094 7.33369ZM82.739 7.93328C82.6351 7.97779 82.6098 7.97098 82.6481 7.96936C82.6694 7.96845 82.7064 7.96943 82.7541 7.97954C82.8027 7.98982 82.8528 8.00754 82.9005 8.03262L81.5033 10.6874C82.3547 11.1355 83.2391 10.9829 83.9208 10.6907L82.739 7.93328ZM82.9534 8.06186C82.9524 8.06128 82.9588 8.06489 82.9696 8.07411C82.9805 8.0835 82.9933 8.09639 83.0059 8.11253C83.0185 8.12869 83.0282 8.14454 83.035 8.15818C83.0383 8.16475 83.0406 8.17013 83.0421 8.174C83.0436 8.17786 83.0442 8.17993 83.0442 8.17992L80.1596 9.00408C80.363 9.71594 80.812 10.2886 81.4503 10.6581L82.9534 8.06186ZM83.049 8.19732C83.0436 8.17739 83.0442 8.16919 83.0444 8.16604C83.0447 8.16214 83.0462 8.143 83.0622 8.10395L80.2856 6.96805C80.0222 7.61179 79.968 8.30187 80.1547 8.98668L83.049 8.19732ZM83.0394 8.1567C83.0333 8.17019 83.0245 8.18539 83.0133 8.20001C83.0022 8.21451 82.9926 8.22352 82.9881 8.22737C82.9792 8.23482 83.0025 8.21198 83.0904 8.18061L82.0814 5.35539C81.345 5.61838 80.6736 6.11174 80.3083 6.9153L83.0394 8.1567ZM83.1223 8.16878C83.8009 7.90892 84.409 7.73902 84.9503 7.6466L84.4454 4.68939C83.6747 4.82098 82.8749 5.05108 82.0494 5.36721L83.1223 8.16878ZM84.9785 7.64151C85.5775 7.52741 86.098 7.476 86.5459 7.476V4.476C85.8737 4.476 85.1622 4.55258 84.4172 4.69449L84.9785 7.64151ZM86.5459 7.476C88.1736 7.476 89.0963 7.85066 89.6052 8.32319L91.6466 6.12481C90.3634 4.93334 88.5661 4.476 86.5459 4.476V7.476ZM89.6159 8.33301C90.0857 8.76089 90.4699 9.55024 90.4699 11.04H93.4699C93.4699 9.07376 92.958 7.31911 91.6359 6.11499L89.6159 8.33301ZM90.4699 11.04V16.368H93.4699V11.04H90.4699ZM90.4699 16.368C90.4699 16.7863 90.3717 16.82 90.44 16.745C90.4747 16.7067 90.5087 16.6921 90.5085 16.6922C90.4996 16.6954 90.4363 16.716 90.2899 16.716V19.716C91.1199 19.716 92.0069 19.4812 92.6598 18.763C93.288 18.072 93.4699 17.1817 93.4699 16.368H90.4699ZM90.2899 16.716C90.1374 16.716 90.0683 16.6949 90.0543 16.6898C90.0489 16.6879 90.0804 16.7001 90.1146 16.7372C90.1838 16.8122 90.0859 16.7816 90.0859 16.368H87.0859C87.0859 17.1864 87.272 18.0798 87.9091 18.7708C88.5675 19.4848 89.458 19.716 90.2899 19.716V16.716ZM90.0859 16.368V16.224H87.0859V16.368H90.0859ZM87.1859 15.6855C87.0636 16.0035 86.8669 16.2482 86.5543 16.448L88.1695 18.976C89.0088 18.4398 89.6282 17.6925 89.9859 16.7625L87.1859 15.6855ZM86.5381 16.4584C86.2715 16.6337 85.8854 16.764 85.2979 16.764V19.764C86.3423 19.764 87.3323 19.5263 88.1856 18.9656L86.5381 16.4584ZM86.1139 17.34C87.173 17.34 88.1257 16.9575 88.8785 16.2047L86.7572 14.0833C86.582 14.2585 86.3988 14.34 86.1139 14.34V17.34ZM88.8785 16.2047C89.6591 15.4241 90.0139 14.425 90.0139 13.344H87.0139C87.0139 13.735 86.9046 13.9359 86.7572 14.0833L88.8785 16.2047ZM90.0139 13.344V12.864H87.0139V13.344H90.0139ZM88.5139 11.364H87.6739V14.364H88.5139V11.364ZM87.6739 11.364C86.4251 11.364 85.2774 11.4667 84.4566 11.8258L85.6591 14.5742C85.8623 14.4853 86.4586 14.364 87.6739 14.364V11.364ZM84.4933 11.8103C84.031 11.9981 83.5794 12.3027 83.2505 12.7754C82.9182 13.2531 82.7899 13.7896 82.7899 14.304H85.7899C85.7899 14.2932 85.7912 14.3116 85.7802 14.3501C85.7686 14.3905 85.7472 14.4398 85.7132 14.4886C85.6404 14.5933 85.5727 14.6099 85.6224 14.5897L84.4933 11.8103ZM82.7899 14.304C82.7899 15.1318 83.0887 15.9043 83.7143 16.4969L85.7775 14.3191C85.7724 14.3142 85.7737 14.3147 85.778 14.3208C85.7801 14.3237 85.7823 14.3273 85.7846 14.3314C85.7868 14.3356 85.7887 14.3396 85.7903 14.3434C85.7936 14.3513 85.7938 14.3545 85.793 14.3503C85.7922 14.3457 85.7899 14.3311 85.7899 14.304H82.7899ZM83.7424 16.5229C84.4266 17.1387 85.2911 17.34 86.1139 17.34V14.34C85.7526 14.34 85.7052 14.2533 85.7493 14.2931L83.7424 16.5229ZM98.2493 7.92H96.7493V13.6017L99.5538 8.66041L98.2493 7.92ZM99.7373 6.504L100.446 7.82574V7.82574L99.7373 6.504ZM104.633 6.72L103.819 7.98011L103.831 7.98762L104.633 6.72ZM106.457 8.832L107.813 8.18987L106.457 8.832ZM106.457 15.384L107.813 16.0261L107.817 16.017L106.457 15.384ZM104.633 17.52L105.447 18.7801L105.453 18.7759L104.633 17.52ZM99.7852 17.76L99.088 19.0881L99.0947 19.0916L99.1014 19.0951L99.7852 17.76ZM98.2972 16.416L99.5672 15.6177L96.7972 11.211V16.416H98.2972ZM102.737 14.712L101.598 13.7358L102.737 14.712ZM102.737 9.528L101.598 10.5042L101.605 10.5124L101.612 10.5204L102.737 9.528ZM98.9693 9.528L100.094 10.5204L100.101 10.5124L100.108 10.5042L98.9693 9.528ZM98.9693 14.712L100.108 13.7358L98.9693 14.712ZM96.4973 21.036C96.1255 21.036 96.121 20.9435 96.1968 21.0203C96.269 21.0935 96.1732 21.0777 96.1732 20.688H93.1732C93.1732 21.5303 93.3815 22.4385 94.0617 23.1277C94.7455 23.8205 95.653 24.036 96.4973 24.036V21.036ZM96.1732 20.688V7.848H93.1732V20.688H96.1732ZM96.1732 7.848C96.1732 7.46133 96.2676 7.4487 96.192 7.52642C96.1588 7.56044 96.1349 7.56507 96.1581 7.55714C96.1889 7.54658 96.2773 7.524 96.4492 7.524V4.524C95.6157 4.524 94.7175 4.74043 94.0425 5.43357C93.3749 6.1193 93.1732 7.01867 93.1732 7.848H96.1732ZM96.4492 7.524C96.627 7.524 96.7209 7.54703 96.7567 7.55912C96.785 7.56868 96.7638 7.56626 96.7316 7.53361C96.6554 7.45644 96.7493 7.46626 96.7493 7.848H99.7493C99.7493 7.01374 99.5431 6.11156 98.8669 5.42639C98.1871 4.73755 97.2855 4.524 96.4492 4.524V7.524ZM96.7493 7.848V7.92H99.7493V7.848H96.7493ZM99.5538 8.66041C99.7372 8.33731 100.016 8.05697 100.446 7.82574L99.028 5.18226C98.147 5.65502 97.4333 6.31869 96.9447 7.17959L99.5538 8.66041ZM100.446 7.82574C100.864 7.60173 101.352 7.476 101.945 7.476V4.476C100.906 4.476 99.9226 4.70226 99.028 5.18226L100.446 7.82574ZM101.945 7.476C102.716 7.476 103.322 7.65904 103.819 7.98006L105.447 5.45994C104.408 4.78896 103.222 4.476 101.945 4.476V7.476ZM103.831 7.98762C104.354 8.31847 104.78 8.79543 105.102 9.47413L107.813 8.18987C107.27 7.04457 106.48 6.11353 105.435 5.45238L103.831 7.98762ZM105.102 9.47413C105.418 10.1413 105.605 10.9995 105.605 12.096H108.605C108.605 10.6645 108.361 9.34666 107.813 8.18987L105.102 9.47413ZM105.605 12.096C105.605 13.1914 105.418 14.0621 105.097 14.751L107.817 16.017C108.36 14.8499 108.605 13.5286 108.605 12.096H105.605ZM105.102 14.7419C104.779 15.424 104.347 15.9152 103.813 16.2641L105.453 18.7759C106.487 18.1008 107.272 17.168 107.813 16.0261L105.102 14.7419ZM103.819 16.2599C103.322 16.581 102.716 16.764 101.945 16.764V19.764C103.222 19.764 104.408 19.451 105.447 18.7801L103.819 16.2599ZM101.945 16.764C101.383 16.764 100.9 16.6457 100.469 16.4249L99.1014 19.0951C99.9825 19.5463 100.939 19.764 101.945 19.764V16.764ZM100.482 16.4319C100.054 16.2072 99.7655 15.9332 99.5672 15.6177L97.0273 17.2143C97.533 18.0188 98.2361 18.6408 99.088 19.0881L100.482 16.4319ZM96.7972 16.416V20.688H99.7972V16.416H96.7972ZM96.7972 20.688C96.7972 21.0825 96.7009 21.1011 96.7727 21.0274C96.8039 20.9954 96.8253 20.9923 96.7991 21.0013C96.7652 21.0129 96.6733 21.036 96.4973 21.036V24.036C97.3386 24.036 98.2428 23.8176 98.9218 23.1206C99.5936 22.4309 99.7972 21.5255 99.7972 20.688H96.7972ZM100.865 17.052C102.05 17.052 103.098 16.596 103.876 15.6882L101.598 13.7358C101.417 13.948 101.216 14.052 100.865 14.052V17.052ZM103.876 15.6882C104.694 14.7338 104.957 13.4343 104.957 12.096H101.957C101.957 13.1257 101.74 13.5702 101.598 13.7358L103.876 15.6882ZM104.957 12.096C104.957 10.7727 104.694 9.47828 103.862 8.53557L101.612 10.5204C101.741 10.6657 101.957 11.0833 101.957 12.096H104.957ZM103.876 8.55181C103.098 7.64396 102.05 7.188 100.865 7.188V10.188C101.216 10.188 101.417 10.292 101.598 10.5042L103.876 8.55181ZM100.865 7.188C99.6747 7.188 98.6151 7.63624 97.8304 8.55181L100.108 10.5042C100.283 10.2998 100.488 10.188 100.865 10.188V7.188ZM97.8445 8.53557C97.0127 9.47828 96.7493 10.7727 96.7493 12.096H99.7493C99.7493 11.0833 99.9658 10.6657 100.094 10.5204L97.8445 8.53557ZM96.7493 12.096C96.7493 13.4343 97.0123 14.7338 97.8304 15.6882L100.108 13.7358C99.9662 13.5702 99.7493 13.1257 99.7493 12.096H96.7493ZM97.8304 15.6882C98.6151 16.6038 99.6747 17.052 100.865 17.052V14.052C100.488 14.052 100.283 13.9402 100.108 13.7358L97.8304 15.6882Z" fill="#5B3511"/>
</g>
<defs>
<filter id="filter0_d_232_35" x="0.774323" y="0.864014" width="107.331" height="23.672" filterUnits="userSpaceOnUse" color-interpolation-filters="sRGB">
<feFlood flood-opacity="0" result="BackgroundImageFix"/>
<feColorMatrix in="SourceAlpha" type="matrix" values="0 0 0 0 0 0 0 0 0 0 0 0 0 0 0 0 0 0 127 0" result="hardAlpha"/>
<feOffset dy="1"/>
<feGaussianBlur stdDeviation="0.5"/>
<feComposite in2="hardAlpha" operator="out"/>
<feColorMatrix type="matrix" values="0 0 0 0 0 0 0 0 0 0 0 0 0 0 0 0 0 0 0.25 0"/>
<feBlend mode="normal" in2="BackgroundImageFix" result="effect1_dropShadow_232_35"/>
<feBlend mode="normal" in="SourceGraphic" in2="effect1_dropShadow_232_35" result="shape"/>
</filter>
<linearGradient id="paint0_linear_232_35" x1="54" y1="-6" x2="54" y2="27" gradientUnits="userSpaceOnUse">
<stop stop-color="#FDE092"/>
<stop offset="1" stop-color="#C18B2C"/>
</linearGradient>
</defs>
</svg>
