<svg width="210" height="47" viewBox="0 0 210 47" fill="none" xmlns="http://www.w3.org/2000/svg">
<g filter="url(#filter0_d_232_42)">
<path d="M5.18325 35.432C3.96725 35.432 3.03925 35.096 2.39925 34.424C1.75925 33.752 1.43925 32.808 1.43925 31.592V4.952C1.43925 2.424 2.70325 1.16 5.23125 1.16H16.8953C20.6713 1.16 23.5833 2.12 25.6313 4.04C27.6793 5.928 28.7033 8.568 28.7033 11.96C28.7033 15.352 27.6793 18.008 25.6313 19.928C23.5833 21.848 20.6713 22.808 16.8953 22.808H8.87925V31.592C8.87925 32.808 8.55925 33.752 7.91925 34.424C7.31125 35.096 6.39925 35.432 5.18325 35.432ZM8.87925 17.048H15.6473C19.5833 17.048 21.5513 15.352 21.5513 11.96C21.5513 8.632 19.5833 6.968 15.6473 6.968H8.87925V17.048ZM41.1863 35.528C35.5223 35.528 32.6903 32.376 32.6903 26.072V4.424C32.6903 1.96 33.9063 0.727998 36.3383 0.727998C38.7383 0.727998 39.9383 1.96 39.9383 4.424V25.784C39.9383 27.096 40.2103 28.072 40.7543 28.712C41.3303 29.32 42.0823 29.624 43.0103 29.624C43.2663 29.624 43.5063 29.608 43.7303 29.576C43.9863 29.544 44.2263 29.528 44.4503 29.528C44.9623 29.496 45.3143 29.656 45.5063 30.008C45.7303 30.36 45.8423 31.08 45.8423 32.168C45.8423 34.024 45.0583 35.08 43.4903 35.336C43.1703 35.368 42.8023 35.4 42.3863 35.432C41.9703 35.496 41.5703 35.528 41.1863 35.528ZM56.6426 35.528C54.8826 35.528 53.3306 35.192 51.9866 34.52C50.6426 33.848 49.5706 32.936 48.7706 31.784C48.0026 30.632 47.6186 29.336 47.6186 27.896C47.6186 26.2 48.0666 24.84 48.9626 23.816C49.8586 22.792 51.3146 22.072 53.3306 21.656C55.3466 21.208 58.0186 20.984 61.3466 20.984H63.0746V20.168C63.0746 18.76 62.7546 17.768 62.1146 17.192C61.4746 16.584 60.3866 16.28 58.8506 16.28C57.9866 16.28 57.0426 16.392 56.0186 16.616C54.9946 16.808 53.8906 17.144 52.7066 17.624C51.8106 18.008 51.0586 18.04 50.4506 17.72C49.8426 17.368 49.4426 16.856 49.2506 16.184C49.0586 15.48 49.1066 14.776 49.3946 14.072C49.7146 13.368 50.3226 12.856 51.2186 12.536C52.7226 11.96 54.1306 11.56 55.4426 11.336C56.7866 11.08 58.0186 10.952 59.1386 10.952C62.7866 10.952 65.5066 11.784 67.2986 13.448C69.0906 15.08 69.9866 17.624 69.9866 21.08V31.736C69.9866 34.2 68.8666 35.432 66.6266 35.432C64.3546 35.432 63.2186 34.2 63.2186 31.736V31.448C62.7386 32.696 61.9226 33.688 60.7706 34.424C59.6506 35.16 58.2746 35.528 56.6426 35.528ZM58.2746 30.68C59.6186 30.68 60.7546 30.216 61.6826 29.288C62.6106 28.36 63.0746 27.16 63.0746 25.688V24.728H61.3946C58.9306 24.728 57.1866 24.952 56.1626 25.4C55.1386 25.816 54.6266 26.552 54.6266 27.608C54.6266 28.504 54.9306 29.24 55.5386 29.816C56.1786 30.392 57.0906 30.68 58.2746 30.68ZM81.591 44.072C80.311 44.072 79.399 43.592 78.855 42.632C78.343 41.704 78.375 40.616 78.951 39.368L81.495 33.704L73.671 15.752C73.159 14.504 73.159 13.416 73.671 12.488C74.215 11.528 75.287 11.048 76.887 11.048C77.751 11.048 78.439 11.256 78.951 11.672C79.495 12.056 79.991 12.808 80.439 13.928L85.335 26.408L90.423 13.88C90.871 12.792 91.367 12.056 91.911 11.672C92.487 11.256 93.255 11.048 94.215 11.048C95.431 11.048 96.279 11.528 96.759 12.488C97.271 13.416 97.255 14.488 96.711 15.704L85.431 41.288C84.951 42.376 84.407 43.112 83.799 43.496C83.223 43.88 82.487 44.072 81.591 44.072ZM117.807 35.432C115.375 35.432 114.159 34.2 114.159 31.736V14.696C114.159 12.264 115.343 11.048 117.711 11.048C120.079 11.048 121.263 12.264 121.263 14.696V14.888C122.063 13.608 123.135 12.632 124.479 11.96C125.823 11.288 127.327 10.952 128.991 10.952C131.775 10.952 133.855 11.768 135.231 13.4C136.607 15 137.295 17.48 137.295 20.84V31.736C137.295 34.2 136.079 35.432 133.647 35.432C132.495 35.432 131.599 35.112 130.959 34.472C130.351 33.832 130.047 32.92 130.047 31.736V21.176C130.047 19.544 129.743 18.376 129.135 17.672C128.527 16.936 127.631 16.568 126.447 16.568C124.911 16.568 123.679 17.048 122.751 18.008C121.855 18.968 121.407 20.248 121.407 21.848V31.736C121.407 34.2 120.207 35.432 117.807 35.432ZM154.034 35.528C151.506 35.528 149.298 35.032 147.41 34.04C145.554 33.016 144.114 31.592 143.09 29.768C142.066 27.912 141.554 25.72 141.554 23.192C141.554 20.696 142.066 18.536 143.09 16.712C144.114 14.856 145.554 13.432 147.41 12.44C149.298 11.448 151.506 10.952 154.034 10.952C156.562 10.952 158.754 11.448 160.61 12.44C162.498 13.432 163.954 14.856 164.978 16.712C166.034 18.536 166.562 20.696 166.562 23.192C166.562 25.72 166.034 27.912 164.978 29.768C163.954 31.592 162.498 33.016 160.61 34.04C158.754 35.032 156.562 35.528 154.034 35.528ZM154.034 30.104C155.57 30.104 156.818 29.544 157.778 28.424C158.77 27.304 159.266 25.56 159.266 23.192C159.266 20.856 158.77 19.144 157.778 18.056C156.818 16.936 155.57 16.376 154.034 16.376C152.498 16.376 151.25 16.936 150.29 18.056C149.33 19.144 148.85 20.856 148.85 23.192C148.85 25.56 149.33 27.304 150.29 28.424C151.25 29.544 152.498 30.104 154.034 30.104ZM180.105 35.432C178.153 35.432 176.793 34.456 176.025 32.504L169.257 15.752C168.745 14.44 168.745 13.336 169.257 12.44C169.801 11.512 170.809 11.048 172.281 11.048C173.113 11.048 173.785 11.256 174.297 11.672C174.841 12.056 175.321 12.808 175.737 13.928L180.441 26.552L185.385 13.304C185.929 11.8 186.953 11.048 188.457 11.048C189.961 11.048 191.001 11.8 191.577 13.304L196.473 26.744L201.273 13.736C201.657 12.712 202.137 12.008 202.713 11.624C203.321 11.24 203.993 11.048 204.729 11.048C206.105 11.048 207.001 11.528 207.417 12.488C207.833 13.448 207.785 14.536 207.273 15.752L200.553 32.504C199.785 34.456 198.425 35.432 196.473 35.432C194.521 35.432 193.161 34.456 192.393 32.504L188.217 21.608L184.137 32.456C183.401 34.44 182.057 35.432 180.105 35.432Z" fill="url(#paint0_linear_232_42)"/>
<path d="M2.39925 34.424L4.57166 32.355L2.39925 34.424ZM25.6313 4.04L23.5794 6.22861L23.5886 6.23721L23.5978 6.24573L25.6313 4.04ZM8.87925 22.808V19.808H5.87925V22.808H8.87925ZM7.91925 34.424L5.74684 32.355L5.72038 32.3828L5.69464 32.4113L7.91925 34.424ZM8.87925 17.048H5.87925V20.048H8.87925V17.048ZM8.87925 6.968V3.968H5.87925V6.968H8.87925ZM5.18325 32.432C4.84559 32.432 4.66709 32.3847 4.59657 32.3592C4.54086 32.339 4.55112 32.3335 4.57166 32.355L0.226837 36.493C1.59399 37.9285 3.41312 38.432 5.18325 38.432V32.432ZM4.57166 32.355C4.56896 32.3522 4.56492 32.3477 4.55846 32.3368C4.55166 32.3253 4.53727 32.2985 4.52045 32.2489C4.48581 32.1467 4.43925 31.9419 4.43925 31.592H-1.56075C-1.56075 33.3317 -1.09314 35.107 0.226837 36.493L4.57166 32.355ZM4.43925 31.592V4.952H-1.56075V31.592H4.43925ZM4.43925 4.952C4.43925 4.15043 4.63761 4.10028 4.50857 4.22932C4.37953 4.35836 4.42968 4.16 5.23125 4.16V-1.84C3.50482 -1.84 1.65897 -1.40636 0.26593 -0.0133228C-1.12711 1.37972 -1.56075 3.22556 -1.56075 4.952H4.43925ZM5.23125 4.16H16.8953V-1.84H5.23125V4.16ZM16.8953 4.16C20.1773 4.16 22.2564 4.98824 23.5794 6.22861L27.6831 1.85139C24.9101 -0.74824 21.1652 -1.84 16.8953 -1.84V4.16ZM23.5978 6.24573C24.8985 7.44475 25.7033 9.20903 25.7033 11.96H31.7033C31.7033 7.92697 30.46 4.41125 27.6647 1.83427L23.5978 6.24573ZM25.7033 11.96C25.7033 14.7092 24.8987 16.5025 23.5794 17.7394L27.6831 22.1166C30.4598 19.5135 31.7033 15.9948 31.7033 11.96H25.7033ZM23.5794 17.7394C22.2564 18.9798 20.1773 19.808 16.8953 19.808V25.808C21.1652 25.808 24.9101 24.7162 27.6831 22.1166L23.5794 17.7394ZM16.8953 19.808H8.87925V25.808H16.8953V19.808ZM5.87925 22.808V31.592H11.8793V22.808H5.87925ZM5.87925 31.592C5.87925 31.9419 5.83269 32.1467 5.79805 32.2489C5.78124 32.2985 5.76684 32.3253 5.76004 32.3368C5.75358 32.3477 5.74954 32.3522 5.74684 32.355L10.0917 36.493C11.4116 35.107 11.8793 33.3317 11.8793 31.592H5.87925ZM5.69464 32.4113C5.73921 32.362 5.77714 32.3521 5.74213 32.365C5.68983 32.3842 5.52267 32.432 5.18325 32.432V38.432C6.94345 38.432 8.79116 37.9318 10.1439 36.4367L5.69464 32.4113ZM8.87925 20.048H15.6473V14.048H8.87925V20.048ZM15.6473 20.048C17.9774 20.048 20.285 19.5555 22.0337 18.0485C23.8677 16.468 24.5513 14.2445 24.5513 11.96H18.5513C18.5513 13.0675 18.2508 13.388 18.1168 13.5035C17.8975 13.6925 17.2531 14.048 15.6473 14.048V20.048ZM24.5513 11.96C24.5513 9.68937 23.8561 7.48418 22.0122 5.92513C20.2648 4.4476 17.9663 3.968 15.6473 3.968V9.968C17.2642 9.968 17.9177 10.3204 18.1383 10.5069C18.2624 10.6118 18.5513 10.9026 18.5513 11.96H24.5513ZM15.6473 3.968H8.87925V9.968H15.6473V3.968ZM5.87925 6.968V17.048H11.8793V6.968H5.87925ZM40.7542 28.712L38.4684 30.6549L38.5208 30.7165L38.5764 30.7752L40.7542 28.712ZM43.7303 29.576L43.3581 26.5992L43.332 26.6024L43.306 26.6062L43.7303 29.576ZM44.4502 29.528V32.528H44.5439L44.6374 32.5222L44.4502 29.528ZM45.5063 30.008L42.8726 31.4446L42.921 31.5333L42.9753 31.6186L45.5063 30.008ZM43.4902 35.336L43.7888 38.3211L43.8816 38.3118L43.9736 38.2968L43.4902 35.336ZM42.3862 35.432L42.1562 32.4408L42.0426 32.4496L41.9301 32.4669L42.3862 35.432ZM41.1862 32.528C38.9046 32.528 37.7187 31.9079 37.0458 31.159C36.3181 30.349 35.6903 28.8361 35.6903 26.072H29.6903C29.6903 29.6119 30.4784 32.827 32.5827 35.169C34.7418 37.5721 37.8039 38.528 41.1862 38.528V32.528ZM35.6903 26.072V4.424H29.6903V26.072H35.6903ZM35.6903 4.424C35.6903 3.64464 35.8818 3.61308 35.7374 3.75941C35.5858 3.91296 35.5947 3.728 36.3382 3.728V-2.272C34.6498 -2.272 32.8347 -1.84097 31.4671 -0.455412C30.1067 0.922914 29.6903 2.73936 29.6903 4.424H35.6903ZM36.3382 3.728C36.6903 3.728 36.8741 3.77419 36.9419 3.79739C36.9943 3.81533 36.9515 3.80919 36.8892 3.74522C36.7456 3.59779 36.9383 3.63492 36.9383 4.424H42.9383C42.9383 2.74908 42.5309 0.938204 41.1873 -0.441229C39.8294 -1.8353 38.021 -2.272 36.3382 -2.272V3.728ZM36.9383 4.424V25.784H42.9383V4.424H36.9383ZM36.9383 25.784C36.9383 27.4279 37.2659 29.2402 38.4684 30.6549L43.0401 26.7691C43.1013 26.8411 43.0751 26.849 43.0321 26.6946C42.987 26.5328 42.9383 26.2433 42.9383 25.784H36.9383ZM38.5764 30.7752C39.7832 32.0491 41.3569 32.624 43.0103 32.624V26.624C42.942 26.624 42.9007 26.6184 42.8814 26.6149C42.8629 26.6116 42.8626 26.6098 42.8746 26.6147C42.8871 26.6197 42.9028 26.6278 42.9176 26.638C42.9321 26.648 42.9369 26.6538 42.9321 26.6488L38.5764 30.7752ZM43.0103 32.624C43.3901 32.624 43.7731 32.6003 44.1545 32.5458L43.306 26.6062C43.2394 26.6157 43.1424 26.624 43.0103 26.624V32.624ZM44.1024 32.5528C44.253 32.534 44.3676 32.528 44.4502 32.528V26.528C44.0849 26.528 43.7195 26.554 43.3581 26.5992L44.1024 32.5528ZM44.6374 32.5222C44.557 32.5272 44.2505 32.534 43.8568 32.3551C43.4176 32.1554 43.0757 31.8169 42.8726 31.4446L48.1399 28.5714C47.7448 27.8471 47.1309 27.2526 46.3397 26.8929C45.594 26.554 44.8555 26.4968 44.2631 26.5338L44.6374 32.5222ZM42.9753 31.6186C42.8507 31.4229 42.8021 31.2749 42.7906 31.2383C42.777 31.195 42.7825 31.2 42.7939 31.2731C42.8177 31.4259 42.8423 31.711 42.8423 32.168H48.8423C48.8423 31.537 48.8108 30.9181 48.7226 30.3509C48.6435 29.8422 48.4791 29.0917 48.0372 28.3974L42.9753 31.6186ZM42.8423 32.168C42.8423 32.4267 42.8143 32.571 42.7984 32.6301C42.7842 32.683 42.7865 32.6431 42.8455 32.5637C42.8739 32.5254 42.9092 32.4866 42.9499 32.4511C42.9905 32.4156 43.0284 32.3905 43.0578 32.3741C43.1167 32.3412 43.1159 32.3574 43.0069 32.3752L43.9736 38.2968C45.3572 38.0709 46.7125 37.4206 47.663 36.1403C48.5683 34.9209 48.8423 33.4827 48.8423 32.168H42.8423ZM43.1917 32.3509C42.9 32.3801 42.5556 32.4101 42.1562 32.4408L42.6163 38.4232C43.0489 38.3899 43.4405 38.3559 43.7888 38.3211L43.1917 32.3509ZM41.9301 32.4669C41.6508 32.5098 41.4038 32.528 41.1862 32.528V38.528C41.7367 38.528 42.2897 38.4822 42.8424 38.3971L41.9301 32.4669ZM51.9866 34.52L50.645 37.2033L51.9866 34.52ZM48.7706 31.784L46.2745 33.4481L46.2903 33.4718L46.3065 33.4952L48.7706 31.784ZM48.9626 23.816L46.7049 21.8405L48.9626 23.816ZM53.3306 21.656L53.9369 24.5941L53.9592 24.5895L53.9814 24.5846L53.3306 21.656ZM63.0746 20.984V23.984H66.0746V20.984H63.0746ZM62.1146 17.192L60.0484 19.367L60.0777 19.3948L60.1077 19.4219L62.1146 17.192ZM56.0186 16.616L56.5715 19.5646L56.6157 19.5563L56.6597 19.5467L56.0186 16.616ZM52.7066 17.624L51.5795 14.8438L51.5521 14.8549L51.5249 14.8666L52.7066 17.624ZM50.4506 17.72L48.9475 20.3163L48.9999 20.3466L49.0534 20.3748L50.4506 17.72ZM49.2506 16.184L46.3563 16.9734L46.3611 16.9908L46.3661 17.0082L49.2506 16.184ZM49.3946 14.072L46.6635 12.8306L46.6397 12.8829L46.618 12.9361L49.3946 14.072ZM51.2186 12.536L52.2276 15.3612L52.2597 15.3498L52.2916 15.3376L51.2186 12.536ZM55.4426 11.336L55.9475 14.2932L55.9758 14.2884L56.004 14.283L55.4426 11.336ZM67.2986 13.448L65.2573 15.6464L65.2679 15.6563L65.2786 15.666L67.2986 13.448ZM63.2186 31.448H66.2186L60.4186 30.3711L63.2186 31.448ZM60.7706 34.424L59.1555 31.8959L59.1392 31.9063L59.1231 31.9169L60.7706 34.424ZM61.6826 29.288L63.8039 31.4093L61.6826 29.288ZM63.0746 24.728H66.0746V21.728H63.0746V24.728ZM56.1626 25.4L57.2918 28.1794L57.3286 28.1644L57.3651 28.1485L56.1626 25.4ZM55.5386 29.816L53.4754 31.9939L53.5032 32.0202L53.5317 32.0459L55.5386 29.816ZM56.6426 32.528C55.2688 32.528 54.19 32.2676 53.3283 31.8367L50.645 37.2033C52.4713 38.1164 54.4964 38.528 56.6426 38.528V32.528ZM53.3283 31.8367C52.4009 31.373 51.7276 30.7825 51.2347 30.0728L46.3065 33.4952C47.4137 35.0895 48.8843 36.323 50.645 37.2033L53.3283 31.8367ZM51.2668 30.1199C50.841 29.4812 50.6186 28.7688 50.6186 27.896H44.6186C44.6186 29.9032 45.1643 31.7828 46.2745 33.4481L51.2668 30.1199ZM50.6186 27.896C50.6186 26.741 50.9124 26.1435 51.2204 25.7915L46.7049 21.8405C45.2208 23.5365 44.6186 25.659 44.6186 27.896H50.6186ZM51.2204 25.7915C51.5148 25.455 52.25 24.9422 53.9369 24.5941L52.7243 18.7179C50.3793 19.2018 48.2025 20.129 46.7049 21.8405L51.2204 25.7915ZM53.9814 24.5846C55.6946 24.2038 58.122 23.984 61.3466 23.984V17.984C57.9152 17.984 54.9986 18.2122 52.6798 18.7274L53.9814 24.5846ZM61.3466 23.984H63.0746V17.984H61.3466V23.984ZM66.0746 20.984V20.168H60.0746V20.984H66.0746ZM66.0746 20.168C66.0746 18.4331 65.6993 16.3821 64.1215 14.9621L60.1077 19.4219C59.9594 19.2883 59.9478 19.1906 59.9795 19.289C60.0165 19.4037 60.0746 19.6746 60.0746 20.168H66.0746ZM64.1809 15.017C62.6936 13.6041 60.6317 13.28 58.8506 13.28V19.28C59.4365 19.28 59.8052 19.3397 60.0113 19.3973C60.2121 19.4534 60.1689 19.4815 60.0484 19.367L64.1809 15.017ZM58.8506 13.28C57.7312 13.28 56.5692 13.4246 55.3775 13.6853L56.6597 19.5467C57.516 19.3594 58.2421 19.28 58.8506 19.28V13.28ZM55.4658 13.6674C54.207 13.9034 52.909 14.3048 51.5795 14.8438L53.8337 20.4042C54.8723 19.9832 55.7822 19.7126 56.5715 19.5646L55.4658 13.6674ZM51.5249 14.8666C51.3172 14.9556 51.2665 14.942 51.3431 14.9387C51.3858 14.9369 51.4596 14.9389 51.5551 14.9591C51.6522 14.9796 51.7526 15.0151 51.8479 15.0652L49.0534 20.3748C50.7562 21.271 52.525 20.9657 53.8884 20.3814L51.5249 14.8666ZM51.9537 15.1237C51.9517 15.1226 51.9645 15.1298 51.986 15.1482C52.0079 15.167 52.0335 15.1928 52.0587 15.2251C52.0839 15.2574 52.1033 15.2891 52.1169 15.3164C52.1235 15.3295 52.128 15.3403 52.131 15.348C52.134 15.3557 52.1352 15.3599 52.1352 15.3598L46.3661 17.0082C46.7728 18.4319 47.6708 19.5771 48.9475 20.3163L51.9537 15.1237ZM52.1449 15.3946C52.134 15.3548 52.1352 15.3384 52.1357 15.3321C52.1362 15.3243 52.1393 15.286 52.1713 15.2079L46.618 12.9361C46.0913 14.2236 45.9828 15.6037 46.3563 16.9734L52.1449 15.3946ZM52.1257 15.3134C52.1135 15.3404 52.0958 15.3708 52.0735 15.4C52.0513 15.429 52.0322 15.447 52.023 15.4547C52.0053 15.4696 52.0519 15.424 52.2276 15.3612L50.2096 9.71077C48.7368 10.2368 47.394 11.2235 46.6635 12.8306L52.1257 15.3134ZM52.2916 15.3376C53.6486 14.8178 54.8649 14.478 55.9475 14.2932L54.9377 8.37879C53.3964 8.64195 51.7966 9.10216 50.1457 9.73443L52.2916 15.3376ZM56.004 14.283C57.2019 14.0548 58.2429 13.952 59.1386 13.952V7.952C57.7943 7.952 56.3713 8.10517 54.8813 8.38898L56.004 14.283ZM59.1386 13.952C62.3941 13.952 64.2395 14.7013 65.2573 15.6464L69.34 11.2496C66.7737 8.86668 63.1791 7.952 59.1386 7.952V13.952ZM65.2786 15.666C66.2183 16.5218 66.9866 18.1005 66.9866 21.08H72.9866C72.9866 17.1475 71.963 13.6382 69.3186 11.23L65.2786 15.666ZM66.9866 21.08V31.736H72.9866V21.08H66.9866ZM66.9866 31.736C66.9866 32.5726 66.7904 32.6401 66.9268 32.49C66.9963 32.4135 67.0644 32.3842 67.0639 32.3844C67.0462 32.3909 66.9194 32.432 66.6266 32.432V38.432C68.2866 38.432 70.0607 37.9623 71.3664 36.526C72.6229 35.1439 72.9866 33.3634 72.9866 31.736H66.9866ZM66.6266 32.432C66.3217 32.432 66.1834 32.3898 66.1555 32.3797C66.1446 32.3757 66.2078 32.4002 66.2761 32.4743C66.4144 32.6243 66.2186 32.5632 66.2186 31.736H60.2186C60.2186 33.3728 60.5908 35.1597 61.8651 36.5416C63.1818 37.9696 64.9629 38.432 66.6266 38.432V32.432ZM66.2186 31.736V31.448H60.2186V31.736H66.2186ZM60.4186 30.3711C60.174 31.0071 59.7807 31.4965 59.1555 31.8959L62.3858 36.9521C64.0646 35.8795 65.3033 34.3849 66.0187 32.5249L60.4186 30.3711ZM59.1231 31.9169C58.5898 32.2673 57.8177 32.528 56.6426 32.528V38.528C58.7315 38.528 60.7114 38.0527 62.4182 36.9311L59.1231 31.9169ZM58.2746 33.68C60.3928 33.68 62.2983 32.9149 63.8039 31.4093L59.5613 27.1667C59.2109 27.5171 58.8444 27.68 58.2746 27.68V33.68ZM63.8039 31.4093C65.3651 29.8481 66.0746 27.8499 66.0746 25.688H60.0746C60.0746 26.4701 59.8561 26.8719 59.5613 27.1667L63.8039 31.4093ZM66.0746 25.688V24.728H60.0746V25.688H66.0746ZM63.0746 21.728H61.3946V27.728H63.0746V21.728ZM61.3946 21.728C58.8972 21.728 56.6017 21.9333 54.9602 22.6515L57.3651 28.1485C57.7715 27.9707 58.9641 27.728 61.3946 27.728V21.728ZM55.0335 22.6206C54.1089 22.9962 53.2056 23.6053 52.5479 24.5508C51.8833 25.5061 51.6266 26.5792 51.6266 27.608H57.6266C57.6266 27.5863 57.6292 27.6232 57.6072 27.7002C57.5841 27.7811 57.5413 27.8795 57.4733 27.9772C57.3276 28.1867 57.1924 28.2198 57.2918 28.1794L55.0335 22.6206ZM51.6266 27.608C51.6266 29.2635 52.2243 30.8086 53.4754 31.9939L57.6019 27.6381C57.5916 27.6284 57.5944 27.6293 57.603 27.6417C57.607 27.6475 57.6115 27.6546 57.616 27.6629C57.6205 27.6711 57.6243 27.6792 57.6274 27.6867C57.634 27.7027 57.6345 27.709 57.6329 27.7006C57.6312 27.6915 57.6266 27.6622 57.6266 27.608H51.6266ZM53.5317 32.0459C54.9 33.2774 56.6291 33.68 58.2746 33.68V27.68C57.5521 27.68 57.4572 27.5066 57.5455 27.5861L53.5317 32.0459ZM78.855 42.632L76.2283 44.0812L76.2365 44.0962L76.2449 44.111L78.855 42.632ZM78.951 39.368L81.6749 40.6252L81.6813 40.6112L81.6876 40.5972L78.951 39.368ZM81.495 33.704L84.2316 34.9332L84.7755 33.7223L84.2452 32.5054L81.495 33.704ZM73.671 15.752L70.8955 16.8907L70.9078 16.9208L70.9208 16.9506L73.671 15.752ZM73.671 12.488L71.0609 11.009L71.0525 11.0238L71.0443 11.0388L73.671 12.488ZM78.951 11.672L77.0592 14.0003L77.138 14.0644L77.221 14.1229L78.951 11.672ZM80.439 13.928L83.2318 12.8324L83.2281 12.8231L83.2244 12.8138L80.439 13.928ZM85.335 26.408L82.5422 27.5036L85.2868 34.4995L88.1145 27.5368L85.335 26.408ZM90.423 13.88L87.649 12.7377L87.6462 12.7444L87.6435 12.7512L90.423 13.88ZM91.911 11.672L93.6411 14.1229L93.6543 14.1135L93.6675 14.104L91.911 11.672ZM96.759 12.488L94.0757 13.8296L94.1029 13.884L94.1323 13.9372L96.759 12.488ZM96.711 15.704L93.9725 14.4789L93.9692 14.4863L93.966 14.4937L96.711 15.704ZM85.431 41.288L88.1758 42.4989L88.176 42.4983L85.431 41.288ZM83.799 43.496L82.197 40.9595L82.1657 40.9793L82.1349 40.9999L83.799 43.496ZM81.591 41.072C81.3221 41.072 81.2774 41.0221 81.3442 41.0572C81.3764 41.0742 81.4118 41.0995 81.4416 41.129C81.4703 41.1574 81.4756 41.1715 81.4651 41.153L76.2449 44.111C77.4164 46.1783 79.4377 47.072 81.591 47.072V41.072ZM81.4817 41.1828C81.4816 41.1824 81.4873 41.1937 81.4914 41.2111C81.4955 41.2281 81.4931 41.2301 81.4937 41.2082C81.4951 41.1596 81.5134 40.975 81.6749 40.6252L76.2271 38.1108C75.3818 39.9424 75.1232 42.0784 76.2283 44.0812L81.4817 41.1828ZM81.6876 40.5972L84.2316 34.9332L78.7584 32.4748L76.2144 38.1388L81.6876 40.5972ZM84.2452 32.5054L76.4212 14.5534L70.9208 16.9506L78.7448 34.9026L84.2452 32.5054ZM76.4465 14.6133C76.3043 14.2668 76.287 14.072 76.287 14C76.287 13.9488 76.2933 13.9453 76.2977 13.9372L71.0443 11.0388C69.9777 12.9719 70.141 15.0516 70.8955 16.8907L76.4465 14.6133ZM76.2811 13.967C76.2585 14.0068 76.2216 14.0552 76.1738 14.0978C76.1276 14.139 76.0978 14.1511 76.109 14.1461C76.1465 14.1293 76.3653 14.048 76.887 14.048V8.048C74.7444 8.048 72.3583 8.71954 71.0609 11.009L76.2811 13.967ZM76.887 14.048C77.0823 14.048 77.1705 14.0719 77.1828 14.0756C77.1878 14.0771 77.175 14.0737 77.1499 14.0606C77.1244 14.0474 77.0927 14.0275 77.0592 14.0003L80.8428 9.34365C79.6499 8.37442 78.2246 8.048 76.887 8.048V14.048ZM77.221 14.1229C77.1003 14.0377 77.1165 14.0088 77.2267 14.1758C77.3328 14.3367 77.4813 14.6114 77.6536 15.0422L83.2244 12.8138C82.7121 11.5329 81.947 10.1147 80.681 9.22109L77.221 14.1229ZM77.6462 15.0236L82.5422 27.5036L88.1278 25.3124L83.2318 12.8324L77.6462 15.0236ZM88.1145 27.5368L93.2025 15.0088L87.6435 12.7512L82.5555 25.2792L88.1145 27.5368ZM93.197 15.0222C93.3672 14.609 93.5137 14.3445 93.6188 14.1886C93.7271 14.0279 93.7473 14.0479 93.6411 14.1229L90.181 9.22109C88.9364 10.0996 88.1688 11.4753 87.649 12.7377L93.197 15.0222ZM93.6675 14.104C93.5801 14.1671 93.6677 14.048 94.215 14.048V8.048C92.8423 8.048 91.3939 8.34487 90.1545 9.23996L93.6675 14.104ZM94.215 14.048C94.4318 14.048 94.4107 14.0898 94.2852 14.0188C94.2248 13.9846 94.1687 13.9395 94.1246 13.8918C94.0823 13.8459 94.0698 13.8177 94.0757 13.8296L99.4423 11.1464C98.9638 10.1893 98.2362 9.36064 97.2408 8.79723C96.2673 8.24619 95.2142 8.048 94.215 8.048V14.048ZM94.1323 13.9372C94.1376 13.9469 94.1349 13.9441 94.1322 13.9331C94.1295 13.9223 94.1316 13.9231 94.1313 13.9432C94.1307 13.9862 94.1174 14.1552 93.9725 14.4789L99.4495 16.9291C100.269 15.0978 100.468 13.0003 99.3857 11.0388L94.1323 13.9372ZM93.966 14.4937L82.686 40.0777L88.176 42.4983L99.456 16.9143L93.966 14.4937ZM82.6862 40.0771C82.5106 40.4753 82.3587 40.7264 82.2505 40.8728C82.1419 41.0197 82.1137 41.0122 82.197 40.9595L85.401 46.0325C86.7455 45.1833 87.597 43.8107 88.1758 42.4989L82.6862 40.0771ZM82.1349 40.9999C82.178 40.9711 82.0673 41.072 81.591 41.072V47.072C82.9067 47.072 84.268 46.7889 85.4631 45.9921L82.1349 40.9999ZM121.263 14.888H118.263V25.3484L123.807 16.478L121.263 14.888ZM124.479 11.96L125.821 14.6433L124.479 11.96ZM135.231 13.4L132.937 15.3338L132.947 15.345L132.956 15.3561L135.231 13.4ZM130.959 34.472L128.784 36.5382L128.81 36.5661L128.838 36.5933L130.959 34.472ZM129.135 17.672L126.822 19.5826L126.843 19.608L126.865 19.6329L129.135 17.672ZM122.751 18.008L120.594 15.9229L120.576 15.9418L120.558 15.961L122.751 18.008ZM117.807 32.432C117.063 32.432 117.055 32.247 117.206 32.4006C117.351 32.5469 117.159 32.5154 117.159 31.736H111.159C111.159 33.4206 111.575 35.2371 112.936 36.6154C114.303 38.001 116.119 38.432 117.807 38.432V32.432ZM117.159 31.736V14.696H111.159V31.736H117.159ZM117.159 14.696C117.159 13.9227 117.348 13.8974 117.196 14.0528C117.13 14.1209 117.082 14.1301 117.129 14.1143C117.19 14.0932 117.367 14.048 117.711 14.048V8.048C116.044 8.048 114.247 8.48085 112.898 9.86715C111.562 11.2386 111.159 13.0373 111.159 14.696H117.159ZM117.711 14.048C118.055 14.048 118.232 14.0932 118.293 14.1143C118.34 14.1301 118.292 14.1209 118.226 14.0528C118.074 13.8974 118.263 13.9227 118.263 14.696H124.263C124.263 13.0373 123.86 11.2386 122.524 9.86715C121.175 8.48085 119.378 8.048 117.711 8.048V14.048ZM118.263 14.696V14.888H124.263V14.696H118.263ZM123.807 16.478C124.316 15.6639 124.973 15.0672 125.821 14.6433L123.137 9.27672C121.297 10.1968 119.81 11.5521 118.719 13.298L123.807 16.478ZM125.821 14.6433C126.705 14.2011 127.742 13.952 128.991 13.952V7.952C126.912 7.952 124.941 8.37489 123.137 9.27672L125.821 14.6433ZM128.991 13.952C131.179 13.952 132.294 14.5708 132.937 15.3338L137.525 11.4662C135.416 8.96519 132.371 7.952 128.991 7.952V13.952ZM132.956 15.3561C133.656 16.1699 134.295 17.7966 134.295 20.84H140.295C140.295 17.1634 139.558 13.8301 137.506 11.4439L132.956 15.3561ZM134.295 20.84V31.736H140.295V20.84H134.295ZM134.295 31.736C134.295 32.5154 134.103 32.5469 134.248 32.4006C134.399 32.247 134.391 32.432 133.647 32.432V38.432C135.335 38.432 137.151 38.001 138.518 36.6154C139.879 35.2371 140.295 33.4206 140.295 31.736H134.295ZM133.647 32.432C133.345 32.432 133.184 32.3896 133.12 32.3668C133.089 32.3557 133.077 32.348 133.077 32.348C133.077 32.3477 133.077 32.3481 133.079 32.3492C133.08 32.3503 133.081 32.3509 133.08 32.3507L128.838 36.5933C130.183 37.9388 131.927 38.432 133.647 38.432V32.432ZM133.134 32.4058C133.159 32.4322 133.147 32.4358 133.121 32.3593C133.091 32.2706 133.047 32.0773 133.047 31.736H127.047C127.047 33.4206 127.487 35.1725 128.784 36.5382L133.134 32.4058ZM133.047 31.736V21.176H127.047V31.736H133.047ZM133.047 21.176C133.047 19.3158 132.728 17.2428 131.405 15.7111L126.865 19.6329C126.792 19.5493 126.846 19.565 126.916 19.8316C126.986 20.0997 127.047 20.5319 127.047 21.176H133.047ZM131.448 15.7614C130.136 14.1727 128.291 13.568 126.447 13.568V19.568C126.733 19.568 126.852 19.6126 126.867 19.6191C126.874 19.622 126.866 19.6191 126.85 19.6074C126.834 19.5956 126.824 19.5849 126.822 19.5826L131.448 15.7614ZM126.447 13.568C124.231 13.568 122.174 14.2888 120.594 15.9229L124.908 20.0931C125.184 19.8072 125.591 19.568 126.447 19.568V13.568ZM120.558 15.961C119.035 17.5925 118.407 19.6631 118.407 21.848H124.407C124.407 20.8329 124.675 20.3435 124.944 20.055L120.558 15.961ZM118.407 21.848V31.736H124.407V21.848H118.407ZM118.407 31.736C118.407 32.5251 118.214 32.5622 118.358 32.4148C118.42 32.3508 118.463 32.3447 118.411 32.3626C118.343 32.3858 118.159 32.432 117.807 32.432V38.432C119.49 38.432 121.298 37.9953 122.656 36.6012C124 35.2218 124.407 33.4109 124.407 31.736H118.407ZM147.41 34.04L145.961 36.6667L145.987 36.6815L146.014 36.6957L147.41 34.04ZM143.09 29.768L140.463 31.2172L140.468 31.2269L140.474 31.2366L143.09 29.768ZM143.09 16.712L145.706 18.1806L145.711 18.1709L145.717 18.1612L143.09 16.712ZM147.41 12.44L146.014 9.78427L146.005 9.7892L145.996 9.7942L147.41 12.44ZM160.61 12.44L159.196 15.0858L159.205 15.0908L159.214 15.0957L160.61 12.44ZM164.978 16.712L162.351 18.1612L162.366 18.1883L162.382 18.2151L164.978 16.712ZM164.978 29.768L162.37 28.2844L162.366 28.2919L162.362 28.2994L164.978 29.768ZM160.61 34.04L162.024 36.6858L162.032 36.6815L162.04 36.6771L160.61 34.04ZM157.778 28.424L155.532 26.4349L155.516 26.4531L155.5 26.4716L157.778 28.424ZM157.778 18.056L155.5 20.0084L155.53 20.0433L155.561 20.0773L157.778 18.056ZM150.29 18.056L152.539 20.0409L152.554 20.0247L152.568 20.0084L150.29 18.056ZM150.29 28.424L152.568 26.4716L150.29 28.424ZM154.034 32.528C151.902 32.528 150.19 32.1118 148.805 31.3843L146.014 36.6957C148.406 37.9522 151.11 38.528 154.034 38.528V32.528ZM148.859 31.4133C147.485 30.6553 146.452 29.6294 145.706 28.2994L140.474 31.2366C141.775 33.5546 143.622 35.3767 145.961 36.6667L148.859 31.4133ZM145.717 28.3188C144.981 26.9848 144.554 25.3107 144.554 23.192H138.554C138.554 26.1293 139.151 28.8392 140.463 31.2172L145.717 28.3188ZM144.554 23.192C144.554 21.1109 144.978 19.4767 145.706 18.1806L140.474 15.2434C139.154 17.5953 138.554 20.2811 138.554 23.192H144.554ZM145.717 18.1612C146.463 16.809 147.483 15.8024 148.824 15.0858L145.996 9.7942C143.624 11.0616 141.765 12.903 140.463 15.2628L145.717 18.1612ZM148.805 15.0957C150.19 14.3682 151.902 13.952 154.034 13.952V7.952C151.11 7.952 148.406 8.52776 146.014 9.78427L148.805 15.0957ZM154.034 13.952C156.167 13.952 157.854 14.3688 159.196 15.0858L162.024 9.7942C159.653 8.52719 156.956 7.952 154.034 7.952V13.952ZM159.214 15.0957C160.586 15.8165 161.613 16.8226 162.351 18.1612L167.605 15.2628C166.295 12.8894 164.41 11.0475 162.005 9.78427L159.214 15.0957ZM162.382 18.2151C163.128 19.5045 163.562 21.126 163.562 23.192H169.562C169.562 20.266 168.94 17.5675 167.574 15.2089L162.382 18.2151ZM163.562 23.192C163.562 25.2958 163.125 26.9573 162.37 28.2844L167.585 31.2516C168.942 28.8667 169.562 26.1442 169.562 23.192H163.562ZM162.362 28.2994C161.623 29.6161 160.584 30.6411 159.18 31.4029L162.04 36.6771C164.412 35.3909 166.285 33.5679 167.594 31.2366L162.362 28.2994ZM159.196 31.3942C157.854 32.1112 156.167 32.528 154.034 32.528V38.528C156.956 38.528 159.653 37.9528 162.024 36.6858L159.196 31.3942ZM154.034 33.104C156.404 33.104 158.499 32.1921 160.056 30.3764L155.5 26.4716C155.136 26.8959 154.735 27.104 154.034 27.104V33.104ZM160.024 30.4131C161.716 28.5022 162.266 25.8872 162.266 23.192H156.266C156.266 25.2328 155.824 26.1058 155.532 26.4349L160.024 30.4131ZM162.266 23.192C162.266 20.5261 161.715 17.9214 159.995 16.0347L155.561 20.0773C155.825 20.3666 156.266 21.1858 156.266 23.192H162.266ZM160.056 16.1036C158.499 14.2879 156.404 13.376 154.034 13.376V19.376C154.735 19.376 155.136 19.5841 155.5 20.0084L160.056 16.1036ZM154.034 13.376C151.663 13.376 149.568 14.2879 148.012 16.1036L152.568 20.0084C152.931 19.5841 153.332 19.376 154.034 19.376V13.376ZM148.04 16.0711C146.377 17.9566 145.85 20.5453 145.85 23.192H151.85C151.85 21.1666 152.283 20.3314 152.539 20.0409L148.04 16.0711ZM145.85 23.192C145.85 25.8686 146.376 28.4675 148.012 30.3764L152.568 26.4716C152.284 26.1405 151.85 25.2514 151.85 23.192H145.85ZM148.012 30.3764C149.568 32.1921 151.663 33.104 154.034 33.104V27.104C153.332 27.104 152.931 26.8959 152.568 26.4716L148.012 30.3764ZM176.025 32.504L178.817 31.4056L178.812 31.3929L178.807 31.3802L176.025 32.504ZM169.257 15.752L166.462 16.8426L166.469 16.8592L166.475 16.8758L169.257 15.752ZM169.257 12.44L166.669 10.9228L166.661 10.9372L166.652 10.9516L169.257 12.44ZM174.297 11.672L172.405 14.0003L172.484 14.0644L172.567 14.1229L174.297 11.672ZM175.737 13.928L172.925 14.9726L172.926 14.9755L175.737 13.928ZM180.441 26.552L177.63 27.5995L180.439 35.1381L183.252 27.6009L180.441 26.552ZM185.385 13.304L188.196 14.3529L188.201 14.3387L188.206 14.3244L185.385 13.304ZM191.577 13.304L194.396 12.2772L194.387 12.254L194.379 12.2311L191.577 13.304ZM196.473 26.744L193.654 27.7708L196.455 35.459L199.287 27.7826L196.473 26.744ZM201.273 13.736L198.464 12.6826L198.461 12.69L198.459 12.6974L201.273 13.736ZM202.713 11.624L201.111 9.08753L201.08 9.10731L201.049 9.12785L202.713 11.624ZM207.273 15.752L204.508 14.5878L204.498 14.6114L204.489 14.6351L207.273 15.752ZM200.553 32.504L197.769 31.3871L197.765 31.3963L197.761 31.4056L200.553 32.504ZM192.393 32.504L189.592 33.5776L189.596 33.59L189.601 33.6024L192.393 32.504ZM188.217 21.608L191.018 20.5344L188.191 13.1563L185.409 20.5519L188.217 21.608ZM184.137 32.456L181.329 31.3999L181.324 31.4126L184.137 32.456ZM180.105 32.432C179.649 32.432 179.459 32.3267 179.37 32.2627C179.265 32.1873 179.043 31.98 178.817 31.4056L173.233 33.6024C173.775 34.98 174.617 36.2367 175.872 37.1373C177.143 38.0493 178.609 38.432 180.105 38.432V32.432ZM178.807 31.3802L172.039 14.6282L166.475 16.8758L173.243 33.6278L178.807 31.3802ZM172.052 14.6614C171.896 14.2613 171.873 14.0317 171.873 13.94C171.873 13.8724 171.883 13.8915 171.862 13.9284L166.652 10.9516C165.541 12.8954 165.748 15.0132 166.462 16.8426L172.052 14.6614ZM171.845 13.9572C171.829 13.984 171.799 14.0247 171.755 14.0643C171.735 14.0827 171.716 14.0968 171.7 14.1068C171.693 14.1117 171.686 14.1153 171.682 14.1177C171.68 14.1189 171.678 14.1197 171.677 14.1203C171.676 14.1209 171.675 14.1211 171.675 14.1211C171.68 14.1192 171.843 14.048 172.281 14.048V8.048C170.185 8.048 167.942 8.75067 166.669 10.9228L171.845 13.9572ZM172.281 14.048C172.45 14.048 172.52 14.0693 172.522 14.0699C172.522 14.0699 172.508 14.0655 172.484 14.053C172.46 14.0403 172.433 14.0226 172.405 14.0003L176.189 9.34365C175.015 8.38983 173.618 8.048 172.281 8.048V14.048ZM172.567 14.1229C172.433 14.0282 172.439 13.9851 172.536 14.1381C172.631 14.2862 172.768 14.5494 172.925 14.9726L178.549 12.8834C178.069 11.5892 177.323 10.1357 176.027 9.22109L172.567 14.1229ZM172.926 14.9755L177.63 27.5995L183.252 25.5045L178.548 12.8805L172.926 14.9755ZM183.252 27.6009L188.196 14.3529L182.574 12.2551L177.63 25.5031L183.252 27.6009ZM188.206 14.3244C188.268 14.1544 188.321 14.0654 188.346 14.0292C188.369 13.9967 188.368 14.007 188.337 14.03C188.323 14.0403 188.308 14.0492 188.294 14.056C188.28 14.0627 188.273 14.0649 188.274 14.0645C188.277 14.0637 188.331 14.048 188.457 14.048V8.048C187.187 8.048 185.902 8.37407 184.785 9.19398C183.683 10.0032 182.986 11.1172 182.564 12.2836L188.206 14.3244ZM188.457 14.048C188.583 14.048 188.64 14.0636 188.648 14.0659C188.651 14.067 188.631 14.0606 188.607 14.0431C188.547 13.9997 188.643 14.0309 188.775 14.3769L194.379 12.2311C193.935 11.0731 193.223 9.97625 192.123 9.18095C191.008 8.37451 189.728 8.048 188.457 8.048V14.048ZM188.758 14.3308L193.654 27.7708L199.292 25.7172L194.396 12.2772L188.758 14.3308ZM199.287 27.7826L204.087 14.7746L198.459 12.6974L193.659 25.7054L199.287 27.7826ZM204.082 14.7894C204.212 14.4421 204.327 14.2371 204.4 14.13C204.471 14.0253 204.475 14.0551 204.377 14.1201L201.049 9.12785C199.725 10.0105 198.95 11.386 198.464 12.6826L204.082 14.7894ZM204.315 14.1605C204.432 14.0867 204.546 14.048 204.729 14.048V8.048C203.44 8.048 202.21 8.3933 201.111 9.08753L204.315 14.1605ZM204.729 14.048C205.09 14.048 205.131 14.1137 205.016 14.0524C204.953 14.0186 204.873 13.9613 204.797 13.8785C204.723 13.7964 204.682 13.7218 204.664 13.6808L210.17 11.2952C209.701 10.2142 208.913 9.33296 207.85 8.76356C206.839 8.22225 205.744 8.048 204.729 8.048V14.048ZM204.664 13.6808C204.675 13.7045 204.79 13.9174 204.508 14.5878L210.038 16.9162C210.78 15.1546 210.991 13.1915 210.17 11.2952L204.664 13.6808ZM204.489 14.6351L197.769 31.3871L203.337 33.6209L210.057 16.8689L204.489 14.6351ZM197.761 31.4056C197.535 31.98 197.313 32.1873 197.208 32.2627C197.119 32.3267 196.929 32.432 196.473 32.432V38.432C197.969 38.432 199.435 38.0493 200.706 37.1373C201.961 36.2367 202.803 34.98 203.345 33.6024L197.761 31.4056ZM196.473 32.432C196.017 32.432 195.827 32.3267 195.738 32.2627C195.633 32.1873 195.411 31.98 195.185 31.4056L189.601 33.6024C190.143 34.98 190.985 36.2367 192.24 37.1373C193.511 38.0493 194.977 38.432 196.473 38.432V32.432ZM195.194 31.4304L191.018 20.5344L185.416 22.6816L189.592 33.5776L195.194 31.4304ZM185.409 20.5519L181.329 31.3999L186.945 33.5121L191.025 22.6641L185.409 20.5519ZM181.324 31.4126C181.105 32.0026 180.887 32.2068 180.795 32.2743C180.723 32.328 180.552 32.432 180.105 32.432V38.432C181.61 38.432 183.087 38.04 184.359 37.1017C185.611 36.1772 186.433 34.8934 186.95 33.4994L181.324 31.4126Z" fill="#5B3511"/>
</g>
<defs>
<filter id="filter0_d_232_42" x="0.439255" y="0.727997" width="208.602" height="45.344" filterUnits="userSpaceOnUse" color-interpolation-filters="sRGB">
<feFlood flood-opacity="0" result="BackgroundImageFix"/>
<feColorMatrix in="SourceAlpha" type="matrix" values="0 0 0 0 0 0 0 0 0 0 0 0 0 0 0 0 0 0 127 0" result="hardAlpha"/>
<feOffset dy="1"/>
<feGaussianBlur stdDeviation="0.5"/>
<feComposite in2="hardAlpha" operator="out"/>
<feColorMatrix type="matrix" values="0 0 0 0 0 0 0 0 0 0 0 0 0 0 0 0 0 0 0.25 0"/>
<feBlend mode="normal" in2="BackgroundImageFix" result="effect1_dropShadow_232_42"/>
<feBlend mode="normal" in="SourceGraphic" in2="effect1_dropShadow_232_42" result="shape"/>
</filter>
<linearGradient id="paint0_linear_232_42" x1="103.5" y1="-13" x2="103.5" y2="52" gradientUnits="userSpaceOnUse">
<stop stop-color="#FDE092"/>
<stop offset="1" stop-color="#C18B2C"/>
</linearGradient>
</defs>
</svg>
