<svg width="214" height="48" viewBox="0 0 214 48" fill="none" xmlns="http://www.w3.org/2000/svg">
<g filter="url(#filter0_d_42_92)">
<path d="M5.29263 35.432C4.07663 35.432 3.14863 35.096 2.50863 34.424C1.86863 33.752 1.54863 32.808 1.54863 31.592V4.952C1.54863 2.424 2.81263 1.16 5.34063 1.16H17.0046C20.7806 1.16 23.6926 2.072 25.7406 3.896C27.7886 5.72 28.8126 8.264 28.8126 11.528C28.8126 14.056 28.1566 16.168 26.8446 17.864C25.5646 19.528 23.7246 20.664 21.3246 21.272C23.0206 21.784 24.4126 23.016 25.5006 24.968L28.4766 30.488C29.1486 31.704 29.2766 32.84 28.8606 33.896C28.4446 34.92 27.4366 35.432 25.8366 35.432C24.7806 35.432 23.9166 35.208 23.2446 34.76C22.5726 34.312 21.9966 33.624 21.5166 32.696L16.9086 24.2C16.4286 23.304 15.8366 22.696 15.1326 22.376C14.4286 22.056 13.5966 21.896 12.6366 21.896H8.98863V31.592C8.98863 32.808 8.66863 33.752 8.02863 34.424C7.42063 35.096 6.50863 35.432 5.29263 35.432ZM8.98863 16.52H15.6606C19.6606 16.52 21.6606 14.92 21.6606 11.72C21.6606 8.552 19.6606 6.968 15.6606 6.968H8.98863V16.52ZM45.0182 35.528C42.4903 35.528 40.2823 35.032 38.3943 34.04C36.5383 33.016 35.0983 31.592 34.0742 29.768C33.0503 27.912 32.5383 25.72 32.5383 23.192C32.5383 20.696 33.0503 18.536 34.0742 16.712C35.0983 14.856 36.5383 13.432 38.3943 12.44C40.2823 11.448 42.4903 10.952 45.0182 10.952C47.5463 10.952 49.7383 11.448 51.5943 12.44C53.4823 13.432 54.9383 14.856 55.9623 16.712C57.0183 18.536 57.5463 20.696 57.5463 23.192C57.5463 25.72 57.0183 27.912 55.9623 29.768C54.9383 31.592 53.4823 33.016 51.5943 34.04C49.7383 35.032 47.5463 35.528 45.0182 35.528ZM45.0182 30.104C46.5543 30.104 47.8023 29.544 48.7623 28.424C49.7543 27.304 50.2503 25.56 50.2503 23.192C50.2503 20.856 49.7543 19.144 48.7623 18.056C47.8023 16.936 46.5543 16.376 45.0182 16.376C43.4823 16.376 42.2343 16.936 41.2743 18.056C40.3143 19.144 39.8343 20.856 39.8343 23.192C39.8343 25.56 40.3143 27.304 41.2743 28.424C42.2343 29.544 43.4823 30.104 45.0182 30.104ZM69.9239 35.528C68.1639 35.528 66.6119 35.192 65.2679 34.52C63.9239 33.848 62.8519 32.936 62.0519 31.784C61.2839 30.632 60.8999 29.336 60.8999 27.896C60.8999 26.2 61.3479 24.84 62.2439 23.816C63.1399 22.792 64.5959 22.072 66.6119 21.656C68.6279 21.208 71.2999 20.984 74.6279 20.984H76.3559V20.168C76.3559 18.76 76.0359 17.768 75.3959 17.192C74.7559 16.584 73.6679 16.28 72.1319 16.28C71.2679 16.28 70.3239 16.392 69.2999 16.616C68.2759 16.808 67.1719 17.144 65.9879 17.624C65.0919 18.008 64.3399 18.04 63.7319 17.72C63.1239 17.368 62.7239 16.856 62.5319 16.184C62.3399 15.48 62.3879 14.776 62.6759 14.072C62.9959 13.368 63.6039 12.856 64.4999 12.536C66.0039 11.96 67.4119 11.56 68.7239 11.336C70.0679 11.08 71.2999 10.952 72.4199 10.952C76.0679 10.952 78.7879 11.784 80.5799 13.448C82.3719 15.08 83.2679 17.624 83.2679 21.08V31.736C83.2679 34.2 82.1479 35.432 79.9079 35.432C77.6359 35.432 76.4999 34.2 76.4999 31.736V31.448C76.0199 32.696 75.2039 33.688 74.0519 34.424C72.9319 35.16 71.5559 35.528 69.9239 35.528ZM71.5559 30.68C72.8999 30.68 74.0359 30.216 74.9639 29.288C75.8919 28.36 76.3559 27.16 76.3559 25.688V24.728H74.6759C72.2119 24.728 70.4679 24.952 69.4439 25.4C68.4199 25.816 67.9079 26.552 67.9079 27.608C67.9079 28.504 68.2119 29.24 68.8199 29.816C69.4599 30.392 70.3719 30.68 71.5559 30.68ZM97.8426 35.528C95.7946 35.528 93.9866 35.032 92.4186 34.04C90.8826 33.016 89.6826 31.592 88.8186 29.768C87.9546 27.912 87.5226 25.72 87.5226 23.192C87.5226 20.664 87.9546 18.488 88.8186 16.664C89.6826 14.84 90.8826 13.432 92.4186 12.44C93.9866 11.448 95.7946 10.952 97.8426 10.952C99.4106 10.952 100.851 11.288 102.163 11.96C103.475 12.632 104.467 13.528 105.139 14.648V4.424C105.139 1.96 106.339 0.727998 108.739 0.727998C111.171 0.727998 112.387 1.96 112.387 4.424V31.736C112.387 34.2 111.187 35.432 108.787 35.432C106.387 35.432 105.187 34.2 105.187 31.736V31.592C104.547 32.808 103.555 33.768 102.211 34.472C100.899 35.176 99.4426 35.528 97.8426 35.528ZM100.003 30.104C101.539 30.104 102.787 29.544 103.747 28.424C104.739 27.304 105.235 25.56 105.235 23.192C105.235 20.856 104.739 19.144 103.747 18.056C102.787 16.936 101.539 16.376 100.003 16.376C98.4666 16.376 97.2186 16.936 96.2586 18.056C95.2986 19.144 94.8186 20.856 94.8186 23.192C94.8186 25.56 95.2986 27.304 96.2586 28.424C97.2186 29.544 98.4666 30.104 100.003 30.104ZM121.716 35.432C119.284 35.432 118.068 34.2 118.068 31.736V14.696C118.068 12.264 119.252 11.048 121.62 11.048C123.988 11.048 125.172 12.264 125.172 14.696V14.84C125.876 13.624 126.836 12.68 128.052 12.008C129.3 11.304 130.74 10.952 132.372 10.952C134.036 10.952 135.444 11.32 136.596 12.056C137.78 12.792 138.676 13.912 139.284 15.416C140.02 14.008 141.076 12.92 142.452 12.152C143.86 11.352 145.412 10.952 147.108 10.952C149.796 10.952 151.796 11.768 153.108 13.4C154.42 15 155.076 17.48 155.076 20.84V31.736C155.076 32.92 154.756 33.832 154.116 34.472C153.508 35.112 152.628 35.432 151.476 35.432C149.044 35.432 147.828 34.2 147.828 31.736V21.08C147.828 19.512 147.572 18.376 147.06 17.672C146.58 16.936 145.748 16.568 144.564 16.568C143.188 16.568 142.116 17.048 141.348 18.008C140.58 18.968 140.196 20.328 140.196 22.088V31.736C140.196 34.2 138.996 35.432 136.596 35.432C135.444 35.432 134.548 35.112 133.908 34.472C133.268 33.832 132.948 32.92 132.948 31.736V21.08C132.948 19.512 132.692 18.376 132.18 17.672C131.668 16.936 130.836 16.568 129.684 16.568C128.308 16.568 127.236 17.048 126.468 18.008C125.7 18.968 125.316 20.328 125.316 22.088V31.736C125.316 34.2 124.116 35.432 121.716 35.432ZM168.596 35.528C166.836 35.528 165.284 35.192 163.94 34.52C162.596 33.848 161.524 32.936 160.724 31.784C159.956 30.632 159.572 29.336 159.572 27.896C159.572 26.2 160.02 24.84 160.916 23.816C161.812 22.792 163.268 22.072 165.284 21.656C167.3 21.208 169.972 20.984 173.3 20.984H175.028V20.168C175.028 18.76 174.708 17.768 174.068 17.192C173.428 16.584 172.34 16.28 170.804 16.28C169.94 16.28 168.996 16.392 167.972 16.616C166.948 16.808 165.844 17.144 164.66 17.624C163.764 18.008 163.012 18.04 162.404 17.72C161.796 17.368 161.396 16.856 161.204 16.184C161.012 15.48 161.06 14.776 161.348 14.072C161.668 13.368 162.276 12.856 163.172 12.536C164.676 11.96 166.084 11.56 167.396 11.336C168.74 11.08 169.972 10.952 171.092 10.952C174.74 10.952 177.46 11.784 179.252 13.448C181.044 15.08 181.94 17.624 181.94 21.08V31.736C181.94 34.2 180.82 35.432 178.58 35.432C176.308 35.432 175.172 34.2 175.172 31.736V31.448C174.692 32.696 173.876 33.688 172.724 34.424C171.604 35.16 170.228 35.528 168.596 35.528ZM170.228 30.68C171.572 30.68 172.708 30.216 173.636 29.288C174.564 28.36 175.028 27.16 175.028 25.688V24.728H173.348C170.884 24.728 169.14 24.952 168.116 25.4C167.092 25.816 166.58 26.552 166.58 27.608C166.58 28.504 166.884 29.24 167.492 29.816C168.132 30.392 169.044 30.68 170.228 30.68ZM190.995 44.072C188.563 44.072 187.347 42.84 187.347 40.376V14.696C187.347 12.264 188.531 11.048 190.898 11.048C193.299 11.048 194.499 12.264 194.499 14.696V14.84C195.171 13.656 196.163 12.712 197.475 12.008C198.787 11.304 200.259 10.952 201.891 10.952C203.939 10.952 205.731 11.448 207.267 12.44C208.835 13.432 210.051 14.84 210.915 16.664C211.779 18.488 212.211 20.664 212.211 23.192C212.211 25.72 211.779 27.912 210.915 29.768C210.051 31.592 208.835 33.016 207.267 34.04C205.731 35.032 203.939 35.528 201.891 35.528C200.323 35.528 198.883 35.192 197.571 34.52C196.291 33.848 195.299 32.952 194.595 31.832V40.376C194.595 42.84 193.395 44.072 190.995 44.072ZM199.731 30.104C201.267 30.104 202.515 29.544 203.475 28.424C204.435 27.304 204.915 25.56 204.915 23.192C204.915 20.856 204.435 19.144 203.475 18.056C202.515 16.936 201.267 16.376 199.731 16.376C198.163 16.376 196.899 16.936 195.939 18.056C194.979 19.144 194.499 20.856 194.499 23.192C194.499 25.56 194.979 27.304 195.939 28.424C196.899 29.544 198.163 30.104 199.731 30.104Z" fill="url(#paint0_linear_42_92)"/>
<path d="M2.50863 34.424L4.68104 32.355L2.50863 34.424ZM25.7406 3.896L23.7454 6.1363H23.7454L25.7406 3.896ZM26.8446 17.864L24.4717 16.0284L24.4668 16.0349L26.8446 17.864ZM21.3246 21.272L20.5879 18.3639L10.1066 21.0191L20.4576 24.144L21.3246 21.272ZM25.5006 24.968L28.1413 23.5443L28.1313 23.5258L28.1211 23.5074L25.5006 24.968ZM28.4766 30.488L25.836 31.9117L25.8434 31.9254L25.8509 31.9391L28.4766 30.488ZM28.8606 33.896L31.64 35.0251L31.646 35.0104L31.6519 34.9956L28.8606 33.896ZM23.2446 34.76L21.5805 37.2561L21.5805 37.2562L23.2446 34.76ZM21.5166 32.696L24.1813 31.3177L24.1678 31.2916L24.1537 31.2657L21.5166 32.696ZM16.9086 24.2L14.2642 25.6167L14.2678 25.6235L14.2715 25.6303L16.9086 24.2ZM15.1326 22.376L13.8912 25.1071L13.8912 25.1071L15.1326 22.376ZM8.98863 21.896V18.896H5.98863V21.896H8.98863ZM8.02863 34.424L5.85621 32.355L5.82976 32.3828L5.80402 32.4113L8.02863 34.424ZM8.98863 16.52H5.98863V19.52H8.98863V16.52ZM8.98863 6.968V3.968H5.98863V6.968H8.98863ZM5.29263 32.432C4.95496 32.432 4.77646 32.3847 4.70595 32.3592C4.65024 32.339 4.66049 32.3335 4.68104 32.355L0.336212 36.493C1.70336 37.9285 3.5225 38.432 5.29263 38.432V32.432ZM4.68104 32.355C4.67833 32.3522 4.67429 32.3477 4.66784 32.3368C4.66104 32.3253 4.64664 32.2985 4.62982 32.2489C4.59519 32.1467 4.54862 31.9419 4.54862 31.592H-1.45137C-1.45137 33.3317 -0.983764 35.107 0.336212 36.493L4.68104 32.355ZM4.54862 31.592V4.952H-1.45137V31.592H4.54862ZM4.54862 4.952C4.54862 4.15043 4.74698 4.10028 4.61795 4.22932C4.48891 4.35836 4.53906 4.16 5.34063 4.16V-1.84C3.61419 -1.84 1.76834 -1.40636 0.375305 -0.0133228C-1.01773 1.37972 -1.45137 3.22556 -1.45137 4.952H4.54862ZM5.34063 4.16H17.0046V-1.84H5.34063V4.16ZM17.0046 4.16C20.3232 4.16 22.4241 4.95958 23.7454 6.1363L27.7359 1.6557C24.9611 -0.815581 21.238 -1.84 17.0046 -1.84V4.16ZM23.7454 6.1363C25.0324 7.28252 25.8126 8.94192 25.8126 11.528H31.8126C31.8126 7.58607 30.5449 4.15747 27.7359 1.6557L23.7454 6.1363ZM25.8126 11.528C25.8126 13.515 25.3076 14.9479 24.4718 16.0284L29.2175 19.6996C31.0056 17.3881 31.8126 14.597 31.8126 11.528H25.8126ZM24.4668 16.0349C23.6678 17.0736 22.457 17.8904 20.5879 18.3639L22.0614 24.1801C24.9922 23.4376 27.4615 21.9824 29.2225 19.6931L24.4668 16.0349ZM20.4576 24.144C21.2262 24.376 22.0675 24.9705 22.8802 26.4286L28.1211 23.5074C26.7578 21.0615 24.8151 19.192 22.1916 18.4L20.4576 24.144ZM22.86 26.3917L25.836 31.9117L31.1173 29.0643L28.1413 23.5443L22.86 26.3917ZM25.8509 31.9391C26.1966 32.5647 26.0846 32.7579 26.0694 32.7964L31.6519 34.9956C32.4687 32.9221 32.1006 30.8433 31.1023 29.0369L25.8509 31.9391ZM26.0812 32.7669C26.1061 32.7057 26.1556 32.6169 26.2376 32.5284C26.3189 32.4407 26.3955 32.3928 26.434 32.3733C26.4673 32.3564 26.4485 32.3724 26.3477 32.3922C26.2459 32.4122 26.0805 32.432 25.8366 32.432V38.432C28.0147 38.432 30.563 37.6763 31.64 35.0251L26.0812 32.7669ZM25.8366 32.432C25.1932 32.432 24.9571 32.2961 24.9087 32.2638L21.5805 37.2562C22.8762 38.1199 24.3681 38.432 25.8366 38.432V32.432ZM24.9087 32.2639C24.7659 32.1686 24.4945 31.9234 24.1813 31.3177L18.852 34.0743C19.4987 35.3246 20.3794 36.4554 21.5805 37.2561L24.9087 32.2639ZM24.1537 31.2657L19.5457 22.7697L14.2715 25.6303L18.8795 34.1263L24.1537 31.2657ZM19.5531 22.7833C18.86 21.4896 17.8417 20.312 16.374 19.6449L13.8912 25.1071C13.8315 25.08 13.9973 25.1184 14.2642 25.6167L19.5531 22.7833ZM16.374 19.6449C15.1979 19.1103 13.9243 18.896 12.6366 18.896V24.896C13.269 24.896 13.6593 25.0017 13.8912 25.1071L16.374 19.6449ZM12.6366 18.896H8.98863V24.896H12.6366V18.896ZM5.98863 21.896V31.592H11.9886V21.896H5.98863ZM5.98863 31.592C5.98863 31.9419 5.94206 32.1467 5.90743 32.2489C5.89061 32.2985 5.87621 32.3253 5.86941 32.3368C5.86296 32.3477 5.85892 32.3522 5.85621 32.355L10.201 36.493C11.521 35.107 11.9886 33.3317 11.9886 31.592H5.98863ZM5.80402 32.4113C5.84858 32.362 5.88652 32.3521 5.85151 32.365C5.79921 32.3842 5.63205 32.432 5.29263 32.432V38.432C7.05283 38.432 8.90053 37.9318 10.2532 36.4367L5.80402 32.4113ZM8.98863 19.52H15.6606V13.52H8.98863V19.52ZM15.6606 19.52C17.9812 19.52 20.2767 19.069 22.0347 17.6626C23.9205 16.1539 24.6606 13.9821 24.6606 11.72H18.6606C18.6606 12.6579 18.4007 12.8861 18.2865 12.9774C18.0445 13.171 17.3401 13.52 15.6606 13.52V19.52ZM24.6606 11.72C24.6606 9.46337 23.9133 7.3012 22.0232 5.80424C20.2665 4.41293 17.9759 3.968 15.6606 3.968V9.968C17.3453 9.968 18.0547 10.3151 18.298 10.5078C18.4079 10.5948 18.6606 10.8086 18.6606 11.72H24.6606ZM15.6606 3.968H8.98863V9.968H15.6606V3.968ZM5.98863 6.968V16.52H11.9886V6.968H5.98863ZM38.3942 34.04L36.945 36.6667L36.9718 36.6815L36.9989 36.6957L38.3942 34.04ZM34.0742 29.768L31.4475 31.2172L31.4529 31.2269L31.4583 31.2366L34.0742 29.768ZM34.0742 16.712L36.6902 18.1806L36.6956 18.1709L36.701 18.1612L34.0742 16.712ZM38.3942 12.44L36.9989 9.78427L36.9895 9.7892L36.9801 9.7942L38.3942 12.44ZM51.5942 12.44L50.1801 15.0858L50.1895 15.0908L50.1989 15.0957L51.5942 12.44ZM55.9622 16.712L53.3355 18.1612L53.3505 18.1883L53.366 18.2151L55.9622 16.712ZM55.9622 29.768L53.3548 28.2844L53.3505 28.2919L53.3463 28.2994L55.9622 29.768ZM51.5942 34.04L53.0084 36.6858L53.0165 36.6815L53.0245 36.6771L51.5942 34.04ZM48.7622 28.424L46.5165 26.4349L46.5003 26.4531L46.4845 26.4716L48.7622 28.424ZM48.7622 18.056L46.4845 20.0084L46.5144 20.0433L46.5454 20.0773L48.7622 18.056ZM41.2743 18.056L43.5238 20.0409L43.538 20.0247L43.552 20.0084L41.2743 18.056ZM41.2743 28.424L43.552 26.4716L41.2743 28.424ZM45.0182 32.528C42.8866 32.528 41.1742 32.1118 39.7896 31.3843L36.9989 36.6957C39.3903 37.9522 42.0939 38.528 45.0182 38.528V32.528ZM39.8435 31.4133C38.4697 30.6553 37.4369 29.6294 36.6902 28.2994L31.4583 31.2366C32.7596 33.5546 34.6068 35.3767 36.945 36.6667L39.8435 31.4133ZM36.701 28.3188C35.965 26.9848 35.5382 25.3107 35.5382 23.192H29.5382C29.5382 26.1293 30.1355 28.8392 31.4475 31.2172L36.701 28.3188ZM35.5382 23.192C35.5382 21.1109 35.9626 19.4767 36.6902 18.1806L31.4583 15.2434C30.1379 17.5953 29.5382 20.2811 29.5382 23.192H35.5382ZM36.701 18.1612C37.4471 16.809 38.4676 15.8024 39.8084 15.0858L36.9801 9.7942C34.6089 11.0616 32.7494 12.903 31.4475 15.2628L36.701 18.1612ZM39.7896 15.0957C41.1742 14.3682 42.8866 13.952 45.0182 13.952V7.952C42.0939 7.952 39.3903 8.52776 36.9989 9.78427L39.7896 15.0957ZM45.0182 13.952C47.1516 13.952 48.8387 14.3688 50.1801 15.0858L53.0084 9.7942C50.6378 8.52719 47.9409 7.952 45.0182 7.952V13.952ZM50.1989 15.0957C51.5706 15.8165 52.5969 16.8226 53.3355 18.1612L58.589 15.2628C57.2796 12.8894 55.3939 11.0475 52.9896 9.78427L50.1989 15.0957ZM53.366 18.2151C54.1125 19.5045 54.5462 21.126 54.5462 23.192H60.5462C60.5462 20.266 59.924 17.5675 58.5585 15.2089L53.366 18.2151ZM54.5462 23.192C54.5462 25.2958 54.1099 26.9573 53.3548 28.2844L58.5697 31.2516C59.9266 28.8667 60.5462 26.1442 60.5462 23.192H54.5462ZM53.3463 28.2994C52.6071 29.6161 51.5685 30.6411 50.164 31.4029L53.0245 36.6771C55.396 35.3909 57.2694 33.5679 58.5782 31.2366L53.3463 28.2994ZM50.1801 31.3942C48.8387 32.1112 47.1516 32.528 45.0182 32.528V38.528C47.9409 38.528 50.6378 37.9528 53.0084 36.6858L50.1801 31.3942ZM45.0182 33.104C47.3887 33.104 49.4837 32.1921 51.04 30.3764L46.4845 26.4716C46.1208 26.8959 45.7198 27.104 45.0182 27.104V33.104ZM51.008 30.4131C52.7005 28.5022 53.2503 25.8872 53.2503 23.192H47.2503C47.2503 25.2328 46.808 26.1058 46.5165 26.4349L51.008 30.4131ZM53.2503 23.192C53.2503 20.5261 52.6993 17.9214 50.9791 16.0347L46.5454 20.0773C46.8092 20.3666 47.2503 21.1858 47.2503 23.192H53.2503ZM51.04 16.1036C49.4837 14.2879 47.3887 13.376 45.0182 13.376V19.376C45.7198 19.376 46.1208 19.5841 46.4845 20.0084L51.04 16.1036ZM45.0182 13.376C42.6478 13.376 40.5528 14.2879 38.9965 16.1036L43.552 20.0084C43.9157 19.5841 44.3167 19.376 45.0182 19.376V13.376ZM39.0247 16.0711C37.3611 17.9566 36.8343 20.5453 36.8343 23.192H42.8343C42.8343 21.1666 43.2674 20.3314 43.5238 20.0409L39.0247 16.0711ZM36.8343 23.192C36.8343 25.8686 37.3603 28.4675 38.9965 30.3764L43.552 26.4716C43.2682 26.1405 42.8343 25.2514 42.8343 23.192H36.8343ZM38.9965 30.3764C40.5528 32.1921 42.6478 33.104 45.0182 33.104V27.104C44.3167 27.104 43.9157 26.8959 43.552 26.4716L38.9965 30.3764ZM65.2679 34.52L63.9262 37.2033L65.2679 34.52ZM62.0519 31.784L59.5557 33.4481L59.5715 33.4718L59.5878 33.4952L62.0519 31.784ZM62.2439 23.816L59.9861 21.8405L62.2439 23.816ZM66.6119 21.656L67.2181 24.5941L67.2404 24.5895L67.2627 24.5846L66.6119 21.656ZM76.3559 20.984V23.984H79.3559V20.984H76.3559ZM75.3959 17.192L73.3296 19.367L73.3589 19.3948L73.389 19.4219L75.3959 17.192ZM69.2999 16.616L69.8527 19.5646L69.897 19.5563L69.941 19.5467L69.2999 16.616ZM65.9879 17.624L64.8608 14.8438L64.8333 14.8549L64.8061 14.8666L65.9879 17.624ZM63.7319 17.72L62.2288 20.3163L62.2811 20.3466L62.3346 20.3748L63.7319 17.72ZM62.5319 16.184L59.6376 16.9734L59.6423 16.9908L59.6473 17.0082L62.5319 16.184ZM62.6759 14.072L59.9448 12.8306L59.921 12.8829L59.8992 12.9361L62.6759 14.072ZM64.4999 12.536L65.5089 15.3612L65.541 15.3498L65.5728 15.3376L64.4999 12.536ZM68.7239 11.336L69.2288 14.2932L69.257 14.2884L69.2852 14.283L68.7239 11.336ZM80.5799 13.448L78.5385 15.6464L78.5492 15.6563L78.5599 15.666L80.5799 13.448ZM76.4999 31.448H79.4999L73.6998 30.3711L76.4999 31.448ZM74.0519 34.424L72.4367 31.8959L72.4205 31.9063L72.4043 31.9169L74.0519 34.424ZM74.9639 29.288L77.0852 31.4093L74.9639 29.288ZM76.3559 24.728H79.3559V21.728H76.3559V24.728ZM69.4439 25.4L70.573 28.1794L70.6099 28.1644L70.6463 28.1485L69.4439 25.4ZM68.8199 29.816L66.7566 31.9939L66.7845 32.0202L66.813 32.0459L68.8199 29.816ZM69.9239 32.528C68.5501 32.528 67.4712 32.2676 66.6095 31.8367L63.9262 37.2033C65.7525 38.1164 67.7777 38.528 69.9239 38.528V32.528ZM66.6095 31.8367C65.6822 31.373 65.0088 30.7825 64.516 30.0728L59.5878 33.4952C60.6949 35.0895 62.1656 36.323 63.9262 37.2033L66.6095 31.8367ZM64.548 30.1199C64.1222 29.4812 63.8999 28.7688 63.8999 27.896H57.8999C57.8999 29.9032 58.4455 31.7828 59.5557 33.4481L64.548 30.1199ZM63.8999 27.896C63.8999 26.741 64.1937 26.1435 64.5016 25.7915L59.9861 21.8405C58.5021 23.5365 57.8999 25.659 57.8999 27.896H63.8999ZM64.5016 25.7915C64.796 25.455 65.5312 24.9422 67.2181 24.5941L66.0056 18.7179C63.6605 19.2018 61.4837 20.129 59.9861 21.8405L64.5016 25.7915ZM67.2627 24.5846C68.9759 24.2038 71.4033 23.984 74.6279 23.984V17.984C71.1965 17.984 68.2799 18.2122 65.9611 18.7274L67.2627 24.5846ZM74.6279 23.984H76.3559V17.984H74.6279V23.984ZM79.3559 20.984V20.168H73.3559V20.984H79.3559ZM79.3559 20.168C79.3559 18.4331 78.9806 16.3821 77.4028 14.9621L73.389 19.4219C73.2406 19.2883 73.229 19.1906 73.2607 19.289C73.2978 19.4037 73.3559 19.6746 73.3559 20.168H79.3559ZM77.4621 15.017C75.9749 13.6041 73.913 13.28 72.1319 13.28V19.28C72.7178 19.28 73.0864 19.3397 73.2926 19.3973C73.4933 19.4534 73.4502 19.4815 73.3296 19.367L77.4621 15.017ZM72.1319 13.28C71.0124 13.28 69.8505 13.4246 68.6588 13.6853L69.941 19.5467C70.7973 19.3594 71.5233 19.28 72.1319 19.28V13.28ZM68.747 13.6674C67.4883 13.9034 66.1902 14.3048 64.8608 14.8438L67.115 20.4042C68.1535 19.9832 69.0635 19.7126 69.8527 19.5646L68.747 13.6674ZM64.8061 14.8666C64.5984 14.9556 64.5478 14.942 64.6243 14.9387C64.667 14.9369 64.7409 14.9389 64.8364 14.9591C64.9334 14.9796 65.0338 15.0151 65.1291 15.0652L62.3346 20.3748C64.0374 21.271 65.8063 20.9657 67.1696 20.3814L64.8061 14.8666ZM65.235 15.1237C65.233 15.1226 65.2457 15.1298 65.2673 15.1482C65.2892 15.167 65.3147 15.1928 65.34 15.2251C65.3652 15.2574 65.3845 15.2891 65.3982 15.3164C65.4047 15.3295 65.4093 15.3403 65.4123 15.348C65.4153 15.3557 65.4165 15.3599 65.4164 15.3598L59.6473 17.0082C60.0541 18.4319 60.952 19.5771 62.2288 20.3163L65.235 15.1237ZM65.4262 15.3946C65.4153 15.3548 65.4165 15.3384 65.4169 15.3321C65.4175 15.3243 65.4206 15.286 65.4525 15.2079L59.8992 12.9361C59.3725 14.2236 59.2641 15.6037 59.6376 16.9734L65.4262 15.3946ZM65.407 15.3134C65.3947 15.3404 65.377 15.3708 65.3547 15.4C65.3326 15.429 65.3134 15.447 65.3043 15.4547C65.2866 15.4696 65.3332 15.424 65.5089 15.3612L63.4909 9.71077C62.0181 10.2368 60.6753 11.2235 59.9448 12.8306L65.407 15.3134ZM65.5728 15.3376C66.9299 14.8178 68.1461 14.478 69.2288 14.2932L68.219 8.37879C66.6776 8.64195 65.0779 9.10216 63.4269 9.73443L65.5728 15.3376ZM69.2852 14.283C70.4832 14.0548 71.5242 13.952 72.4199 13.952V7.952C71.0756 7.952 69.6526 8.10517 68.1625 8.38898L69.2852 14.283ZM72.4199 13.952C75.6754 13.952 77.5208 14.7013 78.5385 15.6464L82.6212 11.2496C80.055 8.86668 76.4604 7.952 72.4199 7.952V13.952ZM78.5599 15.666C79.4995 16.5218 80.2679 18.1005 80.2679 21.08H86.2679C86.2679 17.1475 85.2442 13.6382 82.5999 11.23L78.5599 15.666ZM80.2679 21.08V31.736H86.2679V21.08H80.2679ZM80.2679 31.736C80.2679 32.5726 80.0716 32.6401 80.2081 32.49C80.2776 32.4135 80.3456 32.3842 80.3451 32.3844C80.3274 32.3909 80.2007 32.432 79.9079 32.432V38.432C81.5679 38.432 83.3419 37.9623 84.6477 36.526C85.9041 35.1439 86.2679 33.3634 86.2679 31.736H80.2679ZM79.9079 32.432C79.603 32.432 79.4646 32.3898 79.4368 32.3797C79.4258 32.3757 79.489 32.4002 79.5574 32.4743C79.6957 32.6243 79.4999 32.5632 79.4999 31.736H73.4999C73.4999 33.3728 73.8721 35.1597 75.1464 36.5416C76.4631 37.9696 78.2441 38.432 79.9079 38.432V32.432ZM79.4999 31.736V31.448H73.4999V31.736H79.4999ZM73.6998 30.3711C73.4552 31.0071 73.0619 31.4965 72.4367 31.8959L75.667 36.9521C77.3458 35.8795 78.5845 34.3849 79.2999 32.5249L73.6998 30.3711ZM72.4043 31.9169C71.8711 32.2673 71.099 32.528 69.9239 32.528V38.528C72.0128 38.528 73.9927 38.0527 75.6994 36.9311L72.4043 31.9169ZM71.5559 33.68C73.6741 33.68 75.5796 32.9149 77.0852 31.4093L72.8426 27.1667C72.4922 27.5171 72.1257 27.68 71.5559 27.68V33.68ZM77.0852 31.4093C78.6464 29.8481 79.3559 27.8499 79.3559 25.688H73.3559C73.3559 26.4701 73.1374 26.8719 72.8426 27.1667L77.0852 31.4093ZM79.3559 25.688V24.728H73.3559V25.688H79.3559ZM76.3559 21.728H74.6759V27.728H76.3559V21.728ZM74.6759 21.728C72.1784 21.728 69.883 21.9333 68.2414 22.6515L70.6463 28.1485C71.0528 27.9707 72.2453 27.728 74.6759 27.728V21.728ZM68.3147 22.6206C67.3901 22.9962 66.4869 23.6053 65.8292 24.5508C65.1646 25.5061 64.9079 26.5792 64.9079 27.608H70.9079C70.9079 27.5863 70.9104 27.6232 70.8885 27.7002C70.8653 27.7811 70.8225 27.8795 70.7546 27.9772C70.6089 28.1867 70.4736 28.2198 70.573 28.1794L68.3147 22.6206ZM64.9079 27.608C64.9079 29.2635 65.5055 30.8086 66.7566 31.9939L70.8831 27.6381C70.8729 27.6284 70.8756 27.6293 70.8842 27.6417C70.8882 27.6475 70.8927 27.6546 70.8972 27.6629C70.9017 27.6711 70.9056 27.6792 70.9087 27.6867C70.9152 27.7027 70.9157 27.709 70.9141 27.7006C70.9124 27.6915 70.9079 27.6622 70.9079 27.608H64.9079ZM66.813 32.0459C68.1813 33.2774 69.9104 33.68 71.5559 33.68V27.68C70.8334 27.68 70.7385 27.5066 70.8268 27.5861L66.813 32.0459ZM92.4186 34.04L90.7545 36.5362L90.7844 36.5561L90.8147 36.5752L92.4186 34.04ZM88.8186 29.768L86.0989 31.0341L86.1031 31.0432L86.1074 31.0523L88.8186 29.768ZM88.8186 16.664L86.1074 15.3797L88.8186 16.664ZM92.4186 12.44L90.8147 9.90476L90.8028 9.91227L90.791 9.91988L92.4186 12.44ZM102.163 11.96L100.795 14.6301L102.163 11.96ZM105.139 14.648L102.566 16.1915L108.139 25.479V14.648H105.139ZM105.187 31.592H108.187L102.532 30.1948L105.187 31.592ZM102.211 34.472L100.819 31.8145L100.805 31.8214L100.792 31.8285L102.211 34.472ZM103.747 28.424L101.501 26.4349L101.485 26.4531L101.469 26.4716L103.747 28.424ZM103.747 18.056L101.469 20.0084L101.499 20.0433L101.53 20.0773L103.747 18.056ZM96.2586 18.056L98.5081 20.0409L98.5224 20.0247L98.5364 20.0084L96.2586 18.056ZM96.2586 28.424L98.5364 26.4716L96.2586 28.424ZM97.8426 32.528C96.3015 32.528 95.0616 32.1621 94.0226 31.5048L90.8147 36.5752C92.9116 37.9019 95.2878 38.528 97.8426 38.528V32.528ZM94.0827 31.5438C93.0408 30.8492 92.1835 29.8637 91.5298 28.4837L86.1074 31.0523C87.1818 33.3203 88.7244 35.1828 90.7545 36.5362L94.0827 31.5438ZM91.5384 28.5019C90.8971 27.1243 90.5226 25.3829 90.5226 23.192H84.5226C84.5226 26.0571 85.0122 28.6997 86.0989 31.0341L91.5384 28.5019ZM90.5226 23.192C90.5226 20.9991 90.8977 19.2827 91.5298 17.9483L86.1074 15.3797C85.0115 17.6933 84.5226 20.3289 84.5226 23.192H90.5226ZM91.5298 17.9483C92.1804 16.5749 93.0273 15.6182 94.0462 14.9601L90.791 9.91988C88.7379 11.2458 87.1849 13.1051 86.1074 15.3797L91.5298 17.9483ZM94.0226 14.9752C95.0616 14.3179 96.3015 13.952 97.8426 13.952V7.952C95.2878 7.952 92.9116 8.57813 90.8147 9.90476L94.0226 14.9752ZM97.8426 13.952C98.9662 13.952 99.9331 14.1887 100.795 14.6301L103.53 9.28987C101.768 8.38731 99.8551 7.952 97.8426 7.952V13.952ZM100.795 14.6301C101.674 15.0803 102.218 15.612 102.566 16.1915L107.711 13.1045C106.715 11.444 105.275 10.1837 103.53 9.28987L100.795 14.6301ZM108.139 14.648V4.424H102.139V14.648H108.139ZM108.139 4.424C108.139 3.63492 108.331 3.59779 108.188 3.74522C108.125 3.80919 108.083 3.81533 108.135 3.79739C108.203 3.77419 108.387 3.728 108.739 3.728V-2.272C107.056 -2.272 105.247 -1.8353 103.89 -0.441229C102.546 0.938204 102.139 2.74908 102.139 4.424H108.139ZM108.739 3.728C109.482 3.728 109.491 3.91296 109.339 3.75941C109.195 3.61308 109.387 3.64464 109.387 4.424H115.387C115.387 2.73936 114.97 0.922913 113.61 -0.455413C112.242 -1.84097 110.427 -2.272 108.739 -2.272V3.728ZM109.387 4.424V31.736H115.387V4.424H109.387ZM109.387 31.736C109.387 32.5251 109.194 32.5622 109.338 32.4148C109.4 32.3508 109.443 32.3447 109.39 32.3626C109.322 32.3858 109.139 32.432 108.787 32.432V38.432C110.469 38.432 112.278 37.9953 113.636 36.6012C114.979 35.2218 115.387 33.4109 115.387 31.736H109.387ZM108.787 32.432C108.435 32.432 108.251 32.3858 108.183 32.3626C108.131 32.3447 108.173 32.3508 108.236 32.4148C108.379 32.5622 108.187 32.5251 108.187 31.736H102.187C102.187 33.4109 102.594 35.2218 103.938 36.6012C105.295 37.9953 107.104 38.432 108.787 38.432V32.432ZM108.187 31.736V31.592H102.187V31.736H108.187ZM102.532 30.1948C102.205 30.8166 101.682 31.3621 100.819 31.8145L103.603 37.1295C105.427 36.1739 106.889 34.7994 107.841 32.9892L102.532 30.1948ZM100.792 31.8285C99.9486 32.2812 98.9856 32.528 97.8426 32.528V38.528C99.8997 38.528 101.849 38.0708 103.629 37.1155L100.792 31.8285ZM100.003 33.104C102.373 33.104 104.468 32.1921 106.024 30.3764L101.469 26.4716C101.105 26.8959 100.704 27.104 100.003 27.104V33.104ZM105.992 30.4131C107.685 28.5022 108.235 25.8872 108.235 23.192H102.235C102.235 25.2328 101.792 26.1058 101.501 26.4349L105.992 30.4131ZM108.235 23.192C108.235 20.5261 107.684 17.9214 105.963 16.0347L101.53 20.0773C101.794 20.3666 102.235 21.1858 102.235 23.192H108.235ZM106.024 16.1036C104.468 14.2879 102.373 13.376 100.003 13.376V19.376C100.704 19.376 101.105 19.5841 101.469 20.0084L106.024 16.1036ZM100.003 13.376C97.6322 13.376 95.5372 14.2879 93.9809 16.1036L98.5364 20.0084C98.9001 19.5841 99.301 19.376 100.003 19.376V13.376ZM94.0091 16.0711C92.3455 17.9566 91.8186 20.5453 91.8186 23.192H97.8186C97.8186 21.1666 98.2518 20.3314 98.5081 20.0409L94.0091 16.0711ZM91.8186 23.192C91.8186 25.8686 92.3447 28.4675 93.9809 30.3764L98.5364 26.4716C98.2526 26.1405 97.8186 25.2514 97.8186 23.192H91.8186ZM93.9809 30.3764C95.5372 32.1921 97.6322 33.104 100.003 33.104V27.104C99.301 27.104 98.9001 26.8959 98.5364 26.4716L93.9809 30.3764ZM125.172 14.84H122.172V26.0094L127.768 16.3431L125.172 14.84ZM128.051 12.008L129.503 14.6337L129.514 14.6274L129.525 14.6209L128.051 12.008ZM136.596 12.056L134.98 14.5841L134.996 14.5941L135.012 14.6039L136.596 12.056ZM139.284 15.416L136.502 16.5404L138.935 22.5585L141.942 16.8058L139.284 15.416ZM142.452 12.152L143.914 14.7716L143.924 14.766L143.934 14.7604L142.452 12.152ZM153.107 13.4L150.769 15.2797L150.778 15.291L150.788 15.3022L153.107 13.4ZM154.116 34.472L151.994 32.3507L151.967 32.3779L151.941 32.4058L154.116 34.472ZM147.06 17.672L144.547 19.3108L144.588 19.3748L144.633 19.4365L147.06 17.672ZM133.908 34.472L136.029 32.3507L133.908 34.472ZM132.18 17.672L129.717 19.3852L129.735 19.411L129.753 19.4365L132.18 17.672ZM126.467 18.008L128.81 19.8821L126.467 18.008ZM121.715 32.432C120.972 32.432 120.963 32.247 121.115 32.4006C121.259 32.5469 121.067 32.5154 121.067 31.736H115.067C115.067 33.4206 115.484 35.2371 116.844 36.6154C118.212 38.001 120.027 38.432 121.715 38.432V32.432ZM121.067 31.736V14.696H115.067V31.736H121.067ZM121.067 14.696C121.067 13.9227 121.256 13.8974 121.105 14.0528C121.039 14.1209 120.991 14.1301 121.037 14.1143C121.099 14.0932 121.276 14.048 121.619 14.048V8.048C119.952 8.048 118.156 8.48085 116.806 9.86715C115.471 11.2386 115.067 13.0373 115.067 14.696H121.067ZM121.619 14.048C121.963 14.048 122.14 14.0932 122.202 14.1143C122.248 14.1301 122.2 14.1209 122.134 14.0528C121.983 13.8974 122.172 13.9227 122.172 14.696H128.171C128.171 13.0373 127.768 11.2386 126.433 9.86715C125.083 8.48085 123.287 8.048 121.619 8.048V14.048ZM122.172 14.696V14.84H128.171V14.696H122.172ZM127.768 16.3431C128.202 15.5927 128.769 15.0392 129.503 14.6337L126.6 9.38227C124.902 10.3208 123.549 11.6553 122.575 13.3369L127.768 16.3431ZM129.525 14.6209C130.264 14.2042 131.183 13.952 132.372 13.952V7.952C130.296 7.952 128.335 8.40378 126.578 9.39506L129.525 14.6209ZM132.372 13.952C133.588 13.952 134.406 14.2173 134.98 14.5841L138.211 9.52791C136.481 8.42269 134.483 7.952 132.372 7.952V13.952ZM135.012 14.6039C135.571 14.9515 136.092 15.526 136.502 16.5404L142.065 14.2916C141.259 12.298 139.988 10.6325 138.179 9.50814L135.012 14.6039ZM141.942 16.8058C142.41 15.9109 143.052 15.2524 143.914 14.7716L140.989 9.53241C139.099 10.5876 137.629 12.1051 136.625 14.0262L141.942 16.8058ZM143.934 14.7604C144.868 14.2294 145.906 13.952 147.107 13.952V7.952C144.917 7.952 142.851 8.47461 140.969 9.54363L143.934 14.7604ZM147.107 13.952C149.167 13.952 150.182 14.5486 150.769 15.2797L155.446 11.5203C153.409 8.98735 150.424 7.952 147.107 7.952V13.952ZM150.788 15.3022C151.459 16.1206 152.076 17.7711 152.076 20.84H158.076C158.076 17.1889 157.38 13.8794 155.427 11.4978L150.788 15.3022ZM152.076 20.84V31.736H158.076V20.84H152.076ZM152.076 31.736C152.076 32.0632 152.031 32.2405 152.005 32.3147C151.983 32.3757 151.975 32.3701 151.994 32.3507L156.237 36.5933C157.597 35.2329 158.076 33.4606 158.076 31.736H152.076ZM151.941 32.4058C151.976 32.3688 152.005 32.3614 151.974 32.3726C151.929 32.3892 151.78 32.432 151.475 32.432V38.432C153.187 38.432 154.957 37.9416 156.29 36.5382L151.941 32.4058ZM151.475 32.432C150.732 32.432 150.723 32.247 150.875 32.4006C151.019 32.5469 150.827 32.5154 150.827 31.736H144.827C144.827 33.4206 145.244 35.2371 146.604 36.6154C147.972 38.001 149.787 38.432 151.475 38.432V32.432ZM150.827 31.736V21.08H144.827V31.736H150.827ZM150.827 21.08C150.827 19.3231 150.567 17.3943 149.486 15.9075L144.633 19.4365C144.583 19.3667 144.642 19.4147 144.709 19.7115C144.775 20.0033 144.827 20.4469 144.827 21.08H150.827ZM149.572 16.0332C148.355 14.166 146.371 13.568 144.564 13.568V19.568C144.858 19.568 144.925 19.6154 144.862 19.5876C144.827 19.5719 144.768 19.5399 144.702 19.4845C144.635 19.4285 144.583 19.3668 144.547 19.3108L149.572 16.0332ZM144.564 13.568C142.4 13.568 140.415 14.3712 139.005 16.1339L143.69 19.8821C143.816 19.7248 143.975 19.568 144.564 19.568V13.568ZM139.005 16.1339C137.661 17.8133 137.195 19.9336 137.195 22.088H143.195C143.195 20.7224 143.498 20.1227 143.69 19.8821L139.005 16.1339ZM137.195 22.088V31.736H143.195V22.088H137.195ZM137.195 31.736C137.195 32.5251 137.003 32.5622 137.146 32.4148C137.209 32.3508 137.252 32.3447 137.199 32.3626C137.131 32.3858 136.948 32.432 136.596 32.432V38.432C138.278 38.432 140.087 37.9953 141.445 36.6012C142.788 35.2218 143.195 33.4109 143.195 31.736H137.195ZM136.596 32.432C136.293 32.432 136.133 32.3896 136.069 32.3668C136.037 32.3557 136.026 32.348 136.025 32.348C136.025 32.3477 136.026 32.3481 136.027 32.3492C136.028 32.3503 136.029 32.3509 136.029 32.3507L131.786 36.5933C133.132 37.9388 134.876 38.432 136.596 38.432V32.432ZM136.029 32.3507C136.048 32.3701 136.04 32.3757 136.018 32.3147C135.992 32.2405 135.947 32.0632 135.947 31.736H129.947C129.947 33.4606 130.426 35.2329 131.786 36.5933L136.029 32.3507ZM135.947 31.736V21.08H129.947V31.736H135.947ZM135.947 21.08C135.947 19.3231 135.687 17.3943 134.606 15.9075L129.753 19.4365C129.703 19.3667 129.762 19.4147 129.829 19.7115C129.895 20.0033 129.947 20.4469 129.947 21.08H135.947ZM134.642 15.9588C133.412 14.1908 131.506 13.568 129.684 13.568V19.568C129.949 19.568 130.012 19.6113 129.958 19.5876C129.929 19.5748 129.883 19.5494 129.831 19.5072C129.78 19.4648 129.741 19.4205 129.717 19.3852L134.642 15.9588ZM129.684 13.568C127.52 13.568 125.535 14.3712 124.125 16.1339L128.81 19.8821C128.936 19.7248 129.096 19.568 129.684 19.568V13.568ZM124.125 16.1339C122.781 17.8133 122.315 19.9336 122.315 22.088H128.316C128.316 20.7224 128.618 20.1227 128.81 19.8821L124.125 16.1339ZM122.315 22.088V31.736H128.316V22.088H122.315ZM122.315 31.736C122.315 32.5251 122.123 32.5622 122.266 32.4148C122.329 32.3508 122.372 32.3447 122.319 32.3626C122.251 32.3858 122.068 32.432 121.715 32.432V38.432C123.398 38.432 125.207 37.9953 126.565 36.6012C127.908 35.2218 128.316 33.4109 128.316 31.736H122.315ZM163.94 34.52L162.598 37.2033L163.94 34.52ZM160.724 31.784L158.228 33.4481L158.243 33.4718L158.26 33.4952L160.724 31.784ZM160.916 23.816L158.658 21.8405L160.916 23.816ZM165.284 21.656L165.89 24.5941L165.912 24.5895L165.935 24.5846L165.284 21.656ZM175.028 20.984V23.984H178.028V20.984H175.028ZM174.068 17.192L172.002 19.367L172.031 19.3948L172.061 19.4219L174.068 17.192ZM167.972 16.616L168.525 19.5646L168.569 19.5563L168.613 19.5467L167.972 16.616ZM164.66 17.624L163.533 14.8438L163.505 14.8549L163.478 14.8666L164.66 17.624ZM162.404 17.72L160.901 20.3163L160.953 20.3466L161.007 20.3748L162.404 17.72ZM161.204 16.184L158.309 16.9734L158.314 16.9908L158.319 17.0082L161.204 16.184ZM161.348 14.072L158.617 12.8306L158.593 12.8829L158.571 12.9361L161.348 14.072ZM163.172 12.536L164.181 15.3612L164.213 15.3498L164.245 15.3376L163.172 12.536ZM167.396 11.336L167.901 14.2932L167.929 14.2884L167.957 14.283L167.396 11.336ZM179.252 13.448L177.21 15.6464L177.221 15.6563L177.232 15.666L179.252 13.448ZM175.172 31.448H178.172L172.372 30.3711L175.172 31.448ZM172.724 34.424L171.109 31.8959L171.092 31.9063L171.076 31.9169L172.724 34.424ZM173.636 29.288L175.757 31.4093L173.636 29.288ZM175.028 24.728H178.028V21.728H175.028V24.728ZM168.116 25.4L169.245 28.1794L169.282 28.1644L169.318 28.1485L168.116 25.4ZM167.492 29.816L165.429 31.9939L165.456 32.0202L165.485 32.0459L167.492 29.816ZM168.596 32.528C167.222 32.528 166.143 32.2676 165.281 31.8367L162.598 37.2033C164.424 38.1164 166.45 38.528 168.596 38.528V32.528ZM165.281 31.8367C164.354 31.373 163.681 30.7825 163.188 30.0728L158.26 33.4952C159.367 35.0895 160.837 36.323 162.598 37.2033L165.281 31.8367ZM163.22 30.1199C162.794 29.4812 162.572 28.7688 162.572 27.896H156.572C156.572 29.9032 157.117 31.7828 158.228 33.4481L163.22 30.1199ZM162.572 27.896C162.572 26.741 162.866 26.1435 163.173 25.7915L158.658 21.8405C157.174 23.5365 156.572 25.659 156.572 27.896H162.572ZM163.173 25.7915C163.468 25.455 164.203 24.9422 165.89 24.5941L164.677 18.7179C162.332 19.2018 160.156 20.129 158.658 21.8405L163.173 25.7915ZM165.935 24.5846C167.648 24.2038 170.075 23.984 173.3 23.984V17.984C169.868 17.984 166.952 18.2122 164.633 18.7274L165.935 24.5846ZM173.3 23.984H175.028V17.984H173.3V23.984ZM178.028 20.984V20.168H172.028V20.984H178.028ZM178.028 20.168C178.028 18.4331 177.652 16.3821 176.075 14.9621L172.061 19.4219C171.912 19.2883 171.901 19.1906 171.933 19.289C171.97 19.4037 172.028 19.6746 172.028 20.168H178.028ZM176.134 15.017C174.647 13.6041 172.585 13.28 170.804 13.28V19.28C171.39 19.28 171.758 19.3397 171.964 19.3973C172.165 19.4534 172.122 19.4815 172.002 19.367L176.134 15.017ZM170.804 13.28C169.684 13.28 168.522 13.4246 167.331 13.6853L168.613 19.5467C169.469 19.3594 170.195 19.28 170.804 19.28V13.28ZM167.419 13.6674C166.16 13.9034 164.862 14.3048 163.533 14.8438L165.787 20.4042C166.825 19.9832 167.735 19.7126 168.525 19.5646L167.419 13.6674ZM163.478 14.8666C163.27 14.9556 163.22 14.942 163.296 14.9387C163.339 14.9369 163.413 14.9389 163.508 14.9591C163.605 14.9796 163.706 15.0151 163.801 15.0652L161.007 20.3748C162.709 21.271 164.478 20.9657 165.842 20.3814L163.478 14.8666ZM163.907 15.1237C163.905 15.1226 163.918 15.1298 163.939 15.1482C163.961 15.167 163.987 15.1928 164.012 15.2251C164.037 15.2574 164.056 15.2891 164.07 15.3164C164.077 15.3295 164.081 15.3403 164.084 15.348C164.087 15.3557 164.088 15.3599 164.088 15.3598L158.319 17.0082C158.726 18.4319 159.624 19.5771 160.901 20.3163L163.907 15.1237ZM164.098 15.3946C164.087 15.3548 164.088 15.3384 164.089 15.3321C164.089 15.3243 164.092 15.286 164.124 15.2079L158.571 12.9361C158.044 14.2236 157.936 15.6037 158.309 16.9734L164.098 15.3946ZM164.079 15.3134C164.067 15.3404 164.049 15.3708 164.027 15.4C164.004 15.429 163.985 15.447 163.976 15.4547C163.958 15.4696 164.005 15.424 164.181 15.3612L162.163 9.71077C160.69 10.2368 159.347 11.2235 158.617 12.8306L164.079 15.3134ZM164.245 15.3376C165.602 14.8178 166.818 14.478 167.901 14.2932L166.891 8.37879C165.349 8.64195 163.75 9.10216 162.099 9.73443L164.245 15.3376ZM167.957 14.283C169.155 14.0548 170.196 13.952 171.092 13.952V7.952C169.747 7.952 168.324 8.10517 166.834 8.38898L167.957 14.283ZM171.092 13.952C174.347 13.952 176.193 14.7013 177.21 15.6464L181.293 11.2496C178.727 8.86668 175.132 7.952 171.092 7.952V13.952ZM177.232 15.666C178.171 16.5218 178.94 18.1005 178.94 21.08H184.94C184.94 17.1475 183.916 13.6382 181.272 11.23L177.232 15.666ZM178.94 21.08V31.736H184.94V21.08H178.94ZM178.94 31.736C178.94 32.5726 178.743 32.6401 178.88 32.49C178.949 32.4135 179.017 32.3842 179.017 32.3844C178.999 32.3909 178.873 32.432 178.58 32.432V38.432C180.24 38.432 182.014 37.9623 183.32 36.526C184.576 35.1439 184.94 33.3634 184.94 31.736H178.94ZM178.58 32.432C178.275 32.432 178.137 32.3898 178.109 32.3797C178.098 32.3757 178.161 32.4002 178.229 32.4743C178.368 32.6243 178.172 32.5632 178.172 31.736H172.172C172.172 33.3728 172.544 35.1597 173.818 36.5416C175.135 37.9696 176.916 38.432 178.58 38.432V32.432ZM178.172 31.736V31.448H172.172V31.736H178.172ZM172.372 30.3711C172.127 31.0071 171.734 31.4965 171.109 31.8959L174.339 36.9521C176.018 35.8795 177.256 34.3849 177.972 32.5249L172.372 30.3711ZM171.076 31.9169C170.543 32.2673 169.771 32.528 168.596 32.528V38.528C170.685 38.528 172.665 38.0527 174.371 36.9311L171.076 31.9169ZM170.228 33.68C172.346 33.68 174.251 32.9149 175.757 31.4093L171.514 27.1667C171.164 27.5171 170.798 27.68 170.228 27.68V33.68ZM175.757 31.4093C177.318 29.8481 178.028 27.8499 178.028 25.688H172.028C172.028 26.4701 171.809 26.8719 171.514 27.1667L175.757 31.4093ZM178.028 25.688V24.728H172.028V25.688H178.028ZM175.028 21.728H173.348V27.728H175.028V21.728ZM173.348 21.728C170.85 21.728 168.555 21.9333 166.913 22.6515L169.318 28.1485C169.725 27.9707 170.917 27.728 173.348 27.728V21.728ZM166.987 22.6206C166.062 22.9962 165.159 23.6053 164.501 24.5508C163.836 25.5061 163.58 26.5792 163.58 27.608H169.58C169.58 27.5863 169.582 27.6232 169.56 27.7002C169.537 27.7811 169.494 27.8795 169.426 27.9772C169.281 28.1867 169.145 28.2198 169.245 28.1794L166.987 22.6206ZM163.58 27.608C163.58 29.2635 164.177 30.8086 165.429 31.9939L169.555 27.6381C169.545 27.6284 169.547 27.6293 169.556 27.6417C169.56 27.6475 169.565 27.6546 169.569 27.6629C169.574 27.6711 169.577 27.6792 169.581 27.6867C169.587 27.7027 169.588 27.709 169.586 27.7006C169.584 27.6915 169.58 27.6622 169.58 27.608H163.58ZM165.485 32.0459C166.853 33.2774 168.582 33.68 170.228 33.68V27.68C169.505 27.68 169.41 27.5066 169.499 27.5861L165.485 32.0459ZM194.499 14.84H191.499V26.2034L197.108 16.3208L194.499 14.84ZM197.475 12.008L198.893 14.6515V14.6515L197.475 12.008ZM207.266 12.44L205.639 14.9601L205.651 14.9677L205.663 14.9752L207.266 12.44ZM210.915 16.664L213.626 15.3797L210.915 16.664ZM210.915 29.768L213.626 31.0523L213.63 31.0432L213.634 31.0341L210.915 29.768ZM207.266 34.04L208.894 36.5601L208.9 36.556L208.907 36.5518L207.266 34.04ZM197.57 34.52L196.176 37.1762L196.189 37.1832L196.203 37.1901L197.57 34.52ZM194.594 31.832L197.134 30.2355L191.594 21.422V31.832H194.594ZM203.475 28.424L201.197 26.4716L203.475 28.424ZM203.475 18.056L201.197 20.0084L201.211 20.0247L201.225 20.0409L203.475 18.056ZM195.939 18.056L198.188 20.0409L198.202 20.0247L198.216 20.0084L195.939 18.056ZM195.939 28.424L198.216 26.4716L195.939 28.424ZM190.995 41.072C190.251 41.072 190.242 40.887 190.394 41.0406C190.538 41.1869 190.346 41.1554 190.346 40.376H184.346C184.346 42.0606 184.763 43.8771 186.123 45.2554C187.491 46.641 189.306 47.072 190.995 47.072V41.072ZM190.346 40.376V14.696H184.346V40.376H190.346ZM190.346 14.696C190.346 13.9227 190.535 13.8974 190.384 14.0528C190.318 14.1209 190.27 14.1301 190.316 14.1143C190.378 14.0932 190.555 14.048 190.898 14.048V8.048C189.231 8.048 187.435 8.48085 186.085 9.86715C184.75 11.2386 184.346 13.0373 184.346 14.696H190.346ZM190.898 14.048C191.254 14.048 191.442 14.0941 191.513 14.1182C191.57 14.1374 191.528 14.1325 191.463 14.0672C191.311 13.9129 191.499 13.9325 191.499 14.696H197.499C197.499 13.0275 197.086 11.2231 195.734 9.85277C194.374 8.47511 192.571 8.048 190.898 8.048V14.048ZM191.499 14.696V14.84H197.499V14.696H191.499ZM197.108 16.3208C197.474 15.6746 198.031 15.1139 198.893 14.6515L196.056 9.36452C194.294 10.31 192.867 11.6374 191.889 13.3592L197.108 16.3208ZM198.893 14.6515C199.728 14.2035 200.705 13.952 201.891 13.952V7.952C199.812 7.952 197.845 8.40453 196.056 9.36452L198.893 14.6515ZM201.891 13.952C203.433 13.952 204.645 14.3181 205.639 14.9601L208.894 9.91988C206.816 8.57792 204.444 7.952 201.891 7.952V13.952ZM205.663 14.9752C206.708 15.6369 207.56 16.5909 208.203 17.9483L213.626 15.3797C212.541 13.0891 210.961 11.2271 208.87 9.90476L205.663 14.9752ZM208.203 17.9483C208.835 19.2827 209.21 20.9991 209.21 23.192H215.21C215.21 20.3289 214.722 17.6933 213.626 15.3797L208.203 17.9483ZM209.21 23.192C209.21 25.3829 208.836 27.1243 208.195 28.5019L213.634 31.0341C214.721 28.6997 215.21 26.0571 215.21 23.192H209.21ZM208.203 28.4837C207.557 29.848 206.695 30.8303 205.626 31.5282L208.907 36.5518C210.974 35.2017 212.544 33.336 213.626 31.0523L208.203 28.4837ZM205.639 31.5199C204.645 32.1619 203.433 32.528 201.891 32.528V38.528C204.444 38.528 206.816 37.9021 208.894 36.5601L205.639 31.5199ZM201.891 32.528C200.767 32.528 199.8 32.2913 198.938 31.8499L196.203 37.1901C197.965 38.0927 199.878 38.528 201.891 38.528V32.528ZM198.965 31.8638C198.109 31.4143 197.531 30.8664 197.134 30.2355L192.055 33.4285C193.066 35.0376 194.472 36.2817 196.176 37.1762L198.965 31.8638ZM191.594 31.832V40.376H197.594V31.832H191.594ZM191.594 40.376C191.594 41.1651 191.402 41.2022 191.545 41.0548C191.608 40.9908 191.651 40.9847 191.598 41.0026C191.53 41.0258 191.347 41.072 190.995 41.072V47.072C192.677 47.072 194.486 46.6353 195.844 45.2412C197.187 43.8618 197.594 42.0509 197.594 40.376H191.594ZM199.73 33.104C202.101 33.104 204.196 32.1921 205.752 30.3764L201.197 26.4716C200.833 26.8959 200.432 27.104 199.73 27.104V33.104ZM205.752 30.3764C207.388 28.4675 207.915 25.8686 207.915 23.192H201.915C201.915 25.2514 201.481 26.1405 201.197 26.4716L205.752 30.3764ZM207.915 23.192C207.915 20.5453 207.388 17.9566 205.724 16.0711L201.225 20.0409C201.481 20.3314 201.915 21.1666 201.915 23.192H207.915ZM205.752 16.1036C204.196 14.2879 202.101 13.376 199.73 13.376V19.376C200.432 19.376 200.833 19.5841 201.197 20.0084L205.752 16.1036ZM199.73 13.376C197.349 13.376 195.23 14.2725 193.661 16.1036L198.216 20.0084C198.567 19.5995 198.976 19.376 199.73 19.376V13.376ZM193.689 16.0711C192.025 17.9566 191.499 20.5453 191.499 23.192H197.499C197.499 21.1666 197.932 20.3314 198.188 20.0409L193.689 16.0711ZM191.499 23.192C191.499 25.8686 192.025 28.4675 193.661 30.3764L198.216 26.4716C197.932 26.1405 197.499 25.2514 197.499 23.192H191.499ZM193.661 30.3764C195.23 32.2075 197.349 33.104 199.73 33.104V27.104C198.976 27.104 198.567 26.8805 198.216 26.4716L193.661 30.3764Z" fill="#5B3511"/>
</g>
<defs>
<filter id="filter0_d_42_92" x="0.54863" y="0.728027" width="212.662" height="46.344" filterUnits="userSpaceOnUse" color-interpolation-filters="sRGB">
<feFlood flood-opacity="0" result="BackgroundImageFix"/>
<feColorMatrix in="SourceAlpha" type="matrix" values="0 0 0 0 0 0 0 0 0 0 0 0 0 0 0 0 0 0 127 0" result="hardAlpha"/>
<feOffset dy="2"/>
<feGaussianBlur stdDeviation="0.5"/>
<feComposite in2="hardAlpha" operator="out"/>
<feColorMatrix type="matrix" values="0 0 0 0 0 0 0 0 0 0 0 0 0 0 0 0 0 0 0.25 0"/>
<feBlend mode="normal" in2="BackgroundImageFix" result="effect1_dropShadow_42_92"/>
<feBlend mode="normal" in="SourceGraphic" in2="effect1_dropShadow_42_92" result="shape"/>
</filter>
<linearGradient id="paint0_linear_42_92" x1="106" y1="-13" x2="106" y2="52" gradientUnits="userSpaceOnUse">
<stop stop-color="#FDE092"/>
<stop offset="1" stop-color="#C18B2C"/>
</linearGradient>
</defs>
</svg>
