<svg width="144" height="33" viewBox="0 0 144 33" fill="none" xmlns="http://www.w3.org/2000/svg">
<g filter="url(#filter0_d_42_598)">
<path d="M4.36175 23.288C3.55108 23.288 2.93242 23.064 2.50575 22.616C2.07908 22.168 1.86575 21.5387 1.86575 20.728V2.968C1.86575 1.28267 2.70842 0.439999 4.39375 0.439999H12.1698C14.6871 0.439999 16.6284 1.048 17.9938 2.264C19.3591 3.48 20.0418 5.176 20.0418 7.352C20.0418 9.03733 19.6044 10.4453 18.7298 11.576C17.8764 12.6853 16.6498 13.4427 15.0498 13.848C16.1804 14.1893 17.1084 15.0107 17.8338 16.312L19.8178 19.992C20.2658 20.8027 20.3511 21.56 20.0738 22.264C19.7964 22.9467 19.1244 23.288 18.0578 23.288C17.3538 23.288 16.7778 23.1387 16.3298 22.84C15.8818 22.5413 15.4978 22.0827 15.1778 21.464L12.1058 15.8C11.7858 15.2027 11.3911 14.7973 10.9218 14.584C10.4524 14.3707 9.89775 14.264 9.25775 14.264H6.82575V20.728C6.82575 21.5387 6.61242 22.168 6.18575 22.616C5.78042 23.064 5.17242 23.288 4.36175 23.288ZM6.82575 10.68H11.2738C13.9404 10.68 15.2738 9.61333 15.2738 7.48C15.2738 5.368 13.9404 4.312 11.2738 4.312H6.82575V10.68ZM30.8455 23.352C29.1602 23.352 27.6882 23.0213 26.4295 22.36C25.1922 21.6773 24.2322 20.728 23.5495 19.512C22.8668 18.2747 22.5255 16.8133 22.5255 15.128C22.5255 13.464 22.8668 12.024 23.5495 10.808C24.2322 9.57067 25.1922 8.62133 26.4295 7.96C27.6882 7.29867 29.1602 6.968 30.8455 6.968C32.5308 6.968 33.9922 7.29867 35.2295 7.96C36.4882 8.62133 37.4588 9.57067 38.1415 10.808C38.8455 12.024 39.1975 13.464 39.1975 15.128C39.1975 16.8133 38.8455 18.2747 38.1415 19.512C37.4588 20.728 36.4882 21.6773 35.2295 22.36C33.9922 23.0213 32.5308 23.352 30.8455 23.352ZM30.8455 19.736C31.8695 19.736 32.7015 19.3627 33.3415 18.616C34.0028 17.8693 34.3335 16.7067 34.3335 15.128C34.3335 13.5707 34.0028 12.4293 33.3415 11.704C32.7015 10.9573 31.8695 10.584 30.8455 10.584C29.8215 10.584 28.9895 10.9573 28.3495 11.704C27.7095 12.4293 27.3895 13.5707 27.3895 15.128C27.3895 16.7067 27.7095 17.8693 28.3495 18.616C28.9895 19.3627 29.8215 19.736 30.8455 19.736ZM47.4493 23.352C46.2759 23.352 45.2413 23.128 44.3453 22.68C43.4493 22.232 42.7346 21.624 42.2013 20.856C41.6893 20.088 41.4333 19.224 41.4333 18.264C41.4333 17.1333 41.7319 16.2267 42.3293 15.544C42.9266 14.8613 43.8973 14.3813 45.2413 14.104C46.5853 13.8053 48.3666 13.656 50.5853 13.656H51.7373V13.112C51.7373 12.1733 51.5239 11.512 51.0973 11.128C50.6706 10.7227 49.9453 10.52 48.9213 10.52C48.3453 10.52 47.7159 10.5947 47.0333 10.744C46.3506 10.872 45.6146 11.096 44.8253 11.416C44.2279 11.672 43.7266 11.6933 43.3213 11.48C42.9159 11.2453 42.6493 10.904 42.5213 10.456C42.3933 9.98667 42.4253 9.51733 42.6173 9.048C42.8306 8.57867 43.2359 8.23733 43.8333 8.024C44.8359 7.64 45.7746 7.37333 46.6493 7.224C47.5453 7.05333 48.3666 6.968 49.1133 6.968C51.5453 6.968 53.3586 7.52267 54.5533 8.632C55.7479 9.72 56.3453 11.416 56.3453 13.72V20.824C56.3453 22.4667 55.5986 23.288 54.1053 23.288C52.5906 23.288 51.8333 22.4667 51.8333 20.824V20.632C51.5133 21.464 50.9693 22.1253 50.2013 22.616C49.4546 23.1067 48.5373 23.352 47.4493 23.352ZM48.5373 20.12C49.4333 20.12 50.1906 19.8107 50.8093 19.192C51.4279 18.5733 51.7373 17.7733 51.7373 16.792V16.152H50.6173C48.9746 16.152 47.8119 16.3013 47.1293 16.6C46.4466 16.8773 46.1053 17.368 46.1053 18.072C46.1053 18.6693 46.3079 19.16 46.7133 19.544C47.1399 19.928 47.7479 20.12 48.5373 20.12ZM66.0618 23.352C64.6964 23.352 63.4911 23.0213 62.4458 22.36C61.4218 21.6773 60.6218 20.728 60.0458 19.512C59.4698 18.2747 59.1818 16.8133 59.1818 15.128C59.1818 13.4427 59.4698 11.992 60.0458 10.776C60.6218 9.56 61.4218 8.62133 62.4458 7.96C63.4911 7.29867 64.6964 6.968 66.0618 6.968C67.1071 6.968 68.0671 7.192 68.9418 7.64C69.8164 8.088 70.4778 8.68533 70.9258 9.432V2.616C70.9258 0.973332 71.7258 0.151999 73.3258 0.151999C74.9471 0.151999 75.7578 0.973332 75.7578 2.616V20.824C75.7578 22.4667 74.9578 23.288 73.3578 23.288C71.7578 23.288 70.9578 22.4667 70.9578 20.824V20.728C70.5311 21.5387 69.8698 22.1787 68.9738 22.648C68.0991 23.1173 67.1284 23.352 66.0618 23.352ZM67.5017 19.736C68.5258 19.736 69.3578 19.3627 69.9978 18.616C70.6591 17.8693 70.9898 16.7067 70.9898 15.128C70.9898 13.5707 70.6591 12.4293 69.9978 11.704C69.3578 10.9573 68.5258 10.584 67.5017 10.584C66.4778 10.584 65.6458 10.9573 65.0058 11.704C64.3658 12.4293 64.0458 13.5707 64.0458 15.128C64.0458 16.7067 64.3658 17.8693 65.0058 18.616C65.6458 19.3627 66.4778 19.736 67.5017 19.736ZM81.977 23.288C80.3557 23.288 79.545 22.4667 79.545 20.824V9.464C79.545 7.84267 80.3343 7.032 81.913 7.032C83.4917 7.032 84.281 7.84267 84.281 9.464V9.56C84.7503 8.74933 85.3903 8.12 86.201 7.672C87.033 7.20267 87.993 6.968 89.081 6.968C90.1903 6.968 91.129 7.21333 91.897 7.704C92.6863 8.19467 93.2837 8.94133 93.689 9.944C94.1797 9.00533 94.8837 8.28 95.801 7.768C96.7397 7.23467 97.7743 6.968 98.905 6.968C100.697 6.968 102.03 7.512 102.905 8.6C103.78 9.66667 104.217 11.32 104.217 13.56V20.824C104.217 21.6133 104.004 22.2213 103.577 22.648C103.172 23.0747 102.585 23.288 101.817 23.288C100.196 23.288 99.385 22.4667 99.385 20.824V13.72C99.385 12.6747 99.2143 11.9173 98.873 11.448C98.553 10.9573 97.9983 10.712 97.209 10.712C96.2917 10.712 95.577 11.032 95.065 11.672C94.553 12.312 94.297 13.2187 94.297 14.392V20.824C94.297 22.4667 93.497 23.288 91.897 23.288C91.129 23.288 90.5317 23.0747 90.105 22.648C89.6783 22.2213 89.465 21.6133 89.465 20.824V13.72C89.465 12.6747 89.2943 11.9173 88.953 11.448C88.6117 10.9573 88.057 10.712 87.289 10.712C86.3717 10.712 85.657 11.032 85.145 11.672C84.633 12.312 84.377 13.2187 84.377 14.392V20.824C84.377 22.4667 83.577 23.288 81.977 23.288ZM113.231 23.352C112.057 23.352 111.023 23.128 110.127 22.68C109.231 22.232 108.516 21.624 107.983 20.856C107.471 20.088 107.215 19.224 107.215 18.264C107.215 17.1333 107.513 16.2267 108.111 15.544C108.708 14.8613 109.679 14.3813 111.023 14.104C112.367 13.8053 114.148 13.656 116.367 13.656H117.519V13.112C117.519 12.1733 117.305 11.512 116.879 11.128C116.452 10.7227 115.727 10.52 114.703 10.52C114.127 10.52 113.497 10.5947 112.815 10.744C112.132 10.872 111.396 11.096 110.607 11.416C110.009 11.672 109.508 11.6933 109.103 11.48C108.697 11.2453 108.431 10.904 108.303 10.456C108.175 9.98667 108.207 9.51733 108.399 9.048C108.612 8.57867 109.017 8.23733 109.615 8.024C110.617 7.64 111.556 7.37333 112.431 7.224C113.327 7.05333 114.148 6.968 114.895 6.968C117.327 6.968 119.14 7.52267 120.335 8.632C121.529 9.72 122.127 11.416 122.127 13.72V20.824C122.127 22.4667 121.38 23.288 119.887 23.288C118.372 23.288 117.615 22.4667 117.615 20.824V20.632C117.295 21.464 116.751 22.1253 115.983 22.616C115.236 23.1067 114.319 23.352 113.231 23.352ZM114.319 20.12C115.215 20.12 115.972 19.8107 116.591 19.192C117.209 18.5733 117.519 17.7733 117.519 16.792V16.152H116.399C114.756 16.152 113.593 16.3013 112.911 16.6C112.228 16.8773 111.887 17.368 111.887 18.072C111.887 18.6693 112.089 19.16 112.495 19.544C112.921 19.928 113.529 20.12 114.319 20.12ZM128.163 29.048C126.542 29.048 125.731 28.2267 125.731 26.584V9.464C125.731 7.84267 126.52 7.032 128.099 7.032C129.699 7.032 130.499 7.84267 130.499 9.464V9.56C130.947 8.77067 131.608 8.14133 132.483 7.672C133.358 7.20267 134.339 6.968 135.427 6.968C136.792 6.968 137.987 7.29867 139.011 7.96C140.056 8.62133 140.867 9.56 141.443 10.776C142.019 11.992 142.307 13.4427 142.307 15.128C142.307 16.8133 142.019 18.2747 141.443 19.512C140.867 20.728 140.056 21.6773 139.011 22.36C137.987 23.0213 136.792 23.352 135.427 23.352C134.382 23.352 133.422 23.128 132.547 22.68C131.694 22.232 131.032 21.6347 130.563 20.888V26.584C130.563 28.2267 129.763 29.048 128.163 29.048ZM133.987 19.736C135.011 19.736 135.843 19.3627 136.483 18.616C137.123 17.8693 137.443 16.7067 137.443 15.128C137.443 13.5707 137.123 12.4293 136.483 11.704C135.843 10.9573 135.011 10.584 133.987 10.584C132.942 10.584 132.099 10.9573 131.459 11.704C130.819 12.4293 130.499 13.5707 130.499 15.128C130.499 16.7067 130.819 17.8693 131.459 18.616C132.099 19.3627 132.942 19.736 133.987 19.736Z" fill="url(#paint0_linear_42_598)"/>
<path d="M2.50575 22.616L4.67816 20.547L2.50575 22.616ZM17.9938 2.264L15.9985 4.5043H15.9985L17.9938 2.264ZM18.7298 11.576L16.3569 9.74038L16.3519 9.74687L18.7298 11.576ZM15.0498 13.848L14.313 10.9399L3.83169 13.5951L14.1827 16.72L15.0498 13.848ZM17.8338 16.312L20.4744 14.8883L20.4644 14.8698L20.4542 14.8514L17.8338 16.312ZM19.8178 19.992L17.1771 21.4157L17.1845 21.4294L17.192 21.4431L19.8178 19.992ZM20.0738 22.264L22.8532 23.3931L22.8591 23.3784L22.865 23.3636L20.0738 22.264ZM16.3298 22.84L14.6656 25.3362H14.6657L16.3298 22.84ZM15.1777 21.464L17.8424 20.0857L17.8289 20.0596L17.8148 20.0337L15.1777 21.464ZM12.1058 15.8L9.46131 17.2167L9.46497 17.2235L9.46866 17.2303L12.1058 15.8ZM10.9217 14.584L9.68034 17.3151H9.68034L10.9217 14.584ZM6.82575 14.264V11.264H3.82575V14.264H6.82575ZM6.18575 22.616L4.01334 20.547L3.98688 20.5748L3.96114 20.6033L6.18575 22.616ZM6.82575 10.68H3.82575V13.68H6.82575V10.68ZM6.82575 4.312V1.312H3.82575V4.312H6.82575ZM4.36175 20.288C4.22675 20.288 4.22692 20.2687 4.31107 20.2992C4.35485 20.3151 4.41537 20.3423 4.48402 20.3865C4.55329 20.431 4.61947 20.4854 4.67816 20.547L0.333336 24.685C1.48715 25.8965 2.99696 26.288 4.36175 26.288V20.288ZM4.67816 20.547C4.72879 20.6002 4.77142 20.6573 4.80496 20.7138C4.83816 20.7697 4.8571 20.8158 4.86695 20.8449C4.88564 20.9 4.86575 20.8753 4.86575 20.728H-1.13425C-1.13425 22.0623 -0.773305 23.523 0.333336 24.685L4.67816 20.547ZM4.86575 20.728V2.968H-1.13425V20.728H4.86575ZM4.86575 2.968C4.86575 2.78771 4.88933 2.75209 4.8698 2.81068C4.84543 2.8838 4.77489 3.0375 4.61907 3.19332C4.46325 3.34914 4.30955 3.41968 4.23643 3.44405C4.17785 3.46358 4.21346 3.44 4.39375 3.44V-2.56C3.08865 -2.56 1.5588 -2.23169 0.37643 -1.04932C-0.805943 0.133051 -1.13425 1.6629 -1.13425 2.968H4.86575ZM4.39375 3.44H12.1698V-2.56H4.39375V3.44ZM12.1698 3.44C14.2297 3.44 15.3599 3.93558 15.9985 4.5043L19.989 0.0237045C17.8969 -1.83958 15.1445 -2.56 12.1698 -2.56V3.44ZM15.9985 4.5043C16.6028 5.04252 17.0418 5.85392 17.0418 7.352H23.0418C23.0418 4.49808 22.1154 1.91748 19.989 0.0237036L15.9985 4.5043ZM17.0418 7.352C17.0418 8.49633 16.7554 9.22519 16.3569 9.74038L21.1026 13.4116C22.4534 11.6655 23.0418 9.57833 23.0418 7.352H17.0418ZM16.3519 9.74687C15.9795 10.2309 15.3821 10.669 14.313 10.9399L15.7865 16.7561C17.9174 16.2163 19.7733 15.1398 21.1076 13.4051L16.3519 9.74687ZM14.1827 16.72C14.386 16.7813 14.7633 16.9651 15.2133 17.7726L20.4542 14.8514C19.4536 13.0562 17.9748 11.5973 15.9168 10.976L14.1827 16.72ZM15.1931 17.7357L17.1771 21.4157L22.4584 18.5683L20.4744 14.8883L15.1931 17.7357ZM17.192 21.4431C17.2655 21.576 17.2465 21.5912 17.2366 21.5039C17.2317 21.4599 17.2306 21.4017 17.2393 21.3352C17.2481 21.2686 17.2645 21.2102 17.2825 21.1644L22.865 23.3636C23.5431 21.6421 23.2177 19.942 22.4435 18.5409L17.192 21.4431ZM17.2944 21.1349C17.3539 20.9883 17.4504 20.8249 17.5917 20.6724C17.7324 20.5207 17.8806 20.4195 18.0032 20.3573C18.226 20.2441 18.3026 20.288 18.0578 20.288V26.288C19.7025 26.288 21.9148 25.7029 22.8532 23.3931L17.2944 21.1349ZM18.0578 20.288C17.9148 20.288 17.8528 20.2726 17.8506 20.272C17.8505 20.272 17.8657 20.2759 17.8922 20.2875C17.9191 20.2993 17.9542 20.3174 17.9938 20.3438L14.6657 25.3362C15.7373 26.0506 16.9412 26.288 18.0578 26.288V20.288ZM17.9939 20.3438C18.075 20.3979 17.9957 20.382 17.8424 20.0857L12.5131 22.8423C12.9998 23.7833 13.6885 24.6847 14.6656 25.3362L17.9939 20.3438ZM17.8148 20.0337L14.7428 14.3697L9.46866 17.2303L12.5407 22.8943L17.8148 20.0337ZM14.7502 14.3833C14.2171 13.3883 13.3962 12.4134 12.1632 11.8529L9.68034 17.3151C9.54366 17.253 9.45796 17.1795 9.42034 17.1409C9.38767 17.1073 9.40857 17.1182 9.46131 17.2167L14.7502 14.3833ZM12.1632 11.8529C11.2217 11.425 10.2254 11.264 9.25775 11.264V17.264C9.41225 17.264 9.51931 17.277 9.58721 17.29C9.62079 17.2965 9.64421 17.3028 9.65893 17.3074C9.67353 17.312 9.68014 17.315 9.68034 17.3151L12.1632 11.8529ZM9.25775 11.264H6.82575V17.264H9.25775V11.264ZM3.82575 14.264V20.728H9.82575V14.264H3.82575ZM3.82575 20.728C3.82575 20.8753 3.80585 20.9 3.82455 20.8449C3.8344 20.8158 3.85334 20.7697 3.88654 20.7138C3.92008 20.6573 3.96271 20.6002 4.01334 20.547L8.35816 24.685C9.46481 23.523 9.82575 22.0623 9.82575 20.728H3.82575ZM3.96114 20.6033C4.10704 20.442 4.27164 20.3481 4.38863 20.305C4.48833 20.2682 4.49851 20.288 4.36175 20.288V26.288C5.71662 26.288 7.26032 25.8998 8.41036 24.6287L3.96114 20.6033ZM6.82575 13.68H11.2738V7.68H6.82575V13.68ZM11.2738 13.68C12.9276 13.68 14.7232 13.3623 16.1478 12.2226C17.7003 10.9806 18.2738 9.20878 18.2738 7.48H12.2738C12.2738 7.706 12.2381 7.76562 12.2545 7.72615C12.2786 7.66836 12.3333 7.59045 12.3997 7.53739C12.4521 7.49544 12.4326 7.53281 12.2508 7.5813C12.0632 7.63131 11.7502 7.68 11.2738 7.68V13.68ZM18.2738 7.48C18.2738 5.75137 17.6931 3.9852 16.1363 2.75224C14.713 1.62493 12.9224 1.312 11.2738 1.312V7.312C11.7522 7.312 12.0678 7.3604 12.258 7.41062C12.4429 7.45943 12.4638 7.49744 12.4112 7.45575C12.3441 7.40267 12.2859 7.32236 12.2587 7.25775C12.2392 7.2114 12.2738 7.26277 12.2738 7.48H18.2738ZM11.2738 1.312H6.82575V7.312H11.2738V1.312ZM3.82575 4.312V10.68H9.82575V4.312H3.82575ZM26.4295 22.36L24.9803 24.9867L25.007 25.0015L25.0341 25.0157L26.4295 22.36ZM23.5495 19.512L20.9228 20.9612L20.9281 20.9709L20.9335 20.9806L23.5495 19.512ZM23.5495 10.808L26.1655 12.2766L26.1709 12.2669L26.1762 12.2572L23.5495 10.808ZM26.4295 7.96L25.0341 5.30427L25.0247 5.3092L25.0154 5.31421L26.4295 7.96ZM35.2295 7.96L33.8154 10.6058L33.8247 10.6108L33.8341 10.6157L35.2295 7.96ZM38.1415 10.808L35.5148 12.2572L35.5297 12.2843L35.5452 12.3111L38.1415 10.808ZM38.1415 19.512L35.534 18.0284L35.5298 18.0359L35.5256 18.0434L38.1415 19.512ZM35.2295 22.36L36.6436 25.0058L36.6517 25.0015L36.6598 24.9971L35.2295 22.36ZM33.3415 18.616L31.0957 16.6269L31.0796 16.6451L31.0637 16.6636L33.3415 18.616ZM33.3415 11.704L31.0637 13.6564L31.0937 13.6913L31.1246 13.7253L33.3415 11.704ZM28.3495 11.704L30.599 13.6889L30.6133 13.6727L30.6273 13.6564L28.3495 11.704ZM28.3495 18.616L30.6273 16.6636L28.3495 18.616ZM30.8455 20.352C29.5565 20.352 28.5801 20.1011 27.8249 19.7043L25.0341 25.0157C26.7962 25.9416 28.7639 26.352 30.8455 26.352V20.352ZM27.8787 19.7333C27.1236 19.3167 26.5708 18.7654 26.1655 18.0434L20.9335 20.9806C21.8935 22.6906 23.2607 24.038 24.9803 24.9867L27.8787 19.7333ZM26.1762 18.0628C25.7816 17.3474 25.5255 16.404 25.5255 15.128H19.5255C19.5255 17.2227 19.9521 19.2019 20.9228 20.9612L26.1762 18.0628ZM25.5255 15.128C25.5255 13.8789 25.7792 12.9647 26.1655 12.2766L20.9335 9.3394C19.9545 11.0833 19.5255 13.0491 19.5255 15.128H25.5255ZM26.1762 12.2572C26.581 11.5236 27.1216 10.9917 27.8436 10.6058L25.0154 5.31421C23.2628 6.25094 21.8834 7.6177 20.9228 9.35877L26.1762 12.2572ZM27.8249 10.6157C28.5801 10.2189 29.5565 9.968 30.8455 9.968V3.968C28.7639 3.968 26.7962 4.37843 25.0341 5.30427L27.8249 10.6157ZM30.8455 9.968C32.1362 9.968 33.0926 10.2195 33.8154 10.6058L36.6436 5.31421C34.8918 4.37786 32.9254 3.968 30.8455 3.968V9.968ZM33.8341 10.6157C34.5765 11.0058 35.1175 11.5372 35.5148 12.2572L40.7682 9.35877C39.8001 7.60411 38.3998 6.23685 36.6249 5.30427L33.8341 10.6157ZM35.5452 12.3111C35.9397 12.9925 36.1975 13.894 36.1975 15.128H42.1975C42.1975 13.034 41.7513 11.0555 40.7378 9.30489L35.5452 12.3111ZM36.1975 15.128C36.1975 16.3892 35.9371 17.3199 35.534 18.0284L40.749 20.9956C41.7539 19.2294 42.1975 17.2375 42.1975 15.128H36.1975ZM35.5256 18.0434C35.1277 18.7521 34.5744 19.3025 33.7992 19.7229L36.6598 24.9971C38.4019 24.0522 39.79 22.7039 40.7575 20.9806L35.5256 18.0434ZM33.8154 19.7142C33.0926 20.1005 32.1362 20.352 30.8455 20.352V26.352C32.9254 26.352 34.8918 25.9421 36.6436 25.0058L33.8154 19.7142ZM30.8455 22.736C32.7039 22.736 34.383 22.0107 35.6193 20.5684L31.0637 16.6636C31.033 16.6995 31.014 16.7147 31.0089 16.7185C31.0045 16.7219 31.0056 16.7206 31.0093 16.7189C31.0129 16.7173 31.0071 16.7206 30.9859 16.7249C30.9638 16.7294 30.9189 16.736 30.8455 16.736V22.736ZM35.5873 20.6051C36.9491 19.0676 37.3335 17.0339 37.3335 15.128H31.3335C31.3335 16.3795 31.0566 16.6711 31.0957 16.6269L35.5873 20.6051ZM37.3335 15.128C37.3335 13.2408 36.9479 11.2067 35.5584 9.68274L31.1246 13.7253C31.0875 13.6845 31.1399 13.7177 31.204 13.9388C31.2707 14.1691 31.3335 14.5496 31.3335 15.128H37.3335ZM35.6193 9.75163C34.383 8.30925 32.7039 7.584 30.8455 7.584V13.584C30.9189 13.584 30.9638 13.5906 30.9859 13.5951C31.0071 13.5994 31.0129 13.6027 31.0093 13.6011C31.0056 13.5994 31.0045 13.5981 31.0089 13.6015C31.014 13.6053 31.033 13.6205 31.0637 13.6564L35.6193 9.75163ZM30.8455 7.584C28.9871 7.584 27.308 8.30926 26.0717 9.75163L30.6273 13.6564C30.658 13.6205 30.677 13.6053 30.6821 13.6015C30.6865 13.5981 30.6855 13.5994 30.6817 13.6011C30.6781 13.6027 30.6839 13.5994 30.7051 13.5951C30.7272 13.5906 30.7721 13.584 30.8455 13.584V7.584ZM26.1 9.71914C24.7564 11.2419 24.3895 13.26 24.3895 15.128H30.3895C30.3895 14.5427 30.451 14.1533 30.5181 13.9139C30.5832 13.6819 30.6374 13.6453 30.599 13.6889L26.1 9.71914ZM24.3895 15.128C24.3895 17.0153 24.7556 19.0328 26.0717 20.5684L30.6273 16.6636C30.6523 16.6929 30.5907 16.6376 30.5219 16.3879C30.4514 16.1316 30.3895 15.7262 30.3895 15.128H24.3895ZM26.0717 20.5684C27.308 22.0107 28.9871 22.736 30.8455 22.736V16.736C30.7721 16.736 30.7272 16.7294 30.7051 16.7249C30.6839 16.7206 30.6781 16.7173 30.6817 16.7189C30.6855 16.7206 30.6865 16.7219 30.6821 16.7185C30.677 16.7147 30.658 16.6995 30.6273 16.6636L26.0717 20.5684ZM44.3452 22.68L43.0036 25.3633L44.3452 22.68ZM42.2012 20.856L39.7051 22.5201L39.7209 22.5438L39.7371 22.5672L42.2012 20.856ZM42.3293 15.544L40.0715 13.5685L42.3293 15.544ZM45.2412 14.104L45.8475 17.0421L45.8698 17.0375L45.892 17.0326L45.2412 14.104ZM51.7373 13.656V16.656H54.7373V13.656H51.7373ZM51.0973 11.128L49.031 13.303L49.0603 13.3308L49.0904 13.3579L51.0973 11.128ZM47.0332 10.744L47.5861 13.6926L47.6304 13.6843L47.6743 13.6747L47.0332 10.744ZM44.8252 11.416L43.6981 8.63578L43.6707 8.6469L43.6435 8.65856L44.8252 11.416ZM43.3213 11.48L41.8181 14.0763L41.8705 14.1066L41.924 14.1348L43.3213 11.48ZM42.5213 10.456L39.627 11.2453L39.6317 11.2628L39.6367 11.2802L42.5213 10.456ZM42.6172 9.048L39.8862 7.80659L39.8624 7.85891L39.8406 7.9121L42.6172 9.048ZM43.8333 8.024L44.8423 10.8492L44.8744 10.8378L44.9062 10.8256L43.8333 8.024ZM46.6493 7.224L47.1541 10.1812L47.1824 10.1764L47.2106 10.171L46.6493 7.224ZM54.5532 8.632L52.5119 10.8304L52.5225 10.8403L52.5333 10.85L54.5532 8.632ZM51.8333 20.632H54.8333L49.0332 19.5551L51.8333 20.632ZM50.2012 22.616L48.5861 20.0879L48.5698 20.0983L48.5537 20.1089L50.2012 22.616ZM50.8092 19.192L52.9306 21.3133L50.8092 19.192ZM51.7373 16.152H54.7373V13.152H51.7373V16.152ZM47.1292 16.6L48.2584 19.3794L48.2952 19.3644L48.3317 19.3485L47.1292 16.6ZM46.7132 19.544L44.65 21.7219L44.6779 21.7482L44.7064 21.7739L46.7132 19.544ZM47.4492 20.352C46.6621 20.352 46.1006 20.2036 45.6869 19.9967L43.0036 25.3633C44.3819 26.0524 45.8897 26.352 47.4492 26.352V20.352ZM45.6869 19.9967C45.2075 19.757 44.8915 19.4705 44.6654 19.1448L39.7371 22.5672C40.5776 23.7775 41.691 24.707 43.0036 25.3633L45.6869 19.9967ZM44.6974 19.1919C44.5276 18.9372 44.4333 18.6568 44.4333 18.264H38.4333C38.4333 19.7912 38.8509 21.2388 39.7051 22.5201L44.6974 19.1919ZM44.4333 18.264C44.4333 17.6744 44.5777 17.5301 44.587 17.5195L40.0715 13.5685C38.8861 14.9232 38.4333 16.5923 38.4333 18.264H44.4333ZM44.587 17.5195C44.5827 17.5244 44.8326 17.2515 45.8475 17.0421L44.635 11.1659C42.9619 11.5111 41.2704 12.1983 40.0715 13.5685L44.587 17.5195ZM45.892 17.0326C46.9332 16.8012 48.47 16.656 50.5853 16.656V10.656C48.2632 10.656 46.2373 10.8095 44.5905 11.1754L45.892 17.0326ZM50.5853 16.656H51.7373V10.656H50.5853V16.656ZM54.7373 13.656V13.112H48.7373V13.656H54.7373ZM54.7373 13.112C54.7373 11.8465 54.4686 10.1261 53.1041 8.89812L49.0904 13.3579C48.8353 13.1284 48.7437 12.8999 48.7221 12.833C48.7058 12.7824 48.7373 12.8532 48.7373 13.112H54.7373ZM53.1635 8.953C51.8896 7.74278 50.1903 7.52 48.9212 7.52V13.52C49.08 13.52 49.2006 13.5279 49.288 13.5381C49.3759 13.5483 49.4188 13.5593 49.4259 13.5613C49.4454 13.5668 49.2582 13.5189 49.031 13.303L53.1635 8.953ZM48.9212 7.52C48.0898 7.52 47.2425 7.62729 46.3922 7.8133L47.6743 13.6747C48.1893 13.562 48.6007 13.52 48.9212 13.52V7.52ZM46.4804 7.79538C45.563 7.9674 44.6329 8.25682 43.6981 8.63578L45.9524 14.1962C46.5963 13.9352 47.1382 13.7766 47.5861 13.6926L46.4804 7.79538ZM43.6435 8.65856C43.5851 8.68358 43.6718 8.6353 43.8737 8.62671C44.1006 8.61706 44.408 8.66185 44.7185 8.82524L41.924 14.1348C43.4241 14.9243 44.9423 14.6297 46.007 14.1734L43.6435 8.65856ZM44.8244 8.88372C44.9268 8.94302 45.0597 9.04533 45.1813 9.20107C45.3032 9.35705 45.3718 9.51294 45.4058 9.63184L39.6367 11.2802C39.9795 12.4799 40.7441 13.4545 41.8181 14.0763L44.8244 8.88372ZM45.4155 9.66665C45.4367 9.74411 45.4499 9.84505 45.4423 9.95607C45.4348 10.0656 45.4099 10.1447 45.3939 10.1839L39.8406 7.9121C39.4099 8.96491 39.3174 10.1104 39.627 11.2453L45.4155 9.66665ZM45.3484 10.2894C45.2652 10.4724 45.1424 10.6263 45.0137 10.7347C44.8946 10.835 44.8159 10.8586 44.8423 10.8492L42.8242 5.19877C41.6501 5.6181 40.51 6.43416 39.8862 7.80659L45.3484 10.2894ZM44.9062 10.8256C45.7619 10.4978 46.5088 10.2914 47.1541 10.1812L46.1444 4.26679C45.0403 4.45528 43.9099 4.78216 42.7603 5.22243L44.9062 10.8256ZM47.2106 10.171C47.9606 10.0282 48.5909 9.968 49.1133 9.968V3.968C48.1423 3.968 47.1299 4.0785 46.0879 4.27698L47.2106 10.171ZM49.1133 9.968C51.1528 9.968 52.0915 10.44 52.5119 10.8304L56.5946 6.43362C54.6257 4.60534 51.9377 3.968 49.1133 3.968V9.968ZM52.5333 10.85C52.8756 11.1618 53.3453 11.8925 53.3453 13.72H59.3453C59.3453 10.9395 58.6203 8.27822 56.5732 6.41397L52.5333 10.85ZM53.3453 13.72V20.824H59.3453V13.72H53.3453ZM53.3453 20.824C53.3453 21.2499 53.2423 21.0094 53.5654 20.654C53.7283 20.4748 53.913 20.3685 54.0525 20.3174C54.1748 20.2725 54.2114 20.288 54.1053 20.288V26.288C55.3919 26.288 56.886 25.921 58.0051 24.69C59.0748 23.5133 59.3453 22.0408 59.3453 20.824H53.3453ZM54.1053 20.288C53.9897 20.288 54.017 20.2714 54.1312 20.3127C54.2622 20.3601 54.4437 20.4615 54.6068 20.6384C54.9344 20.9936 54.8333 21.2406 54.8333 20.824H48.8333C48.8333 22.0501 49.1108 23.529 50.1957 24.7057C51.3231 25.9283 52.8201 26.288 54.1053 26.288V20.288ZM54.8333 20.824V20.632H48.8333V20.824H54.8333ZM49.0332 19.5551C48.9486 19.7751 48.8273 19.9338 48.5861 20.0879L51.8164 25.1441C53.1112 24.3169 54.0779 23.1529 54.6333 21.7089L49.0332 19.5551ZM48.5537 20.1089C48.3938 20.214 48.0803 20.352 47.4492 20.352V26.352C48.9942 26.352 50.5154 25.9993 51.8488 25.1231L48.5537 20.1089ZM48.5373 23.12C50.2074 23.12 51.7343 22.5096 52.9306 21.3133L48.6879 17.0707C48.6618 17.0968 48.6461 17.1079 48.6418 17.1108C48.638 17.1134 48.639 17.1123 48.6429 17.1107C48.6467 17.1092 48.6443 17.1108 48.6315 17.1132C48.6182 17.1157 48.5881 17.12 48.5373 17.12V23.12ZM52.9306 21.3133C54.1824 20.0615 54.7373 18.4633 54.7373 16.792H48.7373C48.7373 16.9654 48.7106 17.0372 48.7071 17.0461C48.7057 17.0497 48.7049 17.0513 48.7048 17.0515C48.7047 17.0517 48.7047 17.0517 48.7047 17.0517C48.7046 17.0518 48.7038 17.0532 48.7016 17.0559C48.6993 17.0586 48.6951 17.0636 48.6879 17.0707L52.9306 21.3133ZM54.7373 16.792V16.152H48.7373V16.792H54.7373ZM51.7373 13.152H50.6172V19.152H51.7373V13.152ZM50.6172 13.152C48.9411 13.152 47.227 13.2827 45.9268 13.8515L48.3317 19.3485C48.3068 19.3594 48.4548 19.2962 48.8954 19.2396C49.3111 19.1862 49.8773 19.152 50.6172 19.152V13.152ZM46.0001 13.8206C45.2462 14.1269 44.4709 14.64 43.8985 15.4628C43.3193 16.2955 43.1053 17.2192 43.1053 18.072H49.1053C49.1053 18.2208 49.0619 18.5472 48.824 18.8892C48.5929 19.2214 48.3297 19.3504 48.2584 19.3794L46.0001 13.8206ZM43.1053 18.072C43.1053 19.4289 43.6016 20.7286 44.65 21.7219L48.7765 17.3661C48.8642 17.4492 48.9619 17.5777 49.03 17.7427C49.0964 17.9033 49.1053 18.0268 49.1053 18.072H43.1053ZM44.7064 21.7739C45.8613 22.8134 47.2864 23.12 48.5373 23.12V17.12C48.3792 17.12 48.3445 17.1 48.3926 17.1153C48.4189 17.1235 48.4661 17.1412 48.5265 17.1748C48.5876 17.2088 48.6543 17.2549 48.7201 17.3141L44.7064 21.7739ZM62.4457 22.36L60.7816 24.8562L60.8115 24.8761L60.8418 24.8952L62.4457 22.36ZM60.0458 19.512L57.326 20.7781L57.3302 20.7872L57.3345 20.7963L60.0458 19.512ZM60.0458 10.776L57.3345 9.49174L60.0458 10.776ZM62.4457 7.96L60.8418 5.42476L60.83 5.43227L60.8182 5.43988L62.4457 7.96ZM68.9417 7.64L67.5741 10.3101L68.9417 7.64ZM70.9258 9.432L68.3533 10.9755L73.9258 20.263V9.432H70.9258ZM70.9577 20.728H73.9577L68.303 19.3308L70.9577 20.728ZM68.9737 22.648L67.5817 19.9905L67.5685 19.9974L67.5553 20.0045L68.9737 22.648ZM69.9977 18.616L67.752 16.6269L67.7358 16.6451L67.72 16.6636L69.9977 18.616ZM69.9977 11.704L67.72 13.6564L67.7499 13.6913L67.7809 13.7253L69.9977 11.704ZM65.0058 11.704L67.2553 13.6889L67.2695 13.6727L67.2835 13.6564L65.0058 11.704ZM65.0058 18.616L67.2835 16.6636L65.0058 18.616ZM66.0618 20.352C65.2033 20.352 64.5661 20.1515 64.0497 19.8248L60.8418 24.8952C62.4161 25.8912 64.1896 26.352 66.0618 26.352V20.352ZM64.1098 19.8638C63.5799 19.5106 63.1226 18.9997 62.757 18.2277L57.3345 20.7963C58.1209 22.4563 59.2636 23.8441 60.7816 24.8562L64.1098 19.8638ZM62.7655 18.2459C62.4122 17.487 62.1817 16.4762 62.1817 15.128H56.1818C56.1818 17.1505 56.5273 19.0624 57.326 20.7781L62.7655 18.2459ZM62.1817 15.128C62.1817 13.7777 62.4129 12.7867 62.757 12.0603L57.3345 9.49174C56.5266 11.1973 56.1818 13.1076 56.1818 15.128H62.1817ZM62.757 12.0603C63.1195 11.2949 63.5664 10.8075 64.0733 10.4801L60.8182 5.43988C59.2771 6.43518 58.124 7.82506 57.3345 9.49174L62.757 12.0603ZM64.0497 10.4952C64.5661 10.1685 65.2033 9.968 66.0618 9.968V3.968C64.1896 3.968 62.4161 4.42879 60.8418 5.42476L64.0497 10.4952ZM66.0618 9.968C66.6626 9.968 67.1496 10.0927 67.5741 10.3101L70.3094 4.96987C68.9846 4.29131 67.5516 3.968 66.0618 3.968V9.968ZM67.5741 10.3101C68.0157 10.5363 68.2296 10.7693 68.3533 10.9755L73.4982 7.88851C72.7259 6.60134 71.6172 5.63971 70.3094 4.96987L67.5741 10.3101ZM73.9258 9.432V2.616H67.9258V9.432H73.9258ZM73.9258 2.616C73.9258 2.23758 74.0184 2.50846 73.6748 2.86123C73.5125 3.02786 73.3447 3.11099 73.2471 3.14439C73.1649 3.17252 73.1737 3.152 73.3258 3.152V-2.848C72.043 -2.848 70.5346 -2.51397 69.3767 -1.32523C68.2331 -0.151129 67.9258 1.35175 67.9258 2.616H73.9258ZM73.3258 3.152C73.4866 3.152 73.5042 3.1734 73.4299 3.14829C73.3405 3.11812 73.1764 3.03933 73.0146 2.87541C72.6675 2.52375 72.7578 2.24731 72.7578 2.616H78.7578C78.7578 1.34203 78.4426 -0.16642 77.2849 -1.33941C76.12 -2.51963 74.6088 -2.848 73.3258 -2.848V3.152ZM72.7578 2.616V20.824H78.7578V2.616H72.7578ZM72.7578 20.824C72.7578 21.2024 72.6651 20.9315 73.0087 20.5788C73.171 20.4121 73.3388 20.329 73.4364 20.2956C73.5186 20.2675 73.5098 20.288 73.3577 20.288V26.288C74.6405 26.288 76.1489 25.954 77.3068 24.7652C78.4504 23.5911 78.7578 22.0882 78.7578 20.824H72.7578ZM73.3577 20.288C73.2057 20.288 73.1969 20.2675 73.2791 20.2956C73.3767 20.329 73.5445 20.4121 73.7068 20.5788C74.0504 20.9315 73.9577 21.2024 73.9577 20.824H67.9577C67.9577 22.0882 68.2651 23.5911 69.4087 24.7652C70.5666 25.954 72.075 26.288 73.3577 26.288V20.288ZM73.9577 20.824V20.728H67.9577V20.824H73.9577ZM68.303 19.3308C68.189 19.5473 67.9974 19.7728 67.5817 19.9905L70.3658 25.3055C71.7421 24.5845 72.8731 23.53 73.6125 22.1252L68.303 19.3308ZM67.5553 20.0045C67.149 20.2225 66.6714 20.352 66.0618 20.352V26.352C67.5855 26.352 69.0491 26.0122 70.3922 25.2915L67.5553 20.0045ZM67.5017 22.736C69.3602 22.736 71.0392 22.0107 72.2755 20.5684L67.72 16.6636C67.6892 16.6995 67.6702 16.7147 67.6652 16.7185C67.6607 16.7219 67.6618 16.7206 67.6656 16.7189C67.6691 16.7173 67.6634 16.7206 67.6422 16.7249C67.62 16.7294 67.5751 16.736 67.5017 16.736V22.736ZM72.2435 20.6051C73.6053 19.0676 73.9898 17.0339 73.9898 15.128H67.9898C67.9898 16.3795 67.7128 16.6711 67.752 16.6269L72.2435 20.6051ZM73.9898 15.128C73.9898 13.2408 73.6041 11.2067 72.2146 9.68274L67.7809 13.7253C67.7437 13.6845 67.7962 13.7177 67.8602 13.9388C67.927 14.1691 67.9898 14.5496 67.9898 15.128H73.9898ZM72.2755 9.75163C71.0392 8.30925 69.3602 7.584 67.5017 7.584V13.584C67.5751 13.584 67.62 13.5906 67.6422 13.5951C67.6634 13.5994 67.6691 13.6027 67.6656 13.6011C67.6618 13.5994 67.6607 13.5981 67.6652 13.6015C67.6702 13.6053 67.6892 13.6205 67.72 13.6564L72.2755 9.75163ZM67.5017 7.584C65.6433 7.584 63.9643 8.30926 62.728 9.75163L67.2835 13.6564C67.3143 13.6205 67.3333 13.6053 67.3383 13.6015C67.3428 13.5981 67.3417 13.5994 67.3379 13.6011C67.3344 13.6027 67.3401 13.5994 67.3614 13.5951C67.3835 13.5906 67.4284 13.584 67.5017 13.584V7.584ZM62.7562 9.71914C61.4126 11.2419 61.0458 13.26 61.0458 15.128H67.0458C67.0458 14.5427 67.1072 14.1533 67.1744 13.9139C67.2394 13.6819 67.2937 13.6453 67.2553 13.6889L62.7562 9.71914ZM61.0458 15.128C61.0458 17.0153 61.4118 19.0328 62.728 20.5684L67.2835 16.6636C67.3086 16.6929 67.2469 16.6376 67.1782 16.3879C67.1077 16.1316 67.0458 15.7262 67.0458 15.128H61.0458ZM62.728 20.5684C63.9643 22.0107 65.6433 22.736 67.5017 22.736V16.736C67.4284 16.736 67.3835 16.7294 67.3614 16.7249C67.3401 16.7206 67.3344 16.7173 67.3379 16.7189C67.3417 16.7206 67.3428 16.7219 67.3383 16.7185C67.3333 16.7147 67.3143 16.6995 67.2835 16.6636L62.728 20.5684ZM84.281 9.56H81.281V20.7294L86.8773 11.0631L84.281 9.56ZM86.201 7.672L87.6521 10.2977L87.6635 10.2914L87.675 10.2849L86.201 7.672ZM91.897 7.704L90.2818 10.2321L90.2975 10.2421L90.3132 10.2519L91.897 7.704ZM93.689 9.944L90.9077 11.0684L93.3405 17.0865L96.3477 11.3338L93.689 9.944ZM95.801 7.768L97.2631 10.3876L97.2731 10.382L97.283 10.3764L95.801 7.768ZM102.905 8.6L100.567 10.4797L100.576 10.491L100.585 10.5022L102.905 8.6ZM103.577 22.648L101.456 20.5267L101.428 20.5539L101.402 20.5818L103.577 22.648ZM98.873 11.448L96.3602 13.0868L96.4019 13.1508L96.4468 13.2125L98.873 11.448ZM90.105 22.648L92.2263 20.5267L90.105 22.648ZM88.953 11.448L86.4903 13.1612L86.5083 13.187L86.5268 13.2125L88.953 11.448ZM85.145 11.672L87.4876 13.5461L85.145 11.672ZM81.977 20.288C81.8161 20.288 81.7985 20.2666 81.8729 20.2917C81.9622 20.3219 82.1264 20.4007 82.2881 20.5646C82.6352 20.9162 82.545 21.1927 82.545 20.824H76.545C76.545 22.098 76.8601 23.6064 78.0179 24.7794C79.1828 25.9596 80.6939 26.288 81.977 26.288V20.288ZM82.545 20.824V9.464H76.545V20.824H82.545ZM82.545 9.464C82.545 9.09599 82.6351 9.37472 82.2864 9.73285C82.1215 9.90222 81.9504 9.98747 81.8487 10.0223C81.7624 10.0518 81.7664 10.032 81.913 10.032V4.032C80.6406 4.032 79.1401 4.36352 77.9876 5.54715C76.8495 6.71594 76.545 8.21067 76.545 9.464H82.545ZM81.913 10.032C82.0596 10.032 82.0636 10.0518 81.9773 10.0223C81.8756 9.98747 81.7045 9.90222 81.5396 9.73285C81.1909 9.37472 81.281 9.09599 81.281 9.464H87.281C87.281 8.21067 86.9764 6.71594 85.8384 5.54715C84.6859 4.36352 83.1854 4.032 81.913 4.032V10.032ZM81.281 9.464V9.56H87.281V9.464H81.281ZM86.8773 11.0631C87.0771 10.718 87.3236 10.4792 87.6521 10.2977L84.7499 5.04627C83.4571 5.76076 82.4236 6.78066 81.6847 8.05689L86.8773 11.0631ZM87.675 10.2849C87.9977 10.1029 88.4366 9.968 89.081 9.968V3.968C87.5494 3.968 86.0683 4.30245 84.727 5.05906L87.675 10.2849ZM89.081 9.968C89.743 9.968 90.0917 10.1106 90.2818 10.2321L93.5122 5.17591C92.1663 4.31602 90.6376 3.968 89.081 3.968V9.968ZM90.3132 10.2519C90.4778 10.3542 90.7003 10.5553 90.9077 11.0684L96.4703 8.81963C95.8671 7.32738 94.8948 6.03513 93.4808 5.15614L90.3132 10.2519ZM96.3477 11.3338C96.5701 10.9083 96.8603 10.6124 97.2631 10.3876L94.3389 5.14841C92.907 5.94759 91.7892 7.1024 91.0303 8.55424L96.3477 11.3338ZM97.283 10.3764C97.7482 10.112 98.2684 9.968 98.905 9.968V3.968C97.2803 3.968 95.7311 4.35728 94.319 5.15963L97.283 10.3764ZM98.905 9.968C100.068 9.968 100.417 10.2926 100.567 10.4797L105.243 6.72033C103.644 4.73135 101.326 3.968 98.905 3.968V9.968ZM100.585 10.5022C100.819 10.7873 101.217 11.6111 101.217 13.56H107.217C107.217 11.0289 106.74 8.54605 105.225 6.69776L100.585 10.5022ZM101.217 13.56V20.824H107.217V13.56H101.217ZM101.217 20.824C101.217 20.9538 101.199 20.9565 101.226 20.8787C101.24 20.8383 101.265 20.7814 101.306 20.7158C101.347 20.6497 101.397 20.5852 101.456 20.5267L105.698 24.7693C106.845 23.6223 107.217 22.154 107.217 20.824H101.217ZM101.402 20.5818C101.538 20.4381 101.692 20.3507 101.808 20.3086C101.909 20.2719 101.929 20.288 101.817 20.288V26.288C103.144 26.288 104.621 25.9043 105.752 24.7142L101.402 20.5818ZM101.817 20.288C101.656 20.288 101.639 20.2666 101.713 20.2917C101.802 20.3219 101.966 20.4007 102.128 20.5646C102.475 20.9162 102.385 21.1927 102.385 20.824H96.385C96.385 22.098 96.7001 23.6064 97.8579 24.7794C99.0228 25.9596 100.534 26.288 101.817 26.288V20.288ZM102.385 20.824V13.72H96.385V20.824H102.385ZM102.385 13.72C102.385 12.4858 102.21 10.9357 101.299 9.68349L96.4468 13.2125C96.3107 13.0254 96.3062 12.9201 96.3304 13.0275C96.3535 13.13 96.385 13.3482 96.385 13.72H102.385ZM101.386 9.80919C100.328 8.18732 98.6217 7.712 97.209 7.712V13.712C97.3062 13.712 97.205 13.7288 97.0035 13.6396C96.7698 13.5362 96.5289 13.3455 96.3602 13.0868L101.386 9.80919ZM97.209 7.712C95.5037 7.712 93.8765 8.35522 92.7224 9.79791L97.4076 13.5461C97.3981 13.558 97.3748 13.5841 97.3359 13.6145C97.2966 13.6453 97.2532 13.6711 97.211 13.6901C97.1222 13.7298 97.1012 13.712 97.209 13.712V7.712ZM92.7224 9.79791C91.6349 11.1573 91.297 12.8242 91.297 14.392H97.297C97.297 13.6131 97.4711 13.4667 97.4076 13.5461L92.7224 9.79791ZM91.297 14.392V20.824H97.297V14.392H91.297ZM91.297 20.824C91.297 21.2024 91.2044 20.9315 91.548 20.5788C91.7103 20.4121 91.8781 20.329 91.9756 20.2956C92.0578 20.2675 92.049 20.288 91.897 20.288V26.288C93.1798 26.288 94.6882 25.954 95.846 24.7652C96.9896 23.5911 97.297 22.0882 97.297 20.824H91.297ZM91.897 20.288C91.7866 20.288 91.7967 20.2723 91.882 20.3028C91.9797 20.3377 92.1095 20.4099 92.2263 20.5267L87.9837 24.7693C89.1159 25.9015 90.5612 26.288 91.897 26.288V20.288ZM92.2263 20.5267C92.2848 20.5852 92.3355 20.6497 92.3764 20.7158C92.4169 20.7814 92.4416 20.8383 92.4558 20.8787C92.4831 20.9565 92.465 20.9538 92.465 20.824H86.465C86.465 22.154 86.8366 23.6223 87.9837 24.7693L92.2263 20.5267ZM92.465 20.824V13.72H86.465V20.824H92.465ZM92.465 13.72C92.465 12.4858 92.2899 10.9357 91.3792 9.68349L86.5268 13.2125C86.3907 13.0254 86.3862 12.9201 86.4104 13.0275C86.4335 13.13 86.465 13.3482 86.465 13.72H92.465ZM91.4157 9.73481C90.3565 8.21211 88.7274 7.712 87.289 7.712V13.712C87.3625 13.712 87.2597 13.7246 87.0675 13.6396C86.8496 13.5433 86.6385 13.3743 86.4903 13.1612L91.4157 9.73481ZM87.289 7.712C85.5837 7.712 83.9566 8.35522 82.8024 9.79791L87.4876 13.5461C87.4781 13.558 87.4548 13.5841 87.4159 13.6145C87.3766 13.6453 87.3332 13.6711 87.291 13.6901C87.2022 13.7298 87.1811 13.712 87.289 13.712V7.712ZM82.8024 9.79791C81.7149 11.1573 81.377 12.8242 81.377 14.392H87.377C87.377 13.6131 87.5511 13.4667 87.4876 13.5461L82.8024 9.79791ZM81.377 14.392V20.824H87.377V14.392H81.377ZM81.377 20.824C81.377 21.2024 81.2843 20.9315 81.628 20.5788C81.7903 20.4121 81.9581 20.329 82.0556 20.2956C82.1378 20.2675 82.129 20.288 81.977 20.288V26.288C83.2598 26.288 84.7682 25.954 85.926 24.7652C87.0696 23.5911 87.377 22.0882 87.377 20.824H81.377ZM110.127 22.68L108.785 25.3633L110.127 22.68ZM107.982 20.856L105.486 22.5201L105.502 22.5438L105.518 22.5672L107.982 20.856ZM108.11 15.544L105.853 13.5685L108.11 15.544ZM111.022 14.104L111.629 17.0421L111.651 17.0375L111.673 17.0326L111.022 14.104ZM117.519 13.656V16.656H120.519V13.656H117.519ZM116.879 11.128L114.812 13.303L114.842 13.3308L114.872 13.3579L116.879 11.128ZM112.814 10.744L113.367 13.6926L113.412 13.6843L113.456 13.6747L112.814 10.744ZM110.606 11.416L109.479 8.63578L109.452 8.6469L109.425 8.65856L110.606 11.416ZM109.103 11.48L107.599 14.0763L107.652 14.1066L107.705 14.1348L109.103 11.48ZM108.302 10.456L105.408 11.2453L105.413 11.2628L105.418 11.2802L108.302 10.456ZM108.398 9.048L105.667 7.80659L105.644 7.85891L105.622 7.9121L108.398 9.048ZM109.615 8.024L110.624 10.8492L110.656 10.8378L110.687 10.8256L109.615 8.024ZM112.431 7.224L112.935 10.1812L112.964 10.1764L112.992 10.171L112.431 7.224ZM120.335 8.632L118.293 10.8304L118.304 10.8403L118.315 10.85L120.335 8.632ZM117.615 20.632H120.615L114.814 19.5551L117.615 20.632ZM115.982 22.616L114.367 20.0879L114.351 20.0983L114.335 20.1089L115.982 22.616ZM116.59 19.192L118.712 21.3133L116.59 19.192ZM117.519 16.152H120.519V13.152H117.519V16.152ZM112.91 16.6L114.04 19.3794L114.076 19.3644L114.113 19.3485L112.91 16.6ZM112.494 19.544L110.431 21.7219L110.459 21.7482L110.488 21.7739L112.494 19.544ZM113.23 20.352C112.443 20.352 111.882 20.2036 111.468 19.9967L108.785 25.3633C110.163 26.0524 111.671 26.352 113.23 26.352V20.352ZM111.468 19.9967C110.989 19.757 110.673 19.4705 110.447 19.1448L105.518 22.5672C106.359 23.7775 107.472 24.707 108.785 25.3633L111.468 19.9967ZM110.479 19.1919C110.309 18.9372 110.215 18.6568 110.215 18.264H104.215C104.215 19.7912 104.632 21.2388 105.486 22.5201L110.479 19.1919ZM110.215 18.264C110.215 17.6744 110.359 17.5301 110.368 17.5195L105.853 13.5685C104.667 14.9232 104.215 16.5923 104.215 18.264H110.215ZM110.368 17.5195C110.364 17.5244 110.614 17.2515 111.629 17.0421L110.416 11.1659C108.743 11.5111 107.052 12.1983 105.853 13.5685L110.368 17.5195ZM111.673 17.0326C112.715 16.8012 114.251 16.656 116.367 16.656V10.656C114.044 10.656 112.019 10.8095 110.372 11.1754L111.673 17.0326ZM116.367 16.656H117.519V10.656H116.367V16.656ZM120.519 13.656V13.112H114.519V13.656H120.519ZM120.519 13.112C120.519 11.8465 120.25 10.1261 118.885 8.89812L114.872 13.3579C114.617 13.1284 114.525 12.8999 114.503 12.833C114.487 12.7824 114.519 12.8532 114.519 13.112H120.519ZM118.945 8.953C117.671 7.74278 115.972 7.52 114.702 7.52V13.52C114.861 13.52 114.982 13.5279 115.069 13.5381C115.157 13.5483 115.2 13.5593 115.207 13.5613C115.227 13.5668 115.039 13.5189 114.812 13.303L118.945 8.953ZM114.702 7.52C113.871 7.52 113.024 7.62729 112.173 7.8133L113.456 13.6747C113.971 13.562 114.382 13.52 114.702 13.52V7.52ZM112.262 7.79538C111.344 7.9674 110.414 8.25682 109.479 8.63578L111.734 14.1962C112.378 13.9352 112.919 13.7766 113.367 13.6926L112.262 7.79538ZM109.425 8.65856C109.366 8.68358 109.453 8.6353 109.655 8.62671C109.882 8.61706 110.189 8.66185 110.5 8.82524L107.705 14.1348C109.205 14.9243 110.724 14.6297 111.788 14.1734L109.425 8.65856ZM110.606 8.88372C110.708 8.94302 110.841 9.04533 110.963 9.20107C111.084 9.35705 111.153 9.51294 111.187 9.63184L105.418 11.2802C105.761 12.4799 106.525 13.4545 107.599 14.0763L110.606 8.88372ZM111.197 9.66665C111.218 9.74411 111.231 9.84505 111.224 9.95607C111.216 10.0656 111.191 10.1447 111.175 10.1839L105.622 7.9121C105.191 8.96491 105.099 10.1104 105.408 11.2453L111.197 9.66665ZM111.13 10.2894C111.046 10.4724 110.924 10.6263 110.795 10.7347C110.676 10.835 110.597 10.8586 110.624 10.8492L108.605 5.19877C107.431 5.6181 106.291 6.43416 105.667 7.80659L111.13 10.2894ZM110.687 10.8256C111.543 10.4978 112.29 10.2914 112.935 10.1812L111.926 4.26679C110.822 4.45528 109.691 4.78216 108.542 5.22243L110.687 10.8256ZM112.992 10.171C113.742 10.0282 114.372 9.968 114.895 9.968V3.968C113.924 3.968 112.911 4.0785 111.869 4.27698L112.992 10.171ZM114.895 9.968C116.934 9.968 117.873 10.44 118.293 10.8304L122.376 6.43362C120.407 4.60534 117.719 3.968 114.895 3.968V9.968ZM118.315 10.85C118.657 11.1618 119.127 11.8925 119.127 13.72H125.126C125.126 10.9395 124.402 8.27822 122.354 6.41397L118.315 10.85ZM119.127 13.72V20.824H125.126V13.72H119.127ZM119.127 20.824C119.127 21.2499 119.024 21.0094 119.347 20.654C119.51 20.4748 119.694 20.3685 119.834 20.3174C119.956 20.2725 119.993 20.288 119.886 20.288V26.288C121.173 26.288 122.667 25.921 123.786 24.69C124.856 23.5133 125.126 22.0408 125.126 20.824H119.127ZM119.886 20.288C119.771 20.288 119.798 20.2714 119.912 20.3127C120.043 20.3601 120.225 20.4615 120.388 20.6384C120.716 20.9936 120.615 21.2406 120.615 20.824H114.615C114.615 22.0501 114.892 23.529 115.977 24.7057C117.104 25.9283 118.601 26.288 119.886 26.288V20.288ZM120.615 20.824V20.632H114.615V20.824H120.615ZM114.814 19.5551C114.73 19.7751 114.609 19.9338 114.367 20.0879L117.598 25.1441C118.892 24.3169 119.859 23.1529 120.415 21.7089L114.814 19.5551ZM114.335 20.1089C114.175 20.214 113.862 20.352 113.23 20.352V26.352C114.775 26.352 116.297 25.9993 117.63 25.1231L114.335 20.1089ZM114.318 23.12C115.989 23.12 117.516 22.5096 118.712 21.3133L114.469 17.0707C114.443 17.0968 114.427 17.1079 114.423 17.1108C114.419 17.1134 114.42 17.1123 114.424 17.1107C114.428 17.1092 114.426 17.1108 114.413 17.1132C114.399 17.1157 114.369 17.12 114.318 17.12V23.12ZM118.712 21.3133C119.964 20.0615 120.519 18.4633 120.519 16.792H114.519C114.519 16.9654 114.492 17.0372 114.488 17.0461C114.487 17.0497 114.486 17.0513 114.486 17.0515C114.486 17.0517 114.486 17.0517 114.486 17.0517C114.486 17.0518 114.485 17.0532 114.483 17.0559C114.481 17.0586 114.476 17.0636 114.469 17.0707L118.712 21.3133ZM120.519 16.792V16.152H114.519V16.792H120.519ZM117.519 13.152H116.398V19.152H117.519V13.152ZM116.398 13.152C114.722 13.152 113.008 13.2827 111.708 13.8515L114.113 19.3485C114.088 19.3594 114.236 19.2962 114.677 19.2396C115.092 19.1862 115.659 19.152 116.398 19.152V13.152ZM111.781 13.8206C111.027 14.1269 110.252 14.64 109.68 15.4628C109.101 16.2955 108.886 17.2192 108.886 18.072H114.886C114.886 18.2208 114.843 18.5472 114.605 18.8892C114.374 19.2214 114.111 19.3504 114.04 19.3794L111.781 13.8206ZM108.886 18.072C108.886 19.4289 109.383 20.7286 110.431 21.7219L114.558 17.3661C114.645 17.4492 114.743 17.5777 114.811 17.7427C114.878 17.9033 114.886 18.0268 114.886 18.072H108.886ZM110.488 21.7739C111.643 22.8134 113.068 23.12 114.318 23.12V17.12C114.16 17.12 114.126 17.1 114.174 17.1153C114.2 17.1235 114.247 17.1412 114.308 17.1748C114.369 17.2088 114.436 17.2549 114.501 17.3141L110.488 21.7739ZM130.499 9.56H127.499V20.9234L133.108 11.0408L130.499 9.56ZM132.483 7.672L133.901 10.3155L132.483 7.672ZM139.011 7.96L137.383 10.4801L137.395 10.4877L137.407 10.4952L139.011 7.96ZM141.443 10.776L144.154 9.49174L141.443 10.776ZM141.443 19.512L144.154 20.7963L144.159 20.7872L144.163 20.7781L141.443 19.512ZM139.011 22.36L140.639 24.8801L140.645 24.876L140.651 24.8718L139.011 22.36ZM132.547 22.68L131.152 25.3362L131.166 25.3432L131.179 25.3501L132.547 22.68ZM130.563 20.888L133.103 19.2915L127.563 10.478V20.888H130.563ZM136.483 18.616L134.205 16.6636L136.483 18.616ZM136.483 11.704L134.205 13.6564L134.219 13.6727L134.233 13.6889L136.483 11.704ZM131.459 11.704L133.709 13.6889L133.723 13.6727L133.737 13.6564L131.459 11.704ZM131.459 18.616L133.737 16.6636L131.459 18.616ZM128.163 26.048C128.002 26.048 127.985 26.0266 128.059 26.0517C128.148 26.0819 128.312 26.1607 128.474 26.3246C128.821 26.6763 128.731 26.9527 128.731 26.584H122.731C122.731 27.858 123.046 29.3664 124.204 30.5394C125.369 31.7196 126.88 32.048 128.163 32.048V26.048ZM128.731 26.584V9.464H122.731V26.584H128.731ZM128.731 9.464C128.731 9.09599 128.821 9.37472 128.472 9.73285C128.307 9.90222 128.136 9.98747 128.035 10.0223C127.948 10.0518 127.952 10.032 128.099 10.032V4.032C126.827 4.032 125.326 4.36352 124.174 5.54715C123.036 6.71594 122.731 8.21067 122.731 9.464H128.731ZM128.099 10.032C128.255 10.032 128.267 10.0527 128.189 10.0262C128.096 9.9947 127.928 9.91385 127.764 9.74722C127.411 9.39022 127.499 9.10584 127.499 9.464H133.499C133.499 8.20082 133.187 6.70045 132.034 5.53277C130.875 4.35777 129.372 4.032 128.099 4.032V10.032ZM127.499 9.464V9.56H133.499V9.464H127.499ZM133.108 11.0408C133.251 10.7893 133.477 10.5433 133.901 10.3155L131.065 5.02852C129.74 5.73938 128.643 6.75206 127.89 8.07918L133.108 11.0408ZM133.901 10.3155C134.299 10.1021 134.785 9.968 135.427 9.968V3.968C133.893 3.968 132.416 4.30319 131.065 5.02852L133.901 10.3155ZM135.427 9.968C136.287 9.968 136.901 10.1687 137.383 10.4801L140.639 5.43988C139.073 4.42859 137.298 3.968 135.427 3.968V9.968ZM137.407 10.4952C137.93 10.8263 138.377 11.3109 138.732 12.0603L144.154 9.49174C143.357 7.80914 142.182 6.4164 140.615 5.42476L137.407 10.4952ZM138.732 12.0603C139.076 12.7867 139.307 13.7777 139.307 15.128H145.307C145.307 13.1076 144.962 11.1973 144.154 9.49174L138.732 12.0603ZM139.307 15.128C139.307 16.4762 139.077 17.487 138.723 18.2459L144.163 20.7781C144.961 19.0624 145.307 17.1505 145.307 15.128H139.307ZM138.732 18.2277C138.374 18.984 137.917 19.4916 137.371 19.8482L140.651 24.8718C142.196 23.863 143.36 22.472 144.154 20.7963L138.732 18.2277ZM137.383 19.8399C136.901 20.1513 136.287 20.352 135.427 20.352V26.352C137.298 26.352 139.073 25.8914 140.639 24.8801L137.383 19.8399ZM135.427 20.352C134.826 20.352 134.339 20.2273 133.915 20.0099L131.179 25.3501C132.504 26.0287 133.937 26.352 135.427 26.352V20.352ZM133.941 20.0238C133.512 19.7983 133.265 19.5491 133.103 19.2915L128.023 22.4845C128.8 23.7202 129.875 24.6657 131.152 25.3362L133.941 20.0238ZM127.563 20.888V26.584H133.563V20.888H127.563ZM127.563 26.584C127.563 26.9624 127.47 26.6915 127.814 26.3388C127.976 26.1721 128.144 26.089 128.242 26.0556C128.324 26.0275 128.315 26.048 128.163 26.048V32.048C129.446 32.048 130.954 31.714 132.112 30.5252C133.256 29.3511 133.563 27.8483 133.563 26.584H127.563ZM133.987 22.736C135.845 22.736 137.524 22.0107 138.761 20.5684L134.205 16.6636C134.174 16.6995 134.155 16.7147 134.15 16.7185C134.146 16.7219 134.147 16.7206 134.151 16.7189C134.154 16.7173 134.149 16.7206 134.127 16.7249C134.105 16.7294 134.06 16.736 133.987 16.736V22.736ZM138.761 20.5684C140.077 19.0328 140.443 17.0153 140.443 15.128H134.443C134.443 15.7262 134.381 16.1316 134.311 16.3879C134.242 16.6376 134.18 16.6929 134.205 16.6636L138.761 20.5684ZM140.443 15.128C140.443 13.26 140.076 11.2419 138.733 9.71914L134.233 13.6889C134.195 13.6453 134.249 13.6819 134.314 13.9139C134.382 14.1533 134.443 14.5427 134.443 15.128H140.443ZM138.761 9.75163C137.524 8.30925 135.845 7.584 133.987 7.584V13.584C134.06 13.584 134.105 13.5906 134.127 13.5951C134.149 13.5994 134.154 13.6027 134.151 13.6011C134.147 13.5994 134.146 13.5981 134.15 13.6015C134.155 13.6053 134.174 13.6205 134.205 13.6564L138.761 9.75163ZM133.987 7.584C132.129 7.584 130.431 8.29382 129.181 9.75163L133.737 13.6564C133.765 13.6238 133.782 13.6106 133.785 13.6078C133.788 13.6061 133.788 13.6058 133.787 13.6062C133.787 13.6066 133.786 13.6069 133.786 13.6069C133.786 13.6068 133.789 13.6058 133.794 13.6042C133.799 13.6025 133.808 13.5999 133.823 13.597C133.852 13.5913 133.904 13.584 133.987 13.584V7.584ZM129.209 9.71914C127.866 11.2419 127.499 13.26 127.499 15.128H133.499C133.499 14.5427 133.56 14.1533 133.628 13.9139C133.693 13.6819 133.747 13.6453 133.709 13.6889L129.209 9.71914ZM127.499 15.128C127.499 17.0153 127.865 19.0328 129.181 20.5684L133.737 16.6636C133.762 16.6929 133.7 16.6376 133.631 16.3879C133.561 16.1316 133.499 15.7262 133.499 15.128H127.499ZM129.181 20.5684C130.431 22.0262 132.129 22.736 133.987 22.736V16.736C133.904 16.736 133.852 16.7287 133.823 16.723C133.808 16.7201 133.799 16.7175 133.794 16.7158C133.789 16.7142 133.786 16.7132 133.786 16.7131C133.786 16.7131 133.787 16.7134 133.787 16.7138C133.788 16.7142 133.788 16.7139 133.785 16.7122C133.782 16.7094 133.765 16.6962 133.737 16.6636L129.181 20.5684Z" fill="#5B3511"/>
</g>
<defs>
<filter id="filter0_d_42_598" x="0.865723" y="0.151855" width="142.441" height="31.896" filterUnits="userSpaceOnUse" color-interpolation-filters="sRGB">
<feFlood flood-opacity="0" result="BackgroundImageFix"/>
<feColorMatrix in="SourceAlpha" type="matrix" values="0 0 0 0 0 0 0 0 0 0 0 0 0 0 0 0 0 0 127 0" result="hardAlpha"/>
<feOffset dy="2"/>
<feGaussianBlur stdDeviation="0.5"/>
<feComposite in2="hardAlpha" operator="out"/>
<feColorMatrix type="matrix" values="0 0 0 0 0 0 0 0 0 0 0 0 0 0 0 0 0 0 0.25 0"/>
<feBlend mode="normal" in2="BackgroundImageFix" result="effect1_dropShadow_42_598"/>
<feBlend mode="normal" in="SourceGraphic" in2="effect1_dropShadow_42_598" result="shape"/>
</filter>
<linearGradient id="paint0_linear_42_598" x1="71.5" y1="-13" x2="71.5" y2="37" gradientUnits="userSpaceOnUse">
<stop stop-color="#FDE092"/>
<stop offset="1" stop-color="#C18B2C"/>
</linearGradient>
</defs>
</svg>
