<svg width="175" height="40" viewBox="0 0 175 40" fill="none" xmlns="http://www.w3.org/2000/svg">
<g filter="url(#filter0_d_232_76)">
<path d="M4.52397 29.9157C3.51063 29.9157 2.7373 29.6357 2.20397 29.0757C1.67063 28.5157 1.40396 27.729 1.40396 26.7157V4.51566C1.40396 2.409 2.4573 1.35566 4.56397 1.35566H14.284C17.4306 1.35566 19.8573 2.15566 21.564 3.75566C23.2706 5.329 24.124 7.529 24.124 10.3557C24.124 13.1823 23.2706 15.3957 21.564 16.9957C19.8573 18.5957 17.4306 19.3957 14.284 19.3957H7.60397V26.7157C7.60397 27.729 7.3373 28.5157 6.80397 29.0757C6.2973 29.6357 5.5373 29.9157 4.52397 29.9157ZM7.60397 14.5957H13.244C16.524 14.5957 18.164 13.1823 18.164 10.3557C18.164 7.58233 16.524 6.19566 13.244 6.19566H7.60397V14.5957ZM34.5265 29.9957C29.8065 29.9957 27.4465 27.369 27.4465 22.1157V4.07566C27.4465 2.02233 28.4598 0.995662 30.4865 0.995662C32.4865 0.995662 33.4865 2.02233 33.4865 4.07566V21.8757C33.4865 22.969 33.7131 23.7823 34.1665 24.3157C34.6465 24.8223 35.2731 25.0757 36.0465 25.0757C36.2598 25.0757 36.4598 25.0623 36.6465 25.0357C36.8598 25.009 37.0598 24.9957 37.2465 24.9957C37.6731 24.969 37.9665 25.1023 38.1265 25.3957C38.3131 25.689 38.4065 26.289 38.4065 27.1957C38.4065 28.7423 37.7531 29.6223 36.4465 29.8357C36.1798 29.8623 35.8731 29.889 35.5265 29.9157C35.1798 29.969 34.8465 29.9957 34.5265 29.9957ZM47.4068 29.9957C45.9401 29.9957 44.6468 29.7157 43.5268 29.1557C42.4068 28.5957 41.5134 27.8357 40.8468 26.8757C40.2068 25.9157 39.8868 24.8357 39.8868 23.6357C39.8868 22.2223 40.2601 21.089 41.0068 20.2357C41.7534 19.3823 42.9668 18.7823 44.6468 18.4357C46.3268 18.0623 48.5534 17.8757 51.3268 17.8757H52.7668V17.1957C52.7668 16.0223 52.5001 15.1957 51.9668 14.7157C51.4334 14.209 50.5268 13.9557 49.2468 13.9557C48.5268 13.9557 47.7401 14.049 46.8868 14.2357C46.0334 14.3957 45.1134 14.6757 44.1268 15.0757C43.3801 15.3957 42.7534 15.4223 42.2468 15.1557C41.7401 14.8623 41.4068 14.4357 41.2468 13.8757C41.0868 13.289 41.1268 12.7023 41.3668 12.1157C41.6334 11.529 42.1401 11.1023 42.8868 10.8357C44.1401 10.3557 45.3134 10.0223 46.4068 9.83566C47.5268 9.62233 48.5534 9.51566 49.4868 9.51566C52.5268 9.51566 54.7934 10.209 56.2868 11.5957C57.7801 12.9557 58.5268 15.0757 58.5268 17.9557V26.8357C58.5268 28.889 57.5934 29.9157 55.7268 29.9157C53.8334 29.9157 52.8868 28.889 52.8868 26.8357V26.5957C52.4868 27.6357 51.8068 28.4623 50.8468 29.0757C49.9134 29.689 48.7668 29.9957 47.4068 29.9957ZM48.7668 25.9557C49.8868 25.9557 50.8334 25.569 51.6068 24.7957C52.3801 24.0223 52.7668 23.0223 52.7668 21.7957V20.9957H51.3668C49.3134 20.9957 47.8601 21.1823 47.0068 21.5557C46.1534 21.9023 45.7268 22.5157 45.7268 23.3957C45.7268 24.1423 45.9801 24.7557 46.4868 25.2357C47.0201 25.7157 47.7801 25.9557 48.7668 25.9557ZM68.1971 37.1157C67.1304 37.1157 66.3704 36.7157 65.9171 35.9157C65.4904 35.1423 65.5171 34.2357 65.9971 33.1957L68.1171 28.4757L61.5971 13.5157C61.1704 12.4757 61.1704 11.569 61.5971 10.7957C62.0504 9.99566 62.9438 9.59566 64.2771 9.59566C64.9971 9.59566 65.5704 9.769 65.9971 10.1157C66.4504 10.4357 66.8638 11.0623 67.2371 11.9957L71.3171 22.3957L75.5571 11.9557C75.9304 11.049 76.3438 10.4357 76.7971 10.1157C77.2771 9.769 77.9171 9.59566 78.7171 9.59566C79.7304 9.59566 80.4371 9.99566 80.8371 10.7957C81.2638 11.569 81.2504 12.4623 80.7971 13.4757L71.3971 34.7957C70.9971 35.7023 70.5438 36.3157 70.0371 36.6357C69.5571 36.9557 68.9438 37.1157 68.1971 37.1157ZM98.3771 29.9157C96.3504 29.9157 95.3371 28.889 95.3371 26.8357V12.6357C95.3371 10.609 96.3238 9.59566 98.2971 9.59566C100.27 9.59566 101.257 10.609 101.257 12.6357V12.7957C101.924 11.729 102.817 10.9157 103.937 10.3557C105.057 9.79566 106.31 9.51566 107.697 9.51566C110.017 9.51566 111.75 10.1957 112.897 11.5557C114.044 12.889 114.617 14.9557 114.617 17.7557V26.8357C114.617 28.889 113.604 29.9157 111.577 29.9157C110.617 29.9157 109.87 29.649 109.337 29.1157C108.83 28.5823 108.577 27.8223 108.577 26.8357V18.0357C108.577 16.6757 108.324 15.7023 107.817 15.1157C107.31 14.5023 106.564 14.1957 105.577 14.1957C104.297 14.1957 103.27 14.5957 102.497 15.3957C101.75 16.1957 101.377 17.2623 101.377 18.5957V26.8357C101.377 28.889 100.377 29.9157 98.3771 29.9157ZM128.566 29.9957C126.459 29.9957 124.619 29.5823 123.046 28.7557C121.499 27.9023 120.299 26.7157 119.446 25.1957C118.593 23.649 118.166 21.8223 118.166 19.7157C118.166 17.6357 118.593 15.8357 119.446 14.3157C120.299 12.769 121.499 11.5823 123.046 10.7557C124.619 9.929 126.459 9.51566 128.566 9.51566C130.673 9.51566 132.499 9.929 134.046 10.7557C135.619 11.5823 136.833 12.769 137.686 14.3157C138.566 15.8357 139.006 17.6357 139.006 19.7157C139.006 21.8223 138.566 23.649 137.686 25.1957C136.833 26.7157 135.619 27.9023 134.046 28.7557C132.499 29.5823 130.673 29.9957 128.566 29.9957ZM128.566 25.4757C129.846 25.4757 130.886 25.009 131.686 24.0757C132.513 23.1423 132.926 21.689 132.926 19.7157C132.926 17.769 132.513 16.3423 131.686 15.4357C130.886 14.5023 129.846 14.0357 128.566 14.0357C127.286 14.0357 126.246 14.5023 125.446 15.4357C124.646 16.3423 124.246 17.769 124.246 19.7157C124.246 21.689 124.646 23.1423 125.446 24.0757C126.246 25.009 127.286 25.4757 128.566 25.4757ZM150.292 29.9157C148.665 29.9157 147.532 29.1023 146.892 27.4757L141.252 13.5157C140.825 12.4223 140.825 11.5023 141.252 10.7557C141.705 9.98233 142.545 9.59566 143.772 9.59566C144.465 9.59566 145.025 9.769 145.452 10.1157C145.905 10.4357 146.305 11.0623 146.652 11.9957L150.572 22.5157L154.692 11.4757C155.145 10.2223 155.999 9.59566 157.252 9.59566C158.505 9.59566 159.372 10.2223 159.852 11.4757L163.932 22.6757L167.932 11.8357C168.252 10.9823 168.652 10.3957 169.132 10.0757C169.639 9.75566 170.199 9.59566 170.812 9.59566C171.959 9.59566 172.705 9.99566 173.052 10.7957C173.399 11.5957 173.359 12.5023 172.932 13.5157L167.332 27.4757C166.692 29.1023 165.559 29.9157 163.932 29.9157C162.305 29.9157 161.172 29.1023 160.532 27.4757L157.052 18.3957L153.652 27.4357C153.039 29.089 151.919 29.9157 150.292 29.9157Z" fill="url(#paint0_linear_232_76)"/>
<path d="M2.20397 29.0757L4.37638 27.0067L2.20397 29.0757ZM21.564 3.75566L19.5121 5.94427L19.5213 5.95287L19.5306 5.96139L21.564 3.75566ZM7.60397 19.3957V16.3957H4.60397V19.3957H7.60397ZM6.80397 29.0757L4.63155 27.0067L4.6051 27.0345L4.57936 27.0629L6.80397 29.0757ZM7.60397 14.5957H4.60397V17.5957H7.60397V14.5957ZM7.60397 6.19566V3.19566H4.60397V6.19566H7.60397ZM4.52396 26.9157C4.28764 26.9157 4.19847 26.8824 4.20529 26.8849C4.21039 26.8867 4.23525 26.8965 4.27124 26.9196C4.30784 26.9432 4.34435 26.9731 4.37638 27.0067L0.0315514 31.1446C1.29203 32.4681 2.95651 32.9157 4.52396 32.9157V26.9157ZM4.37638 27.0067C4.40034 27.0319 4.41963 27.0582 4.43318 27.081C4.44638 27.1032 4.44865 27.1128 4.44516 27.1025C4.43719 27.079 4.40396 26.9643 4.40396 26.7157H-1.59604C-1.59604 28.2527 -1.18176 29.8707 0.0315515 31.1446L4.37638 27.0067ZM4.40396 26.7157V4.51566H-1.59604V26.7157H4.40396ZM4.40396 4.51566C4.40396 4.23004 4.44071 4.10226 4.44752 4.08185C4.44992 4.07464 4.44373 4.09535 4.42082 4.13352C4.39727 4.17278 4.36234 4.21993 4.31529 4.26698C4.26823 4.31404 4.22108 4.34897 4.18183 4.37252C4.14365 4.39542 4.12294 4.40162 4.13015 4.39921C4.15056 4.39241 4.27835 4.35566 4.56396 4.35566V-1.64434C3.0482 -1.64434 1.36035 -1.26336 0.0726447 0.0243416C-1.21506 1.31205 -1.59604 2.99989 -1.59604 4.51566H4.40396ZM4.56396 4.35566H14.284V-1.64434H4.56396V4.35566ZM14.284 4.35566C16.9367 4.35566 18.5304 5.0239 19.5121 5.94427L23.6158 1.56705C21.1842 -0.712575 17.9246 -1.64434 14.284 -1.64434V4.35566ZM19.5306 5.96139C20.4899 6.84575 21.124 8.17003 21.124 10.3557H27.124C27.124 6.88797 26.0514 3.81225 23.5974 1.54993L19.5306 5.96139ZM21.124 10.3557C21.124 12.5395 20.4901 13.8902 19.5121 14.8071L23.6158 19.1843C26.0511 16.9011 27.124 13.8252 27.124 10.3557H21.124ZM19.5121 14.8071C18.5304 15.7274 16.9367 16.3957 14.284 16.3957V22.3957C17.9246 22.3957 21.1842 21.4639 23.6158 19.1843L19.5121 14.8071ZM14.284 16.3957H7.60397V22.3957H14.284V16.3957ZM4.60397 19.3957V26.7157H10.604V19.3957H4.60397ZM4.60397 26.7157C4.60397 26.9643 4.57074 27.079 4.56277 27.1025C4.55928 27.1128 4.56155 27.1032 4.57475 27.081C4.5883 27.0582 4.60759 27.0319 4.63155 27.0067L8.97638 31.1446C10.1897 29.8707 10.604 28.2527 10.604 26.7157H4.60397ZM4.57936 27.0629C4.62156 27.0163 4.66966 26.9753 4.71844 26.943C4.76645 26.9111 4.80265 26.8959 4.81685 26.8906C4.84055 26.8819 4.76205 26.9157 4.52396 26.9157V32.9157C6.0815 32.9157 7.7772 32.4715 9.02857 31.0884L4.57936 27.0629ZM7.60397 17.5957H13.244V11.5957H7.60397V17.5957ZM13.244 17.5957C15.2461 17.5957 17.3078 17.1739 18.8924 15.8082C20.5625 14.369 21.164 12.3575 21.164 10.3557H15.164C15.164 10.7791 15.1018 11.0163 15.0585 11.1284C15.0221 11.2224 14.9933 11.2478 14.9755 11.2631C14.9202 11.3108 14.5218 11.5957 13.244 11.5957V17.5957ZM21.164 10.3557C21.164 8.36236 20.5508 6.36518 18.871 4.9448C17.2875 3.60593 15.235 3.19566 13.244 3.19566V9.19566C14.533 9.19566 14.9404 9.47872 14.997 9.52653C15.0125 9.53966 15.0347 9.55766 15.0655 9.63594C15.1036 9.73248 15.164 9.95151 15.164 10.3557H21.164ZM13.244 3.19566H7.60397V9.19566H13.244V3.19566ZM4.60397 6.19566V14.5957H10.604V6.19566H4.60397ZM34.1665 24.3157L31.8806 26.2586L31.933 26.3202L31.9886 26.3789L34.1665 24.3157ZM36.6465 25.0357L36.2744 22.0588L36.2482 22.0621L36.2222 22.0658L36.6465 25.0357ZM37.2465 24.9957V27.9957H37.3401L37.4336 27.9898L37.2465 24.9957ZM38.1265 25.3957L35.4928 26.8322L35.5412 26.921L35.5955 27.0063L38.1265 25.3957ZM36.4465 29.8357L36.745 32.8208L36.8378 32.8115L36.9299 32.7965L36.4465 29.8357ZM35.5265 29.9157L35.2964 26.9245L35.1828 26.9332L35.0703 26.9506L35.5265 29.9157ZM34.5265 26.9957C32.7168 26.9957 31.8849 26.5069 31.448 26.0206C30.9563 25.4733 30.4465 24.3545 30.4465 22.1157H24.4465C24.4465 25.1302 25.1166 27.9513 26.9849 30.0307C28.908 32.1711 31.6161 32.9957 34.5265 32.9957V26.9957ZM30.4465 22.1157V4.07566H24.4465V22.1157H30.4465ZM30.4465 4.07566C30.4465 3.94122 30.4548 3.8418 30.4646 3.77265C30.4743 3.70372 30.4846 3.67068 30.4862 3.66574C30.4875 3.6617 30.48 3.68576 30.4553 3.72746C30.4299 3.77026 30.3924 3.82157 30.3416 3.87307C30.2907 3.92464 30.2384 3.96428 30.1923 3.99229C30.1473 4.01967 30.1185 4.02973 30.1164 4.03045C30.1152 4.03084 30.1417 4.02183 30.2037 4.01285C30.266 4.00383 30.3586 3.99566 30.4865 3.99566V-2.00434C29.0007 -2.00434 27.3376 -1.62464 26.0713 -0.341748C24.8122 0.933911 24.4465 2.59636 24.4465 4.07566H30.4465ZM30.4865 3.99566C30.6093 3.99566 30.6969 4.00362 30.7542 4.01203C30.8113 4.0204 30.8331 4.02842 30.8276 4.02655C30.8211 4.02434 30.7888 4.01244 30.7412 3.98306C30.6925 3.95306 30.6388 3.91161 30.5874 3.85889C30.5362 3.8063 30.4991 3.75462 30.4745 3.71249C30.4505 3.67148 30.4437 3.6487 30.4456 3.65458C30.4478 3.66133 30.4584 3.69633 30.4682 3.76724C30.4781 3.83834 30.4865 3.9396 30.4865 4.07566H36.4865C36.4865 2.60608 36.1291 0.949202 34.8855 -0.327564C33.6277 -1.61897 31.9692 -2.00434 30.4865 -2.00434V3.99566ZM30.4865 4.07566V21.8757H36.4865V4.07566H30.4865ZM30.4865 21.8757C30.4865 23.3009 30.7687 24.9505 31.8806 26.2586L36.4523 22.3727C36.5589 22.4981 36.5667 22.5733 36.5463 22.5003C36.5239 22.4198 36.4865 22.2256 36.4865 21.8757H30.4865ZM31.9886 26.3789C33.0995 27.5515 34.5478 28.0757 36.0465 28.0757V22.0757C35.9901 22.0757 36.0292 22.0673 36.1208 22.1043C36.1647 22.1221 36.2098 22.146 36.2523 22.1752C36.2945 22.2042 36.3251 22.2321 36.3443 22.2524L31.9886 26.3789ZM36.0465 28.0757C36.3836 28.0757 36.7267 28.0547 37.0707 28.0055L36.2222 22.0658C36.1929 22.07 36.1359 22.0757 36.0465 22.0757V28.0757ZM37.0186 28.0125C37.1265 27.999 37.2012 27.9957 37.2465 27.9957V21.9957C36.9184 21.9957 36.5931 22.019 36.2744 22.0588L37.0186 28.0125ZM37.4336 27.9898C37.3106 27.9975 36.968 27.999 36.5451 27.8068C36.0765 27.5938 35.7119 27.2339 35.4928 26.8322L40.7602 23.9591C40.381 23.2641 39.7898 22.6909 39.0279 22.3446C38.3116 22.019 37.609 21.9672 37.0593 22.0015L37.4336 27.9898ZM35.5955 27.0063C35.5259 26.8969 35.4786 26.8018 35.4476 26.7316C35.4164 26.6609 35.3972 26.6053 35.3863 26.5704C35.3657 26.5048 35.3654 26.4836 35.3721 26.5268C35.3783 26.5667 35.3874 26.6415 35.3947 26.7586C35.4019 26.8744 35.4065 27.019 35.4065 27.1957H41.4065C41.4065 26.6553 41.3797 26.1117 41.3008 25.6045C41.231 25.1559 41.0806 24.45 40.6575 23.785L35.5955 27.0063ZM35.4065 27.1957C35.4065 27.5822 35.3211 27.4787 35.5077 27.2274C35.6038 27.0979 35.7255 26.996 35.8425 26.9307C35.9505 26.8705 36.0068 26.8677 35.9631 26.8749L36.9299 32.7965C38.1828 32.5919 39.44 31.9962 40.3252 30.804C41.1651 29.6726 41.4065 28.3557 41.4065 27.1957H35.4065ZM36.148 26.8506C35.9096 26.8744 35.6265 26.8991 35.2964 26.9245L35.7566 32.9068C36.1198 32.8789 36.45 32.8503 36.745 32.8208L36.148 26.8506ZM35.0703 26.9506C34.8604 26.9828 34.68 26.9957 34.5265 26.9957V32.9957C35.0129 32.9957 35.4992 32.9551 35.9826 32.8808L35.0703 26.9506ZM43.5268 29.1557L42.1851 31.8389H42.1851L43.5268 29.1557ZM40.8468 26.8757L38.3506 28.5398L38.3664 28.5635L38.3827 28.5869L40.8468 26.8757ZM41.0068 20.2357L38.749 18.2601V18.2602L41.0068 20.2357ZM44.6468 18.4357L45.2531 21.3738L45.2753 21.3692L45.2976 21.3642L44.6468 18.4357ZM52.7668 17.8757V20.8757H55.7668V17.8757H52.7668ZM51.9668 14.7157L49.9005 16.8907L49.9298 16.9185L49.9599 16.9455L51.9668 14.7157ZM46.8868 14.2357L47.4396 17.1843L47.4839 17.176L47.5279 17.1664L46.8868 14.2357ZM44.1268 15.0757L42.9997 12.2954L42.9722 12.3066L42.945 12.3182L44.1268 15.0757ZM42.2468 15.1557L40.7437 17.7519L40.796 17.7822L40.8495 17.8104L42.2468 15.1557ZM41.2468 13.8757L38.3525 14.665L38.3572 14.6824L38.3622 14.6998L41.2468 13.8757ZM41.3668 12.1157L38.6357 10.8743L38.6119 10.9266L38.5901 10.9798L41.3668 12.1157ZM42.8868 10.8357L43.8958 13.6609L43.9279 13.6494L43.9597 13.6372L42.8868 10.8357ZM46.4068 9.83566L46.9117 12.7929L46.9399 12.788L46.9681 12.7827L46.4068 9.83566ZM56.2868 11.5957L54.2454 13.794L54.2561 13.8039L54.2668 13.8137L56.2868 11.5957ZM52.8868 26.5957H55.8868L50.0867 25.5187L52.8868 26.5957ZM50.8468 29.0757L49.2316 26.5476L49.2154 26.558L49.1992 26.5685L50.8468 29.0757ZM51.6068 24.7957L53.7281 26.917L51.6068 24.7957ZM52.7668 20.9957H55.7668V17.9957H52.7668V20.9957ZM47.0068 21.5557L48.1359 24.3351L48.1728 24.3201L48.2092 24.3041L47.0068 21.5557ZM46.4868 25.2357L44.4235 27.4135L44.4514 27.4399L44.4799 27.4655L46.4868 25.2357ZM47.4068 26.9957C46.3263 26.9957 45.5061 26.7912 44.8684 26.4724L42.1851 31.8389C43.7874 32.6401 45.5539 32.9957 47.4068 32.9957V26.9957ZM44.8684 26.4724C44.1651 26.1207 43.6704 25.6822 43.3109 25.1645L38.3827 28.5869C39.3565 29.9892 40.6485 31.0706 42.1851 31.8389L44.8684 26.4724ZM43.3429 25.2116C43.0451 24.7648 42.8868 24.2685 42.8868 23.6357H36.8868C36.8868 25.4028 37.3684 27.0665 38.3506 28.5398L43.3429 25.2116ZM42.8868 23.6357C42.8868 22.7634 43.1059 22.3925 43.2645 22.2112L38.749 18.2602C37.4143 19.7855 36.8868 21.6813 36.8868 23.6357H42.8868ZM43.2645 22.2112C43.4096 22.0454 43.9021 21.6525 45.2531 21.3738L44.0405 15.4976C42.0314 15.9121 40.0973 16.7193 38.749 18.2601L43.2645 22.2112ZM45.2976 21.3642C46.6748 21.0582 48.6568 20.8757 51.3268 20.8757V14.8757C48.4501 14.8757 45.9788 15.0665 43.996 15.5071L45.2976 21.3642ZM51.3268 20.8757H52.7668V14.8757H51.3268V20.8757ZM55.7668 17.8757V17.1957H49.7668V17.8757H55.7668ZM55.7668 17.1957C55.7668 15.6955 55.4448 13.8098 53.9737 12.4858L49.9599 16.9455C49.8643 16.8595 49.799 16.7737 49.7582 16.7071C49.7189 16.6429 49.7084 16.6066 49.7117 16.6167C49.7152 16.6277 49.7298 16.6774 49.7431 16.7772C49.7564 16.8766 49.7668 17.0141 49.7668 17.1957H55.7668ZM54.033 12.5407C52.6524 11.2291 50.7719 10.9557 49.2468 10.9557V16.9557C49.7047 16.9557 49.964 17.0027 50.0795 17.035C50.1896 17.0658 50.0744 17.0559 49.9005 16.8907L54.033 12.5407ZM49.2468 10.9557C48.2713 10.9557 47.2667 11.0816 46.2457 11.305L47.5279 17.1664C48.2135 17.0164 48.7822 16.9557 49.2468 16.9557V10.9557ZM46.3339 11.287C45.2458 11.4911 44.1318 11.8365 42.9997 12.2954L45.2539 17.8559C46.0951 17.5148 46.8211 17.3003 47.4396 17.1843L46.3339 11.287ZM42.945 12.3182C42.812 12.3752 42.83 12.3443 42.9692 12.3384C43.1335 12.3314 43.3842 12.3642 43.644 12.5009L40.8495 17.8104C42.451 18.6533 44.0945 18.3534 45.3085 17.8331L42.945 12.3182ZM43.7499 12.5594C43.8016 12.5893 43.8925 12.6557 43.9809 12.7687C44.0694 12.882 44.1134 12.9886 44.1313 13.0515L38.3622 14.6998C38.737 16.0116 39.5683 17.0714 40.7437 17.7519L43.7499 12.5594ZM44.1411 13.0863C44.143 13.0934 44.1465 13.1085 44.1487 13.1304C44.151 13.1525 44.1514 13.1762 44.1498 13.1997C44.1464 13.2506 44.1355 13.271 44.1434 13.2516L38.5901 10.9798C38.1114 12.1499 38.011 13.4127 38.3525 14.665L44.1411 13.0863ZM44.0979 13.3571C44.0723 13.4134 44.0383 13.4711 43.9966 13.5257C43.9552 13.58 43.9136 13.6214 43.8792 13.6504C43.8108 13.708 43.7948 13.697 43.8958 13.6609L41.8778 8.01044C40.5543 8.4831 39.3128 9.38449 38.6357 10.8743L44.0979 13.3571ZM43.9597 13.6372C45.0661 13.2135 46.0477 12.9404 46.9117 12.7929L45.9019 6.87845C44.5792 7.10428 43.2141 7.49782 41.8138 8.03409L43.9597 13.6372ZM46.9681 12.7827C47.9421 12.5972 48.7777 12.5157 49.4868 12.5157V6.51566C48.3291 6.51566 47.1115 6.6475 45.8454 6.88865L46.9681 12.7827ZM49.4868 12.5157C52.1343 12.5157 53.5263 13.1263 54.2454 13.794L58.3281 9.39728C56.0606 7.29168 52.9193 6.51566 49.4868 6.51566V12.5157ZM54.2668 13.8137C54.9078 14.3974 55.5268 15.5521 55.5268 17.9557H61.5268C61.5268 14.5992 60.6525 11.5139 58.3068 9.37764L54.2668 13.8137ZM55.5268 17.9557V26.8357H61.5268V17.9557H55.5268ZM55.5268 26.8357C55.5268 26.9798 55.5185 27.0903 55.508 27.1712C55.4975 27.252 55.4856 27.297 55.4807 27.3131C55.476 27.3286 55.4793 27.3128 55.4993 27.276C55.5201 27.238 55.5547 27.1852 55.607 27.1276C55.6597 27.0697 55.7193 27.0191 55.7805 26.9787C55.8409 26.9389 55.8905 26.917 55.919 26.9065C55.9713 26.8874 55.9263 26.9157 55.7268 26.9157V32.9157C57.2001 32.9157 58.8342 32.4973 60.0466 31.1637C61.2097 29.8843 61.5268 28.2578 61.5268 26.8357H55.5268ZM55.7268 26.9157C55.5166 26.9157 55.461 26.8863 55.5042 26.9019C55.5283 26.9106 55.5744 26.9303 55.6324 26.968C55.6912 27.0063 55.7497 27.055 55.8023 27.112C55.8545 27.1686 55.8897 27.2213 55.9112 27.2602C55.9321 27.298 55.936 27.3153 55.9319 27.3018C55.9275 27.2875 55.9158 27.2446 55.9055 27.1657C55.8951 27.0868 55.8868 26.9782 55.8868 26.8357H49.8868C49.8868 28.2671 50.2117 29.9 51.3913 31.1793C52.6133 32.5046 54.2523 32.9157 55.7268 32.9157V26.9157ZM55.8868 26.8357V26.5957H49.8868V26.8357H55.8868ZM50.0867 25.5187C49.9221 25.9467 49.6648 26.2708 49.2316 26.5476L52.4619 31.6038C53.9487 30.6539 55.0514 29.3246 55.6868 27.6726L50.0867 25.5187ZM49.1992 26.5685C48.8526 26.7963 48.3099 26.9957 47.4068 26.9957V32.9957C49.2237 32.9957 50.9743 32.5817 52.4943 31.5828L49.1992 26.5685ZM48.7668 28.9557C50.661 28.9557 52.3772 28.2679 53.7281 26.917L49.4855 22.6743C49.2897 22.8701 49.1126 22.9557 48.7668 22.9557V28.9557ZM53.7281 26.917C55.1346 25.5105 55.7668 23.7123 55.7668 21.7957H49.7668C49.7668 22.3324 49.6256 22.5342 49.4855 22.6743L53.7281 26.917ZM55.7668 21.7957V20.9957H49.7668V21.7957H55.7668ZM52.7668 17.9957H51.3668V23.9957H52.7668V17.9957ZM51.3668 17.9957C49.28 17.9957 47.2752 18.1637 45.8043 18.8072L48.2092 24.3041C48.445 24.201 49.3469 23.9957 51.3668 23.9957V17.9957ZM45.8776 18.7763C45.0384 19.1172 44.1991 19.6783 43.5841 20.5625C42.9622 21.4565 42.7268 22.4548 42.7268 23.3957H48.7268C48.7268 23.4565 48.7047 23.7082 48.5095 23.9889C48.3211 24.2597 48.1218 24.3408 48.1359 24.3351L45.8776 18.7763ZM42.7268 23.3957C42.7268 24.9019 43.2738 26.3243 44.4235 27.4135L48.55 23.0578C48.587 23.0929 48.6467 23.1667 48.6896 23.2704C48.7306 23.3697 48.7268 23.4251 48.7268 23.3957H42.7268ZM44.4799 27.4655C45.7415 28.601 47.3186 28.9557 48.7668 28.9557V22.9557C48.5101 22.9557 48.388 22.9237 48.3602 22.9149C48.3484 22.9112 48.3605 22.9139 48.3885 22.9295C48.4173 22.9455 48.4545 22.9705 48.4937 23.0058L44.4799 27.4655ZM65.9171 35.9157L63.2904 37.3649L63.2986 37.3798L63.307 37.3947L65.9171 35.9157ZM65.9971 33.1957L68.721 34.4528L68.7274 34.4389L68.7337 34.4248L65.9971 33.1957ZM68.1171 28.4757L70.8537 29.7048L71.3976 28.4939L70.8672 27.2771L68.1171 28.4757ZM61.5971 13.5157L58.8216 14.6543L58.8339 14.6844L58.8469 14.7143L61.5971 13.5157ZM61.5971 10.7957L58.987 9.31663L58.9786 9.33148L58.9704 9.34643L61.5971 10.7957ZM65.9971 10.1157L64.1053 12.444L64.1841 12.508L64.267 12.5666L65.9971 10.1157ZM67.2371 11.9957L70.0299 10.9L70.0262 10.8908L70.0225 10.8815L67.2371 11.9957ZM71.3171 22.3957L68.5243 23.4913L71.2689 30.4872L74.0966 23.5245L71.3171 22.3957ZM75.5571 11.9557L72.7831 10.8134L72.7803 10.8201L72.7776 10.8268L75.5571 11.9557ZM76.7971 10.1157L78.5271 12.5666L78.5404 12.5572L78.5536 12.5477L76.7971 10.1157ZM80.8371 10.7957L78.1538 12.1373L78.181 12.1917L78.2104 12.2449L80.8371 10.7957ZM80.7971 13.4757L78.0586 12.2506L78.0553 12.258L78.0521 12.2654L80.7971 13.4757ZM71.3971 34.7957L74.1418 36.0066L74.1421 36.006L71.3971 34.7957ZM70.0371 36.6357L68.4351 34.0992L68.4038 34.119L68.373 34.1395L70.0371 36.6357ZM68.1971 34.1157C68.0348 34.1157 68.0815 34.0858 68.2243 34.1609C68.2945 34.1978 68.364 34.2482 68.4242 34.3077C68.4832 34.366 68.515 34.4152 68.5272 34.4366L63.307 37.3947C64.3878 39.302 66.2571 40.1157 68.1971 40.1157V34.1157ZM68.5438 34.4664C68.565 34.5048 68.5863 34.5563 68.6005 34.6158C68.6146 34.6748 68.6165 34.7204 68.6158 34.7439C68.6146 34.7859 68.6075 34.6987 68.721 34.4528L63.2732 31.9385C62.5239 33.5621 62.2707 35.5167 63.2904 37.3649L68.5438 34.4664ZM68.7337 34.4248L70.8537 29.7048L65.3805 27.2465L63.2605 31.9665L68.7337 34.4248ZM70.8672 27.2771L64.3472 12.3171L58.8469 14.7143L65.3669 29.6743L70.8672 27.2771ZM64.3726 12.377C64.2731 12.1344 64.2771 12.037 64.2771 12.0557C64.2771 12.0665 64.2755 12.0969 64.2648 12.1391C64.2539 12.1818 64.2383 12.2186 64.2238 12.2449L58.9704 9.34643C57.9891 11.1249 58.1524 13.0233 58.8216 14.6543L64.3726 12.377ZM64.2072 12.2747C64.1619 12.3545 64.0969 12.4379 64.0154 12.5104C63.9355 12.5817 63.8665 12.6187 63.8331 12.6337C63.8028 12.6473 63.8151 12.6369 63.89 12.6234C63.9656 12.6098 64.0911 12.5957 64.2771 12.5957V6.59566C62.4012 6.59566 60.1937 7.1872 58.987 9.31663L64.2072 12.2747ZM64.2771 12.5957C64.4004 12.5957 64.4239 12.6109 64.3789 12.5973C64.3259 12.5813 64.2207 12.5378 64.1053 12.444L67.8889 7.78732C66.7813 6.88742 65.4707 6.59566 64.2771 6.59566V12.5957ZM64.267 12.5666C64.101 12.4494 64.0739 12.3731 64.1428 12.4774C64.2076 12.5757 64.3167 12.7724 64.4517 13.1098L70.0225 10.8815C69.5848 9.78726 68.9024 8.49434 67.7271 7.66476L64.267 12.5666ZM64.4443 13.0913L68.5243 23.4913L74.1099 21.3L70.0299 10.9L64.4443 13.0913ZM74.0966 23.5245L78.3366 13.0845L72.7776 10.8268L68.5376 21.2668L74.0966 23.5245ZM78.3311 13.0979C78.464 12.7753 78.5711 12.5868 78.6349 12.4922C78.7018 12.3929 78.6788 12.4595 78.5271 12.5666L75.067 7.66476C73.9132 8.47924 73.2282 9.73231 72.7831 10.8134L78.3311 13.0979ZM78.5536 12.5477C78.4671 12.6102 78.4091 12.6247 78.4213 12.6213C78.4395 12.6164 78.5294 12.5957 78.7171 12.5957V6.59566C77.5044 6.59566 76.184 6.85786 75.0406 7.68362L78.5536 12.5477ZM78.7171 12.5957C78.8325 12.5957 78.7255 12.6175 78.5293 12.5064C78.4336 12.4522 78.3459 12.3822 78.2742 12.3045C78.2042 12.2286 78.1679 12.1654 78.1538 12.1373L83.5204 9.45402C83.0818 8.57697 82.4096 7.8083 81.4849 7.28489C80.5821 6.77386 79.615 6.59566 78.7171 6.59566V12.5957ZM78.2104 12.2449C78.1944 12.2159 78.1759 12.1729 78.1628 12.1203C78.1498 12.0678 78.1471 12.0254 78.1474 12.0009C78.1481 11.9546 78.1581 12.0282 78.0586 12.2506L83.5355 14.7008C84.2642 13.0721 84.4607 11.1533 83.4638 9.34643L78.2104 12.2449ZM78.0521 12.2654L68.6521 33.5854L74.1421 36.006L83.5421 14.686L78.0521 12.2654ZM68.6523 33.5847C68.5166 33.8923 68.4074 34.0674 68.3446 34.1525C68.2813 34.2381 68.3011 34.1838 68.4351 34.0992L71.6391 39.1721C72.8822 38.387 73.6431 37.137 74.1418 36.0066L68.6523 33.5847ZM68.373 34.1395C68.4366 34.0971 68.4754 34.0887 68.4598 34.0928C68.4396 34.0981 68.3589 34.1157 68.1971 34.1157V40.1157C69.3634 40.1157 70.6021 39.8646 71.7012 39.1318L68.373 34.1395ZM101.257 12.7957H98.2571V23.2561L103.801 14.3857L101.257 12.7957ZM103.937 10.3557L105.279 13.0389L103.937 10.3557ZM112.897 11.5557L110.604 13.4895L110.613 13.5007L110.623 13.5118L112.897 11.5557ZM109.337 29.1157L107.162 31.1819L107.189 31.2098L107.216 31.237L109.337 29.1157ZM107.817 15.1157L105.504 17.0263L105.525 17.0516L105.547 17.0765L107.817 15.1157ZM102.497 15.3957L100.34 13.3106L100.322 13.3295L100.304 13.3487L102.497 15.3957ZM98.3771 26.9157C98.2493 26.9157 98.1566 26.9075 98.0943 26.8985C98.0323 26.8895 98.0058 26.8805 98.007 26.8809C98.0091 26.8816 98.0379 26.8917 98.0829 26.919C98.129 26.947 98.1813 26.9867 98.2322 27.0383C98.2831 27.0898 98.3206 27.1411 98.3459 27.1839C98.3706 27.2256 98.3781 27.2496 98.3768 27.2456C98.3752 27.2407 98.3649 27.2076 98.3552 27.1387C98.3455 27.0695 98.3371 26.9701 98.3371 26.8357H92.3371C92.3371 28.315 92.7029 29.9774 93.962 31.2531C95.2282 32.536 96.8913 32.9157 98.3771 32.9157V26.9157ZM98.3371 26.8357V12.6357H92.3371V26.8357H98.3371ZM98.3371 12.6357C98.3371 12.5029 98.3452 12.4047 98.3547 12.3365C98.3642 12.2684 98.3742 12.2361 98.3756 12.2318C98.3767 12.2284 98.3689 12.2534 98.3437 12.2965C98.3312 12.3178 98.3152 12.3423 98.2952 12.3687C98.2752 12.3952 98.2523 12.4221 98.2265 12.4485C98.2007 12.475 98.1737 12.4994 98.146 12.5215C98.1184 12.5436 98.0917 12.5621 98.0672 12.5772C98.0174 12.6079 97.9828 12.6209 97.9738 12.6239C97.9658 12.6267 97.9847 12.6193 98.0388 12.6114C98.0932 12.6034 98.1777 12.5957 98.2971 12.5957V6.59566C96.8274 6.59566 95.1788 6.97785 93.9277 8.26281C92.691 9.53294 92.3371 11.1797 92.3371 12.6357H98.3371ZM98.2971 12.5957C98.4165 12.5957 98.5009 12.6034 98.5554 12.6114C98.6094 12.6193 98.6284 12.6267 98.6204 12.6239C98.6114 12.6209 98.5768 12.6079 98.527 12.5772C98.5024 12.5621 98.4758 12.5436 98.4482 12.5215C98.4205 12.4994 98.3934 12.475 98.3677 12.4485C98.3419 12.4221 98.319 12.3952 98.2989 12.3687C98.2789 12.3423 98.263 12.3178 98.2505 12.2965C98.2253 12.2534 98.2175 12.2284 98.2186 12.2318C98.22 12.2361 98.23 12.2684 98.2394 12.3365C98.2489 12.4047 98.2571 12.5029 98.2571 12.6357H104.257C104.257 11.1797 103.903 9.53294 102.667 8.26281C101.415 6.97785 99.7668 6.59566 98.2971 6.59566V12.5957ZM98.2571 12.6357V12.7957H104.257V12.6357H98.2571ZM103.801 14.3857C104.177 13.7849 104.655 13.3509 105.279 13.0389L102.595 7.67238C100.979 8.48043 99.6709 9.67313 98.7131 11.2057L103.801 14.3857ZM105.279 13.0389C105.939 12.7088 106.725 12.5157 107.697 12.5157V6.51566C105.895 6.51566 104.175 6.88255 102.595 7.67238L105.279 13.0389ZM107.697 12.5157C109.421 12.5157 110.19 12.9985 110.604 13.4895L115.191 9.62187C113.311 7.39286 110.613 6.51566 107.697 6.51566V12.5157ZM110.623 13.5118C111.093 14.0589 111.617 15.2723 111.617 17.7557H117.617C117.617 14.6391 116.994 11.7191 115.172 9.59954L110.623 13.5118ZM111.617 17.7557V26.8357H117.617V17.7557H111.617ZM111.617 26.8357C111.617 26.9701 111.609 27.0695 111.599 27.1387C111.589 27.2076 111.579 27.2407 111.577 27.2456C111.576 27.2496 111.584 27.2256 111.608 27.1839C111.634 27.1411 111.671 27.0898 111.722 27.0383C111.773 26.9867 111.825 26.947 111.871 26.919C111.916 26.8917 111.945 26.8816 111.947 26.8809C111.948 26.8805 111.922 26.8895 111.86 26.8985C111.798 26.9075 111.705 26.9157 111.577 26.9157V32.9157C113.063 32.9157 114.726 32.536 115.992 31.2531C117.251 29.9774 117.617 28.315 117.617 26.8357H111.617ZM111.577 26.9157C111.371 26.9157 111.295 26.8866 111.306 26.8904C111.312 26.8927 111.335 26.9017 111.367 26.9217C111.399 26.9419 111.431 26.967 111.458 26.9943L107.216 31.237C108.455 32.4758 110.049 32.9157 111.577 32.9157V26.9157ZM111.512 27.0494C111.546 27.0852 111.572 27.1216 111.591 27.1533C111.609 27.1842 111.615 27.2015 111.613 27.197C111.609 27.1843 111.577 27.0783 111.577 26.8357H105.577C105.577 28.3229 105.966 29.9228 107.162 31.1819L111.512 27.0494ZM111.577 26.8357V18.0357H105.577V26.8357H111.577ZM111.577 18.0357C111.577 16.4475 111.309 14.5691 110.088 13.1548L105.547 17.0765C105.424 16.9343 105.44 16.872 105.484 17.0413C105.528 17.212 105.577 17.5276 105.577 18.0357H111.577ZM110.13 13.205C108.919 11.7391 107.224 11.1957 105.577 11.1957V17.1957C105.764 17.1957 105.796 17.225 105.737 17.2007C105.707 17.1883 105.664 17.1663 105.617 17.1316C105.569 17.0967 105.531 17.0593 105.504 17.0263L110.13 13.205ZM105.577 11.1957C103.617 11.1957 101.765 11.8365 100.34 13.3106L104.654 17.4807C104.776 17.3549 104.977 17.1957 105.577 17.1957V11.1957ZM100.304 13.3487C98.9306 14.8201 98.3771 16.6774 98.3771 18.5957H104.377C104.377 17.8473 104.57 17.5712 104.69 17.4426L100.304 13.3487ZM98.3771 18.5957V26.8357H104.377V18.5957H98.3771ZM98.3771 26.8357C98.3771 26.9717 98.3687 27.073 98.3588 27.1441C98.349 27.215 98.3384 27.25 98.3362 27.2567C98.3343 27.2626 98.3411 27.2398 98.3651 27.1988C98.3897 27.1567 98.4268 27.105 98.478 27.0524C98.5294 26.9997 98.5831 26.9583 98.6318 26.9283C98.6795 26.8989 98.7118 26.887 98.7182 26.8848C98.7237 26.8829 98.7019 26.8909 98.6449 26.8993C98.5875 26.9077 98.4999 26.9157 98.3771 26.9157V32.9157C99.8598 32.9157 101.518 32.5303 102.776 31.2389C104.02 29.9621 104.377 28.3052 104.377 26.8357H98.3771ZM123.046 28.7557L121.597 31.3824L121.624 31.3972L121.651 31.4114L123.046 28.7557ZM119.446 25.1957L116.819 26.6449L116.825 26.6546L116.83 26.6643L119.446 25.1957ZM119.446 14.3157L122.062 15.7843L122.068 15.7746L122.073 15.7649L119.446 14.3157ZM123.046 10.7557L121.651 8.09993L121.641 8.10487L121.632 8.10987L123.046 10.7557ZM134.046 10.7557L132.632 13.4015L132.641 13.4065L132.651 13.4114L134.046 10.7557ZM137.686 14.3157L135.059 15.7649L135.074 15.792L135.09 15.8188L137.686 14.3157ZM137.686 25.1957L135.079 23.7121L135.074 23.7196L135.07 23.7271L137.686 25.1957ZM134.046 28.7557L135.46 31.4015L135.468 31.3971L135.476 31.3928L134.046 28.7557ZM131.686 24.0757L129.44 22.0866L129.424 22.1048L129.408 22.1233L131.686 24.0757ZM131.686 15.4357L129.408 17.388L129.438 17.4229L129.469 17.4569L131.686 15.4357ZM125.446 15.4357L127.696 17.4205L127.71 17.4044L127.724 17.388L125.446 15.4357ZM125.446 24.0757L127.724 22.1233L125.446 24.0757ZM128.566 26.9957C126.856 26.9957 125.511 26.6621 124.442 26.0999L121.651 31.4114C123.728 32.5026 126.063 32.9957 128.566 32.9957V26.9957ZM124.495 26.1289C123.431 25.5417 122.638 24.7531 122.062 23.7271L116.83 26.6643C117.961 28.6783 119.568 30.263 121.597 31.3824L124.495 26.1289ZM122.073 23.7464C121.508 22.7218 121.166 21.413 121.166 19.7157H115.166C115.166 22.2317 115.678 24.5762 116.819 26.6449L122.073 23.7464ZM121.166 19.7157C121.166 18.0506 121.505 16.7764 122.062 15.7843L116.83 12.8471C115.681 14.895 115.166 17.2207 115.166 19.7157H121.166ZM122.073 15.7649C122.648 14.722 123.429 13.9527 124.46 13.4015L121.632 8.10987C119.57 9.21194 117.951 10.816 116.819 12.8664L122.073 15.7649ZM124.442 13.4114C125.511 12.8492 126.856 12.5157 128.566 12.5157V6.51566C126.063 6.51566 123.728 7.00876 121.651 8.09993L124.442 13.4114ZM128.566 12.5157C130.278 12.5157 131.6 12.8498 132.632 13.4015L135.46 8.10987C133.399 7.00819 131.067 6.51566 128.566 6.51566V12.5157ZM132.651 13.4114C133.708 13.9668 134.492 14.7356 135.059 15.7649L140.313 12.8664C139.174 10.8024 137.531 9.19785 135.442 8.09993L132.651 13.4114ZM135.09 15.8188C135.66 16.8042 136.006 18.0657 136.006 19.7157H142.006C142.006 17.2056 141.472 14.8671 140.282 12.8126L135.09 15.8188ZM136.006 19.7157C136.006 21.3982 135.658 22.6943 135.079 23.7121L140.294 26.6792C141.475 24.6037 142.006 22.2465 142.006 19.7157H136.006ZM135.07 23.7271C134.502 24.7397 133.706 25.5275 132.616 26.1186L135.476 31.3928C137.533 30.2772 139.164 28.6916 140.302 26.6643L135.07 23.7271ZM132.632 26.1099C131.6 26.6615 130.278 26.9957 128.566 26.9957V32.9957C131.067 32.9957 133.399 32.5031 135.46 31.4015L132.632 26.1099ZM128.566 28.4757C130.681 28.4757 132.568 27.6571 133.964 26.028L129.408 22.1233C129.205 22.3609 129.012 22.4757 128.566 22.4757V28.4757ZM133.932 26.0648C135.459 24.3406 135.926 22.0162 135.926 19.7157H129.926C129.926 21.3618 129.567 21.9441 129.44 22.0866L133.932 26.0648ZM135.926 19.7157C135.926 17.4391 135.458 15.1197 133.903 13.4144L129.469 17.4569C129.568 17.5649 129.926 18.0988 129.926 19.7157H135.926ZM133.964 13.4833C132.568 11.8543 130.681 11.0357 128.566 11.0357V17.0357C129.012 17.0357 129.205 17.1504 129.408 17.388L133.964 13.4833ZM128.566 11.0357C126.452 11.0357 124.565 11.8543 123.168 13.4833L127.724 17.388C127.928 17.1504 128.121 17.0357 128.566 17.0357V11.0357ZM123.197 13.4508C121.693 15.1549 121.246 17.4583 121.246 19.7157H127.246C127.246 18.0796 127.599 17.5298 127.696 17.4205L123.197 13.4508ZM121.246 19.7157C121.246 21.9976 121.692 24.3058 123.168 26.028L127.724 22.1233C127.6 21.9788 127.246 21.3804 127.246 19.7157H121.246ZM123.168 26.028C124.565 27.6571 126.452 28.4757 128.566 28.4757V22.4757C128.121 22.4757 127.928 22.3609 127.724 22.1233L123.168 26.028ZM146.892 27.4757L149.684 26.3773L149.679 26.3646L149.674 26.3519L146.892 27.4757ZM141.252 13.5157L138.457 14.6063L138.464 14.6229L138.471 14.6394L141.252 13.5157ZM141.252 10.7557L138.664 9.2385L138.656 9.25283L138.647 9.26725L141.252 10.7557ZM145.452 10.1157L143.56 12.444L143.639 12.508L143.722 12.5666L145.452 10.1157ZM146.652 11.9957L143.84 13.0402L143.841 13.0432L146.652 11.9957ZM150.572 22.5157L147.761 23.5632L150.57 31.1017L153.383 23.5646L150.572 22.5157ZM154.692 11.4757L157.503 12.5246L157.508 12.5103L157.513 12.4961L154.692 11.4757ZM159.852 11.4757L162.671 10.4488L162.662 10.4257L162.654 10.4027L159.852 11.4757ZM163.932 22.6757L161.113 23.7025L163.914 31.3906L166.747 23.7142L163.932 22.6757ZM167.932 11.8357L165.123 10.7823L165.12 10.7897L165.118 10.7971L167.932 11.8357ZM169.132 10.0757L167.53 7.53919L167.499 7.55897L167.468 7.57951L169.132 10.0757ZM172.932 13.5157L170.167 12.3515L170.157 12.375L170.148 12.3987L172.932 13.5157ZM167.332 27.4757L164.548 26.3587L164.544 26.368L164.54 26.3773L167.332 27.4757ZM160.532 27.4757L157.731 28.5493L157.736 28.5617L157.74 28.574L160.532 27.4757ZM157.052 18.3957L159.853 17.322L157.026 9.94394L154.244 17.3396L157.052 18.3957ZM153.652 27.4357L150.844 26.3796L150.839 26.3922L153.652 27.4357ZM150.292 26.9157C150.136 26.9157 150.049 26.8962 150.013 26.8855C149.98 26.876 149.972 26.8692 149.971 26.8683C149.969 26.8665 149.94 26.8462 149.891 26.7794C149.84 26.7094 149.765 26.5842 149.684 26.3773L144.1 28.574C144.578 29.789 145.331 30.9237 146.473 31.743C147.63 32.5736 148.959 32.9157 150.292 32.9157V26.9157ZM149.674 26.3519L144.034 12.3919L138.471 14.6394L144.111 28.5994L149.674 26.3519ZM144.047 12.425C143.933 12.1343 143.932 12.0054 143.932 12.0057C143.932 12.0093 143.931 12.0411 143.918 12.0922C143.905 12.1443 143.884 12.1972 143.857 12.2441L138.647 9.26725C137.622 11.0618 137.829 12.9955 138.457 14.6063L144.047 12.425ZM143.84 12.2728C143.802 12.3384 143.744 12.4129 143.668 12.4815C143.592 12.5495 143.522 12.59 143.477 12.6108C143.397 12.6475 143.457 12.5957 143.772 12.5957V6.59566C141.922 6.59566 139.847 7.221 138.664 9.2385L143.84 12.2728ZM143.772 12.5957C143.871 12.5957 143.879 12.6083 143.825 12.5915C143.763 12.5724 143.664 12.5281 143.56 12.444L147.344 7.78732C146.255 6.90282 144.97 6.59566 143.772 6.59566V12.5957ZM143.722 12.5666C143.543 12.4399 143.506 12.3494 143.563 12.4398C143.618 12.5252 143.717 12.7104 143.84 13.0402L149.464 10.9511C149.053 9.84352 148.387 8.51535 147.182 7.66476L143.722 12.5666ZM143.841 13.0432L147.761 23.5632L153.383 21.4682L149.463 10.9482L143.841 13.0432ZM153.383 23.5646L157.503 12.5246L151.881 10.4268L147.761 21.4668L153.383 23.5646ZM157.513 12.4961C157.552 12.3888 157.578 12.3546 157.571 12.3653C157.56 12.3798 157.522 12.4293 157.448 12.4837C157.372 12.539 157.297 12.5724 157.242 12.5886C157.192 12.6035 157.189 12.5957 157.252 12.5957V6.59566C156.108 6.59566 154.928 6.8904 153.896 7.64765C152.88 8.39419 152.248 9.41416 151.871 10.4553L157.513 12.4961ZM157.252 12.5957C157.315 12.5957 157.314 12.6035 157.269 12.5901C157.22 12.5755 157.152 12.5456 157.084 12.4967C157.018 12.4488 156.986 12.4071 156.981 12.4001C156.978 12.3967 157.008 12.4371 157.051 12.5486L162.654 10.4027C162.258 9.37012 161.613 8.36725 160.6 7.63461C159.571 6.89084 158.398 6.59566 157.252 6.59566V12.5957ZM157.033 12.5025L161.113 23.7025L166.751 21.6488L162.671 10.4488L157.033 12.5025ZM166.747 23.7142L170.747 12.8742L165.118 10.7971L161.118 21.6371L166.747 23.7142ZM170.741 12.889C170.839 12.6271 170.918 12.4941 170.951 12.4457C170.982 12.3996 170.942 12.4748 170.796 12.5718L167.468 7.57951C166.24 8.39814 165.545 9.65634 165.123 10.7823L170.741 12.889ZM170.734 12.6121C170.745 12.6053 170.751 12.6024 170.753 12.6014C170.755 12.6005 170.756 12.6003 170.756 12.6002C170.757 12.6001 170.76 12.5992 170.767 12.5982C170.775 12.5971 170.79 12.5957 170.812 12.5957V6.59566C169.646 6.59566 168.528 6.90896 167.53 7.53919L170.734 12.6121ZM170.812 12.5957C171.058 12.5957 171.005 12.6414 170.815 12.5401C170.715 12.4862 170.602 12.404 170.499 12.2911C170.397 12.1791 170.335 12.0694 170.299 11.9885L175.805 9.60284C175.371 8.60187 174.637 7.78063 173.649 7.25122C172.713 6.74992 171.713 6.59566 170.812 6.59566V12.5957ZM170.299 11.9885C170.295 11.9774 170.29 11.9619 170.287 11.9462C170.284 11.931 170.286 11.9283 170.285 11.9434C170.284 11.9756 170.271 12.1051 170.167 12.3515L175.697 14.6798C176.353 13.1209 176.557 11.3392 175.805 9.60284L170.299 11.9885ZM170.148 12.3987L164.548 26.3587L170.116 28.5926L175.716 14.6326L170.148 12.3987ZM164.54 26.3773C164.459 26.5842 164.384 26.7094 164.333 26.7794C164.284 26.8462 164.256 26.8665 164.253 26.8683C164.252 26.8692 164.244 26.876 164.212 26.8855C164.175 26.8962 164.089 26.9157 163.932 26.9157V32.9157C165.265 32.9157 166.594 32.5736 167.751 31.743C168.893 30.9237 169.646 29.789 170.124 28.574L164.54 26.3773ZM163.932 26.9157C163.776 26.9157 163.689 26.8962 163.653 26.8855C163.62 26.876 163.612 26.8692 163.611 26.8683C163.609 26.8665 163.58 26.8462 163.531 26.7794C163.48 26.7094 163.405 26.5842 163.324 26.3773L157.74 28.574C158.218 29.789 158.971 30.9237 160.113 31.743C161.27 32.5736 162.599 32.9157 163.932 32.9157V26.9157ZM163.333 26.402L159.853 17.322L154.251 19.4693L157.731 28.5493L163.333 26.402ZM154.244 17.3396L150.844 26.3796L156.46 28.4918L159.86 19.4518L154.244 17.3396ZM150.839 26.3922C150.761 26.6048 150.687 26.7323 150.638 26.8021C150.614 26.8364 150.596 26.857 150.586 26.8679C150.58 26.8734 150.576 26.877 150.574 26.879C150.572 26.881 150.571 26.8819 150.571 26.8819C150.57 26.882 150.571 26.8817 150.572 26.8813C150.572 26.8809 150.573 26.8807 150.572 26.8808C150.572 26.8809 150.571 26.8815 150.568 26.8827C150.565 26.8839 150.56 26.8857 150.552 26.888C150.524 26.8964 150.444 26.9157 150.292 26.9157V32.9157C151.635 32.9157 152.974 32.565 154.134 31.7094C155.274 30.8675 156.009 29.7077 156.465 28.4791L150.839 26.3922Z" fill="#5B3511"/>
</g>
<defs>
<filter id="filter0_d_232_76" x="0.403931" y="0.995605" width="174.168" height="38.1201" filterUnits="userSpaceOnUse" color-interpolation-filters="sRGB">
<feFlood flood-opacity="0" result="BackgroundImageFix"/>
<feColorMatrix in="SourceAlpha" type="matrix" values="0 0 0 0 0 0 0 0 0 0 0 0 0 0 0 0 0 0 127 0" result="hardAlpha"/>
<feOffset dy="1"/>
<feGaussianBlur stdDeviation="0.5"/>
<feComposite in2="hardAlpha" operator="out"/>
<feColorMatrix type="matrix" values="0 0 0 0 0 0 0 0 0 0 0 0 0 0 0 0 0 0 0.25 0"/>
<feBlend mode="normal" in2="BackgroundImageFix" result="effect1_dropShadow_232_76"/>
<feBlend mode="normal" in="SourceGraphic" in2="effect1_dropShadow_232_76" result="shape"/>
</filter>
<linearGradient id="paint0_linear_232_76" x1="86.4546" y1="-11.4443" x2="86.4546" y2="43.5557" gradientUnits="userSpaceOnUse">
<stop stop-color="#FDE092"/>
<stop offset="1" stop-color="#C18B2C"/>
</linearGradient>
</defs>
</svg>
