<svg width="154" height="33" viewBox="0 0 154 33" fill="none" xmlns="http://www.w3.org/2000/svg">
<g filter="url(#filter0_d_42_514)">
<path d="M13.7056 23.352C11.167 23.352 9.01229 22.872 7.24163 21.912C5.49229 20.952 4.15896 19.608 3.24163 17.88C2.32429 16.152 1.86563 14.1253 1.86563 11.8C1.86563 9.41067 2.33496 7.34133 3.27363 5.592C4.23363 3.84267 5.60963 2.488 7.40163 1.528C9.19363 0.568 11.3483 0.0879993 13.8656 0.0879993C15.0176 0.0879993 16.1696 0.215999 17.3216 0.471998C18.4736 0.727999 19.583 1.15467 20.6496 1.752C21.2256 2.072 21.567 2.49867 21.6736 3.032C21.8016 3.56533 21.7483 4.088 21.5136 4.6C21.279 5.09067 20.9163 5.45333 20.4256 5.688C19.9563 5.90133 19.391 5.848 18.7296 5.528C17.3003 4.78133 15.6896 4.408 13.8976 4.408C11.615 4.408 9.89763 5.048 8.74563 6.328C7.61496 7.58667 7.04963 9.41067 7.04963 11.8C7.04963 14.2107 7.62563 16.0347 8.77763 17.272C9.95096 18.5093 11.679 19.128 13.9616 19.128C15.1776 19.128 16.4576 18.936 17.8016 18.552V14.136H14.9216C13.599 14.136 12.9376 13.5387 12.9376 12.344C12.9376 11.1493 13.599 10.552 14.9216 10.552H19.9456C21.247 10.552 21.8976 11.2133 21.8976 12.536V19.96C21.8976 20.5147 21.7803 20.984 21.5456 21.368C21.3323 21.752 20.9803 22.0293 20.4896 22.2C19.5296 22.5413 18.4523 22.8187 17.2576 23.032C16.063 23.2453 14.879 23.352 13.7056 23.352ZM31.1836 23.352C30.0103 23.352 28.9756 23.128 28.0796 22.68C27.1836 22.232 26.469 21.624 25.9356 20.856C25.4236 20.088 25.1676 19.224 25.1676 18.264C25.1676 17.1333 25.4663 16.2267 26.0636 15.544C26.661 14.8613 27.6316 14.3813 28.9756 14.104C30.3196 13.8053 32.101 13.656 34.3196 13.656H35.4716V13.112C35.4716 12.1733 35.2583 11.512 34.8316 11.128C34.405 10.7227 33.6796 10.52 32.6556 10.52C32.0796 10.52 31.4503 10.5947 30.7676 10.744C30.085 10.872 29.349 11.096 28.5596 11.416C27.9623 11.672 27.461 11.6933 27.0556 11.48C26.6503 11.2453 26.3836 10.904 26.2556 10.456C26.1276 9.98667 26.1596 9.51733 26.3516 9.048C26.565 8.57867 26.9703 8.23733 27.5676 8.024C28.5703 7.64 29.509 7.37333 30.3836 7.224C31.2796 7.05333 32.101 6.968 32.8476 6.968C35.2796 6.968 37.093 7.52267 38.2876 8.632C39.4823 9.72 40.0796 11.416 40.0796 13.72V20.824C40.0796 22.4667 39.333 23.288 37.8396 23.288C36.325 23.288 35.5676 22.4667 35.5676 20.824V20.632C35.2476 21.464 34.7036 22.1253 33.9356 22.616C33.189 23.1067 32.2716 23.352 31.1836 23.352ZM32.2716 20.12C33.1676 20.12 33.925 19.8107 34.5436 19.192C35.1623 18.5733 35.4716 17.7733 35.4716 16.792V16.152H34.3516C32.709 16.152 31.5463 16.3013 30.8636 16.6C30.181 16.8773 29.8396 17.368 29.8396 18.072C29.8396 18.6693 30.0423 19.16 30.4476 19.544C30.8743 19.928 31.4823 20.12 32.2716 20.12ZM46.1801 23.288C44.5588 23.288 43.7481 22.4667 43.7481 20.824V9.464C43.7481 7.84267 44.5375 7.032 46.1161 7.032C47.6948 7.032 48.4841 7.84267 48.4841 9.464V9.56C48.9535 8.74933 49.5935 8.12 50.4041 7.672C51.2361 7.20267 52.1961 6.968 53.2841 6.968C54.3935 6.968 55.3321 7.21333 56.1001 7.704C56.8895 8.19467 57.4868 8.94133 57.8921 9.944C58.3828 9.00533 59.0868 8.28 60.0041 7.768C60.9428 7.23467 61.9775 6.968 63.1081 6.968C64.9001 6.968 66.2335 7.512 67.1081 8.6C67.9828 9.66667 68.4201 11.32 68.4201 13.56V20.824C68.4201 21.6133 68.2068 22.2213 67.7801 22.648C67.3748 23.0747 66.7881 23.288 66.0201 23.288C64.3988 23.288 63.5881 22.4667 63.5881 20.824V13.72C63.5881 12.6747 63.4175 11.9173 63.0761 11.448C62.7561 10.9573 62.2015 10.712 61.4121 10.712C60.4948 10.712 59.7801 11.032 59.2681 11.672C58.7561 12.312 58.5001 13.2187 58.5001 14.392V20.824C58.5001 22.4667 57.7001 23.288 56.1001 23.288C55.3321 23.288 54.7348 23.0747 54.3081 22.648C53.8815 22.2213 53.6681 21.6133 53.6681 20.824V13.72C53.6681 12.6747 53.4975 11.9173 53.1561 11.448C52.8148 10.9573 52.2601 10.712 51.4921 10.712C50.5748 10.712 49.8601 11.032 49.3481 11.672C48.8361 12.312 48.5801 13.2187 48.5801 14.392V20.824C48.5801 22.4667 47.7801 23.288 46.1801 23.288ZM80.2816 23.352C78.4256 23.352 76.8256 23.0213 75.4816 22.36C74.159 21.6773 73.135 20.728 72.4096 19.512C71.7056 18.2747 71.3536 16.824 71.3536 15.16C71.3536 13.5387 71.695 12.12 72.3776 10.904C73.0816 9.66667 74.031 8.70667 75.2256 8.024C76.4416 7.32 77.839 6.968 79.4176 6.968C81.7003 6.968 83.5136 7.69333 84.8576 9.144C86.2016 10.5733 86.8736 12.5147 86.8736 14.968C86.8736 15.7787 86.3723 16.184 85.3696 16.184H75.9616C76.1323 17.4213 76.5803 18.328 77.3056 18.904C78.0523 19.4587 79.0763 19.736 80.3776 19.736C80.8896 19.736 81.4656 19.6827 82.1056 19.576C82.767 19.448 83.3963 19.2347 83.9936 18.936C84.6123 18.6373 85.135 18.584 85.5616 18.776C85.9883 18.9467 86.2763 19.2453 86.4256 19.672C86.5963 20.0987 86.5963 20.5467 86.4256 21.016C86.2763 21.464 85.9243 21.8373 85.3696 22.136C84.623 22.5413 83.791 22.84 82.8736 23.032C81.9776 23.2453 81.1136 23.352 80.2816 23.352ZM79.6096 10.168C78.5856 10.168 77.7536 10.4773 77.1136 11.096C76.495 11.7147 76.111 12.5787 75.9616 13.688H82.8736C82.7456 11.3413 81.6576 10.168 79.6096 10.168ZM92.1161 29.048C90.4948 29.048 89.6841 28.2267 89.6841 26.584V9.464C89.6841 7.84267 90.4735 7.032 92.0521 7.032C93.6521 7.032 94.4521 7.84267 94.4521 9.464V9.56C94.9001 8.77067 95.5615 8.14133 96.4361 7.672C97.3108 7.20267 98.2921 6.968 99.3801 6.968C100.745 6.968 101.94 7.29867 102.964 7.96C104.009 8.62133 104.82 9.56 105.396 10.776C105.972 11.992 106.26 13.4427 106.26 15.128C106.26 16.8133 105.972 18.2747 105.396 19.512C104.82 20.728 104.009 21.6773 102.964 22.36C101.94 23.0213 100.745 23.352 99.3801 23.352C98.3348 23.352 97.3748 23.128 96.5001 22.68C95.6468 22.232 94.9855 21.6347 94.5161 20.888V26.584C94.5161 28.2267 93.7161 29.048 92.1161 29.048ZM97.9401 19.736C98.9641 19.736 99.7961 19.3627 100.436 18.616C101.076 17.8693 101.396 16.7067 101.396 15.128C101.396 13.5707 101.076 12.4293 100.436 11.704C99.7961 10.9573 98.9641 10.584 97.9401 10.584C96.8948 10.584 96.0521 10.9573 95.4121 11.704C94.7721 12.4293 94.4521 13.5707 94.4521 15.128C94.4521 16.7067 94.7721 17.8693 95.4121 18.616C96.0521 19.3627 96.8948 19.736 97.9401 19.736ZM114.879 23.352C111.103 23.352 109.215 21.2507 109.215 17.048V2.616C109.215 0.973332 110.026 0.151999 111.647 0.151999C113.247 0.151999 114.047 0.973332 114.047 2.616V16.856C114.047 17.7307 114.229 18.3813 114.591 18.808C114.975 19.2133 115.477 19.416 116.095 19.416C116.266 19.416 116.426 19.4053 116.575 19.384C116.746 19.3627 116.906 19.352 117.055 19.352C117.397 19.3307 117.631 19.4373 117.759 19.672C117.909 19.9067 117.983 20.3867 117.983 21.112C117.983 22.3493 117.461 23.0533 116.415 23.224C116.202 23.2453 115.957 23.2667 115.679 23.288C115.402 23.3307 115.135 23.352 114.879 23.352ZM125.184 23.352C124.01 23.352 122.976 23.128 122.08 22.68C121.184 22.232 120.469 21.624 119.936 20.856C119.424 20.088 119.168 19.224 119.168 18.264C119.168 17.1333 119.466 16.2267 120.064 15.544C120.661 14.8613 121.632 14.3813 122.976 14.104C124.32 13.8053 126.101 13.656 128.32 13.656H129.472V13.112C129.472 12.1733 129.258 11.512 128.832 11.128C128.405 10.7227 127.68 10.52 126.656 10.52C126.08 10.52 125.45 10.5947 124.768 10.744C124.085 10.872 123.349 11.096 122.56 11.416C121.962 11.672 121.461 11.6933 121.056 11.48C120.65 11.2453 120.384 10.904 120.256 10.456C120.128 9.98667 120.16 9.51733 120.352 9.048C120.565 8.57867 120.97 8.23733 121.568 8.024C122.57 7.64 123.509 7.37333 124.384 7.224C125.28 7.05333 126.101 6.968 126.848 6.968C129.28 6.968 131.093 7.52267 132.288 8.632C133.482 9.72 134.08 11.416 134.08 13.72V20.824C134.08 22.4667 133.333 23.288 131.84 23.288C130.325 23.288 129.568 22.4667 129.568 20.824V20.632C129.248 21.464 128.704 22.1253 127.936 22.616C127.189 23.1067 126.272 23.352 125.184 23.352ZM126.272 20.12C127.168 20.12 127.925 19.8107 128.544 19.192C129.162 18.5733 129.472 17.7733 129.472 16.792V16.152H128.352C126.709 16.152 125.546 16.3013 124.864 16.6C124.181 16.8773 123.84 17.368 123.84 18.072C123.84 18.6693 124.042 19.16 124.448 19.544C124.874 19.928 125.482 20.12 126.272 20.12ZM141.816 29.048C140.963 29.048 140.355 28.728 139.992 28.088C139.651 27.4693 139.672 26.744 140.056 25.912L141.752 22.136L136.536 10.168C136.195 9.336 136.195 8.61067 136.536 7.992C136.899 7.352 137.613 7.032 138.68 7.032C139.256 7.032 139.715 7.17067 140.056 7.448C140.419 7.704 140.749 8.20533 141.048 8.952L144.312 17.272L147.704 8.92C148.003 8.19467 148.333 7.704 148.696 7.448C149.08 7.17067 149.592 7.032 150.232 7.032C151.043 7.032 151.608 7.352 151.928 7.992C152.269 8.61067 152.259 9.32533 151.896 10.136L144.376 27.192C144.056 27.9173 143.693 28.408 143.288 28.664C142.904 28.92 142.413 29.048 141.816 29.048Z" fill="url(#paint0_linear_42_514)"/>
<path d="M7.24162 21.912L5.79833 24.542L5.80503 24.5457L5.81175 24.5493L7.24162 21.912ZM3.24162 17.88L5.8914 16.4733L3.24162 17.88ZM3.27363 5.592L0.643624 4.14871L0.636826 4.16109L0.630144 4.17355L3.27363 5.592ZM7.40162 1.528L8.81829 4.17244H8.81829L7.40162 1.528ZM17.3216 0.471998L17.9724 -2.45656H17.9724L17.3216 0.471998ZM20.6496 1.752L19.1838 4.36953L19.1927 4.37447L20.6496 1.752ZM21.6736 3.032L18.7319 3.62035L18.7431 3.67647L18.7565 3.73212L21.6736 3.032ZM21.5136 4.6L24.22 5.89436L24.2306 5.87225L24.2408 5.84996L21.5136 4.6ZM20.4256 5.688L21.667 8.4191L21.6936 8.40701L21.72 8.3944L20.4256 5.688ZM18.7296 5.528L17.3406 8.18705L17.3814 8.2084L17.4229 8.22848L18.7296 5.528ZM8.74563 6.328L6.51574 4.3211L6.51386 4.3232L8.74563 6.328ZM8.77763 17.272L6.58194 19.3163L6.5913 19.3263L6.60075 19.3363L8.77763 17.272ZM17.8016 18.552L18.6258 21.4366L20.8016 20.8149V18.552H17.8016ZM17.8016 14.136H20.8016V11.136H17.8016V14.136ZM21.5456 21.368L18.9858 19.8036L18.9534 19.8567L18.9232 19.9111L21.5456 21.368ZM20.4896 22.2L19.5041 19.3665L19.4943 19.3699L19.4846 19.3734L20.4896 22.2ZM17.2576 23.032L16.7303 20.0787L17.2576 23.032ZM13.7056 20.352C11.5389 20.352 9.9033 19.9425 8.6715 19.2747L5.81175 24.5493C8.12129 25.8015 10.7951 26.352 13.7056 26.352V20.352ZM8.68492 19.282C7.43755 18.5975 6.52869 17.6738 5.8914 16.4733L0.591854 19.2867C1.78923 21.5422 3.54703 23.3065 5.79833 24.542L8.68492 19.282ZM5.8914 16.4733C5.24371 15.2533 4.86562 13.7271 4.86562 11.8H-1.13437C-1.13437 14.5236 -0.595125 17.0507 0.591854 19.2867L5.8914 16.4733ZM4.86562 11.8C4.86562 9.80551 5.25565 8.24317 5.91711 7.01045L0.630144 4.17355C-0.585733 6.4395 -1.13437 9.01582 -1.13437 11.8H4.86562ZM5.90363 7.03529C6.57853 5.80547 7.52832 4.86349 8.81829 4.17244L5.98496 -1.11644C3.69093 0.112504 1.88872 1.87986 0.643624 4.14871L5.90363 7.03529ZM8.81829 4.17244C10.0826 3.49511 11.7266 3.088 13.8656 3.088V-2.912C10.97 -2.912 8.3046 -2.35911 5.98496 -1.11644L8.81829 4.17244ZM13.8656 3.088C14.7934 3.088 15.7273 3.19088 16.6708 3.40056L17.9724 -2.45656C16.612 -2.75888 15.2418 -2.912 13.8656 -2.912V3.088ZM16.6708 3.40056C17.5273 3.59089 18.363 3.90985 19.1838 4.36952L22.1154 -0.86552C20.8029 -1.60052 19.4199 -2.13489 17.9724 -2.45656L16.6708 3.40056ZM19.1927 4.37447C19.2082 4.38308 19.1127 4.33323 18.995 4.18608C18.8675 4.02669 18.7731 3.82624 18.7319 3.62035L24.6154 2.44365C24.2997 0.865508 23.2736 -0.22213 22.1066 -0.870474L19.1927 4.37447ZM18.7565 3.73212C18.7451 3.68468 18.736 3.60903 18.7451 3.51946C18.7542 3.43088 18.7767 3.37137 18.7864 3.35004L24.2408 5.84996C24.7471 4.74525 24.88 3.53691 24.5908 2.33188L18.7565 3.73212ZM18.8072 3.30563C18.8277 3.26281 18.8709 3.19205 18.9443 3.11868C19.0177 3.04531 19.0884 3.00208 19.1313 2.9816L21.72 8.3944C22.8288 7.86411 23.6897 7.00315 24.22 5.89436L18.8072 3.30563ZM19.1842 2.9569C19.4736 2.82538 19.747 2.80387 19.9314 2.82126C20.0921 2.83642 20.135 2.87526 20.0363 2.82752L17.4229 8.22848C18.5324 8.76533 20.0852 9.13811 21.667 8.4191L19.1842 2.9569ZM20.1187 2.86895C18.2146 1.8743 16.1187 1.408 13.8976 1.408V7.408C15.2606 7.408 16.386 7.68837 17.3406 8.18705L20.1187 2.86895ZM13.8976 1.408C11.056 1.408 8.40619 2.22061 6.51574 4.32111L10.9755 8.33489C11.3891 7.87539 12.1739 7.408 13.8976 7.408V1.408ZM6.51386 4.3232C4.71749 6.32293 4.04963 8.97429 4.04963 11.8H10.0496C10.0496 9.84704 10.5124 8.8504 10.9774 8.3328L6.51386 4.3232ZM4.04963 11.8C4.04963 14.6471 4.72886 17.3259 6.58194 19.3163L10.9733 15.2277C10.5224 14.7434 10.0496 13.7743 10.0496 11.8H4.04963ZM6.60075 19.3363C8.51323 21.3531 11.1457 22.128 13.9616 22.128V16.128C12.2122 16.128 11.3887 15.6656 10.9545 15.2077L6.60075 19.3363ZM13.9616 22.128C15.4943 22.128 17.0529 21.886 18.6258 21.4366L16.9775 15.6674C15.8623 15.986 14.8609 16.128 13.9616 16.128V22.128ZM20.8016 18.552V14.136H14.8016V18.552H20.8016ZM17.8016 11.136H14.9216V17.136H17.8016V11.136ZM14.9216 11.136C14.6516 11.136 15.0091 11.0684 15.4445 11.4617C15.9379 11.9073 15.9376 12.3956 15.9376 12.344H9.93763C9.93763 13.487 10.268 14.8713 11.4228 15.9143C12.5195 16.9049 13.869 17.136 14.9216 17.136V11.136ZM15.9376 12.344C15.9376 12.2924 15.9379 12.7806 15.4445 13.2263C15.0091 13.6196 14.6516 13.552 14.9216 13.552V7.552C13.869 7.552 12.5195 7.7831 11.4228 8.77369C10.268 9.81668 9.93763 11.201 9.93763 12.344H15.9376ZM14.9216 13.552H19.9456V7.552H14.9216V13.552ZM19.9456 13.552C20.1214 13.552 19.705 13.593 19.2711 13.152C18.8462 12.7201 18.8976 12.3249 18.8976 12.536H24.8976C24.8976 11.4244 24.6238 10.0373 23.5481 8.94399C22.4636 7.84171 21.0712 7.552 19.9456 7.552V13.552ZM18.8976 12.536V19.96H24.8976V12.536H18.8976ZM18.8976 19.96C18.8976 20.0271 18.8904 20.0354 18.8992 20.0004C18.9088 19.9621 18.9331 19.8899 18.9858 19.8036L24.1055 22.9324C24.6882 21.9789 24.8976 20.9386 24.8976 19.96H18.8976ZM18.9232 19.9111C19.0136 19.7483 19.1351 19.6099 19.265 19.5075C19.3888 19.41 19.4837 19.3736 19.5041 19.3665L21.4752 25.0335C22.5277 24.6674 23.5332 23.9677 24.1681 22.8249L18.9232 19.9111ZM19.4846 19.3734C18.7061 19.6501 17.7922 19.8891 16.7303 20.0787L17.785 25.9853C19.1124 25.7482 20.3531 25.4325 21.4947 25.0266L19.4846 19.3734ZM16.7303 20.0787C15.7037 20.262 14.6962 20.352 13.7056 20.352V26.352C15.0617 26.352 16.4222 26.2286 17.785 25.9853L16.7303 20.0787ZM28.0796 22.68L26.738 25.3633L28.0796 22.68ZM25.9356 20.856L23.4395 22.5201L23.4553 22.5438L23.4715 22.5672L25.9356 20.856ZM26.0636 15.544L23.8059 13.5685L26.0636 15.544ZM28.9756 14.104L29.5819 17.0421L29.6042 17.0375L29.6264 17.0326L28.9756 14.104ZM35.4716 13.656V16.656H38.4716V13.656H35.4716ZM34.8316 11.128L32.7654 13.303L32.7947 13.3308L32.8247 13.3579L34.8316 11.128ZM30.7676 10.744L31.3205 13.6926L31.3647 13.6843L31.4087 13.6747L30.7676 10.744ZM28.5596 11.416L27.4325 8.63578L27.4051 8.6469L27.3779 8.65856L28.5596 11.416ZM27.0556 11.48L25.5525 14.0763L25.6049 14.1066L25.6584 14.1348L27.0556 11.48ZM26.2556 10.456L23.3613 11.2453L23.3661 11.2628L23.3711 11.2802L26.2556 10.456ZM26.3516 9.048L23.6205 7.80659L23.5967 7.85891L23.575 7.9121L26.3516 9.048ZM27.5676 8.024L28.5766 10.8492L28.6087 10.8378L28.6406 10.8256L27.5676 8.024ZM30.3836 7.224L30.8885 10.1812L30.9168 10.1764L30.945 10.171L30.3836 7.224ZM38.2876 8.632L36.2463 10.8304L36.2569 10.8403L36.2676 10.85L38.2876 8.632ZM35.5676 20.632H38.5676L32.7676 19.5551L35.5676 20.632ZM33.9356 22.616L32.3205 20.0879L32.3042 20.0983L32.2881 20.1089L33.9356 22.616ZM34.5436 19.192L36.6649 21.3133L34.5436 19.192ZM35.4716 16.152H38.4716V13.152H35.4716V16.152ZM30.8636 16.6L31.9928 19.3794L32.0296 19.3644L32.0661 19.3485L30.8636 16.6ZM30.4476 19.544L28.3844 21.7219L28.4122 21.7482L28.4407 21.7739L30.4476 19.544ZM31.1836 20.352C30.3965 20.352 29.835 20.2036 29.4213 19.9967L26.738 25.3633C28.1163 26.0524 29.6241 26.352 31.1836 26.352V20.352ZM29.4213 19.9967C28.9419 19.757 28.6259 19.4705 28.3997 19.1448L23.4715 22.5672C24.312 23.7775 25.4253 24.707 26.738 25.3633L29.4213 19.9967ZM28.4318 19.1919C28.262 18.9372 28.1676 18.6568 28.1676 18.264H22.1676C22.1676 19.7912 22.5853 21.2388 23.4395 22.5201L28.4318 19.1919ZM28.1676 18.264C28.1676 17.6744 28.3121 17.5301 28.3214 17.5195L23.8059 13.5685C22.6205 14.9232 22.1676 16.5923 22.1676 18.264H28.1676ZM28.3214 17.5195C28.3171 17.5244 28.567 17.2515 29.5819 17.0421L28.3694 11.1659C26.6963 11.5111 25.0048 12.1983 23.8059 13.5685L28.3214 17.5195ZM29.6264 17.0326C30.6676 16.8012 32.2043 16.656 34.3196 16.656V10.656C31.9976 10.656 29.9716 10.8095 28.3248 11.1754L29.6264 17.0326ZM34.3196 16.656H35.4716V10.656H34.3196V16.656ZM38.4716 13.656V13.112H32.4716V13.656H38.4716ZM38.4716 13.112C38.4716 11.8465 38.203 10.1261 36.8385 8.89812L32.8247 13.3579C32.5697 13.1284 32.4781 12.8999 32.4565 12.833C32.4402 12.7824 32.4716 12.8532 32.4716 13.112H38.4716ZM36.8979 8.953C35.624 7.74278 33.9247 7.52 32.6556 7.52V13.52C32.8143 13.52 32.935 13.5279 33.0224 13.5381C33.1103 13.5483 33.1532 13.5593 33.1603 13.5613C33.1798 13.5668 32.9926 13.5189 32.7654 13.303L36.8979 8.953ZM32.6556 7.52C31.8242 7.52 30.9769 7.62729 30.1265 7.8133L31.4087 13.6747C31.9237 13.562 32.3351 13.52 32.6556 13.52V7.52ZM30.2148 7.79538C29.2973 7.9674 28.3673 8.25682 27.4325 8.63578L29.6867 14.1962C30.3306 13.9352 30.8726 13.7766 31.3205 13.6926L30.2148 7.79538ZM27.3779 8.65856C27.3195 8.68358 27.4062 8.6353 27.6081 8.62671C27.835 8.61706 28.1424 8.66185 28.4529 8.82524L25.6584 14.1348C27.1585 14.9243 28.6767 14.6297 29.7414 14.1734L27.3779 8.65856ZM28.5587 8.88372C28.6612 8.94302 28.794 9.04533 28.9157 9.20107C29.0376 9.35705 29.1062 9.51294 29.1402 9.63184L23.3711 11.2802C23.7138 12.4799 24.4785 13.4545 25.5525 14.0763L28.5587 8.88372ZM29.1499 9.66665C29.171 9.74411 29.1842 9.84505 29.1767 9.95607C29.1692 10.0656 29.1443 10.1447 29.1283 10.1839L23.575 7.9121C23.1443 8.96491 23.0518 10.1104 23.3613 11.2453L29.1499 9.66665ZM29.0827 10.2894C28.9996 10.4724 28.8768 10.6263 28.748 10.7347C28.629 10.835 28.5503 10.8586 28.5766 10.8492L26.5586 5.19877C25.3845 5.6181 24.2444 6.43416 23.6205 7.80659L29.0827 10.2894ZM28.6406 10.8256C29.4963 10.4978 30.2432 10.2914 30.8885 10.1812L29.8787 4.26679C28.7747 4.45528 27.6443 4.78216 26.4947 5.22243L28.6406 10.8256ZM30.945 10.171C31.6949 10.0282 32.3253 9.968 32.8476 9.968V3.968C31.8767 3.968 30.8643 4.0785 29.8223 4.27698L30.945 10.171ZM32.8476 9.968C34.8872 9.968 35.8258 10.44 36.2463 10.8304L40.329 6.43362C38.3601 4.60534 35.6721 3.968 32.8476 3.968V9.968ZM36.2676 10.85C36.6099 11.1618 37.0796 11.8925 37.0796 13.72H43.0796C43.0796 10.9395 42.3546 8.27822 40.3076 6.41397L36.2676 10.85ZM37.0796 13.72V20.824H43.0796V13.72H37.0796ZM37.0796 20.824C37.0796 21.2499 36.9767 21.0094 37.2998 20.654C37.4627 20.4748 37.6474 20.3685 37.7869 20.3174C37.9092 20.2725 37.9458 20.288 37.8396 20.288V26.288C39.1263 26.288 40.6204 25.921 41.7394 24.69C42.8092 23.5133 43.0796 22.0408 43.0796 20.824H37.0796ZM37.8396 20.288C37.7241 20.288 37.7514 20.2714 37.8655 20.3127C37.9966 20.3601 38.1781 20.4615 38.3411 20.6384C38.6687 20.9936 38.5676 21.2406 38.5676 20.824H32.5676C32.5676 22.0501 32.8452 23.529 33.9301 24.7057C35.0575 25.9283 36.5545 26.288 37.8396 26.288V20.288ZM38.5676 20.824V20.632H32.5676V20.824H38.5676ZM32.7676 19.5551C32.683 19.7751 32.5617 19.9338 32.3205 20.0879L35.5508 25.1441C36.8456 24.3169 37.8123 23.1529 38.3677 21.7089L32.7676 19.5551ZM32.2881 20.1089C32.1282 20.214 31.8147 20.352 31.1836 20.352V26.352C32.7285 26.352 34.2498 25.9993 35.5832 25.1231L32.2881 20.1089ZM32.2716 23.12C33.9418 23.12 35.4687 22.5096 36.6649 21.3133L32.4223 17.0707C32.3962 17.0968 32.3805 17.1079 32.3762 17.1108C32.3723 17.1134 32.3734 17.1123 32.3773 17.1107C32.381 17.1092 32.3787 17.1108 32.3659 17.1132C32.3526 17.1157 32.3225 17.12 32.2716 17.12V23.12ZM36.6649 21.3133C37.9168 20.0615 38.4716 18.4633 38.4716 16.792H32.4716C32.4716 16.9654 32.445 17.0372 32.4415 17.0461C32.4401 17.0497 32.4393 17.0513 32.4392 17.0515C32.4391 17.0517 32.4391 17.0517 32.439 17.0517C32.439 17.0518 32.4381 17.0532 32.4359 17.0559C32.4337 17.0586 32.4294 17.0636 32.4223 17.0707L36.6649 21.3133ZM38.4716 16.792V16.152H32.4716V16.792H38.4716ZM35.4716 13.152H34.3516V19.152H35.4716V13.152ZM34.3516 13.152C32.6755 13.152 30.9614 13.2827 29.6612 13.8515L32.0661 19.3485C32.0412 19.3594 32.1892 19.2962 32.6298 19.2396C33.0455 19.1862 33.6117 19.152 34.3516 19.152V13.152ZM29.7345 13.8206C28.9806 14.1269 28.2053 14.64 27.6329 15.4628C27.0537 16.2955 26.8396 17.2192 26.8396 18.072H32.8396C32.8396 18.2208 32.7962 18.5472 32.5583 18.8892C32.3273 19.2214 32.064 19.3504 31.9928 19.3794L29.7345 13.8206ZM26.8396 18.072C26.8396 19.4289 27.3359 20.7286 28.3844 21.7219L32.5109 17.3661C32.5986 17.4492 32.6962 17.5777 32.7644 17.7427C32.8307 17.9033 32.8396 18.0268 32.8396 18.072H26.8396ZM28.4407 21.7739C29.5957 22.8134 31.0208 23.12 32.2716 23.12V17.12C32.1136 17.12 32.0789 17.1 32.127 17.1153C32.1532 17.1235 32.2005 17.1412 32.2608 17.1748C32.322 17.2088 32.3887 17.2549 32.4545 17.3141L28.4407 21.7739ZM48.4841 9.56H45.4841V20.7294L51.0804 11.0631L48.4841 9.56ZM50.4041 7.672L51.8552 10.2977L51.8667 10.2914L51.8781 10.2849L50.4041 7.672ZM56.1001 7.704L54.485 10.2321L54.5006 10.2421L54.5163 10.2519L56.1001 7.704ZM57.8921 9.944L55.1108 11.0684L57.5437 17.0865L60.5508 11.3338L57.8921 9.944ZM60.0041 7.768L61.4662 10.3876L61.4762 10.382L61.4862 10.3764L60.0041 7.768ZM67.1081 8.6L64.77 10.4797L64.7791 10.491L64.7883 10.5022L67.1081 8.6ZM67.7801 22.648L65.6588 20.5267L65.6316 20.5539L65.6051 20.5818L67.7801 22.648ZM63.0761 11.448L60.5633 13.0868L60.605 13.1508L60.6499 13.2125L63.0761 11.448ZM54.3081 22.648L56.4294 20.5267L54.3081 22.648ZM53.1561 11.448L50.6934 13.1612L50.7114 13.187L50.7299 13.2125L53.1561 11.448ZM49.3481 11.672L51.6907 13.5461L49.3481 11.672ZM46.1801 20.288C46.0193 20.288 46.0017 20.2666 46.076 20.2917C46.1653 20.3219 46.3295 20.4007 46.4913 20.5646C46.8384 20.9162 46.7481 21.1927 46.7481 20.824H40.7481C40.7481 22.098 41.0632 23.6064 42.221 24.7794C43.3859 25.9596 44.897 26.288 46.1801 26.288V20.288ZM46.7481 20.824V9.464H40.7481V20.824H46.7481ZM46.7481 9.464C46.7481 9.09599 46.8382 9.37472 46.4895 9.73285C46.3246 9.90222 46.1535 9.98747 46.0518 10.0223C45.9655 10.0518 45.9695 10.032 46.1161 10.032V4.032C44.8438 4.032 43.3432 4.36352 42.1907 5.54715C41.0527 6.71594 40.7481 8.21067 40.7481 9.464H46.7481ZM46.1161 10.032C46.2627 10.032 46.2668 10.0518 46.1805 10.0223C46.0788 9.98747 45.9076 9.90222 45.7427 9.73285C45.394 9.37472 45.4841 9.09599 45.4841 9.464H51.4841C51.4841 8.21067 51.1796 6.71594 50.0415 5.54715C48.8891 4.36352 47.3885 4.032 46.1161 4.032V10.032ZM45.4841 9.464V9.56H51.4841V9.464H45.4841ZM51.0804 11.0631C51.2802 10.718 51.5267 10.4792 51.8552 10.2977L48.9531 5.04627C47.6602 5.76076 46.6267 6.78066 45.8878 8.05689L51.0804 11.0631ZM51.8781 10.2849C52.2008 10.1029 52.6397 9.968 53.2841 9.968V3.968C51.7525 3.968 50.2714 4.30245 48.9302 5.05906L51.8781 10.2849ZM53.2841 9.968C53.9462 9.968 54.2949 10.1106 54.485 10.2321L57.7153 5.17591C56.3694 4.31602 54.8408 3.968 53.2841 3.968V9.968ZM54.5163 10.2519C54.681 10.3542 54.9034 10.5553 55.1108 11.0684L60.6735 8.81963C60.0702 7.32738 59.0979 6.03513 57.6839 5.15614L54.5163 10.2519ZM60.5508 11.3338C60.7732 10.9083 61.0634 10.6124 61.4662 10.3876L58.542 5.14841C57.1102 5.94759 55.9924 7.1024 55.2334 8.55424L60.5508 11.3338ZM61.4862 10.3764C61.9514 10.112 62.4715 9.968 63.1081 9.968V3.968C61.4834 3.968 59.9342 4.35728 58.5221 5.15963L61.4862 10.3764ZM63.1081 9.968C64.2712 9.968 64.6196 10.2926 64.77 10.4797L69.4463 6.72033C67.8473 4.73135 65.5291 3.968 63.1081 3.968V9.968ZM64.7883 10.5022C65.0221 10.7873 65.4201 11.6111 65.4201 13.56H71.4201C71.4201 11.0289 70.9435 8.54605 69.4279 6.69776L64.7883 10.5022ZM65.4201 13.56V20.824H71.4201V13.56H65.4201ZM65.4201 20.824C65.4201 20.9538 65.402 20.9565 65.4293 20.8787C65.4435 20.8383 65.4682 20.7814 65.5088 20.7158C65.5497 20.6497 65.6003 20.5852 65.6588 20.5267L69.9015 24.7693C71.0485 23.6223 71.4201 22.154 71.4201 20.824H65.4201ZM65.6051 20.5818C65.7416 20.4381 65.895 20.3507 66.0109 20.3086C66.112 20.2719 66.1321 20.288 66.0201 20.288V26.288C67.3473 26.288 68.8246 25.9043 69.9551 24.7142L65.6051 20.5818ZM66.0201 20.288C65.8593 20.288 65.8417 20.2666 65.916 20.2917C66.0053 20.3219 66.1695 20.4007 66.3313 20.5646C66.6784 20.9162 66.5881 21.1927 66.5881 20.824H60.5881C60.5881 22.098 60.9032 23.6064 62.061 24.7794C63.2259 25.9596 64.737 26.288 66.0201 26.288V20.288ZM66.5881 20.824V13.72H60.5881V20.824H66.5881ZM66.5881 13.72C66.5881 12.4858 66.413 10.9357 65.5023 9.68349L60.6499 13.2125C60.5138 13.0254 60.5093 12.9201 60.5335 13.0275C60.5566 13.13 60.5881 13.3482 60.5881 13.72H66.5881ZM65.589 9.80919C64.5312 8.18732 62.8248 7.712 61.4121 7.712V13.712C61.5093 13.712 61.4082 13.7288 61.2066 13.6396C60.9729 13.5362 60.732 13.3455 60.5633 13.0868L65.589 9.80919ZM61.4121 7.712C59.7068 7.712 58.0797 8.35522 56.9255 9.79791L61.6107 13.5461C61.6012 13.558 61.5779 13.5841 61.5391 13.6145C61.4997 13.6453 61.4563 13.6711 61.4141 13.6901C61.3253 13.7298 61.3043 13.712 61.4121 13.712V7.712ZM56.9255 9.79791C55.838 11.1573 55.5001 12.8242 55.5001 14.392H61.5001C61.5001 13.6131 61.6742 13.4667 61.6107 13.5461L56.9255 9.79791ZM55.5001 14.392V20.824H61.5001V14.392H55.5001ZM55.5001 20.824C55.5001 21.2024 55.4075 20.9315 55.7511 20.5788C55.9134 20.4121 56.0812 20.329 56.1788 20.2956C56.261 20.2675 56.2522 20.288 56.1001 20.288V26.288C57.3829 26.288 58.8913 25.954 60.0492 24.7652C61.1928 23.5911 61.5001 22.0882 61.5001 20.824H55.5001ZM56.1001 20.288C55.9898 20.288 55.9998 20.2723 56.0851 20.3028C56.1828 20.3377 56.3126 20.4099 56.4294 20.5267L52.1868 24.7693C53.319 25.9015 54.7644 26.288 56.1001 26.288V20.288ZM56.4294 20.5267C56.488 20.5852 56.5386 20.6497 56.5795 20.7158C56.62 20.7814 56.6447 20.8383 56.6589 20.8787C56.6862 20.9565 56.6681 20.9538 56.6681 20.824H50.6681C50.6681 22.154 51.0398 23.6223 52.1868 24.7693L56.4294 20.5267ZM56.6681 20.824V13.72H50.6681V20.824H56.6681ZM56.6681 13.72C56.6681 12.4858 56.493 10.9357 55.5823 9.68349L50.7299 13.2125C50.5938 13.0254 50.5893 12.9201 50.6135 13.0275C50.6366 13.13 50.6681 13.3482 50.6681 13.72H56.6681ZM55.6188 9.73481C54.5596 8.21211 52.9305 7.712 51.4921 7.712V13.712C51.5656 13.712 51.4628 13.7246 51.2706 13.6396C51.0528 13.5433 50.8417 13.3743 50.6934 13.1612L55.6188 9.73481ZM51.4921 7.712C49.7868 7.712 48.1597 8.35522 47.0055 9.79791L51.6907 13.5461C51.6812 13.558 51.6579 13.5841 51.619 13.6145C51.5797 13.6453 51.5363 13.6711 51.4941 13.6901C51.4053 13.7298 51.3843 13.712 51.4921 13.712V7.712ZM47.0055 9.79791C45.918 11.1573 45.5801 12.8242 45.5801 14.392H51.5801C51.5801 13.6131 51.7542 13.4667 51.6907 13.5461L47.0055 9.79791ZM45.5801 14.392V20.824H51.5801V14.392H45.5801ZM45.5801 20.824C45.5801 21.2024 45.4875 20.9315 45.8311 20.5788C45.9934 20.4121 46.1612 20.329 46.2588 20.2956C46.341 20.2675 46.3322 20.288 46.1801 20.288V26.288C47.4629 26.288 48.9713 25.954 50.1292 24.7652C51.2728 23.5911 51.5801 22.0882 51.5801 20.824H45.5801ZM75.4816 22.36L74.1057 25.0259L74.1313 25.0391L74.1571 25.0518L75.4816 22.36ZM72.4096 19.512L69.8021 20.9956L69.8174 21.0224L69.8332 21.0488L72.4096 19.512ZM72.3776 10.904L69.7701 9.42043L69.7659 9.4279L69.7617 9.4354L72.3776 10.904ZM75.2256 8.024L76.714 10.6287L76.7214 10.6245L76.7287 10.6203L75.2256 8.024ZM84.8576 9.144L82.6569 11.1829L82.6645 11.191L82.6721 11.1991L84.8576 9.144ZM75.9616 16.184V13.184H72.5194L72.9898 16.5939L75.9616 16.184ZM77.3056 18.904L75.44 21.2533L75.4778 21.2834L75.5167 21.3122L77.3056 18.904ZM82.1056 19.576L82.5988 22.5352L82.6373 22.5288L82.6757 22.5213L82.1056 19.576ZM83.9936 18.936L82.6894 16.2343L82.6706 16.2434L82.652 16.2527L83.9936 18.936ZM85.5616 18.776L84.3305 21.5118L84.3885 21.5378L84.4475 21.5614L85.5616 18.776ZM86.4256 19.672L83.594 20.663L83.6158 20.7251L83.6402 20.7862L86.4256 19.672ZM86.4256 21.016L83.6062 19.9908L83.5924 20.0289L83.5796 20.0673L86.4256 21.016ZM85.3696 22.136L83.9473 19.4946L83.9384 19.4994L85.3696 22.136ZM82.8736 23.032L82.259 20.0956L82.2188 20.1041L82.1788 20.1136L82.8736 23.032ZM77.1136 11.096L75.0286 8.93904L75.0103 8.9567L74.9923 8.97468L77.1136 11.096ZM75.9616 13.688L72.9884 13.2878L72.5307 16.688H75.9616V13.688ZM82.8736 13.688V16.688H86.0417L85.8692 13.5246L82.8736 13.688ZM80.2816 20.352C78.7775 20.352 77.6514 20.0842 76.8061 19.6682L74.1571 25.0518C75.9998 25.9585 78.0738 26.352 80.2816 26.352V20.352ZM76.8576 19.6941C76.0059 19.2546 75.4095 18.685 74.9861 17.9752L69.8332 21.0488C70.8605 22.771 72.312 24.1001 74.1057 25.0259L76.8576 19.6941ZM75.0171 18.0284C74.6109 17.3144 74.3536 16.3923 74.3536 15.16H68.3536C68.3536 17.2557 68.8004 19.2349 69.8021 20.9956L75.0171 18.0284ZM74.3536 15.16C74.3536 13.9687 74.601 13.0719 74.9936 12.3726L69.7617 9.4354C68.7889 11.1681 68.3536 13.1087 68.3536 15.16H74.3536ZM74.9851 12.3876C75.4329 11.6005 76.0027 11.0352 76.714 10.6287L73.7372 5.41927C72.0592 6.37814 70.7303 7.73279 69.7701 9.42043L74.9851 12.3876ZM76.7287 10.6203C77.4336 10.2122 78.3002 9.968 79.4176 9.968V3.968C77.3777 3.968 75.4497 4.42778 73.7225 5.42772L76.7287 10.6203ZM79.4176 9.968C81.0062 9.968 81.9701 10.4415 82.6569 11.1829L87.0583 7.10513C85.0571 4.94514 82.3943 3.968 79.4176 3.968V9.968ZM82.6721 11.1991C83.3703 11.9416 83.8736 13.0783 83.8736 14.968H89.8736C89.8736 11.9511 89.033 9.20507 87.0432 7.08892L82.6721 11.1991ZM83.8736 14.968C83.8736 14.8669 83.8888 14.641 84.0061 14.3565C84.1309 14.0537 84.338 13.7682 84.6115 13.5471C85.1201 13.1359 85.5448 13.184 85.3696 13.184V19.184C86.1971 19.184 87.3739 19.0294 88.3838 18.2129C89.5156 17.2978 89.8736 16.0245 89.8736 14.968H83.8736ZM85.3696 13.184H75.9616V19.184H85.3696V13.184ZM72.9898 16.5939C73.2283 18.3236 73.9245 20.0499 75.44 21.2533L79.1713 16.5547C79.186 16.5664 79.1614 16.5566 79.1152 16.463C79.0631 16.3576 78.9847 16.1454 78.9335 15.7741L72.9898 16.5939ZM75.5167 21.3122C76.951 22.3777 78.6826 22.736 80.3776 22.736V16.736C79.47 16.736 79.1536 16.5396 79.0946 16.4958L75.5167 21.3122ZM80.3776 22.736C81.0917 22.736 81.8367 22.6622 82.5988 22.5352L81.6124 16.6168C81.0945 16.7031 80.6875 16.736 80.3776 16.736V22.736ZM82.6757 22.5213C83.6026 22.3419 84.4917 22.041 85.3353 21.6193L82.652 16.2527C82.3008 16.4283 81.9313 16.5541 81.5356 16.6307L82.6757 22.5213ZM85.2979 21.6377C85.3844 21.5959 85.3283 21.6387 85.1542 21.6565C84.9565 21.6767 84.6553 21.6579 84.3305 21.5118L86.7927 16.0402C85.2363 15.3399 83.7232 15.7353 82.6894 16.2343L85.2979 21.6377ZM84.4475 21.5614C84.3092 21.5061 84.1192 21.3982 83.9381 21.2104C83.756 21.0216 83.6492 20.8207 83.594 20.663L89.2572 18.681C88.8161 17.4207 87.892 16.477 86.6758 15.9906L84.4475 21.5614ZM83.6402 20.7862C83.5875 20.6545 83.5536 20.4956 83.5536 20.328C83.5536 20.1646 83.5857 20.0472 83.6062 19.9908L89.245 22.0412C89.644 20.944 89.6803 19.731 89.2111 18.5578L83.6402 20.7862ZM83.5796 20.0673C83.6544 19.8429 83.77 19.6767 83.8669 19.574C83.9551 19.4804 84.0036 19.4643 83.9473 19.4946L86.7919 24.7774C87.7894 24.2403 88.8091 23.3524 89.2717 21.9647L83.5796 20.0673ZM83.9384 19.4994C83.4728 19.7522 82.9202 19.9573 82.259 20.0956L83.4882 25.9684C84.6618 25.7227 85.7731 25.3305 86.8009 24.7726L83.9384 19.4994ZM82.1788 20.1136C81.4865 20.2784 80.8562 20.352 80.2816 20.352V26.352C81.371 26.352 82.4688 26.2122 83.5685 25.9504L82.1788 20.1136ZM79.6096 7.168C77.9338 7.168 76.3126 7.69782 75.0286 8.93904L79.1987 13.253C79.2219 13.2305 79.2362 13.2219 79.2631 13.2119C79.2974 13.1992 79.4005 13.168 79.6096 13.168V7.168ZM74.9923 8.97468C73.7928 10.1741 73.2008 11.7106 72.9884 13.2878L78.9348 14.0882C79.0212 13.4467 79.1971 13.2552 79.2349 13.2173L74.9923 8.97468ZM75.9616 16.688H82.8736V10.688H75.9616V16.688ZM85.8692 13.5246C85.7844 11.9702 85.3606 10.3014 84.1614 9.00818C82.9007 7.64855 81.2207 7.168 79.6096 7.168V13.168C79.8402 13.168 79.9243 13.2015 79.9144 13.1978C79.8896 13.1885 79.8223 13.153 79.7618 13.0878C79.6507 12.9679 79.8349 13.0592 79.8781 13.8514L85.8692 13.5246ZM94.4521 9.56H91.4521V20.9234L97.0612 11.0408L94.4521 9.56ZM96.4361 7.672L97.8546 10.3155H97.8546L96.4361 7.672ZM102.964 7.96L101.337 10.4801L101.348 10.4877L101.36 10.4952L102.964 7.96ZM105.396 10.776L108.107 9.49174L105.396 10.776ZM105.396 19.512L108.107 20.7963L108.112 20.7872L108.116 20.7781L105.396 19.512ZM102.964 22.36L104.592 24.8801L104.598 24.876L104.604 24.8718L102.964 22.36ZM96.5001 22.68L95.1056 25.3362L95.119 25.3432L95.1325 25.3501L96.5001 22.68ZM94.5161 20.888L97.056 19.2915L91.5161 10.478V20.888H94.5161ZM100.436 18.616L98.1584 16.6636L100.436 18.616ZM100.436 11.704L98.1584 13.6564L98.1724 13.6727L98.1866 13.6889L100.436 11.704ZM95.4121 11.704L97.6616 13.6889L97.6759 13.6727L97.6899 13.6564L95.4121 11.704ZM95.4121 18.616L97.6899 16.6636L95.4121 18.616ZM92.1161 26.048C91.9553 26.048 91.9377 26.0266 92.012 26.0517C92.1013 26.0819 92.2655 26.1607 92.4273 26.3246C92.7744 26.6763 92.6841 26.9527 92.6841 26.584H86.6841C86.6841 27.858 86.9992 29.3664 88.157 30.5394C89.3219 31.7196 90.833 32.048 92.1161 32.048V26.048ZM92.6841 26.584V9.464H86.6841V26.584H92.6841ZM92.6841 9.464C92.6841 9.09599 92.7742 9.37472 92.4255 9.73285C92.2606 9.90222 92.0895 9.98747 91.9878 10.0223C91.9015 10.0518 91.9055 10.032 92.0521 10.032V4.032C90.7798 4.032 89.2792 4.36352 88.1267 5.54715C86.9887 6.71594 86.6841 8.21067 86.6841 9.464H92.6841ZM92.0521 10.032C92.2076 10.032 92.2205 10.0527 92.1421 10.0262C92.0487 9.9947 91.8812 9.91385 91.7168 9.74722C91.3645 9.39022 91.4521 9.10584 91.4521 9.464H97.4521C97.4521 8.20082 97.1398 6.70045 95.9874 5.53277C94.8279 4.35777 93.3247 4.032 92.0521 4.032V10.032ZM91.4521 9.464V9.56H97.4521V9.464H91.4521ZM97.0612 11.0408C97.2039 10.7893 97.43 10.5433 97.8546 10.3155L95.0177 5.02852C93.6929 5.73938 92.5963 6.75206 91.8431 8.07918L97.0612 11.0408ZM97.8546 10.3155C98.2522 10.1021 98.7385 9.968 99.3801 9.968V3.968C97.8457 3.968 96.3694 4.30319 95.0177 5.02852L97.8546 10.3155ZM99.3801 9.968C100.24 9.968 100.854 10.1687 101.337 10.4801L104.592 5.43988C103.026 4.42859 101.251 3.968 99.3801 3.968V9.968ZM101.36 10.4952C101.883 10.8263 102.33 11.3109 102.685 12.0603L108.107 9.49174C107.31 7.80914 106.135 6.4164 104.568 5.42476L101.36 10.4952ZM102.685 12.0603C103.029 12.7867 103.26 13.7777 103.26 15.128H109.26C109.26 13.1076 108.915 11.1973 108.107 9.49174L102.685 12.0603ZM103.26 15.128C103.26 16.4762 103.03 17.487 102.676 18.2459L108.116 20.7781C108.915 19.0624 109.26 17.1505 109.26 15.128H103.26ZM102.685 18.2277C102.327 18.984 101.87 19.4916 101.324 19.8482L104.604 24.8718C106.149 23.863 107.314 22.472 108.107 20.7963L102.685 18.2277ZM101.337 19.8399C100.854 20.1513 100.24 20.352 99.3801 20.352V26.352C101.251 26.352 103.026 25.8914 104.592 24.8801L101.337 19.8399ZM99.3801 20.352C98.7793 20.352 98.2923 20.2273 97.8678 20.0099L95.1325 25.3501C96.4573 26.0287 97.8903 26.352 99.3801 26.352V20.352ZM97.8946 20.0238C97.4651 19.7983 97.218 19.5491 97.056 19.2915L91.9762 22.4845C92.7529 23.7202 93.8285 24.6657 95.1056 25.3362L97.8946 20.0238ZM91.5161 20.888V26.584H97.5161V20.888H91.5161ZM91.5161 26.584C91.5161 26.9624 91.4235 26.6915 91.7671 26.3388C91.9294 26.1721 92.0972 26.089 92.1948 26.0556C92.277 26.0275 92.2682 26.048 92.1161 26.048V32.048C93.3989 32.048 94.9073 31.714 96.0652 30.5252C97.2088 29.3511 97.5161 27.8483 97.5161 26.584H91.5161ZM97.9401 22.736C99.7986 22.736 101.478 22.0107 102.714 20.5684L98.1584 16.6636C98.1276 16.6995 98.1086 16.7147 98.1036 16.7185C98.0991 16.7219 98.1002 16.7206 98.104 16.7189C98.1075 16.7173 98.1017 16.7206 98.0805 16.7249C98.0584 16.7294 98.0135 16.736 97.9401 16.736V22.736ZM102.714 20.5684C104.03 19.0328 104.396 17.0153 104.396 15.128H98.3961C98.3961 15.7262 98.3342 16.1316 98.2637 16.3879C98.195 16.6376 98.1333 16.6929 98.1584 16.6636L102.714 20.5684ZM104.396 15.128C104.396 13.26 104.029 11.2419 102.686 9.71914L98.1866 13.6889C98.1482 13.6453 98.2025 13.6819 98.2675 13.9139C98.3347 14.1533 98.3961 14.5427 98.3961 15.128H104.396ZM102.714 9.75163C101.478 8.30925 99.7986 7.584 97.9401 7.584V13.584C98.0135 13.584 98.0584 13.5906 98.0805 13.5951C98.1017 13.5994 98.1075 13.6027 98.104 13.6011C98.1002 13.5994 98.0991 13.5981 98.1036 13.6015C98.1086 13.6053 98.1276 13.6205 98.1584 13.6564L102.714 9.75163ZM97.9401 7.584C96.0818 7.584 94.3839 8.29382 93.1344 9.75163L97.6899 13.6564C97.7178 13.6238 97.7347 13.6106 97.7384 13.6078C97.7406 13.6061 97.7413 13.6058 97.7406 13.6062C97.7399 13.6066 97.7393 13.6069 97.7393 13.6069C97.7394 13.6068 97.7417 13.6058 97.7469 13.6042C97.7521 13.6025 97.7616 13.5999 97.7761 13.597C97.8048 13.5913 97.8576 13.584 97.9401 13.584V7.584ZM93.1626 9.71914C91.819 11.2419 91.4521 13.26 91.4521 15.128H97.4521C97.4521 14.5427 97.5136 14.1533 97.5807 13.9139C97.6458 13.6819 97.7001 13.6453 97.6616 13.6889L93.1626 9.71914ZM91.4521 15.128C91.4521 17.0153 91.8182 19.0328 93.1344 20.5684L97.6899 16.6636C97.715 16.6929 97.6533 16.6376 97.5846 16.3879C97.514 16.1316 97.4521 15.7262 97.4521 15.128H91.4521ZM93.1344 20.5684C94.3839 22.0262 96.0818 22.736 97.9401 22.736V16.736C97.8576 16.736 97.8048 16.7287 97.7761 16.723C97.7616 16.7201 97.7521 16.7175 97.7469 16.7158C97.7417 16.7142 97.7394 16.7132 97.7393 16.7131C97.7393 16.7131 97.7399 16.7134 97.7406 16.7138C97.7413 16.7142 97.7406 16.7139 97.7384 16.7122C97.7347 16.7094 97.7178 16.6962 97.6899 16.6636L93.1344 20.5684ZM114.591 18.808L112.306 20.7509L112.358 20.8125L112.414 20.8712L114.591 18.808ZM116.575 19.384L116.203 16.4072L116.177 16.4104L116.151 16.4142L116.575 19.384ZM117.055 19.352V22.352H117.149L117.243 22.3462L117.055 19.352ZM117.759 19.672L115.126 21.1086L115.174 21.1973L115.228 21.2826L117.759 19.672ZM116.415 23.224L116.714 26.2091L116.807 26.1998L116.899 26.1848L116.415 23.224ZM115.679 23.288L115.449 20.2968L115.336 20.3056L115.223 20.3229L115.679 23.288ZM114.879 20.352C113.542 20.352 113.064 19.9945 112.863 19.771C112.607 19.4863 112.215 18.7615 112.215 17.048H106.215C106.215 19.5372 106.768 21.9643 108.4 23.781C110.087 25.6588 112.441 26.352 114.879 26.352V20.352ZM112.215 17.048V2.616H106.215V17.048H112.215ZM112.215 2.616C112.215 2.24731 112.306 2.52375 111.959 2.87541C111.797 3.03933 111.633 3.11812 111.543 3.14829C111.469 3.1734 111.487 3.152 111.647 3.152V-2.848C110.364 -2.848 108.853 -2.51963 107.688 -1.33941C106.53 -0.166419 106.215 1.34203 106.215 2.616H112.215ZM111.647 3.152C111.799 3.152 111.808 3.17252 111.726 3.14439C111.628 3.11099 111.461 3.02786 111.298 2.86123C110.955 2.50846 111.047 2.23758 111.047 2.616H117.047C117.047 1.35175 116.74 -0.151129 115.596 -1.32523C114.439 -2.51397 112.93 -2.848 111.647 -2.848V3.152ZM111.047 2.616V16.856H117.047V2.616H111.047ZM111.047 16.856C111.047 18.0625 111.284 19.5495 112.306 20.7509L116.877 16.8651C117.029 17.0438 117.071 17.1863 117.073 17.1946C117.074 17.1983 117.067 17.1743 117.06 17.1159C117.053 17.0575 117.047 16.9722 117.047 16.856H111.047ZM112.414 20.8712C113.428 21.9425 114.751 22.416 116.095 22.416V16.416C116.116 16.416 116.225 16.4203 116.38 16.4827C116.541 16.5478 116.675 16.6458 116.769 16.7448L112.414 20.8712ZM116.095 22.416C116.39 22.416 116.693 22.3977 117 22.3538L116.151 16.4142C116.159 16.413 116.142 16.416 116.095 16.416V22.416ZM116.947 22.3608C117.013 22.3527 117.047 22.352 117.055 22.352V16.352C116.765 16.352 116.479 16.3727 116.203 16.4072L116.947 22.3608ZM117.243 22.3462C117.077 22.3565 116.698 22.3527 116.246 22.1471C115.748 21.9208 115.361 21.5396 115.126 21.1086L120.393 18.2354C120.03 17.5697 119.461 17.0179 118.729 16.6849C118.042 16.3726 117.375 16.3262 116.868 16.3578L117.243 22.3462ZM115.228 21.2826C115.154 21.1659 115.102 21.0625 115.067 20.983C115.032 20.9031 115.009 20.8373 114.995 20.7913C114.967 20.7033 114.961 20.656 114.963 20.6691C114.965 20.679 114.97 20.72 114.975 20.7995C114.98 20.8776 114.983 20.9807 114.983 21.112H120.983C120.983 20.6623 120.961 20.1941 120.892 19.7469C120.831 19.3582 120.695 18.697 120.29 18.0614L115.228 21.2826ZM114.983 21.112C114.983 21.3439 114.931 21.1191 115.183 20.7797C115.311 20.6063 115.474 20.4686 115.64 20.3761C115.797 20.2885 115.91 20.2667 115.932 20.2632L116.899 26.1848C118.021 26.0016 119.18 25.4606 120 24.3563C120.775 23.3129 120.983 22.1174 120.983 21.112H114.983ZM116.117 20.2389C115.932 20.2574 115.71 20.2768 115.449 20.2968L115.909 26.2792C116.203 26.2566 116.472 26.2333 116.714 26.2091L116.117 20.2389ZM115.223 20.3229C115.083 20.3445 114.969 20.352 114.879 20.352V26.352C115.302 26.352 115.721 26.3168 116.136 26.2531L115.223 20.3229ZM122.08 22.68L120.738 25.3633L122.08 22.68ZM119.936 20.856L117.439 22.5201L117.455 22.5438L117.472 22.5672L119.936 20.856ZM120.064 15.544L117.806 13.5685L120.064 15.544ZM122.976 14.104L123.582 17.0421L123.604 17.0375L123.626 17.0326L122.976 14.104ZM129.472 13.656V16.656H132.472V13.656H129.472ZM128.832 11.128L126.765 13.303L126.795 13.3308L126.825 13.3579L128.832 11.128ZM124.768 10.744L125.32 13.6926L125.365 13.6843L125.409 13.6747L124.768 10.744ZM122.56 11.416L121.433 8.63578L121.405 8.6469L121.378 8.65856L122.56 11.416ZM121.056 11.48L119.553 14.0763L119.605 14.1066L119.658 14.1348L121.056 11.48ZM120.256 10.456L117.361 11.2453L117.366 11.2628L117.371 11.2802L120.256 10.456ZM120.352 9.048L117.621 7.80659L117.597 7.85891L117.575 7.9121L120.352 9.048ZM121.568 8.024L122.577 10.8492L122.609 10.8378L122.641 10.8256L121.568 8.024ZM124.384 7.224L124.889 10.1812L124.917 10.1764L124.945 10.171L124.384 7.224ZM132.288 8.632L130.246 10.8304L130.257 10.8403L130.268 10.85L132.288 8.632ZM129.568 20.632H132.568L126.768 19.5551L129.568 20.632ZM127.936 22.616L126.32 20.0879L126.304 20.0983L126.288 20.1089L127.936 22.616ZM128.544 19.192L130.665 21.3133L128.544 19.192ZM129.472 16.152H132.472V13.152H129.472V16.152ZM124.864 16.6L125.993 19.3794L126.03 19.3644L126.066 19.3485L124.864 16.6ZM124.448 19.544L122.384 21.7219L122.412 21.7482L122.441 21.7739L124.448 19.544ZM125.184 20.352C124.396 20.352 123.835 20.2036 123.421 19.9967L120.738 25.3633C122.116 26.0524 123.624 26.352 125.184 26.352V20.352ZM123.421 19.9967C122.942 19.757 122.626 19.4705 122.4 19.1448L117.472 22.5672C118.312 23.7775 119.425 24.707 120.738 25.3633L123.421 19.9967ZM122.432 19.1919C122.262 18.9372 122.168 18.6568 122.168 18.264H116.168C116.168 19.7912 116.585 21.2388 117.439 22.5201L122.432 19.1919ZM122.168 18.264C122.168 17.6744 122.312 17.5301 122.321 17.5195L117.806 13.5685C116.621 14.9232 116.168 16.5923 116.168 18.264H122.168ZM122.321 17.5195C122.317 17.5244 122.567 17.2515 123.582 17.0421L122.369 11.1659C120.696 11.5111 119.005 12.1983 117.806 13.5685L122.321 17.5195ZM123.626 17.0326C124.668 16.8012 126.204 16.656 128.32 16.656V10.656C125.998 10.656 123.972 10.8095 122.325 11.1754L123.626 17.0326ZM128.32 16.656H129.472V10.656H128.32V16.656ZM132.472 13.656V13.112H126.472V13.656H132.472ZM132.472 13.112C132.472 11.8465 132.203 10.1261 130.839 8.89812L126.825 13.3579C126.57 13.1284 126.478 12.8999 126.456 12.833C126.44 12.7824 126.472 12.8532 126.472 13.112H132.472ZM130.898 8.953C129.624 7.74278 127.925 7.52 126.656 7.52V13.52C126.814 13.52 126.935 13.5279 127.022 13.5381C127.11 13.5483 127.153 13.5593 127.16 13.5613C127.18 13.5668 126.993 13.5189 126.765 13.303L130.898 8.953ZM126.656 7.52C125.824 7.52 124.977 7.62729 124.127 7.8133L125.409 13.6747C125.924 13.562 126.335 13.52 126.656 13.52V7.52ZM124.215 7.79538C123.297 7.9674 122.367 8.25682 121.433 8.63578L123.687 14.1962C124.331 13.9352 124.873 13.7766 125.32 13.6926L124.215 7.79538ZM121.378 8.65856C121.319 8.68358 121.406 8.6353 121.608 8.62671C121.835 8.61706 122.142 8.66185 122.453 8.82524L119.658 14.1348C121.159 14.9243 122.677 14.6297 123.741 14.1734L121.378 8.65856ZM122.559 8.88372C122.661 8.94302 122.794 9.04533 122.916 9.20107C123.038 9.35705 123.106 9.51294 123.14 9.63184L117.371 11.2802C117.714 12.4799 118.478 13.4545 119.553 14.0763L122.559 8.88372ZM123.15 9.66665C123.171 9.74411 123.184 9.84505 123.177 9.95607C123.169 10.0656 123.144 10.1447 123.128 10.1839L117.575 7.9121C117.144 8.96491 117.052 10.1104 117.361 11.2453L123.15 9.66665ZM123.083 10.2894C123 10.4724 122.877 10.6263 122.748 10.7347C122.629 10.835 122.55 10.8586 122.577 10.8492L120.559 5.19877C119.385 5.6181 118.244 6.43416 117.621 7.80659L123.083 10.2894ZM122.641 10.8256C123.496 10.4978 124.243 10.2914 124.889 10.1812L123.879 4.26679C122.775 4.45528 121.644 4.78216 120.495 5.22243L122.641 10.8256ZM124.945 10.171C125.695 10.0282 126.325 9.968 126.848 9.968V3.968C125.877 3.968 124.864 4.0785 123.822 4.27698L124.945 10.171ZM126.848 9.968C128.887 9.968 129.826 10.44 130.246 10.8304L134.329 6.43362C132.36 4.60534 129.672 3.968 126.848 3.968V9.968ZM130.268 10.85C130.61 11.1618 131.08 11.8925 131.08 13.72H137.08C137.08 10.9395 136.355 8.27822 134.308 6.41397L130.268 10.85ZM131.08 13.72V20.824H137.08V13.72H131.08ZM131.08 20.824C131.08 21.2499 130.977 21.0094 131.3 20.654C131.463 20.4748 131.647 20.3685 131.787 20.3174C131.909 20.2725 131.946 20.288 131.84 20.288V26.288C133.126 26.288 134.62 25.921 135.739 24.69C136.809 23.5133 137.08 22.0408 137.08 20.824H131.08ZM131.84 20.288C131.724 20.288 131.751 20.2714 131.866 20.3127C131.997 20.3601 132.178 20.4615 132.341 20.6384C132.669 20.9936 132.568 21.2406 132.568 20.824H126.568C126.568 22.0501 126.845 23.529 127.93 24.7057C129.057 25.9283 130.555 26.288 131.84 26.288V20.288ZM132.568 20.824V20.632H126.568V20.824H132.568ZM126.768 19.5551C126.683 19.7751 126.562 19.9338 126.32 20.0879L129.551 25.1441C130.846 24.3169 131.812 23.1529 132.368 21.7089L126.768 19.5551ZM126.288 20.1089C126.128 20.214 125.815 20.352 125.184 20.352V26.352C126.729 26.352 128.25 25.9993 129.583 25.1231L126.288 20.1089ZM126.272 23.12C127.942 23.12 129.469 22.5096 130.665 21.3133L126.422 17.0707C126.396 17.0968 126.38 17.1079 126.376 17.1108C126.372 17.1134 126.373 17.1123 126.377 17.1107C126.381 17.1092 126.379 17.1108 126.366 17.1132C126.353 17.1157 126.323 17.12 126.272 17.12V23.12ZM130.665 21.3133C131.917 20.0615 132.472 18.4633 132.472 16.792H126.472C126.472 16.9654 126.445 17.0372 126.442 17.0461C126.44 17.0497 126.439 17.0513 126.439 17.0515C126.439 17.0517 126.439 17.0517 126.439 17.0517C126.439 17.0518 126.438 17.0532 126.436 17.0559C126.434 17.0586 126.429 17.0636 126.422 17.0707L130.665 21.3133ZM132.472 16.792V16.152H126.472V16.792H132.472ZM129.472 13.152H128.352V19.152H129.472V13.152ZM128.352 13.152C126.676 13.152 124.961 13.2827 123.661 13.8515L126.066 19.3485C126.041 19.3594 126.189 19.2962 126.63 19.2396C127.045 19.1862 127.612 19.152 128.352 19.152V13.152ZM123.734 13.8206C122.981 14.1269 122.205 14.64 121.633 15.4628C121.054 16.2955 120.84 17.2192 120.84 18.072H126.84C126.84 18.2208 126.796 18.5472 126.558 18.8892C126.327 19.2214 126.064 19.3504 125.993 19.3794L123.734 13.8206ZM120.84 18.072C120.84 19.4289 121.336 20.7286 122.384 21.7219L126.511 17.3661C126.599 17.4492 126.696 17.5777 126.764 17.7427C126.831 17.9033 126.84 18.0268 126.84 18.072H120.84ZM122.441 21.7739C123.596 22.8134 125.021 23.12 126.272 23.12V17.12C126.114 17.12 126.079 17.1 126.127 17.1153C126.153 17.1235 126.201 17.1412 126.261 17.1748C126.322 17.2088 126.389 17.2549 126.455 17.3141L122.441 21.7739ZM139.992 28.088L137.365 29.5372L137.373 29.5522L137.382 29.567L139.992 28.088ZM140.056 25.912L142.78 27.1692L142.786 27.1552L142.793 27.1412L140.056 25.912ZM141.752 22.136L144.489 23.3652L145.032 22.1543L144.502 20.9374L141.752 22.136ZM136.536 10.168L133.76 11.3067L133.773 11.3368L133.786 11.3666L136.536 10.168ZM136.536 7.992L133.926 6.51296L133.917 6.52782L133.909 6.54277L136.536 7.992ZM140.056 7.448L138.164 9.77634L138.243 9.84036L138.326 9.8989L140.056 7.448ZM141.048 8.952L143.841 7.85637L143.837 7.84709L143.833 7.83783L141.048 8.952ZM144.312 17.272L141.519 18.3676L144.264 25.3635L147.091 18.4008L144.312 17.272ZM147.704 8.92L144.93 7.77775L144.927 7.78444L144.924 7.79115L147.704 8.92ZM148.696 7.448L150.426 9.8989L150.439 9.88954L150.452 9.88004L148.696 7.448ZM151.928 7.992L149.245 9.33364L149.272 9.38801L149.301 9.44123L151.928 7.992ZM151.896 10.136L149.157 8.9109L149.154 8.9183L149.151 8.92571L151.896 10.136ZM144.376 27.192L147.121 28.4029L147.121 28.4023L144.376 27.192ZM143.288 28.664L141.686 26.1275L141.655 26.1473L141.624 26.1679L143.288 28.664ZM141.816 26.048C141.76 26.048 141.898 26.0381 142.117 26.1532C142.358 26.28 142.521 26.4659 142.602 26.609L137.382 29.567C138.372 31.3143 140.089 32.048 141.816 32.048V26.048ZM142.619 26.6388C142.661 26.7158 142.698 26.8077 142.722 26.9091C142.746 27.0101 142.753 27.0994 142.751 27.1682C142.747 27.3009 142.714 27.311 142.78 27.1692L137.332 24.6548C136.679 26.0704 136.431 27.8437 137.365 29.5372L142.619 26.6388ZM142.793 27.1412L144.489 23.3652L139.015 20.9068L137.319 24.6828L142.793 27.1412ZM144.502 20.9374L139.286 8.9694L133.786 11.3666L139.002 23.3346L144.502 20.9374ZM139.311 9.02933C139.255 8.89078 139.28 8.89067 139.28 9C139.28 9.0562 139.273 9.1302 139.252 9.21446C139.23 9.29912 139.198 9.37623 139.163 9.44123L133.909 6.54277C133.013 8.16654 133.177 9.88364 133.76 11.3067L139.311 9.02933ZM139.146 9.47104C139.078 9.59083 138.985 9.7092 138.87 9.81178C138.756 9.91303 138.648 9.97507 138.57 10.0101C138.429 10.0733 138.425 10.032 138.68 10.032V4.032C137.071 4.032 135.042 4.54354 133.926 6.51296L139.146 9.47104ZM138.68 10.032C138.731 10.032 138.69 10.0386 138.588 10.0076C138.477 9.97428 138.322 9.90479 138.164 9.77634L141.948 5.11966C140.925 4.28909 139.73 4.032 138.68 4.032V10.032ZM138.326 9.8989C138.216 9.8214 138.146 9.75164 138.109 9.71176C138.073 9.67201 138.062 9.65301 138.072 9.66778C138.081 9.68211 138.105 9.7201 138.139 9.78879C138.174 9.85703 138.215 9.9482 138.262 10.0662L143.833 7.83783C143.47 6.93026 142.87 5.76267 141.786 4.9971L138.326 9.8989ZM138.255 10.0476L141.519 18.3676L147.105 16.1764L143.841 7.85637L138.255 10.0476ZM147.091 18.4008L150.483 10.0488L144.924 7.79115L141.532 16.1432L147.091 18.4008ZM150.478 10.0622C150.524 9.95004 150.565 9.86349 150.598 9.7989C150.632 9.73392 150.655 9.69802 150.664 9.68456C150.673 9.67074 150.663 9.68832 150.628 9.72535C150.594 9.76255 150.528 9.82693 150.426 9.8989L146.966 4.9971C145.903 5.74758 145.3 6.87798 144.93 7.77775L150.478 10.0622ZM150.452 9.88004C150.318 9.97717 150.204 10.0177 150.152 10.0317C150.106 10.0441 150.124 10.032 150.232 10.032V4.032C149.179 4.032 147.987 4.25953 146.939 5.01596L150.452 9.88004ZM150.232 10.032C150.246 10.032 150.053 10.0338 149.786 9.88277C149.497 9.71936 149.323 9.49069 149.245 9.33364L154.611 6.65036C154.213 5.8533 153.596 5.14464 152.742 4.66123C151.91 4.19019 151.028 4.032 150.232 4.032V10.032ZM149.301 9.44123C149.264 9.3736 149.229 9.29044 149.206 9.19613C149.183 9.10201 149.175 9.0164 149.176 8.94723C149.178 8.81157 149.212 8.78982 149.157 8.9109L154.634 11.3611C155.272 9.9351 155.466 8.195 154.555 6.54276L149.301 9.44123ZM149.151 8.92571L141.631 25.9817L147.121 28.4023L154.641 11.3463L149.151 8.92571ZM141.631 25.9811C141.585 26.0862 141.544 26.1656 141.512 26.2234C141.479 26.2815 141.458 26.3117 141.451 26.3208C141.445 26.3301 141.457 26.3117 141.493 26.277C141.529 26.2419 141.592 26.1868 141.686 26.1275L144.89 31.2005C146.032 30.4793 146.702 29.352 147.121 28.4029L141.631 25.9811ZM141.624 26.1679C141.735 26.0934 141.829 26.0611 141.875 26.0491C141.916 26.0384 141.903 26.048 141.816 26.048V32.048C142.833 32.048 143.949 31.8289 144.952 31.1601L141.624 26.1679Z" fill="#5B3511"/>
</g>
<defs>
<filter id="filter0_d_42_514" x="0.865601" y="0.0880127" width="152.574" height="31.96" filterUnits="userSpaceOnUse" color-interpolation-filters="sRGB">
<feFlood flood-opacity="0" result="BackgroundImageFix"/>
<feColorMatrix in="SourceAlpha" type="matrix" values="0 0 0 0 0 0 0 0 0 0 0 0 0 0 0 0 0 0 127 0" result="hardAlpha"/>
<feOffset dy="2"/>
<feGaussianBlur stdDeviation="0.5"/>
<feComposite in2="hardAlpha" operator="out"/>
<feColorMatrix type="matrix" values="0 0 0 0 0 0 0 0 0 0 0 0 0 0 0 0 0 0 0.25 0"/>
<feBlend mode="normal" in2="BackgroundImageFix" result="effect1_dropShadow_42_514"/>
<feBlend mode="normal" in="SourceGraphic" in2="effect1_dropShadow_42_514" result="shape"/>
</filter>
<linearGradient id="paint0_linear_42_514" x1="76.5" y1="-13" x2="76.5" y2="37" gradientUnits="userSpaceOnUse">
<stop stop-color="#FDE092"/>
<stop offset="1" stop-color="#C18B2C"/>
</linearGradient>
</defs>
</svg>
