<svg width="131" height="26" viewBox="0 0 131 26" fill="none" xmlns="http://www.w3.org/2000/svg">
<g filter="url(#filter0_d_35_110)">
<path d="M7.87309 18.264C7.20109 18.264 6.51309 18.208 5.80909 18.096C5.12109 18 4.45709 17.856 3.81709 17.664C3.19309 17.472 2.63309 17.232 2.13709 16.944C1.78509 16.752 1.53709 16.504 1.39309 16.2C1.24909 15.88 1.19309 15.56 1.22509 15.24C1.27309 14.92 1.39309 14.64 1.58509 14.4C1.79309 14.144 2.04909 13.984 2.35309 13.92C2.67309 13.84 3.02509 13.896 3.40909 14.088C4.06509 14.456 4.77709 14.728 5.54509 14.904C6.32909 15.08 7.10509 15.168 7.87309 15.168C9.04109 15.168 9.87309 14.992 10.3691 14.64C10.8651 14.272 11.1131 13.816 11.1131 13.272C11.1131 12.808 10.9371 12.44 10.5851 12.168C10.2331 11.896 9.61709 11.664 8.73709 11.472L6.02509 10.896C4.48909 10.576 3.34509 10.032 2.59309 9.264C1.85709 8.48 1.48909 7.456 1.48909 6.192C1.48909 5.392 1.65709 4.664 1.99309 4.008C2.32909 3.352 2.80109 2.784 3.40909 2.304C4.01709 1.824 4.73709 1.456 5.56909 1.2C6.41709 0.943999 7.34509 0.816 8.35309 0.816C9.24909 0.816 10.1291 0.927999 10.9931 1.152C11.8571 1.36 12.6171 1.672 13.2731 2.088C13.5931 2.28 13.8091 2.528 13.9211 2.832C14.0491 3.12 14.0891 3.416 14.0411 3.72C14.0091 4.008 13.8891 4.264 13.6811 4.488C13.4891 4.712 13.2411 4.856 12.9371 4.92C12.6331 4.984 12.2651 4.912 11.8331 4.704C11.3051 4.432 10.7451 4.232 10.1531 4.104C9.56109 3.976 8.95309 3.912 8.32909 3.912C7.65709 3.912 7.08109 4 6.60109 4.176C6.13709 4.352 5.77709 4.6 5.52109 4.92C5.28109 5.24 5.16109 5.608 5.16109 6.024C5.16109 6.488 5.32909 6.864 5.66509 7.152C6.00109 7.44 6.58509 7.672 7.41709 7.848L10.1291 8.424C11.6971 8.76 12.8651 9.304 13.6331 10.056C14.4011 10.792 14.7851 11.768 14.7851 12.984C14.7851 13.784 14.6251 14.512 14.3051 15.168C13.9851 15.808 13.5211 16.36 12.9131 16.824C12.3051 17.288 11.5771 17.648 10.7291 17.904C9.88109 18.144 8.92909 18.264 7.87309 18.264ZM18.7121 18.216C18.1201 18.216 17.6641 18.056 17.3441 17.736C17.0401 17.416 16.8881 16.96 16.8881 16.368V2.712C16.8881 2.104 17.0401 1.648 17.3441 1.344C17.6641 1.024 18.1201 0.863999 18.7121 0.863999C19.2881 0.863999 19.7281 1.024 20.0321 1.344C20.3521 1.648 20.5121 2.104 20.5121 2.712V11.088H20.5601L24.0401 7.224C24.3921 6.824 24.7121 6.528 25.0001 6.336C25.3041 6.128 25.7041 6.024 26.2001 6.024C26.6961 6.024 27.0721 6.152 27.3281 6.408C27.6001 6.664 27.7361 6.976 27.7361 7.344C27.7521 7.696 27.6001 8.056 27.2801 8.424L23.6081 12.528V11.16L27.6881 15.864C27.9921 16.232 28.1201 16.6 28.0721 16.968C28.0401 17.336 27.8801 17.64 27.5921 17.88C27.3041 18.104 26.9361 18.216 26.4881 18.216C25.9441 18.216 25.5041 18.112 25.1681 17.904C24.8481 17.696 24.5201 17.376 24.1841 16.944L20.5601 12.912H20.5121V16.368C20.5121 17.6 19.9121 18.216 18.7121 18.216ZM33.0416 22.536C32.6256 22.536 32.2816 22.424 32.0096 22.2C31.7376 21.976 31.5776 21.68 31.5296 21.312C31.4816 20.96 31.5456 20.584 31.7216 20.184L33.3296 16.632V18.12L29.0816 8.376C28.9216 7.96 28.8656 7.576 28.9136 7.224C28.9776 6.856 29.1536 6.568 29.4416 6.36C29.7456 6.136 30.1616 6.024 30.6896 6.024C31.1216 6.024 31.4656 6.128 31.7216 6.336C31.9936 6.528 32.2416 6.904 32.4656 7.464L35.2976 14.664H34.5296L37.4576 7.44C37.6816 6.896 37.9296 6.528 38.2016 6.336C38.4896 6.128 38.8736 6.024 39.3536 6.024C39.7696 6.024 40.0976 6.136 40.3376 6.36C40.5936 6.568 40.7456 6.848 40.7936 7.2C40.8576 7.552 40.7936 7.936 40.6016 8.352L34.9616 21.144C34.7216 21.688 34.4496 22.056 34.1456 22.248C33.8576 22.44 33.4896 22.536 33.0416 22.536ZM58.0136 18.264C56.1096 18.264 54.4936 17.904 53.1656 17.184C51.8536 16.464 50.8536 15.456 50.1656 14.16C49.4776 12.864 49.1336 11.344 49.1336 9.6C49.1336 8.256 49.3336 7.048 49.7336 5.976C50.1496 4.888 50.7416 3.968 51.5096 3.216C52.2936 2.448 53.2376 1.856 54.3416 1.44C55.4616 1.024 56.7256 0.816 58.1336 0.816C58.9976 0.816 59.8616 0.911999 60.7256 1.104C61.5896 1.296 62.4216 1.616 63.2216 2.064C63.5576 2.256 63.7816 2.504 63.8936 2.808C64.0216 3.096 64.0536 3.408 63.9896 3.744C63.9416 4.064 63.8136 4.352 63.6056 4.608C63.4136 4.848 63.1576 5.008 62.8376 5.088C62.5336 5.152 62.1816 5.088 61.7816 4.896C61.2536 4.608 60.6936 4.4 60.1016 4.272C59.5096 4.128 58.8616 4.056 58.1576 4.056C57.0216 4.056 56.0696 4.272 55.3016 4.704C54.5336 5.12 53.9576 5.744 53.5736 6.576C53.2056 7.392 53.0216 8.4 53.0216 9.6C53.0216 11.408 53.4536 12.776 54.3176 13.704C55.1976 14.632 56.4936 15.096 58.2056 15.096C58.7816 15.096 59.3736 15.04 59.9816 14.928C60.5896 14.816 61.1896 14.656 61.7816 14.448L61.0856 15.96V11.352H58.9256C58.4456 11.352 58.0776 11.232 57.8216 10.992C57.5656 10.752 57.4376 10.424 57.4376 10.008C57.4376 9.576 57.5656 9.248 57.8216 9.024C58.0776 8.784 58.4456 8.664 58.9256 8.664H62.6936C63.1736 8.664 63.5336 8.792 63.7736 9.048C64.0296 9.304 64.1576 9.672 64.1576 10.152V15.72C64.1576 16.136 64.0776 16.488 63.9176 16.776C63.7576 17.064 63.4856 17.272 63.1016 17.4C62.3816 17.656 61.5736 17.864 60.6776 18.024C59.7816 18.184 58.8936 18.264 58.0136 18.264ZM71.1221 18.264C70.2581 18.264 69.4821 18.096 68.7941 17.76C68.1061 17.424 67.5701 16.968 67.1861 16.392C66.8021 15.816 66.6101 15.168 66.6101 14.448C66.6101 13.584 66.8341 12.904 67.2821 12.408C67.7301 11.896 68.4581 11.536 69.4661 11.328C70.4741 11.104 71.8101 10.992 73.4741 10.992H74.7461V12.864H73.4981C72.6821 12.864 72.0181 12.912 71.5061 13.008C71.0101 13.088 70.6501 13.232 70.4261 13.44C70.2181 13.648 70.1141 13.936 70.1141 14.304C70.1141 14.752 70.2661 15.12 70.5701 15.408C70.8901 15.696 71.3461 15.84 71.9381 15.84C72.4021 15.84 72.8101 15.736 73.1621 15.528C73.5301 15.304 73.8181 15.008 74.0261 14.64C74.2341 14.256 74.3381 13.824 74.3381 13.344V10.584C74.3381 9.88 74.1781 9.384 73.8581 9.096C73.5381 8.792 72.9941 8.64 72.2261 8.64C71.7941 8.64 71.3221 8.696 70.8101 8.808C70.3141 8.904 69.7621 9.072 69.1541 9.312C68.8021 9.472 68.4901 9.512 68.2181 9.432C67.9461 9.336 67.7381 9.176 67.5941 8.952C67.4501 8.712 67.3781 8.456 67.3781 8.184C67.3781 7.896 67.4581 7.624 67.6181 7.368C67.7781 7.096 68.0421 6.896 68.4101 6.768C69.1621 6.464 69.8661 6.256 70.5221 6.144C71.1941 6.032 71.8101 5.976 72.3701 5.976C73.6021 5.976 74.6101 6.16 75.3941 6.528C76.1941 6.88 76.7941 7.432 77.1941 8.184C77.5941 8.92 77.7941 9.872 77.7941 11.04V16.368C77.7941 16.96 77.6501 17.416 77.3621 17.736C77.0741 18.056 76.6581 18.216 76.1141 18.216C75.5701 18.216 75.1461 18.056 74.8421 17.736C74.5541 17.416 74.4101 16.96 74.4101 16.368V15.48L74.5781 15.624C74.4821 16.168 74.2741 16.64 73.9541 17.04C73.6501 17.424 73.2581 17.728 72.7781 17.952C72.2981 18.16 71.7461 18.264 71.1221 18.264ZM82.3695 18.216C81.7615 18.216 81.2975 18.056 80.9775 17.736C80.6575 17.416 80.4975 16.96 80.4975 16.368V7.848C80.4975 7.256 80.6495 6.808 80.9535 6.504C81.2735 6.184 81.7135 6.024 82.2735 6.024C82.8495 6.024 83.2895 6.184 83.5935 6.504C83.8975 6.808 84.0495 7.256 84.0495 7.848V9.096H83.8095C84.0015 8.136 84.4255 7.392 85.0815 6.864C85.7375 6.336 86.5855 6.04 87.6255 5.976C88.0255 5.944 88.3295 6.048 88.5375 6.288C88.7615 6.512 88.8815 6.888 88.8975 7.416C88.9295 7.912 88.8255 8.304 88.5855 8.592C88.3615 8.88 87.9775 9.056 87.4335 9.12L86.8815 9.168C85.9695 9.248 85.2895 9.512 84.8415 9.96C84.4095 10.408 84.1935 11.056 84.1935 11.904V16.368C84.1935 16.96 84.0335 17.416 83.7135 17.736C83.4095 18.056 82.9615 18.216 82.3695 18.216ZM94.7612 18.264C93.7372 18.264 92.8332 18.016 92.0492 17.52C91.2812 17.024 90.6812 16.312 90.2492 15.384C89.8172 14.456 89.6012 13.36 89.6012 12.096C89.6012 10.832 89.8172 9.744 90.2492 8.832C90.6812 7.92 91.2812 7.216 92.0492 6.72C92.8332 6.224 93.7372 5.976 94.7612 5.976C95.6892 5.976 96.5052 6.2 97.2092 6.648C97.9292 7.096 98.4172 7.68 98.6732 8.4H98.4092V2.712C98.4092 2.104 98.5612 1.648 98.8652 1.344C99.1692 1.024 99.6172 0.863999 100.209 0.863999C100.785 0.863999 101.233 1.024 101.553 1.344C101.873 1.648 102.033 2.104 102.033 2.712V16.368C102.033 16.96 101.873 17.416 101.553 17.736C101.249 18.056 100.809 18.216 100.233 18.216C99.6572 18.216 99.2092 18.056 98.8892 17.736C98.5852 17.416 98.4332 16.96 98.4332 16.368V14.736L98.6972 15.672C98.4732 16.456 97.9932 17.088 97.2572 17.568C96.5372 18.032 95.7052 18.264 94.7612 18.264ZM95.8412 15.552C96.3692 15.552 96.8252 15.424 97.2092 15.168C97.5932 14.912 97.8972 14.536 98.1212 14.04C98.3452 13.528 98.4572 12.88 98.4572 12.096C98.4572 10.928 98.2172 10.072 97.7372 9.528C97.2572 8.968 96.6252 8.688 95.8412 8.688C95.3292 8.688 94.8732 8.808 94.4732 9.048C94.0892 9.288 93.7852 9.664 93.5612 10.176C93.3532 10.672 93.2492 11.312 93.2492 12.096C93.2492 13.264 93.4892 14.136 93.9692 14.712C94.4492 15.272 95.0732 15.552 95.8412 15.552ZM110.946 18.264C109.554 18.264 108.354 18.016 107.346 17.52C106.354 17.008 105.586 16.296 105.042 15.384C104.514 14.456 104.25 13.368 104.25 12.12C104.25 10.904 104.506 9.84 105.018 8.928C105.53 8 106.242 7.28 107.154 6.768C108.082 6.24 109.13 5.976 110.298 5.976C111.146 5.976 111.914 6.12 112.602 6.408C113.29 6.68 113.882 7.08 114.378 7.608C114.874 8.12 115.25 8.752 115.506 9.504C115.762 10.24 115.89 11.064 115.89 11.976C115.89 12.28 115.794 12.512 115.602 12.672C115.41 12.816 115.13 12.888 114.762 12.888H107.226V11.016H113.274L112.89 11.352C112.89 10.696 112.794 10.152 112.602 9.72C112.41 9.272 112.13 8.936 111.762 8.712C111.41 8.488 110.97 8.376 110.442 8.376C109.85 8.376 109.346 8.512 108.93 8.784C108.514 9.056 108.194 9.448 107.97 9.96C107.746 10.472 107.634 11.088 107.634 11.808V12C107.634 13.216 107.914 14.112 108.474 14.688C109.05 15.264 109.898 15.552 111.018 15.552C111.402 15.552 111.842 15.504 112.338 15.408C112.834 15.312 113.298 15.16 113.73 14.952C114.098 14.776 114.426 14.72 114.714 14.784C115.002 14.832 115.226 14.96 115.386 15.168C115.546 15.376 115.634 15.616 115.65 15.888C115.682 16.16 115.626 16.432 115.482 16.704C115.338 16.96 115.098 17.176 114.762 17.352C114.218 17.656 113.602 17.88 112.914 18.024C112.242 18.184 111.586 18.264 110.946 18.264ZM119.821 18.216C119.229 18.216 118.773 18.056 118.453 17.736C118.149 17.416 117.997 16.96 117.997 16.368V7.848C117.997 7.256 118.149 6.808 118.453 6.504C118.773 6.184 119.213 6.024 119.773 6.024C120.349 6.024 120.789 6.184 121.093 6.504C121.397 6.808 121.549 7.256 121.549 7.848V9.216L121.285 8.424C121.653 7.64 122.197 7.04 122.917 6.624C123.653 6.192 124.485 5.976 125.413 5.976C126.357 5.976 127.133 6.16 127.741 6.528C128.349 6.88 128.805 7.424 129.109 8.16C129.413 8.88 129.565 9.8 129.565 10.92V16.368C129.565 16.96 129.405 17.416 129.085 17.736C128.781 18.056 128.333 18.216 127.741 18.216C127.165 18.216 126.717 18.056 126.397 17.736C126.093 17.416 125.941 16.96 125.941 16.368V11.088C125.941 10.272 125.789 9.688 125.485 9.336C125.197 8.968 124.749 8.784 124.141 8.784C123.373 8.784 122.757 9.024 122.293 9.504C121.845 9.984 121.621 10.624 121.621 11.424V16.368C121.621 17.6 121.021 18.216 119.821 18.216Z" fill="url(#paint0_linear_35_110)"/>
<path d="M5.80909 18.096L6.12332 16.1208L6.10443 16.1178L6.08549 16.1152L5.80909 18.096ZM3.81709 17.664L3.22891 19.5756L3.2424 19.5797L3.81709 17.664ZM2.13709 16.944L3.14137 15.2144L3.11826 15.201L3.0948 15.1882L2.13709 16.944ZM1.39309 16.2L-0.430749 17.0207L-0.422739 17.0385L-0.414382 17.0562L1.39309 16.2ZM1.22509 15.24L-0.752779 14.9433L-0.760082 14.992L-0.764981 15.041L1.22509 15.24ZM1.58509 14.4L0.0328656 13.1388L0.0280886 13.1447L0.0233563 13.1506L1.58509 14.4ZM2.35309 13.92L2.76511 15.8771L2.8018 15.8694L2.83817 15.8603L2.35309 13.92ZM3.40909 14.088L4.3876 12.3437L4.34609 12.3204L4.30352 12.2991L3.40909 14.088ZM5.54509 14.904L5.09834 16.8535L5.10702 16.8554L5.54509 14.904ZM10.3691 14.64L11.5266 16.271L11.5438 16.2588L11.5608 16.2462L10.3691 14.64ZM10.5851 12.168L9.3622 13.7506L9.3622 13.7506L10.5851 12.168ZM8.73709 11.472L9.16343 9.51794L9.15261 9.51564L8.73709 11.472ZM6.02509 10.896L6.44061 8.93962L6.433 8.93804L6.02509 10.896ZM2.59309 9.264L1.13495 10.6329L1.14935 10.6482L1.16407 10.6632L2.59309 9.264ZM1.99309 4.008L3.77318 4.91975H3.77318L1.99309 4.008ZM3.40909 2.304L2.16981 0.734233L2.1698 0.734234L3.40909 2.304ZM5.56909 1.2L4.99108 -0.714684L4.98092 -0.711559L5.56909 1.2ZM10.9931 1.152L10.4912 3.08799L10.508 3.09237L10.525 3.09645L10.9931 1.152ZM13.2731 2.088L12.202 3.77702L12.2229 3.79026L12.2441 3.80298L13.2731 2.088ZM13.9211 2.832L12.0444 3.52341L12.067 3.58464L12.0935 3.64427L13.9211 2.832ZM14.0411 3.72L12.0656 3.40808L12.0584 3.45346L12.0533 3.49913L14.0411 3.72ZM13.6811 4.488L12.2155 3.1271L12.1885 3.15623L12.1626 3.18642L13.6811 4.488ZM11.8331 4.704L10.9172 6.48195L10.9412 6.4943L10.9655 6.506L11.8331 4.704ZM10.1531 4.104L10.5758 2.14917L10.5758 2.14917L10.1531 4.104ZM6.60109 4.176L5.91259 2.29825L5.90216 2.30207L5.89178 2.306L6.60109 4.176ZM5.52109 4.92L3.95936 3.67061L3.93984 3.695L3.92109 3.72L5.52109 4.92ZM7.41709 7.848L7.8326 5.89164L7.83101 5.8913L7.41709 7.848ZM10.1291 8.424L10.5482 6.46839L10.5446 6.46764L10.1291 8.424ZM13.6331 10.056L12.2338 11.485L12.2415 11.4925L12.2493 11.5L13.6331 10.056ZM14.3051 15.168L16.0939 16.0624L16.0983 16.0537L16.1026 16.0448L14.3051 15.168ZM12.9131 16.824L14.1264 18.4139H14.1264L12.9131 16.824ZM10.7291 17.904L11.2737 19.8284L11.2905 19.8237L11.3071 19.8187L10.7291 17.904ZM7.87309 16.264C7.31247 16.264 6.72965 16.2173 6.12332 16.1208L5.49486 20.0712C6.29654 20.1987 7.08971 20.264 7.87309 20.264V16.264ZM6.08549 16.1152C5.49446 16.0327 4.93039 15.9099 4.39179 15.7483L3.2424 19.5797C3.9838 19.8021 4.74773 19.9673 5.5327 20.0768L6.08549 16.1152ZM4.40527 15.7524C3.90685 15.5991 3.48942 15.4165 3.14137 15.2144L1.13282 18.6736C1.77676 19.0475 2.47934 19.3449 3.22892 19.5756L4.40527 15.7524ZM3.0948 15.1882C3.06298 15.1709 3.07251 15.171 3.10131 15.1998C3.13242 15.2309 3.17029 15.2799 3.20057 15.3438L-0.414382 17.0562C-0.0566596 17.8114 0.529338 18.3452 1.17939 18.6998L3.0948 15.1882ZM3.21694 15.3793C3.20788 15.3591 3.21024 15.3586 3.21315 15.3752C3.21454 15.3831 3.21575 15.3933 3.21619 15.4051C3.21663 15.4168 3.21623 15.4284 3.21517 15.439L-0.764981 15.041C-0.834972 15.7409 -0.70503 16.4112 -0.430749 17.0207L3.21694 15.3793ZM3.20297 15.5367C3.20319 15.5352 3.20075 15.5513 3.18938 15.5778C3.17777 15.6049 3.16237 15.63 3.14683 15.6494L0.0233563 13.1506C-0.400702 13.6807 -0.655347 14.2938 -0.752779 14.9433L3.20297 15.5367ZM3.13732 15.6612C3.11516 15.6885 3.06852 15.7369 2.99309 15.784C2.9163 15.832 2.83597 15.8622 2.76511 15.8771L1.94107 11.9629C1.15954 12.1274 0.510732 12.5507 0.0328656 13.1388L3.13732 15.6612ZM2.83817 15.8603C2.71633 15.8907 2.61127 15.888 2.54286 15.8772C2.48075 15.8673 2.4693 15.8542 2.51467 15.8769L4.30352 12.2991C3.62369 11.9592 2.77599 11.7527 1.86802 11.9797L2.83817 15.8603ZM2.43059 15.8323C3.2609 16.2981 4.15308 16.6368 5.09834 16.8535L5.99185 12.9545C5.40111 12.8192 4.86929 12.6139 4.3876 12.3437L2.43059 15.8323ZM5.10702 16.8554C6.02817 17.0622 6.95108 17.168 7.87309 17.168V13.168C7.25911 13.168 6.63001 13.0978 5.98317 12.9526L5.10702 16.8554ZM7.87309 17.168C9.13209 17.168 10.5 16.9995 11.5266 16.271L9.2116 13.009C9.25664 12.977 9.20691 13.0269 8.95918 13.0793C8.71904 13.1301 8.36559 13.168 7.87309 13.168V17.168ZM11.5608 16.2462C12.4864 15.5594 13.1131 14.5413 13.1131 13.272H9.11309C9.11309 13.2548 9.11522 13.2231 9.1254 13.1821C9.13569 13.1406 9.15142 13.1009 9.17013 13.0665C9.20889 12.9952 9.23569 12.9906 9.1774 13.0338L11.5608 16.2462ZM13.1131 13.272C13.1131 12.2197 12.6742 11.2548 11.808 10.5854L9.3622 13.7506C9.31363 13.713 9.23562 13.6338 9.17683 13.5109C9.11932 13.3907 9.11309 13.2975 9.11309 13.272H13.1131ZM11.808 10.5854C11.0846 10.0264 10.0956 9.72136 9.16343 9.51797L8.31076 13.426C8.68791 13.5083 8.96306 13.5897 9.15418 13.6617C9.35636 13.7378 9.39942 13.7793 9.3622 13.7506L11.808 10.5854ZM9.15261 9.51564L6.4406 8.93964L5.60958 12.8524L8.32158 13.4284L9.15261 9.51564ZM6.433 8.93804C5.11592 8.66365 4.39633 8.24692 4.02211 7.86475L1.16407 10.6632C2.29386 11.8171 3.86227 12.4884 5.61719 12.854L6.433 8.93804ZM4.05124 7.89513C3.72344 7.54595 3.48909 7.04261 3.48909 6.192H-0.510906C-0.510906 7.86939 -0.00925588 9.41405 1.13495 10.6329L4.05124 7.89513ZM3.48909 6.192C3.48909 5.6814 3.59382 5.26993 3.77318 4.91975L0.213007 3.09625C-0.27963 4.05806 -0.510906 5.1026 -0.510906 6.192H3.48909ZM3.77318 4.91975C3.97159 4.53238 4.25405 4.18508 4.64838 3.87376L2.1698 0.734234C1.34814 1.38292 0.686596 2.17162 0.213007 3.09625L3.77318 4.91975ZM4.64838 3.87376C5.03981 3.56474 5.53249 3.3038 6.15727 3.11156L4.98092 -0.711559C3.9417 -0.391798 2.99438 0.0832534 2.16981 0.734233L4.64838 3.87376ZM6.1471 3.11465C6.78386 2.92243 7.51439 2.816 8.35309 2.816V-1.184C7.1758 -1.184 6.05033 -1.03443 4.99109 -0.714657L6.1471 3.11465ZM8.35309 2.816C9.08041 2.816 9.79173 2.90666 10.4912 3.08799L11.495 -0.783994C10.4665 -1.05066 9.41778 -1.184 8.35309 -1.184V2.816ZM10.525 3.09645C11.2056 3.2603 11.7562 3.49431 12.202 3.77702L14.3442 0.398981C13.478 -0.15031 12.5086 -0.540302 11.4612 -0.792448L10.525 3.09645ZM12.2441 3.80298C12.2482 3.80542 12.2138 3.78534 12.1669 3.73156C12.1178 3.67512 12.0737 3.60296 12.0444 3.52341L15.7978 2.14059C15.5047 1.34513 14.9507 0.762172 14.3021 0.373014L12.2441 3.80298ZM12.0935 3.64427C12.0847 3.62459 12.0719 3.58781 12.0651 3.53784C12.0583 3.48748 12.0602 3.44211 12.0656 3.40808L16.0166 4.03192C16.1263 3.33718 16.0294 2.65137 15.7487 2.01973L12.0935 3.64427ZM12.0533 3.49913C12.0609 3.43103 12.0809 3.35432 12.1162 3.27913C12.1509 3.205 12.19 3.15457 12.2155 3.1271L15.1467 5.8489C15.6294 5.32908 15.9468 4.67931 16.0289 3.94087L12.0533 3.49913ZM12.1626 3.18642C12.2085 3.13287 12.271 3.07845 12.3468 3.03442C12.4216 2.99102 12.4861 2.9711 12.5251 2.9629L13.3491 6.8771C14.0596 6.72753 14.7051 6.36645 15.1996 5.78958L12.1626 3.18642ZM12.5251 2.9629C12.6837 2.92951 12.7913 2.94617 12.8171 2.95121C12.8394 2.95558 12.8034 2.95144 12.7007 2.902L10.9655 6.506C11.5915 6.80741 12.4345 7.06964 13.3491 6.8771L12.5251 2.9629ZM12.749 2.92605C12.062 2.57213 11.3358 2.31351 10.5758 2.14917L9.73043 6.05883C10.1544 6.15049 10.5482 6.29187 10.9172 6.48195L12.749 2.92605ZM10.5758 2.14917C9.84073 1.99025 9.09088 1.912 8.32909 1.912V5.912C8.8153 5.912 9.28146 5.96175 9.73043 6.05883L10.5758 2.14917ZM8.32909 1.912C7.49194 1.912 6.67028 2.02042 5.91259 2.29825L7.2896 6.05375C7.4919 5.97958 7.82225 5.912 8.32909 5.912V1.912ZM5.89178 2.306C5.16384 2.58212 4.48174 3.01763 3.95936 3.67061L7.08283 6.16939C7.07245 6.18237 7.11035 6.12187 7.3104 6.04599L5.89178 2.306ZM3.92109 3.72C3.41053 4.40074 3.16109 5.19381 3.16109 6.024H7.16109C7.16109 6.01084 7.16254 6.0254 7.15255 6.05604C7.14794 6.07019 7.14211 6.08392 7.13566 6.09624C7.12926 6.10848 7.12375 6.11646 7.12109 6.12L3.92109 3.72ZM3.16109 6.024C3.16109 7.03951 3.56024 7.982 4.36351 8.67051L6.96668 5.63349C7.00625 5.6674 7.06758 5.73621 7.11311 5.83812C7.15752 5.93751 7.16109 6.0105 7.16109 6.024H3.16109ZM4.36351 8.67051C5.09541 9.29786 6.09357 9.61228 7.00318 9.8047L7.83101 5.8913C7.48981 5.81912 7.25092 5.74584 7.09348 5.6833C6.92772 5.61744 6.91278 5.58729 6.96668 5.63349L4.36351 8.67051ZM7.00158 9.80436L9.71358 10.3804L10.5446 6.46764L7.8326 5.89164L7.00158 9.80436ZM9.71004 10.3796C11.0783 10.6728 11.8382 11.0977 12.2338 11.485L15.0323 8.62698C13.8919 7.51034 12.3159 6.8472 10.5482 6.46839L9.71004 10.3796ZM12.2493 11.5C12.566 11.8035 12.7851 12.2278 12.7851 12.984H16.7851C16.7851 11.3082 16.2362 9.78049 15.0169 8.61202L12.2493 11.5ZM12.7851 12.984C12.7851 13.5098 12.6819 13.9337 12.5076 14.2912L16.1026 16.0448C16.5683 15.0903 16.7851 14.0582 16.7851 12.984H12.7851ZM12.5162 14.2736C12.3419 14.6224 12.0825 14.942 11.6997 15.2341L14.1264 18.4139C14.9597 17.778 15.6283 16.9936 16.0939 16.0624L12.5162 14.2736ZM11.6997 15.2341C11.3099 15.5316 10.8053 15.7919 10.1511 15.9893L11.3071 19.8187C12.3489 19.5041 13.3003 19.0444 14.1264 18.4139L11.6997 15.2341ZM10.1844 15.9796C9.54461 16.1607 8.78014 16.264 7.87309 16.264V20.264C9.07805 20.264 10.2176 20.1273 11.2737 19.8284L10.1844 15.9796ZM17.3441 17.736L15.8941 19.1135L15.9118 19.1321L15.9299 19.1502L17.3441 17.736ZM17.3441 1.344L18.7583 2.75821L18.7583 2.75821L17.3441 1.344ZM20.0321 1.344L18.5821 2.7215L18.6174 2.75868L18.6546 2.794L20.0321 1.344ZM20.5121 11.088H18.5121V13.088H20.5121V11.088ZM20.5601 11.088V13.088H21.4504L22.0462 12.4264L20.5601 11.088ZM24.0401 7.224L25.5262 8.56244L25.5339 8.55389L25.5415 8.54526L24.0401 7.224ZM25.0001 6.336L26.1095 8.0001L26.1195 7.99342L26.1295 7.98661L25.0001 6.336ZM27.3281 6.408L25.9139 7.82221L25.9353 7.84364L25.9574 7.8644L27.3281 6.408ZM27.7361 7.344H25.7361V7.38943L25.7382 7.43481L27.7361 7.344ZM27.2801 8.424L28.7706 9.75759L28.78 9.74704L28.7893 9.73636L27.2801 8.424ZM23.6081 12.528H21.6081V17.7627L25.0986 13.8616L23.6081 12.528ZM23.6081 11.16L25.119 9.84955L21.6081 5.80172V11.16H23.6081ZM27.6881 15.864L29.23 14.5902L29.2147 14.5717L29.199 14.5536L27.6881 15.864ZM28.0721 16.968L26.0889 16.7093L26.0833 16.7519L26.0796 16.7947L28.0721 16.968ZM27.5921 17.88L28.82 19.4587L28.8466 19.438L28.8725 19.4164L27.5921 17.88ZM25.1681 17.904L24.0781 19.5809L24.0966 19.5929L24.1154 19.6045L25.1681 17.904ZM24.1841 16.944L25.7628 15.7161L25.7191 15.66L25.6716 15.607L24.1841 16.944ZM20.5601 12.912L22.0476 11.575L21.4516 10.912H20.5601V12.912ZM20.5121 12.912V10.912H18.5121V12.912H20.5121ZM18.7121 16.216C18.5926 16.216 18.5617 16.1995 18.5883 16.2088C18.6026 16.2138 18.6288 16.2247 18.6617 16.2451C18.695 16.2657 18.7282 16.2917 18.7583 16.3218L15.9299 19.1502C16.7301 19.9505 17.7597 20.216 18.7121 20.216V16.216ZM18.7941 16.3585C18.8252 16.3912 18.8502 16.4254 18.8689 16.4572C18.8874 16.4886 18.8962 16.5119 18.8995 16.5215C18.9051 16.5384 18.8881 16.4969 18.8881 16.368H14.8881C14.8881 17.2937 15.1304 18.3097 15.8941 19.1135L18.7941 16.3585ZM18.8881 16.368V2.712H14.8881V16.368H18.8881ZM18.8881 2.712C18.8881 2.5687 18.9067 2.52473 18.8995 2.54646C18.8952 2.55932 18.8837 2.58932 18.8596 2.62949C18.835 2.67038 18.8015 2.71507 18.7583 2.75821L15.9299 -0.0702143C15.1185 0.741145 14.8881 1.79571 14.8881 2.712H18.8881ZM18.7583 2.75821C18.7282 2.78833 18.695 2.81431 18.6617 2.8349C18.6288 2.85525 18.6026 2.86618 18.5883 2.8712C18.5617 2.88051 18.5926 2.864 18.7121 2.864V-1.136C17.7597 -1.136 16.7301 -0.870462 15.9299 -0.0702119L18.7583 2.75821ZM18.7121 2.864C18.8188 2.864 18.8336 2.87921 18.7906 2.86359C18.768 2.85538 18.7341 2.84022 18.6943 2.81459C18.6542 2.78871 18.6159 2.75705 18.5821 2.7215L21.4821 -0.0334978C20.6946 -0.862399 19.6608 -1.136 18.7121 -1.136V2.864ZM18.6546 2.794C18.6125 2.75403 18.5778 2.71072 18.5511 2.66849C18.5248 2.62688 18.5111 2.59381 18.5049 2.57617C18.4938 2.54453 18.5121 2.57783 18.5121 2.712H22.5121C22.5121 1.76879 22.2588 0.700742 21.4096 -0.105999L18.6546 2.794ZM18.5121 2.712V11.088H22.5121V2.712H18.5121ZM20.5121 13.088H20.5601V9.088H20.5121V13.088ZM22.0462 12.4264L25.5262 8.56244L22.554 5.88556L19.074 9.74956L22.0462 12.4264ZM25.5415 8.54526C25.8331 8.21386 26.0223 8.05821 26.1095 8.0001L23.8907 4.6719C23.4019 4.99778 22.951 5.43414 22.5387 5.90274L25.5415 8.54526ZM26.1295 7.98661C26.069 8.02798 26.0279 8.03854 26.0314 8.03764C26.0381 8.03588 26.0892 8.024 26.2001 8.024V4.024C25.4378 4.024 24.6048 4.18315 23.8707 4.68538L26.1295 7.98661ZM26.2001 8.024C26.2811 8.024 26.2734 8.03502 26.2096 8.0133C26.1363 7.98835 26.0228 7.9311 25.9139 7.82221L28.7423 4.99379C27.9898 4.24127 27.0257 4.024 26.2001 4.024V8.024ZM25.9574 7.8644C25.9156 7.82508 25.851 7.74853 25.8007 7.63317C25.7501 7.51715 25.7361 7.41242 25.7361 7.344H29.7361C29.7361 6.41522 29.3656 5.57912 28.6988 4.9516L25.9574 7.8644ZM25.7382 7.43481C25.7312 7.28216 25.7645 7.16424 25.7916 7.10005C25.8152 7.0441 25.8251 7.04925 25.7709 7.11164L28.7893 9.73636C29.3154 9.13135 29.7811 8.28799 29.734 7.25319L25.7382 7.43481ZM25.7896 7.09041L22.1176 11.1944L25.0986 13.8616L28.7706 9.75759L25.7896 7.09041ZM25.6081 12.528V11.16H21.6081V12.528H25.6081ZM22.0972 12.4704L26.1772 17.1744L29.199 14.5536L25.119 9.84955L22.0972 12.4704ZM26.1462 17.1378C26.1797 17.1784 26.1526 17.1578 26.1231 17.073C26.0902 16.9784 26.0707 16.8492 26.0889 16.7093L30.0553 17.2267C30.1942 16.1619 29.7803 15.2563 29.23 14.5902L26.1462 17.1378ZM26.0796 16.7947C26.0849 16.7339 26.1053 16.6412 26.1583 16.5405C26.211 16.4404 26.273 16.3758 26.3117 16.3436L28.8725 19.4164C29.5632 18.8408 29.9856 18.0492 30.0646 17.1413L26.0796 16.7947ZM26.3642 16.3013C26.4235 16.2552 26.4808 16.2299 26.5178 16.2187C26.5506 16.2087 26.5464 16.216 26.4881 16.216V20.216C27.2769 20.216 28.1068 20.0134 28.82 19.4587L26.3642 16.3013ZM26.4881 16.216C26.1813 16.216 26.1428 16.1552 26.2208 16.2035L24.1154 19.6045C24.8654 20.0688 25.7069 20.216 26.4881 20.216V16.216ZM26.2581 16.2271C26.1868 16.1808 26.0162 16.042 25.7628 15.7161L22.6054 18.1719C23.0239 18.71 23.5094 19.2112 24.0781 19.5809L26.2581 16.2271ZM25.6716 15.607L22.0476 11.575L19.0726 14.249L22.6966 18.281L25.6716 15.607ZM20.5601 10.912H20.5121V14.912H20.5601V10.912ZM18.5121 12.912V16.368H22.5121V12.912H18.5121ZM18.5121 16.368C18.5121 16.5198 18.4929 16.5726 18.4973 16.5589C18.5047 16.5361 18.539 16.4514 18.6294 16.3585C18.672 16.3148 18.7171 16.2797 18.76 16.2533C18.8022 16.2273 18.8352 16.214 18.852 16.2082C18.8818 16.198 18.8468 16.216 18.7121 16.216V20.216C19.6339 20.216 20.6896 19.9762 21.4948 19.1495C22.2905 18.3325 22.5121 17.2793 22.5121 16.368H18.5121ZM31.5296 21.312L33.5128 21.0533L33.5113 21.0418L31.5296 21.312ZM31.7216 20.184L29.8996 19.3592L29.8952 19.3688L29.891 19.3785L31.7216 20.184ZM33.3296 16.632H35.3296L31.5076 15.8072L33.3296 16.632ZM33.3296 18.12L31.4962 18.9193L35.3296 18.12H33.3296ZM29.0816 8.376L27.2149 9.09396L27.2307 9.13498L27.2482 9.17527L29.0816 8.376ZM28.9136 7.224L26.9432 6.88132L26.9369 6.91744L26.9319 6.95377L28.9136 7.224ZM29.4416 6.36L30.6126 7.98136L30.6203 7.97577L30.628 7.97011L29.4416 6.36ZM31.7216 6.336L30.4604 7.88823L30.5129 7.93091L30.5682 7.96994L31.7216 6.336ZM32.4656 7.464L34.3268 6.73192L34.3225 6.72122L32.4656 7.464ZM35.2976 14.664V16.664H38.2334L37.1588 13.9319L35.2976 14.664ZM34.5296 14.664L32.6761 13.9127L31.5609 16.664H34.5296V14.664ZM37.4576 7.44L35.6082 6.67849L35.6041 6.68873L37.4576 7.44ZM38.2016 6.336L39.355 7.96993L39.3638 7.96369L39.3726 7.95736L38.2016 6.336ZM40.3376 6.36L38.973 7.82211L39.0231 7.86894L39.0764 7.91223L40.3376 6.36ZM40.7936 7.2L38.8119 7.47023L38.8179 7.51415L38.8259 7.55777L40.7936 7.2ZM40.6016 8.352L38.7857 7.51388L38.7785 7.52945L38.7716 7.54514L40.6016 8.352ZM34.9616 21.144L36.7914 21.9513L36.7916 21.9509L34.9616 21.144ZM34.1456 22.248L33.0776 20.557L33.0567 20.5702L33.0362 20.5839L34.1456 22.248ZM33.0416 20.536C33.013 20.536 33.0354 20.5322 33.0908 20.5503C33.1502 20.5696 33.2187 20.6048 33.281 20.6561L30.7382 23.7439C31.4305 24.314 32.2493 24.536 33.0416 24.536V20.536ZM33.281 20.6561C33.3349 20.7005 33.3964 20.769 33.445 20.859C33.4927 20.9472 33.5084 21.0197 33.5128 21.0533L29.5464 21.5707C29.6562 22.4124 30.0521 23.1789 30.7382 23.7439L33.281 20.6561ZM33.5113 21.0418C33.5138 21.0604 33.5144 21.076 33.5141 21.0874C33.5139 21.0987 33.5129 21.1037 33.5132 21.1016C33.514 21.0969 33.5209 21.0606 33.5522 20.9895L29.891 19.3785C29.6005 20.0387 29.4397 20.7888 29.5479 21.5822L33.5113 21.0418ZM33.5436 21.0088L35.1516 17.4568L31.5076 15.8072L29.8996 19.3592L33.5436 21.0088ZM31.3296 16.632V18.12H35.3296V16.632H31.3296ZM35.1629 17.3207L30.9149 7.57673L27.2482 9.17527L31.4962 18.9193L35.1629 17.3207ZM30.9483 7.65804C30.879 7.47781 30.9029 7.4378 30.8953 7.49423L26.9319 6.95377C26.8282 7.7142 26.9642 8.44219 27.2149 9.09396L30.9483 7.65804ZM30.884 7.56668C30.8775 7.60417 30.8567 7.6824 30.8002 7.7749C30.7426 7.86914 30.6722 7.93828 30.6126 7.98136L28.2706 4.73864C27.536 5.26921 27.0915 6.02841 26.9432 6.88132L30.884 7.56668ZM30.628 7.97011C30.592 7.9966 30.5601 8.01428 30.5364 8.02537C30.513 8.03626 30.5001 8.03962 30.5015 8.03923C30.5032 8.03877 30.5185 8.03483 30.5502 8.03107C30.582 8.0273 30.6278 8.024 30.6896 8.024V4.024C29.9003 4.024 29.0158 4.18942 28.2552 4.74989L30.628 7.97011ZM30.6896 8.024C30.7478 8.024 30.7419 8.03126 30.6928 8.01642C30.6384 7.99996 30.5516 7.96231 30.4604 7.88823L32.9828 4.78377C32.2728 4.20695 31.4374 4.024 30.6896 4.024V8.024ZM30.5682 7.96994C30.5026 7.9236 30.463 7.8837 30.4459 7.86501C30.4289 7.8464 30.4287 7.8429 30.442 7.86319C30.4715 7.90779 30.5311 8.01296 30.6086 8.20678L34.3225 6.72122C34.0556 6.05395 33.6282 5.23378 32.875 4.70206L30.5682 7.96994ZM30.6044 8.19607L33.4364 15.3961L37.1588 13.9319L34.3268 6.73193L30.6044 8.19607ZM35.2976 12.664H34.5296V16.664H35.2976V12.664ZM36.3831 15.4153L39.3111 8.19127L35.6041 6.68873L32.6761 13.9127L36.3831 15.4153ZM39.3069 8.2015C39.3831 8.01666 39.4414 7.91632 39.4701 7.87371C39.4832 7.85427 39.4834 7.85699 39.4677 7.8739C39.4519 7.89092 39.4154 7.92729 39.355 7.96993L37.0482 4.70206C36.3092 5.22372 35.8801 6.01821 35.6082 6.6785L39.3069 8.2015ZM39.3726 7.95736C39.3371 7.983 39.3044 8.00119 39.2778 8.01352C39.2516 8.02569 39.234 8.03094 39.2284 8.03245C39.2192 8.03496 39.2551 8.024 39.3536 8.024V4.024C38.5984 4.024 37.7609 4.18724 37.0306 4.71464L39.3726 7.95736ZM39.3536 8.024C39.3844 8.024 39.3463 8.02834 39.2653 8.0007C39.1773 7.97066 39.0708 7.91339 38.973 7.82211L41.7022 4.89789C41.0004 4.24284 40.1354 4.024 39.3536 4.024V8.024ZM39.0764 7.91223C39.0087 7.85721 38.9391 7.77823 38.8859 7.68018C38.834 7.58455 38.8169 7.50642 38.8119 7.47023L42.7753 6.92977C42.6644 6.11687 42.2811 5.36212 41.5988 4.80777L39.0764 7.91223ZM38.8259 7.55777C38.8198 7.5244 38.8176 7.49456 38.8176 7.47C38.8176 7.4457 38.8197 7.42963 38.8208 7.4232C38.8228 7.41137 38.8197 7.44012 38.7857 7.51388L42.4175 9.19012C42.7336 8.50534 42.9172 7.69934 42.7613 6.84223L38.8259 7.55777ZM38.7716 7.54514L33.1316 20.3371L36.7916 21.9509L42.4316 9.15886L38.7716 7.54514ZM33.1318 20.3367C33.0546 20.5115 32.996 20.603 32.9692 20.6392C32.9422 20.6758 32.9714 20.6241 33.0776 20.557L35.2136 23.939C36.0086 23.4369 36.4856 22.6445 36.7914 21.9513L33.1318 20.3367ZM33.0362 20.5839C33.0643 20.5652 33.0898 20.5518 33.1106 20.5427C33.1312 20.5337 33.1447 20.5298 33.1488 20.5288C33.1557 20.5269 33.1246 20.536 33.0416 20.536V24.536C33.7694 24.536 34.5543 24.3793 35.255 23.9121L33.0362 20.5839ZM53.1656 17.184L52.2034 18.9374L52.2123 18.9422L53.1656 17.184ZM50.1656 14.16L51.9321 13.2222L50.1656 14.16ZM49.7336 5.976L47.8655 5.26172L47.8626 5.26926L47.8598 5.27682L49.7336 5.976ZM51.5096 3.216L52.9088 4.64502L52.9092 4.64472L51.5096 3.216ZM54.3416 1.44L53.6452 -0.434873L53.6364 -0.431542L54.3416 1.44ZM60.7256 1.104L61.1595 -0.848375L61.1595 -0.848376L60.7256 1.104ZM63.2216 2.064L64.2139 0.327513L64.2064 0.323217L64.1988 0.318987L63.2216 2.064ZM63.8936 2.808L62.0169 3.49941L62.0395 3.56064L62.066 3.62028L63.8936 2.808ZM63.9896 3.744L62.0249 3.36977L62.0176 3.40841L62.0117 3.44732L63.9896 3.744ZM63.6056 4.608L62.0534 3.34682L62.0486 3.35269L62.0439 3.35861L63.6056 4.608ZM62.8376 5.088L63.2496 7.0451L63.2863 7.03738L63.3227 7.02828L62.8376 5.088ZM61.7816 4.896L60.8239 6.65179L60.8694 6.67661L60.9161 6.69905L61.7816 4.896ZM60.1016 4.272L59.6289 6.21533L59.6538 6.2214L59.6789 6.22683L60.1016 4.272ZM55.3016 4.704L56.2542 6.46258L56.2682 6.45498L56.2821 6.44715L55.3016 4.704ZM53.5736 6.576L51.7577 5.73788L51.754 5.74582L51.7504 5.75378L53.5736 6.576ZM54.3176 13.704L52.8538 15.0668L52.86 15.0735L52.8663 15.0802L54.3176 13.704ZM59.9816 14.928L60.3439 16.8949L59.9816 14.928ZM61.7816 14.448L63.5984 15.2843L65.5722 10.9963L61.1186 12.5611L61.7816 14.448ZM61.0856 15.96H59.0856L62.9024 16.7963L61.0856 15.96ZM61.0856 11.352H63.0856V9.352H61.0856V11.352ZM57.8216 10.992L59.1895 9.53293V9.53292L57.8216 10.992ZM57.8216 9.024L59.1386 10.5292L59.1644 10.5065L59.1895 10.4831L57.8216 9.024ZM63.7736 9.048L62.3145 10.4159L62.3366 10.4394L62.3594 10.4622L63.7736 9.048ZM63.9176 16.776L62.1693 15.8047L62.1693 15.8047L63.9176 16.776ZM63.1016 17.4L62.4691 15.5026L62.4503 15.5089L62.4316 15.5156L63.1016 17.4ZM60.6776 18.024L60.326 16.0551L60.6776 18.024ZM58.0136 16.264C56.3575 16.264 55.0876 15.951 54.1188 15.4258L52.2123 18.9422C53.8996 19.857 55.8617 20.264 58.0136 20.264V16.264ZM54.1278 15.4307C53.1504 14.8943 52.4334 14.1665 51.9321 13.2222L48.3991 15.0978C49.2738 16.7455 50.5568 18.0337 52.2034 18.9373L54.1278 15.4307ZM51.9321 13.2222C51.4239 12.2648 51.1336 11.0785 51.1336 9.6H47.1336C47.1336 11.6095 47.5313 13.4632 48.3991 15.0978L51.9321 13.2222ZM51.1336 9.6C51.1336 8.45388 51.304 7.4882 51.6074 6.67518L47.8598 5.27682C47.3632 6.60779 47.1336 8.05812 47.1336 9.6H51.1336ZM51.6017 6.69027C51.9235 5.84868 52.3636 5.1789 52.9088 4.64502L50.1103 1.78698C49.1196 2.7571 48.3757 3.92732 47.8655 5.26172L51.6017 6.69027ZM52.9092 4.64472C53.4804 4.08513 54.1827 3.63713 55.0468 3.31154L53.6364 -0.431542C52.2924 0.0748639 51.1068 0.81087 50.11 1.78728L52.9092 4.64472ZM55.038 3.31485C55.8993 2.99494 56.9218 2.816 58.1336 2.816V-1.184C56.5294 -1.184 55.0239 -0.946941 53.6452 -0.434852L55.038 3.31485ZM58.1336 2.816C58.8481 2.816 59.5667 2.89525 60.2917 3.05637L61.1595 -0.848376C60.1565 -1.07126 59.147 -1.184 58.1336 -1.184V2.816ZM60.2917 3.05637C60.9587 3.20459 61.6083 3.45279 62.2444 3.80901L64.1988 0.318987C63.2349 -0.22079 62.2205 -0.612593 61.1595 -0.848375L60.2917 3.05637ZM62.2293 3.80049C62.2419 3.80765 62.2078 3.79036 62.1574 3.73457C62.1038 3.67529 62.0519 3.59443 62.0169 3.49941L65.7703 2.11659C65.4653 1.28891 64.8754 0.705531 64.2139 0.327513L62.2293 3.80049ZM62.066 3.62028C62.0447 3.57231 62.0297 3.51711 62.024 3.46206C62.0185 3.40849 62.0239 3.37517 62.0249 3.36977L65.9543 4.11822C66.0877 3.41783 66.0289 2.68803 65.7212 1.99572L62.066 3.62028ZM62.0117 3.44732C62.0137 3.43426 62.019 3.41241 62.03 3.38772C62.0408 3.36325 62.0514 3.34927 62.0534 3.34682L65.1578 5.86918C65.5868 5.34119 65.8653 4.72159 65.9675 4.04068L62.0117 3.44732ZM62.0439 3.35861C62.0861 3.30576 62.1429 3.2537 62.2096 3.212C62.2749 3.17117 62.328 3.15384 62.3525 3.14771L63.3227 7.02828C64.0344 6.85035 64.6812 6.46508 65.1673 5.85739L62.0439 3.35861ZM62.4256 3.1309C62.5625 3.10207 62.6628 3.11287 62.7034 3.12026C62.7394 3.1268 62.7228 3.12932 62.6471 3.09295L60.9161 6.69905C61.5481 7.00241 62.3641 7.23151 63.2496 7.0451L62.4256 3.1309ZM62.7393 3.14021C62.0422 2.75997 61.3019 2.4853 60.5243 2.31717L59.6789 6.22683C60.0853 6.3147 60.465 6.45603 60.8239 6.65179L62.7393 3.14021ZM60.5743 2.32866C59.8058 2.14173 58.9968 2.056 58.1576 2.056V6.056C58.7264 6.056 59.2134 6.11427 59.6289 6.21533L60.5743 2.32866ZM58.1576 2.056C56.7751 2.056 55.4629 2.31858 54.3211 2.96085L56.2821 6.44715C56.6763 6.22542 57.2681 6.056 58.1576 6.056V2.056ZM54.349 2.94542C53.182 3.57756 52.3131 4.53451 51.7577 5.73788L55.3895 7.41412C55.6021 6.95349 55.8852 6.66244 56.2542 6.46258L54.349 2.94542ZM51.7504 5.75378C51.2333 6.90034 51.0216 8.20801 51.0216 9.6H55.0216C55.0216 8.59199 55.1778 7.88366 55.3968 7.39822L51.7504 5.75378ZM51.0216 9.6C51.0216 11.6989 51.5224 13.6368 52.8538 15.0668L55.7814 12.3412C55.3848 11.9152 55.0216 11.1171 55.0216 9.6H51.0216ZM52.8663 15.0802C54.2391 16.5278 56.1381 17.096 58.2056 17.096V13.096C56.8491 13.096 56.1561 12.7362 55.7688 12.3278L52.8663 15.0802ZM58.2056 17.096C58.9116 17.096 59.6251 17.0273 60.3439 16.8949L59.6193 12.9611C59.1221 13.0527 58.6516 13.096 58.2056 13.096V17.096ZM60.3439 16.8949C61.0556 16.7638 61.756 16.5768 62.4446 16.3349L61.1186 12.5611C60.6231 12.7352 60.1236 12.8682 59.6193 12.9611L60.3439 16.8949ZM59.9648 13.6117L59.2688 15.1237L62.9024 16.7963L63.5984 15.2843L59.9648 13.6117ZM63.0856 15.96V11.352H59.0856V15.96H63.0856ZM61.0856 9.352H58.9256V13.352H61.0856V9.352ZM58.9256 9.352C58.8477 9.352 58.8521 9.34176 58.9096 9.36054C58.9753 9.38196 59.0824 9.43257 59.1895 9.53293L56.4537 12.4511C57.1987 13.1495 58.127 13.352 58.9256 13.352V9.352ZM59.1895 9.53292C59.2798 9.61765 59.3527 9.72601 59.3968 9.83891C59.438 9.94459 59.4376 10.0115 59.4376 10.008H55.4376C55.4376 10.8655 55.7198 11.763 56.4537 12.4511L59.1895 9.53292ZM59.4376 10.008C59.4376 9.98607 59.4411 10.0513 59.3968 10.1651C59.3481 10.2897 59.2612 10.4219 59.1386 10.5292L56.5046 7.51885C55.7029 8.22036 55.4376 9.16646 55.4376 10.008H59.4376ZM59.1895 10.4831C59.0824 10.5834 58.9753 10.634 58.9096 10.6555C58.8521 10.6742 58.8477 10.664 58.9256 10.664V6.664C58.127 6.664 57.1987 6.86647 56.4537 7.56493L59.1895 10.4831ZM58.9256 10.664H62.6936V6.664H58.9256V10.664ZM62.6936 10.664C62.7613 10.664 62.7358 10.6737 62.6536 10.6444C62.5604 10.6113 62.4316 10.5407 62.3145 10.4159L65.2327 7.68012C64.4914 6.88948 63.5161 6.664 62.6936 6.664V10.664ZM62.3594 10.4622C62.2581 10.3609 62.2 10.2519 62.1726 10.173C62.1483 10.1033 62.1576 10.0857 62.1576 10.152H66.1576C66.1576 9.32047 65.9288 8.37482 65.1878 7.63378L62.3594 10.4622ZM62.1576 10.152V15.72H66.1576V10.152H62.1576ZM62.1576 15.72C62.1576 15.8009 62.1497 15.8422 62.1473 15.8528C62.1453 15.8616 62.149 15.8413 62.1693 15.8047L65.6659 17.7473C66.0289 17.094 66.1576 16.3883 66.1576 15.72H62.1576ZM62.1693 15.8047C62.228 15.699 62.3051 15.6155 62.3787 15.5593C62.4471 15.507 62.4885 15.4962 62.4691 15.5026L63.7341 19.2974C64.479 19.0491 65.2103 18.5673 65.6659 17.7473L62.1693 15.8047ZM62.4316 15.5156C61.8326 15.7285 61.1335 15.9109 60.326 16.0551L61.0292 19.9929C62.0137 19.8171 62.9306 19.5835 63.7716 19.2844L62.4316 15.5156ZM60.326 16.0551C59.5421 16.1951 58.7717 16.264 58.0136 16.264V20.264C59.0154 20.264 60.0211 20.1729 61.0292 19.9929L60.326 16.0551ZM68.7941 17.76L69.6718 15.9629L68.7941 17.76ZM67.1861 16.392L65.522 17.5014L67.1861 16.392ZM67.2821 12.408L68.7663 13.7486L68.7769 13.7369L68.7872 13.725L67.2821 12.408ZM69.4661 11.328L69.8703 13.2867L69.8851 13.2837L69.9 13.2804L69.4661 11.328ZM74.7461 10.992H76.7461V8.992H74.7461V10.992ZM74.7461 12.864V14.864H76.7461V12.864H74.7461ZM71.5061 13.008L71.8246 14.9825L71.8497 14.9784L71.8747 14.9737L71.5061 13.008ZM70.4261 13.44L69.0652 11.9744L69.0381 11.9996L69.0119 12.0258L70.4261 13.44ZM70.5701 15.408L69.1946 16.8599L69.2132 16.8775L69.2322 16.8946L70.5701 15.408ZM73.1621 15.528L74.1796 17.2499L74.1908 17.2432L74.202 17.2364L73.1621 15.528ZM74.0261 14.64L75.7672 15.6241L75.7761 15.6084L75.7847 15.5926L74.0261 14.64ZM73.8581 9.096L72.4806 10.546L72.5001 10.5646L72.5202 10.5826L73.8581 9.096ZM70.8101 8.808L71.1901 10.7716L71.2139 10.767L71.2375 10.7618L70.8101 8.808ZM69.1541 9.312L68.4198 7.45169L68.3726 7.4703L68.3265 7.49127L69.1541 9.312ZM68.2181 9.432L67.5525 11.318L67.6027 11.3357L67.6538 11.3507L68.2181 9.432ZM67.5941 8.952L65.8791 9.98099L65.895 10.0075L65.9117 10.0335L67.5941 8.952ZM67.6181 7.368L69.3141 8.428L69.3283 8.40521L69.342 8.38204L67.6181 7.368ZM68.4101 6.768L69.0671 8.65699L69.1138 8.64075L69.1597 8.62222L68.4101 6.768ZM70.5221 6.144L70.1933 4.1712L70.1855 4.17253L70.5221 6.144ZM75.3941 6.528L74.5443 8.33847L74.5663 8.34882L74.5886 8.35863L75.3941 6.528ZM77.1941 8.184L75.4284 9.12323L75.4326 9.13115L75.4368 9.13903L77.1941 8.184ZM77.3621 17.736L75.8755 16.3981L77.3621 17.736ZM74.8421 17.736L73.3555 19.0739L73.3735 19.094L73.3921 19.1135L74.8421 17.736ZM74.4101 15.48L75.7117 13.9615L72.4101 11.1316V15.48H74.4101ZM74.5781 15.624L76.5477 15.9716L76.7459 14.848L75.8797 14.1055L74.5781 15.624ZM73.9541 17.04L72.3923 15.7906L72.386 15.7986L73.9541 17.04ZM72.7781 17.952L73.5733 19.7871L73.5987 19.7761L73.6239 19.7644L72.7781 17.952ZM71.1221 16.264C70.5229 16.264 70.0532 16.1491 69.6718 15.9629L67.9164 19.5571C68.911 20.0429 69.9932 20.264 71.1221 20.264V16.264ZM69.6718 15.9629C69.2675 15.7655 69.0173 15.5332 68.8502 15.2826L65.522 17.5014C66.1229 18.4028 66.9446 19.0825 67.9164 19.5571L69.6718 15.9629ZM68.8502 15.2826C68.6943 15.0488 68.6101 14.7899 68.6101 14.448H64.6101C64.6101 15.5461 64.9099 16.5832 65.522 17.5014L68.8502 15.2826ZM68.6101 14.448C68.6101 13.9302 68.7383 13.7796 68.7663 13.7486L65.7979 11.0674C64.9299 12.0284 64.6101 13.2378 64.6101 14.448H68.6101ZM68.7872 13.725C68.8342 13.6714 69.0817 13.4495 69.8703 13.2867L69.0619 9.36927C67.8345 9.62253 66.626 10.1206 65.7769 11.091L68.7872 13.725ZM69.9 13.2804C70.7061 13.1012 71.879 12.992 73.4741 12.992V8.992C71.7412 8.992 70.2421 9.10677 69.0322 9.37563L69.9 13.2804ZM73.4741 12.992H74.7461V8.992H73.4741V12.992ZM72.7461 10.992V12.864H76.7461V10.992H72.7461ZM74.7461 10.864H73.4981V14.864H74.7461V10.864ZM73.4981 10.864C72.6194 10.864 71.8191 10.9145 71.1375 11.0423L71.8747 14.9737C72.2171 14.9095 72.7448 14.864 73.4981 14.864V10.864ZM71.1876 11.0335C70.5285 11.1398 69.7107 11.375 69.0652 11.9744L71.787 14.9056C71.7315 14.9571 71.6834 14.99 71.652 15.0089C71.621 15.0276 71.6038 15.0342 71.6069 15.033C71.6099 15.0317 71.6283 15.0247 71.6659 15.0149C71.7033 15.0051 71.7555 14.9936 71.8246 14.9825L71.1876 11.0335ZM69.0119 12.0258C68.3399 12.6978 68.1141 13.5462 68.1141 14.304H72.1141C72.1141 14.3062 72.1139 14.3785 72.0732 14.4913C72.0296 14.612 71.9526 14.7419 71.8403 14.8542L69.0119 12.0258ZM68.1141 14.304C68.1141 15.2584 68.4619 16.1657 69.1946 16.8599L71.9456 13.9561C71.9872 13.9955 72.0396 14.0629 72.0766 14.1525C72.1124 14.2391 72.1141 14.2987 72.1141 14.304H68.1141ZM69.2322 16.8946C70.0377 17.6196 71.0384 17.84 71.9381 17.84V13.84C71.8706 13.84 71.8227 13.8359 71.7918 13.8316C71.7611 13.8274 71.75 13.8235 71.7544 13.8248C71.7592 13.8264 71.779 13.8331 71.8084 13.8495C71.8384 13.8662 71.873 13.8899 71.908 13.9214L69.2322 16.8946ZM71.9381 17.84C72.7108 17.84 73.4796 17.6635 74.1796 17.2499L72.1446 13.8061C72.1406 13.8085 72.0934 13.84 71.9381 13.84V17.84ZM74.202 17.2364C74.8559 16.8384 75.3878 16.2954 75.7672 15.6241L72.285 13.6559C72.2484 13.7206 72.2043 13.7696 72.1222 13.8196L74.202 17.2364ZM75.7847 15.5926C76.1664 14.8878 76.3381 14.123 76.3381 13.344H72.3381C72.3381 13.525 72.3018 13.6242 72.2675 13.6874L75.7847 15.5926ZM76.3381 13.344V10.584H72.3381V13.344H76.3381ZM76.3381 10.584C76.3381 9.66208 76.1412 8.4601 75.196 7.60941L72.5202 10.5826C72.4475 10.5172 72.3962 10.4506 72.3624 10.3953C72.3295 10.3416 72.3169 10.305 72.3147 10.298C72.3126 10.2916 72.319 10.3095 72.3256 10.3593C72.3323 10.4089 72.3381 10.4825 72.3381 10.584H76.3381ZM75.2356 7.646C74.3508 6.80541 73.1575 6.64 72.2261 6.64V10.64C72.4887 10.64 72.6251 10.6672 72.6719 10.6802C72.7151 10.6923 72.6143 10.673 72.4806 10.546L75.2356 7.646ZM72.2261 6.64C71.6238 6.64 71.0065 6.71774 70.3827 6.8542L71.2375 10.7618C71.6377 10.6743 71.9644 10.64 72.2261 10.64V6.64ZM70.43 6.84444C69.7838 6.96952 69.111 7.17885 68.4198 7.45169L69.8884 11.1723C70.4132 10.9652 70.8444 10.8385 71.1901 10.7716L70.43 6.84444ZM68.3265 7.49127C68.2521 7.52507 68.4496 7.41538 68.7824 7.51327L67.6538 11.3507C68.5306 11.6086 69.3521 11.4189 69.9817 11.1327L68.3265 7.49127ZM68.8837 7.54602C68.9274 7.56143 68.9982 7.59376 69.0775 7.65475C69.1583 7.71692 69.2261 7.79214 69.2765 7.87049L65.9117 10.0335C66.3164 10.6629 66.8987 11.0872 67.5525 11.318L68.8837 7.54602ZM69.3091 7.92301C69.3237 7.94744 69.3428 7.98663 69.3574 8.03851C69.3721 8.09075 69.3781 8.14115 69.3781 8.184H65.3781C65.3781 8.82936 65.5543 9.43962 65.8791 9.98099L69.3091 7.92301ZM69.3781 8.184C69.3781 8.22797 69.3716 8.27816 69.3568 8.32833C69.3423 8.37785 69.3243 8.41165 69.3141 8.428L65.9221 6.308C65.5735 6.8658 65.3781 7.50265 65.3781 8.184H69.3781ZM69.342 8.38204C69.283 8.48236 69.2096 8.55833 69.1438 8.60818C69.0824 8.65473 69.047 8.66399 69.0671 8.65699L67.7531 4.87901C67.0458 5.125 66.3474 5.58352 65.8942 6.35396L69.342 8.38204ZM69.1597 8.62222C69.8064 8.36078 70.3709 8.19875 70.8587 8.11547L70.1855 4.17253C69.3613 4.31325 68.5178 4.56722 67.6605 4.91378L69.1597 8.62222ZM70.8509 8.11679C71.4366 8.01917 71.9408 7.976 72.3701 7.976V3.976C71.6794 3.976 70.9516 4.04483 70.1933 4.17121L70.8509 8.11679ZM72.3701 7.976C73.4238 7.976 74.1139 8.13648 74.5443 8.33847L76.2439 4.71753C75.1062 4.18352 73.7804 3.976 72.3701 3.976V7.976ZM74.5886 8.35863C74.9891 8.53486 75.2452 8.77882 75.4284 9.12323L78.9598 7.24477C78.343 6.08518 77.399 5.22514 76.1996 4.69737L74.5886 8.35863ZM75.4368 9.13903C75.6271 9.48912 75.7941 10.081 75.7941 11.04H79.7941C79.7941 9.66295 79.5611 8.35088 78.9513 7.22897L75.4368 9.13903ZM75.7941 11.04V16.368H79.7941V11.04H75.7941ZM75.7941 16.368C75.7941 16.4355 75.79 16.4834 75.7857 16.5142C75.7815 16.545 75.7776 16.5561 75.7789 16.5517C75.7804 16.5469 75.7872 16.5271 75.8036 16.4977C75.8203 16.4677 75.844 16.4331 75.8755 16.3981L78.8487 19.0739C79.5737 18.2684 79.7941 17.2677 79.7941 16.368H75.7941ZM75.8755 16.3981C75.9093 16.3605 75.9499 16.3246 75.9954 16.2935C76.0407 16.2627 76.0827 16.2422 76.1161 16.2293C76.1816 16.2041 76.1931 16.216 76.1141 16.216V20.216C77.0651 20.216 78.0861 19.9212 78.8487 19.0739L75.8755 16.3981ZM76.1141 16.216C76.0362 16.216 76.0403 16.2045 76.0942 16.2248C76.1214 16.2351 76.156 16.2515 76.1935 16.2763C76.2312 16.3011 76.2645 16.3295 76.2921 16.3585L73.3921 19.1135C74.1583 19.92 75.1582 20.216 76.1141 20.216V16.216ZM76.3287 16.3981C76.3602 16.4331 76.3839 16.4677 76.4006 16.4977C76.4169 16.5271 76.4237 16.5469 76.4253 16.5517C76.4266 16.5561 76.4227 16.545 76.4185 16.5142C76.4142 16.4834 76.4101 16.4355 76.4101 16.368H72.4101C72.4101 17.2677 72.6305 18.2684 73.3555 19.0739L76.3287 16.3981ZM76.4101 16.368V15.48H72.4101V16.368H76.4101ZM73.1085 16.9985L73.2765 17.1425L75.8797 14.1055L75.7117 13.9615L73.1085 16.9985ZM72.6085 15.2764C72.5661 15.517 72.4868 15.6726 72.3924 15.7906L75.5158 18.2894C76.0614 17.6074 76.3981 16.819 76.5477 15.9716L72.6085 15.2764ZM72.386 15.7986C72.2905 15.9192 72.1539 16.0362 71.9323 16.1396L73.6239 19.7644C74.3623 19.4198 75.0096 18.9288 75.5222 18.2814L72.386 15.7986ZM71.9829 16.1169C71.7974 16.1972 71.5244 16.264 71.1221 16.264V20.264C71.9678 20.264 72.7988 20.1228 73.5733 19.7871L71.9829 16.1169ZM80.9775 17.736L79.5633 19.1502L80.9775 17.736ZM80.9535 6.504L79.5393 5.08979V5.08979L80.9535 6.504ZM83.5935 6.504L82.1435 7.8815L82.1611 7.90008L82.1793 7.91821L83.5935 6.504ZM84.0495 9.096V11.096H86.0495V9.096H84.0495ZM83.8095 9.096L81.8483 8.70377L81.3699 11.096H83.8095V9.096ZM87.6255 5.976L87.7483 7.97222L87.7666 7.97109L87.785 7.96963L87.6255 5.976ZM88.5375 6.288L87.0261 7.59786L87.0728 7.65177L87.1233 7.70221L88.5375 6.288ZM88.8975 7.416L86.8984 7.47658L86.8994 7.5107L86.9016 7.54476L88.8975 7.416ZM88.5855 8.592L87.049 7.31163L87.0275 7.33752L87.0068 7.36412L88.5855 8.592ZM87.4335 9.12L87.6067 11.1125L87.637 11.1098L87.6672 11.1063L87.4335 9.12ZM86.8815 9.168L86.7082 7.17552L86.7067 7.17565L86.8815 9.168ZM84.8415 9.96L83.4273 8.54579L83.4144 8.55864L83.4018 8.57173L84.8415 9.96ZM83.7135 17.736L82.2993 16.3218L82.2811 16.3399L82.2635 16.3585L83.7135 17.736ZM82.3695 16.216C82.2365 16.216 82.1964 16.198 82.2175 16.2053C82.2293 16.2093 82.255 16.2196 82.2888 16.2403C82.323 16.2613 82.3586 16.2887 82.3917 16.3218L79.5633 19.1502C80.373 19.9599 81.4188 20.216 82.3695 20.216V16.216ZM82.3917 16.3218C82.4218 16.3519 82.4478 16.3851 82.4684 16.4184C82.4887 16.4513 82.4996 16.4775 82.5047 16.4918C82.514 16.5184 82.4975 16.4874 82.4975 16.368H78.4975C78.4975 17.3204 78.763 18.35 79.5633 19.1502L82.3917 16.3218ZM82.4975 16.368V7.848H78.4975V16.368H82.4975ZM82.4975 7.848C82.4975 7.71798 82.5147 7.68311 82.5054 7.71059C82.5002 7.72601 82.488 7.75661 82.4641 7.79601C82.4399 7.83601 82.4077 7.87823 82.3677 7.91821L79.5393 5.08979C78.737 5.89205 78.4975 6.92977 78.4975 7.848H82.4975ZM82.3677 7.91821C82.3436 7.94228 82.3151 7.96529 82.284 7.98498C82.253 8.00455 82.2259 8.0167 82.207 8.02359C82.1696 8.03715 82.1821 8.024 82.2735 8.024V4.024C81.3165 4.024 80.3192 4.30984 79.5393 5.08979L82.3677 7.91821ZM82.2735 8.024C82.3801 8.024 82.3949 8.03921 82.352 8.02359C82.3294 8.01538 82.2954 8.00022 82.2557 7.97459C82.2156 7.94871 82.1772 7.91705 82.1435 7.8815L85.0435 5.1265C84.256 4.2976 83.2222 4.024 82.2735 4.024V8.024ZM82.1793 7.91821C82.1393 7.87823 82.1071 7.83601 82.0828 7.79601C82.0589 7.75661 82.0467 7.72601 82.0415 7.71059C82.0322 7.68311 82.0495 7.71798 82.0495 7.848H86.0495C86.0495 6.92977 85.81 5.89205 85.0077 5.08979L82.1793 7.91821ZM82.0495 7.848V9.096H86.0495V7.848H82.0495ZM84.0495 7.096H83.8095V11.096H84.0495V7.096ZM85.7706 9.48823C85.8865 8.90901 86.1024 8.60961 86.3355 8.42202L83.8275 5.30598C82.7485 6.17439 82.1165 7.36298 81.8483 8.70377L85.7706 9.48823ZM86.3355 8.42202C86.5992 8.20975 87.0224 8.0169 87.7483 7.97222L87.5026 3.97978C86.1485 4.0631 84.8757 4.46225 83.8275 5.30598L86.3355 8.42202ZM87.785 7.96963C87.7777 7.97021 87.6692 7.97813 87.5061 7.92233C87.3278 7.86133 87.1564 7.74821 87.0261 7.59786L90.0489 4.97814C89.3159 4.13248 88.3147 3.91447 87.466 3.98237L87.785 7.96963ZM87.1233 7.70221C86.9608 7.53978 86.9038 7.38883 86.8902 7.34608C86.8782 7.30855 86.8942 7.34 86.8984 7.47658L90.8966 7.35542C90.8748 6.63669 90.7113 5.63335 89.9517 4.87379L87.1233 7.70221ZM86.9016 7.54476C86.9067 7.62378 86.896 7.62323 86.9103 7.56913C86.9269 7.50685 86.9676 7.40939 87.049 7.31163L90.1219 9.87237C90.7852 9.07638 90.9473 8.1234 90.8933 7.28724L86.9016 7.54476ZM87.0068 7.36412C87.1212 7.21696 87.2421 7.14663 87.2962 7.12187C87.3408 7.10143 87.3225 7.11927 87.1998 7.1337L87.6672 11.1063C88.479 11.0108 89.478 10.7022 90.1642 9.81988L87.0068 7.36412ZM87.2602 7.12752L86.7082 7.17552L87.0547 11.1605L87.6067 11.1125L87.2602 7.12752ZM86.7067 7.17565C85.5302 7.27885 84.3282 7.64488 83.4273 8.54579L86.2557 11.3742C86.2558 11.3741 86.2912 11.337 86.4113 11.2904C86.5371 11.2416 86.7427 11.1878 87.0562 11.1603L86.7067 7.17565ZM83.4018 8.57173C82.4964 9.51065 82.1935 10.7296 82.1935 11.904H86.1935C86.1935 11.6452 86.2269 11.4921 86.2528 11.4145C86.2758 11.3454 86.2917 11.3374 86.2812 11.3483L83.4018 8.57173ZM82.1935 11.904V16.368H86.1935V11.904H82.1935ZM82.1935 16.368C82.1935 16.4874 82.177 16.5184 82.1863 16.4918C82.1913 16.4775 82.2022 16.4513 82.2226 16.4184C82.2432 16.3851 82.2691 16.3519 82.2993 16.3218L85.1277 19.1502C85.9279 18.35 86.1935 17.3204 86.1935 16.368H82.1935ZM82.2635 16.3585C82.3003 16.3197 82.3412 16.2865 82.3824 16.2602C82.4231 16.2342 82.4567 16.2197 82.4768 16.2125C82.5141 16.1992 82.4901 16.216 82.3695 16.216V20.216C83.3153 20.216 84.3661 19.9528 85.1635 19.1135L82.2635 16.3585ZM92.0492 17.52L90.9641 19.2001L90.972 19.2052L90.9799 19.2102L92.0492 17.52ZM90.2492 15.384L88.436 16.2281L90.2492 15.384ZM90.2492 8.832L88.4417 7.97583L90.2492 8.832ZM92.0492 6.72L90.9799 5.02984L90.972 5.03484L90.9641 5.03992L92.0492 6.72ZM97.2092 6.648L96.1354 8.33532L96.144 8.34076L96.1525 8.34611L97.2092 6.648ZM98.6732 8.4V10.4H101.507L100.558 7.72998L98.6732 8.4ZM98.4092 8.4H96.4092V10.4H98.4092V8.4ZM98.8652 1.344L100.279 2.75821L100.298 2.74008L100.315 2.7215L98.8652 1.344ZM101.553 1.344L100.139 2.75821L100.157 2.77634L100.176 2.794L101.553 1.344ZM101.553 17.736L100.139 16.3218L100.121 16.3399L100.103 16.3585L101.553 17.736ZM98.8892 17.736L97.4392 19.1135L97.4568 19.1321L97.4749 19.1502L98.8892 17.736ZM98.4332 14.736L100.358 14.1931L96.4332 14.736H98.4332ZM98.6972 15.672L100.62 16.2214L100.776 15.6755L100.622 15.1291L98.6972 15.672ZM97.2572 17.568L98.3406 19.2492L98.3497 19.2432L97.2572 17.568ZM97.2092 15.168L96.0998 13.5039L97.2092 15.168ZM98.1212 14.04L99.9439 14.8632L99.9487 14.8524L99.9535 14.8416L98.1212 14.04ZM97.7372 9.528L96.2186 10.8296L96.228 10.8405L96.2375 10.8512L97.7372 9.528ZM94.4732 9.048L93.4442 7.33301L93.4286 7.34237L93.4132 7.352L94.4732 9.048ZM93.5612 10.176L91.7288 9.37436L91.7227 9.38841L91.7168 9.40255L93.5612 10.176ZM93.9692 14.712L92.4327 15.9924L92.4416 16.003L92.4506 16.0136L93.9692 14.712ZM94.7612 16.264C94.0751 16.264 93.5498 16.1028 93.1184 15.8298L90.9799 19.2102C92.1165 19.9292 93.3992 20.264 94.7612 20.264V16.264ZM93.1342 15.8399C92.7197 15.5722 92.3549 15.1683 92.0623 14.5399L88.436 16.2281C89.0075 17.4557 89.8426 18.4758 90.9641 19.2001L93.1342 15.8399ZM92.0623 14.5399C91.7788 13.9309 91.6012 13.1352 91.6012 12.096H87.6012C87.6012 13.5848 87.8555 14.9811 88.436 16.2281L92.0623 14.5399ZM91.6012 12.096C91.6012 11.0554 91.7792 10.2738 92.0566 9.68817L88.4417 7.97583C87.8551 9.21421 87.6012 10.6086 87.6012 12.096H91.6012ZM92.0566 9.68817C92.3463 9.07662 92.7109 8.67344 93.1342 8.40008L90.9641 5.03992C89.8514 5.75856 89.016 6.76337 88.4417 7.97583L92.0566 9.68817ZM93.1184 8.41016C93.5498 8.13725 94.0751 7.976 94.7612 7.976V3.976C93.3992 3.976 92.1165 4.31075 90.9799 5.02984L93.1184 8.41016ZM94.7612 7.976C95.3529 7.976 95.7876 8.11396 96.1354 8.33532L98.2829 4.96068C97.2228 4.28603 96.0255 3.976 94.7612 3.976V7.976ZM96.1525 8.34611C96.533 8.5828 96.7011 8.82365 96.7887 9.07002L100.558 7.72998C100.133 6.53635 99.3254 5.6092 98.2658 4.94989L96.1525 8.34611ZM98.6732 6.4H98.4092V10.4H98.6732V6.4ZM100.409 8.4V2.712H96.4092V8.4H100.409ZM100.409 2.712C100.409 2.5687 100.428 2.52473 100.421 2.54646C100.416 2.55932 100.405 2.58932 100.381 2.62949C100.356 2.67038 100.323 2.71507 100.279 2.75821L97.4509 -0.0702138C96.6396 0.741146 96.4092 1.79571 96.4092 2.712H100.409ZM100.315 2.7215C100.278 2.76031 100.237 2.79353 100.196 2.81984C100.156 2.84583 100.122 2.86029 100.102 2.86748C100.064 2.88082 100.089 2.864 100.209 2.864V-1.136C99.2634 -1.136 98.2125 -0.872791 97.4152 -0.0334973L100.315 2.7215ZM100.209 2.864C100.315 2.864 100.336 2.8789 100.304 2.86748C100.288 2.86153 100.261 2.84998 100.229 2.83C100.197 2.80982 100.166 2.78531 100.139 2.75821L102.967 -0.0702114C102.177 -0.860553 101.164 -1.136 100.209 -1.136V2.864ZM100.176 2.794C100.134 2.75403 100.099 2.71072 100.072 2.66849C100.046 2.62688 100.032 2.59381 100.026 2.57618C100.015 2.54453 100.033 2.57783 100.033 2.712H104.033C104.033 1.76879 103.78 0.70074 102.931 -0.106L100.176 2.794ZM100.033 2.712V16.368H104.033V2.712H100.033ZM100.033 16.368C100.033 16.4874 100.017 16.5184 100.026 16.4918C100.031 16.4775 100.042 16.4513 100.062 16.4184C100.083 16.3851 100.109 16.3519 100.139 16.3218L102.967 19.1502C103.768 18.35 104.033 17.3204 104.033 16.368H100.033ZM100.103 16.3585C100.137 16.323 100.175 16.2913 100.215 16.2654C100.255 16.2398 100.289 16.2246 100.312 16.2164C100.355 16.2008 100.34 16.216 100.233 16.216V20.216C101.182 20.216 102.216 19.9424 103.003 19.1135L100.103 16.3585ZM100.233 16.216C100.128 16.216 100.106 16.2011 100.138 16.2125C100.154 16.2185 100.181 16.23 100.213 16.25C100.245 16.2702 100.276 16.2947 100.303 16.3218L97.4749 19.1502C98.2653 19.9406 99.2786 20.216 100.233 20.216V16.216ZM100.339 16.3585C100.37 16.3912 100.395 16.4254 100.414 16.4572C100.432 16.4886 100.441 16.5119 100.445 16.5215C100.45 16.5384 100.433 16.4969 100.433 16.368H96.4332C96.4332 17.2937 96.6755 18.3097 97.4392 19.1135L100.339 16.3585ZM100.433 16.368V14.736H96.4332V16.368H100.433ZM96.5083 15.2789L96.7723 16.2149L100.622 15.1291L100.358 14.1931L96.5083 15.2789ZM96.7741 15.1226C96.6931 15.4061 96.5312 15.6537 96.1646 15.8928L98.3497 19.2432C99.4551 18.5223 100.253 17.5059 100.62 16.2214L96.7741 15.1226ZM96.1738 15.8869C95.8093 16.1217 95.3616 16.264 94.7612 16.264V20.264C96.0487 20.264 97.265 19.9423 98.3406 19.2491L96.1738 15.8869ZM95.8412 17.552C96.7054 17.552 97.5604 17.3375 98.3186 16.8321L96.0998 13.5039C96.0899 13.5105 96.0329 13.552 95.8412 13.552V17.552ZM98.3186 16.8321C99.0666 16.3334 99.5937 15.6387 99.9439 14.8632L96.2984 13.2168C96.2007 13.4333 96.1197 13.4906 96.0998 13.5039L98.3186 16.8321ZM99.9535 14.8416C100.323 13.9967 100.457 13.0524 100.457 12.096H96.4572C96.4572 12.7076 96.3672 13.0593 96.2888 13.2384L99.9535 14.8416ZM100.457 12.096C100.457 10.7209 100.186 9.28038 99.2368 8.20476L96.2375 10.8512C96.2484 10.8636 96.4572 11.1351 96.4572 12.096H100.457ZM99.2557 8.22642C98.3693 7.19232 97.1672 6.688 95.8412 6.688V10.688C96.0831 10.688 96.145 10.7437 96.2186 10.8296L99.2557 8.22642ZM95.8412 6.688C95.0032 6.688 94.1849 6.8886 93.4442 7.33301L95.5021 10.763C95.5615 10.7274 95.6552 10.688 95.8412 10.688V6.688ZM93.4132 7.352C92.6149 7.85093 92.0762 8.58042 91.7288 9.37436L95.3935 10.9776C95.4448 10.8604 95.4886 10.7969 95.5124 10.7674C95.5343 10.7404 95.5418 10.7386 95.5332 10.744L93.4132 7.352ZM91.7168 9.40255C91.3703 10.2286 91.2492 11.1577 91.2492 12.096H95.2492C95.2492 11.4663 95.336 11.1154 95.4055 10.9495L91.7168 9.40255ZM91.2492 12.096C91.2492 13.4844 91.5258 14.9041 92.4327 15.9924L95.5056 13.4316C95.4525 13.3679 95.2492 13.0436 95.2492 12.096H91.2492ZM92.4506 16.0136C93.3282 17.0374 94.5169 17.552 95.8412 17.552V13.552C95.7046 13.552 95.6405 13.5283 95.6159 13.5173C95.5935 13.5072 95.5511 13.4844 95.4877 13.4104L92.4506 16.0136ZM107.346 17.52L106.428 19.2972L106.445 19.306L106.463 19.3145L107.346 17.52ZM105.042 15.384L103.303 16.373L103.313 16.3909L103.324 16.4086L105.042 15.384ZM105.018 8.928L106.762 9.90707L106.765 9.90063L106.769 9.89415L105.018 8.928ZM107.154 6.768L108.133 8.512L108.143 8.50633L107.154 6.768ZM112.602 6.408L111.829 8.25288L111.848 8.26059L111.866 8.26792L112.602 6.408ZM114.378 7.608L112.92 8.97735L112.93 8.98855L112.941 8.99959L114.378 7.608ZM115.506 9.504L113.612 10.1485L113.617 10.161L115.506 9.504ZM115.602 12.672L116.802 14.272L116.843 14.2413L116.882 14.2084L115.602 12.672ZM107.226 12.888H105.226V14.888H107.226V12.888ZM107.226 11.016V9.016H105.226V11.016H107.226ZM113.274 11.016L114.591 12.5212L118.596 9.016H113.274V11.016ZM112.89 11.352H110.89V15.7595L114.207 12.8572L112.89 11.352ZM112.602 9.72L110.763 10.5078L110.769 10.5201L110.774 10.5323L112.602 9.72ZM111.762 8.712L110.688 10.3993L110.705 10.41L110.722 10.4204L111.762 8.712ZM108.93 8.784L110.024 10.4579L108.93 8.784ZM108.474 14.688L107.04 16.0822L107.049 16.0923L107.059 16.1022L108.474 14.688ZM112.338 15.408L112.718 17.3716L112.338 15.408ZM113.73 14.952L112.867 13.1477L112.862 13.15L113.73 14.952ZM114.714 14.784L114.28 16.7364L114.332 16.748L114.385 16.7568L114.714 14.784ZM115.65 15.888L113.653 16.0054L113.656 16.0637L113.663 16.1217L115.65 15.888ZM115.482 16.704L117.225 17.6845L117.237 17.6623L117.249 17.6398L115.482 16.704ZM114.762 17.352L113.834 15.5803L113.81 15.5929L113.786 15.6061L114.762 17.352ZM112.914 18.024L112.504 16.0664L112.477 16.072L112.45 16.0784L112.914 18.024ZM110.946 16.264C109.788 16.264 108.904 16.0579 108.229 15.7255L106.463 19.3145C107.803 19.9741 109.319 20.264 110.946 20.264V16.264ZM108.263 15.7428C107.585 15.3928 107.102 14.934 106.759 14.3594L103.324 16.4086C104.069 17.658 105.122 18.6232 106.428 19.2972L108.263 15.7428ZM106.78 14.395C106.45 13.8158 106.25 13.0802 106.25 12.12H102.25C102.25 13.6558 102.577 15.0962 103.303 16.373L106.78 14.395ZM106.25 12.12C106.25 11.1907 106.443 10.4746 106.762 9.90707L103.274 7.94893C102.568 9.20542 102.25 10.6173 102.25 12.12H106.25ZM106.769 9.89415C107.103 9.28765 107.55 8.83908 108.133 8.51197L106.175 5.02403C104.933 5.72091 103.956 6.71235 103.266 7.96184L106.769 9.89415ZM108.143 8.50633C108.741 8.16565 109.443 7.976 110.298 7.976V3.976C108.816 3.976 107.422 4.31435 106.165 5.02967L108.143 8.50633ZM110.298 7.976C110.917 7.976 111.417 8.08036 111.829 8.25288L113.374 4.56312C112.41 4.15964 111.375 3.976 110.298 3.976V7.976ZM111.866 8.26792C112.286 8.43397 112.63 8.66874 112.92 8.97735L115.835 6.23865C115.133 5.49126 114.293 4.92602 113.337 4.54808L111.866 8.26792ZM112.941 8.99959C113.209 9.27619 113.441 9.64399 113.612 10.1485L117.399 8.85947C117.059 7.86001 116.538 6.9638 115.814 6.21641L112.941 8.99959ZM113.617 10.161C113.788 10.6532 113.89 11.2504 113.89 11.976H117.89C117.89 10.8776 117.735 9.82676 117.395 8.84696L113.617 10.161ZM113.89 11.976C113.89 11.9196 113.898 11.7851 113.97 11.6133C114.045 11.4313 114.167 11.264 114.321 11.1356L116.882 14.2084C117.628 13.5866 117.89 12.7325 117.89 11.976H113.89ZM114.402 11.072C114.553 10.9581 114.686 10.9132 114.75 10.897C114.809 10.8816 114.821 10.888 114.762 10.888V14.888C115.345 14.888 116.123 14.7813 116.802 14.272L114.402 11.072ZM114.762 10.888H107.226V14.888H114.762V10.888ZM109.226 12.888V11.016H105.226V12.888H109.226ZM107.226 13.016H113.274V9.016H107.226V13.016ZM111.957 9.51085L111.573 9.84685L114.207 12.8572L114.591 12.5212L111.957 9.51085ZM114.89 11.352C114.89 10.5176 114.77 9.67426 114.429 8.90772L110.774 10.5323C110.817 10.6297 110.89 10.8744 110.89 11.352H114.89ZM114.44 8.93216C114.106 8.15401 113.571 7.47175 112.801 7.0036L110.722 10.4204C110.72 10.4192 110.717 10.417 110.713 10.4142C110.71 10.4115 110.709 10.4103 110.711 10.4124C110.714 10.4158 110.735 10.4417 110.763 10.5078L114.44 8.93216ZM112.835 7.02468C112.087 6.54859 111.25 6.376 110.442 6.376V10.376C110.689 10.376 110.732 10.4274 110.688 10.3993L112.835 7.02468ZM110.442 6.376C109.536 6.376 108.634 6.58749 107.835 7.11006L110.024 10.4579C110.057 10.4365 110.163 10.376 110.442 10.376V6.376ZM107.835 7.11006C107.054 7.62069 106.497 8.33582 106.137 9.15836L109.802 10.7616C109.89 10.5602 109.973 10.4913 110.024 10.4579L107.835 7.11006ZM106.137 9.15836C105.776 9.98477 105.634 10.8884 105.634 11.808H109.634C109.634 11.2876 109.715 10.9592 109.802 10.7616L106.137 9.15836ZM105.634 11.808V12H109.634V11.808H105.634ZM105.634 12C105.634 13.4745 105.968 14.9796 107.04 16.0822L109.908 13.2938C109.859 13.2444 109.634 12.9575 109.634 12H105.634ZM107.059 16.1022C108.133 17.176 109.57 17.552 111.018 17.552V13.552C110.225 13.552 109.966 13.352 109.888 13.2738L107.059 16.1022ZM111.018 17.552C111.562 17.552 112.133 17.4847 112.718 17.3716L111.958 13.4444C111.55 13.5233 111.241 13.552 111.018 13.552V17.552ZM112.718 17.3716C113.373 17.2446 114.002 17.0405 114.597 16.754L112.862 13.15C112.593 13.2795 112.294 13.3794 111.958 13.4444L112.718 17.3716ZM114.593 16.7563C114.709 16.7005 114.569 16.8006 114.28 16.7364L115.147 12.8316C114.283 12.6394 113.486 12.8515 112.867 13.1477L114.593 16.7563ZM114.385 16.7568C114.326 16.747 114.224 16.7203 114.105 16.6525C113.983 16.5828 113.879 16.4896 113.8 16.3874L116.971 13.9486C116.467 13.2932 115.769 12.9322 115.042 12.8112L114.385 16.7568ZM113.8 16.3874C113.76 16.3347 113.722 16.2684 113.694 16.1925C113.666 16.1173 113.656 16.0517 113.653 16.0054L117.646 15.7706C117.608 15.1146 117.385 14.487 116.971 13.9486L113.8 16.3874ZM113.663 16.1217C113.654 16.0423 113.658 15.9632 113.673 15.8927C113.687 15.8242 113.707 15.7818 113.714 15.7682L117.249 17.6398C117.559 17.0553 117.721 16.3782 117.636 15.6543L113.663 16.1217ZM113.738 15.7235C113.783 15.644 113.83 15.5946 113.856 15.5714C113.879 15.5502 113.879 15.5568 113.834 15.5803L115.69 19.1237C116.269 18.8199 116.843 18.3629 117.225 17.6845L113.738 15.7235ZM113.786 15.6061C113.44 15.7996 113.019 15.9587 112.504 16.0664L113.323 19.9816C114.185 19.8013 114.995 19.5124 115.737 19.0979L113.786 15.6061ZM112.45 16.0784C111.918 16.2051 111.418 16.264 110.946 16.264V20.264C111.753 20.264 112.565 20.1629 113.377 19.9696L112.45 16.0784ZM118.453 17.736L117.003 19.1135L117.021 19.1321L117.039 19.1502L118.453 17.736ZM118.453 6.504L117.039 5.08979V5.08979L118.453 6.504ZM121.093 6.504L119.643 7.8815L119.661 7.90008L119.679 7.91821L121.093 6.504ZM121.549 9.216L119.652 9.84846L123.549 9.216H121.549ZM121.285 8.424L119.475 7.57419L119.135 8.29795L119.388 9.05646L121.285 8.424ZM122.917 6.624L123.918 8.35577L123.93 8.34883L122.917 6.624ZM127.741 6.528L126.706 8.239L126.723 8.24909L126.739 8.25885L127.741 6.528ZM129.109 8.16L127.261 8.92352L127.264 8.93074L127.267 8.93794L129.109 8.16ZM129.085 17.736L127.671 16.3218L127.653 16.3399L127.635 16.3585L129.085 17.736ZM126.397 17.736L124.947 19.1135L124.965 19.1321L124.983 19.1502L126.397 17.736ZM125.485 9.336L123.91 10.5686L123.94 10.6067L123.972 10.6432L125.485 9.336ZM122.293 9.504L120.855 8.11396L120.843 8.12655L120.831 8.13936L122.293 9.504ZM119.821 16.216C119.702 16.216 119.671 16.1995 119.698 16.2088C119.712 16.2138 119.738 16.2247 119.771 16.2451C119.804 16.2657 119.838 16.2917 119.868 16.3218L117.039 19.1502C117.84 19.9505 118.869 20.216 119.821 20.216V16.216ZM119.903 16.3585C119.935 16.3912 119.96 16.4254 119.978 16.4572C119.997 16.4886 120.006 16.5119 120.009 16.5215C120.014 16.5384 119.997 16.4969 119.997 16.368H115.997C115.997 17.2937 116.24 18.3097 117.003 19.1135L119.903 16.3585ZM119.997 16.368V7.848H115.997V16.368H119.997ZM119.997 7.848C119.997 7.71798 120.015 7.68311 120.005 7.71059C120 7.72601 119.988 7.75661 119.964 7.79601C119.94 7.83601 119.908 7.87823 119.868 7.91821L117.039 5.08979C116.237 5.89205 115.997 6.92977 115.997 7.848H119.997ZM119.868 7.91821C119.844 7.94228 119.815 7.96529 119.784 7.98498C119.753 8.00455 119.726 8.0167 119.707 8.02359C119.67 8.03715 119.682 8.024 119.773 8.024V4.024C118.817 4.024 117.819 4.30984 117.039 5.08979L119.868 7.91821ZM119.773 8.024C119.88 8.024 119.895 8.03921 119.852 8.02359C119.829 8.01538 119.795 8.00022 119.756 7.97459C119.716 7.94871 119.677 7.91705 119.643 7.8815L122.543 5.1265C121.756 4.2976 120.722 4.024 119.773 4.024V8.024ZM119.679 7.91821C119.639 7.87823 119.607 7.83601 119.583 7.79601C119.559 7.75661 119.547 7.72601 119.542 7.71059C119.532 7.68311 119.549 7.71798 119.549 7.848H123.549C123.549 6.92977 123.31 5.89205 122.508 5.08979L119.679 7.91821ZM119.549 7.848V9.216H123.549V7.848H119.549ZM123.447 8.58354L123.183 7.79154L119.388 9.05646L119.652 9.84846L123.447 8.58354ZM123.096 9.27381C123.298 8.84329 123.567 8.55854 123.918 8.35573L121.917 4.89227C120.828 5.52146 120.009 6.43671 119.475 7.57419L123.096 9.27381ZM123.93 8.34883C124.332 8.11259 124.809 7.976 125.413 7.976V3.976C124.162 3.976 122.975 4.27141 121.905 4.89917L123.93 8.34883ZM125.413 7.976C126.109 7.976 126.497 8.11244 126.706 8.239L128.777 4.817C127.77 4.20755 126.606 3.976 125.413 3.976V7.976ZM126.739 8.25885C126.916 8.36132 127.101 8.53735 127.261 8.92352L130.958 7.39648C130.509 6.31065 129.783 5.39868 128.744 4.79715L126.739 8.25885ZM127.267 8.93794C127.432 9.32952 127.565 9.96054 127.565 10.92H131.565C131.565 9.63946 131.395 8.43048 130.952 7.38206L127.267 8.93794ZM127.565 10.92V16.368H131.565V10.92H127.565ZM127.565 16.368C127.565 16.4874 127.549 16.5184 127.558 16.4918C127.563 16.4775 127.574 16.4513 127.595 16.4184C127.615 16.3851 127.641 16.3519 127.671 16.3218L130.5 19.1502C131.3 18.35 131.565 17.3204 131.565 16.368H127.565ZM127.635 16.3585C127.672 16.3197 127.713 16.2865 127.754 16.2602C127.795 16.2342 127.829 16.2197 127.849 16.2125C127.886 16.1992 127.862 16.216 127.741 16.216V20.216C128.687 20.216 129.738 19.9528 130.535 19.1135L127.635 16.3585ZM127.741 16.216C127.636 16.216 127.614 16.2011 127.646 16.2125C127.663 16.2185 127.689 16.23 127.721 16.25C127.754 16.2702 127.785 16.2947 127.812 16.3218L124.983 19.1502C125.774 19.9406 126.787 20.216 127.741 20.216V16.216ZM127.847 16.3585C127.879 16.3912 127.904 16.4254 127.922 16.4572C127.941 16.4886 127.95 16.5119 127.953 16.5215C127.958 16.5384 127.941 16.4969 127.941 16.368H123.941C123.941 17.2937 124.184 18.3097 124.947 19.1135L127.847 16.3585ZM127.941 16.368V11.088H123.941V16.368H127.941ZM127.941 11.088C127.941 10.1199 127.78 8.93251 126.999 8.02876L123.972 10.6432C123.873 10.5288 123.871 10.4613 123.892 10.5418C123.913 10.6231 123.941 10.7946 123.941 11.088H127.941ZM127.06 8.10338C126.285 7.1121 125.163 6.784 124.141 6.784V10.784C124.249 10.784 124.244 10.8008 124.174 10.772C124.137 10.7571 124.09 10.7324 124.039 10.6945C123.989 10.6564 123.945 10.6128 123.91 10.5686L127.06 8.10338ZM124.141 6.784C122.92 6.784 121.754 7.18454 120.855 8.11396L123.731 10.894C123.761 10.8635 123.827 10.784 124.141 10.784V6.784ZM120.831 8.13936C119.966 9.06697 119.621 10.234 119.621 11.424H123.621C123.621 11.014 123.725 10.901 123.756 10.8686L120.831 8.13936ZM119.621 11.424V16.368H123.621V11.424H119.621ZM119.621 16.368C119.621 16.5198 119.602 16.5726 119.607 16.5589C119.614 16.5361 119.648 16.4514 119.739 16.3585C119.781 16.3148 119.826 16.2797 119.869 16.2533C119.912 16.2273 119.945 16.214 119.961 16.2082C119.991 16.198 119.956 16.216 119.821 16.216V20.216C120.743 20.216 121.799 19.9762 122.604 19.1495C123.4 18.3325 123.621 17.2793 123.621 16.368H119.621Z" fill="#5B3511"/>
</g>
<defs>
<filter id="filter0_d_35_110" x="0.177094" y="0.815918" width="130.388" height="24.72" filterUnits="userSpaceOnUse" color-interpolation-filters="sRGB">
<feFlood flood-opacity="0" result="BackgroundImageFix"/>
<feColorMatrix in="SourceAlpha" type="matrix" values="0 0 0 0 0 0 0 0 0 0 0 0 0 0 0 0 0 0 127 0" result="hardAlpha"/>
<feOffset dy="2"/>
<feGaussianBlur stdDeviation="0.5"/>
<feComposite in2="hardAlpha" operator="out"/>
<feColorMatrix type="matrix" values="0 0 0 0 0 0 0 0 0 0 0 0 0 0 0 0 0 0 0.25 0"/>
<feBlend mode="normal" in2="BackgroundImageFix" result="effect1_dropShadow_35_110"/>
<feBlend mode="normal" in="SourceGraphic" in2="effect1_dropShadow_35_110" result="shape"/>
</filter>
<linearGradient id="paint0_linear_35_110" x1="65.5" y1="-6" x2="65.5" y2="27" gradientUnits="userSpaceOnUse">
<stop stop-color="#FDE092"/>
<stop offset="1" stop-color="#C18B2C"/>
</linearGradient>
</defs>
</svg>
