<svg width="141" height="26" viewBox="0 0 141 26" fill="none" xmlns="http://www.w3.org/2000/svg">
<g filter="url(#filter0_d_42_591)">
<path d="M2.7207 18.216C2.1767 18.216 1.7607 18.064 1.4727 17.76C1.1847 17.456 1.0407 17.032 1.0407 16.488V2.592C1.0407 2.032 1.1927 1.608 1.4967 1.32C1.8007 1.016 2.2327 0.863999 2.7927 0.863999C3.2727 0.863999 3.6487 0.959999 3.9207 1.152C4.2087 1.344 4.4727 1.656 4.7127 2.088L9.8487 11.472L14.9847 2.088C15.2247 1.656 15.4807 1.344 15.7527 1.152C16.0407 0.959999 16.4167 0.863999 16.8807 0.863999C17.4247 0.863999 17.8407 1.016 18.1287 1.32C18.4327 1.608 18.5847 2.032 18.5847 2.592V16.488C18.5847 17.64 18.0247 18.216 16.9047 18.216C15.7687 18.216 15.2007 17.64 15.2007 16.488V7.68L11.2647 14.76C11.0727 15.064 10.8647 15.296 10.6407 15.456C10.4327 15.6 10.1527 15.672 9.8007 15.672C9.4487 15.672 9.1607 15.6 8.9367 15.456C8.7127 15.296 8.5127 15.064 8.3367 14.76L4.4007 7.752V16.488C4.4007 17.64 3.8407 18.216 2.7207 18.216ZM25.6881 18.264C24.8081 18.264 24.0321 18.096 23.3601 17.76C22.6881 17.424 22.1521 16.968 21.7521 16.392C21.3681 15.816 21.1761 15.168 21.1761 14.448C21.1761 13.6 21.4001 12.92 21.8481 12.408C22.2961 11.896 23.0241 11.536 24.0321 11.328C25.0401 11.104 26.3761 10.992 28.0401 10.992H28.9041V10.584C28.9041 9.88 28.7441 9.384 28.4241 9.096C28.1041 8.792 27.5601 8.64 26.7921 8.64C26.3601 8.64 25.8881 8.696 25.3761 8.808C24.8641 8.904 24.3121 9.072 23.7201 9.312C23.2721 9.504 22.8961 9.52 22.5921 9.36C22.2881 9.184 22.0881 8.928 21.9921 8.592C21.8961 8.24 21.9201 7.888 22.0641 7.536C22.2241 7.184 22.5281 6.928 22.9761 6.768C23.7281 6.48 24.4321 6.28 25.0881 6.168C25.7601 6.04 26.3761 5.976 26.9361 5.976C28.7601 5.976 30.1201 6.392 31.0161 7.224C31.9121 8.04 32.3601 9.312 32.3601 11.04V16.368C32.3601 17.6 31.8001 18.216 30.6801 18.216C29.5441 18.216 28.9761 17.6 28.9761 16.368V16.224C28.7361 16.848 28.3281 17.344 27.7521 17.712C27.1921 18.08 26.5041 18.264 25.6881 18.264ZM26.5041 15.84C27.1761 15.84 27.7441 15.608 28.2081 15.144C28.6721 14.68 28.9041 14.08 28.9041 13.344V12.864H28.0641C26.8321 12.864 25.9601 12.976 25.4481 13.2C24.9361 13.408 24.6801 13.776 24.6801 14.304C24.6801 14.752 24.8321 15.12 25.1361 15.408C25.4561 15.696 25.9121 15.84 26.5041 15.84ZM36.9355 18.216C35.6875 18.216 35.0635 17.6 35.0635 16.368V7.848C35.0635 6.632 35.6555 6.024 36.8395 6.024C38.0235 6.024 38.6155 6.632 38.6155 7.848V8.28C39.1915 6.856 40.3835 6.088 42.1915 5.976C42.5915 5.944 42.8955 6.048 43.1035 6.288C43.3275 6.512 43.4475 6.888 43.4635 7.416C43.4955 7.912 43.3915 8.304 43.1515 8.592C42.9275 8.88 42.5435 9.056 41.9995 9.12L41.4475 9.168C39.6555 9.344 38.7595 10.256 38.7595 11.904V16.368C38.7595 17.6 38.1515 18.216 36.9355 18.216ZM46.7781 18.216C45.5621 18.216 44.9541 17.6 44.9541 16.368V2.712C44.9541 1.48 45.5621 0.863999 46.7781 0.863999C47.9781 0.863999 48.5781 1.48 48.5781 2.712V11.088H48.6261L52.1061 7.224C52.4581 6.824 52.7781 6.528 53.0661 6.336C53.3541 6.128 53.7541 6.024 54.2661 6.024C54.7621 6.024 55.1461 6.152 55.4181 6.408C55.6901 6.648 55.8261 6.96 55.8261 7.344C55.8261 7.712 55.6661 8.072 55.3461 8.424L52.2741 11.856L55.7541 15.864C56.0581 16.248 56.1861 16.624 56.1381 16.992C56.1061 17.344 55.9461 17.64 55.6581 17.88C55.3701 18.104 55.0021 18.216 54.5541 18.216C53.9941 18.216 53.5541 18.112 53.2341 17.904C52.9301 17.696 52.6021 17.376 52.2501 16.944L48.6261 12.912H48.5781V16.368C48.5781 17.6 47.9781 18.216 46.7781 18.216ZM64.2694 18.264C62.8774 18.264 61.6774 18.016 60.6694 17.52C59.6774 17.008 58.9094 16.296 58.3654 15.384C57.8374 14.456 57.5734 13.368 57.5734 12.12C57.5734 10.904 57.8294 9.84 58.3414 8.928C58.8694 8 59.5814 7.28 60.4774 6.768C61.3894 6.24 62.4374 5.976 63.6214 5.976C65.3334 5.976 66.6934 6.52 67.7014 7.608C68.7094 8.68 69.2134 10.136 69.2134 11.976C69.2134 12.584 68.8374 12.888 68.0854 12.888H61.0294C61.1574 13.816 61.4934 14.496 62.0374 14.928C62.5974 15.344 63.3654 15.552 64.3414 15.552C64.7254 15.552 65.1574 15.512 65.6374 15.432C66.1334 15.336 66.6054 15.176 67.0534 14.952C67.5174 14.728 67.9094 14.688 68.2294 14.832C68.5494 14.96 68.7654 15.184 68.8774 15.504C69.0054 15.824 69.0054 16.16 68.8774 16.512C68.7654 16.848 68.5014 17.128 68.0854 17.352C67.5254 17.656 66.9014 17.88 66.2134 18.024C65.5414 18.184 64.8934 18.264 64.2694 18.264ZM63.7654 8.376C62.9974 8.376 62.3734 8.608 61.8934 9.072C61.4294 9.536 61.1414 10.184 61.0294 11.016H66.2134C66.1174 9.256 65.3014 8.376 63.7654 8.376ZM77.035 18.264C73.723 18.264 72.067 16.656 72.067 13.44V8.928H71.059C70.115 8.928 69.643 8.48 69.643 7.584C69.643 6.672 70.115 6.216 71.059 6.216H72.067V4.392C72.067 3.16 72.675 2.544 73.891 2.544C75.091 2.544 75.691 3.16 75.691 4.392V6.216H77.971C78.899 6.216 79.363 6.672 79.363 7.584C79.363 8.48 78.899 8.928 77.971 8.928H75.691V13.296C75.691 13.968 75.843 14.472 76.147 14.808C76.467 15.144 76.971 15.312 77.659 15.312C77.899 15.312 78.123 15.288 78.331 15.24C78.539 15.192 78.731 15.16 78.907 15.144C79.131 15.128 79.315 15.2 79.459 15.36C79.603 15.52 79.675 15.848 79.675 16.344C79.675 16.744 79.611 17.088 79.483 17.376C79.355 17.648 79.131 17.848 78.811 17.976C78.603 18.056 78.315 18.12 77.947 18.168C77.595 18.232 77.291 18.264 77.035 18.264ZM82.7781 22.536C81.5621 22.536 80.9541 21.92 80.9541 20.688V7.848C80.9541 6.632 81.5461 6.024 82.7301 6.024C83.9301 6.024 84.5301 6.632 84.5301 7.848V7.92C84.8661 7.328 85.3621 6.856 86.0181 6.504C86.6741 6.152 87.4101 5.976 88.2261 5.976C89.2501 5.976 90.1461 6.224 90.9141 6.72C91.6981 7.216 92.3061 7.92 92.7381 8.832C93.1701 9.744 93.3861 10.832 93.3861 12.096C93.3861 13.36 93.1701 14.456 92.7381 15.384C92.3061 16.296 91.6981 17.008 90.9141 17.52C90.1461 18.016 89.2501 18.264 88.2261 18.264C87.4421 18.264 86.7221 18.096 86.0661 17.76C85.4261 17.424 84.9301 16.976 84.5781 16.416V20.688C84.5781 21.92 83.9781 22.536 82.7781 22.536ZM87.1461 15.552C87.9141 15.552 88.5381 15.272 89.0181 14.712C89.4981 14.152 89.7381 13.28 89.7381 12.096C89.7381 10.928 89.4981 10.072 89.0181 9.528C88.5381 8.968 87.9141 8.688 87.1461 8.688C86.3621 8.688 85.7301 8.968 85.2501 9.528C84.7701 10.072 84.5301 10.928 84.5301 12.096C84.5301 13.28 84.7701 14.152 85.2501 14.712C85.7301 15.272 86.3621 15.552 87.1461 15.552ZM99.8506 18.264C97.0186 18.264 95.6026 16.688 95.6026 13.536V2.712C95.6026 1.48 96.2106 0.863999 97.4266 0.863999C98.6266 0.863999 99.2266 1.48 99.2266 2.712V13.392C99.2266 14.048 99.3626 14.536 99.6346 14.856C99.9226 15.16 100.299 15.312 100.763 15.312C100.891 15.312 101.011 15.304 101.123 15.288C101.251 15.272 101.371 15.264 101.483 15.264C101.739 15.248 101.915 15.328 102.011 15.504C102.123 15.68 102.179 16.04 102.179 16.584C102.179 17.512 101.787 18.04 101.003 18.168C100.843 18.184 100.659 18.2 100.451 18.216C100.243 18.248 100.043 18.264 99.8506 18.264ZM107.579 18.264C106.699 18.264 105.923 18.096 105.251 17.76C104.579 17.424 104.043 16.968 103.643 16.392C103.259 15.816 103.067 15.168 103.067 14.448C103.067 13.6 103.291 12.92 103.739 12.408C104.187 11.896 104.915 11.536 105.923 11.328C106.931 11.104 108.267 10.992 109.931 10.992H110.795V10.584C110.795 9.88 110.635 9.384 110.315 9.096C109.995 8.792 109.451 8.64 108.683 8.64C108.251 8.64 107.779 8.696 107.267 8.808C106.755 8.904 106.203 9.072 105.611 9.312C105.163 9.504 104.787 9.52 104.483 9.36C104.179 9.184 103.979 8.928 103.883 8.592C103.787 8.24 103.811 7.888 103.955 7.536C104.115 7.184 104.419 6.928 104.867 6.768C105.619 6.48 106.323 6.28 106.979 6.168C107.651 6.04 108.267 5.976 108.827 5.976C110.651 5.976 112.011 6.392 112.907 7.224C113.803 8.04 114.251 9.312 114.251 11.04V16.368C114.251 17.6 113.691 18.216 112.571 18.216C111.435 18.216 110.867 17.6 110.867 16.368V16.224C110.627 16.848 110.219 17.344 109.643 17.712C109.083 18.08 108.395 18.264 107.579 18.264ZM108.395 15.84C109.067 15.84 109.635 15.608 110.099 15.144C110.563 14.68 110.795 14.08 110.795 13.344V12.864H109.955C108.723 12.864 107.851 12.976 107.339 13.2C106.827 13.408 106.571 13.776 106.571 14.304C106.571 14.752 106.723 15.12 107.027 15.408C107.347 15.696 107.803 15.84 108.395 15.84ZM122.69 18.264C121.41 18.264 120.29 18.016 119.33 17.52C118.386 17.008 117.658 16.288 117.146 15.36C116.634 14.432 116.378 13.336 116.378 12.072C116.378 10.808 116.634 9.72 117.146 8.808C117.658 7.896 118.386 7.2 119.33 6.72C120.29 6.224 121.41 5.976 122.69 5.976C123.186 5.976 123.714 6.04 124.274 6.168C124.85 6.28 125.402 6.48 125.93 6.768C126.33 6.96 126.578 7.232 126.674 7.584C126.77 7.92 126.746 8.256 126.602 8.592C126.474 8.928 126.258 9.176 125.954 9.336C125.666 9.48 125.322 9.448 124.922 9.24C124.282 8.904 123.658 8.736 123.05 8.736C122.106 8.736 121.37 9.032 120.842 9.624C120.33 10.2 120.074 11.024 120.074 12.096C120.074 13.152 120.33 13.984 120.842 14.592C121.37 15.184 122.106 15.48 123.05 15.48C123.338 15.48 123.642 15.448 123.962 15.384C124.282 15.304 124.602 15.176 124.922 15C125.322 14.792 125.666 14.768 125.954 14.928C126.258 15.088 126.466 15.336 126.578 15.672C126.69 15.992 126.698 16.328 126.602 16.68C126.506 17.032 126.266 17.304 125.882 17.496C125.338 17.768 124.794 17.96 124.25 18.072C123.706 18.2 123.186 18.264 122.69 18.264ZM134.301 18.264C132.909 18.264 131.709 18.016 130.701 17.52C129.709 17.008 128.941 16.296 128.397 15.384C127.869 14.456 127.605 13.368 127.605 12.12C127.605 10.904 127.861 9.84 128.373 8.928C128.901 8 129.613 7.28 130.509 6.768C131.421 6.24 132.469 5.976 133.653 5.976C135.365 5.976 136.725 6.52 137.733 7.608C138.741 8.68 139.245 10.136 139.245 11.976C139.245 12.584 138.869 12.888 138.117 12.888H131.061C131.189 13.816 131.525 14.496 132.069 14.928C132.629 15.344 133.397 15.552 134.373 15.552C134.757 15.552 135.189 15.512 135.669 15.432C136.165 15.336 136.637 15.176 137.085 14.952C137.549 14.728 137.941 14.688 138.261 14.832C138.581 14.96 138.797 15.184 138.909 15.504C139.037 15.824 139.037 16.16 138.909 16.512C138.797 16.848 138.533 17.128 138.117 17.352C137.557 17.656 136.933 17.88 136.245 18.024C135.573 18.184 134.925 18.264 134.301 18.264ZM133.797 8.376C133.029 8.376 132.405 8.608 131.925 9.072C131.461 9.536 131.173 10.184 131.061 11.016H136.245C136.149 9.256 135.333 8.376 133.797 8.376Z" fill="url(#paint0_linear_42_591)"/>
<path d="M1.4727 17.76L2.9246 16.3845L1.4727 17.76ZM1.4967 1.32L2.87219 2.7719L2.8918 2.75332L2.91091 2.73421L1.4967 1.32ZM3.9207 1.152L2.76733 2.78593L2.78911 2.80131L2.8113 2.8161L3.9207 1.152ZM4.7127 2.088L6.46715 1.12776L6.46101 1.11671L4.7127 2.088ZM9.8487 11.472L8.09428 12.4322L9.8487 15.6377L11.6031 12.4322L9.8487 11.472ZM14.9847 2.088L13.2363 1.11669L13.2303 1.12778L14.9847 2.088ZM15.7527 1.152L14.6433 -0.5121L14.6211 -0.497312L14.5993 -0.481938L15.7527 1.152ZM18.1287 1.32L16.6768 2.69549L16.714 2.73473L16.7532 2.7719L18.1287 1.32ZM15.2007 7.68H17.2007V-0.03368L13.4527 6.70821L15.2007 7.68ZM11.2647 14.76L12.9557 15.828L12.9855 15.7807L13.0127 15.7318L11.2647 14.76ZM10.6407 15.456L11.7791 17.1004L11.7912 17.092L11.8032 17.0835L10.6407 15.456ZM8.9367 15.456L7.77422 17.0835L7.81403 17.1119L7.85518 17.1384L8.9367 15.456ZM8.3367 14.76L6.59291 15.7394L6.5993 15.7508L6.60584 15.7621L8.3367 14.76ZM4.4007 7.752L6.14449 6.77261L2.4007 0.106841V7.752H4.4007ZM2.7207 16.216C2.63124 16.216 2.63142 16.2031 2.68708 16.2235C2.71593 16.234 2.75543 16.252 2.79999 16.2809C2.84492 16.31 2.88735 16.3452 2.9246 16.3845L0.0207911 19.1355C0.790775 19.9482 1.80022 20.216 2.7207 20.216V16.216ZM2.9246 16.3845C2.95597 16.4176 2.9826 16.4534 3.00366 16.4889C3.02451 16.524 3.03636 16.5529 3.04246 16.5708C3.05406 16.605 3.0407 16.5866 3.0407 16.488H-0.959303C-0.959303 17.3855 -0.714704 18.3591 0.0207911 19.1355L2.9246 16.3845ZM3.0407 16.488V2.592H-0.959303V16.488H3.0407ZM3.0407 2.592C3.0407 2.48827 3.05529 2.47895 3.03738 2.52892C3.02791 2.55533 3.01064 2.59448 2.9814 2.64014C2.95184 2.6863 2.91496 2.73138 2.87219 2.7719L0.121207 -0.131907C-0.702618 0.648559 -0.959303 1.67561 -0.959303 2.592H3.0407ZM2.91091 2.73421C2.87727 2.76785 2.84002 2.79711 2.80204 2.82064C2.76444 2.84393 2.73287 2.85746 2.71251 2.86462C2.67374 2.87826 2.69016 2.864 2.7927 2.864V-1.136C1.86943 -1.136 0.865198 -0.87693 0.0824833 -0.0942152L2.91091 2.73421ZM2.7927 2.864C2.84653 2.864 2.88512 2.86672 2.91029 2.86954C2.93546 2.87236 2.94439 2.87497 2.93993 2.87383C2.93016 2.87134 2.86054 2.85173 2.76733 2.78593L5.07407 -0.481935C4.34545 -0.99625 3.51086 -1.136 2.7927 -1.136V2.864ZM2.8113 2.8161C2.77429 2.79143 2.77573 2.78383 2.80792 2.82188C2.84054 2.86042 2.89499 2.93437 2.96438 3.05928L6.46101 1.11671C6.12815 0.517554 5.67207 -0.084121 5.03009 -0.512103L2.8113 2.8161ZM2.95828 3.04822L8.09428 12.4322L11.6031 10.5118L6.46711 1.12778L2.95828 3.04822ZM11.6031 12.4322L16.7391 3.04822L13.2303 1.12778L8.09428 10.5118L11.6031 12.4322ZM16.733 3.05928C16.8071 2.92587 16.8657 2.84388 16.9028 2.79863C16.9401 2.75319 16.944 2.75918 16.9061 2.78594L14.5993 -0.481938C13.992 -0.0532525 13.5575 0.538634 13.2364 1.11671L16.733 3.05928ZM16.8621 2.8161C16.8305 2.83718 16.8025 2.85154 16.781 2.86084C16.7599 2.87003 16.7471 2.87343 16.7455 2.87383C16.7441 2.87419 16.7536 2.87165 16.7763 2.86906C16.799 2.86647 16.8333 2.864 16.8807 2.864V-1.136C16.1534 -1.136 15.3544 -0.986195 14.6433 -0.5121L16.8621 2.8161ZM16.8807 2.864C16.9702 2.864 16.97 2.87687 16.9143 2.85653C16.8855 2.84599 16.846 2.82799 16.8014 2.79913C16.7565 2.77003 16.714 2.73481 16.6768 2.69549L19.5806 -0.055491C18.8106 -0.868251 17.8012 -1.136 16.8807 -1.136V2.864ZM16.7532 2.7719C16.7104 2.73138 16.6736 2.6863 16.644 2.64014C16.6148 2.59448 16.5975 2.55533 16.588 2.52892C16.5701 2.47895 16.5847 2.48827 16.5847 2.592H20.5847C20.5847 1.67561 20.328 0.648559 19.5042 -0.131906L16.7532 2.7719ZM16.5847 2.592V16.488H20.5847V2.592H16.5847ZM16.5847 16.488C16.5847 16.6201 16.5679 16.6557 16.5771 16.6274C16.5892 16.5901 16.6305 16.4929 16.7307 16.3898C16.832 16.2856 16.9356 16.2351 16.991 16.2161C17.0362 16.2006 17.0191 16.216 16.9047 16.216V20.216C17.7875 20.216 18.8136 19.9857 19.5987 19.1782C20.3736 18.3811 20.5847 17.3584 20.5847 16.488H16.5847ZM16.9047 16.216C16.7838 16.216 16.7602 16.2 16.7997 16.2133C16.8491 16.23 16.9499 16.2774 17.0508 16.3797C17.1511 16.4814 17.1939 16.5791 17.2072 16.6195C17.2174 16.6505 17.2007 16.6177 17.2007 16.488H13.2007C13.2007 17.3653 13.4174 18.392 14.2026 19.1883C14.9929 19.9897 16.0213 20.216 16.9047 20.216V16.216ZM17.2007 16.488V7.68H13.2007V16.488H17.2007ZM13.4527 6.70821L9.51666 13.7882L13.0127 15.7318L16.9487 8.65179L13.4527 6.70821ZM9.57372 13.692C9.52853 13.7636 9.49459 13.8057 9.47556 13.8269C9.45681 13.8478 9.45651 13.844 9.47822 13.8285L11.8032 17.0835C12.2916 16.7346 12.6657 16.2872 12.9557 15.828L9.57372 13.692ZM9.50228 13.8116C9.73644 13.6495 9.9002 13.672 9.8007 13.672V17.672C10.4052 17.672 11.1289 17.5505 11.7791 17.1004L9.50228 13.8116ZM9.8007 13.672C9.71131 13.672 9.8311 13.6534 10.0182 13.7736L7.85518 17.1384C8.49029 17.5466 9.18608 17.672 9.8007 17.672V13.672ZM10.0992 13.8285C10.1307 13.851 10.1409 13.8646 10.1335 13.8561C10.1256 13.847 10.102 13.8175 10.0675 13.7579L6.60584 15.7621C6.8866 16.247 7.26372 16.7188 7.77422 17.0835L10.0992 13.8285ZM10.0805 13.7806L6.14449 6.77261L2.65691 8.73139L6.59291 15.7394L10.0805 13.7806ZM2.4007 7.752V16.488H6.4007V7.752H2.4007ZM2.4007 16.488C2.4007 16.6201 2.38393 16.6557 2.39311 16.6274C2.40522 16.5901 2.44655 16.4929 2.54671 16.3898C2.64804 16.2856 2.7516 16.2351 2.80705 16.2161C2.85221 16.2006 2.83505 16.216 2.7207 16.216V20.216C3.60351 20.216 4.62961 19.9857 5.41469 19.1782C6.18959 18.3811 6.4007 17.3584 6.4007 16.488H2.4007ZM23.3601 17.76L22.4657 19.5489L23.3601 17.76ZM21.7521 16.392L20.088 17.5014L20.0986 17.5172L20.1094 17.5328L21.7521 16.392ZM21.8481 12.408L20.343 11.091V11.091L21.8481 12.408ZM24.0321 11.328L24.4363 13.2867L24.4512 13.2837L24.466 13.2804L24.0321 11.328ZM28.9041 10.992V12.992H30.9041V10.992H28.9041ZM28.4241 9.096L27.0466 10.546L27.0662 10.5646L27.0862 10.5826L28.4241 9.096ZM25.3761 8.808L25.7447 10.7737L25.7742 10.7682L25.8035 10.7618L25.3761 8.808ZM23.7201 9.312L22.9687 7.45852L22.9504 7.46594L22.9323 7.47371L23.7201 9.312ZM22.5921 9.36L21.5901 11.0909L21.625 11.1111L21.6606 11.1298L22.5921 9.36ZM21.9921 8.592L20.0626 9.11823L20.0658 9.12986L20.0691 9.14144L21.9921 8.592ZM22.0641 7.536L20.2434 6.70839L20.2275 6.74327L20.213 6.77873L22.0641 7.536ZM22.9761 6.768L23.6488 8.65148L23.6702 8.64384L23.6914 8.63571L22.9761 6.768ZM25.0881 6.168L25.4247 8.13947L25.4436 8.13625L25.4624 8.13268L25.0881 6.168ZM31.0161 7.224L29.6552 8.68959L29.6623 8.69617L29.6695 8.70268L31.0161 7.224ZM28.9761 16.224H30.9761L27.1094 15.506L28.9761 16.224ZM27.7521 17.712L26.6754 16.0266L26.6645 16.0335L26.6538 16.0406L27.7521 17.712ZM28.2081 15.144L29.6223 16.5582V16.5582L28.2081 15.144ZM28.9041 12.864H30.9041V10.864H28.9041V12.864ZM25.4481 13.2L26.2009 15.0529L26.2255 15.0429L26.2498 15.0323L25.4481 13.2ZM25.1361 15.408L23.7606 16.8599L23.7792 16.8775L23.7982 16.8946L25.1361 15.408ZM25.6881 16.264C25.0656 16.264 24.605 16.1464 24.2546 15.9711L22.4657 19.5489C23.4592 20.0456 24.5507 20.264 25.6881 20.264V16.264ZM24.2546 15.9711C23.8603 15.774 23.5901 15.5323 23.3949 15.2512L20.1094 17.5328C20.7142 18.4037 21.5159 19.074 22.4657 19.5489L24.2546 15.9711ZM23.4162 15.2826C23.2604 15.0488 23.1761 14.7899 23.1761 14.448H19.1761C19.1761 15.5461 19.4759 16.5832 20.088 17.5014L23.4162 15.2826ZM23.1761 14.448C23.1761 13.9607 23.2973 13.789 23.3533 13.725L20.343 11.091C19.5029 12.051 19.1761 13.2393 19.1761 14.448H23.1761ZM23.3533 13.725C23.4002 13.6714 23.6477 13.4495 24.4363 13.2867L23.628 9.36927C22.4006 9.62253 21.192 10.1206 20.343 11.091L23.3533 13.725ZM24.466 13.2804C25.2721 13.1012 26.4451 12.992 28.0401 12.992V8.992C26.3072 8.992 24.8081 9.10677 23.5983 9.37563L24.466 13.2804ZM28.0401 12.992H28.9041V8.992H28.0401V12.992ZM30.9041 10.992V10.584H26.9041V10.992H30.9041ZM30.9041 10.584C30.9041 9.66208 30.7073 8.4601 29.7621 7.60941L27.0862 10.5826C27.0136 10.5172 26.9623 10.4506 26.9284 10.3953C26.8956 10.3416 26.883 10.305 26.8807 10.298C26.8786 10.2916 26.885 10.3095 26.8917 10.3593C26.8983 10.4089 26.9041 10.4825 26.9041 10.584H30.9041ZM29.8016 7.646C28.9168 6.80541 27.7235 6.64 26.7921 6.64V10.64C27.0547 10.64 27.1912 10.6672 27.2379 10.6802C27.2811 10.6923 27.1803 10.673 27.0466 10.546L29.8016 7.646ZM26.7921 6.64C26.1898 6.64 25.5725 6.71774 24.9487 6.8542L25.8035 10.7618C26.2037 10.6743 26.5304 10.64 26.7921 10.64V6.64ZM25.0076 6.84226C24.3391 6.9676 23.6577 7.17921 22.9687 7.45852L24.4715 11.1655C24.9666 10.9648 25.3892 10.8404 25.7447 10.7737L25.0076 6.84226ZM22.9323 7.47371C22.8685 7.50105 22.9034 7.47465 23.0171 7.46981C23.1475 7.46426 23.3335 7.49012 23.5236 7.59016L21.6606 11.1298C22.6945 11.674 23.7484 11.4758 24.508 11.1503L22.9323 7.47371ZM23.5942 7.62915C23.6456 7.6589 23.7202 7.71511 23.7902 7.80471C23.8603 7.89448 23.8979 7.98196 23.9152 8.04256L20.0691 9.14144C20.3083 9.97859 20.8402 10.6567 21.5901 11.0909L23.5942 7.62915ZM23.9217 8.06577C23.9304 8.09785 23.9372 8.14559 23.9335 8.20005C23.9299 8.25352 23.9179 8.28667 23.9152 8.29327L20.213 6.77873C19.9099 7.51972 19.8456 8.32249 20.0626 9.11823L23.9217 8.06577ZM23.8849 8.3636C23.8383 8.46603 23.7694 8.55175 23.7004 8.60982C23.6379 8.66243 23.6063 8.66665 23.6488 8.65148L22.3035 4.88452C21.4709 5.18184 20.6771 5.75433 20.2434 6.70839L23.8849 8.3636ZM23.6914 8.63571C24.3455 8.38523 24.9216 8.22536 25.4247 8.13947L24.7515 4.19653C23.9426 4.33463 23.1108 4.57477 22.2608 4.90029L23.6914 8.63571ZM25.4624 8.13268C26.037 8.02322 26.5257 7.976 26.9361 7.976V3.976C26.2266 3.976 25.4833 4.05678 24.7139 4.20332L25.4624 8.13268ZM26.9361 7.976C28.4985 7.976 29.2754 8.33688 29.6552 8.68959L32.377 5.75841C30.9649 4.44712 29.0218 3.976 26.9361 3.976V7.976ZM29.6695 8.70268C29.9972 9.00118 30.3601 9.62965 30.3601 11.04H34.3601C34.3601 8.99435 33.827 7.07882 32.3628 5.74531L29.6695 8.70268ZM30.3601 11.04V16.368H34.3601V11.04H30.3601ZM30.3601 16.368C30.3601 16.5309 30.3409 16.5971 30.3411 16.5965C30.3435 16.5886 30.371 16.5069 30.4603 16.4087C30.5533 16.3063 30.657 16.2483 30.7266 16.2227C30.7848 16.2014 30.782 16.216 30.6801 16.216V20.216C31.6001 20.216 32.6429 19.9542 33.42 19.0993C34.1643 18.2806 34.3601 17.2476 34.3601 16.368H30.3601ZM30.6801 16.216C30.5715 16.216 30.5621 16.2007 30.6146 16.2196C30.6783 16.2427 30.7796 16.2975 30.8725 16.3982C30.9622 16.4955 30.991 16.5779 30.9944 16.5889C30.9954 16.5922 30.9761 16.5287 30.9761 16.368H26.9761C26.9761 17.2539 27.1769 18.2911 27.9318 19.1098C28.7149 19.9591 29.7603 20.216 30.6801 20.216V16.216ZM30.9761 16.368V16.224H26.9761V16.368H30.9761ZM27.1094 15.506C27.0264 15.722 26.9002 15.883 26.6754 16.0266L28.8289 19.3974C29.7561 18.805 30.4459 17.974 30.8428 16.942L27.1094 15.506ZM26.6538 16.0406C26.4849 16.1515 26.1995 16.264 25.6881 16.264V20.264C26.8087 20.264 27.8993 20.0085 28.8505 19.3834L26.6538 16.0406ZM26.5041 17.84C27.6923 17.84 28.7733 17.4073 29.6223 16.5582L26.7939 13.7298C26.715 13.8087 26.66 13.84 26.5041 13.84V17.84ZM29.6223 16.5582C30.5085 15.6721 30.9041 14.54 30.9041 13.344H26.9041C26.9041 13.62 26.8358 13.6879 26.7939 13.7298L29.6223 16.5582ZM30.9041 13.344V12.864H26.9041V13.344H30.9041ZM28.9041 10.864H28.0641V14.864H28.9041V10.864ZM28.0641 10.864C26.8098 10.864 25.5702 10.9636 24.6465 11.3677L26.2498 15.0323C26.247 15.0335 26.2824 15.0182 26.3715 14.9965C26.4587 14.9754 26.5798 14.9524 26.7409 14.9317C27.0665 14.8899 27.5024 14.864 28.0641 14.864V10.864ZM24.6954 11.3471C24.1643 11.5628 23.6262 11.9209 23.2303 12.4899C22.8299 13.0654 22.6801 13.7061 22.6801 14.304H26.6801C26.6801 14.3739 26.6583 14.5666 26.5139 14.7741C26.3741 14.9751 26.22 15.0452 26.2009 15.0529L24.6954 11.3471ZM22.6801 14.304C22.6801 15.2584 23.0279 16.1657 23.7606 16.8599L26.5116 13.9561C26.5532 13.9955 26.6056 14.0629 26.6427 14.1525C26.6784 14.2391 26.6801 14.2987 26.6801 14.304H22.6801ZM23.7982 16.8946C24.6037 17.6196 25.6045 17.84 26.5041 17.84V13.84C26.4366 13.84 26.3888 13.8359 26.3579 13.8316C26.3272 13.8274 26.3161 13.8235 26.3204 13.8248C26.3252 13.8264 26.345 13.8331 26.3744 13.8495C26.4044 13.8662 26.4391 13.8899 26.4741 13.9214L23.7982 16.8946ZM38.6155 8.28H36.6155L40.4696 9.02996L38.6155 8.28ZM42.1915 5.976L42.3152 7.97217L42.3331 7.97106L42.351 7.96963L42.1915 5.976ZM43.1035 6.288L41.5921 7.59786L41.6389 7.65177L41.6893 7.70221L43.1035 6.288ZM43.4635 7.416L41.4644 7.47658L41.4655 7.5107L41.4677 7.54476L43.4635 7.416ZM43.1515 8.592L41.6151 7.31163L41.5935 7.33752L41.5728 7.36412L43.1515 8.592ZM41.9995 9.12L42.1728 11.1125L42.203 11.1098L42.2332 11.1063L41.9995 9.12ZM41.4475 9.168L41.2743 7.17552L41.2631 7.17649L41.252 7.17758L41.4475 9.168ZM36.9355 16.216C36.782 16.216 36.7284 16.1964 36.7417 16.2007C36.7503 16.2036 36.7767 16.2133 36.814 16.2353C36.852 16.2578 36.8947 16.2893 36.9366 16.3307C36.9785 16.3721 37.0115 16.4153 37.0358 16.4554C37.0597 16.4947 37.0712 16.5241 37.0754 16.5367C37.0826 16.5579 37.0635 16.5131 37.0635 16.368H33.0635C33.0635 17.2989 33.3015 18.3629 34.1264 19.1773C34.9467 19.987 36.0097 20.216 36.9355 20.216V16.216ZM37.0635 16.368V7.848H33.0635V16.368H37.0635ZM37.0635 7.848C37.0635 7.70017 37.0822 7.65081 37.0768 7.66742C37.0685 7.69309 37.0328 7.78035 36.9405 7.87523C36.847 7.97126 36.7534 8.01542 36.7103 8.03019C36.6774 8.04144 36.7089 8.024 36.8395 8.024V4.024C35.9255 4.024 34.8758 4.2619 34.0746 5.08477C33.283 5.89774 33.0635 6.94489 33.0635 7.848H37.0635ZM36.8395 8.024C36.9701 8.024 37.0016 8.04144 36.9687 8.03019C36.9256 8.01542 36.8321 7.97126 36.7386 7.87523C36.6462 7.78035 36.6105 7.69309 36.6022 7.66742C36.5968 7.65081 36.6155 7.70017 36.6155 7.848H40.6155C40.6155 6.94489 40.396 5.89774 39.6045 5.08477C38.8032 4.2619 37.7535 4.024 36.8395 4.024V8.024ZM36.6155 7.848V8.28H40.6155V7.848H36.6155ZM40.4696 9.02996C40.6164 8.66695 40.8048 8.45895 41.0247 8.31726C41.264 8.16313 41.66 8.01276 42.3152 7.97217L42.0679 3.97983C40.9151 4.05124 39.8111 4.34087 38.8583 4.95474C37.8862 5.58105 37.1906 6.46905 36.7614 7.53004L40.4696 9.02996ZM42.351 7.96963C42.3438 7.97021 42.2352 7.97813 42.0721 7.92233C41.8938 7.86133 41.7224 7.74821 41.5921 7.59786L44.6149 4.97814C43.882 4.13248 42.8807 3.91447 42.032 3.98237L42.351 7.96963ZM41.6893 7.70221C41.5269 7.53978 41.4698 7.38883 41.4562 7.34608C41.4442 7.30855 41.4603 7.34 41.4644 7.47658L45.4626 7.35542C45.4408 6.63669 45.2773 5.63335 44.5177 4.87379L41.6893 7.70221ZM41.4677 7.54476C41.4728 7.62378 41.462 7.62323 41.4764 7.56913C41.4929 7.50685 41.5336 7.40939 41.6151 7.31163L44.688 9.87237C45.3513 9.07638 45.5133 8.1234 45.4594 7.28724L41.4677 7.54476ZM41.5728 7.36412C41.6873 7.21696 41.8082 7.14663 41.8622 7.12187C41.9068 7.10143 41.8885 7.11927 41.7658 7.1337L42.2332 11.1063C43.0451 11.0108 44.044 10.7022 44.7302 9.81988L41.5728 7.36412ZM41.8263 7.12752L41.2743 7.17552L41.6208 11.1605L42.1728 11.1125L41.8263 7.12752ZM41.252 7.17758C40.0774 7.29294 38.8933 7.67803 38.0048 8.58236C37.0918 9.51167 36.7595 10.7137 36.7595 11.904H40.7595C40.7595 11.6702 40.7916 11.5342 40.8152 11.4667C40.836 11.4074 40.853 11.391 40.8582 11.3856C40.8657 11.378 41.0256 11.2191 41.643 11.1584L41.252 7.17758ZM36.7595 11.904V16.368H40.7595V11.904H36.7595ZM36.7595 16.368C36.7595 16.5175 36.7404 16.5677 36.7457 16.5515C36.749 16.5413 36.7593 16.5135 36.7821 16.475C36.8054 16.4358 36.8377 16.392 36.8801 16.3491C36.9225 16.3061 36.9668 16.2722 37.0081 16.2471C37.0487 16.2225 37.0795 16.2104 37.0936 16.2056C37.1178 16.1975 37.0765 16.216 36.9355 16.216V20.216C37.8585 20.216 38.9166 19.98 39.7269 19.1589C40.5326 18.3427 40.7595 17.2858 40.7595 16.368H36.7595ZM48.5781 11.088H46.5781V13.088H48.5781V11.088ZM48.6261 11.088V13.088H49.5164L50.1123 12.4264L48.6261 11.088ZM52.1061 7.224L53.5923 8.56244L53.6 8.55389L53.6076 8.54526L52.1061 7.224ZM53.0661 6.336L54.1755 8.0001L54.2067 7.97931L54.2371 7.95736L53.0661 6.336ZM55.4181 6.408L54.0474 7.8644L54.0708 7.88642L54.0949 7.90768L55.4181 6.408ZM55.3461 8.424L53.8663 7.07865L53.8611 7.08436L53.8559 7.09011L55.3461 8.424ZM52.2741 11.856L50.7839 10.5221L49.608 11.8359L50.764 13.1672L52.2741 11.856ZM55.7541 15.864L57.3222 14.6226L57.2941 14.587L57.2643 14.5528L55.7541 15.864ZM56.1381 16.992L54.1549 16.7333L54.1499 16.772L54.1463 16.8109L56.1381 16.992ZM55.6581 17.88L56.886 19.4587L56.9126 19.438L56.9385 19.4164L55.6581 17.88ZM53.2341 17.904L52.1048 19.5546L52.1243 19.568L52.1442 19.5809L53.2341 17.904ZM52.2501 16.944L53.8006 15.6807L53.77 15.6431L53.7376 15.607L52.2501 16.944ZM48.6261 12.912L50.1136 11.575L49.5176 10.912H48.6261V12.912ZM48.5781 12.912V10.912H46.5781V12.912H48.5781ZM46.7781 16.216C46.6371 16.216 46.5958 16.1975 46.6201 16.2056C46.6341 16.2104 46.665 16.2225 46.7055 16.2471C46.7468 16.2722 46.7912 16.3061 46.8336 16.3491C46.8759 16.392 46.9083 16.4358 46.9315 16.475C46.9543 16.5135 46.9646 16.5413 46.968 16.5515C46.9733 16.5677 46.9541 16.5175 46.9541 16.368H42.9541C42.9541 17.2858 43.1811 18.3427 43.9867 19.1589C44.7971 19.98 45.8552 20.216 46.7781 20.216V16.216ZM46.9541 16.368V2.712H42.9541V16.368H46.9541ZM46.9541 2.712C46.9541 2.56246 46.9733 2.51233 46.968 2.52855C46.9646 2.53869 46.9543 2.56649 46.9315 2.60499C46.9083 2.64421 46.8759 2.68805 46.8336 2.73094C46.7912 2.77387 46.7468 2.80779 46.7055 2.83288C46.665 2.85755 46.6341 2.8696 46.6201 2.87436C46.5958 2.88255 46.6371 2.864 46.7781 2.864V-1.136C45.8552 -1.136 44.7971 -0.899977 43.9867 -0.0789411C43.1811 0.737276 42.9541 1.79424 42.9541 2.712H46.9541ZM46.7781 2.864C46.9128 2.864 46.9479 2.88196 46.9181 2.87176C46.9012 2.86601 46.8683 2.85272 46.8261 2.82672C46.7832 2.8003 46.738 2.76518 46.6954 2.72148C46.605 2.62863 46.5708 2.54386 46.5634 2.52111C46.5589 2.50744 46.5781 2.56022 46.5781 2.712H50.5781C50.5781 1.80072 50.3566 0.74747 49.5608 -0.0694854C48.7556 -0.8962 47.7 -1.136 46.7781 -1.136V2.864ZM46.5781 2.712V11.088H50.5781V2.712H46.5781ZM48.5781 13.088H48.6261V9.088H48.5781V13.088ZM50.1123 12.4264L53.5923 8.56244L50.62 5.88556L47.14 9.74956L50.1123 12.4264ZM53.6076 8.54526C53.8992 8.21386 54.0884 8.05821 54.1755 8.0001L51.9567 4.6719C51.4679 4.99778 51.0171 5.43414 50.6047 5.90274L53.6076 8.54526ZM54.2371 7.95736C54.15 8.0203 54.0869 8.03725 54.0854 8.03764C54.0852 8.0377 54.099 8.03413 54.1297 8.03062C54.1605 8.02711 54.2053 8.024 54.2661 8.024V4.024C53.512 4.024 52.6446 4.1734 51.8952 4.71464L54.2371 7.95736ZM54.2661 8.024C54.3458 8.024 54.3456 8.03467 54.2937 8.01737C54.2339 7.99743 54.1398 7.95139 54.0474 7.8644L56.7889 4.9516C56.0376 4.24449 55.1003 4.024 54.2661 4.024V8.024ZM54.0949 7.90768C54.0264 7.84724 53.9471 7.75057 53.8907 7.62117C53.8356 7.49465 53.8261 7.39176 53.8261 7.344H57.8261C57.8261 6.42428 57.4714 5.55249 56.7414 4.90832L54.0949 7.90768ZM53.8261 7.344C53.8261 7.22879 53.853 7.13513 53.8785 7.07772C53.9011 7.02697 53.9114 7.02894 53.8663 7.07865L56.826 9.76935C57.3798 9.16014 57.8261 8.34148 57.8261 7.344H53.8261ZM53.8559 7.09011L50.7839 10.5221L53.7643 13.1899L56.8363 9.75789L53.8559 7.09011ZM50.764 13.1672L54.2439 17.1752L57.2643 14.5528L53.7843 10.5448L50.764 13.1672ZM54.186 17.1054C54.2282 17.1586 54.2093 17.1503 54.1848 17.0785C54.1571 16.9972 54.1365 16.8744 54.1549 16.7333L58.1213 17.2507C58.2595 16.1918 57.8498 15.2891 57.3222 14.6226L54.186 17.1054ZM54.1463 16.8109C54.1536 16.731 54.1795 16.6292 54.2347 16.527C54.2888 16.427 54.3486 16.3679 54.3778 16.3436L56.9385 19.4164C57.6066 18.8597 58.0468 18.0879 58.1299 17.1731L54.1463 16.8109ZM54.4303 16.3013C54.4895 16.2552 54.5468 16.2299 54.5838 16.2187C54.6167 16.2087 54.6125 16.216 54.5541 16.216V20.216C55.3429 20.216 56.1729 20.0134 56.886 19.4587L54.4303 16.3013ZM54.5541 16.216C54.3939 16.216 54.3027 16.2007 54.2642 16.1916C54.2278 16.183 54.2593 16.185 54.3241 16.2271L52.1442 19.5809C52.9069 20.0767 53.7779 20.216 54.5541 20.216V16.216ZM54.3635 16.2534C54.2766 16.1939 54.0868 16.0319 53.8006 15.6807L50.6997 18.2073C51.1175 18.7201 51.5837 19.1981 52.1048 19.5546L54.3635 16.2534ZM53.7376 15.607L50.1136 11.575L47.1387 14.249L50.7627 18.281L53.7376 15.607ZM48.6261 10.912H48.5781V14.912H48.6261V10.912ZM46.5781 12.912V16.368H50.5781V12.912H46.5781ZM46.5781 16.368C46.5781 16.5198 46.5589 16.5726 46.5634 16.5589C46.5708 16.5361 46.605 16.4514 46.6954 16.3585C46.738 16.3148 46.7832 16.2797 46.8261 16.2533C46.8683 16.2273 46.9012 16.214 46.9181 16.2082C46.9479 16.198 46.9128 16.216 46.7781 16.216V20.216C47.7 20.216 48.7556 19.9762 49.5608 19.1495C50.3566 18.3325 50.5781 17.2793 50.5781 16.368H46.5781ZM60.6694 17.52L59.7522 19.2972L59.7692 19.306L59.7864 19.3145L60.6694 17.52ZM58.3654 15.384L56.6271 16.373L56.6373 16.3909L56.6478 16.4086L58.3654 15.384ZM58.3414 8.928L56.6031 7.93893L56.5975 7.94893L58.3414 8.928ZM60.4774 6.768L61.4697 8.50451L61.4795 8.49885L60.4774 6.768ZM67.7014 7.608L66.2343 8.96725L66.2393 8.97267L66.2444 8.97805L67.7014 7.608ZM61.0294 12.888V10.888H58.7346L59.0482 13.1613L61.0294 12.888ZM62.0374 14.928L60.7937 16.4942L60.8189 16.5143L60.8448 16.5335L62.0374 14.928ZM65.6374 15.432L65.9662 17.4048L65.9919 17.4005L66.0175 17.3956L65.6374 15.432ZM67.0534 14.952L66.184 13.1509L66.1714 13.1569L66.159 13.1631L67.0534 14.952ZM68.2294 14.832L67.4087 16.6558L67.4473 16.6732L67.4867 16.689L68.2294 14.832ZM68.8774 15.504L66.9897 16.1647L67.0042 16.2061L67.0205 16.2468L68.8774 15.504ZM68.8774 16.512L66.9979 15.8285L66.9886 15.8539L66.9801 15.8795L68.8774 16.512ZM68.0854 17.352L67.1372 15.591L67.1313 15.5943L68.0854 17.352ZM66.2134 18.024L65.8037 16.0664L65.7769 16.072L65.7502 16.0784L66.2134 18.024ZM61.8934 9.072L60.5034 7.63402L60.4912 7.6458L60.4792 7.65779L61.8934 9.072ZM61.0294 11.016L59.0473 10.7492L58.7422 13.016H61.0294V11.016ZM66.2134 11.016V13.016H68.3255L68.2105 10.9071L66.2134 11.016ZM64.2694 16.264C63.112 16.264 62.228 16.0579 61.5525 15.7255L59.7864 19.3145C61.1269 19.9741 62.6429 20.264 64.2694 20.264V16.264ZM61.5867 15.7428C60.9087 15.3928 60.4258 14.934 60.0831 14.3594L56.6478 16.4086C57.3931 17.658 58.4461 18.6232 59.7522 19.2972L61.5867 15.7428ZM60.1038 14.395C59.7743 13.8158 59.5734 13.0802 59.5734 12.12H55.5734C55.5734 13.6558 55.9006 15.0962 56.6271 16.373L60.1038 14.395ZM59.5734 12.12C59.5734 11.1907 59.7668 10.4746 60.0854 9.90707L56.5975 7.94893C55.8921 9.20542 55.5734 10.6173 55.5734 12.12H59.5734ZM60.0798 9.91705C60.437 9.28925 60.896 8.83235 61.4697 8.50449L59.4852 5.03151C58.2669 5.72765 57.3019 6.71075 56.6031 7.93895L60.0798 9.91705ZM61.4795 8.49885C62.0507 8.16814 62.7449 7.976 63.6214 7.976V3.976C62.13 3.976 60.7281 4.31185 59.4754 5.03715L61.4795 8.49885ZM63.6214 7.976C64.8708 7.976 65.6644 8.35213 66.2343 8.96725L69.1686 6.24875C67.7225 4.68787 65.7961 3.976 63.6214 3.976V7.976ZM66.2444 8.97805C66.8219 9.59217 67.2134 10.5117 67.2134 11.976H71.2134C71.2134 9.76027 70.597 7.76783 69.1585 6.23795L66.2444 8.97805ZM67.2134 11.976C67.2134 11.9255 67.221 11.7896 67.2939 11.6127C67.3719 11.4235 67.5021 11.2437 67.674 11.1047C67.9922 10.8475 68.244 10.888 68.0854 10.888V14.888C68.6789 14.888 69.4947 14.7765 70.1889 14.2153C70.9644 13.5883 71.2134 12.7141 71.2134 11.976H67.2134ZM68.0854 10.888H61.0294V14.888H68.0854V10.888ZM59.0482 13.1613C59.2215 14.4175 59.7229 15.6439 60.7937 16.4942L63.2812 13.3618C63.264 13.3481 63.0934 13.2145 63.0107 12.6147L59.0482 13.1613ZM60.8448 16.5335C61.8632 17.29 63.103 17.552 64.3414 17.552V13.552C63.6279 13.552 63.3316 13.398 63.2301 13.3225L60.8448 16.5335ZM64.3414 17.552C64.8602 17.552 65.4048 17.4984 65.9662 17.4048L65.3086 13.4592C64.91 13.5256 64.5907 13.552 64.3414 13.552V17.552ZM66.0175 17.3956C66.6905 17.2653 67.3357 17.0469 67.9479 16.7409L66.159 13.1631C65.8752 13.3051 65.5764 13.4067 65.2574 13.4684L66.0175 17.3956ZM67.9229 16.7531C68.0064 16.7128 67.9928 16.734 67.8985 16.7437C67.7885 16.7549 67.6074 16.7453 67.4087 16.6558L69.0502 13.0082C67.977 12.5252 66.9247 12.7933 66.184 13.1509L67.9229 16.7531ZM67.4867 16.689C67.4123 16.6592 67.3005 16.597 67.1918 16.4843C67.0824 16.3708 67.0203 16.252 66.9897 16.1647L70.7652 14.8433C70.4587 13.9676 69.8186 13.3136 68.9722 12.975L67.4867 16.689ZM67.0205 16.2468C66.9925 16.1768 66.9734 16.089 66.9734 15.996C66.9734 15.9057 66.9913 15.8466 66.9979 15.8285L70.757 17.1955C71.0372 16.4249 71.0615 15.5789 70.7344 14.7612L67.0205 16.2468ZM66.9801 15.8795C67.0237 15.7486 67.0904 15.6549 67.1403 15.602C67.1844 15.5552 67.1979 15.5584 67.1372 15.5911L69.0336 19.1129C69.7449 18.73 70.454 18.107 70.7748 17.1445L66.9801 15.8795ZM67.1313 15.5943C66.7587 15.7966 66.3209 15.9582 65.8037 16.0664L66.6232 19.9816C67.482 19.8018 68.2922 19.5154 69.0396 19.1097L67.1313 15.5943ZM65.7502 16.0784C65.214 16.2061 64.7218 16.264 64.2694 16.264V20.264C65.0651 20.264 65.8689 20.1619 66.6767 19.9696L65.7502 16.0784ZM63.7654 6.376C62.5629 6.376 61.4128 6.75499 60.5034 7.63402L63.2835 10.51C63.3341 10.461 63.432 10.376 63.7654 10.376V6.376ZM60.4792 7.65779C59.628 8.50899 59.2013 9.60529 59.0473 10.7492L63.0116 11.2828C63.0816 10.7627 63.2309 10.563 63.3077 10.4862L60.4792 7.65779ZM61.0294 13.016H66.2134V9.016H61.0294V13.016ZM68.2105 10.9071C68.1486 9.773 67.8408 8.58716 66.996 7.67612C66.1101 6.72081 64.9248 6.376 63.7654 6.376V10.376C63.9618 10.376 64.0555 10.4044 64.0816 10.4142C64.0978 10.4202 64.0806 10.4149 64.0629 10.3959C64.0341 10.3648 64.1823 10.499 64.2164 11.1249L68.2105 10.9071ZM72.067 8.928H74.067V6.928H72.067V8.928ZM72.067 6.216V8.216H74.067V6.216H72.067ZM75.691 6.216H73.691V8.216H75.691V6.216ZM75.691 8.928V6.928H73.691V8.928H75.691ZM76.147 14.808L74.6639 16.1498L74.6811 16.1688L74.6987 16.1873L76.147 14.808ZM78.331 15.24L78.7807 17.1888L78.331 15.24ZM78.907 15.144L78.7645 13.1491L78.7452 13.1505L78.7259 13.1522L78.907 15.144ZM79.459 15.36L77.9724 16.6979V16.6979L79.459 15.36ZM79.483 17.376L81.2926 18.2276L81.3018 18.208L81.3106 18.1883L79.483 17.376ZM78.811 17.976L79.529 19.8427L79.5414 19.8379L79.5538 19.833L78.811 17.976ZM77.947 18.168L77.6883 16.1848L77.6386 16.1913L77.5892 16.2003L77.947 18.168ZM77.035 16.264C75.6728 16.264 75.0212 15.9328 74.7023 15.6231C74.3943 15.3241 74.067 14.7245 74.067 13.44H70.067C70.067 15.3715 70.5677 17.1839 71.9157 18.4929C73.2529 19.7912 75.0852 20.264 77.035 20.264V16.264ZM74.067 13.44V8.928H70.067V13.44H74.067ZM72.067 6.928H71.059V10.928H72.067V6.928ZM71.059 6.928C70.87 6.928 71.0998 6.8813 71.3739 7.14139C71.6674 7.42003 71.643 7.6963 71.643 7.584H67.643C67.643 8.3677 67.8546 9.31597 68.6202 10.0426C69.3662 10.7507 70.304 10.928 71.059 10.928V6.928ZM71.643 7.584C71.643 7.45416 71.6728 7.71991 71.3866 7.99638C71.1133 8.26046 70.8784 8.216 71.059 8.216V4.216C70.2957 4.216 69.3527 4.39954 68.6074 5.11962C67.8492 5.85209 67.643 6.80184 67.643 7.584H71.643ZM71.059 8.216H72.067V4.216H71.059V8.216ZM74.067 6.216V4.392H70.067V6.216H74.067ZM74.067 4.392C74.067 4.24246 74.0862 4.19233 74.0808 4.20855C74.0775 4.21869 74.0672 4.24649 74.0444 4.28499C74.0212 4.32421 73.9888 4.36805 73.9464 4.41094C73.9041 4.45387 73.8597 4.48779 73.8184 4.51288C73.7778 4.53755 73.747 4.5496 73.7329 4.55436C73.7087 4.56255 73.75 4.544 73.891 4.544V0.543999C72.9681 0.543999 71.91 0.780023 71.0996 1.60106C70.294 2.41728 70.067 3.47424 70.067 4.392H74.067ZM73.891 4.544C74.0257 4.544 74.0607 4.56196 74.0309 4.55176C74.0141 4.54601 73.9811 4.53272 73.9389 4.50672C73.896 4.4803 73.8509 4.44518 73.8083 4.40148C73.7179 4.30863 73.6836 4.22386 73.6763 4.20111C73.6718 4.18744 73.691 4.24022 73.691 4.392H77.691C77.691 3.48072 77.4694 2.42747 76.6737 1.61051C75.8685 0.7838 74.8129 0.543999 73.891 0.543999V4.544ZM73.691 4.392V6.216H77.691V4.392H73.691ZM75.691 8.216H77.971V4.216H75.691V8.216ZM77.971 8.216C78.1354 8.216 77.8896 8.25616 77.6131 7.98446C77.3303 7.70644 77.363 7.44518 77.363 7.584H81.363C81.363 6.81082 81.1638 5.86556 80.4169 5.13154C79.6764 4.40384 78.7346 4.216 77.971 4.216V8.216ZM77.363 7.584C77.363 7.70552 77.3354 7.43361 77.6258 7.1532C77.9032 6.88539 78.144 6.928 77.971 6.928V10.928C78.7261 10.928 79.6628 10.7466 80.4042 10.0308C81.1586 9.30239 81.363 8.35848 81.363 7.584H77.363ZM77.971 6.928H75.691V10.928H77.971V6.928ZM73.691 8.928V13.296H77.691V8.928H73.691ZM73.691 13.296C73.691 14.2296 73.8979 15.3031 74.6639 16.1498L77.6301 13.4662C77.7065 13.5507 77.7241 13.6146 77.7198 13.6005C77.7134 13.5792 77.691 13.4876 77.691 13.296H73.691ZM74.6987 16.1873C75.5463 17.0772 76.688 17.312 77.659 17.312V13.312C77.5675 13.312 77.5012 13.3064 77.4566 13.3001C77.4122 13.2938 77.3945 13.2876 77.3975 13.2886C77.4011 13.2899 77.4266 13.2988 77.4651 13.3223C77.5045 13.3465 77.5504 13.3815 77.5953 13.4287L74.6987 16.1873ZM77.659 17.312C78.032 17.312 78.4083 17.2747 78.7807 17.1888L77.8813 13.2912C77.8377 13.3013 77.7661 13.312 77.659 13.312V17.312ZM78.7807 17.1888C78.9178 17.1572 79.0188 17.1421 79.0881 17.1358L78.7259 13.1522C78.4432 13.1779 78.1603 13.2268 77.8813 13.2912L78.7807 17.1888ZM79.0495 17.1389C78.9055 17.1492 78.7048 17.1348 78.4842 17.0485C78.2609 16.9611 78.0898 16.8283 77.9724 16.6979L80.9456 14.0221C80.3686 13.381 79.5728 13.0913 78.7645 13.1491L79.0495 17.1389ZM77.9724 16.6979C77.838 16.5486 77.7635 16.4088 77.7247 16.321C77.6857 16.233 77.6712 16.1717 77.6675 16.1548C77.6618 16.1285 77.675 16.1788 77.675 16.344H81.675C81.675 16.0132 81.6523 15.6515 81.5745 15.2972C81.5021 14.9673 81.3442 14.465 80.9456 14.0221L77.9724 16.6979ZM77.675 16.344C77.675 16.5368 77.6435 16.5904 77.6554 16.5637L81.3106 18.1883C81.5785 17.5856 81.675 16.9512 81.675 16.344H77.675ZM77.6734 16.5244C77.7238 16.4173 77.7981 16.3175 77.887 16.2381C77.9722 16.162 78.0435 16.1289 78.0682 16.119L79.5538 19.833C80.2699 19.5465 80.9174 19.025 81.2926 18.2276L77.6734 16.5244ZM78.093 16.1093C78.1056 16.1045 78.0814 16.1147 78.0051 16.1316C77.9315 16.148 77.8277 16.1666 77.6883 16.1848L78.2057 20.1512C78.6417 20.0943 79.1077 20.0047 79.529 19.8427L78.093 16.1093ZM77.5892 16.2003C77.3126 16.2506 77.1343 16.264 77.035 16.264V20.264C77.4477 20.264 77.8774 20.2134 78.3048 20.1357L77.5892 16.2003ZM84.5301 7.92H82.5301V15.4956L86.2695 8.90721L84.5301 7.92ZM86.0181 6.504L86.9638 8.26632L86.0181 6.504ZM90.9141 6.72L89.8291 8.40008L89.8369 8.40515L89.8448 8.41016L90.9141 6.72ZM92.7381 8.832L94.5456 7.97583L92.7381 8.832ZM92.7381 15.384L94.5456 16.2402L94.5513 16.2281L92.7381 15.384ZM90.9141 17.52L91.9992 19.2001L92.0077 19.1945L90.9141 17.52ZM86.0661 17.76L85.1365 19.5308L85.1454 19.5355L85.1544 19.5401L86.0661 17.76ZM84.5781 16.416L86.2714 15.3517L82.5781 9.476V16.416H84.5781ZM89.0181 14.712L87.4996 13.4104L89.0181 14.712ZM89.0181 9.528L87.4996 10.8296L87.509 10.8405L87.5185 10.8512L89.0181 9.528ZM85.2501 9.528L86.7498 10.8512L86.7593 10.8405L86.7686 10.8296L85.2501 9.528ZM85.2501 14.712L86.7686 13.4104L85.2501 14.712ZM82.7781 20.536C82.6371 20.536 82.5958 20.5175 82.6201 20.5256C82.6341 20.5304 82.6649 20.5425 82.7055 20.5671C82.7468 20.5922 82.7912 20.6261 82.8336 20.6691C82.8759 20.712 82.9083 20.7558 82.9315 20.795C82.9543 20.8335 82.9646 20.8613 82.968 20.8715C82.9733 20.8877 82.9541 20.8375 82.9541 20.688H78.9541C78.9541 21.6058 79.1811 22.6627 79.9867 23.4789C80.7971 24.3 81.8552 24.536 82.7781 24.536V20.536ZM82.9541 20.688V7.848H78.9541V20.688H82.9541ZM82.9541 7.848C82.9541 7.70017 82.9728 7.65081 82.9674 7.66742C82.9591 7.69309 82.9235 7.78035 82.8311 7.87523C82.7376 7.97126 82.644 8.01542 82.6009 8.03019C82.568 8.04144 82.5995 8.024 82.7301 8.024V4.024C81.8161 4.024 80.7664 4.2619 79.9652 5.08477C79.1736 5.89774 78.9541 6.94489 78.9541 7.848H82.9541ZM82.7301 8.024C82.8671 8.024 82.9049 8.04204 82.8776 8.03282C82.8403 8.02024 82.7495 7.97901 82.6566 7.88482C82.5642 7.79119 82.5272 7.70351 82.5178 7.67495C82.5115 7.65577 82.5301 7.70243 82.5301 7.848H86.5301C86.5301 6.93832 86.3052 5.88741 85.5037 5.07518C84.6973 4.25807 83.6452 4.024 82.7301 4.024V8.024ZM82.5301 7.848V7.92H86.5301V7.848H82.5301ZM86.2695 8.90721C86.402 8.67374 86.6079 8.4573 86.9638 8.26632L85.0725 4.74168C84.1164 5.2547 83.3303 5.98226 82.7908 6.93279L86.2695 8.90721ZM86.9638 8.26632C87.3017 8.08498 87.7077 7.976 88.2261 7.976V3.976C87.1125 3.976 86.0465 4.21902 85.0725 4.74168L86.9638 8.26632ZM88.2261 7.976C88.9129 7.976 89.4223 8.13738 89.8291 8.40008L91.9992 5.03992C90.8699 4.31062 89.5873 3.976 88.2261 3.976V7.976ZM89.8448 8.41016C90.2808 8.68596 90.646 9.08724 90.9307 9.68817L94.5456 7.97583C93.9663 6.75276 93.1155 5.74604 91.9834 5.02984L89.8448 8.41016ZM90.9307 9.68817C91.2081 10.2738 91.3861 11.0554 91.3861 12.096H95.3861C95.3861 10.6086 95.1322 9.21421 94.5456 7.97583L90.9307 9.68817ZM91.3861 12.096C91.3861 13.1352 91.2085 13.9309 90.925 14.5399L94.5513 16.2281C95.1318 14.9811 95.3861 13.5848 95.3861 12.096H91.3861ZM90.9307 14.5278C90.6438 15.1333 90.2716 15.5509 89.8206 15.8455L92.0077 19.1945C93.1246 18.4651 93.9684 17.4587 94.5456 16.2402L90.9307 14.5278ZM89.8291 15.8399C89.4223 16.1026 88.9129 16.264 88.2261 16.264V20.264C89.5873 20.264 90.8699 19.9294 91.9992 19.2001L89.8291 15.8399ZM88.2261 16.264C87.7384 16.264 87.3338 16.1622 86.9779 15.9799L85.1544 19.5401C86.1105 20.0298 87.1458 20.264 88.2261 20.264V16.264ZM86.9958 15.9892C86.6383 15.8015 86.4185 15.5856 86.2714 15.3517L82.8849 17.4803C83.4418 18.3664 84.2139 19.0465 85.1365 19.5308L86.9958 15.9892ZM82.5781 16.416V20.688H86.5781V16.416H82.5781ZM82.5781 20.688C82.5781 20.8398 82.5589 20.8926 82.5634 20.8789C82.5708 20.8561 82.605 20.7714 82.6954 20.6785C82.738 20.6348 82.7832 20.5997 82.8261 20.5733C82.8683 20.5473 82.9012 20.534 82.9181 20.5282C82.9479 20.518 82.9128 20.536 82.7781 20.536V24.536C83.7 24.536 84.7556 24.2962 85.5608 23.4695C86.3566 22.6525 86.5781 21.5993 86.5781 20.688H82.5781ZM87.1461 17.552C88.4704 17.552 89.6591 17.0374 90.5366 16.0136L87.4996 13.4104C87.4362 13.4844 87.3938 13.5072 87.3714 13.5173C87.3468 13.5283 87.2827 13.552 87.1461 13.552V17.552ZM90.5366 16.0136C91.4674 14.9277 91.7381 13.4857 91.7381 12.096H87.7381C87.7381 13.0743 87.5288 13.3763 87.4996 13.4104L90.5366 16.0136ZM91.7381 12.096C91.7381 10.7209 91.4669 9.28038 90.5178 8.20476L87.5185 10.8512C87.5294 10.8636 87.7381 11.1351 87.7381 12.096H91.7381ZM90.5366 8.22642C89.6591 7.20261 88.4704 6.688 87.1461 6.688V10.688C87.2827 10.688 87.3468 10.7117 87.3714 10.7227C87.3938 10.7328 87.4362 10.7555 87.4996 10.8296L90.5366 8.22642ZM87.1461 6.688C85.8201 6.688 84.618 7.19232 83.7316 8.22642L86.7686 10.8296C86.8423 10.7437 86.9042 10.688 87.1461 10.688V6.688ZM83.7505 8.20476C82.8014 9.28038 82.5301 10.7209 82.5301 12.096H86.5301C86.5301 11.1351 86.7389 10.8636 86.7498 10.8512L83.7505 8.20476ZM82.5301 12.096C82.5301 13.4857 82.8008 14.9277 83.7316 16.0136L86.7686 13.4104C86.7394 13.3763 86.5301 13.0743 86.5301 12.096H82.5301ZM83.7316 16.0136C84.618 17.0477 85.8201 17.552 87.1461 17.552V13.552C86.9042 13.552 86.8423 13.4963 86.7686 13.4104L83.7316 16.0136ZM99.6346 14.856L98.1107 16.1513L98.1456 16.1924L98.1827 16.2315L99.6346 14.856ZM101.123 15.288L100.875 13.3034L100.857 13.3056L100.84 13.3081L101.123 15.288ZM101.483 15.264V17.264H101.545L101.607 17.2601L101.483 15.264ZM102.011 15.504L100.255 16.4617L100.287 16.5209L100.323 16.5778L102.011 15.504ZM101.003 18.168L101.202 20.1581L101.263 20.1519L101.325 20.1419L101.003 18.168ZM100.451 18.216L100.297 16.2219L100.221 16.2277L100.146 16.2393L100.451 18.216ZM99.8506 16.264C98.8015 16.264 98.3649 15.9819 98.1523 15.7453C97.9031 15.468 97.6026 14.8534 97.6026 13.536H93.6026C93.6026 15.3706 94.01 17.12 95.1769 18.4187C96.3803 19.7581 98.0677 20.264 99.8506 20.264V16.264ZM97.6026 13.536V2.712H93.6026V13.536H97.6026ZM97.6026 2.712C97.6026 2.56246 97.6217 2.51233 97.6164 2.52855C97.6131 2.53869 97.6027 2.56649 97.5799 2.60499C97.5567 2.64421 97.5243 2.68805 97.482 2.73094C97.4396 2.77387 97.3952 2.80779 97.354 2.83288C97.3134 2.85755 97.2826 2.8696 97.2685 2.87436C97.2443 2.88255 97.2855 2.864 97.4266 2.864V-1.136C96.5036 -1.136 95.4455 -0.899977 94.6351 -0.0789411C93.8295 0.737276 93.6026 1.79424 93.6026 2.712H97.6026ZM97.4266 2.864C97.5613 2.864 97.5963 2.88196 97.5665 2.87176C97.5497 2.86601 97.5167 2.85272 97.4745 2.82672C97.4316 2.8003 97.3864 2.76518 97.3439 2.72148C97.2534 2.62863 97.2192 2.54386 97.2118 2.52111C97.2074 2.50744 97.2266 2.56022 97.2266 2.712H101.227C101.227 1.80072 101.005 0.74747 100.209 -0.0694854C99.404 -0.8962 98.3484 -1.136 97.4266 -1.136V2.864ZM97.2266 2.712V13.392H101.227V2.712H97.2266ZM97.2266 13.392C97.2266 14.2692 97.3996 15.3148 98.1107 16.1513L101.158 13.5607C101.245 13.6621 101.261 13.7347 101.255 13.7131C101.248 13.6865 101.227 13.5889 101.227 13.392H97.2266ZM98.1827 16.2315C98.8912 16.9794 99.815 17.312 100.763 17.312V13.312C100.751 13.312 100.8 13.3106 100.882 13.3438C100.969 13.3787 101.04 13.4314 101.086 13.4805L98.1827 16.2315ZM100.763 17.312C100.973 17.312 101.188 17.2989 101.405 17.2679L100.84 13.3081C100.833 13.3091 100.808 13.312 100.763 13.312V17.312ZM101.371 17.2726C101.428 17.2653 101.465 17.264 101.483 17.264V13.264C101.276 13.264 101.073 13.2787 100.875 13.3034L101.371 17.2726ZM101.607 17.2601C101.511 17.2661 101.271 17.2654 100.979 17.1327C100.657 16.9863 100.406 16.7393 100.255 16.4617L103.766 14.5463C103.519 14.0927 103.132 13.7177 102.634 13.4913C102.166 13.2786 101.71 13.2459 101.358 13.2679L101.607 17.2601ZM100.323 16.5778C100.275 16.5024 100.242 16.4362 100.22 16.3863C100.198 16.3361 100.184 16.2956 100.176 16.2687C100.16 16.2175 100.157 16.1946 100.16 16.2134C100.163 16.23 100.168 16.2686 100.172 16.3342C100.176 16.3988 100.179 16.4814 100.179 16.584H104.179C104.179 16.254 104.162 15.9167 104.113 15.5986C104.069 15.3195 103.974 14.8638 103.698 14.4302L100.323 16.5778ZM100.179 16.584C100.179 16.7902 100.133 16.6807 100.279 16.4838C100.354 16.3828 100.448 16.303 100.543 16.2504C100.631 16.2011 100.688 16.1929 100.68 16.1941L101.325 20.1419C102.117 20.0126 102.922 19.6337 103.49 18.8682C104.029 18.1433 104.179 17.3058 104.179 16.584H100.179ZM100.804 16.1779C100.662 16.192 100.494 16.2067 100.297 16.2219L100.604 20.2101C100.823 20.1933 101.023 20.176 101.202 20.1581L100.804 16.1779ZM100.146 16.2393C100.03 16.2572 99.9316 16.264 99.8506 16.264V20.264C100.154 20.264 100.456 20.2388 100.755 20.1927L100.146 16.2393ZM105.251 17.76L104.356 19.5489L105.251 17.76ZM103.643 16.392L101.979 17.5014L101.989 17.5172L102 17.5328L103.643 16.392ZM103.739 12.408L102.234 11.091V11.091L103.739 12.408ZM105.923 11.328L106.327 13.2867L106.342 13.2837L106.357 13.2804L105.923 11.328ZM110.795 10.992V12.992H112.795V10.992H110.795ZM110.315 9.096L108.937 10.546L108.957 10.5646L108.977 10.5826L110.315 9.096ZM107.267 8.808L107.635 10.7737L107.665 10.7682L107.694 10.7618L107.267 8.808ZM105.611 9.312L104.859 7.45852L104.841 7.46594L104.823 7.47371L105.611 9.312ZM104.483 9.36L103.481 11.0909L103.516 11.1111L103.551 11.1298L104.483 9.36ZM103.883 8.592L101.953 9.11823L101.956 9.12986L101.96 9.14144L103.883 8.592ZM103.955 7.536L102.134 6.70839L102.118 6.74327L102.104 6.77873L103.955 7.536ZM104.867 6.768L105.539 8.65148L105.561 8.64384L105.582 8.63571L104.867 6.768ZM106.979 6.168L107.315 8.13947L107.334 8.13625L107.353 8.13268L106.979 6.168ZM112.907 7.224L111.546 8.68959L111.553 8.69617L111.56 8.70268L112.907 7.224ZM110.867 16.224H112.867L109 15.506L110.867 16.224ZM109.643 17.712L108.566 16.0266L108.555 16.0335L108.544 16.0406L109.643 17.712ZM110.099 15.144L111.513 16.5582V16.5582L110.099 15.144ZM110.795 12.864H112.795V10.864H110.795V12.864ZM107.339 13.2L108.092 15.0529L108.116 15.0429L108.14 15.0323L107.339 13.2ZM107.027 15.408L105.651 16.8599L105.67 16.8775L105.689 16.8946L107.027 15.408ZM107.579 16.264C106.956 16.264 106.496 16.1464 106.145 15.9711L104.356 19.5489C105.35 20.0456 106.441 20.264 107.579 20.264V16.264ZM106.145 15.9711C105.751 15.774 105.481 15.5323 105.285 15.2512L102 17.5328C102.605 18.4037 103.407 19.074 104.356 19.5489L106.145 15.9711ZM105.307 15.2826C105.151 15.0488 105.067 14.7899 105.067 14.448H101.067C101.067 15.5461 101.367 16.5832 101.979 17.5014L105.307 15.2826ZM105.067 14.448C105.067 13.9607 105.188 13.789 105.244 13.725L102.234 11.091C101.394 12.051 101.067 13.2393 101.067 14.448H105.067ZM105.244 13.725C105.291 13.6714 105.538 13.4495 106.327 13.2867L105.519 9.36927C104.291 9.62253 103.083 10.1206 102.234 11.091L105.244 13.725ZM106.357 13.2804C107.163 13.1012 108.336 12.992 109.931 12.992V8.992C108.198 8.992 106.699 9.10677 105.489 9.37563L106.357 13.2804ZM109.931 12.992H110.795V8.992H109.931V12.992ZM112.795 10.992V10.584H108.795V10.992H112.795ZM112.795 10.584C112.795 9.66208 112.598 8.4601 111.653 7.60941L108.977 10.5826C108.904 10.5172 108.853 10.4506 108.819 10.3953C108.786 10.3416 108.774 10.305 108.771 10.298C108.769 10.2916 108.776 10.3095 108.782 10.3593C108.789 10.4089 108.795 10.4825 108.795 10.584H112.795ZM111.692 7.646C110.807 6.80541 109.614 6.64 108.683 6.64V10.64C108.945 10.64 109.082 10.6672 109.129 10.6802C109.172 10.6923 109.071 10.673 108.937 10.546L111.692 7.646ZM108.683 6.64C108.08 6.64 107.463 6.71774 106.839 6.8542L107.694 10.7618C108.094 10.6743 108.421 10.64 108.683 10.64V6.64ZM106.898 6.84226C106.23 6.9676 105.548 7.17921 104.859 7.45852L106.362 11.1655C106.857 10.9648 107.28 10.8404 107.635 10.7737L106.898 6.84226ZM104.823 7.47371C104.759 7.50105 104.794 7.47465 104.908 7.46981C105.038 7.46426 105.224 7.49012 105.414 7.59016L103.551 11.1298C104.585 11.674 105.639 11.4758 106.399 11.1503L104.823 7.47371ZM105.485 7.62915C105.536 7.6589 105.611 7.71511 105.681 7.80471C105.751 7.89448 105.788 7.98196 105.806 8.04256L101.96 9.14144C102.199 9.97859 102.731 10.6567 103.481 11.0909L105.485 7.62915ZM105.812 8.06577C105.821 8.09785 105.828 8.14559 105.824 8.20005C105.82 8.25352 105.809 8.28667 105.806 8.29327L102.104 6.77873C101.801 7.51972 101.736 8.32249 101.953 9.11823L105.812 8.06577ZM105.775 8.3636C105.729 8.46603 105.66 8.55175 105.591 8.60982C105.529 8.66243 105.497 8.66665 105.539 8.65148L104.194 4.88452C103.362 5.18184 102.568 5.75433 102.134 6.70839L105.775 8.3636ZM105.582 8.63571C106.236 8.38523 106.812 8.22536 107.315 8.13947L106.642 4.19653C105.833 4.33463 105.001 4.57477 104.151 4.90029L105.582 8.63571ZM107.353 8.13268C107.928 8.02322 108.416 7.976 108.827 7.976V3.976C108.117 3.976 107.374 4.05678 106.605 4.20332L107.353 8.13268ZM108.827 7.976C110.389 7.976 111.166 8.33688 111.546 8.68959L114.268 5.75841C112.855 4.44712 110.912 3.976 108.827 3.976V7.976ZM111.56 8.70268C111.888 9.00118 112.251 9.62965 112.251 11.04H116.251C116.251 8.99435 115.718 7.07882 114.253 5.74531L111.56 8.70268ZM112.251 11.04V16.368H116.251V11.04H112.251ZM112.251 16.368C112.251 16.5309 112.232 16.5971 112.232 16.5965C112.234 16.5886 112.262 16.5069 112.351 16.4087C112.444 16.3063 112.548 16.2483 112.617 16.2227C112.675 16.2014 112.673 16.216 112.571 16.216V20.216C113.491 20.216 114.533 19.9542 115.311 19.0993C116.055 18.2806 116.251 17.2476 116.251 16.368H112.251ZM112.571 16.216C112.462 16.216 112.453 16.2007 112.505 16.2196C112.569 16.2427 112.67 16.2975 112.763 16.3982C112.853 16.4955 112.882 16.5779 112.885 16.5889C112.886 16.5922 112.867 16.5287 112.867 16.368H108.867C108.867 17.2539 109.068 18.2911 109.822 19.1098C110.606 19.9591 111.651 20.216 112.571 20.216V16.216ZM112.867 16.368V16.224H108.867V16.368H112.867ZM109 15.506C108.917 15.722 108.791 15.883 108.566 16.0266L110.72 19.3974C111.647 18.805 112.337 17.974 112.733 16.942L109 15.506ZM108.544 16.0406C108.376 16.1515 108.09 16.264 107.579 16.264V20.264C108.699 20.264 109.79 20.0085 110.741 19.3834L108.544 16.0406ZM108.395 17.84C109.583 17.84 110.664 17.4073 111.513 16.5582L108.685 13.7298C108.606 13.8087 108.551 13.84 108.395 13.84V17.84ZM111.513 16.5582C112.399 15.6721 112.795 14.54 112.795 13.344H108.795C108.795 13.62 108.726 13.6879 108.685 13.7298L111.513 16.5582ZM112.795 13.344V12.864H108.795V13.344H112.795ZM110.795 10.864H109.955V14.864H110.795V10.864ZM109.955 10.864C108.7 10.864 107.461 10.9636 106.537 11.3677L108.14 15.0323C108.138 15.0335 108.173 15.0182 108.262 14.9965C108.349 14.9754 108.47 14.9524 108.632 14.9317C108.957 14.8899 109.393 14.864 109.955 14.864V10.864ZM106.586 11.3471C106.055 11.5628 105.517 11.9209 105.121 12.4899C104.721 13.0654 104.571 13.7061 104.571 14.304H108.571C108.571 14.3739 108.549 14.5666 108.405 14.7741C108.265 14.9751 108.111 15.0452 108.092 15.0529L106.586 11.3471ZM104.571 14.304C104.571 15.2584 104.919 16.1657 105.651 16.8599L108.402 13.9561C108.444 13.9955 108.496 14.0629 108.533 14.1525C108.569 14.2391 108.571 14.2987 108.571 14.304H104.571ZM105.689 16.8946C106.494 17.6196 107.495 17.84 108.395 17.84V13.84C108.327 13.84 108.279 13.8359 108.249 13.8316C108.218 13.8274 108.207 13.8235 108.211 13.8248C108.216 13.8264 108.236 13.8331 108.265 13.8495C108.295 13.8662 108.33 13.8899 108.365 13.9214L105.689 16.8946ZM119.33 17.52L118.377 19.2781L118.394 19.2876L118.412 19.2969L119.33 17.52ZM117.146 15.36L115.395 16.3262L117.146 15.36ZM117.146 8.808L115.402 7.82893L117.146 8.808ZM119.33 6.72L120.237 8.50281L120.248 8.49685L119.33 6.72ZM124.274 6.168L123.828 8.11772L123.86 8.125L123.892 8.13123L124.274 6.168ZM125.93 6.768L124.972 8.52379L125.018 8.54861L125.065 8.57105L125.93 6.768ZM126.674 7.584L124.745 8.11024L124.748 8.12186L124.751 8.13344L126.674 7.584ZM126.602 8.592L124.764 7.80416L124.748 7.84177L124.733 7.88001L126.602 8.592ZM125.954 9.336L126.849 11.1249L126.867 11.1155L126.886 11.1058L125.954 9.336ZM124.922 9.24L123.992 11.0108L123.999 11.0144L124.922 9.24ZM120.842 9.624L119.35 8.29277L119.347 8.29527L120.842 9.624ZM120.842 14.592L119.312 15.8803L119.331 15.902L119.35 15.9232L120.842 14.592ZM123.962 15.384L124.354 17.3452L124.401 17.3358L124.447 17.3243L123.962 15.384ZM124.922 15L123.999 13.2256L123.979 13.2363L123.958 13.2476L124.922 15ZM125.954 14.928L124.983 16.6763L125.003 16.6873L125.023 16.6978L125.954 14.928ZM126.578 15.672L124.681 16.3045L124.685 16.3186L124.69 16.3327L126.578 15.672ZM126.602 16.68L124.673 16.1538V16.1538L126.602 16.68ZM125.882 17.496L124.988 15.7071L125.882 17.496ZM124.25 18.072L123.847 16.1131L123.819 16.1187L123.792 16.1252L124.25 18.072ZM122.69 16.264C121.671 16.264 120.876 16.0677 120.248 15.7431L118.412 19.2969C119.704 19.9643 121.149 20.264 122.69 20.264V16.264ZM120.284 15.7619C119.671 15.4297 119.222 14.9824 118.897 14.3938L115.395 16.3262C116.094 17.5936 117.101 18.5863 118.377 19.2781L120.284 15.7619ZM118.897 14.3938C118.577 13.8138 118.378 13.0631 118.378 12.072H114.378C114.378 13.6089 114.691 15.0502 115.395 16.3262L118.897 14.3938ZM118.378 12.072C118.378 11.0797 118.578 10.3435 118.89 9.78707L115.402 7.82893C114.691 9.09647 114.378 10.5363 114.378 12.072H118.378ZM118.89 9.78707C119.206 9.22445 119.64 8.80595 120.237 8.50277L118.424 4.93723C117.132 5.59405 116.11 6.56755 115.402 7.82893L118.89 9.78707ZM120.248 8.49685C120.876 8.17225 121.671 7.976 122.69 7.976V3.976C121.149 3.976 119.704 4.27574 118.412 4.94315L120.248 8.49685ZM122.69 7.976C123.015 7.976 123.392 8.01801 123.828 8.11772L124.72 4.21828C124.036 4.06199 123.357 3.976 122.69 3.976V7.976ZM123.892 8.13123C124.262 8.20307 124.62 8.3316 124.972 8.52379L126.888 5.01221C126.184 4.6284 125.438 4.35693 124.656 4.20477L123.892 8.13123ZM125.065 8.57105C125.08 8.5782 125.019 8.55191 124.938 8.46351C124.851 8.36754 124.781 8.2427 124.745 8.11024L128.604 7.05776C128.322 6.02623 127.595 5.34884 126.796 4.96495L125.065 8.57105ZM124.751 8.13344C124.737 8.08528 124.728 8.01925 124.733 7.9455C124.738 7.87299 124.756 7.8236 124.764 7.80416L128.44 9.37984C128.757 8.64216 128.826 7.83436 128.597 7.03456L124.751 8.13344ZM124.733 7.88001C124.745 7.84834 124.775 7.78599 124.836 7.71644C124.898 7.64576 124.966 7.5961 125.023 7.56616L126.886 11.1058C127.642 10.7078 128.179 10.0718 128.471 9.30399L124.733 7.88001ZM125.06 7.54714C125.274 7.43993 125.494 7.41264 125.665 7.4286C125.816 7.44264 125.882 7.48486 125.845 7.46557L123.999 11.0144C124.724 11.3913 125.78 11.6594 126.849 11.1249L125.06 7.54714ZM125.852 7.4692C124.979 7.01098 124.038 6.736 123.05 6.736V10.736C123.278 10.736 123.585 10.797 123.992 11.0108L125.852 7.4692ZM123.05 6.736C121.654 6.736 120.329 7.19425 119.35 8.29277L122.335 10.9552C122.411 10.8697 122.558 10.736 123.05 10.736V6.736ZM119.347 8.29527C118.402 9.35888 118.074 10.7257 118.074 12.096H122.074C122.074 11.3223 122.258 11.0411 122.337 10.9527L119.347 8.29527ZM118.074 12.096C118.074 13.4671 118.409 14.8079 119.312 15.8803L122.372 13.3037C122.251 13.1601 122.074 12.8369 122.074 12.096H118.074ZM119.35 15.9232C120.329 17.0217 121.654 17.48 123.05 17.48V13.48C122.558 13.48 122.411 13.3463 122.335 13.2608L119.35 15.9232ZM123.05 17.48C123.486 17.48 123.922 17.4316 124.354 17.3452L123.57 13.4228C123.362 13.4644 123.19 13.48 123.05 13.48V17.48ZM124.447 17.3243C124.951 17.1983 125.431 17.0026 125.886 16.7524L123.958 13.2476C123.773 13.3494 123.613 13.4097 123.477 13.4437L124.447 17.3243ZM125.845 16.7744C125.873 16.7598 125.791 16.8092 125.619 16.8211C125.424 16.8348 125.194 16.7934 124.983 16.6763L126.925 13.1797C125.847 12.5806 124.754 12.8333 123.999 13.2256L125.845 16.7744ZM125.023 16.6978C124.959 16.6644 124.879 16.6063 124.806 16.5192C124.734 16.4331 124.697 16.3525 124.681 16.3045L128.475 15.0395C128.206 14.2309 127.662 13.5666 126.886 13.1582L125.023 16.6978ZM124.69 16.3327C124.678 16.2972 124.67 16.2544 124.669 16.2116C124.668 16.1701 124.674 16.1487 124.673 16.1538L128.532 17.2062C128.726 16.4948 128.722 15.7431 128.466 15.0113L124.69 16.3327ZM124.673 16.1538C124.705 16.0365 124.767 15.9195 124.85 15.8248C124.929 15.7362 124.991 15.7053 124.988 15.7071L126.777 19.2849C127.571 18.8877 128.259 18.2053 128.532 17.2062L124.673 16.1538ZM124.988 15.7071C124.585 15.9087 124.205 16.0393 123.847 16.1131L124.653 20.0309C125.383 19.8807 126.092 19.6273 126.777 19.2849L124.988 15.7071ZM123.792 16.1252C123.38 16.2222 123.014 16.264 122.69 16.264V20.264C123.358 20.264 124.033 20.1778 124.708 20.0188L123.792 16.1252ZM130.701 17.52L129.783 19.2972L129.8 19.306L129.818 19.3145L130.701 17.52ZM128.397 15.384L126.658 16.373L126.669 16.3909L126.679 16.4086L128.397 15.384ZM128.373 8.928L126.634 7.93893L126.629 7.94893L128.373 8.928ZM130.509 6.768L131.501 8.50451L131.511 8.49885L130.509 6.768ZM137.733 7.608L136.266 8.96725L136.271 8.97267L136.276 8.97805L137.733 7.608ZM131.061 12.888V10.888H128.766L129.079 13.1613L131.061 12.888ZM132.069 14.928L130.825 16.4942L130.85 16.5143L130.876 16.5335L132.069 14.928ZM135.669 15.432L135.997 17.4048L136.023 17.4005L136.049 17.3956L135.669 15.432ZM137.085 14.952L136.215 13.1509L136.203 13.1569L136.19 13.1631L137.085 14.952ZM138.261 14.832L137.44 16.6558L137.479 16.6732L137.518 16.689L138.261 14.832ZM138.909 15.504L137.021 16.1647L137.035 16.2061L137.052 16.2468L138.909 15.504ZM138.909 16.512L137.029 15.8285L137.02 15.8539L137.011 15.8795L138.909 16.512ZM138.117 17.352L137.168 15.591L137.163 15.5943L138.117 17.352ZM136.245 18.024L135.835 16.0664L135.808 16.072L135.781 16.0784L136.245 18.024ZM131.925 9.072L130.535 7.63402L130.522 7.6458L130.51 7.65779L131.925 9.072ZM131.061 11.016L129.079 10.7492L128.773 13.016H131.061V11.016ZM136.245 11.016V13.016H138.357L138.242 10.9071L136.245 11.016ZM134.301 16.264C133.143 16.264 132.259 16.0579 131.584 15.7255L129.818 19.3145C131.158 19.9741 132.674 20.264 134.301 20.264V16.264ZM131.618 15.7428C130.94 15.3928 130.457 14.934 130.114 14.3594L126.679 16.4086C127.424 17.658 128.477 18.6232 129.783 19.2972L131.618 15.7428ZM130.135 14.395C129.806 13.8158 129.605 13.0802 129.605 12.12H125.605C125.605 13.6558 125.932 15.0962 126.658 16.373L130.135 14.395ZM129.605 12.12C129.605 11.1907 129.798 10.4746 130.117 9.90707L126.629 7.94893C125.923 9.20542 125.605 10.6173 125.605 12.12H129.605ZM130.111 9.91705C130.468 9.28925 130.927 8.83235 131.501 8.50449L129.516 5.03151C128.298 5.72765 127.333 6.71075 126.634 7.93895L130.111 9.91705ZM131.511 8.49885C132.082 8.16814 132.776 7.976 133.653 7.976V3.976C132.161 3.976 130.759 4.31185 129.507 5.03715L131.511 8.49885ZM133.653 7.976C134.902 7.976 135.696 8.35213 136.266 8.96725L139.2 6.24875C137.754 4.68787 135.827 3.976 133.653 3.976V7.976ZM136.276 8.97805C136.853 9.59217 137.245 10.5117 137.245 11.976H141.245C141.245 9.76027 140.628 7.76783 139.19 6.23795L136.276 8.97805ZM137.245 11.976C137.245 11.9255 137.252 11.7896 137.325 11.6127C137.403 11.4235 137.533 11.2437 137.705 11.1047C138.023 10.8475 138.275 10.888 138.117 10.888V14.888C138.71 14.888 139.526 14.7765 140.22 14.2153C140.996 13.5883 141.245 12.7141 141.245 11.976H137.245ZM138.117 10.888H131.061V14.888H138.117V10.888ZM129.079 13.1613C129.253 14.4175 129.754 15.6439 130.825 16.4942L133.312 13.3618C133.295 13.3481 133.125 13.2145 133.042 12.6147L129.079 13.1613ZM130.876 16.5335C131.894 17.29 133.134 17.552 134.373 17.552V13.552C133.659 13.552 133.363 13.398 133.261 13.3225L130.876 16.5335ZM134.373 17.552C134.891 17.552 135.436 17.4984 135.997 17.4048L135.34 13.4592C134.941 13.5256 134.622 13.552 134.373 13.552V17.552ZM136.049 17.3956C136.722 17.2653 137.367 17.0469 137.979 16.7409L136.19 13.1631C135.906 13.3051 135.608 13.4067 135.289 13.4684L136.049 17.3956ZM137.954 16.7531C138.038 16.7128 138.024 16.734 137.93 16.7437C137.82 16.7549 137.639 16.7453 137.44 16.6558L139.081 13.0082C138.008 12.5252 136.956 12.7933 136.215 13.1509L137.954 16.7531ZM137.518 16.689C137.444 16.6592 137.332 16.597 137.223 16.4843C137.114 16.3708 137.052 16.252 137.021 16.1647L140.796 14.8433C140.49 13.9676 139.85 13.3136 139.003 12.975L137.518 16.689ZM137.052 16.2468C137.024 16.1768 137.005 16.089 137.005 15.996C137.005 15.9057 137.023 15.8466 137.029 15.8285L140.788 17.1955C141.068 16.4249 141.093 15.5789 140.766 14.7612L137.052 16.2468ZM137.011 15.8795C137.055 15.7486 137.122 15.6549 137.172 15.602C137.216 15.5552 137.229 15.5584 137.169 15.5911L139.065 19.1129C139.776 18.73 140.485 18.107 140.806 17.1445L137.011 15.8795ZM137.163 15.5943C136.79 15.7966 136.352 15.9582 135.835 16.0664L136.654 19.9816C137.513 19.8018 138.323 19.5154 139.071 19.1097L137.163 15.5943ZM135.781 16.0784C135.245 16.2061 134.753 16.264 134.301 16.264V20.264C135.096 20.264 135.9 20.1619 136.708 19.9696L135.781 16.0784ZM133.797 6.376C132.594 6.376 131.444 6.75499 130.535 7.63402L133.315 10.51C133.365 10.461 133.463 10.376 133.797 10.376V6.376ZM130.51 7.65779C129.659 8.50899 129.233 9.60529 129.079 10.7492L133.043 11.2828C133.113 10.7627 133.262 10.563 133.339 10.4862L130.51 7.65779ZM131.061 13.016H136.245V9.016H131.061V13.016ZM138.242 10.9071C138.18 9.773 137.872 8.58716 137.027 7.67612C136.141 6.72081 134.956 6.376 133.797 6.376V10.376C133.993 10.376 134.087 10.4044 134.113 10.4142C134.129 10.4202 134.112 10.4149 134.094 10.3959C134.065 10.3648 134.214 10.499 134.248 11.1249L138.242 10.9071Z" fill="#5B3511"/>
</g>
<defs>
<filter id="filter0_d_42_591" x="0.0406494" y="0.86377" width="140.204" height="24.6724" filterUnits="userSpaceOnUse" color-interpolation-filters="sRGB">
<feFlood flood-opacity="0" result="BackgroundImageFix"/>
<feColorMatrix in="SourceAlpha" type="matrix" values="0 0 0 0 0 0 0 0 0 0 0 0 0 0 0 0 0 0 127 0" result="hardAlpha"/>
<feOffset dy="2"/>
<feGaussianBlur stdDeviation="0.5"/>
<feComposite in2="hardAlpha" operator="out"/>
<feColorMatrix type="matrix" values="0 0 0 0 0 0 0 0 0 0 0 0 0 0 0 0 0 0 0.25 0"/>
<feBlend mode="normal" in2="BackgroundImageFix" result="effect1_dropShadow_42_591"/>
<feBlend mode="normal" in="SourceGraphic" in2="effect1_dropShadow_42_591" result="shape"/>
</filter>
<linearGradient id="paint0_linear_42_591" x1="69.6246" y1="-3" x2="69.6246" y2="23" gradientUnits="userSpaceOnUse">
<stop stop-color="#FDE092"/>
<stop offset="1" stop-color="#C18B2C"/>
</linearGradient>
</defs>
</svg>
