<svg width="229" height="48" viewBox="0 0 229 48" fill="none" xmlns="http://www.w3.org/2000/svg">
<g filter="url(#filter0_d_27_62)">
<path d="M19.3084 35.528C15.5004 35.528 12.2684 34.808 9.61244 33.368C6.98844 31.928 4.98844 29.912 3.61244 27.32C2.23644 24.728 1.54844 21.688 1.54844 18.2C1.54844 15.512 1.94844 13.096 2.74844 10.952C3.58044 8.776 4.76444 6.936 6.30044 5.432C7.86844 3.896 9.75644 2.712 11.9644 1.88C14.2044 1.048 16.7324 0.631999 19.5484 0.631999C21.2764 0.631999 23.0044 0.823998 24.7324 1.208C26.4604 1.592 28.1244 2.232 29.7244 3.128C30.3964 3.512 30.8444 4.008 31.0684 4.616C31.3244 5.192 31.3884 5.816 31.2604 6.488C31.1644 7.128 30.9084 7.704 30.4924 8.216C30.1084 8.696 29.5964 9.016 28.9564 9.176C28.3484 9.304 27.6444 9.176 26.8444 8.792C25.7884 8.216 24.6684 7.8 23.4844 7.544C22.3004 7.256 21.0044 7.112 19.5964 7.112C17.3244 7.112 15.4204 7.544 13.8844 8.408C12.3484 9.24 11.1964 10.488 10.4284 12.152C9.69244 13.784 9.32444 15.8 9.32444 18.2C9.32444 21.816 10.1884 24.552 11.9164 26.408C13.6764 28.264 16.2684 29.192 19.6924 29.192C20.8444 29.192 22.0284 29.08 23.2444 28.856C24.4604 28.632 25.6604 28.312 26.8444 27.896L25.4524 30.92V21.704H21.1324C20.1724 21.704 19.4364 21.464 18.9244 20.984C18.4124 20.504 18.1564 19.848 18.1564 19.016C18.1564 18.152 18.4124 17.496 18.9244 17.048C19.4364 16.568 20.1724 16.328 21.1324 16.328H28.6684C29.6284 16.328 30.3484 16.584 30.8284 17.096C31.3404 17.608 31.5964 18.344 31.5964 19.304V30.44C31.5964 31.272 31.4364 31.976 31.1164 32.552C30.7964 33.128 30.2524 33.544 29.4844 33.8C28.0444 34.312 26.4284 34.728 24.6364 35.048C22.8444 35.368 21.0684 35.528 19.3084 35.528ZM45.5254 35.528C43.7974 35.528 42.2454 35.192 40.8694 34.52C39.4934 33.848 38.4214 32.936 37.6534 31.784C36.8854 30.632 36.5014 29.336 36.5014 27.896C36.5014 26.168 36.9494 24.808 37.8454 23.816C38.7414 22.792 40.1974 22.072 42.2134 21.656C44.2294 21.208 46.9014 20.984 50.2294 20.984H52.7734V24.728H50.2774C48.6454 24.728 47.3174 24.824 46.2934 25.016C45.3014 25.176 44.5814 25.464 44.1334 25.88C43.7174 26.296 43.5094 26.872 43.5094 27.608C43.5094 28.504 43.8134 29.24 44.4214 29.816C45.0614 30.392 45.9734 30.68 47.1574 30.68C48.0854 30.68 48.9014 30.472 49.6054 30.056C50.3414 29.608 50.9174 29.016 51.3334 28.28C51.7494 27.512 51.9574 26.648 51.9574 25.688V20.168C51.9574 18.76 51.6374 17.768 50.9974 17.192C50.3574 16.584 49.2694 16.28 47.7334 16.28C46.8694 16.28 45.9254 16.392 44.9014 16.616C43.9094 16.808 42.8054 17.144 41.5894 17.624C40.8854 17.944 40.2614 18.024 39.7174 17.864C39.1734 17.672 38.7574 17.352 38.4694 16.904C38.1814 16.424 38.0374 15.912 38.0374 15.368C38.0374 14.792 38.1974 14.248 38.5174 13.736C38.8374 13.192 39.3654 12.792 40.1014 12.536C41.6054 11.928 43.0134 11.512 44.3254 11.288C45.6694 11.064 46.9014 10.952 48.0214 10.952C50.4854 10.952 52.5014 11.32 54.0694 12.056C55.6694 12.76 56.8694 13.864 57.6694 15.368C58.4694 16.84 58.8694 18.744 58.8694 21.08V31.736C58.8694 32.92 58.5814 33.832 58.0054 34.472C57.4294 35.112 56.5974 35.432 55.5094 35.432C54.4214 35.432 53.5734 35.112 52.9654 34.472C52.3894 33.832 52.1014 32.92 52.1014 31.736V29.96L52.4374 30.248C52.2454 31.336 51.8294 32.28 51.1894 33.08C50.5814 33.848 49.7974 34.456 48.8374 34.904C47.8774 35.32 46.7734 35.528 45.5254 35.528ZM68.0202 35.432C66.8362 35.432 65.9242 35.112 65.2842 34.472C64.6762 33.832 64.3722 32.92 64.3722 31.736V14.696C64.3722 13.512 64.6762 12.616 65.2842 12.008C65.9242 11.368 66.8042 11.048 67.9242 11.048C69.0762 11.048 69.9562 11.368 70.5642 12.008C71.1722 12.616 71.4762 13.512 71.4762 14.696V17.768L70.9482 15.848C71.5882 14.376 72.5802 13.192 73.9242 12.296C75.2682 11.4 76.8522 10.952 78.6762 10.952C80.5002 10.952 82.0202 11.384 83.2362 12.248C84.4522 13.112 85.3162 14.44 85.8282 16.232H85.1562C85.8602 14.6 86.9322 13.32 88.3722 12.392C89.8442 11.432 91.5242 10.952 93.4122 10.952C95.2362 10.952 96.7242 11.32 97.8762 12.056C99.0602 12.76 99.9402 13.848 100.516 15.32C101.092 16.76 101.38 18.6 101.38 20.84V31.736C101.38 32.92 101.06 33.832 100.42 34.472C99.8122 35.112 98.9322 35.432 97.7802 35.432C96.5962 35.432 95.6842 35.112 95.0442 34.472C94.4362 33.832 94.1322 32.92 94.1322 31.736V21.08C94.1322 19.512 93.8762 18.376 93.3642 17.672C92.8842 16.936 92.0522 16.568 90.8682 16.568C89.4922 16.568 88.4202 17.048 87.6522 18.008C86.8842 18.968 86.5002 20.328 86.5002 22.088V31.736C86.5002 32.92 86.1802 33.832 85.5402 34.472C84.9322 35.112 84.0522 35.432 82.9002 35.432C81.7482 35.432 80.8522 35.112 80.2122 34.472C79.5722 33.832 79.2522 32.92 79.2522 31.736V21.08C79.2522 19.512 78.9962 18.376 78.4842 17.672C78.0042 16.936 77.1722 16.568 75.9882 16.568C74.6122 16.568 73.5402 17.048 72.7722 18.008C72.0042 18.968 71.6202 20.328 71.6202 22.088V31.736C71.6202 34.2 70.4202 35.432 68.0202 35.432ZM119.172 35.528C116.388 35.528 113.988 35.032 111.972 34.04C109.988 33.016 108.452 31.592 107.364 29.768C106.308 27.912 105.78 25.736 105.78 23.24C105.78 20.808 106.292 18.68 107.316 16.856C108.34 15 109.764 13.56 111.588 12.536C113.444 11.48 115.54 10.952 117.876 10.952C119.572 10.952 121.108 11.24 122.484 11.816C123.86 12.36 125.044 13.16 126.036 14.216C127.028 15.24 127.78 16.504 128.292 18.008C128.804 19.48 129.06 21.128 129.06 22.952C129.06 23.56 128.868 24.024 128.484 24.344C128.1 24.632 127.54 24.776 126.804 24.776H111.732V21.032H123.828L123.06 21.704C123.06 20.392 122.868 19.304 122.484 18.44C122.1 17.544 121.54 16.872 120.804 16.424C120.1 15.976 119.22 15.752 118.164 15.752C116.98 15.752 115.972 16.024 115.14 16.568C114.308 17.112 113.668 17.896 113.22 18.92C112.772 19.944 112.548 21.176 112.548 22.616V23C112.548 25.432 113.108 27.224 114.228 28.376C115.38 29.528 117.076 30.104 119.316 30.104C120.084 30.104 120.964 30.008 121.956 29.816C122.948 29.624 123.876 29.32 124.74 28.904C125.476 28.552 126.132 28.44 126.708 28.568C127.284 28.664 127.732 28.92 128.052 29.336C128.372 29.752 128.548 30.232 128.58 30.776C128.644 31.32 128.532 31.864 128.244 32.408C127.956 32.92 127.476 33.352 126.804 33.704C125.716 34.312 124.484 34.76 123.108 35.048C121.764 35.368 120.452 35.528 119.172 35.528ZM136.924 44.072C135.74 44.072 134.828 43.752 134.188 43.112C133.58 42.504 133.276 41.592 133.276 40.376V14.696C133.276 13.512 133.58 12.616 134.188 12.008C134.828 11.368 135.708 11.048 136.828 11.048C138.012 11.048 138.908 11.368 139.516 12.008C140.124 12.616 140.428 13.512 140.428 14.696V17.96L139.9 16.088C140.38 14.552 141.34 13.32 142.78 12.392C144.252 11.432 145.932 10.952 147.82 10.952C149.868 10.952 151.66 11.448 153.196 12.44C154.764 13.432 155.98 14.84 156.844 16.664C157.708 18.488 158.14 20.664 158.14 23.192C158.14 25.72 157.708 27.912 156.844 29.768C155.98 31.624 154.78 33.048 153.244 34.04C151.708 35.032 149.9 35.528 147.82 35.528C145.964 35.528 144.316 35.08 142.876 34.184C141.436 33.256 140.46 32.056 139.948 30.584H140.524V40.376C140.524 41.592 140.204 42.504 139.564 43.112C138.956 43.752 138.076 44.072 136.924 44.072ZM145.66 30.104C146.684 30.104 147.58 29.848 148.348 29.336C149.148 28.824 149.756 28.072 150.172 27.08C150.62 26.056 150.844 24.76 150.844 23.192C150.844 20.856 150.364 19.144 149.404 18.056C148.444 16.936 147.196 16.376 145.66 16.376C144.636 16.376 143.724 16.616 142.924 17.096C142.156 17.576 141.548 18.328 141.1 19.352C140.652 20.344 140.428 21.624 140.428 23.192C140.428 25.528 140.908 27.272 141.868 28.424C142.828 29.544 144.092 30.104 145.66 30.104ZM171.069 35.528C168.221 35.528 166.093 34.744 164.685 33.176C163.277 31.576 162.573 29.208 162.573 26.072V4.424C162.573 3.208 162.877 2.296 163.485 1.688C164.125 1.048 165.037 0.727998 166.221 0.727998C167.373 0.727998 168.253 1.048 168.861 1.688C169.501 2.296 169.821 3.208 169.821 4.424V25.784C169.821 27.096 170.093 28.072 170.637 28.712C171.213 29.32 171.965 29.624 172.893 29.624C173.149 29.624 173.389 29.608 173.613 29.576C173.837 29.544 174.077 29.528 174.333 29.528C174.845 29.464 175.197 29.624 175.389 30.008C175.613 30.36 175.725 31.08 175.725 32.168C175.725 33.128 175.533 33.864 175.149 34.376C174.765 34.856 174.173 35.176 173.373 35.336C173.053 35.368 172.685 35.4 172.269 35.432C171.853 35.496 171.453 35.528 171.069 35.528ZM186.525 35.528C184.797 35.528 183.245 35.192 181.869 34.52C180.493 33.848 179.421 32.936 178.653 31.784C177.885 30.632 177.501 29.336 177.501 27.896C177.501 26.168 177.949 24.808 178.845 23.816C179.741 22.792 181.197 22.072 183.213 21.656C185.229 21.208 187.901 20.984 191.229 20.984H193.773V24.728H191.277C189.645 24.728 188.317 24.824 187.293 25.016C186.301 25.176 185.581 25.464 185.133 25.88C184.717 26.296 184.509 26.872 184.509 27.608C184.509 28.504 184.813 29.24 185.421 29.816C186.061 30.392 186.973 30.68 188.157 30.68C189.085 30.68 189.901 30.472 190.605 30.056C191.341 29.608 191.917 29.016 192.333 28.28C192.749 27.512 192.957 26.648 192.957 25.688V20.168C192.957 18.76 192.637 17.768 191.997 17.192C191.357 16.584 190.269 16.28 188.733 16.28C187.869 16.28 186.925 16.392 185.901 16.616C184.909 16.808 183.805 17.144 182.589 17.624C181.885 17.944 181.261 18.024 180.717 17.864C180.173 17.672 179.757 17.352 179.469 16.904C179.181 16.424 179.037 15.912 179.037 15.368C179.037 14.792 179.197 14.248 179.517 13.736C179.837 13.192 180.365 12.792 181.101 12.536C182.605 11.928 184.013 11.512 185.325 11.288C186.669 11.064 187.901 10.952 189.021 10.952C191.485 10.952 193.501 11.32 195.069 12.056C196.669 12.76 197.869 13.864 198.669 15.368C199.469 16.84 199.869 18.744 199.869 21.08V31.736C199.869 32.92 199.581 33.832 199.005 34.472C198.429 35.112 197.597 35.432 196.509 35.432C195.421 35.432 194.573 35.112 193.965 34.472C193.389 33.832 193.101 32.92 193.101 31.736V29.96L193.437 30.248C193.245 31.336 192.829 32.28 192.189 33.08C191.581 33.848 190.797 34.456 189.837 34.904C188.877 35.32 187.773 35.528 186.525 35.528ZM211.474 44.072C210.642 44.072 209.954 43.848 209.41 43.4C208.866 42.952 208.546 42.36 208.45 41.624C208.354 40.92 208.482 40.168 208.834 39.368L212.05 32.264V35.24L203.554 15.752C203.234 14.92 203.122 14.152 203.218 13.448C203.346 12.712 203.698 12.136 204.274 11.72C204.882 11.272 205.714 11.048 206.77 11.048C207.634 11.048 208.322 11.256 208.834 11.672C209.378 12.056 209.874 12.808 210.322 13.928L215.986 28.328H214.45L220.306 13.88C220.754 12.792 221.25 12.056 221.794 11.672C222.37 11.256 223.138 11.048 224.098 11.048C224.93 11.048 225.586 11.272 226.066 11.72C226.578 12.136 226.882 12.696 226.978 13.4C227.106 14.104 226.978 14.872 226.594 15.704L215.314 41.288C214.834 42.376 214.29 43.112 213.682 43.496C213.106 43.88 212.37 44.072 211.474 44.072Z" fill="url(#paint0_linear_27_62)"/>
<path d="M9.61244 33.368L8.16914 35.998L8.17585 36.0017L8.18256 36.0053L9.61244 33.368ZM3.61244 27.32L6.26221 25.9133L3.61244 27.32ZM2.74844 10.952L-0.0537176 9.88058L-0.0580396 9.89189L-0.0622703 9.90323L2.74844 10.952ZM6.30044 5.432L8.39931 7.57553L8.39978 7.57507L6.30044 5.432ZM11.9644 1.88L10.9199 -0.932279L10.9132 -0.929812L10.9066 -0.927315L11.9644 1.88ZM24.7324 1.208L25.3832 -1.72056H25.3832L24.7324 1.208ZM29.7244 3.128L31.2129 0.52327L31.2016 0.516826L31.1902 0.51048L29.7244 3.128ZM31.0684 4.616L28.2534 5.65311L28.2872 5.74496L28.327 5.83442L31.0684 4.616ZM31.2604 6.488L28.3134 5.92666L28.3024 5.98462L28.2936 6.04297L31.2604 6.488ZM30.4924 8.216L28.1641 6.32422L28.1569 6.33304L28.1498 6.34191L30.4924 8.216ZM28.9564 9.176L29.5745 12.1116L29.6295 12.1001L29.684 12.0864L28.9564 9.176ZM26.8444 8.792L25.4079 11.4257L25.4761 11.4629L25.5462 11.4966L26.8444 8.792ZM23.4844 7.544L22.7754 10.459L22.8128 10.4681L22.8504 10.4762L23.4844 7.544ZM13.8844 8.408L15.3133 11.0459L15.3343 11.0345L15.3552 11.0227L13.8844 8.408ZM10.4284 12.152L7.70456 10.8948L7.69907 10.9067L7.69368 10.9187L10.4284 12.152ZM11.9164 26.408L9.72076 28.4523L9.73011 28.4623L9.73957 28.4723L11.9164 26.408ZM23.2444 28.856L23.7879 31.8064L23.2444 28.856ZM26.8444 27.896L29.5696 29.1504L32.5303 22.7185L25.85 25.0656L26.8444 27.896ZM25.4524 30.92H22.4524L28.1776 32.1744L25.4524 30.92ZM25.4524 21.704H28.4524V18.704H25.4524V21.704ZM18.9244 20.984L20.9763 18.7954L20.9763 18.7954L18.9244 20.984ZM18.9244 17.048L20.9 19.3057L20.9387 19.2718L20.9763 19.2366L18.9244 17.048ZM30.8284 17.096L28.6398 19.1478L28.6729 19.1831L28.7071 19.2173L30.8284 17.096ZM31.1164 32.552L28.494 31.0951L28.494 31.0951L31.1164 32.552ZM29.4844 33.8L28.5358 30.9539L28.5075 30.9634L28.4794 30.9734L29.4844 33.8ZM24.6364 35.048L24.1091 32.0947L24.6364 35.048ZM19.3084 32.528C15.8723 32.528 13.1594 31.8785 11.0423 30.7307L8.18256 36.0053C11.3774 37.7375 15.1285 38.528 19.3084 38.528V32.528ZM11.0557 30.738C8.9337 29.5735 7.35817 27.9778 6.26221 25.9133L0.962667 28.7267C2.61871 31.8462 5.04318 34.2825 8.16914 35.998L11.0557 30.738ZM6.26221 25.9133C5.15585 23.8293 4.54844 21.2898 4.54844 18.2H-1.45156C-1.45156 22.0862 -0.682979 25.6267 0.962667 28.7267L6.26221 25.9133ZM4.54844 18.2C4.54844 15.8088 4.90409 13.7563 5.55915 12.0008L-0.0622703 9.90323C-1.00722 12.4357 -1.45156 15.2152 -1.45156 18.2H4.54844ZM5.55059 12.0234C6.24127 10.217 7.19745 8.75235 8.39931 7.57553L4.20156 3.28847C2.33142 5.11965 0.919601 7.33498 -0.0537176 9.88058L5.55059 12.0234ZM8.39978 7.57507C9.64865 6.35169 11.1742 5.3837 13.0223 4.68731L10.9066 -0.927315C8.33872 0.0402956 6.08823 1.4403 4.2011 3.28892L8.39978 7.57507ZM13.009 4.69227C14.8609 4.00441 17.0267 3.632 19.5484 3.632V-2.368C16.4381 -2.368 13.5479 -1.90841 10.9199 -0.932279L13.009 4.69227ZM19.5484 3.632C21.0523 3.632 22.5621 3.79888 24.0816 4.13656L25.3832 -1.72056C23.4468 -2.15088 21.5006 -2.368 19.5484 -2.368V3.632ZM24.0816 4.13656C25.5141 4.45489 26.9045 4.98718 28.2586 5.74552L31.1902 0.51048C29.3444 -0.523185 27.4068 -1.27089 25.3832 -1.72056L24.0816 4.13656ZM28.236 5.73273C28.3388 5.79148 28.3577 5.82054 28.3381 5.79886C28.3285 5.78815 28.3129 5.76878 28.2958 5.74084C28.2787 5.71272 28.2643 5.68261 28.2534 5.65311L33.8835 3.57889C33.3701 2.18536 32.3732 1.1863 31.2129 0.52327L28.236 5.73273ZM28.327 5.83442C28.3279 5.83648 28.327 5.83465 28.3257 5.82999C28.3252 5.82792 28.3248 5.82596 28.3244 5.8243C28.3241 5.82265 28.3241 5.82184 28.3241 5.82209C28.3241 5.82219 28.3249 5.8293 28.3241 5.84503C28.3233 5.86099 28.3208 5.88779 28.3134 5.92666L34.2075 7.04934C34.4396 5.83075 34.3354 4.58005 33.8099 3.39758L28.327 5.83442ZM28.2936 6.04297C28.2788 6.14161 28.2486 6.22022 28.1641 6.32422L32.8208 10.1078C33.5683 9.18778 34.05 8.11439 34.2272 6.93302L28.2936 6.04297ZM28.1498 6.34191C28.1559 6.33434 28.1667 6.32219 28.1824 6.30818C28.1981 6.29412 28.2148 6.28181 28.2304 6.272C28.2644 6.25076 28.2721 6.25476 28.2288 6.26557L29.684 12.0864C30.9116 11.7795 32.0098 11.1216 32.835 10.0901L28.1498 6.34191ZM28.3384 6.24035C28.4678 6.2131 28.5362 6.22931 28.5091 6.22439C28.4751 6.2182 28.3563 6.18999 28.1426 6.08743L25.5462 11.4966C26.6943 12.0476 28.0943 12.4233 29.5745 12.1116L28.3384 6.24035ZM28.281 6.15831C26.9713 5.44395 25.5809 4.92796 24.1184 4.61176L22.8504 10.4762C23.756 10.672 24.6055 10.988 25.4079 11.4257L28.281 6.15831ZM24.1935 4.629C22.7447 4.2766 21.2072 4.112 19.5964 4.112V10.112C20.8016 10.112 21.8561 10.2354 22.7754 10.459L24.1935 4.629ZM19.5964 4.112C16.9546 4.112 14.5104 4.61387 12.4137 5.79327L15.3552 11.0227C16.3305 10.4741 17.6942 10.112 19.5964 10.112V4.112ZM12.4556 5.77012C10.321 6.92635 8.72966 8.67376 7.70456 10.8948L13.1523 13.4092C13.6632 12.3022 14.3759 11.5537 15.3133 11.0459L12.4556 5.77012ZM7.69368 10.9187C6.73407 13.0465 6.32444 15.512 6.32444 18.2H12.3244C12.3244 16.088 12.6508 14.5215 13.1632 13.3853L7.69368 10.9187ZM6.32444 18.2C6.32444 22.2524 7.29167 25.8432 9.72076 28.4523L14.1121 24.3637C13.0852 23.2608 12.3244 21.3796 12.3244 18.2H6.32444ZM9.73957 28.4723C12.2387 31.1077 15.7352 32.192 19.6924 32.192V26.192C16.8017 26.192 15.1142 25.4203 14.0933 24.3437L9.73957 28.4723ZM19.6924 32.192C21.0395 32.192 22.4056 32.061 23.7879 31.8064L22.701 25.9056C21.6512 26.099 20.6494 26.192 19.6924 26.192V32.192ZM23.7879 31.8064C25.1594 31.5537 26.5101 31.1932 27.8389 30.7264L25.85 25.0656C24.8108 25.4308 23.7615 25.7103 22.701 25.9056L23.7879 31.8064ZM24.1193 26.6416L22.7273 29.6656L28.1776 32.1744L29.5696 29.1504L24.1193 26.6416ZM28.4524 30.92V21.704H22.4524V30.92H28.4524ZM25.4524 18.704H21.1324V24.704H25.4524V18.704ZM21.1324 18.704C20.8956 18.704 20.7961 18.6736 20.7905 18.6718C20.7899 18.6716 20.8124 18.679 20.8496 18.7004C20.8876 18.7224 20.932 18.7539 20.9763 18.7954L16.8726 23.1726C18.1182 24.3403 19.6945 24.704 21.1324 24.704V18.704ZM20.9763 18.7954C21.0074 18.8246 21.0417 18.8634 21.0738 18.9108C21.1058 18.9582 21.1284 19.0036 21.1432 19.0414C21.173 19.1179 21.1564 19.1252 21.1564 19.016H15.1564C15.1564 20.5102 15.6438 22.0206 16.8726 23.1726L20.9763 18.7954ZM21.1564 19.016C21.1564 18.8751 21.1778 18.878 21.1432 18.9666C21.1254 19.0121 21.0961 19.0715 21.0512 19.1362C21.0059 19.2012 20.9538 19.2587 20.9 19.3057L16.9489 14.7903C15.6183 15.9545 15.1564 17.5377 15.1564 19.016H21.1564ZM20.9763 19.2366C20.932 19.2781 20.8876 19.3096 20.8496 19.3316C20.8124 19.353 20.7899 19.3604 20.7905 19.3602C20.7961 19.3584 20.8956 19.328 21.1324 19.328V13.328C19.6945 13.328 18.1182 13.6917 16.8726 14.8594L20.9763 19.2366ZM21.1324 19.328H28.6684V13.328H21.1324V19.328ZM28.6684 19.328C28.89 19.328 28.9567 19.3585 28.9234 19.3466C28.9041 19.3398 28.8616 19.3222 28.8063 19.2868C28.75 19.2508 28.6924 19.2039 28.6398 19.1478L33.0171 15.0442C31.7852 13.7302 30.1422 13.328 28.6684 13.328V19.328ZM28.7071 19.2173C28.6677 19.1779 28.6346 19.1352 28.6095 19.0943C28.5847 19.0541 28.5738 19.0257 28.5709 19.0176C28.5665 19.0049 28.5964 19.0846 28.5964 19.304H34.5964C34.5964 17.8167 34.1893 16.2142 32.9498 14.9747L28.7071 19.2173ZM28.5964 19.304V30.44H34.5964V19.304H28.5964ZM28.5964 30.44C28.5964 30.8936 28.5095 31.067 28.494 31.0951L33.7389 34.0089C34.3633 32.885 34.5964 31.6504 34.5964 30.44H28.5964ZM28.494 31.0951C28.5156 31.0561 28.5423 31.018 28.5722 30.9837C28.6019 30.9495 28.6285 30.9263 28.6461 30.9129C28.6807 30.8864 28.6608 30.9123 28.5358 30.9539L30.4331 36.646C31.7425 36.2096 32.9756 35.383 33.7389 34.0089L28.494 31.0951ZM28.4794 30.9734C27.2209 31.4208 25.7684 31.7984 24.1091 32.0947L25.1638 38.0013C27.0885 37.6576 28.8679 37.2032 30.4895 36.6266L28.4794 30.9734ZM24.1091 32.0947C22.4852 32.3847 20.8857 32.528 19.3084 32.528V38.528C21.2512 38.528 23.2037 38.3513 25.1638 38.0013L24.1091 32.0947ZM40.8694 34.52L42.1859 31.8243L40.8694 34.52ZM37.6534 31.784L35.1573 33.4481L37.6534 31.784ZM37.8454 23.816L40.0717 25.8269L40.0876 25.8093L40.1032 25.7915L37.8454 23.816ZM42.2134 21.656L42.8197 24.5941L42.842 24.5895L42.8642 24.5846L42.2134 21.656ZM52.7734 20.984H55.7734V17.984H52.7734V20.984ZM52.7734 24.728V27.728H55.7734V24.728H52.7734ZM46.2934 25.016L46.7711 27.9777L46.8088 27.9716L46.8463 27.9646L46.2934 25.016ZM44.1334 25.88L42.0921 23.6816L42.0514 23.7194L42.0121 23.7587L44.1334 25.88ZM44.4214 29.816L42.3582 31.9939L42.386 32.0202L42.4145 32.0459L44.4214 29.816ZM49.6054 30.056L51.1316 32.6388L51.1485 32.6288L51.1653 32.6186L49.6054 30.056ZM51.3334 28.28L53.9451 29.7562L53.9584 29.7326L53.9713 29.7088L51.3334 28.28ZM50.9974 17.192L48.9312 19.367L48.9605 19.3948L48.9905 19.4219L50.9974 17.192ZM44.9014 16.616L45.4715 19.5613L45.5071 19.5544L45.5425 19.5467L44.9014 16.616ZM41.5894 17.624L40.4879 14.8335L40.4172 14.8614L40.348 14.8929L41.5894 17.624ZM39.7174 17.864L38.719 20.693L38.7943 20.7196L38.8709 20.7421L39.7174 17.864ZM38.4694 16.904L35.897 18.4475L35.9208 18.4873L35.9459 18.5263L38.4694 16.904ZM38.5174 13.736L41.0614 15.326L41.0828 15.2918L41.1032 15.2571L38.5174 13.736ZM40.1014 12.536L41.087 15.3695L41.157 15.3451L41.2258 15.3173L40.1014 12.536ZM44.3254 11.288L43.8322 8.32879L43.8205 8.33079L44.3254 11.288ZM54.0694 12.056L52.7947 14.7717L52.8278 14.7872L52.8612 14.8019L54.0694 12.056ZM57.6694 15.368L55.0208 16.7768L55.0271 16.7887L55.0336 16.8005L57.6694 15.368ZM58.0054 34.472L55.7756 32.4651L58.0054 34.472ZM52.9654 34.472L50.7356 36.4789L50.7626 36.5089L50.7904 36.5382L52.9654 34.472ZM52.1014 29.96L54.0538 27.6822L49.1014 23.4373V29.96H52.1014ZM52.4374 30.248L55.3918 30.7694L55.6892 29.084L54.3898 27.9702L52.4374 30.248ZM51.1894 33.08L48.8468 31.2059L48.8421 31.2119L48.8373 31.2179L51.1894 33.08ZM48.8374 34.904L50.0303 37.6567L50.0684 37.6401L50.1061 37.6226L48.8374 34.904ZM45.5254 32.528C44.1947 32.528 43.1021 32.2717 42.1859 31.8243L39.5529 37.2157C41.3888 38.1123 43.4002 38.528 45.5254 38.528V32.528ZM42.1859 31.8243C41.2356 31.3602 40.5922 30.7838 40.1496 30.1199L35.1573 33.4481C36.2507 35.0882 37.7513 36.3358 39.5529 37.2157L42.1859 31.8243ZM40.1496 30.1199C39.7238 29.4812 39.5014 28.7688 39.5014 27.896H33.5014C33.5014 29.9032 34.0471 31.7828 35.1573 33.4481L40.1496 30.1199ZM39.5014 27.896C39.5014 26.6873 39.8057 26.1214 40.0717 25.8269L35.6191 21.8051C34.0932 23.4946 33.5014 25.6487 33.5014 27.896H39.5014ZM40.1032 25.7915C40.3976 25.455 41.1328 24.9422 42.8197 24.5941L41.6072 18.7179C39.2621 19.2018 37.0853 20.129 35.5877 21.8405L40.1032 25.7915ZM42.8642 24.5846C44.5774 24.2038 47.0048 23.984 50.2294 23.984V17.984C46.798 17.984 43.8814 18.2122 41.5626 18.7274L42.8642 24.5846ZM50.2294 23.984H52.7734V17.984H50.2294V23.984ZM49.7734 20.984V24.728H55.7734V20.984H49.7734ZM52.7734 21.728H50.2774V27.728H52.7734V21.728ZM50.2774 21.728C48.5514 21.728 47.0189 21.8277 45.7406 22.0674L46.8463 27.9646C47.616 27.8203 48.7394 27.728 50.2774 27.728V21.728ZM45.8157 22.0543C44.579 22.2537 43.1724 22.6785 42.0921 23.6816L46.1748 28.0784C46.0667 28.1787 46.0181 28.1796 46.1236 28.1374C46.2287 28.0954 46.4328 28.0323 46.7711 27.9777L45.8157 22.0543ZM42.0121 23.7587C40.9001 24.8707 40.5094 26.2873 40.5094 27.608H46.5094C46.5094 27.5193 46.5222 27.5457 46.4871 27.6429C46.4477 27.7519 46.3712 27.8849 46.2548 28.0013L42.0121 23.7587ZM40.5094 27.608C40.5094 29.2635 41.1071 30.8086 42.3582 31.9939L46.4847 27.6381C46.4744 27.6284 46.4772 27.6293 46.4858 27.6417C46.4898 27.6475 46.4943 27.6546 46.4988 27.6629C46.5033 27.6711 46.5071 27.6792 46.5102 27.6867C46.5168 27.7027 46.5173 27.709 46.5157 27.7006C46.514 27.6915 46.5094 27.6622 46.5094 27.608H40.5094ZM42.4145 32.0459C43.7829 33.2774 45.5119 33.68 47.1574 33.68V27.68C46.4349 27.68 46.34 27.5066 46.4283 27.5861L42.4145 32.0459ZM47.1574 33.68C48.5485 33.68 49.9057 33.3632 51.1316 32.6388L48.0793 27.4732C47.8972 27.5808 47.6224 27.68 47.1574 27.68V33.68ZM51.1653 32.6186C52.3301 31.9095 53.272 30.947 53.9451 29.7562L48.7218 26.8038C48.5628 27.085 48.3527 27.3065 48.0456 27.4934L51.1653 32.6186ZM53.9713 29.7088C54.6479 28.4597 54.9574 27.0964 54.9574 25.688H48.9574C48.9574 26.1996 48.8509 26.5643 48.6956 26.8512L53.9713 29.7088ZM54.9574 25.688V20.168H48.9574V25.688H54.9574ZM54.9574 20.168C54.9574 18.4331 54.5821 16.3821 53.0043 14.9621L48.9905 19.4219C48.8422 19.2883 48.8306 19.1906 48.8623 19.289C48.8993 19.4037 48.9574 19.6746 48.9574 20.168H54.9574ZM53.0637 15.017C51.5764 13.6041 49.5145 13.28 47.7334 13.28V19.28C48.3193 19.28 48.688 19.3397 48.8941 19.3973C49.0949 19.4534 49.0518 19.4815 48.9312 19.367L53.0637 15.017ZM47.7334 13.28C46.614 13.28 45.452 13.4246 44.2603 13.6853L45.5425 19.5467C46.3988 19.3594 47.1249 19.28 47.7334 19.28V13.28ZM44.3314 13.6707C43.114 13.9063 41.8287 14.3043 40.4879 14.8335L42.6909 20.4145C43.7821 19.9837 44.7048 19.7097 45.4715 19.5613L44.3314 13.6707ZM40.348 14.8929C40.2089 14.9562 40.1677 14.954 40.2119 14.9484C40.236 14.9453 40.2819 14.9417 40.3454 14.946C40.4098 14.9504 40.4843 14.9625 40.5639 14.9859L38.8709 20.7421C40.3222 21.1689 41.7104 20.8644 42.8308 20.3551L40.348 14.8929ZM40.7159 15.035C40.7134 15.0342 40.7596 15.0506 40.8266 15.1021C40.8958 15.1554 40.9534 15.2202 40.993 15.2817L35.9459 18.5263C36.6248 19.5824 37.6024 20.2989 38.719 20.693L40.7159 15.035ZM41.0419 15.3605C41.0344 15.3479 41.0314 15.3412 41.0309 15.3402C41.0305 15.3393 41.0318 15.342 41.0334 15.3478C41.035 15.3535 41.0362 15.3595 41.0369 15.3647C41.0376 15.3698 41.0374 15.3712 41.0374 15.368H35.0374C35.0374 16.472 35.3377 17.5154 35.897 18.4475L41.0419 15.3605ZM41.0374 15.368C41.0374 15.3634 41.0377 15.3632 41.0373 15.3663C41.0368 15.3694 41.0361 15.3725 41.0355 15.3745C41.035 15.3765 41.0354 15.3743 41.0385 15.3674C41.0417 15.3604 41.0486 15.3466 41.0614 15.326L35.9734 12.146C35.3705 13.1107 35.0374 14.202 35.0374 15.368H41.0374ZM41.1032 15.2571C41.0811 15.2946 41.0554 15.3296 41.0282 15.3598C41.0013 15.3898 40.9784 15.4092 40.965 15.4193C40.9389 15.4391 40.9648 15.412 41.087 15.3695L39.1159 9.70251C37.871 10.1355 36.6914 10.9233 35.9316 12.2149L41.1032 15.2571ZM41.2258 15.3173C42.5719 14.7732 43.7707 14.4261 44.8303 14.2452L43.8205 8.33079C42.2562 8.59787 40.639 9.08283 38.9771 9.75467L41.2258 15.3173ZM44.8186 14.2472C46.0332 14.0448 47.0975 13.952 48.0214 13.952V7.952C46.7053 7.952 45.3057 8.08325 43.8322 8.32882L44.8186 14.2472ZM48.0214 13.952C50.218 13.952 51.7572 14.2847 52.7947 14.7717L55.3442 9.34029C53.2457 8.35528 50.7529 7.952 48.0214 7.952V13.952ZM52.8612 14.8019C53.862 15.2423 54.546 15.8842 55.0208 16.7768L60.3181 13.9592C59.1928 11.8438 57.4769 10.2777 55.2777 9.31005L52.8612 14.8019ZM55.0336 16.8005C55.519 17.6937 55.8694 19.0576 55.8694 21.08H61.8694C61.8694 18.4304 61.4199 15.9863 60.3053 13.9355L55.0336 16.8005ZM55.8694 21.08V31.736H61.8694V21.08H55.8694ZM55.8694 31.736C55.8694 32.4585 55.6961 32.5534 55.7756 32.4651L60.2353 36.4789C61.4668 35.1106 61.8694 33.3815 61.8694 31.736H55.8694ZM55.7756 32.4651C55.7903 32.4487 55.8112 32.4299 55.8354 32.4133C55.8593 32.397 55.8744 32.3912 55.8725 32.392C55.8667 32.3942 55.764 32.432 55.5094 32.432V38.432C57.2079 38.432 58.9475 37.9098 60.2353 36.4789L55.7756 32.4651ZM55.5094 32.432C55.2566 32.432 55.1418 32.3947 55.1166 32.3852C55.1044 32.3806 55.107 32.3803 55.1178 32.3874C55.1288 32.3947 55.1371 32.4022 55.1404 32.4058L50.7904 36.5382C52.0918 37.9081 53.8037 38.432 55.5094 38.432V32.432ZM55.1953 32.4651C55.2748 32.5534 55.1014 32.4585 55.1014 31.736H49.1014C49.1014 33.3815 49.5041 35.1106 50.7356 36.4789L55.1953 32.4651ZM55.1014 31.736V29.96H49.1014V31.736H55.1014ZM50.1491 32.2378L50.4851 32.5258L54.3898 27.9702L54.0538 27.6822L50.1491 32.2378ZM49.4831 29.7266C49.3714 30.3595 49.1484 30.8289 48.8468 31.2059L53.532 34.9541C54.5104 33.7311 55.1195 32.3125 55.3918 30.7694L49.4831 29.7266ZM48.8373 31.2179C48.5421 31.5908 48.1411 31.9184 47.5688 32.1855L50.1061 37.6226C51.4538 36.9936 52.6208 36.1052 53.5416 34.9421L48.8373 31.2179ZM47.6446 32.1513C47.1264 32.3759 46.4408 32.528 45.5254 32.528V38.528C47.106 38.528 48.6284 38.2641 50.0303 37.6567L47.6446 32.1513ZM65.2842 34.472L63.1092 36.5382L63.1357 36.5661L63.1629 36.5933L65.2842 34.472ZM65.2842 12.008L63.1629 9.88668L63.1629 9.88668L65.2842 12.008ZM70.5642 12.008L68.3892 14.0742L68.4157 14.1021L68.4429 14.1293L70.5642 12.008ZM71.4762 17.768L68.5836 18.5635L74.4762 17.768H71.4762ZM70.9482 15.848L68.197 14.6518L67.7749 15.6227L68.0556 16.6435L70.9482 15.848ZM73.9242 12.296L75.5883 14.7922L73.9242 12.296ZM83.2362 12.248L81.4986 14.6935L83.2362 12.248ZM85.8282 16.232V19.232H89.8054L88.7128 15.4078L85.8282 16.232ZM85.1562 16.232L82.4016 15.0437L80.5948 19.232H85.1562V16.232ZM88.3722 12.392L89.9973 14.9137L90.0042 14.9093L90.011 14.9048L88.3722 12.392ZM97.8762 12.056L96.261 14.5841L96.3016 14.61L96.343 14.6346L97.8762 12.056ZM100.516 15.32L97.7225 16.4132L97.7266 16.4237L97.7308 16.4342L100.516 15.32ZM100.42 34.472L98.2989 32.3507L98.2717 32.3779L98.2452 32.4058L100.42 34.472ZM95.0442 34.472L92.8692 36.5382L92.8957 36.5661L92.9229 36.5933L95.0442 34.472ZM93.3642 17.672L90.8514 19.3108L90.8931 19.3748L90.938 19.4365L93.3642 17.672ZM85.5402 34.472L83.4189 32.3507L83.3917 32.3779L83.3652 32.4058L85.5402 34.472ZM80.2122 34.472L82.3335 32.3507L80.2122 34.472ZM78.4842 17.672L75.9714 19.3108L76.0131 19.3748L76.058 19.4365L78.4842 17.672ZM72.7722 18.008L75.1148 19.8821L72.7722 18.008ZM68.0202 32.432C67.693 32.432 67.5157 32.3872 67.4415 32.3612C67.3805 32.3398 67.3861 32.3313 67.4055 32.3507L63.1629 36.5933C64.5232 37.9537 66.2955 38.432 68.0202 38.432V32.432ZM67.4592 32.4058C67.4843 32.4322 67.4717 32.4358 67.4462 32.3593C67.4167 32.2706 67.3722 32.0773 67.3722 31.736H61.3722C61.3722 33.4206 61.8117 35.1725 63.1092 36.5382L67.4592 32.4058ZM67.3722 31.736V14.696H61.3722V31.736H67.3722ZM67.3722 14.696C67.3722 14.353 67.4171 14.1707 67.4411 14.0999C67.4603 14.0434 67.4586 14.0762 67.4055 14.1293L63.1629 9.88668C61.8075 11.2421 61.3722 13.0227 61.3722 14.696H67.3722ZM67.4055 14.1293C67.4094 14.1254 67.4104 14.1249 67.4112 14.1245C67.4122 14.1238 67.4228 14.117 67.4494 14.1074C67.5034 14.0877 67.6471 14.048 67.9242 14.048V8.048C66.2087 8.048 64.4928 8.55676 63.1629 9.88668L67.4055 14.1293ZM67.9242 14.048C68.2282 14.048 68.3774 14.0908 68.423 14.1074C68.4538 14.1186 68.4243 14.1112 68.3892 14.0742L72.7392 9.94175C71.406 8.5384 69.6353 8.048 67.9242 8.048V14.048ZM68.4429 14.1293C68.3898 14.0762 68.3881 14.0434 68.4072 14.0999C68.4313 14.1707 68.4762 14.353 68.4762 14.696H74.4762C74.4762 13.0227 74.0409 11.2421 72.6855 9.88668L68.4429 14.1293ZM68.4762 14.696V17.768H74.4762V14.696H68.4762ZM74.3688 16.9725L73.8408 15.0525L68.0556 16.6435L68.5836 18.5635L74.3688 16.9725ZM73.6994 17.0442C74.1079 16.1045 74.7208 15.3705 75.5883 14.7922L72.2601 9.79985C70.4396 11.0135 69.0684 12.6475 68.197 14.6518L73.6994 17.0442ZM75.5883 14.7922C76.3775 14.266 77.3654 13.952 78.6762 13.952V7.952C76.339 7.952 74.1588 8.53402 72.2601 9.79985L75.5883 14.7922ZM78.6762 13.952C80.0184 13.952 80.8941 14.2641 81.4986 14.6935L84.9738 9.80246C83.1463 8.50394 80.982 7.952 78.6762 7.952V13.952ZM81.4986 14.6935C82.0324 15.0728 82.571 15.752 82.9436 17.0562L88.7128 15.4078C88.0614 13.128 86.872 11.1511 84.9738 9.80246L81.4986 14.6935ZM85.8282 13.232H85.1562V19.232H85.8282V13.232ZM87.9108 17.4203C88.3884 16.3133 89.0773 15.5066 89.9973 14.9137L86.7471 9.87029C84.7871 11.1334 83.332 12.8867 82.4016 15.0437L87.9108 17.4203ZM90.011 14.9048C90.959 14.2866 92.0609 13.952 93.4122 13.952V7.952C90.9875 7.952 88.7294 8.57742 86.7334 9.87917L90.011 14.9048ZM93.4122 13.952C94.8505 13.952 95.7277 14.2433 96.261 14.5841L99.4914 9.52791C97.7207 8.39667 95.6219 7.952 93.4122 7.952V13.952ZM96.343 14.6346C96.8705 14.9483 97.3521 15.4667 97.7225 16.4132L103.31 14.2268C102.528 12.2293 101.25 10.5717 99.4094 9.47739L96.343 14.6346ZM97.7308 16.4342C98.1169 17.3995 98.3802 18.8262 98.3802 20.84H104.38C104.38 18.3738 104.067 16.1205 103.302 14.2058L97.7308 16.4342ZM98.3802 20.84V31.736H104.38V20.84H98.3802ZM98.3802 31.736C98.3802 32.0632 98.3354 32.2405 98.3094 32.3147C98.288 32.3757 98.2795 32.3701 98.2989 32.3507L102.542 36.5933C103.902 35.2329 104.38 33.4606 104.38 31.736H98.3802ZM98.2452 32.4058C98.2803 32.3688 98.3098 32.3614 98.279 32.3726C98.2334 32.3892 98.0842 32.432 97.7802 32.432V38.432C99.4913 38.432 101.262 37.9416 102.595 36.5382L98.2452 32.4058ZM97.7802 32.432C97.453 32.432 97.2757 32.3872 97.2015 32.3612C97.1405 32.3398 97.1461 32.3313 97.1655 32.3507L92.9229 36.5933C94.2832 37.9537 96.0555 38.432 97.7802 38.432V32.432ZM97.2192 32.4058C97.2443 32.4322 97.2317 32.4358 97.2062 32.3593C97.1767 32.2706 97.1322 32.0773 97.1322 31.736H91.1322C91.1322 33.4206 91.5717 35.1725 92.8692 36.5382L97.2192 32.4058ZM97.1322 31.736V21.08H91.1322V31.736H97.1322ZM97.1322 21.08C97.1322 19.3231 96.8717 17.3943 95.7904 15.9075L90.938 19.4365C90.8872 19.3667 90.9467 19.4147 91.0136 19.7115C91.0793 20.0033 91.1322 20.4469 91.1322 21.08H97.1322ZM95.877 16.0332C94.6593 14.166 92.6755 13.568 90.8682 13.568V19.568C91.1627 19.568 91.2296 19.6154 91.1667 19.5876C91.1312 19.5719 91.0725 19.5399 91.0066 19.4845C90.9402 19.4285 90.8879 19.3668 90.8514 19.3108L95.877 16.0332ZM90.8682 13.568C88.7042 13.568 86.7197 14.3712 85.3096 16.1339L89.9948 19.8821C90.1206 19.7248 90.2802 19.568 90.8682 19.568V13.568ZM85.3096 16.1339C83.9661 17.8133 83.5002 19.9336 83.5002 22.088H89.5002C89.5002 20.7224 89.8023 20.1227 89.9948 19.8821L85.3096 16.1339ZM83.5002 22.088V31.736H89.5002V22.088H83.5002ZM83.5002 31.736C83.5002 32.0632 83.4554 32.2405 83.4294 32.3147C83.408 32.3757 83.3995 32.3701 83.4189 32.3507L87.6615 36.5933C89.0219 35.2329 89.5002 33.4606 89.5002 31.736H83.5002ZM83.3652 32.4058C83.4003 32.3688 83.4298 32.3614 83.399 32.3726C83.3534 32.3892 83.2042 32.432 82.9002 32.432V38.432C84.6113 38.432 86.382 37.9416 87.7152 36.5382L83.3652 32.4058ZM82.9002 32.432C82.5978 32.432 82.4372 32.3896 82.3732 32.3668C82.3422 32.3557 82.3302 32.348 82.3302 32.348C82.3297 32.3477 82.3304 32.3481 82.3318 32.3492C82.3331 32.3503 82.3338 32.3509 82.3335 32.3507L78.0909 36.5933C79.4364 37.9388 81.1804 38.432 82.9002 38.432V32.432ZM82.3335 32.3507C82.3529 32.3701 82.3444 32.3757 82.323 32.3147C82.297 32.2405 82.2522 32.0632 82.2522 31.736H76.2522C76.2522 33.4606 76.7305 35.2329 78.0909 36.5933L82.3335 32.3507ZM82.2522 31.736V21.08H76.2522V31.736H82.2522ZM82.2522 21.08C82.2522 19.3231 81.9917 17.3943 80.9104 15.9075L76.058 19.4365C76.0072 19.3667 76.0667 19.4147 76.1336 19.7115C76.1993 20.0033 76.2522 20.4469 76.2522 21.08H82.2522ZM80.997 16.0332C79.7793 14.166 77.7955 13.568 75.9882 13.568V19.568C76.2827 19.568 76.3496 19.6154 76.2867 19.5876C76.2512 19.5719 76.1925 19.5399 76.1266 19.4845C76.0602 19.4285 76.0079 19.3668 75.9714 19.3108L80.997 16.0332ZM75.9882 13.568C73.8242 13.568 71.8397 14.3712 70.4296 16.1339L75.1148 19.8821C75.2406 19.7248 75.4002 19.568 75.9882 19.568V13.568ZM70.4296 16.1339C69.0861 17.8133 68.6202 19.9336 68.6202 22.088H74.6202C74.6202 20.7224 74.9223 20.1227 75.1148 19.8821L70.4296 16.1339ZM68.6202 22.088V31.736H74.6202V22.088H68.6202ZM68.6202 31.736C68.6202 32.5251 68.4275 32.5622 68.5711 32.4148C68.6334 32.3508 68.6762 32.3447 68.6238 32.3626C68.556 32.3858 68.3722 32.432 68.0202 32.432V38.432C69.7029 38.432 71.5114 37.9953 72.8692 36.6012C74.2128 35.2218 74.6202 33.4109 74.6202 31.736H68.6202ZM111.972 34.04L110.597 36.7059L110.622 36.7191L110.648 36.7318L111.972 34.04ZM107.364 29.768L104.757 31.2516L104.772 31.2784L104.788 31.3048L107.364 29.768ZM107.316 16.856L109.932 18.3246L109.938 18.3149L109.943 18.3052L107.316 16.856ZM111.588 12.536L113.057 15.152L113.065 15.1477L113.072 15.1435L111.588 12.536ZM122.484 11.816L121.326 14.5833L121.354 14.5949L121.381 14.6059L122.484 11.816ZM126.036 14.216L123.85 16.27L123.866 16.2868L123.882 16.3034L126.036 14.216ZM128.292 18.008L125.452 18.9748L125.456 18.9842L125.459 18.9936L128.292 18.008ZM128.484 24.344L130.284 26.744L130.346 26.6979L130.405 26.6487L128.484 24.344ZM111.732 24.776H108.732V27.776H111.732V24.776ZM111.732 21.032V18.032H108.732V21.032H111.732ZM123.828 21.032L125.804 23.2897L131.813 18.032H123.828V21.032ZM123.06 21.704H120.06V28.3153L125.036 23.9617L123.06 21.704ZM122.484 18.44L119.727 19.6218L119.735 19.6401L119.743 19.6584L122.484 18.44ZM120.804 16.424L119.194 18.955L119.219 18.971L119.245 18.9866L120.804 16.424ZM115.14 16.568L116.782 19.0789V19.0789L115.14 16.568ZM114.228 28.376L112.077 30.4672L112.092 30.4824L112.107 30.4973L114.228 28.376ZM121.956 29.816L122.527 32.7613L121.956 29.816ZM124.74 28.904L123.446 26.1976L123.439 26.201L124.74 28.904ZM126.708 28.568L126.058 31.4966L126.136 31.514L126.215 31.5272L126.708 28.568ZM128.58 30.776L125.586 30.9522L125.591 31.0396L125.601 31.1265L128.58 30.776ZM128.244 32.408L130.859 33.8788L130.878 33.8455L130.896 33.8117L128.244 32.408ZM126.804 33.704L125.412 31.0465L125.376 31.0654L125.341 31.0852L126.804 33.704ZM123.108 35.048L122.494 32.1116L122.454 32.1201L122.414 32.1296L123.108 35.048ZM119.172 32.528C116.74 32.528 114.814 32.0948 113.297 31.3482L110.648 36.7318C113.163 37.9692 116.037 38.528 119.172 38.528V32.528ZM113.348 31.3741C111.835 30.5932 110.727 29.549 109.941 28.2312L104.788 31.3048C106.178 33.635 108.141 35.4388 110.597 36.7059L113.348 31.3741ZM109.972 28.2844C109.214 26.9517 108.78 25.3043 108.78 23.24H102.78C102.78 26.1677 103.403 28.8723 104.757 31.2516L109.972 28.2844ZM108.78 23.24C108.78 21.238 109.198 19.6319 109.932 18.3246L104.7 15.3874C103.386 17.7281 102.78 20.378 102.78 23.24H108.78ZM109.943 18.3052C110.701 16.9315 111.727 15.8986 113.057 15.152L110.12 9.92005C107.802 11.2214 105.98 13.0685 104.69 15.4068L109.943 18.3052ZM113.072 15.1435C114.434 14.3685 116.01 13.952 117.876 13.952V7.952C115.07 7.952 112.455 8.59152 110.105 9.92851L113.072 15.1435ZM117.876 13.952C119.229 13.952 120.364 14.1805 121.326 14.5833L123.643 9.04868C121.853 8.29946 119.916 7.952 117.876 7.952V13.952ZM121.381 14.6059C122.355 14.991 123.167 15.5431 123.85 16.27L128.223 12.162C126.922 10.7769 125.365 9.72904 123.587 9.02612L121.381 14.6059ZM123.882 16.3034C124.532 16.9743 125.067 17.842 125.452 18.9748L131.132 17.0412C130.494 15.166 129.525 13.5057 128.191 12.1286L123.882 16.3034ZM125.459 18.9936C125.844 20.0999 126.06 21.4076 126.06 22.952H132.06C132.06 20.8484 131.765 18.8601 131.126 17.0224L125.459 18.9936ZM126.06 22.952C126.06 22.9433 126.062 22.8086 126.144 22.6089C126.233 22.3939 126.381 22.192 126.564 22.0393L130.405 26.6487C131.62 25.6358 132.06 24.2388 132.06 22.952H126.06ZM126.684 21.944C126.864 21.8092 127.005 21.7688 127.029 21.7625C127.049 21.7574 126.985 21.776 126.804 21.776V27.776C127.863 27.776 129.17 27.5799 130.284 26.744L126.684 21.944ZM126.804 21.776H111.732V27.776H126.804V21.776ZM114.732 24.776V21.032H108.732V24.776H114.732ZM111.732 24.032H123.828V18.032H111.732V24.032ZM121.853 18.7743L121.085 19.4463L125.036 23.9617L125.804 23.2897L121.853 18.7743ZM126.06 21.704C126.06 20.1245 125.833 18.5874 125.226 17.2216L119.743 19.6584C119.904 20.0206 120.06 20.6595 120.06 21.704H126.06ZM125.242 17.2582C124.646 15.867 123.702 14.6756 122.364 13.8614L119.245 18.9866C119.379 19.0684 119.555 19.221 119.727 19.6218L125.242 17.2582ZM122.415 13.893C121.117 13.0669 119.641 12.752 118.164 12.752V18.752C118.8 18.752 119.084 18.8851 119.194 18.955L122.415 13.893ZM118.164 12.752C116.51 12.752 114.906 13.1372 113.499 14.0571L116.782 19.0789C117.039 18.9108 117.45 18.752 118.164 18.752V12.752ZM113.499 14.0571C112.119 14.959 111.124 16.2277 110.472 17.7175L115.969 20.1225C116.213 19.5643 116.498 19.265 116.782 19.0789L113.499 14.0571ZM110.472 17.7175C109.818 19.2132 109.548 20.8766 109.548 22.616H115.548C115.548 21.4754 115.727 20.6748 115.969 20.1225L110.472 17.7175ZM109.548 22.616V23H115.548V22.616H109.548ZM109.548 23C109.548 25.8197 110.19 28.5254 112.077 30.4672L116.379 26.2848C116.027 25.9226 115.548 25.0443 115.548 23H109.548ZM112.107 30.4973C114.006 32.3959 116.586 33.104 119.316 33.104V27.104C117.567 27.104 116.755 26.6601 116.35 26.2547L112.107 30.4973ZM119.316 33.104C120.325 33.104 121.402 32.979 122.527 32.7613L121.386 26.8707C120.527 27.037 119.844 27.104 119.316 27.104V33.104ZM122.527 32.7613C123.758 32.523 124.933 32.1407 126.042 31.607L123.439 26.201C122.819 26.4993 122.139 26.725 121.386 26.8707L122.527 32.7613ZM126.035 31.6104C126.119 31.5702 126.182 31.5456 126.226 31.531C126.27 31.5165 126.29 31.5131 126.289 31.5132C126.288 31.5134 126.265 31.5173 126.222 31.5167C126.18 31.5162 126.123 31.5111 126.058 31.4966L127.359 25.6394C125.918 25.3191 124.559 25.6653 123.446 26.1976L126.035 31.6104ZM126.215 31.5272C126.199 31.5244 126.11 31.5064 125.988 31.4367C125.861 31.3642 125.753 31.2665 125.675 31.1651L130.43 27.5069C129.594 26.4198 128.435 25.8144 127.202 25.6088L126.215 31.5272ZM125.675 31.1651C125.654 31.138 125.628 31.0946 125.608 31.0408C125.599 31.0158 125.593 30.994 125.589 30.9772C125.586 30.9605 125.586 30.9516 125.586 30.9522L131.575 30.5998C131.509 29.4798 131.132 28.4186 130.43 27.5069L125.675 31.1651ZM125.601 31.1265C125.598 31.1033 125.597 31.0779 125.598 31.0518C125.6 31.0258 125.603 31.0037 125.606 30.987C125.613 30.9523 125.618 30.9568 125.593 31.0043L130.896 33.8117C131.432 32.7989 131.704 31.6473 131.56 30.4255L125.601 31.1265ZM125.63 30.9372C125.661 30.882 125.683 30.8668 125.662 30.8861C125.637 30.9083 125.564 30.9671 125.412 31.0465L128.196 36.3615C129.234 35.8179 130.215 35.0244 130.859 33.8788L125.63 30.9372ZM125.341 31.0852C124.55 31.5274 123.61 31.878 122.494 32.1116L123.723 37.9844C125.359 37.642 126.883 37.0966 128.268 36.3228L125.341 31.0852ZM122.414 32.1296C121.279 32.3996 120.201 32.528 119.172 32.528V38.528C120.704 38.528 122.25 38.3364 123.803 37.9664L122.414 32.1296ZM134.188 43.112L132.067 45.2333L134.188 43.112ZM134.188 12.008L132.067 9.88668V9.88668L134.188 12.008ZM139.516 12.008L137.341 14.0742L137.368 14.1021L137.395 14.1293L139.516 12.008ZM140.428 17.96L137.541 18.7744L143.428 17.96H140.428ZM139.9 16.088L137.037 15.1932L136.771 16.0442L137.013 16.9024L139.9 16.088ZM142.78 12.392L144.405 14.9137L144.412 14.9093L144.419 14.9048L142.78 12.392ZM153.196 12.44L151.569 14.9601L151.58 14.9677L151.592 14.9752L153.196 12.44ZM156.844 16.664L159.555 15.3797L156.844 16.664ZM156.844 29.768L159.564 31.0341L156.844 29.768ZM153.244 34.04L154.872 36.5601V36.5601L153.244 34.04ZM142.876 34.184L141.251 36.7057L141.271 36.7186L141.291 36.7312L142.876 34.184ZM139.948 30.584V27.584H135.728L137.115 31.5696L139.948 30.584ZM140.524 30.584H143.524V27.584H140.524V30.584ZM139.564 43.112L137.498 40.937L137.442 40.99L137.389 41.0458L139.564 43.112ZM148.348 29.336L146.731 26.8092L146.707 26.8243L146.684 26.8398L148.348 29.336ZM150.172 27.08L147.424 25.8775L147.415 25.8986L147.406 25.9198L150.172 27.08ZM149.404 18.056L147.126 20.0084L147.14 20.0247L147.155 20.0409L149.404 18.056ZM142.924 17.096L141.381 14.5235L141.357 14.5375L141.334 14.552L142.924 17.096ZM141.1 19.352L143.834 20.5868L143.842 20.5707L143.849 20.5545L141.1 19.352ZM141.868 28.424L139.564 30.3446L139.577 30.3606L139.59 30.3764L141.868 28.424ZM136.924 41.072C136.597 41.072 136.42 41.0272 136.345 41.0012C136.285 40.9798 136.29 40.9713 136.31 40.9907L132.067 45.2333C133.427 46.5937 135.2 47.072 136.924 47.072V41.072ZM136.31 40.9907C136.372 41.0532 136.373 41.0902 136.35 41.0233C136.323 40.9419 136.276 40.743 136.276 40.376H130.276C130.276 42.0544 130.698 43.8643 132.067 45.2333L136.31 40.9907ZM136.276 40.376V14.696H130.276V40.376H136.276ZM136.276 14.696C136.276 14.353 136.321 14.1707 136.345 14.0999C136.364 14.0434 136.363 14.0762 136.31 14.1293L132.067 9.88668C130.711 11.2421 130.276 13.0227 130.276 14.696H136.276ZM136.31 14.1293C136.313 14.1254 136.314 14.1249 136.315 14.1245C136.316 14.1238 136.327 14.117 136.353 14.1074C136.407 14.0877 136.551 14.048 136.828 14.048V8.048C135.113 8.048 133.397 8.55676 132.067 9.88668L136.31 14.1293ZM136.828 14.048C137.157 14.048 137.323 14.0932 137.379 14.1132C137.42 14.1277 137.386 14.1212 137.341 14.0742L141.691 9.94175C140.343 8.52281 138.543 8.048 136.828 8.048V14.048ZM137.395 14.1293C137.342 14.0762 137.34 14.0434 137.359 14.0999C137.383 14.1707 137.428 14.353 137.428 14.696H143.428C143.428 13.0227 142.993 11.2421 141.638 9.88668L137.395 14.1293ZM137.428 14.696V17.96H143.428V14.696H137.428ZM143.316 17.1456L142.788 15.2736L137.013 16.9024L137.541 18.7744L143.316 17.1456ZM142.764 16.9828C143.02 16.1627 143.515 15.4877 144.405 14.9137L141.155 9.87029C139.166 11.1523 137.74 12.9413 137.037 15.1932L142.764 16.9828ZM144.419 14.9048C145.367 14.2866 146.469 13.952 147.82 13.952V7.952C145.395 7.952 143.137 8.57742 141.141 9.87917L144.419 14.9048ZM147.82 13.952C149.362 13.952 150.574 14.3181 151.569 14.9601L154.824 9.91988C152.746 8.57792 150.374 7.952 147.82 7.952V13.952ZM151.592 14.9752C152.638 15.6369 153.49 16.5909 154.133 17.9483L159.555 15.3797C158.47 13.0891 156.89 11.2271 154.8 9.90476L151.592 14.9752ZM154.133 17.9483C154.765 19.2827 155.14 20.9991 155.14 23.192H161.14C161.14 20.3289 160.651 17.6933 159.555 15.3797L154.133 17.9483ZM155.14 23.192C155.14 25.3829 154.766 27.1243 154.124 28.5019L159.564 31.0341C160.651 28.6997 161.14 26.0571 161.14 23.192H155.14ZM154.124 28.5019C153.47 29.9085 152.622 30.8704 151.617 31.5199L154.872 36.5601C156.938 35.2256 158.491 33.3395 159.564 31.0341L154.124 28.5019ZM151.617 31.5199C150.63 32.1571 149.404 32.528 147.82 32.528V38.528C150.396 38.528 152.786 37.9069 154.872 36.5601L151.617 31.5199ZM147.82 32.528C146.47 32.528 145.381 32.2092 144.461 31.6368L141.291 36.7312C143.251 37.9508 145.459 38.528 147.82 38.528V32.528ZM144.501 31.6623C143.565 31.0589 143.052 30.3743 142.782 29.5984L137.115 31.5696C137.869 33.7377 139.307 35.4531 141.251 36.7057L144.501 31.6623ZM139.948 33.584H140.524V27.584H139.948V33.584ZM137.524 30.584V40.376H143.524V30.584H137.524ZM137.524 40.376C137.524 40.7293 137.477 40.9122 137.453 40.9787C137.436 41.0292 137.441 40.991 137.498 40.937L141.63 45.287C143.064 43.9249 143.524 42.0948 143.524 40.376H137.524ZM137.389 41.0458C137.424 41.0088 137.454 41.0014 137.423 41.0126C137.377 41.0292 137.228 41.072 136.924 41.072V47.072C138.635 47.072 140.406 46.5816 141.739 45.1782L137.389 41.0458ZM145.66 33.104C147.209 33.104 148.698 32.7081 150.012 31.8321L146.684 26.8398C146.462 26.9879 146.159 27.104 145.66 27.104V33.104ZM149.965 31.8628C151.345 30.9801 152.32 29.7167 152.939 28.2402L147.406 25.9198C147.193 26.4273 146.952 26.6679 146.731 26.8092L149.965 31.8628ZM152.921 28.2825C153.587 26.7591 153.844 25.0186 153.844 23.192H147.844C147.844 24.5014 147.653 25.3529 147.424 25.8775L152.921 28.2825ZM153.844 23.192C153.844 20.5453 153.317 17.9566 151.654 16.0711L147.155 20.0409C147.411 20.3314 147.844 21.1666 147.844 23.192H153.844ZM151.682 16.1036C150.126 14.2879 148.031 13.376 145.66 13.376V19.376C146.362 19.376 146.763 19.5841 147.126 20.0084L151.682 16.1036ZM145.66 13.376C144.147 13.376 142.692 13.7369 141.381 14.5235L144.468 19.6685C144.757 19.4951 145.125 19.376 145.66 19.376V13.376ZM141.334 14.552C139.945 15.4204 138.985 16.7026 138.352 18.1495L143.849 20.5545C144.112 19.9534 144.368 19.7316 144.514 19.64L141.334 14.552ZM138.366 18.1172C137.683 19.6291 137.428 21.3715 137.428 23.192H143.428C143.428 21.8765 143.621 21.0589 143.834 20.5868L138.366 18.1172ZM137.428 23.192C137.428 25.8585 137.963 28.4242 139.564 30.3446L144.173 26.5034C143.853 26.1198 143.428 25.1975 143.428 23.192H137.428ZM139.59 30.3764C141.16 32.2075 143.279 33.104 145.66 33.104V27.104C144.905 27.104 144.496 26.8805 144.146 26.4716L139.59 30.3764ZM164.685 33.176L162.433 35.1579L162.443 35.1692L162.453 35.1804L164.685 33.176ZM163.485 1.688L165.606 3.80932V3.80932L163.485 1.688ZM168.861 1.688L166.686 3.75425L166.739 3.81002L166.795 3.863L168.861 1.688ZM170.637 28.712L168.351 30.6549L168.404 30.7165L168.459 30.7752L170.637 28.712ZM174.333 29.528V32.528H174.52L174.705 32.5048L174.333 29.528ZM175.389 30.008L172.706 31.3496L172.775 31.4881L172.858 31.6186L175.389 30.008ZM175.149 34.376L177.492 36.2501L177.521 36.2135L177.549 36.176L175.149 34.376ZM173.373 35.336L173.672 38.3211L173.818 38.3065L173.961 38.2777L173.373 35.336ZM172.269 35.432L172.039 32.4408L171.925 32.4496L171.813 32.4669L172.269 35.432ZM171.069 32.528C168.76 32.528 167.576 31.9054 166.917 31.1716L162.453 35.1804C164.61 37.5826 167.682 38.528 171.069 38.528V32.528ZM166.937 31.1941C166.195 30.3503 165.573 28.8146 165.573 26.072H159.573C159.573 29.6014 160.359 32.8017 162.433 35.1579L166.937 31.1941ZM165.573 26.072V4.424H159.573V26.072H165.573ZM165.573 4.424C165.573 4.05705 165.62 3.8581 165.647 3.77668C165.669 3.7098 165.669 3.74683 165.606 3.80932L161.364 -0.433321C159.995 0.935718 159.573 2.74556 159.573 4.424H165.573ZM165.606 3.80932C165.587 3.82872 165.581 3.82018 165.642 3.7988C165.717 3.77276 165.894 3.728 166.221 3.728V-2.272C164.496 -2.272 162.724 -1.79369 161.364 -0.433318L165.606 3.80932ZM166.221 3.728C166.525 3.728 166.674 3.77081 166.72 3.78738C166.751 3.79858 166.721 3.79125 166.686 3.75425L171.036 -0.378247C169.703 -1.7816 167.932 -2.272 166.221 -2.272V3.728ZM166.795 3.863C166.738 3.80902 166.733 3.77084 166.75 3.82126C166.774 3.8878 166.821 4.07074 166.821 4.424H172.821C172.821 2.70518 172.361 0.875113 170.927 -0.486999L166.795 3.863ZM166.821 4.424V25.784H172.821V4.424H166.821ZM166.821 25.784C166.821 27.4279 167.149 29.2402 168.351 30.6549L172.923 26.7691C172.984 26.8411 172.958 26.849 172.915 26.6946C172.87 26.5328 172.821 26.2433 172.821 25.784H166.821ZM168.459 30.7752C169.666 32.0491 171.24 32.624 172.893 32.624V26.624C172.825 26.624 172.783 26.6184 172.764 26.6149C172.746 26.6116 172.745 26.6098 172.757 26.6147C172.77 26.6197 172.786 26.6278 172.8 26.638C172.815 26.648 172.82 26.6538 172.815 26.6488L168.459 30.7752ZM172.893 32.624C173.273 32.624 173.656 32.6003 174.037 32.5458L173.189 26.6062C173.122 26.6157 173.025 26.624 172.893 26.624V32.624ZM174.037 32.5458C174.104 32.5363 174.201 32.528 174.333 32.528V26.528C173.953 26.528 173.57 26.5517 173.189 26.6062L174.037 32.5458ZM174.705 32.5048C174.59 32.5193 174.211 32.5452 173.74 32.3311C173.22 32.0951 172.881 31.7002 172.706 31.3496L178.072 28.6664C177.705 27.9318 177.094 27.2649 176.222 26.8689C175.4 26.4948 174.588 26.4727 173.961 26.5512L174.705 32.5048ZM172.858 31.6186C172.734 31.4229 172.685 31.2749 172.673 31.2383C172.66 31.195 172.665 31.2 172.677 31.2731C172.7 31.4259 172.725 31.711 172.725 32.168H178.725C178.725 31.537 178.694 30.9181 178.605 30.3509C178.526 29.8422 178.362 29.0917 177.92 28.3974L172.858 31.6186ZM172.725 32.168C172.725 32.4559 172.695 32.6166 172.678 32.6827C172.662 32.7435 172.668 32.6845 172.749 32.576L177.549 36.176C178.474 34.9427 178.725 33.4686 178.725 32.168H172.725ZM172.806 32.5019C172.845 32.4539 172.884 32.4152 172.92 32.3858C172.956 32.3569 172.981 32.3418 172.991 32.3369C173.006 32.3284 172.952 32.3609 172.785 32.3943L173.961 38.2777C175.225 38.025 176.54 37.4394 177.492 36.2501L172.806 32.5019ZM173.075 32.3509C172.783 32.3801 172.438 32.4101 172.039 32.4408L172.499 38.4232C172.932 38.3899 173.323 38.3559 173.672 38.3211L173.075 32.3509ZM171.813 32.4669C171.534 32.5098 171.287 32.528 171.069 32.528V38.528C171.62 38.528 172.173 38.4822 172.725 38.3971L171.813 32.4669ZM181.869 34.52L183.186 31.8243L181.869 34.52ZM178.653 31.784L176.157 33.4481L178.653 31.784ZM178.845 23.816L181.072 25.8269L181.088 25.8093L181.103 25.7915L178.845 23.816ZM183.213 21.656L183.82 24.5941L183.842 24.5895L183.864 24.5846L183.213 21.656ZM193.773 20.984H196.773V17.984H193.773V20.984ZM193.773 24.728V27.728H196.773V24.728H193.773ZM187.293 25.016L187.771 27.9777L187.809 27.9716L187.846 27.9646L187.293 25.016ZM185.133 25.88L183.092 23.6816L183.051 23.7194L183.012 23.7587L185.133 25.88ZM185.421 29.816L183.358 31.9939L183.386 32.0202L183.415 32.0459L185.421 29.816ZM190.605 30.056L192.132 32.6388L192.149 32.6288L192.165 32.6186L190.605 30.056ZM192.333 28.28L194.945 29.7562L194.958 29.7326L194.971 29.7088L192.333 28.28ZM191.997 17.192L189.931 19.367L189.96 19.3948L189.991 19.4219L191.997 17.192ZM185.901 16.616L186.472 19.5613L186.507 19.5544L186.543 19.5467L185.901 16.616ZM182.589 17.624L181.488 14.8335L181.417 14.8614L181.348 14.8929L182.589 17.624ZM180.717 17.864L179.719 20.693L179.794 20.7196L179.871 20.7421L180.717 17.864ZM179.469 16.904L176.897 18.4475L176.921 18.4873L176.946 18.5263L179.469 16.904ZM179.517 13.736L182.061 15.326L182.083 15.2918L182.103 15.2571L179.517 13.736ZM181.101 12.536L182.087 15.3695L182.157 15.3451L182.226 15.3173L181.101 12.536ZM185.325 11.288L184.832 8.32879L184.821 8.33079L185.325 11.288ZM195.069 12.056L193.795 14.7717L193.828 14.7872L193.861 14.8019L195.069 12.056ZM198.669 15.368L196.021 16.7768L196.027 16.7887L196.034 16.8005L198.669 15.368ZM199.005 34.472L196.776 32.4651L199.005 34.472ZM193.965 34.472L191.736 36.4789L191.763 36.5089L191.79 36.5382L193.965 34.472ZM193.101 29.96L195.054 27.6822L190.101 23.4373V29.96H193.101ZM193.437 30.248L196.392 30.7694L196.689 29.084L195.39 27.9702L193.437 30.248ZM192.189 33.08L189.847 31.2059L189.842 31.2119L189.837 31.2179L192.189 33.08ZM189.837 34.904L191.03 37.6567L191.068 37.6401L191.106 37.6226L189.837 34.904ZM186.525 32.528C185.195 32.528 184.102 32.2717 183.186 31.8243L180.553 37.2157C182.389 38.1123 184.4 38.528 186.525 38.528V32.528ZM183.186 31.8243C182.236 31.3602 181.592 30.7838 181.15 30.1199L176.157 33.4481C177.251 35.0882 178.751 36.3358 180.553 37.2157L183.186 31.8243ZM181.15 30.1199C180.724 29.4812 180.501 28.7688 180.501 27.896H174.501C174.501 29.9032 175.047 31.7828 176.157 33.4481L181.15 30.1199ZM180.501 27.896C180.501 26.6873 180.806 26.1214 181.072 25.8269L176.619 21.8051C175.093 23.4946 174.501 25.6487 174.501 27.896H180.501ZM181.103 25.7915C181.398 25.455 182.133 24.9422 183.82 24.5941L182.607 18.7179C180.262 19.2018 178.085 20.129 176.588 21.8405L181.103 25.7915ZM183.864 24.5846C185.577 24.2038 188.005 23.984 191.229 23.984V17.984C187.798 17.984 184.881 18.2122 182.563 18.7274L183.864 24.5846ZM191.229 23.984H193.773V17.984H191.229V23.984ZM190.773 20.984V24.728H196.773V20.984H190.773ZM193.773 21.728H191.277V27.728H193.773V21.728ZM191.277 21.728C189.551 21.728 188.019 21.8277 186.741 22.0674L187.846 27.9646C188.616 27.8203 189.739 27.728 191.277 27.728V21.728ZM186.816 22.0543C185.579 22.2537 184.172 22.6785 183.092 23.6816L187.175 28.0784C187.067 28.1787 187.018 28.1796 187.124 28.1374C187.229 28.0954 187.433 28.0323 187.771 27.9777L186.816 22.0543ZM183.012 23.7587C181.9 24.8707 181.509 26.2873 181.509 27.608H187.509C187.509 27.5193 187.522 27.5457 187.487 27.6429C187.448 27.7519 187.371 27.8849 187.255 28.0013L183.012 23.7587ZM181.509 27.608C181.509 29.2635 182.107 30.8086 183.358 31.9939L187.485 27.6381C187.474 27.6284 187.477 27.6293 187.486 27.6417C187.49 27.6475 187.494 27.6546 187.499 27.6629C187.503 27.6711 187.507 27.6792 187.51 27.6867C187.517 27.7027 187.517 27.709 187.516 27.7006C187.514 27.6915 187.509 27.6622 187.509 27.608H181.509ZM183.415 32.0459C184.783 33.2774 186.512 33.68 188.157 33.68V27.68C187.435 27.68 187.34 27.5066 187.428 27.5861L183.415 32.0459ZM188.157 33.68C189.548 33.68 190.906 33.3632 192.132 32.6388L189.079 27.4732C188.897 27.5808 188.622 27.68 188.157 27.68V33.68ZM192.165 32.6186C193.33 31.9095 194.272 30.947 194.945 29.7562L189.722 26.8038C189.563 27.085 189.353 27.3065 189.046 27.4934L192.165 32.6186ZM194.971 29.7088C195.648 28.4597 195.957 27.0964 195.957 25.688H189.957C189.957 26.1996 189.851 26.5643 189.696 26.8512L194.971 29.7088ZM195.957 25.688V20.168H189.957V25.688H195.957ZM195.957 20.168C195.957 18.4331 195.582 16.3821 194.004 14.9621L189.991 19.4219C189.842 19.2883 189.831 19.1906 189.862 19.289C189.899 19.4037 189.957 19.6746 189.957 20.168H195.957ZM194.064 15.017C192.576 13.6041 190.515 13.28 188.733 13.28V19.28C189.319 19.28 189.688 19.3397 189.894 19.3973C190.095 19.4534 190.052 19.4815 189.931 19.367L194.064 15.017ZM188.733 13.28C187.614 13.28 186.452 13.4246 185.26 13.6853L186.543 19.5467C187.399 19.3594 188.125 19.28 188.733 19.28V13.28ZM185.331 13.6707C184.114 13.9063 182.829 14.3043 181.488 14.8335L183.691 20.4145C184.782 19.9837 185.705 19.7097 186.472 19.5613L185.331 13.6707ZM181.348 14.8929C181.209 14.9562 181.168 14.954 181.212 14.9484C181.236 14.9453 181.282 14.9417 181.345 14.946C181.41 14.9504 181.484 14.9625 181.564 14.9859L179.871 20.7421C181.322 21.1689 182.71 20.8644 183.831 20.3551L181.348 14.8929ZM181.716 15.035C181.713 15.0342 181.76 15.0506 181.827 15.1021C181.896 15.1554 181.953 15.2202 181.993 15.2817L176.946 18.5263C177.625 19.5824 178.602 20.2989 179.719 20.693L181.716 15.035ZM182.042 15.3605C182.034 15.3479 182.031 15.3412 182.031 15.3402C182.031 15.3393 182.032 15.342 182.033 15.3478C182.035 15.3535 182.036 15.3595 182.037 15.3647C182.038 15.3698 182.037 15.3712 182.037 15.368H176.037C176.037 16.472 176.338 17.5154 176.897 18.4475L182.042 15.3605ZM182.037 15.368C182.037 15.3634 182.038 15.3632 182.037 15.3663C182.037 15.3694 182.036 15.3725 182.036 15.3745C182.035 15.3765 182.035 15.3743 182.039 15.3674C182.042 15.3604 182.049 15.3466 182.061 15.326L176.973 12.146C176.371 13.1107 176.037 14.202 176.037 15.368H182.037ZM182.103 15.2571C182.081 15.2946 182.055 15.3296 182.028 15.3598C182.001 15.3898 181.978 15.4092 181.965 15.4193C181.939 15.4391 181.965 15.412 182.087 15.3695L180.116 9.70251C178.871 10.1355 177.691 10.9233 176.932 12.2149L182.103 15.2571ZM182.226 15.3173C183.572 14.7732 184.771 14.4261 185.83 14.2452L184.821 8.33079C183.256 8.59787 181.639 9.08283 179.977 9.75467L182.226 15.3173ZM185.819 14.2472C187.033 14.0448 188.098 13.952 189.021 13.952V7.952C187.705 7.952 186.306 8.08325 184.832 8.32882L185.819 14.2472ZM189.021 13.952C191.218 13.952 192.757 14.2847 193.795 14.7717L196.344 9.34029C194.246 8.35528 191.753 7.952 189.021 7.952V13.952ZM193.861 14.8019C194.862 15.2423 195.546 15.8842 196.021 16.7768L201.318 13.9592C200.193 11.8438 198.477 10.2777 196.278 9.31005L193.861 14.8019ZM196.034 16.8005C196.519 17.6937 196.869 19.0576 196.869 21.08H202.869C202.869 18.4304 202.42 15.9863 201.305 13.9355L196.034 16.8005ZM196.869 21.08V31.736H202.869V21.08H196.869ZM196.869 31.736C196.869 32.4585 196.696 32.5534 196.776 32.4651L201.235 36.4789C202.467 35.1106 202.869 33.3815 202.869 31.736H196.869ZM196.776 32.4651C196.79 32.4487 196.811 32.4299 196.835 32.4133C196.859 32.397 196.874 32.3912 196.872 32.392C196.867 32.3942 196.764 32.432 196.509 32.432V38.432C198.208 38.432 199.948 37.9098 201.235 36.4789L196.776 32.4651ZM196.509 32.432C196.257 32.432 196.142 32.3947 196.117 32.3852C196.104 32.3806 196.107 32.3803 196.118 32.3874C196.129 32.3947 196.137 32.4022 196.14 32.4058L191.79 36.5382C193.092 37.9081 194.804 38.432 196.509 38.432V32.432ZM196.195 32.4651C196.275 32.5534 196.101 32.4585 196.101 31.736H190.101C190.101 33.3815 190.504 35.1106 191.736 36.4789L196.195 32.4651ZM196.101 31.736V29.96H190.101V31.736H196.101ZM191.149 32.2378L191.485 32.5258L195.39 27.9702L195.054 27.6822L191.149 32.2378ZM190.483 29.7266C190.371 30.3595 190.148 30.8289 189.847 31.2059L194.532 34.9541C195.51 33.7311 196.119 32.3125 196.392 30.7694L190.483 29.7266ZM189.837 31.2179C189.542 31.5908 189.141 31.9184 188.569 32.1855L191.106 37.6226C192.454 36.9936 193.621 36.1052 194.542 34.9421L189.837 31.2179ZM188.645 32.1513C188.126 32.3759 187.441 32.528 186.525 32.528V38.528C188.106 38.528 189.628 38.2641 191.03 37.6567L188.645 32.1513ZM208.45 41.624L211.425 41.236L211.423 41.2273L211.422 41.2187L208.45 41.624ZM208.834 39.368L206.101 38.1308L206.094 38.1452L206.088 38.1598L208.834 39.368ZM212.05 32.264H215.05L209.317 31.0268L212.05 32.264ZM212.05 35.24L209.3 36.4389L215.05 35.24H212.05ZM203.554 15.752L200.754 16.8289L200.777 16.8905L200.804 16.9509L203.554 15.752ZM203.218 13.448L200.262 12.934L200.253 12.9882L200.245 13.0427L203.218 13.448ZM204.274 11.72L206.03 14.152L206.042 14.1437L206.053 14.1352L204.274 11.72ZM208.834 11.672L206.942 14.0003L207.021 14.0644L207.104 14.1229L208.834 11.672ZM210.322 13.928L213.114 12.8299L213.11 12.8218L213.107 12.8138L210.322 13.928ZM215.986 28.328V31.328H220.39L218.778 27.2299L215.986 28.328ZM214.45 28.328L211.67 27.2011L209.997 31.328H214.45V28.328ZM220.306 13.88L217.532 12.7377L217.529 12.7454L217.526 12.7531L220.306 13.88ZM221.794 11.672L223.524 14.1229L223.537 14.1135L223.55 14.104L221.794 11.672ZM226.066 11.72L224.019 13.9132L224.094 13.9834L224.174 14.0483L226.066 11.72ZM226.978 13.4L224.005 13.8053L224.014 13.8712L224.026 13.9367L226.978 13.4ZM226.594 15.704L223.87 14.4468L223.859 14.4702L223.849 14.4937L226.594 15.704ZM215.314 41.288L218.059 42.4989L218.059 42.4983L215.314 41.288ZM213.682 43.496L212.08 40.9595L212.049 40.9793L212.018 40.9999L213.682 43.496ZM211.474 41.072C211.327 41.072 211.266 41.0524 211.263 41.0514C211.261 41.0508 211.268 41.0532 211.281 41.0603C211.295 41.0676 211.307 41.0761 211.317 41.0842L207.503 45.7158C208.677 46.683 210.077 47.072 211.474 47.072V41.072ZM211.317 41.0842C211.321 41.0872 211.334 41.0987 211.351 41.1199C211.369 41.1414 211.386 41.1666 211.401 41.1935C211.432 41.2518 211.43 41.2776 211.425 41.236L205.475 42.012C205.664 43.4586 206.338 44.7563 207.503 45.7158L211.317 41.0842ZM211.422 41.2187C211.417 41.1768 211.399 40.986 211.58 40.5762L206.088 38.1598C205.564 39.35 205.291 40.6632 205.477 42.0293L211.422 41.2187ZM211.567 40.6052L214.783 33.5012L209.317 31.0268L206.101 38.1308L211.567 40.6052ZM209.05 32.264V35.24H215.05V32.264H209.05ZM214.8 34.0411L206.304 14.5531L200.804 16.9509L209.3 36.4389L214.8 34.0411ZM206.354 14.6751C206.17 14.1967 206.178 13.9447 206.19 13.8533L200.245 13.0427C200.066 14.3593 200.298 15.6433 200.754 16.8289L206.354 14.6751ZM206.173 13.962C206.18 13.9263 206.178 13.9616 206.138 14.0283C206.119 14.0592 206.097 14.0876 206.075 14.1115C206.053 14.135 206.036 14.148 206.03 14.152L202.517 9.28796C201.271 10.1878 200.517 11.4706 200.262 12.934L206.173 13.962ZM206.053 14.1352C205.976 14.1919 206.106 14.048 206.77 14.048V8.048C205.322 8.048 203.787 8.35213 202.494 9.30483L206.053 14.1352ZM206.77 14.048C206.965 14.048 207.053 14.0719 207.066 14.0756C207.071 14.0771 207.058 14.0737 207.033 14.0606C207.007 14.0474 206.975 14.0275 206.942 14.0003L210.726 9.34365C209.533 8.37442 208.107 8.048 206.77 8.048V14.048ZM207.104 14.1229C206.983 14.0377 206.999 14.0088 207.109 14.1758C207.216 14.3367 207.364 14.6114 207.536 15.0422L213.107 12.8138C212.595 11.5329 211.83 10.1147 210.564 9.22109L207.104 14.1229ZM207.53 15.0261L213.194 29.4261L218.778 27.2299L213.114 12.8299L207.53 15.0261ZM215.986 25.328H214.45V31.328H215.986V25.328ZM217.23 29.4549L223.086 15.0069L217.526 12.7531L211.67 27.2011L217.23 29.4549ZM223.08 15.0222C223.25 14.609 223.397 14.3445 223.502 14.1886C223.61 14.0279 223.63 14.0479 223.524 14.1229L220.064 9.22109C218.819 10.0996 218.052 11.4753 217.532 12.7377L223.08 15.0222ZM223.55 14.104C223.463 14.1671 223.551 14.048 224.098 14.048V8.048C222.725 8.048 221.277 8.34487 220.037 9.23996L223.55 14.104ZM224.098 14.048C224.248 14.048 224.284 14.0685 224.244 14.055C224.224 14.048 224.189 14.0337 224.145 14.0081C224.102 13.9822 224.058 13.95 224.019 13.9132L228.113 9.52683C226.94 8.43225 225.478 8.048 224.098 8.048V14.048ZM224.174 14.0483C224.136 14.0178 224.083 13.9603 224.041 13.8833C224.001 13.8098 224.001 13.7716 224.005 13.8053L229.95 12.9947C229.76 11.5993 229.109 10.3272 227.958 9.39165L224.174 14.0483ZM224.026 13.9367C224.016 13.883 224.068 14.018 223.87 14.4468L229.318 16.9612C229.888 15.726 230.195 14.325 229.929 12.8633L224.026 13.9367ZM223.849 14.4937L212.569 40.0777L218.059 42.4983L229.339 16.9143L223.849 14.4937ZM212.569 40.0771C212.393 40.4753 212.241 40.7264 212.133 40.8728C212.025 41.0197 211.996 41.0122 212.08 40.9595L215.284 46.0325C216.628 45.1833 217.48 43.8107 218.059 42.4989L212.569 40.0771ZM212.018 40.9999C212.061 40.9711 211.95 41.072 211.474 41.072V47.072C212.789 47.072 214.151 46.7889 215.346 45.9921L212.018 40.9999Z" fill="#5B3511"/>
</g>
<defs>
<filter id="filter0_d_27_62" x="0.548431" y="0.631958" width="227.621" height="46.4401" filterUnits="userSpaceOnUse" color-interpolation-filters="sRGB">
<feFlood flood-opacity="0" result="BackgroundImageFix"/>
<feColorMatrix in="SourceAlpha" type="matrix" values="0 0 0 0 0 0 0 0 0 0 0 0 0 0 0 0 0 0 127 0" result="hardAlpha"/>
<feOffset dy="2"/>
<feGaussianBlur stdDeviation="0.5"/>
<feComposite in2="hardAlpha" operator="out"/>
<feColorMatrix type="matrix" values="0 0 0 0 0 0 0 0 0 0 0 0 0 0 0 0 0 0 0.25 0"/>
<feBlend mode="normal" in2="BackgroundImageFix" result="effect1_dropShadow_27_62"/>
<feBlend mode="normal" in="SourceGraphic" in2="effect1_dropShadow_27_62" result="shape"/>
</filter>
<linearGradient id="paint0_linear_27_62" x1="113.5" y1="-13" x2="113.5" y2="52" gradientUnits="userSpaceOnUse">
<stop stop-color="#FDE092"/>
<stop offset="1" stop-color="#C18B2C"/>
</linearGradient>
</defs>
</svg>
