<svg width="125" height="48" viewBox="0 0 125 48" fill="none" xmlns="http://www.w3.org/2000/svg">
<g filter="url(#filter0_d_16_968)">
<path d="M14.6603 35.528C13.3163 35.528 11.9403 35.416 10.5323 35.192C9.15625 35 7.82825 34.712 6.54825 34.328C5.30025 33.944 4.18025 33.464 3.18825 32.888C2.48425 32.504 1.98825 32.008 1.70025 31.4C1.41225 30.76 1.30025 30.12 1.36425 29.48C1.46025 28.84 1.70025 28.28 2.08425 27.8C2.50025 27.288 3.01225 26.968 3.62025 26.84C4.26025 26.68 4.96425 26.792 5.73225 27.176C7.04425 27.912 8.46825 28.456 10.0043 28.808C11.5723 29.16 13.1243 29.336 14.6603 29.336C16.9963 29.336 18.6603 28.984 19.6523 28.28C20.6443 27.544 21.1403 26.632 21.1403 25.544C21.1403 24.616 20.7883 23.88 20.0843 23.336C19.3803 22.792 18.1483 22.328 16.3883 21.944L10.9643 20.792C7.89225 20.152 5.60425 19.064 4.10025 17.528C2.62825 15.96 1.89225 13.912 1.89225 11.384C1.89225 9.784 2.22825 8.328 2.90025 7.016C3.57225 5.704 4.51625 4.568 5.73225 3.608C6.94825 2.648 8.38825 1.912 10.0523 1.4C11.7483 0.887999 13.6043 0.631999 15.6203 0.631999C17.4123 0.631999 19.1723 0.855999 20.9003 1.304C22.6283 1.72 24.1483 2.344 25.4603 3.176C26.1003 3.56 26.5323 4.056 26.7563 4.664C27.0123 5.24 27.0923 5.832 26.9963 6.44C26.9323 7.016 26.6923 7.528 26.2762 7.976C25.8923 8.424 25.3963 8.712 24.7883 8.84C24.1803 8.968 23.4443 8.824 22.5803 8.408C21.5243 7.864 20.4043 7.464 19.2203 7.208C18.0363 6.952 16.8203 6.824 15.5723 6.824C14.2283 6.824 13.0763 7 12.1163 7.352C11.1883 7.704 10.4683 8.2 9.95625 8.84C9.47625 9.48 9.23625 10.216 9.23625 11.048C9.23625 11.976 9.57225 12.728 10.2443 13.304C10.9163 13.88 12.0843 14.344 13.7483 14.696L19.1723 15.848C22.3083 16.52 24.6443 17.608 26.1803 19.112C27.7163 20.584 28.4843 22.536 28.4843 24.968C28.4843 26.568 28.1643 28.024 27.5243 29.336C26.8843 30.616 25.9563 31.72 24.7403 32.648C23.5243 33.576 22.0683 34.296 20.3723 34.808C18.6763 35.288 16.7723 35.528 14.6603 35.528ZM43.9301 35.528C41.7221 35.528 39.8661 35.16 38.3621 34.424C36.8901 33.688 35.7861 32.616 35.0501 31.208C34.3461 29.8 33.9941 28.024 33.9941 25.88V16.856H31.9781C31.0821 16.856 30.3781 16.616 29.8661 16.136C29.3861 15.656 29.1461 15 29.1461 14.168C29.1461 13.272 29.3861 12.6 29.8661 12.152C30.3781 11.672 31.0821 11.432 31.9781 11.432H33.9941V7.784C33.9941 6.568 34.3141 5.656 34.9541 5.048C35.5941 4.408 36.4901 4.088 37.6421 4.088C38.8261 4.088 39.7221 4.408 40.3301 5.048C40.9381 5.656 41.2421 6.568 41.2421 7.784V11.432H45.8021C46.6981 11.432 47.3861 11.672 47.8661 12.152C48.3461 12.6 48.5861 13.272 48.5861 14.168C48.5861 15 48.3461 15.656 47.8661 16.136C47.3861 16.616 46.6981 16.856 45.8021 16.856H41.2421V25.592C41.2421 26.936 41.5461 27.944 42.1541 28.616C42.7941 29.288 43.8021 29.624 45.1781 29.624C45.6581 29.624 46.1061 29.576 46.5221 29.48C46.9381 29.384 47.3221 29.32 47.6741 29.288C48.1221 29.256 48.4901 29.4 48.7781 29.72C49.0661 30.008 49.2101 30.664 49.2101 31.688C49.2101 32.456 49.0821 33.128 48.8261 33.704C48.5701 34.28 48.1221 34.696 47.4821 34.952C47.0661 35.112 46.4901 35.24 45.7541 35.336C45.0501 35.464 44.4421 35.528 43.9301 35.528ZM62.862 35.528C60.334 35.528 58.126 35.032 56.238 34.04C54.382 33.048 52.942 31.624 51.918 29.768C50.894 27.912 50.382 25.72 50.382 23.192C50.382 21.304 50.67 19.608 51.246 18.104C51.822 16.6 52.654 15.32 53.742 14.264C54.862 13.176 56.19 12.36 57.726 11.816C59.262 11.24 60.974 10.952 62.862 10.952C65.39 10.952 67.582 11.448 69.438 12.44C71.326 13.432 72.782 14.84 73.806 16.664C74.862 18.488 75.39 20.664 75.39 23.192C75.39 25.112 75.086 26.824 74.478 28.328C73.902 29.832 73.07 31.128 71.982 32.216C70.894 33.304 69.566 34.136 67.998 34.712C66.462 35.256 64.75 35.528 62.862 35.528ZM62.862 30.104C63.918 30.104 64.83 29.848 65.598 29.336C66.366 28.824 66.974 28.072 67.422 27.08C67.87 26.056 68.094 24.76 68.094 23.192C68.094 20.856 67.614 19.144 66.654 18.056C65.694 16.936 64.43 16.376 62.862 16.376C61.838 16.376 60.926 16.616 60.126 17.096C59.358 17.576 58.75 18.328 58.302 19.352C57.886 20.344 57.678 21.624 57.678 23.192C57.678 25.528 58.158 27.272 59.118 28.424C60.078 29.544 61.326 30.104 62.862 30.104ZM83.5436 35.432C82.3276 35.432 81.3996 35.112 80.7596 34.472C80.1196 33.832 79.7996 32.92 79.7996 31.736V14.696C79.7996 13.512 80.1036 12.616 80.7116 12.008C81.3516 11.368 82.2316 11.048 83.3516 11.048C84.5036 11.048 85.3836 11.368 85.9916 12.008C86.5996 12.616 86.9036 13.512 86.9036 14.696V17.192H86.4236C86.8076 15.272 87.6556 13.784 88.9676 12.728C90.2796 11.672 91.9756 11.08 94.0556 10.952C94.8556 10.888 95.4636 11.096 95.8796 11.576C96.3276 12.024 96.5676 12.776 96.5996 13.832C96.6636 14.824 96.4556 15.608 95.9756 16.184C95.5276 16.76 94.7596 17.112 93.6716 17.24L92.5676 17.336C90.7436 17.496 89.3836 18.024 88.4876 18.92C87.6236 19.816 87.1916 21.112 87.1916 22.808V31.736C87.1916 32.92 86.8716 33.832 86.2316 34.472C85.6236 35.112 84.7276 35.432 83.5436 35.432ZM107.466 44.072C106.634 44.072 105.946 43.848 105.402 43.4C104.858 42.952 104.538 42.36 104.442 41.624C104.346 40.92 104.474 40.168 104.826 39.368L108.042 32.264V35.24L99.546 15.752C99.226 14.92 99.114 14.152 99.21 13.448C99.338 12.712 99.69 12.136 100.266 11.72C100.874 11.272 101.706 11.048 102.762 11.048C103.626 11.048 104.314 11.256 104.826 11.672C105.37 12.056 105.866 12.808 106.314 13.928L111.978 28.328H110.442L116.298 13.88C116.746 12.792 117.242 12.056 117.786 11.672C118.362 11.256 119.13 11.048 120.09 11.048C120.922 11.048 121.578 11.272 122.058 11.72C122.57 12.136 122.874 12.696 122.97 13.4C123.098 14.104 122.97 14.872 122.586 15.704L111.306 41.288C110.826 42.376 110.282 43.112 109.674 43.496C109.098 43.88 108.362 44.072 107.466 44.072Z" fill="url(#paint0_linear_16_968)"/>
<path d="M10.5323 35.192L11.0036 32.2293L10.9753 32.2248L10.9468 32.2208L10.5323 35.192ZM6.54825 34.328L5.66599 37.1953L5.67609 37.1984L5.68621 37.2015L6.54825 34.328ZM3.18825 32.888L4.69466 30.2936L4.65999 30.2735L4.62481 30.2543L3.18825 32.888ZM1.70025 31.4L-1.03551 32.6311L-1.0235 32.6578L-1.01096 32.6843L1.70025 31.4ZM1.36425 29.48L-1.60256 29.035L-1.61351 29.108L-1.62086 29.1815L1.36425 29.48ZM2.08425 27.8L-0.244092 25.9082L-0.251258 25.917L-0.258356 25.9259L2.08425 27.8ZM3.62025 26.84L4.23828 29.7757L4.29331 29.7641L4.34786 29.7504L3.62025 26.84ZM5.73225 27.176L7.2 24.5596L7.13774 24.5246L7.07389 24.4927L5.73225 27.176ZM10.0043 28.808L9.33412 31.7322L9.34714 31.7351L10.0043 28.808ZM19.6523 28.28L21.3885 30.7265L21.4143 30.7082L21.4398 30.6893L19.6523 28.28ZM20.0843 23.336L18.2499 25.7099H18.2499L20.0843 23.336ZM16.3883 21.944L17.0278 19.013L17.0196 19.0112L17.0115 19.0095L16.3883 21.944ZM10.9643 20.792L11.5875 17.8574L11.5761 17.8551L10.9643 20.792ZM4.10025 17.528L1.91303 19.5813L1.93464 19.6043L1.95672 19.6269L4.10025 17.528ZM2.90025 7.016L5.57038 8.38363L5.57038 8.38363L2.90025 7.016ZM5.73225 3.608L3.87332 1.25335L3.87332 1.25335L5.73225 3.608ZM10.0523 1.4L9.18524 -1.47199L9.17761 -1.46968L9.16999 -1.46734L10.0523 1.4ZM20.9002 1.304L20.1474 4.20799L20.1727 4.21455L20.1981 4.22067L20.9002 1.304ZM25.4603 3.176L23.8536 5.70952L23.885 5.72939L23.9168 5.74847L25.4603 3.176ZM26.7563 4.664L23.9412 5.70112L23.9751 5.79296L24.0148 5.88241L26.7563 4.664ZM26.9963 6.44L24.033 5.97212L24.0222 6.0402L24.0146 6.1087L26.9963 6.44ZM26.2762 7.976L24.0779 5.93464L24.0373 5.97835L23.9985 6.02363L26.2762 7.976ZM22.5803 8.408L21.2064 11.0749L21.2423 11.0935L21.2788 11.111L22.5803 8.408ZM19.2203 7.208L19.8542 4.27575H19.8542L19.2203 7.208ZM12.1163 7.352L11.0835 4.53537L11.0679 4.5411L11.0523 4.54701L12.1163 7.352ZM9.95625 8.84L7.61364 6.96591L7.58437 7.00251L7.55625 7.04L9.95625 8.84ZM13.7483 14.696L14.3715 11.7615L14.3691 11.761L13.7483 14.696ZM19.1723 15.848L19.8008 12.9146L19.7955 12.9135L19.1723 15.848ZM26.1803 19.112L24.0814 21.2555L24.0929 21.2668L24.1045 21.278L26.1803 19.112ZM27.5243 29.336L30.2075 30.6776L30.2141 30.6645L30.2206 30.6513L27.5243 29.336ZM24.7403 32.648L26.5603 35.0329L24.7403 32.648ZM20.3723 34.808L21.1892 37.6946L21.2143 37.6875L21.2393 37.68L20.3723 34.808ZM14.6603 32.528C13.4833 32.528 12.2651 32.43 11.0036 32.2293L10.0609 38.1547C11.6154 38.4021 13.1492 38.528 14.6603 38.528V32.528ZM10.9468 32.2208C9.71629 32.0491 8.53819 31.7929 7.41029 31.4545L5.68621 37.2015C7.11831 37.6311 8.59621 37.9509 10.1177 38.1632L10.9468 32.2208ZM7.43051 31.4607C6.37089 31.1346 5.46475 30.7408 4.69466 30.2936L1.68184 35.4824C2.89575 36.1872 4.22961 36.7534 5.66599 37.1953L7.43051 31.4607ZM4.62481 30.2543C4.48908 30.1803 4.42837 30.1255 4.40957 30.1067C4.39423 30.0913 4.40204 30.0958 4.41146 30.1157L-1.01096 32.6843C-0.40238 33.969 0.600616 34.8938 1.75169 35.5217L4.62481 30.2543ZM4.43601 30.1689C4.34344 29.9632 4.34235 29.8486 4.34936 29.7785L-1.62086 29.1815C-1.74185 30.3914 -1.51894 31.5568 -1.03551 32.6311L4.43601 30.1689ZM4.33106 29.925C4.35291 29.7793 4.39094 29.719 4.42686 29.6741L-0.258356 25.9259C-0.990444 26.841 -1.43241 27.9007 -1.60256 29.035L4.33106 29.925ZM4.41259 29.6918C4.43135 29.6687 4.41939 29.6893 4.37025 29.72C4.34728 29.7343 4.32206 29.7472 4.29642 29.7574C4.27092 29.7676 4.25059 29.7731 4.23828 29.7757L3.00222 23.9044C1.67793 24.1831 0.576708 24.898 -0.244092 25.9082L4.41259 29.6918ZM4.34786 29.7504C4.30074 29.7622 4.25661 29.7678 4.21933 29.7691C4.18262 29.7704 4.16072 29.7673 4.15691 29.7667C4.15173 29.7659 4.22657 29.7773 4.39061 29.8593L7.07389 24.4927C5.86214 23.8868 4.4146 23.5491 2.89264 23.9296L4.34786 29.7504ZM4.2645 29.7924C5.83795 30.6751 7.53223 31.3193 9.33412 31.7322L10.6744 25.8838C9.40427 25.5927 8.25055 25.1489 7.2 24.5596L4.2645 29.7924ZM9.34714 31.7351C11.1209 32.1333 12.8932 32.336 14.6603 32.336V26.336C13.3553 26.336 12.0236 26.1867 10.6614 25.8809L9.34714 31.7351ZM14.6603 32.336C17.1327 32.336 19.6007 31.9953 21.3885 30.7265L17.916 25.8335C17.7198 25.9727 16.8598 26.336 14.6603 26.336V32.336ZM21.4398 30.6893C23.0763 29.4751 24.1403 27.7199 24.1403 25.544H18.1403C18.1403 25.5862 18.1357 25.604 18.1355 25.6049C18.1354 25.6051 18.1357 25.6053 18.1328 25.6107C18.129 25.6178 18.0761 25.7138 17.8647 25.8707L21.4398 30.6893ZM24.1403 25.544C24.1403 23.7335 23.3939 22.1021 21.9186 20.9621L18.2499 25.7099C18.2619 25.7191 18.2521 25.7134 18.2321 25.6891C18.2115 25.6642 18.1889 25.6302 18.1698 25.5904C18.1509 25.5508 18.1424 25.5198 18.1392 25.5049C18.1363 25.4912 18.1403 25.5019 18.1403 25.544H24.1403ZM21.9186 20.9621C20.6575 19.9876 18.8661 19.414 17.0278 19.013L15.7488 24.875C17.4304 25.242 18.103 25.5964 18.2499 25.7099L21.9186 20.9621ZM17.0115 19.0095L11.5875 17.8575L10.341 23.7265L15.765 24.8785L17.0115 19.0095ZM11.5761 17.8551C8.83248 17.2835 7.1811 16.3864 6.24378 15.4291L1.95672 19.6269C4.0274 21.7416 6.95202 23.0205 10.3524 23.7289L11.5761 17.8551ZM6.28747 15.4747C5.42777 14.5589 4.89225 13.2919 4.89225 11.384H-1.10775C-1.10775 14.5321 -0.171274 17.3611 1.91303 19.5813L6.28747 15.4747ZM4.89225 11.384C4.89225 10.2181 5.13334 9.2369 5.57038 8.38363L0.230121 5.64837C-0.676836 7.41909 -1.10775 9.3499 -1.10775 11.384H4.89225ZM5.57038 8.38363C6.036 7.47457 6.69568 6.66962 7.59118 5.96264L3.87332 1.25335C2.33682 2.46638 1.1085 3.93343 0.23012 5.64837L5.57038 8.38363ZM7.59118 5.96265C8.48232 5.25912 9.58134 4.68369 10.9345 4.26733L9.16999 -1.46734C7.19516 -0.859697 5.41418 0.0368795 3.87332 1.25335L7.59118 5.96265ZM10.9193 4.27198C12.2984 3.85564 13.8582 3.632 15.6203 3.632V-2.368C13.3503 -2.368 11.1981 -2.07964 9.18524 -1.47199L10.9193 4.27198ZM15.6203 3.632C17.1592 3.632 18.6662 3.82399 20.1474 4.20799L21.6531 -1.59999C19.6783 -2.11199 17.6653 -2.368 15.6203 -2.368V3.632ZM20.1981 4.22067C21.651 4.57045 22.8569 5.07746 23.8536 5.70952L27.0669 0.64247C25.4396 -0.389464 23.6055 -1.13045 21.6024 -1.61267L20.1981 4.22067ZM23.9168 5.74847C24.0029 5.80013 24.0183 5.82501 24.002 5.80634C23.9943 5.79753 23.9826 5.78241 23.9702 5.76148C23.9577 5.74048 23.948 5.71953 23.9412 5.70112L29.5713 3.62688C29.0757 2.28169 28.1366 1.28326 27.0037 0.603521L23.9168 5.74847ZM24.0148 5.88241C24.0248 5.90482 24.0298 5.91999 24.0322 5.92837C24.0345 5.93662 24.0351 5.94076 24.0353 5.94175C24.0354 5.94271 24.0356 5.94405 24.0355 5.947C24.0355 5.95005 24.0352 5.95805 24.033 5.97212L29.9595 6.90788C30.1481 5.71378 29.9828 4.53706 29.4977 3.44559L24.0148 5.88241ZM24.0146 6.1087C24.018 6.07854 24.029 6.03148 24.0519 5.98269C24.074 5.93549 24.0916 5.91986 24.0779 5.93464L28.4746 10.0174C29.3027 9.12562 29.8388 8.02297 29.9779 6.7713L24.0146 6.1087ZM23.9985 6.02363C24.0193 5.9993 24.0581 5.96367 24.1098 5.93363C24.16 5.90452 24.1878 5.90065 24.1702 5.90435L25.4063 11.7756C26.624 11.5193 27.7163 10.9057 28.554 9.92837L23.9985 6.02363ZM24.1702 5.90435C24.3322 5.87026 24.4096 5.89425 24.3563 5.88382C24.2978 5.87237 24.1437 5.83116 23.8817 5.70499L21.2788 11.111C22.4338 11.6671 23.8824 12.0965 25.4063 11.7756L24.1702 5.90435ZM23.9541 5.74108C22.6596 5.07419 21.2903 4.58626 19.8542 4.27575L18.5863 10.1402C19.5182 10.3417 20.3889 10.6538 21.2064 11.0749L23.9541 5.74108ZM19.8542 4.27575C18.4557 3.97337 17.0269 3.824 15.5723 3.824V9.824C16.6136 9.824 17.6168 9.93063 18.5863 10.1402L19.8542 4.27575ZM15.5723 3.824C13.9805 3.824 12.46 4.03064 11.0835 4.53537L13.149 10.1686C13.6925 9.96936 14.476 9.824 15.5723 9.824V3.824ZM11.0523 4.54701C9.72836 5.04919 8.52522 5.82645 7.61364 6.96591L12.2989 10.7141C12.4113 10.5736 12.6481 10.3588 13.1802 10.157L11.0523 4.54701ZM7.55625 7.04C6.67041 8.22112 6.23625 9.59472 6.23625 11.048H12.2362C12.2362 10.8373 12.2821 10.7389 12.3562 10.64L7.55625 7.04ZM6.23625 11.048C6.23625 12.8033 6.91897 14.405 8.29188 15.5818L12.1966 11.0262C12.1805 11.0124 12.1823 11.0114 12.1928 11.0252C12.1978 11.0318 12.2038 11.0405 12.2102 11.0511C12.2165 11.0618 12.2223 11.073 12.2273 11.0842C12.2323 11.0953 12.2358 11.1049 12.2381 11.1123C12.2404 11.1196 12.2411 11.1233 12.241 11.1227C12.2408 11.1217 12.2362 11.0987 12.2362 11.048H6.23625ZM8.29188 15.5818C9.55773 16.6668 11.347 17.2544 13.1274 17.631L14.3691 11.761C13.6493 11.6087 13.114 11.4478 12.7318 11.2959C12.5436 11.2212 12.409 11.1551 12.3174 11.1033C12.2251 11.0511 12.192 11.0222 12.1966 11.0262L8.29188 15.5818ZM13.125 17.6305L18.549 18.7825L19.7955 12.9135L14.3715 11.7615L13.125 17.6305ZM18.5437 18.7814C21.38 19.3892 23.104 20.2985 24.0814 21.2555L28.2791 16.9685C26.1845 14.9175 23.2365 13.6508 19.8008 12.9146L18.5437 18.7814ZM24.1045 21.278C24.9636 22.1013 25.4842 23.2257 25.4842 24.968H31.4842C31.4842 21.8463 30.4689 19.0667 28.256 16.946L24.1045 21.278ZM25.4842 24.968C25.4842 26.1566 25.2495 27.1565 24.8279 28.0207L30.2206 30.6513C31.079 28.8915 31.4842 26.9794 31.4842 24.968H25.4842ZM24.841 27.9944C24.4194 28.8375 23.7983 29.593 22.9202 30.2631L26.5603 35.0329C28.1142 33.847 29.3491 32.3945 30.2075 30.6776L24.841 27.9944ZM22.9202 30.2631C22.0315 30.9414 20.9105 31.5118 19.5052 31.936L21.2393 37.68C23.226 37.0802 25.017 36.2106 26.5603 35.0329L22.9202 30.2631ZM19.5553 31.9214C18.1715 32.313 16.5488 32.528 14.6603 32.528V38.528C16.9957 38.528 19.181 38.263 21.1892 37.6946L19.5553 31.9214ZM38.3621 34.424L37.0205 37.1073L37.032 37.113L37.0435 37.1186L38.3621 34.424ZM35.0501 31.208L32.3668 32.5496L32.3789 32.5738L32.3914 32.5978L35.0501 31.208ZM33.9941 16.856H36.9941V13.856H33.9941V16.856ZM29.8661 16.136L27.7448 18.2573L27.779 18.2915L27.8143 18.3246L29.8661 16.136ZM29.8661 12.152L31.9131 14.3452L31.9179 14.3406L29.8661 12.152ZM33.9941 11.432V14.432H36.9941V11.432H33.9941ZM34.9541 5.048L37.0204 7.223L37.0483 7.19651L37.0754 7.16932L34.9541 5.048ZM40.3301 5.048L38.1551 7.11424L38.1816 7.14213L38.2088 7.16932L40.3301 5.048ZM41.2421 11.432H38.2421V14.432H41.2421V11.432ZM47.8661 12.152L45.7448 14.2733L45.7814 14.3099L45.8192 14.3452L47.8661 12.152ZM41.2421 16.856V13.856H38.2421V16.856H41.2421ZM42.1541 28.616L39.9295 30.6287L39.9553 30.6572L39.9817 30.685L42.1541 28.616ZM46.5221 29.48L47.1967 32.4032V32.4032L46.5221 29.48ZM47.6741 29.288L47.4604 26.2956L47.4314 26.2977L47.4025 26.3003L47.6741 29.288ZM48.7781 29.72L46.5482 31.7269L46.601 31.7855L46.6568 31.8413L48.7781 29.72ZM48.8261 33.704L51.5676 34.9224L51.5676 34.9224L48.8261 33.704ZM47.4821 34.952L48.5591 37.752L48.5777 37.7449L48.5963 37.7374L47.4821 34.952ZM45.7541 35.336L45.3661 32.3612L45.2915 32.3709L45.2175 32.3844L45.7541 35.336ZM43.9301 32.528C42.0396 32.528 40.665 32.211 39.6808 31.7294L37.0435 37.1186C39.0673 38.109 41.4046 38.528 43.9301 38.528V32.528ZM39.7038 31.7407C38.7742 31.2759 38.1417 30.6463 37.7088 29.8182L32.3914 32.5978C33.4306 34.5857 35.006 36.1001 37.0205 37.1073L39.7038 31.7407ZM37.7334 29.8664C37.299 28.9976 36.9941 27.7182 36.9941 25.88H30.9941C30.9941 28.3298 31.3932 30.6024 32.3668 32.5496L37.7334 29.8664ZM36.9941 25.88V16.856H30.9941V25.88H36.9941ZM33.9941 13.856H31.9781V19.856H33.9941V13.856ZM31.9781 13.856C31.7941 13.856 31.7302 13.831 31.7461 13.8365C31.7551 13.8395 31.7801 13.8491 31.8146 13.8696C31.8496 13.8903 31.8853 13.9167 31.9179 13.9474L27.8143 18.3246C29.0238 19.4585 30.539 19.856 31.9781 19.856V13.856ZM31.9874 14.0147C32.022 14.0493 32.0558 14.0908 32.085 14.137C32.1142 14.1829 32.1327 14.2237 32.1435 14.2533C32.1649 14.3118 32.1461 14.2979 32.1461 14.168H26.1461C26.1461 15.6048 26.5802 17.0928 27.7448 18.2573L31.9874 14.0147ZM32.1461 14.168C32.1461 13.9797 32.1723 13.9424 32.1514 14.001C32.14 14.0329 32.1168 14.0868 32.0747 14.1523C32.032 14.2187 31.9775 14.285 31.9131 14.3452L27.8192 9.95883C26.5345 11.1579 26.1461 12.7545 26.1461 14.168H32.1461ZM31.9179 14.3406C31.8853 14.3713 31.8496 14.3977 31.8146 14.4184C31.7801 14.4389 31.7551 14.4485 31.7461 14.4515C31.7302 14.457 31.7941 14.432 31.9781 14.432V8.432C30.539 8.432 29.0238 8.82945 27.8143 9.96339L31.9179 14.3406ZM31.9781 14.432H33.9941V8.432H31.9781V14.432ZM36.9941 11.432V7.784H30.9941V11.432H36.9941ZM36.9941 7.784C36.9941 7.43074 37.0416 7.2478 37.0649 7.18126C37.0826 7.13084 37.0772 7.16902 37.0204 7.223L32.8879 2.873C31.4541 4.23511 30.9941 6.06518 30.9941 7.784H36.9941ZM37.0754 7.16932C37.0757 7.16906 37.075 7.16973 37.0737 7.1708C37.0724 7.17187 37.0716 7.1723 37.0721 7.17199C37.0722 7.17197 37.0841 7.1643 37.1151 7.15322C37.1792 7.13035 37.3398 7.088 37.6421 7.088V1.088C35.9224 1.088 34.1783 1.58117 32.8328 2.92668L37.0754 7.16932ZM37.6421 7.088C37.971 7.088 38.1371 7.13323 38.1931 7.15322C38.2336 7.16767 38.1997 7.16121 38.1551 7.11424L42.5051 2.98175C41.1571 1.56281 39.3568 1.088 37.6421 1.088V7.088ZM38.2088 7.16932C38.1463 7.10683 38.1458 7.0698 38.1681 7.13668C38.1952 7.21809 38.2421 7.41705 38.2421 7.784H44.2421C44.2421 6.10556 43.8205 4.29572 42.4514 2.92668L38.2088 7.16932ZM38.2421 7.784V11.432H44.2421V7.784H38.2421ZM41.2421 14.432H45.8021V8.432H41.2421V14.432ZM45.8021 14.432C45.9881 14.432 46.0391 14.4575 46.002 14.4446C45.9818 14.4375 45.9427 14.4215 45.8929 14.3908C45.8425 14.3597 45.7915 14.32 45.7448 14.2733L49.9874 10.0307C48.7823 8.8255 47.2299 8.432 45.8021 8.432V14.432ZM45.8192 14.3452C45.7547 14.285 45.7003 14.2187 45.6576 14.1523C45.6155 14.0868 45.5923 14.0329 45.5809 14.001C45.56 13.9424 45.5861 13.9797 45.5861 14.168H51.5861C51.5861 12.7545 51.1977 11.1579 49.9131 9.95883L45.8192 14.3452ZM45.5861 14.168C45.5861 14.2979 45.5673 14.3118 45.5888 14.2533C45.5996 14.2237 45.6181 14.1829 45.6472 14.137C45.6765 14.0908 45.7102 14.0493 45.7448 14.0147L49.9874 18.2573C51.152 17.0928 51.5861 15.6048 51.5861 14.168H45.5861ZM45.7448 14.0147C45.7915 13.968 45.8425 13.9283 45.8929 13.8972C45.9427 13.8665 45.9818 13.8505 46.002 13.8434C46.0391 13.8305 45.9881 13.856 45.8021 13.856V19.856C47.2299 19.856 48.7823 19.4625 49.9874 18.2573L45.7448 14.0147ZM45.8021 13.856H41.2421V19.856H45.8021V13.856ZM38.2421 16.856V25.592H44.2421V16.856H38.2421ZM38.2421 25.592C38.2421 27.3284 38.6284 29.1907 39.9295 30.6287L44.3787 26.6033C44.4638 26.6973 44.2421 26.5436 44.2421 25.592H38.2421ZM39.9817 30.685C41.413 32.1878 43.3776 32.624 45.1781 32.624V26.624C44.7226 26.624 44.4619 26.567 44.3388 26.526C44.2321 26.4904 44.2621 26.4793 44.3265 26.547L39.9817 30.685ZM45.1781 32.624C45.8576 32.624 46.5341 32.5561 47.1967 32.4032L45.8475 26.5568C45.6782 26.5959 45.4587 26.624 45.1781 26.624V32.624ZM47.1967 32.4032C47.5063 32.3317 47.7538 32.2931 47.9457 32.2757L47.4025 26.3003C46.8905 26.3469 46.37 26.4363 45.8475 26.5568L47.1967 32.4032ZM47.8879 32.2804C47.7278 32.2918 47.4778 32.2772 47.1929 32.1657C46.904 32.0527 46.6882 31.8825 46.5482 31.7269L51.008 27.7131C50.0705 26.6715 48.7849 26.201 47.4604 26.2956L47.8879 32.2804ZM46.6568 31.8413C46.4176 31.6021 46.2949 31.375 46.2392 31.2534C46.183 31.1305 46.1691 31.0583 46.1719 31.0712C46.1739 31.0803 46.1846 31.1341 46.1941 31.2452C46.2034 31.3543 46.2101 31.5001 46.2101 31.688H52.2101C52.2101 31.0598 52.1682 30.4034 52.0324 29.7848C51.9092 29.2236 51.6337 28.3329 50.8994 27.5987L46.6568 31.8413ZM46.2101 31.688C46.2101 32.1259 46.1372 32.3674 46.0847 32.4856L51.5676 34.9224C52.027 33.8886 52.2101 32.7861 52.2101 31.688H46.2101ZM46.0847 32.4856C46.1162 32.4147 46.1743 32.3262 46.2568 32.2496C46.3354 32.1767 46.3888 32.1582 46.368 32.1666L48.5963 37.7374C49.8878 37.2208 50.9629 36.2829 51.5676 34.9224L46.0847 32.4856ZM46.4052 32.152C46.309 32.1889 46.0001 32.2785 45.3661 32.3612L46.1421 38.3108C46.9802 38.2015 47.8232 38.0351 48.5591 37.752L46.4052 32.152ZM45.2175 32.3844C44.6266 32.4918 44.2071 32.528 43.9301 32.528V38.528C44.6772 38.528 45.4737 38.4362 46.2908 38.2876L45.2175 32.3844ZM56.238 34.04L54.8239 36.6858L54.8332 36.6908L54.8426 36.6957L56.238 34.04ZM51.918 29.768L49.2913 31.2172L51.918 29.768ZM51.246 18.104L48.4444 17.0311L51.246 18.104ZM53.742 14.264L55.8314 16.4167L55.8324 16.4158L53.742 14.264ZM57.726 11.816L58.7275 14.6439L58.7535 14.6347L58.7794 14.625L57.726 11.816ZM69.438 12.44L68.0239 15.0858L68.0332 15.0908L68.0426 15.0957L69.438 12.44ZM73.806 16.664L71.19 18.1326L71.1998 18.1499L71.2097 18.1671L73.806 16.664ZM74.478 28.328L71.6967 27.2036L71.6863 27.2293L71.6764 27.2551L74.478 28.328ZM71.982 32.216L74.1033 34.3373V34.3373L71.982 32.216ZM67.998 34.712L68.9995 37.5399L69.016 37.534L69.0325 37.528L67.998 34.712ZM65.598 29.336L63.9339 26.8398L65.598 29.336ZM67.422 27.08L70.1561 28.3148L70.1634 28.2986L70.1705 28.2825L67.422 27.08ZM66.654 18.056L64.3762 20.0084L64.3902 20.0247L64.4045 20.0409L66.654 18.056ZM60.126 17.096L58.5825 14.5235L58.5591 14.5375L58.536 14.552L60.126 17.096ZM58.302 19.352L55.5535 18.1495L55.5443 18.1706L55.5354 18.1918L58.302 19.352ZM59.118 28.424L56.8133 30.3446L56.8267 30.3606L56.8402 30.3764L59.118 28.424ZM62.862 32.528C60.7303 32.528 59.018 32.1118 57.6334 31.3843L54.8426 36.6957C57.234 37.9522 59.9377 38.528 62.862 38.528V32.528ZM57.6521 31.3942C56.3114 30.6776 55.2908 29.671 54.5447 28.3188L49.2913 31.2172C50.5932 33.577 52.4526 35.4184 54.8239 36.6858L57.6521 31.3942ZM54.5447 28.3188C53.8087 26.9848 53.382 25.3107 53.382 23.192H47.382C47.382 26.1293 47.9793 28.8392 49.2913 31.2172L54.5447 28.3188ZM53.382 23.192C53.382 21.6087 53.6232 20.2849 54.0476 19.1769L48.4444 17.0311C47.7168 18.9311 47.382 20.9993 47.382 23.192H53.382ZM54.0476 19.1769C54.4774 18.0545 55.0758 17.1502 55.8314 16.4167L51.6526 12.1113C50.2322 13.4898 49.1666 15.1455 48.4444 17.0311L54.0476 19.1769ZM55.8324 16.4158C56.6288 15.6421 57.5808 15.05 58.7275 14.6439L56.7245 8.98812C54.7992 9.66996 53.0952 10.7099 51.6516 12.1122L55.8324 16.4158ZM58.7794 14.625C59.9318 14.1928 61.2802 13.952 62.862 13.952V7.952C60.6678 7.952 58.5922 8.28718 56.6726 9.00701L58.7794 14.625ZM62.862 13.952C64.9954 13.952 66.6824 14.3688 68.0239 15.0858L70.8521 9.7942C68.4816 8.52719 65.7846 7.952 62.862 7.952V13.952ZM68.0426 15.0957C69.4283 15.8238 70.4556 16.8243 71.19 18.1326L76.422 15.1954C75.1085 12.8557 73.2237 11.0402 70.8334 9.78427L68.0426 15.0957ZM71.2097 18.1671C71.953 19.451 72.39 21.0864 72.39 23.192H78.39C78.39 20.2416 77.771 17.525 76.4023 15.1609L71.2097 18.1671ZM72.39 23.192C72.39 24.7961 72.1363 26.1161 71.6967 27.2036L77.2593 29.4524C78.0357 27.5319 78.39 25.4279 78.39 23.192H72.39ZM71.6764 27.2551C71.2439 28.3845 70.637 29.3184 69.8607 30.0947L74.1033 34.3373C75.503 32.9376 76.5601 31.2795 77.2796 29.4009L71.6764 27.2551ZM69.8607 30.0947C69.106 30.8494 68.1586 31.457 66.9635 31.896L69.0325 37.528C70.9734 36.815 72.682 35.7586 74.1033 34.3373L69.8607 30.0947ZM66.9965 31.8841C65.8286 32.2977 64.4619 32.528 62.862 32.528V38.528C65.0381 38.528 67.0954 38.2143 68.9995 37.5399L66.9965 31.8841ZM62.862 33.104C64.4224 33.104 65.9329 32.7183 67.2621 31.8321L63.9339 26.8398C63.7271 26.9777 63.4136 27.104 62.862 27.104V33.104ZM67.2621 31.8321C68.5762 30.9561 69.5187 29.7261 70.1561 28.3148L64.6879 25.8452C64.4293 26.4179 64.1558 26.6919 63.9339 26.8398L67.2621 31.8321ZM70.1705 28.2825C70.837 26.7591 71.094 25.0186 71.094 23.192H65.094C65.094 24.5014 64.903 25.3529 64.6735 25.8775L70.1705 28.2825ZM71.094 23.192C71.094 20.5453 70.5671 17.9566 68.9035 16.0711L64.4045 20.0409C64.6609 20.3314 65.094 21.1666 65.094 23.192H71.094ZM68.9318 16.1036C67.3622 14.2725 65.243 13.376 62.862 13.376V19.376C63.617 19.376 64.0258 19.5995 64.3762 20.0084L68.9318 16.1036ZM62.862 13.376C61.349 13.376 59.8936 13.7369 58.5825 14.5235L61.6695 19.6685C61.9584 19.4951 62.327 19.376 62.862 19.376V13.376ZM58.536 14.552C57.1466 15.4204 56.1866 16.7026 55.5535 18.1495L61.0505 20.5545C61.3134 19.9534 61.5694 19.7316 61.716 19.64L58.536 14.552ZM55.5354 18.1918C54.9118 19.679 54.678 21.3926 54.678 23.192H60.678C60.678 21.8554 60.8602 21.009 61.0686 20.5122L55.5354 18.1918ZM54.678 23.192C54.678 25.8585 55.213 28.4242 56.8133 30.3446L61.4227 26.5034C61.103 26.1198 60.678 25.1975 60.678 23.192H54.678ZM56.8402 30.3764C58.3965 32.1921 60.4916 33.104 62.862 33.104V27.104C62.1604 27.104 61.7595 26.8959 61.3958 26.4716L56.8402 30.3764ZM80.7596 34.472L78.6383 36.5933L80.7596 34.472ZM80.7116 12.008L78.5903 9.88668L78.5903 9.88668L80.7116 12.008ZM85.9916 12.008L83.8166 14.0742L83.8431 14.1021L83.8703 14.1293L85.9916 12.008ZM86.9036 17.192V20.192H89.9036V17.192H86.9036ZM86.4236 17.192L83.4819 16.6037L82.7642 20.192H86.4236V17.192ZM94.0556 10.952L94.2399 13.9463L94.2674 13.9446L94.2949 13.9424L94.0556 10.952ZM95.8796 11.576L93.6126 13.5408L93.6826 13.6217L93.7583 13.6973L95.8796 11.576ZM96.5996 13.832L93.601 13.9229L93.6026 13.974L93.6059 14.0251L96.5996 13.832ZM95.9756 16.184L93.671 14.2634L93.6386 14.3023L93.6076 14.3422L95.9756 16.184ZM93.6716 17.24L93.9315 20.2287L93.9769 20.2248L94.0221 20.2195L93.6716 17.24ZM92.5676 17.336L92.3077 14.3473L92.3055 14.3475L92.5676 17.336ZM88.4876 18.92L86.3663 16.7987L86.347 16.818L86.3281 16.8376L88.4876 18.92ZM86.2316 34.472L84.1103 32.3507L84.0831 32.3779L84.0566 32.4058L86.2316 34.472ZM83.5436 32.432C83.1921 32.432 82.9981 32.385 82.9136 32.3559C82.843 32.3315 82.8524 32.3221 82.8809 32.3507L78.6383 36.5933C80.0129 37.9679 81.8136 38.432 83.5436 38.432V32.432ZM82.8809 32.3507C82.9003 32.3701 82.8918 32.3757 82.8704 32.3147C82.8444 32.2405 82.7996 32.0632 82.7996 31.736H76.7996C76.7996 33.4606 77.2779 35.2329 78.6383 36.5933L82.8809 32.3507ZM82.7996 31.736V14.696H76.7996V31.736H82.7996ZM82.7996 14.696C82.7996 14.353 82.8446 14.1707 82.8686 14.0999C82.8877 14.0434 82.886 14.0762 82.8329 14.1293L78.5903 9.88668C77.2349 11.2421 76.7996 13.0227 76.7996 14.696H82.7996ZM82.8329 14.1293C82.8368 14.1254 82.8379 14.1249 82.8386 14.1245C82.8396 14.1238 82.8503 14.117 82.8769 14.1074C82.9309 14.0877 83.0745 14.048 83.3516 14.048V8.048C81.6362 8.048 79.9202 8.55676 78.5903 9.88668L82.8329 14.1293ZM83.3516 14.048C83.6556 14.048 83.8048 14.0908 83.8504 14.1074C83.8812 14.1186 83.8518 14.1112 83.8166 14.0742L88.1666 9.94175C86.8334 8.5384 85.0628 8.048 83.3516 8.048V14.048ZM83.8703 14.1293C83.8172 14.0762 83.8155 14.0434 83.8347 14.0999C83.8587 14.1707 83.9036 14.353 83.9036 14.696H89.9036C89.9036 13.0227 89.4683 11.2421 88.1129 9.88668L83.8703 14.1293ZM83.9036 14.696V17.192H89.9036V14.696H83.9036ZM86.9036 14.192H86.4236V20.192H86.9036V14.192ZM89.3654 17.7803C89.6351 16.4315 90.1711 15.6104 90.8487 15.065L87.0866 10.391C85.1402 11.9576 83.9801 14.1125 83.4819 16.6037L89.3654 17.7803ZM90.8487 15.065C91.5723 14.4826 92.631 14.0453 94.2399 13.9463L93.8714 7.95766C91.3202 8.11466 88.987 8.86138 87.0866 10.391L90.8487 15.065ZM94.2949 13.9424C94.384 13.9353 94.3092 13.9562 94.1406 13.8985C93.9491 13.833 93.756 13.7063 93.6126 13.5408L98.1467 9.61121C96.9433 8.22272 95.2895 7.84371 93.8164 7.96155L94.2949 13.9424ZM93.7583 13.6973C93.5707 13.5097 93.5281 13.3583 93.5377 13.3881C93.5422 13.4024 93.5561 13.4511 93.57 13.5433C93.5838 13.6351 93.5961 13.76 93.601 13.9229L99.5983 13.7411C99.5576 12.399 99.2523 10.706 98.0009 9.45468L93.7583 13.6973ZM93.6059 14.0251C93.6215 14.2677 93.5964 14.3779 93.5919 14.3947C93.5902 14.4014 93.5934 14.387 93.6077 14.3588C93.6223 14.3299 93.6435 14.2964 93.671 14.2634L98.2803 18.1046C99.3953 16.7666 99.6903 15.1411 99.5934 13.6389L93.6059 14.0251ZM93.6076 14.3422C93.6616 14.2727 93.7162 14.2223 93.7596 14.1891C93.8016 14.1571 93.8243 14.1479 93.8137 14.1528C93.7846 14.1661 93.6411 14.2229 93.3211 14.2605L94.0221 20.2195C95.5119 20.0442 97.2024 19.4932 98.3437 18.0258L93.6076 14.3422ZM93.4117 14.2513L92.3077 14.3473L92.8275 20.3247L93.9315 20.2287L93.4117 14.2513ZM92.3055 14.3475C90.0847 14.5423 87.9417 15.2233 86.3663 16.7987L90.6089 21.0413C90.8256 20.8247 91.4025 20.4497 92.8298 20.3245L92.3055 14.3475ZM86.3281 16.8376C84.754 18.47 84.1916 20.6223 84.1916 22.808H90.1916C90.1916 21.6017 90.4932 21.162 90.6472 21.0024L86.3281 16.8376ZM84.1916 22.808V31.736H90.1916V22.808H84.1916ZM84.1916 31.736C84.1916 32.0632 84.1469 32.2405 84.1208 32.3147C84.0994 32.3757 84.0909 32.3701 84.1103 32.3507L88.3529 36.5933C89.7133 35.2329 90.1916 33.4606 90.1916 31.736H84.1916ZM84.0566 32.4058C84.1012 32.3588 84.1351 32.3523 84.0946 32.3668C84.0386 32.3868 83.8725 32.432 83.5436 32.432V38.432C85.2583 38.432 87.0586 37.9572 88.4066 36.5382L84.0566 32.4058ZM104.442 41.624L107.417 41.236L107.416 41.2273L107.414 41.2187L104.442 41.624ZM104.826 39.368L102.093 38.1308L102.086 38.1452L102.08 38.1598L104.826 39.368ZM108.042 32.264H111.042L105.309 31.0268L108.042 32.264ZM108.042 35.24L105.292 36.4389L111.042 35.24H108.042ZM99.546 15.752L96.746 16.8289L96.7696 16.8905L96.796 16.9509L99.546 15.752ZM99.21 13.448L96.2544 12.934L96.2449 12.9882L96.2375 13.0427L99.21 13.448ZM100.266 11.72L102.022 14.152L102.034 14.1437L102.046 14.1352L100.266 11.72ZM104.826 11.672L102.934 14.0003L103.013 14.0644L103.096 14.1229L104.826 11.672ZM106.314 13.928L109.106 12.8299L109.103 12.8218L109.099 12.8138L106.314 13.928ZM111.978 28.328V31.328H116.382L114.77 27.2299L111.978 28.328ZM110.442 28.328L107.662 27.2011L105.989 31.328H110.442V28.328ZM116.298 13.88L113.524 12.7377L113.521 12.7454L113.518 12.7531L116.298 13.88ZM117.786 11.672L119.516 14.1229L119.529 14.1135L119.542 14.104L117.786 11.672ZM122.058 11.72L120.011 13.9132L120.086 13.9834L120.166 14.0483L122.058 11.72ZM122.97 13.4L119.998 13.8053L120.007 13.8712L120.018 13.9367L122.97 13.4ZM122.586 15.704L119.862 14.4468L119.851 14.4702L119.841 14.4937L122.586 15.704ZM111.306 41.288L114.051 42.4989L114.051 42.4983L111.306 41.288ZM109.674 43.496L108.072 40.9595L108.041 40.9793L108.01 40.9999L109.674 43.496ZM107.466 41.072C107.319 41.072 107.258 41.0524 107.255 41.0514C107.253 41.0508 107.26 41.0532 107.274 41.0603C107.287 41.0676 107.299 41.0761 107.309 41.0842L103.495 45.7158C104.669 46.683 106.07 47.072 107.466 47.072V41.072ZM107.309 41.0842C107.313 41.0872 107.326 41.0987 107.344 41.1199C107.361 41.1414 107.379 41.1666 107.393 41.1935C107.425 41.2518 107.422 41.2776 107.417 41.236L101.467 42.012C101.656 43.4586 102.33 44.7563 103.495 45.7158L107.309 41.0842ZM107.414 41.2187C107.409 41.1768 107.392 40.986 107.572 40.5762L102.08 38.1598C101.556 39.35 101.283 40.6632 101.47 42.0293L107.414 41.2187ZM107.559 40.6052L110.775 33.5012L105.309 31.0268L102.093 38.1308L107.559 40.6052ZM105.042 32.264V35.24H111.042V32.264H105.042ZM110.792 34.0411L102.296 14.5531L96.796 16.9509L105.292 36.4389L110.792 34.0411ZM102.346 14.6751C102.162 14.1967 102.17 13.9447 102.182 13.8533L96.2375 13.0427C96.058 14.3593 96.2899 15.6433 96.746 16.8289L102.346 14.6751ZM102.166 13.962C102.172 13.9263 102.171 13.9616 102.13 14.0283C102.111 14.0592 102.089 14.0876 102.067 14.1115C102.045 14.135 102.028 14.148 102.022 14.152L98.5095 9.28796C97.2636 10.1878 96.5089 11.4706 96.2544 12.934L102.166 13.962ZM102.046 14.1352C101.969 14.1919 102.098 14.048 102.762 14.048V8.048C101.314 8.048 99.7794 8.35213 98.4864 9.30483L102.046 14.1352ZM102.762 14.048C102.957 14.048 103.045 14.0719 103.058 14.0756C103.063 14.0771 103.05 14.0737 103.025 14.0606C102.999 14.0474 102.968 14.0275 102.934 14.0003L106.718 9.34365C105.525 8.37442 104.1 8.048 102.762 8.048V14.048ZM103.096 14.1229C102.975 14.0377 102.992 14.0088 103.102 14.1758C103.208 14.3367 103.356 14.6114 103.529 15.0422L109.099 12.8138C108.587 11.5329 107.822 10.1147 106.556 9.22109L103.096 14.1229ZM103.522 15.0261L109.186 29.4261L114.77 27.2299L109.106 12.8299L103.522 15.0261ZM111.978 25.328H110.442V31.328H111.978V25.328ZM113.222 29.4549L119.078 15.0069L113.518 12.7531L107.662 27.2011L113.222 29.4549ZM119.072 15.0222C119.242 14.609 119.389 14.3445 119.494 14.1886C119.602 14.0279 119.622 14.0479 119.516 14.1229L116.056 9.22109C114.811 10.0996 114.044 11.4753 113.524 12.7377L119.072 15.0222ZM119.542 14.104C119.455 14.1671 119.543 14.048 120.09 14.048V8.048C118.717 8.048 117.269 8.34487 116.03 9.23996L119.542 14.104ZM120.09 14.048C120.24 14.048 120.276 14.0685 120.237 14.055C120.216 14.048 120.181 14.0337 120.138 14.0081C120.094 13.9822 120.05 13.95 120.011 13.9132L124.105 9.52683C122.932 8.43225 121.471 8.048 120.09 8.048V14.048ZM120.166 14.0483C120.129 14.0178 120.075 13.9603 120.033 13.8833C119.994 13.8098 119.993 13.7716 119.998 13.8053L125.942 12.9947C125.752 11.5993 125.101 10.3272 123.95 9.39165L120.166 14.0483ZM120.018 13.9367C120.009 13.883 120.06 14.018 119.862 14.4468L125.31 16.9612C125.88 15.726 126.187 14.325 125.922 12.8633L120.018 13.9367ZM119.841 14.4937L108.561 40.0777L114.051 42.4983L125.331 16.9143L119.841 14.4937ZM108.561 40.0771C108.386 40.4753 108.234 40.7264 108.125 40.8728C108.017 41.0197 107.989 41.0122 108.072 40.9595L111.276 46.0325C112.62 45.1833 113.472 43.8107 114.051 42.4989L108.561 40.0771ZM108.01 40.9999C108.053 40.9711 107.942 41.072 107.466 41.072V47.072C108.782 47.072 110.143 46.7889 111.338 45.9921L108.01 40.9999Z" fill="#5B3511"/>
</g>
<defs>
<filter id="filter0_d_16_968" x="0.26825" y="0.632019" width="123.894" height="46.44" filterUnits="userSpaceOnUse" color-interpolation-filters="sRGB">
<feFlood flood-opacity="0" result="BackgroundImageFix"/>
<feColorMatrix in="SourceAlpha" type="matrix" values="0 0 0 0 0 0 0 0 0 0 0 0 0 0 0 0 0 0 127 0" result="hardAlpha"/>
<feOffset dy="2"/>
<feGaussianBlur stdDeviation="0.5"/>
<feComposite in2="hardAlpha" operator="out"/>
<feColorMatrix type="matrix" values="0 0 0 0 0 0 0 0 0 0 0 0 0 0 0 0 0 0 0.25 0"/>
<feBlend mode="normal" in2="BackgroundImageFix" result="effect1_dropShadow_16_968"/>
<feBlend mode="normal" in="SourceGraphic" in2="effect1_dropShadow_16_968" result="shape"/>
</filter>
<linearGradient id="paint0_linear_16_968" x1="61.5" y1="-13" x2="61.5" y2="52" gradientUnits="userSpaceOnUse">
<stop stop-color="#FDE092"/>
<stop offset="1" stop-color="#C18B2C"/>
</linearGradient>
</defs>
</svg>
