<svg width="131" height="27" viewBox="0 0 131 27" fill="none" xmlns="http://www.w3.org/2000/svg">
<g filter="url(#filter0_d_42_522)">
<path d="M3.7375 23.288C2.92683 23.288 2.2975 23.064 1.8495 22.616C1.42283 22.168 1.2095 21.5173 1.2095 20.664V3.032C1.2095 1.304 2.0735 0.439999 3.8015 0.439999H14.7455C16.0468 0.439999 16.6975 1.08 16.6975 2.36C16.6975 3.66133 16.0468 4.312 14.7455 4.312H6.1695V9.816H14.0415C15.3642 9.816 16.0255 10.456 16.0255 11.736C16.0255 13.0373 15.3642 13.688 14.0415 13.688H6.1695V20.664C6.1695 22.4133 5.35883 23.288 3.7375 23.288ZM26.6723 23.352C24.8163 23.352 23.2163 23.0213 21.8723 22.36C20.5496 21.6773 19.5256 20.728 18.8003 19.512C18.0963 18.2747 17.7443 16.824 17.7443 15.16C17.7443 13.5387 18.0856 12.12 18.7682 10.904C19.4723 9.66667 20.4216 8.70667 21.6163 8.024C22.8323 7.32 24.2296 6.968 25.8083 6.968C28.0909 6.968 29.9043 7.69333 31.2483 9.144C32.5923 10.5733 33.2643 12.5147 33.2643 14.968C33.2643 15.7787 32.7629 16.184 31.7603 16.184H22.3523C22.5229 17.4213 22.9709 18.328 23.6963 18.904C24.4429 19.4587 25.4669 19.736 26.7683 19.736C27.2803 19.736 27.8563 19.6827 28.4963 19.576C29.1576 19.448 29.7869 19.2347 30.3843 18.936C31.0029 18.6373 31.5256 18.584 31.9523 18.776C32.3789 18.9467 32.6669 19.2453 32.8162 19.672C32.9869 20.0987 32.9869 20.5467 32.8162 21.016C32.6669 21.464 32.3149 21.8373 31.7603 22.136C31.0136 22.5413 30.1816 22.84 29.2643 23.032C28.3683 23.2453 27.5043 23.352 26.6723 23.352ZM26.0003 10.168C24.9763 10.168 24.1443 10.4773 23.5043 11.096C22.8856 11.7147 22.5016 12.5787 22.3523 13.688H29.2643C29.1363 11.3413 28.0483 10.168 26.0003 10.168ZM41.3868 23.352C40.2134 23.352 39.1788 23.128 38.2828 22.68C37.3868 22.232 36.6721 21.624 36.1388 20.856C35.6268 20.088 35.3708 19.224 35.3708 18.264C35.3708 17.1333 35.6694 16.2267 36.2668 15.544C36.8641 14.8613 37.8348 14.3813 39.1788 14.104C40.5228 13.8053 42.3041 13.656 44.5228 13.656H45.6748V13.112C45.6748 12.1733 45.4614 11.512 45.0348 11.128C44.6081 10.7227 43.8828 10.52 42.8588 10.52C42.2828 10.52 41.6534 10.5947 40.9708 10.744C40.2881 10.872 39.5521 11.096 38.7628 11.416C38.1654 11.672 37.6641 11.6933 37.2588 11.48C36.8534 11.2453 36.5868 10.904 36.4588 10.456C36.3308 9.98667 36.3628 9.51733 36.5548 9.048C36.7681 8.57867 37.1734 8.23733 37.7708 8.024C38.7734 7.64 39.7121 7.37333 40.5868 7.224C41.4828 7.05333 42.3041 6.968 43.0508 6.968C45.4828 6.968 47.2961 7.52267 48.4908 8.632C49.6854 9.72 50.2828 11.416 50.2828 13.72V20.824C50.2828 22.4667 49.5361 23.288 48.0428 23.288C46.5281 23.288 45.7708 22.4667 45.7708 20.824V20.632C45.4508 21.464 44.9068 22.1253 44.1388 22.616C43.3921 23.1067 42.4748 23.352 41.3868 23.352ZM42.4748 20.12C43.3708 20.12 44.1281 19.8107 44.7468 19.192C45.3654 18.5733 45.6748 17.7733 45.6748 16.792V16.152H44.5548C42.9121 16.152 41.7494 16.3013 41.0668 16.6C40.3841 16.8773 40.0428 17.368 40.0428 18.072C40.0428 18.6693 40.2454 19.16 40.6508 19.544C41.0774 19.928 41.6854 20.12 42.4748 20.12ZM61.5993 23.352C57.1833 23.352 54.9753 21.208 54.9753 16.92V10.904H53.6313C52.3726 10.904 51.7432 10.3067 51.7432 9.112C51.7432 7.896 52.3726 7.288 53.6313 7.288H54.9753V4.856C54.9753 3.21333 55.7859 2.392 57.4073 2.392C59.0073 2.392 59.8073 3.21333 59.8073 4.856V7.288H62.8473C64.0846 7.288 64.7033 7.896 64.7033 9.112C64.7033 10.3067 64.0846 10.904 62.8473 10.904H59.8073V16.728C59.8073 17.624 60.0099 18.296 60.4153 18.744C60.8419 19.192 61.5139 19.416 62.4313 19.416C62.7513 19.416 63.0499 19.384 63.3273 19.32C63.6046 19.256 63.8606 19.2133 64.0953 19.192C64.3939 19.1707 64.6393 19.2667 64.8313 19.48C65.0233 19.6933 65.1193 20.1307 65.1193 20.792C65.1193 21.3253 65.0339 21.784 64.8633 22.168C64.6926 22.5307 64.3939 22.7973 63.9673 22.968C63.6899 23.0747 63.3059 23.16 62.8153 23.224C62.3459 23.3093 61.9406 23.352 61.5993 23.352ZM72.6168 23.352C70.6114 23.352 69.1288 22.7973 68.1688 21.688C67.2301 20.5787 66.7608 18.9147 66.7608 16.696V9.464C66.7608 7.84267 67.5608 7.032 69.1608 7.032C70.7821 7.032 71.5928 7.84267 71.5928 9.464V16.824C71.5928 18.68 72.3928 19.608 73.9928 19.608C74.9101 19.608 75.6568 19.288 76.2328 18.648C76.8301 17.9867 77.1288 17.1227 77.1288 16.056V9.464C77.1288 7.84267 77.9288 7.032 79.5288 7.032C81.1501 7.032 81.9608 7.84267 81.9608 9.464V20.824C81.9608 22.4667 81.1821 23.288 79.6248 23.288C78.8568 23.288 78.2701 23.0747 77.8648 22.648C77.4594 22.2213 77.2568 21.624 77.2568 20.856C76.2114 22.52 74.6648 23.352 72.6168 23.352ZM88.1958 23.288C86.5318 23.288 85.6998 22.4667 85.6998 20.824V9.464C85.6998 7.84267 86.4891 7.032 88.0677 7.032C89.6464 7.032 90.4358 7.84267 90.4358 9.464V10.04C91.2038 8.14133 92.7931 7.11733 95.2038 6.968C95.7371 6.92533 96.1424 7.064 96.4198 7.384C96.7184 7.68267 96.8784 8.184 96.8998 8.888C96.9424 9.54933 96.8038 10.072 96.4838 10.456C96.1851 10.84 95.6731 11.0747 94.9478 11.16L94.2118 11.224C91.8224 11.4587 90.6278 12.6747 90.6278 14.872V20.824C90.6278 22.4667 89.8171 23.288 88.1958 23.288ZM106.766 23.352C104.91 23.352 103.31 23.0213 101.966 22.36C100.643 21.6773 99.6193 20.728 98.894 19.512C98.19 18.2747 97.838 16.824 97.838 15.16C97.838 13.5387 98.1793 12.12 98.862 10.904C99.566 9.66667 100.515 8.70667 101.71 8.024C102.926 7.32 104.323 6.968 105.902 6.968C108.185 6.968 109.998 7.69333 111.342 9.144C112.686 10.5733 113.358 12.5147 113.358 14.968C113.358 15.7787 112.857 16.184 111.854 16.184H102.446C102.617 17.4213 103.065 18.328 103.79 18.904C104.537 19.4587 105.561 19.736 106.862 19.736C107.374 19.736 107.95 19.6827 108.59 19.576C109.251 19.448 109.881 19.2347 110.478 18.936C111.097 18.6373 111.619 18.584 112.046 18.776C112.473 18.9467 112.761 19.2453 112.91 19.672C113.081 20.0987 113.081 20.5467 112.91 21.016C112.761 21.464 112.409 21.8373 111.854 22.136C111.107 22.5413 110.275 22.84 109.358 23.032C108.462 23.2453 107.598 23.352 106.766 23.352ZM106.094 10.168C105.07 10.168 104.238 10.4773 103.598 11.096C102.979 11.7147 102.595 12.5787 102.446 13.688H109.358C109.23 11.3413 108.142 10.168 106.094 10.168ZM122.185 23.352C121.246 23.352 120.275 23.2667 119.273 23.096C118.291 22.9253 117.395 22.6373 116.585 22.232C116.051 21.9547 115.699 21.6027 115.529 21.176C115.379 20.7493 115.379 20.3333 115.529 19.928C115.678 19.5227 115.945 19.224 116.329 19.032C116.713 18.8187 117.161 18.8187 117.673 19.032C118.547 19.3947 119.347 19.6507 120.073 19.8C120.819 19.9493 121.534 20.024 122.217 20.024C123.113 20.024 123.774 19.8853 124.201 19.608C124.627 19.3093 124.841 18.9253 124.841 18.456C124.841 17.7093 124.297 17.24 123.209 17.048L119.849 16.44C118.505 16.2053 117.481 15.7253 116.777 15C116.073 14.2747 115.721 13.3253 115.721 12.152C115.721 11.0853 116.019 10.168 116.617 9.4C117.214 8.632 118.035 8.03467 119.081 7.608C120.126 7.18133 121.331 6.968 122.697 6.968C124.574 6.968 126.238 7.33067 127.689 8.056C128.179 8.29067 128.478 8.62133 128.585 9.048C128.713 9.47467 128.691 9.89067 128.521 10.296C128.35 10.7013 128.073 11.0107 127.689 11.224C127.305 11.416 126.846 11.3947 126.313 11.16C125.609 10.84 124.969 10.616 124.393 10.488C123.817 10.3387 123.273 10.264 122.76 10.264C121.801 10.264 121.107 10.424 120.681 10.744C120.254 11.0427 120.041 11.4267 120.041 11.896C120.041 12.6427 120.542 13.112 121.545 13.304L124.905 13.912C126.291 14.1467 127.347 14.616 128.073 15.32C128.798 16.0027 129.161 16.9413 129.161 18.136C129.161 19.7787 128.521 21.0587 127.241 21.976C125.961 22.8933 124.275 23.352 122.185 23.352Z" fill="url(#paint0_linear_42_522)"/>
<path d="M1.8495 22.616L-0.322913 24.685L-0.297686 24.7115L-0.27182 24.7373L1.8495 22.616ZM6.1695 4.312V1.312H3.1695V4.312H6.1695ZM6.1695 9.816H3.1695V12.816H6.1695V9.816ZM6.1695 13.688V10.688H3.1695V13.688H6.1695ZM3.7375 20.288C3.60408 20.288 3.59458 20.2692 3.66348 20.2937C3.69903 20.3063 3.74937 20.3285 3.80723 20.3646C3.86556 20.401 3.92131 20.4452 3.97082 20.4947L-0.27182 24.7373C0.884574 25.8937 2.36427 26.288 3.7375 26.288V20.288ZM4.02191 20.547C4.0809 20.609 4.12732 20.6729 4.16175 20.732C4.19567 20.7902 4.21284 20.8349 4.22019 20.8573C4.23332 20.8974 4.2095 20.848 4.2095 20.664H-1.7905C-1.7905 21.9917 -1.45486 23.4964 -0.322913 24.685L4.02191 20.547ZM4.2095 20.664V3.032H-1.7905V20.664H4.2095ZM4.2095 3.032C4.2095 2.84105 4.23441 2.79609 4.21755 2.84668C4.19584 2.9118 4.12931 3.05883 3.97882 3.20932C3.82833 3.35981 3.6813 3.42634 3.61618 3.44805C3.5656 3.46491 3.61055 3.44 3.8015 3.44V-2.56C2.47507 -2.56 0.929219 -2.22636 -0.263821 -1.03332C-1.45686 0.159719 -1.7905 1.70557 -1.7905 3.032H4.2095ZM3.8015 3.44H14.7455V-2.56H3.8015V3.44ZM14.7455 3.44C14.9461 3.44 14.5431 3.48891 14.1058 3.05878C13.6593 2.61964 13.6975 2.1951 13.6975 2.36H19.6975C19.6975 1.24489 19.4103 -0.139645 18.3132 -1.21878C17.2253 -2.28891 15.8463 -2.56 14.7455 -2.56V3.44ZM13.6975 2.36C13.6975 2.54823 13.6525 2.13838 14.0882 1.70268C14.5239 1.26697 14.9337 1.312 14.7455 1.312V7.312C15.8586 7.312 17.2444 7.03169 18.3308 5.94532C19.4172 4.85895 19.6975 3.4731 19.6975 2.36H13.6975ZM14.7455 1.312H6.1695V7.312H14.7455V1.312ZM3.1695 4.312V9.816H9.1695V4.312H3.1695ZM6.1695 12.816H14.0415V6.816H6.1695V12.816ZM14.0415 12.816C14.2646 12.816 13.8765 12.8711 13.4432 12.4518C12.9917 12.0148 13.0255 11.5839 13.0255 11.736H19.0255C19.0255 10.6081 18.7286 9.21715 17.6158 8.14019C16.5212 7.08093 15.1411 6.816 14.0415 6.816V12.816ZM13.0255 11.736C13.0255 11.9118 12.9845 11.4953 13.4255 11.0615C13.8574 10.6365 14.2526 10.688 14.0415 10.688V16.688C15.1531 16.688 16.5402 16.4141 17.6335 15.3385C18.7358 14.254 19.0255 12.8616 19.0255 11.736H13.0255ZM14.0415 10.688H6.1695V16.688H14.0415V10.688ZM3.1695 13.688V20.664H9.1695V13.688H3.1695ZM3.1695 20.664C3.1695 20.8791 3.14349 20.9513 3.15117 20.9265C3.16248 20.8899 3.21507 20.7504 3.36121 20.5927C3.51191 20.4301 3.6768 20.3404 3.78622 20.301C3.87888 20.2677 3.88119 20.288 3.7375 20.288V26.288C5.07156 26.288 6.60676 25.9175 7.76179 24.6713C8.87694 23.4681 9.1695 21.9469 9.1695 20.664H3.1695ZM21.8722 22.36L20.4963 25.0259L20.5219 25.0391L20.5477 25.0518L21.8722 22.36ZM18.8003 19.512L16.1928 20.9956L16.208 21.0224L16.2238 21.0488L18.8003 19.512ZM18.7682 10.904L16.1608 9.42043L16.1565 9.4279L16.1523 9.4354L18.7682 10.904ZM21.6162 8.024L23.1047 10.6287L23.112 10.6245L23.1194 10.6203L21.6162 8.024ZM31.2483 9.144L29.0476 11.1829L29.0551 11.191L29.0627 11.1991L31.2483 9.144ZM22.3522 16.184V13.184H18.9101L19.3804 16.5939L22.3522 16.184ZM23.6963 18.904L21.8306 21.2533L21.8685 21.2834L21.9073 21.3122L23.6963 18.904ZM28.4963 19.576L28.9894 22.5352L29.028 22.5288L29.0663 22.5213L28.4963 19.576ZM30.3843 18.936L29.08 16.2343L29.0612 16.2434L29.0426 16.2527L30.3843 18.936ZM31.9523 18.776L30.7212 21.5118L30.7791 21.5378L30.8381 21.5614L31.9523 18.776ZM32.8162 19.672L29.9847 20.663L30.0064 20.7251L30.0308 20.7862L32.8162 19.672ZM32.8162 21.016L29.9969 19.9908L29.983 20.0289L29.9702 20.0673L32.8162 21.016ZM31.7603 22.136L30.3379 19.4946L30.329 19.4994L31.7603 22.136ZM29.2643 23.032L28.6497 20.0956L28.6094 20.1041L28.5694 20.1136L29.2643 23.032ZM23.5042 11.096L21.4192 8.93904L21.4009 8.9567L21.3829 8.97468L23.5042 11.096ZM22.3522 13.688L19.3791 13.2878L18.9213 16.688H22.3522V13.688ZM29.2643 13.688V16.688H32.4323L32.2598 13.5246L29.2643 13.688ZM26.6722 20.352C25.1681 20.352 24.042 20.0842 23.1968 19.6682L20.5477 25.0518C22.3905 25.9585 24.4644 26.352 26.6722 26.352V20.352ZM23.2482 19.6941C22.3965 19.2546 21.8001 18.685 21.3767 17.9752L16.2238 21.0488C17.2511 22.771 18.7026 24.1001 20.4963 25.0259L23.2482 19.6941ZM21.4077 18.0284C21.0015 17.3144 20.7443 16.3923 20.7443 15.16H14.7442C14.7442 17.2557 15.191 19.2349 16.1928 20.9956L21.4077 18.0284ZM20.7443 15.16C20.7443 13.9687 20.9916 13.0719 21.3842 12.3726L16.1523 9.4354C15.1795 11.1681 14.7442 13.1087 14.7442 15.16H20.7443ZM21.3757 12.3876C21.8235 11.6005 22.3934 11.0352 23.1047 10.6287L20.1278 5.41927C18.4498 6.37814 17.121 7.73279 16.1608 9.42043L21.3757 12.3876ZM23.1194 10.6203C23.8242 10.2122 24.6908 9.968 25.8083 9.968V3.968C23.7683 3.968 21.8403 4.42778 20.1131 5.42772L23.1194 10.6203ZM25.8083 9.968C27.3969 9.968 28.3607 10.4415 29.0476 11.1829L33.4489 7.10513C31.4478 4.94514 28.785 3.968 25.8083 3.968V9.968ZM29.0627 11.1991C29.7609 11.9416 30.2643 13.0783 30.2643 14.968H36.2643C36.2643 11.9511 35.4236 9.20507 33.4338 7.08892L29.0627 11.1991ZM30.2643 14.968C30.2643 14.8669 30.2795 14.641 30.3967 14.3565C30.5216 14.0537 30.7286 13.7682 31.0021 13.5471C31.5107 13.1359 31.9355 13.184 31.7603 13.184V19.184C32.5877 19.184 33.7645 19.0294 34.7744 18.2129C35.9063 17.2978 36.2643 16.0245 36.2643 14.968H30.2643ZM31.7603 13.184H22.3522V19.184H31.7603V13.184ZM19.3804 16.5939C19.619 18.3236 20.3152 20.0499 21.8306 21.2533L25.5619 16.5547C25.5766 16.5664 25.5521 16.5566 25.5058 16.463C25.4538 16.3576 25.3753 16.1454 25.3241 15.7741L19.3804 16.5939ZM21.9073 21.3122C23.3416 22.3777 25.0732 22.736 26.7682 22.736V16.736C25.8606 16.736 25.5442 16.5396 25.4852 16.4958L21.9073 21.3122ZM26.7682 22.736C27.4823 22.736 28.2273 22.6622 28.9894 22.5352L28.0031 16.6168C27.4851 16.7031 27.0782 16.736 26.7682 16.736V22.736ZM29.0663 22.5213C29.9932 22.3419 30.8824 22.041 31.7259 21.6193L29.0426 16.2527C28.6915 16.4283 28.3219 16.5541 27.9262 16.6307L29.0663 22.5213ZM31.6885 21.6377C31.775 21.5959 31.719 21.6387 31.5448 21.6565C31.3472 21.6767 31.0459 21.6579 30.7212 21.5118L33.1833 16.0402C31.627 15.3399 30.1138 15.7353 29.08 16.2343L31.6885 21.6377ZM30.8381 21.5614C30.6998 21.5061 30.5098 21.3982 30.3287 21.2104C30.1466 21.0216 30.0398 20.8207 29.9847 20.663L35.6478 18.681C35.2067 17.4207 34.2826 16.477 33.0664 15.9906L30.8381 21.5614ZM30.0308 20.7862C29.9781 20.6545 29.9443 20.4956 29.9443 20.328C29.9443 20.1646 29.9763 20.0472 29.9969 19.9908L35.6356 22.0412C36.0346 20.944 36.0709 19.731 35.6017 18.5578L30.0308 20.7862ZM29.9702 20.0673C30.045 19.8429 30.1607 19.6767 30.2575 19.574C30.3457 19.4804 30.3942 19.4643 30.338 19.4946L33.1826 24.7774C34.1801 24.2403 35.1997 23.3524 35.6623 21.9647L29.9702 20.0673ZM30.329 19.4994C29.8634 19.7522 29.3108 19.9573 28.6497 20.0956L29.8788 25.9684C31.0524 25.7227 32.1637 25.3305 33.1915 24.7726L30.329 19.4994ZM28.5694 20.1136C27.8771 20.2784 27.2468 20.352 26.6722 20.352V26.352C27.7617 26.352 28.8594 26.2122 29.9591 25.9504L28.5694 20.1136ZM26.0003 7.168C24.3244 7.168 22.7032 7.69782 21.4192 8.93904L25.5893 13.253C25.6125 13.2305 25.6269 13.2219 25.6537 13.2119C25.6881 13.1992 25.7911 13.168 26.0003 13.168V7.168ZM21.3829 8.97468C20.1835 10.1741 19.5914 11.7106 19.3791 13.2878L25.3254 14.0882C25.4118 13.4467 25.5877 13.2552 25.6256 13.2173L21.3829 8.97468ZM22.3522 16.688H29.2643V10.688H22.3522V16.688ZM32.2598 13.5246C32.175 11.9702 31.7512 10.3014 30.5521 9.00818C29.2913 7.64855 27.6113 7.168 26.0003 7.168V13.168C26.2308 13.168 26.3149 13.2015 26.305 13.1978C26.2802 13.1885 26.2129 13.153 26.1524 13.0878C26.0413 12.9679 26.2255 13.0592 26.2687 13.8514L32.2598 13.5246ZM38.2827 22.68L36.9411 25.3633L38.2827 22.68ZM36.1387 20.856L33.6426 22.5201L33.6584 22.5438L33.6746 22.5672L36.1387 20.856ZM36.2668 15.544L34.009 13.5685L36.2668 15.544ZM39.1787 14.104L39.785 17.0421L39.8073 17.0375L39.8295 17.0326L39.1787 14.104ZM45.6748 13.656V16.656H48.6748V13.656H45.6748ZM45.0348 11.128L42.9685 13.303L42.9978 13.3308L43.0279 13.3579L45.0348 11.128ZM40.9707 10.744L41.5236 13.6926L41.5679 13.6843L41.6118 13.6747L40.9707 10.744ZM38.7627 11.416L37.6356 8.63578L37.6082 8.6469L37.581 8.65856L38.7627 11.416ZM37.2588 11.48L35.7556 14.0763L35.808 14.1066L35.8615 14.1348L37.2588 11.48ZM36.4588 10.456L33.5645 11.2453L33.5692 11.2628L33.5742 11.2802L36.4588 10.456ZM36.5547 9.048L33.8237 7.80659L33.7999 7.85891L33.7781 7.9121L36.5547 9.048ZM37.7708 8.024L38.7798 10.8492L38.8119 10.8378L38.8437 10.8256L37.7708 8.024ZM40.5868 7.224L41.0916 10.1812L41.1199 10.1764L41.1481 10.171L40.5868 7.224ZM48.4907 8.632L46.4494 10.8304L46.46 10.8403L46.4708 10.85L48.4907 8.632ZM45.7708 20.632H48.7708L42.9707 19.5551L45.7708 20.632ZM44.1387 22.616L42.5236 20.0879L42.5073 20.0983L42.4912 20.1089L44.1387 22.616ZM44.7467 19.192L46.8681 21.3133L44.7467 19.192ZM45.6748 16.152H48.6748V13.152H45.6748V16.152ZM41.0667 16.6L42.1959 19.3794L42.2327 19.3644L42.2692 19.3485L41.0667 16.6ZM40.6507 19.544L38.5875 21.7219L38.6154 21.7482L38.6439 21.7739L40.6507 19.544ZM41.3867 20.352C40.5996 20.352 40.0381 20.2036 39.6244 19.9967L36.9411 25.3633C38.3194 26.0524 39.8272 26.352 41.3867 26.352V20.352ZM39.6244 19.9967C39.145 19.757 38.829 19.4705 38.6029 19.1448L33.6746 22.5672C34.5151 23.7775 35.6285 24.707 36.9411 25.3633L39.6244 19.9967ZM38.6349 19.1919C38.4651 18.9372 38.3708 18.6568 38.3708 18.264H32.3708C32.3708 19.7912 32.7884 21.2388 33.6426 22.5201L38.6349 19.1919ZM38.3708 18.264C38.3708 17.6744 38.5152 17.5301 38.5245 17.5195L34.009 13.5685C32.8236 14.9232 32.3708 16.5923 32.3708 18.264H38.3708ZM38.5245 17.5195C38.5202 17.5244 38.7701 17.2515 39.785 17.0421L38.5725 11.1659C36.8994 11.5111 35.2079 12.1983 34.009 13.5685L38.5245 17.5195ZM39.8295 17.0326C40.8707 16.8012 42.4075 16.656 44.5228 16.656V10.656C42.2007 10.656 40.1748 10.8095 38.528 11.1754L39.8295 17.0326ZM44.5228 16.656H45.6748V10.656H44.5228V16.656ZM48.6748 13.656V13.112H42.6748V13.656H48.6748ZM48.6748 13.112C48.6748 11.8465 48.4061 10.1261 47.0416 8.89812L43.0279 13.3579C42.7728 13.1284 42.6812 12.8999 42.6596 12.833C42.6433 12.7824 42.6748 12.8532 42.6748 13.112H48.6748ZM47.101 8.953C45.8271 7.74278 44.1278 7.52 42.8587 7.52V13.52C43.0175 13.52 43.1381 13.5279 43.2255 13.5381C43.3134 13.5483 43.3563 13.5593 43.3634 13.5613C43.3829 13.5668 43.1957 13.5189 42.9685 13.303L47.101 8.953ZM42.8587 7.52C42.0273 7.52 41.18 7.62729 40.3297 7.8133L41.6118 13.6747C42.1268 13.562 42.5382 13.52 42.8587 13.52V7.52ZM40.4179 7.79538C39.5005 7.9674 38.5704 8.25682 37.6356 8.63578L39.8899 14.1962C40.5338 13.9352 41.0757 13.7766 41.5236 13.6926L40.4179 7.79538ZM37.581 8.65856C37.5226 8.68358 37.6093 8.6353 37.8112 8.62671C38.0381 8.61706 38.3455 8.66185 38.656 8.82524L35.8615 14.1348C37.3616 14.9243 38.8798 14.6297 39.9445 14.1734L37.581 8.65856ZM38.7619 8.88372C38.8643 8.94302 38.9972 9.04533 39.1188 9.20107C39.2407 9.35705 39.3093 9.51294 39.3433 9.63184L33.5742 11.2802C33.917 12.4799 34.6816 13.4545 35.7556 14.0763L38.7619 8.88372ZM39.353 9.66665C39.3742 9.74411 39.3874 9.84505 39.3798 9.95607C39.3723 10.0656 39.3474 10.1447 39.3314 10.1839L33.7781 7.9121C33.3474 8.96491 33.2549 10.1104 33.5645 11.2453L39.353 9.66665ZM39.2859 10.2894C39.2027 10.4724 39.0799 10.6263 38.9512 10.7347C38.8321 10.835 38.7534 10.8586 38.7798 10.8492L36.7617 5.19877C35.5876 5.6181 34.4475 6.43416 33.8237 7.80659L39.2859 10.2894ZM38.8437 10.8256C39.6994 10.4978 40.4463 10.2914 41.0916 10.1812L40.0819 4.26679C38.9778 4.45528 37.8474 4.78216 36.6978 5.22243L38.8437 10.8256ZM41.1481 10.171C41.8981 10.0282 42.5284 9.968 43.0508 9.968V3.968C42.0798 3.968 41.0674 4.0785 40.0254 4.27698L41.1481 10.171ZM43.0508 9.968C45.0903 9.968 46.029 10.44 46.4494 10.8304L50.5321 6.43362C48.5632 4.60534 45.8752 3.968 43.0508 3.968V9.968ZM46.4708 10.85C46.8131 11.1618 47.2828 11.8925 47.2828 13.72H53.2828C53.2828 10.9395 52.5578 8.27822 50.5107 6.41397L46.4708 10.85ZM47.2828 13.72V20.824H53.2828V13.72H47.2828ZM47.2828 20.824C47.2828 21.2499 47.1798 21.0094 47.5029 20.654C47.6658 20.4748 47.8505 20.3685 47.99 20.3174C48.1123 20.2725 48.1489 20.288 48.0428 20.288V26.288C49.3294 26.288 50.8235 25.921 51.9426 24.69C53.0123 23.5133 53.2828 22.0408 53.2828 20.824H47.2828ZM48.0428 20.288C47.9272 20.288 47.9545 20.2714 48.0687 20.3127C48.1997 20.3601 48.3812 20.4615 48.5443 20.6384C48.8719 20.9936 48.7708 21.2406 48.7708 20.824H42.7708C42.7708 22.0501 43.0483 23.529 44.1332 24.7057C45.2606 25.9283 46.7576 26.288 48.0428 26.288V20.288ZM48.7708 20.824V20.632H42.7708V20.824H48.7708ZM42.9707 19.5551C42.8861 19.7751 42.7648 19.9338 42.5236 20.0879L45.7539 25.1441C47.0487 24.3169 48.0154 23.1529 48.5708 21.7089L42.9707 19.5551ZM42.4912 20.1089C42.3313 20.214 42.0178 20.352 41.3867 20.352V26.352C42.9317 26.352 44.4529 25.9993 45.7863 25.1231L42.4912 20.1089ZM42.4748 23.12C44.1449 23.12 45.6718 22.5096 46.8681 21.3133L42.6254 17.0707C42.5993 17.0968 42.5836 17.1079 42.5793 17.1108C42.5755 17.1134 42.5765 17.1123 42.5804 17.1107C42.5842 17.1092 42.5818 17.1108 42.569 17.1132C42.5557 17.1157 42.5256 17.12 42.4748 17.12V23.12ZM46.8681 21.3133C48.1199 20.0615 48.6748 18.4633 48.6748 16.792H42.6748C42.6748 16.9654 42.6481 17.0372 42.6446 17.0461C42.6432 17.0497 42.6424 17.0513 42.6423 17.0515C42.6422 17.0517 42.6422 17.0517 42.6422 17.0517C42.6421 17.0518 42.6413 17.0532 42.6391 17.0559C42.6368 17.0586 42.6326 17.0636 42.6254 17.0707L46.8681 21.3133ZM48.6748 16.792V16.152H42.6748V16.792H48.6748ZM45.6748 13.152H44.5547V19.152H45.6748V13.152ZM44.5547 13.152C42.8786 13.152 41.1645 13.2827 39.8643 13.8515L42.2692 19.3485C42.2443 19.3594 42.3923 19.2962 42.8329 19.2396C43.2486 19.1862 43.8148 19.152 44.5547 19.152V13.152ZM39.9376 13.8206C39.1837 14.1269 38.4084 14.64 37.836 15.4628C37.2568 16.2955 37.0428 17.2192 37.0428 18.072H43.0428C43.0428 18.2208 42.9994 18.5472 42.7615 18.8892C42.5304 19.2214 42.2672 19.3504 42.1959 19.3794L39.9376 13.8206ZM37.0428 18.072C37.0428 19.4289 37.5391 20.7286 38.5875 21.7219L42.714 17.3661C42.8017 17.4492 42.8994 17.5777 42.9675 17.7427C43.0339 17.9033 43.0428 18.0268 43.0428 18.072H37.0428ZM38.6439 21.7739C39.7988 22.8134 41.2239 23.12 42.4748 23.12V17.12C42.3167 17.12 42.282 17.1 42.3301 17.1153C42.3564 17.1235 42.4036 17.1412 42.464 17.1748C42.5251 17.2088 42.5918 17.2549 42.6576 17.3141L38.6439 21.7739ZM54.9753 10.904H57.9753V7.904H54.9753V10.904ZM54.9753 7.288V10.288H57.9753V7.288H54.9753ZM59.8073 7.288H56.8073V10.288H59.8073V7.288ZM59.8073 10.904V7.904H56.8073V10.904H59.8073ZM60.4153 18.744L58.1906 20.7567L58.2164 20.7852L58.2428 20.813L60.4153 18.744ZM63.3272 19.32L64.0018 22.2432V22.2432L63.3272 19.32ZM64.0953 19.192L63.8815 16.1996L63.8526 16.2017L63.8236 16.2043L64.0953 19.192ZM64.8313 19.48L62.6014 21.4869L64.8313 19.48ZM64.8633 22.168L67.5777 23.4454L67.5915 23.416L67.6047 23.3864L64.8633 22.168ZM63.9673 22.968L65.0442 25.768L65.0629 25.7609L65.0814 25.7534L63.9673 22.968ZM62.8152 23.224L62.4272 20.2492L62.3526 20.2589L62.2786 20.2724L62.8152 23.224ZM61.5993 20.352C59.8319 20.352 59.0615 19.9222 58.7211 19.5917C58.3972 19.2772 57.9753 18.5788 57.9753 16.92H51.9753C51.9753 19.5492 52.6573 22.0668 54.5414 23.8963C56.409 25.7098 58.9506 26.352 61.5993 26.352V20.352ZM57.9753 16.92V10.904H51.9753V16.92H57.9753ZM54.9753 7.904H53.6312V13.904H54.9753V7.904ZM53.6312 7.904C53.4264 7.904 53.8302 7.85262 54.2805 8.28008C54.7602 8.73538 54.7432 9.20579 54.7432 9.112H48.7433C48.7433 10.2129 49.041 11.5793 50.15 12.6319C51.2297 13.6567 52.5774 13.904 53.6312 13.904V7.904ZM54.7432 9.112C54.7432 8.99324 54.7683 9.44886 54.2997 9.90157C53.8503 10.3357 53.4389 10.288 53.6312 10.288V4.288C52.5649 4.288 51.2095 4.54431 50.1308 5.58643C49.0329 6.64714 48.7433 8.01476 48.7433 9.112H54.7432ZM53.6312 10.288H54.9753V4.288H53.6312V10.288ZM57.9753 7.288V4.856H51.9753V7.288H57.9753ZM57.9753 4.856C57.9753 4.4873 58.0655 4.76375 57.7184 5.11541C57.5566 5.27933 57.3925 5.35812 57.3031 5.38829C57.2288 5.4134 57.2464 5.392 57.4072 5.392V-0.608002C56.1242 -0.608002 54.613 -0.279633 53.4481 0.900588C52.2904 2.07358 51.9753 3.58203 51.9753 4.856H57.9753ZM57.4072 5.392C57.5593 5.392 57.5681 5.41252 57.4859 5.38439C57.3883 5.35099 57.2205 5.26786 57.0582 5.10122C56.7146 4.74846 56.8073 4.47758 56.8073 4.856H62.8073C62.8073 3.59175 62.4999 2.08887 61.3563 0.914772C60.1984 -0.273967 58.69 -0.608002 57.4072 -0.608002V5.392ZM56.8073 4.856V7.288H62.8073V4.856H56.8073ZM59.8073 10.288H62.8473V4.288H59.8073V10.288ZM62.8473 10.288C63.0165 10.288 62.5898 10.3292 62.1365 9.88368C61.6734 9.42866 61.7032 8.97977 61.7032 9.112H67.7032C67.7032 8.02822 67.4237 6.66734 66.342 5.60431C65.27 4.55076 63.9154 4.288 62.8473 4.288V10.288ZM61.7032 9.112C61.7032 9.21961 61.6812 8.75575 62.1555 8.29779C62.6102 7.85875 63.0293 7.904 62.8473 7.904V13.904C63.9025 13.904 65.2496 13.6506 66.323 12.6142C67.416 11.5589 67.7032 10.1991 67.7032 9.112H61.7032ZM62.8473 7.904H59.8073V13.904H62.8473V7.904ZM56.8073 10.904V16.728H62.8073V10.904H56.8073ZM56.8073 16.728C56.8073 18.0164 57.0922 19.5427 58.1906 20.7567L62.6399 16.7313C62.7069 16.8054 62.7543 16.8766 62.7858 16.9347C62.8167 16.9916 62.8289 17.0294 62.8315 17.0378C62.8338 17.0455 62.8273 17.0264 62.8205 16.9734C62.8137 16.9205 62.8073 16.8401 62.8073 16.728H56.8073ZM58.2428 20.813C59.4608 22.0918 61.0894 22.416 62.4313 22.416V16.416C62.2051 16.416 62.143 16.387 62.1879 16.402C62.2145 16.4108 62.2717 16.433 62.3466 16.4788C62.423 16.5255 62.507 16.5903 62.5877 16.675L58.2428 20.813ZM62.4313 22.416C62.9507 22.416 63.4779 22.3641 64.0018 22.2432L62.6527 16.3968C62.6219 16.4039 62.5518 16.416 62.4313 16.416V22.416ZM64.0018 22.2432C64.1727 22.2037 64.2923 22.1865 64.3669 22.1797L63.8236 16.2043C63.4289 16.2402 63.0365 16.3083 62.6527 16.3968L64.0018 22.2432ZM64.309 22.1844C64.0743 22.2011 63.7562 22.1772 63.41 22.0417C63.0598 21.9047 62.7894 21.6958 62.6014 21.4869L67.0611 17.4731C66.2197 16.5381 65.0567 16.1157 63.8815 16.1996L64.309 22.1844ZM62.6014 21.4869C62.3937 21.2562 62.2767 21.038 62.214 20.8962C62.151 20.754 62.1256 20.6502 62.117 20.6112C62.1024 20.5445 62.1192 20.5855 62.1192 20.792H68.1192C68.1192 20.3372 68.0881 19.8289 67.9775 19.3248C67.8749 18.8573 67.647 18.1241 67.0611 17.4731L62.6014 21.4869ZM62.1192 20.792C62.1192 21.0146 62.0827 21.0376 62.1218 20.9496L67.6047 23.3864C67.9851 22.5304 68.1192 21.6361 68.1192 20.792H62.1192ZM62.1488 20.8906C62.2351 20.7073 62.3613 20.5379 62.5132 20.4022C62.6598 20.2713 62.7894 20.2081 62.8531 20.1826L65.0814 25.7534C66.1022 25.3451 67.0362 24.5961 67.5777 23.4454L62.1488 20.8906ZM62.8903 20.168C62.9264 20.1541 62.9108 20.1634 62.8205 20.1834C62.7341 20.2026 62.6057 20.2259 62.4272 20.2492L63.2033 26.1988C63.796 26.1215 64.447 25.9977 65.0442 25.768L62.8903 20.168ZM62.2786 20.2724C61.9224 20.3372 61.7055 20.352 61.5993 20.352V26.352C62.1756 26.352 62.7695 26.2815 63.3519 26.1756L62.2786 20.2724ZM68.1687 21.688L65.8786 23.6258L65.8894 23.6385L65.9002 23.6511L68.1687 21.688ZM76.2327 18.648L74.0064 16.6371L74.0029 16.6411L76.2327 18.648ZM77.8648 22.648L80.0397 20.5818V20.5817L77.8648 22.648ZM77.2568 20.856H80.2568V10.4409L74.7164 19.2602L77.2568 20.856ZM72.6168 20.352C71.1473 20.352 70.6397 19.9589 70.4373 19.7249L65.9002 23.6511C67.6178 25.6358 70.0755 26.352 72.6168 26.352V20.352ZM70.4589 19.7502C70.1663 19.4044 69.7607 18.5632 69.7607 16.696H63.7607C63.7607 19.2661 64.2939 21.753 65.8786 23.6258L70.4589 19.7502ZM69.7607 16.696V9.464H63.7607V16.696H69.7607ZM69.7607 9.464C69.7607 9.10584 69.8484 9.39022 69.4961 9.74722C69.3316 9.91385 69.1642 9.9947 69.0708 10.0262C68.9924 10.0527 69.0053 10.032 69.1608 10.032V4.032C67.8882 4.032 66.385 4.35777 65.2254 5.53277C64.0731 6.70045 63.7607 8.20082 63.7607 9.464H69.7607ZM69.1608 10.032C69.325 10.032 69.3467 10.0536 69.2761 10.0301C69.1909 10.0017 69.0273 9.92514 68.8634 9.76132C68.6996 9.5975 68.6231 9.4338 68.5947 9.34868C68.5712 9.2781 68.5928 9.29972 68.5928 9.464H74.5928C74.5928 8.1909 74.2724 6.68505 73.1061 5.51868C71.9397 4.35231 70.4339 4.032 69.1608 4.032V10.032ZM68.5928 9.464V16.824H74.5928V9.464H68.5928ZM68.5928 16.824C68.5928 18.1144 68.8613 19.6421 69.9205 20.8708C71.0532 22.1847 72.6046 22.608 73.9928 22.608V16.608C73.8759 16.608 73.9069 16.5903 74.0247 16.6359C74.1606 16.6884 74.3269 16.793 74.465 16.9532C74.5948 17.1038 74.6279 17.22 74.6261 17.2135C74.6217 17.1981 74.5928 17.0822 74.5928 16.824H68.5928ZM73.9928 22.608C75.6978 22.608 77.2771 21.9722 78.4626 20.6549L74.0029 16.6411C73.9921 16.6531 73.9928 16.6501 74.0066 16.6401C74.013 16.6354 74.0212 16.6301 74.0307 16.6246C74.0403 16.6192 74.0499 16.6145 74.059 16.6106C74.0681 16.6067 74.0753 16.6042 74.08 16.6027C74.0847 16.6013 74.0857 16.6013 74.0822 16.602C74.0756 16.6033 74.0475 16.608 73.9928 16.608V22.608ZM78.4591 20.6589C79.649 19.3414 80.1288 17.7113 80.1288 16.056H74.1288C74.1288 16.5341 74.0112 16.6319 74.0064 16.6371L78.4591 20.6589ZM80.1288 16.056V9.464H74.1288V16.056H80.1288ZM80.1288 9.464C80.1288 9.10584 80.2164 9.39022 79.8641 9.74722C79.6996 9.91385 79.5322 9.9947 79.4388 10.0262C79.3604 10.0527 79.3733 10.032 79.5287 10.032V4.032C78.2562 4.032 76.753 4.35777 75.5934 5.53277C74.4411 6.70045 74.1288 8.20082 74.1288 9.464H80.1288ZM79.5287 10.032C79.693 10.032 79.7147 10.0536 79.6441 10.0301C79.559 10.0017 79.3952 9.92514 79.2314 9.76132C79.0676 9.5975 78.9911 9.4338 78.9627 9.34868C78.9392 9.2781 78.9608 9.29972 78.9608 9.464H84.9608C84.9608 8.1909 84.6404 6.68505 83.4741 5.51868C82.3077 4.35231 80.8018 4.032 79.5287 4.032V10.032ZM78.9608 9.464V20.824H84.9608V9.464H78.9608ZM78.9608 20.824C78.9608 21.2216 78.8636 20.9624 79.1996 20.608C79.3626 20.4361 79.5374 20.344 79.6517 20.3038C79.7497 20.2694 79.7588 20.288 79.6247 20.288V26.288C80.9079 26.288 82.4108 25.9418 83.5539 24.736C84.6685 23.5603 84.9608 22.069 84.9608 20.824H78.9608ZM79.6247 20.288C79.5127 20.288 79.5329 20.2719 79.634 20.3086C79.7498 20.3507 79.9033 20.4381 80.0397 20.5818L75.6898 24.7142C76.8203 25.9043 78.2976 26.288 79.6247 26.288V20.288ZM80.0397 20.5817C80.0946 20.6395 80.1412 20.7019 80.1783 20.7644C80.2151 20.8263 80.2372 20.8793 80.2497 20.9161C80.2737 20.987 80.2568 20.981 80.2568 20.856H74.2568C74.2568 22.1508 74.6086 23.5762 75.6898 24.7142L80.0397 20.5817ZM74.7164 19.2602C74.2475 20.0066 73.6856 20.352 72.6168 20.352V26.352C75.6439 26.352 78.1753 25.0334 79.7971 22.4518L74.7164 19.2602ZM90.4358 10.04H87.4358L93.2169 11.1649L90.4358 10.04ZM95.2038 6.968L95.3892 9.96226L95.4161 9.96059L95.443 9.95844L95.2038 6.968ZM96.4198 7.384L94.1527 9.34879L94.2228 9.42965L94.2984 9.50532L96.4198 7.384ZM96.8997 8.888L93.9011 8.97887L93.9027 9.03005L93.906 9.08115L96.8997 8.888ZM96.4837 10.456L94.1791 8.53545L94.1467 8.57428L94.1157 8.61418L96.4837 10.456ZM94.9478 11.16L95.2076 14.1487L95.253 14.1448L95.2983 14.1395L94.9478 11.16ZM94.2117 11.224L93.9519 8.23528L93.9352 8.23673L93.9185 8.23837L94.2117 11.224ZM88.1957 20.288C88.0175 20.288 87.9826 20.2649 88.0415 20.2843C88.1144 20.3083 88.2709 20.3787 88.4313 20.537C88.5926 20.6962 88.6693 20.857 88.6981 20.9422C88.7218 21.0126 88.6998 20.9902 88.6998 20.824H82.6998C82.6998 22.1176 83.0307 23.6367 84.2162 24.807C85.3945 25.9702 86.911 26.288 88.1957 26.288V20.288ZM88.6998 20.824V9.464H82.6998V20.824H88.6998ZM88.6998 9.464C88.6998 9.09599 88.7899 9.37472 88.4412 9.73285C88.2763 9.90222 88.1051 9.98747 88.0034 10.0223C87.9171 10.0518 87.9212 10.032 88.0677 10.032V4.032C86.7954 4.032 85.2948 4.36352 84.1423 5.54715C83.0043 6.71594 82.6998 8.21067 82.6998 9.464H88.6998ZM88.0677 10.032C88.2144 10.032 88.2184 10.0518 88.1321 10.0223C88.0304 9.98747 87.8593 9.90222 87.6943 9.73285C87.3456 9.37472 87.4358 9.09599 87.4358 9.464H93.4358C93.4358 8.21067 93.1312 6.71594 91.9932 5.54715C90.8407 4.36352 89.3401 4.032 88.0677 4.032V10.032ZM87.4358 9.464V10.04H93.4358V9.464H87.4358ZM93.2169 11.1649C93.3891 10.7391 93.598 10.5184 93.8286 10.3699C94.0881 10.2027 94.5571 10.0138 95.3892 9.96226L95.0183 3.97374C93.4397 4.07152 91.9088 4.46931 90.5789 5.32611C89.2201 6.20157 88.2504 7.44224 87.6546 8.91506L93.2169 11.1649ZM95.443 9.95844C95.3988 9.96198 95.2067 9.97086 94.9367 9.87849C94.6439 9.77833 94.3655 9.59431 94.1527 9.34879L98.6868 5.41921C97.6221 4.19073 96.1709 3.88104 94.9645 3.97755L95.443 9.95844ZM94.2984 9.50532C94.0361 9.24301 93.9362 8.99158 93.9058 8.89612C93.8778 8.80849 93.8963 8.81799 93.9011 8.97887L99.8984 8.79713C99.8684 7.80704 99.6431 6.3647 98.5411 5.26268L94.2984 9.50532ZM93.906 9.08115C93.911 9.15834 93.8979 9.12052 93.9281 9.00669C93.9615 8.88061 94.0369 8.70608 94.1791 8.53545L98.7884 12.3766C99.7434 11.2306 99.9691 9.86644 99.8935 8.69485L93.906 9.08115ZM94.1157 8.61418C94.306 8.36945 94.5127 8.24462 94.6258 8.19281C94.7247 8.14747 94.7359 8.16423 94.5972 8.18055L95.2983 14.1395C96.4254 14.0068 97.8598 13.5732 98.8518 12.2978L94.1157 8.61418ZM94.6879 8.17128L93.9519 8.23528L94.4716 14.2127L95.2076 14.1487L94.6879 8.17128ZM93.9185 8.23837C92.3059 8.39674 90.6418 8.92905 89.3837 10.2095C88.0889 11.5275 87.6277 13.2238 87.6277 14.872H93.6277C93.6277 14.5899 93.6665 14.447 93.6833 14.399C93.6958 14.3634 93.6933 14.3844 93.6638 14.4145C93.6004 14.479 93.7282 14.2859 94.505 14.2096L93.9185 8.23837ZM87.6277 14.872V20.824H93.6277V14.872H87.6277ZM87.6277 20.824C87.6277 21.1927 87.5375 20.9162 87.8846 20.5646C88.0464 20.4007 88.2105 20.3219 88.2999 20.2917C88.3742 20.2666 88.3566 20.288 88.1957 20.288V26.288C89.4788 26.288 90.99 25.9596 92.1549 24.7794C93.3126 23.6064 93.6277 22.098 93.6277 20.824H87.6277ZM101.966 22.36L100.59 25.0259L100.616 25.0391L100.641 25.0518L101.966 22.36ZM98.894 19.512L96.2865 20.9956L96.3018 21.0224L96.3175 21.0488L98.894 19.512ZM98.862 10.904L96.2545 9.42043L96.2503 9.4279L96.246 9.4354L98.862 10.904ZM101.71 8.024L103.198 10.6287L103.206 10.6245L103.213 10.6203L101.71 8.024ZM111.342 9.144L109.141 11.1829L109.149 11.191L109.156 11.1991L111.342 9.144ZM102.446 16.184V13.184H99.0038L99.4741 16.5939L102.446 16.184ZM103.79 18.904L101.924 21.2533L101.962 21.2834L102.001 21.3122L103.79 18.904ZM108.59 19.576L109.083 22.5352L109.122 22.5288L109.16 22.5213L108.59 19.576ZM110.478 18.936L109.174 16.2343L109.155 16.2434L109.136 16.2527L110.478 18.936ZM112.046 18.776L110.815 21.5118L110.873 21.5378L110.932 21.5614L112.046 18.776ZM112.91 19.672L110.078 20.663L110.1 20.7251L110.125 20.7862L112.91 19.672ZM112.91 21.016L110.091 19.9908L110.077 20.0289L110.064 20.0673L112.91 21.016ZM111.854 22.136L110.432 19.4946L110.423 19.4994L111.854 22.136ZM109.358 23.032L108.743 20.0956L108.703 20.1041L108.663 20.1136L109.358 23.032ZM103.598 11.096L101.513 8.93904L101.495 8.9567L101.477 8.97468L103.598 11.096ZM102.446 13.688L99.4728 13.2878L99.0151 16.688H102.446V13.688ZM109.358 13.688V16.688H112.526L112.354 13.5246L109.358 13.688ZM106.766 20.352C105.262 20.352 104.136 20.0842 103.291 19.6682L100.641 25.0518C102.484 25.9585 104.558 26.352 106.766 26.352V20.352ZM103.342 19.6941C102.49 19.2546 101.894 18.685 101.47 17.9752L96.3175 21.0488C97.3448 22.771 98.7964 24.1001 100.59 25.0259L103.342 19.6941ZM101.501 18.0284C101.095 17.3144 100.838 16.3923 100.838 15.16H94.838C94.838 17.2557 95.2848 19.2349 96.2865 20.9956L101.501 18.0284ZM100.838 15.16C100.838 13.9687 101.085 13.0719 101.478 12.3726L96.246 9.4354C95.2733 11.1681 94.838 13.1087 94.838 15.16H100.838ZM101.469 12.3876C101.917 11.6005 102.487 11.0352 103.198 10.6287L100.222 5.41927C98.5436 6.37814 97.2147 7.73279 96.2545 9.42043L101.469 12.3876ZM103.213 10.6203C103.918 10.2122 104.785 9.968 105.902 9.968V3.968C103.862 3.968 101.934 4.42778 100.207 5.42772L103.213 10.6203ZM105.902 9.968C107.491 9.968 108.454 10.4415 109.141 11.1829L113.543 7.10513C111.542 4.94514 108.879 3.968 105.902 3.968V9.968ZM109.156 11.1991C109.855 11.9416 110.358 13.0783 110.358 14.968H116.358C116.358 11.9511 115.517 9.20507 113.528 7.08892L109.156 11.1991ZM110.358 14.968C110.358 14.8669 110.373 14.641 110.49 14.3565C110.615 14.0537 110.822 13.7682 111.096 13.5471C111.604 13.1359 112.029 13.184 111.854 13.184V19.184C112.681 19.184 113.858 19.0294 114.868 18.2129C116 17.2978 116.358 16.0245 116.358 14.968H110.358ZM111.854 13.184H102.446V19.184H111.854V13.184ZM99.4741 16.5939C99.7127 18.3236 100.409 20.0499 101.924 21.2533L105.656 16.5547C105.67 16.5664 105.646 16.5566 105.6 16.463C105.548 16.3576 105.469 16.1454 105.418 15.7741L99.4741 16.5939ZM102.001 21.3122C103.435 22.3777 105.167 22.736 106.862 22.736V16.736C105.954 16.736 105.638 16.5396 105.579 16.4958L102.001 21.3122ZM106.862 22.736C107.576 22.736 108.321 22.6622 109.083 22.5352L108.097 16.6168C107.579 16.7031 107.172 16.736 106.862 16.736V22.736ZM109.16 22.5213C110.087 22.3419 110.976 22.041 111.82 21.6193L109.136 16.2527C108.785 16.4283 108.416 16.5541 108.02 16.6307L109.16 22.5213ZM111.782 21.6377C111.869 21.5959 111.813 21.6387 111.639 21.6565C111.441 21.6767 111.14 21.6579 110.815 21.5118L113.277 16.0402C111.721 15.3399 110.208 15.7353 109.174 16.2343L111.782 21.6377ZM110.932 21.5614C110.794 21.5061 110.604 21.3982 110.422 21.2104C110.24 21.0216 110.134 20.8207 110.078 20.663L115.742 18.681C115.3 17.4207 114.376 16.477 113.16 15.9906L110.932 21.5614ZM110.125 20.7862C110.072 20.6545 110.038 20.4956 110.038 20.328C110.038 20.1646 110.07 20.0472 110.091 19.9908L115.729 22.0412C116.128 20.944 116.165 19.731 115.695 18.5578L110.125 20.7862ZM110.064 20.0673C110.139 19.8429 110.254 19.6767 110.351 19.574C110.439 19.4804 110.488 19.4643 110.432 19.4946L113.276 24.7774C114.274 24.2403 115.293 23.3524 115.756 21.9647L110.064 20.0673ZM110.423 19.4994C109.957 19.7522 109.405 19.9573 108.743 20.0956L109.973 25.9684C111.146 25.7227 112.257 25.3305 113.285 24.7726L110.423 19.4994ZM108.663 20.1136C107.971 20.2784 107.341 20.352 106.766 20.352V26.352C107.855 26.352 108.953 26.2122 110.053 25.9504L108.663 20.1136ZM106.094 7.168C104.418 7.168 102.797 7.69782 101.513 8.93904L105.683 13.253C105.706 13.2305 105.721 13.2219 105.747 13.2119C105.782 13.1992 105.885 13.168 106.094 13.168V7.168ZM101.477 8.97468C100.277 10.1741 99.6851 11.7106 99.4728 13.2878L105.419 14.0882C105.506 13.4467 105.681 13.2552 105.719 13.2173L101.477 8.97468ZM102.446 16.688H109.358V10.688H102.446V16.688ZM112.354 13.5246C112.269 11.9702 111.845 10.3014 110.646 9.00818C109.385 7.64855 107.705 7.168 106.094 7.168V13.168C106.325 13.168 106.409 13.2015 106.399 13.1978C106.374 13.1885 106.307 13.153 106.246 13.0878C106.135 12.9679 106.319 13.0592 106.362 13.8514L112.354 13.5246ZM119.273 23.096L118.758 26.0517L118.769 26.0535L119.273 23.096ZM116.585 22.232L115.2 24.8937L115.222 24.9046L115.243 24.9153L116.585 22.232ZM115.529 21.176L112.697 22.167L112.719 22.2291L112.743 22.2902L115.529 21.176ZM115.529 19.928L118.344 20.9651L115.529 19.928ZM116.329 19.032L117.67 21.7153L117.728 21.6861L117.785 21.6545L116.329 19.032ZM117.673 19.032L116.519 21.8012L116.523 21.8032L117.673 19.032ZM120.072 19.8L119.468 22.7384L119.476 22.7401L119.484 22.7417L120.072 19.8ZM124.201 19.608L125.835 22.1233L125.879 22.0952L125.921 22.0657L124.201 19.608ZM123.208 17.048L122.674 20.0001L122.687 20.0023L123.208 17.048ZM119.848 16.44L120.383 13.4879L120.374 13.4863L120.365 13.4847L119.848 16.44ZM116.777 15L114.624 17.0894L116.777 15ZM116.617 9.4L118.985 11.2418L116.617 9.4ZM119.081 7.608L117.947 4.83046L119.081 7.608ZM127.689 8.056L126.347 10.7393L126.37 10.751L126.394 10.7624L127.689 8.056ZM128.585 9.048L125.674 9.77561L125.691 9.84325L125.711 9.91004L128.585 9.048ZM128.521 10.296L131.285 11.4602V11.4602L128.521 10.296ZM127.689 11.224L129.03 13.9073L129.088 13.8781L129.145 13.8465L127.689 11.224ZM126.312 11.16L125.071 13.8911L125.088 13.8986L125.104 13.9059L126.312 11.16ZM124.393 10.488L123.64 13.392L123.69 13.4052L123.742 13.4166L124.393 10.488ZM120.68 10.744L122.401 13.2017L122.441 13.1735L122.48 13.144L120.68 10.744ZM121.544 13.304L120.98 16.2505L120.995 16.2533L121.01 16.2561L121.544 13.304ZM124.904 13.912L124.37 16.8641L124.387 16.8671L124.404 16.8699L124.904 13.912ZM128.072 15.32L125.983 17.4727L126 17.4888L126.016 17.5046L128.072 15.32ZM127.24 21.976L125.493 19.5375L127.24 21.976ZM122.184 20.352C121.428 20.352 120.626 20.2832 119.776 20.1385L118.769 26.0535C119.924 26.2501 121.064 26.352 122.184 26.352V20.352ZM119.787 20.1404C119.065 20.0148 118.451 19.8113 117.926 19.5487L115.243 24.9153C116.339 25.4634 117.518 25.8358 118.758 26.0516L119.787 20.1404ZM117.969 19.5704C117.919 19.5447 117.962 19.5584 118.042 19.6387C118.129 19.7258 118.236 19.8675 118.314 20.0618L112.743 22.2902C113.254 23.5668 114.23 24.3888 115.2 24.8937L117.969 19.5704ZM118.36 20.1849C118.387 20.2626 118.417 20.3865 118.417 20.544C118.417 20.7034 118.386 20.8486 118.344 20.9651L112.713 18.8909C112.311 19.982 112.329 21.116 112.697 22.167L118.36 20.1849ZM118.344 20.9651C118.298 21.0881 118.215 21.2447 118.078 21.398C117.941 21.5517 117.793 21.654 117.67 21.7153L114.987 16.3487C113.916 16.8844 113.125 17.7743 112.713 18.8909L118.344 20.9651ZM117.785 21.6545C117.523 21.8005 117.228 21.872 116.952 21.872C116.698 21.872 116.544 21.8118 116.519 21.8012L118.826 16.2628C117.711 15.7981 116.263 15.6365 114.872 16.4095L117.785 21.6545ZM116.523 21.8032C117.528 22.2197 118.513 22.5418 119.468 22.7384L120.677 16.8616C120.181 16.7595 119.566 16.5696 118.822 16.2608L116.523 21.8032ZM119.484 22.7417C120.403 22.9254 121.315 23.024 122.217 23.024V17.024C121.753 17.024 121.236 16.9732 120.661 16.8583L119.484 22.7417ZM122.217 23.024C123.307 23.024 124.677 22.8766 125.835 22.1233L122.566 17.0927C122.747 16.975 122.849 16.9671 122.769 16.9838C122.694 16.9996 122.52 17.024 122.217 17.024V23.024ZM125.921 22.0657C127.047 21.2774 127.84 20.0231 127.84 18.456H121.84C121.84 18.2168 121.9 17.9232 122.058 17.6391C122.21 17.3662 122.389 17.2138 122.48 17.1503L125.921 22.0657ZM127.84 18.456C127.84 17.2494 127.354 16.1022 126.392 15.2725C125.547 14.5438 124.543 14.2371 123.73 14.0936L122.687 20.0023C122.962 20.0509 122.774 20.0749 122.473 19.8155C122.302 19.6683 122.126 19.4537 122 19.1731C121.876 18.8955 121.84 18.6403 121.84 18.456H127.84ZM123.743 14.0959L120.383 13.4879L119.314 19.3921L122.674 20.0001L123.743 14.0959ZM120.365 13.4847C119.429 13.3214 119.062 13.0472 118.929 12.9106L114.624 17.0894C115.899 18.4035 117.58 19.0893 119.333 19.3953L120.365 13.4847ZM118.929 12.9106C118.856 12.835 118.721 12.6802 118.721 12.152H112.72C112.72 13.9705 113.289 15.7143 114.624 17.0894L118.929 12.9106ZM118.721 12.152C118.721 11.6843 118.837 11.4318 118.985 11.2418L114.248 7.55818C113.202 8.90419 112.72 10.4864 112.72 12.152H118.721ZM118.985 11.2418C119.211 10.9508 119.576 10.6459 120.214 10.3855L117.947 4.83046C116.494 5.4234 115.217 6.31316 114.248 7.55818L118.985 11.2418ZM120.214 10.3855C120.833 10.133 121.641 9.968 122.697 9.968V3.968C121.022 3.968 119.419 4.22961 117.947 4.83046L120.214 10.3855ZM122.697 9.968C124.182 9.968 125.374 10.2527 126.347 10.7393L129.03 5.37272C127.102 4.40859 124.966 3.968 122.697 3.968V9.968ZM126.394 10.7624C126.362 10.7471 126.218 10.6724 126.054 10.4909C125.878 10.296 125.742 10.0462 125.674 9.77561L131.495 8.32039C131.121 6.82421 130.071 5.87017 128.983 5.3496L126.394 10.7624ZM125.711 9.91004C125.683 9.81727 125.66 9.68457 125.668 9.52636C125.677 9.3676 125.713 9.23197 125.756 9.13183L131.285 11.4602C131.73 10.4036 131.783 9.27076 131.458 8.18596L125.711 9.91004ZM125.756 9.13183C125.792 9.04555 125.854 8.93696 125.951 8.82936C126.047 8.72173 126.149 8.6475 126.232 8.60153L129.145 13.8465C130.117 13.3067 130.855 12.4835 131.285 11.4602L125.756 9.13183ZM126.347 8.54072C126.645 8.39142 126.95 8.34378 127.196 8.35524C127.42 8.36564 127.537 8.42104 127.521 8.41405L125.104 13.9059C126.146 14.3642 127.588 14.6281 129.03 13.9073L126.347 8.54072ZM127.554 8.4289C126.715 8.04768 125.874 7.74401 125.043 7.55944L123.742 13.4166C124.063 13.488 124.502 13.6323 125.071 13.8911L127.554 8.4289ZM125.145 7.58401C124.362 7.38097 123.564 7.264 122.76 7.264V13.264C122.981 13.264 123.271 13.2964 123.64 13.392L125.145 7.58401ZM122.76 7.264C121.608 7.264 120.101 7.42887 118.88 8.344L122.48 13.144C122.371 13.2259 122.281 13.2704 122.232 13.2914C122.184 13.3121 122.167 13.3136 122.195 13.3072C122.222 13.3008 122.282 13.2895 122.379 13.28C122.477 13.2706 122.603 13.264 122.76 13.264V7.264ZM118.96 8.2863C117.834 9.07456 117.04 10.3289 117.04 11.896H123.04C123.04 12.1352 122.981 12.4288 122.823 12.7129C122.671 12.9858 122.492 13.1382 122.401 13.2017L118.96 8.2863ZM117.04 11.896C117.04 13.0186 117.453 14.1433 118.366 14.9981C119.186 15.7654 120.176 16.0964 120.98 16.2505L122.109 10.3575C121.911 10.3196 122.148 10.32 122.467 10.6179C122.64 10.7805 122.8 10.9984 122.908 11.2605C123.014 11.517 123.04 11.7432 123.04 11.896H117.04ZM121.01 16.2561L124.37 16.8641L125.439 10.9599L122.079 10.3519L121.01 16.2561ZM124.404 16.8699C125.419 17.0417 125.834 17.3279 125.983 17.4727L130.162 13.1673C128.86 11.9041 127.164 11.2517 125.405 10.9541L124.404 16.8699ZM126.016 17.5046C126.049 17.535 126.069 17.5621 126.09 17.6172C126.116 17.6837 126.161 17.8407 126.161 18.136H132.161C132.161 16.2924 131.575 14.4966 130.129 13.1354L126.016 17.5046ZM126.161 18.136C126.161 18.8607 125.948 19.2117 125.493 19.5375L128.988 24.4145C131.093 22.9056 132.161 20.6966 132.161 18.136H126.161ZM125.493 19.5375C124.866 19.9869 123.851 20.352 122.184 20.352V26.352C124.699 26.352 127.055 25.7998 128.988 24.4145L125.493 19.5375Z" fill="#5B3511"/>
</g>
<defs>
<filter id="filter0_d_42_522" x="0.209473" y="0.439941" width="129.951" height="25.9121" filterUnits="userSpaceOnUse" color-interpolation-filters="sRGB">
<feFlood flood-opacity="0" result="BackgroundImageFix"/>
<feColorMatrix in="SourceAlpha" type="matrix" values="0 0 0 0 0 0 0 0 0 0 0 0 0 0 0 0 0 0 127 0" result="hardAlpha"/>
<feOffset dy="2"/>
<feGaussianBlur stdDeviation="0.5"/>
<feComposite in2="hardAlpha" operator="out"/>
<feColorMatrix type="matrix" values="0 0 0 0 0 0 0 0 0 0 0 0 0 0 0 0 0 0 0.25 0"/>
<feBlend mode="normal" in2="BackgroundImageFix" result="effect1_dropShadow_42_522"/>
<feBlend mode="normal" in="SourceGraphic" in2="effect1_dropShadow_42_522" result="shape"/>
</filter>
<linearGradient id="paint0_linear_42_522" x1="64.5" y1="-13" x2="64.5" y2="37" gradientUnits="userSpaceOnUse">
<stop stop-color="#FDE092"/>
<stop offset="1" stop-color="#C18B2C"/>
</linearGradient>
</defs>
</svg>
