<svg width="98" height="20" viewBox="0 0 98 20" fill="none" xmlns="http://www.w3.org/2000/svg">
<g filter="url(#filter0_d_232_62)">
<path d="M2.92813 17.216C2.32013 17.216 1.84813 17.048 1.51213 16.712C1.19213 16.376 1.03213 15.888 1.03213 15.248V2.024C1.03213 0.727999 1.68013 0.079999 2.97613 0.079999H11.1841C12.1601 0.079999 12.6481 0.559999 12.6481 1.52C12.6481 2.496 12.1601 2.984 11.1841 2.984H4.75213V7.112H10.6561C11.6481 7.112 12.1441 7.592 12.1441 8.552C12.1441 9.528 11.6481 10.016 10.6561 10.016H4.75213V15.248C4.75213 16.56 4.14413 17.216 2.92813 17.216ZM20.1292 17.264C18.7372 17.264 17.5372 17.016 16.5292 16.52C15.5372 16.008 14.7692 15.296 14.2252 14.384C13.6972 13.456 13.4332 12.368 13.4332 11.12C13.4332 9.904 13.6892 8.84 14.2012 7.928C14.7292 7 15.4412 6.28 16.3372 5.768C17.2492 5.24 18.2972 4.976 19.4812 4.976C21.1932 4.976 22.5532 5.52 23.5612 6.608C24.5692 7.68 25.0732 9.136 25.0732 10.976C25.0732 11.584 24.6972 11.888 23.9452 11.888H16.8892C17.0172 12.816 17.3532 13.496 17.8972 13.928C18.4572 14.344 19.2252 14.552 20.2012 14.552C20.5852 14.552 21.0172 14.512 21.4972 14.432C21.9932 14.336 22.4652 14.176 22.9132 13.952C23.3772 13.728 23.7692 13.688 24.0892 13.832C24.4092 13.96 24.6252 14.184 24.7372 14.504C24.8652 14.824 24.8652 15.16 24.7372 15.512C24.6252 15.848 24.3612 16.128 23.9452 16.352C23.3852 16.656 22.7612 16.88 22.0732 17.024C21.4012 17.184 20.7532 17.264 20.1292 17.264ZM19.6252 7.376C18.8572 7.376 18.2332 7.608 17.7532 8.072C17.2892 8.536 17.0012 9.184 16.8892 10.016H22.0732C21.9772 8.256 21.1612 7.376 19.6252 7.376ZM31.1651 17.264C30.2851 17.264 29.5091 17.096 28.8371 16.76C28.1651 16.424 27.6291 15.968 27.2291 15.392C26.8451 14.816 26.6531 14.168 26.6531 13.448C26.6531 12.6 26.8771 11.92 27.3251 11.408C27.7731 10.896 28.5011 10.536 29.5091 10.328C30.5171 10.104 31.8531 9.992 33.5171 9.992H34.3811V9.584C34.3811 8.88 34.2211 8.384 33.9011 8.096C33.5811 7.792 33.0371 7.64 32.2691 7.64C31.8371 7.64 31.3651 7.696 30.8531 7.808C30.3411 7.904 29.7891 8.072 29.1971 8.312C28.7491 8.504 28.3731 8.52 28.0691 8.36C27.7651 8.184 27.5651 7.928 27.4691 7.592C27.3731 7.24 27.3971 6.888 27.5411 6.536C27.7011 6.184 28.0051 5.928 28.4531 5.768C29.2051 5.48 29.9091 5.28 30.5651 5.168C31.2371 5.04 31.8531 4.976 32.4131 4.976C34.2371 4.976 35.5971 5.392 36.4931 6.224C37.3891 7.04 37.8371 8.312 37.8371 10.04V15.368C37.8371 16.6 37.2771 17.216 36.1571 17.216C35.0211 17.216 34.4531 16.6 34.4531 15.368V15.224C34.2131 15.848 33.8051 16.344 33.2291 16.712C32.6691 17.08 31.9811 17.264 31.1651 17.264ZM31.9811 14.84C32.6531 14.84 33.2211 14.608 33.6851 14.144C34.1491 13.68 34.3811 13.08 34.3811 12.344V11.864H33.5411C32.3091 11.864 31.4371 11.976 30.9251 12.2C30.4131 12.408 30.1571 12.776 30.1571 13.304C30.1571 13.752 30.3091 14.12 30.6131 14.408C30.9331 14.696 31.3891 14.84 31.9811 14.84ZM46.3244 17.264C43.0124 17.264 41.3564 15.656 41.3564 12.44V7.928H40.3484C39.4044 7.928 38.9324 7.48 38.9324 6.584C38.9324 5.672 39.4044 5.216 40.3484 5.216H41.3564V3.392C41.3564 2.16 41.9644 1.544 43.1804 1.544C44.3804 1.544 44.9804 2.16 44.9804 3.392V5.216H47.2604C48.1884 5.216 48.6524 5.672 48.6524 6.584C48.6524 7.48 48.1884 7.928 47.2604 7.928H44.9804V12.296C44.9804 12.968 45.1324 13.472 45.4364 13.808C45.7564 14.144 46.2604 14.312 46.9484 14.312C47.1884 14.312 47.4124 14.288 47.6204 14.24C47.8284 14.192 48.0204 14.16 48.1964 14.144C48.4204 14.128 48.6044 14.2 48.7484 14.36C48.8924 14.52 48.9644 14.848 48.9644 15.344C48.9644 15.744 48.9004 16.088 48.7724 16.376C48.6444 16.648 48.4204 16.848 48.1004 16.976C47.8924 17.056 47.6044 17.12 47.2364 17.168C46.8844 17.232 46.5804 17.264 46.3244 17.264ZM54.5876 17.264C53.0836 17.264 51.9716 16.848 51.2516 16.016C50.5476 15.184 50.1956 13.936 50.1956 12.272V6.848C50.1956 5.632 50.7956 5.024 51.9956 5.024C53.2116 5.024 53.8196 5.632 53.8196 6.848V12.368C53.8196 13.76 54.4196 14.456 55.6196 14.456C56.3076 14.456 56.8676 14.216 57.2996 13.736C57.7476 13.24 57.9716 12.592 57.9716 11.792V6.848C57.9716 5.632 58.5716 5.024 59.7716 5.024C60.9876 5.024 61.5956 5.632 61.5956 6.848V15.368C61.5956 16.6 61.0116 17.216 59.8436 17.216C59.2676 17.216 58.8276 17.056 58.5236 16.736C58.2196 16.416 58.0676 15.968 58.0676 15.392C57.2836 16.64 56.1236 17.264 54.5876 17.264ZM66.2718 17.216C65.0238 17.216 64.3998 16.6 64.3998 15.368V6.848C64.3998 5.632 64.9918 5.024 66.1758 5.024C67.3598 5.024 67.9518 5.632 67.9518 6.848V7.28C68.5278 5.856 69.7198 5.088 71.5278 4.976C71.9278 4.944 72.2318 5.048 72.4398 5.288C72.6638 5.512 72.7838 5.888 72.7998 6.416C72.8318 6.912 72.7278 7.304 72.4878 7.592C72.2638 7.88 71.8798 8.056 71.3358 8.12L70.7838 8.168C68.9918 8.344 68.0958 9.256 68.0958 10.904V15.368C68.0958 16.6 67.4878 17.216 66.2718 17.216ZM80.1995 17.264C78.8075 17.264 77.6075 17.016 76.5995 16.52C75.6075 16.008 74.8395 15.296 74.2955 14.384C73.7675 13.456 73.5035 12.368 73.5035 11.12C73.5035 9.904 73.7595 8.84 74.2715 7.928C74.7995 7 75.5115 6.28 76.4075 5.768C77.3195 5.24 78.3675 4.976 79.5515 4.976C81.2635 4.976 82.6235 5.52 83.6315 6.608C84.6395 7.68 85.1435 9.136 85.1435 10.976C85.1435 11.584 84.7675 11.888 84.0155 11.888H76.9595C77.0875 12.816 77.4235 13.496 77.9675 13.928C78.5275 14.344 79.2955 14.552 80.2715 14.552C80.6555 14.552 81.0875 14.512 81.5675 14.432C82.0635 14.336 82.5355 14.176 82.9835 13.952C83.4475 13.728 83.8395 13.688 84.1595 13.832C84.4795 13.96 84.6955 14.184 84.8075 14.504C84.9355 14.824 84.9355 15.16 84.8075 15.512C84.6955 15.848 84.4315 16.128 84.0155 16.352C83.4555 16.656 82.8315 16.88 82.1435 17.024C81.4715 17.184 80.8235 17.264 80.1995 17.264ZM79.6955 7.376C78.9275 7.376 78.3035 7.608 77.8235 8.072C77.3595 8.536 77.0715 9.184 76.9595 10.016H82.1435C82.0475 8.256 81.2315 7.376 79.6955 7.376ZM91.7634 17.264C91.0594 17.264 90.3314 17.2 89.5794 17.072C88.8434 16.944 88.1714 16.728 87.5634 16.424C87.1634 16.216 86.8994 15.952 86.7714 15.632C86.6594 15.312 86.6594 15 86.7714 14.696C86.8834 14.392 87.0834 14.168 87.3714 14.024C87.6594 13.864 87.9954 13.864 88.3794 14.024C89.0354 14.296 89.6354 14.488 90.1794 14.6C90.7394 14.712 91.2754 14.768 91.7874 14.768C92.4594 14.768 92.9554 14.664 93.2754 14.456C93.5954 14.232 93.7554 13.944 93.7554 13.592C93.7554 13.032 93.3474 12.68 92.5314 12.536L90.0114 12.08C89.0034 11.904 88.2354 11.544 87.7074 11C87.1794 10.456 86.9154 9.744 86.9154 8.864C86.9154 8.064 87.1394 7.376 87.5874 6.8C88.0354 6.224 88.6514 5.776 89.4354 5.456C90.2194 5.136 91.1234 4.976 92.1474 4.976C93.5554 4.976 94.8034 5.248 95.8914 5.792C96.2594 5.968 96.4834 6.216 96.5634 6.536C96.6594 6.856 96.6434 7.168 96.5154 7.472C96.3874 7.776 96.1794 8.008 95.8914 8.168C95.6034 8.312 95.2594 8.296 94.8594 8.12C94.3314 7.88 93.8514 7.712 93.4194 7.616C92.9874 7.504 92.5794 7.448 92.1954 7.448C91.4754 7.448 90.9554 7.568 90.6354 7.808C90.3154 8.032 90.1554 8.32 90.1554 8.672C90.1554 9.232 90.5314 9.584 91.2834 9.728L93.8034 10.184C94.8434 10.36 95.6354 10.712 96.1794 11.24C96.7234 11.752 96.9954 12.456 96.9954 13.352C96.9954 14.584 96.5154 15.544 95.5554 16.232C94.5954 16.92 93.3314 17.264 91.7634 17.264Z" fill="url(#paint0_linear_232_62)"/>
<path d="M1.51213 16.712L0.425918 17.7465L0.438532 17.7597L0.451465 17.7727L1.51213 16.712ZM4.75213 2.984V1.484H3.25213V2.984H4.75213ZM4.75213 7.112H3.25213V8.612H4.75213V7.112ZM4.75213 10.016V8.516H3.25213V10.016H4.75213ZM2.92813 15.716C2.76008 15.716 2.66533 15.6926 2.62111 15.6768C2.58318 15.6633 2.57482 15.6534 2.57279 15.6513L0.451465 17.7727C1.14166 18.4629 2.03884 18.716 2.92813 18.716V15.716ZM2.59833 15.6775C2.63097 15.7118 2.53212 15.6508 2.53212 15.248H-0.467875C-0.467875 16.1252 -0.246724 17.0402 0.425918 17.7465L2.59833 15.6775ZM2.53212 15.248V2.024H-0.467875V15.248H2.53212ZM2.53212 2.024C2.53212 1.60722 2.6353 1.57014 2.57879 1.62666C2.52227 1.68318 2.55934 1.58 2.97613 1.58V-1.42C2.09691 -1.42 1.16198 -1.19918 0.457465 -0.494661C-0.247055 0.209859 -0.467875 1.14478 -0.467875 2.024H2.53212ZM2.97613 1.58H11.1841V-1.42H2.97613V1.58ZM11.1841 1.58C11.2452 1.58 11.2892 1.58379 11.3185 1.58791C11.3477 1.59201 11.3593 1.59601 11.3573 1.59534C11.3548 1.59453 11.3386 1.5889 11.3139 1.57431C11.2886 1.5594 11.2593 1.53797 11.2303 1.50939C11.2012 1.48076 11.1783 1.45092 11.1617 1.42364C11.1454 1.39688 11.1381 1.37774 11.136 1.37144C11.134 1.36563 11.1372 1.37318 11.1408 1.39809C11.1445 1.42316 11.1481 1.46297 11.1481 1.52H14.1481C14.1481 0.802447 13.9639 -0.00982237 13.334 -0.62939C12.7087 -1.24446 11.8972 -1.42 11.1841 -1.42V1.58ZM11.1481 1.52C11.1481 1.58007 11.1443 1.62293 11.1403 1.65099C11.1363 1.67893 11.1325 1.68933 11.1336 1.68616C11.1348 1.68251 11.1409 1.66551 11.156 1.64038C11.1714 1.61471 11.1931 1.5857 11.2215 1.55734C11.2498 1.52898 11.2788 1.50729 11.3045 1.49188C11.3296 1.47681 11.3466 1.47069 11.3503 1.46947C11.3535 1.46842 11.3431 1.47221 11.3151 1.4762C11.2871 1.48021 11.2442 1.484 11.1841 1.484V4.484C11.9033 4.484 12.7183 4.30318 13.3428 3.67866C13.9673 3.05414 14.1481 2.23922 14.1481 1.52H11.1481ZM11.1841 1.484H4.75213V4.484H11.1841V1.484ZM3.25213 2.984V7.112H6.25213V2.984H3.25213ZM4.75213 8.612H10.6561V5.612H4.75213V8.612ZM10.6561 8.612C10.7202 8.612 10.7672 8.61591 10.7995 8.62037C10.8316 8.62481 10.8461 8.62938 10.8466 8.62956C10.8468 8.62961 10.8327 8.62506 10.8097 8.61168C10.7861 8.59798 10.7577 8.57769 10.729 8.5499C10.7002 8.52203 10.6771 8.49251 10.66 8.46491C10.6432 8.43781 10.6355 8.41794 10.6329 8.4105C10.6305 8.40358 10.6335 8.4099 10.637 8.43355C10.6405 8.45737 10.6441 8.49601 10.6441 8.552H13.6441C13.6441 7.82806 13.4544 7.01258 12.8153 6.3941C12.1853 5.78447 11.3712 5.612 10.6561 5.612V8.612ZM10.6441 8.552C10.6441 8.61105 10.6403 8.65275 10.6364 8.67959C10.6326 8.70627 10.629 8.71547 10.6304 8.71118C10.6321 8.7064 10.6387 8.68864 10.6542 8.66314C10.6701 8.63712 10.692 8.60839 10.7201 8.58075C10.7482 8.55315 10.7763 8.53259 10.8003 8.5184C10.8238 8.50454 10.8387 8.49952 10.8397 8.49919C10.8402 8.49901 10.827 8.50338 10.7961 8.50772C10.7651 8.51208 10.7192 8.516 10.6561 8.516V11.516C11.3773 11.516 12.1948 11.3384 12.8241 10.7192C13.4579 10.0957 13.6441 9.27745 13.6441 8.552H10.6441ZM10.6561 8.516H4.75213V11.516H10.6561V8.516ZM3.25213 10.016V15.248H6.25213V10.016H3.25213ZM3.25213 15.248C3.25213 15.6999 3.14507 15.7593 3.19598 15.7044C3.22067 15.6777 3.23978 15.6739 3.21848 15.6815C3.18882 15.6922 3.1013 15.716 2.92813 15.716V18.716C3.79782 18.716 4.71742 18.4761 5.39627 17.7436C6.05518 17.0327 6.25213 16.1081 6.25213 15.248H3.25213ZM16.5292 16.52L15.8412 17.8529L15.854 17.8595L15.8669 17.8659L16.5292 16.52ZM14.2252 14.384L12.9214 15.1258L12.9291 15.1392L12.937 15.1524L14.2252 14.384ZM14.2012 7.928L12.8974 7.1862L12.8932 7.1937L14.2012 7.928ZM16.3372 5.768L17.0814 7.07038L17.0887 7.06614L16.3372 5.768ZM23.5612 6.608L22.4608 7.62746L22.4684 7.63554L23.5612 6.608ZM16.8892 11.888V10.388H15.1681L15.4033 12.093L16.8892 11.888ZM17.8972 13.928L16.9644 15.1027L16.9833 15.1177L17.0027 15.1321L17.8972 13.928ZM21.4972 14.432L21.7438 15.9116L21.763 15.9084L21.7822 15.9047L21.4972 14.432ZM22.9132 13.952L22.2611 12.6012L22.2517 12.6057L22.2424 12.6104L22.9132 13.952ZM24.0892 13.832L23.4736 15.1999L23.5026 15.2129L23.5321 15.2247L24.0892 13.832ZM24.7372 14.504L23.3214 14.9995L23.3323 15.0306L23.3445 15.0611L24.7372 14.504ZM24.7372 15.512L23.3275 14.9994L23.3206 15.0184L23.3142 15.0377L24.7372 15.512ZM23.9452 16.352L23.234 15.0313L23.2296 15.0337L23.9452 16.352ZM22.0732 17.024L21.7659 15.5558L21.7458 15.56L21.7258 15.5648L22.0732 17.024ZM17.7532 8.072L16.7107 6.99352L16.7015 7.00235L16.6925 7.01134L17.7532 8.072ZM16.8892 10.016L15.4026 9.81588L15.1737 11.516H16.8892V10.016ZM22.0732 10.016V11.516H23.6572L23.571 9.9343L22.0732 10.016ZM20.1292 15.764C18.9131 15.764 17.9501 15.5474 17.1914 15.1741L15.8669 17.8659C17.1243 18.4846 18.5613 18.764 20.1292 18.764V15.764ZM17.2172 15.1871C16.4607 14.7966 15.9064 14.2745 15.5134 13.6156L12.937 15.1524C13.6319 16.3175 14.6137 17.2194 15.8412 17.8529L17.2172 15.1871ZM15.5289 13.6422C15.1498 12.9759 14.9332 12.1522 14.9332 11.12H11.9332C11.9332 12.5838 12.2446 13.9361 12.9214 15.1258L15.5289 13.6422ZM14.9332 11.12C14.9332 10.119 15.1422 9.31593 15.5092 8.6623L12.8932 7.1937C12.2362 8.36407 11.9332 9.689 11.9332 11.12H14.9332ZM15.5049 8.66979C15.9048 7.96694 16.4271 7.44426 17.0814 7.07036L15.593 4.46563C14.4553 5.11574 13.5535 6.03306 12.8974 7.18621L15.5049 8.66979ZM17.0887 7.06614C17.7452 6.68611 18.5278 6.476 19.4812 6.476V3.476C18.0666 3.476 16.7532 3.79389 15.5856 4.46986L17.0887 7.06614ZM19.4812 6.476C20.8462 6.476 21.7814 6.89409 22.4608 7.62743L24.6615 5.58856C23.3249 4.1459 21.5402 3.476 19.4812 3.476V6.476ZM22.4684 7.63554C23.1535 8.36413 23.5732 9.4178 23.5732 10.976H26.5732C26.5732 8.8542 25.9849 6.99587 24.654 5.58046L22.4684 7.63554ZM23.5732 10.976C23.5732 10.9752 23.5732 10.9583 23.5784 10.9288C23.5838 10.8987 23.5945 10.8553 23.6159 10.8033C23.6627 10.6899 23.7427 10.5788 23.8481 10.4936C24.0397 10.3386 24.1581 10.388 23.9452 10.388V13.388C24.4843 13.388 25.1666 13.2854 25.7343 12.8264C26.3629 12.3182 26.5732 11.6056 26.5732 10.976H23.5732ZM23.9452 10.388H16.8892V13.388H23.9452V10.388ZM15.4033 12.093C15.5652 13.2671 16.0253 14.3569 16.9644 15.1027L18.83 12.7533C18.6811 12.6351 18.4692 12.3649 18.3751 11.683L15.4033 12.093ZM17.0027 15.1321C17.9065 15.8035 19.0283 16.052 20.2012 16.052V13.052C19.422 13.052 19.0078 12.8845 18.7917 12.7239L17.0027 15.1321ZM20.2012 16.052C20.6862 16.052 21.2027 16.0018 21.7438 15.9116L21.2506 12.9524C20.8316 13.0222 20.4841 13.052 20.2012 13.052V16.052ZM21.7822 15.9047C22.411 15.783 23.0129 15.5792 23.584 15.2936L22.2424 12.6104C21.9175 12.7728 21.5754 12.889 21.2122 12.9593L21.7822 15.9047ZM23.5653 15.3028C23.6233 15.2748 23.6645 15.2597 23.6898 15.2519C23.7149 15.2441 23.72 15.245 23.7075 15.2463C23.6941 15.2476 23.6631 15.2492 23.6189 15.2428C23.5737 15.2362 23.5237 15.2224 23.4736 15.1999L24.7047 12.4641C23.8199 12.0659 22.9326 12.277 22.2611 12.6012L23.5653 15.3028ZM23.5321 15.2247C23.5163 15.2184 23.466 15.1938 23.4114 15.1372C23.3564 15.0801 23.3303 15.025 23.3214 14.9995L26.153 14.0085C25.8951 13.2717 25.361 12.7252 24.6463 12.4393L23.5321 15.2247ZM23.3445 15.0611C23.3427 15.0566 23.3395 15.0473 23.337 15.0343C23.3344 15.0211 23.3332 15.0079 23.3332 14.996C23.3332 14.9703 23.3386 14.969 23.3275 14.9994L26.1469 16.0246C26.389 15.3587 26.4072 14.6402 26.1299 13.9469L23.3445 15.0611ZM23.3142 15.0377C23.3226 15.0122 23.3335 14.9898 23.3444 14.972C23.355 14.9545 23.3631 14.9457 23.3638 14.945C23.3639 14.9449 23.3315 14.9788 23.234 15.0313L24.6563 17.6727C25.2938 17.3295 25.8916 16.7922 26.1602 15.9863L23.3142 15.0377ZM23.2296 15.0337C22.8101 15.2614 22.3258 15.4386 21.7659 15.5558L22.3805 18.4922C23.1966 18.3214 23.9603 18.0506 24.6608 17.6703L23.2296 15.0337ZM21.7258 15.5648C21.1556 15.7005 20.6245 15.764 20.1292 15.764V18.764C20.8819 18.764 21.6468 18.6675 22.4206 18.4832L21.7258 15.5648ZM19.6252 5.876C18.5313 5.876 17.5127 6.21824 16.7107 6.99352L18.7957 9.15048C18.9537 8.99776 19.1831 8.876 19.6252 8.876V5.876ZM16.6925 7.01134C15.9381 7.76574 15.5461 8.74997 15.4026 9.81588L18.3758 10.2161C18.4563 9.61803 18.6402 9.30626 18.8138 9.13266L16.6925 7.01134ZM16.8892 11.516H22.0732V8.516H16.8892V11.516ZM23.571 9.9343C23.5126 8.86375 23.2247 7.80937 22.4891 7.01609C21.7227 6.18961 20.6867 5.876 19.6252 5.876V8.876C20.0996 8.876 20.2397 9.00239 20.2893 9.05591C20.3697 9.14263 20.5378 9.40825 20.5754 10.0977L23.571 9.9343ZM28.8371 16.76L28.1662 18.1016L28.8371 16.76ZM27.2291 15.392L25.981 16.2241L25.9889 16.2359L25.997 16.2476L27.2291 15.392ZM27.3251 11.408L26.1962 10.4202L27.3251 11.408ZM29.5091 10.328L29.8122 11.797L29.8233 11.7947L29.8345 11.7923L29.5091 10.328ZM34.3811 9.992V11.492H35.8811V9.992H34.3811ZM33.9011 8.096L32.8679 9.1835L32.8826 9.19742L32.8976 9.21094L33.9011 8.096ZM30.8531 7.808L31.1295 9.28231L31.1516 9.27816L31.1736 9.27335L30.8531 7.808ZM29.1971 8.312L28.6335 6.92189L28.6198 6.92745L28.6062 6.93328L29.1971 8.312ZM28.0691 8.36L27.3175 9.65814L27.3437 9.67329L27.3704 9.68738L28.0691 8.36ZM27.4691 7.592L26.0219 7.98668L26.0243 7.99539L26.0268 8.00408L27.4691 7.592ZM27.5411 6.536L26.1755 5.9153L26.1636 5.94145L26.1527 5.96805L27.5411 6.536ZM28.4531 5.768L28.9576 7.18061L28.9736 7.17488L28.9895 7.16878L28.4531 5.768ZM30.5651 5.168L30.8175 6.6466L30.8316 6.64419L30.8457 6.64151L30.5651 5.168ZM36.4931 6.224L35.4724 7.32319L35.4777 7.32813L35.4831 7.33301L36.4931 6.224ZM34.4531 15.224H35.9531L33.053 14.6855L34.4531 15.224ZM33.2291 16.712L32.4215 15.448L32.4134 15.4531L32.4053 15.4584L33.2291 16.712ZM33.6851 14.144L34.7457 15.2047L33.6851 14.144ZM34.3811 11.864H35.8811V10.364H34.3811V11.864ZM30.9251 12.2L31.4896 13.5897L31.5081 13.5822L31.5263 13.5742L30.9251 12.2ZM30.6131 14.408L29.5814 15.4969L29.5954 15.5101L29.6096 15.5229L30.6131 14.408ZM31.1651 15.764C30.4782 15.764 29.9387 15.6338 29.5079 15.4184L28.1662 18.1016C29.0794 18.5582 30.092 18.764 31.1651 18.764V15.764ZM29.5079 15.4184C29.0442 15.1865 28.7075 14.8913 28.4611 14.5364L25.997 16.2476C26.5506 17.0447 27.2859 17.6615 28.1662 18.1016L29.5079 15.4184ZM28.4771 14.5599C28.2642 14.2406 28.1531 13.8844 28.1531 13.448H25.1531C25.1531 14.4516 25.4259 15.3914 25.981 16.2241L28.4771 14.5599ZM28.1531 13.448C28.1531 12.8705 28.3 12.5717 28.4539 12.3958L26.1962 10.4202C25.4542 11.2683 25.1531 12.3295 25.1531 13.448H28.1531ZM28.4539 12.3958C28.6011 12.2275 28.9687 11.9711 29.8122 11.797L29.2059 8.85895C28.0334 9.1009 26.945 9.56448 26.1962 10.4202L28.4539 12.3958ZM29.8345 11.7923C30.6911 11.6019 31.9048 11.492 33.5171 11.492V8.492C31.8014 8.492 30.3431 8.60608 29.1837 8.86372L29.8345 11.7923ZM33.5171 11.492H34.3811V8.492H33.5171V11.492ZM35.8811 9.992V9.584H32.8811V9.992H35.8811ZM35.8811 9.584C35.8811 8.71656 35.6934 7.69107 34.9045 6.98106L32.8976 9.21094C32.8234 9.14417 32.8176 9.09529 32.8335 9.1445C32.852 9.20187 32.8811 9.33728 32.8811 9.584H35.8811ZM34.9342 7.0085C34.1906 6.30206 33.1596 6.14 32.2691 6.14V9.14C32.562 9.14 32.7463 9.16987 32.8494 9.19867C32.9498 9.22672 32.9282 9.24077 32.8679 9.1835L34.9342 7.0085ZM32.2691 6.14C31.7093 6.14 31.1284 6.21231 30.5325 6.34265L31.1736 9.27335C31.6018 9.17969 31.9648 9.14 32.2691 9.14V6.14ZM30.5766 6.33369C29.9473 6.4517 29.2982 6.65241 28.6335 6.92189L29.7606 9.70211C30.2799 9.49159 30.7349 9.3563 31.1295 9.28231L30.5766 6.33369ZM28.6062 6.93328C28.5023 6.97779 28.477 6.97098 28.5153 6.96936C28.5366 6.96845 28.5736 6.96943 28.6213 6.97954C28.6698 6.98982 28.72 7.00754 28.7677 7.03262L27.3704 9.68738C28.2218 10.1355 29.1063 9.98287 29.7879 9.69072L28.6062 6.93328ZM28.8206 7.06186C28.8196 7.06128 28.826 7.06489 28.8368 7.07411C28.8477 7.0835 28.8605 7.09639 28.8731 7.11253C28.8857 7.12869 28.8954 7.14454 28.9022 7.15818C28.9055 7.16475 28.9078 7.17013 28.9093 7.174C28.9108 7.17786 28.9114 7.17993 28.9113 7.17992L26.0268 8.00408C26.2302 8.71594 26.6791 9.28856 27.3175 9.65814L28.8206 7.06186ZM28.9162 7.19732C28.9108 7.17739 28.9114 7.16919 28.9116 7.16604C28.9119 7.16214 28.9134 7.143 28.9294 7.10395L26.1527 5.96805C25.8894 6.61179 25.8352 7.30187 26.0219 7.98668L28.9162 7.19732ZM28.9066 7.1567C28.9005 7.17019 28.8916 7.18539 28.8805 7.20001C28.8694 7.21451 28.8598 7.22352 28.8553 7.22737C28.8464 7.23482 28.8697 7.21198 28.9576 7.18061L27.9486 4.35539C27.2122 4.61838 26.5408 5.11174 26.1755 5.9153L28.9066 7.1567ZM28.9895 7.16878C29.6681 6.90892 30.2762 6.73902 30.8175 6.6466L30.3126 3.68939C29.5419 3.82098 28.7421 4.05108 27.9166 4.36721L28.9895 7.16878ZM30.8457 6.64151C31.4447 6.52741 31.9652 6.476 32.4131 6.476V3.476C31.7409 3.476 31.0294 3.55258 30.2844 3.69449L30.8457 6.64151ZM32.4131 6.476C34.0408 6.476 34.9635 6.85066 35.4724 7.32319L37.5137 5.12481C36.2306 3.93334 34.4333 3.476 32.4131 3.476V6.476ZM35.4831 7.33301C35.9529 7.76089 36.3371 8.55024 36.3371 10.04H39.3371C39.3371 8.07376 38.8252 6.31911 37.5031 5.11499L35.4831 7.33301ZM36.3371 10.04V15.368H39.3371V10.04H36.3371ZM36.3371 15.368C36.3371 15.7863 36.2389 15.82 36.3072 15.745C36.3419 15.7067 36.3759 15.6921 36.3757 15.6922C36.3668 15.6954 36.3035 15.716 36.1571 15.716V18.716C36.9871 18.716 37.8741 18.4812 38.527 17.763C39.1552 17.072 39.3371 16.1817 39.3371 15.368H36.3371ZM36.1571 15.716C36.0046 15.716 35.9354 15.6949 35.9215 15.6898C35.916 15.6879 35.9476 15.7001 35.9818 15.7372C36.051 15.8122 35.9531 15.7816 35.9531 15.368H32.9531C32.9531 16.1864 33.1392 17.0798 33.7763 17.7708C34.4347 18.4848 35.3252 18.716 36.1571 18.716V15.716ZM35.9531 15.368V15.224H32.9531V15.368H35.9531ZM33.053 14.6855C32.9307 15.0035 32.7341 15.2482 32.4215 15.448L34.0366 17.976C34.876 17.4398 35.4954 16.6925 35.8531 15.7625L33.053 14.6855ZM32.4053 15.4584C32.1387 15.6337 31.7526 15.764 31.1651 15.764V18.764C32.2095 18.764 33.1995 18.5263 34.0528 17.9656L32.4053 15.4584ZM31.9811 16.34C33.0402 16.34 33.9929 15.9575 34.7457 15.2047L32.6244 13.0833C32.4492 13.2585 32.266 13.34 31.9811 13.34V16.34ZM34.7457 15.2047C35.5263 14.4241 35.8811 13.425 35.8811 12.344H32.8811C32.8811 12.735 32.7718 12.9359 32.6244 13.0833L34.7457 15.2047ZM35.8811 12.344V11.864H32.8811V12.344H35.8811ZM34.3811 10.364H33.5411V13.364H34.3811V10.364ZM33.5411 10.364C32.2923 10.364 31.1446 10.4667 30.3238 10.8258L31.5263 13.5742C31.7295 13.4853 32.3258 13.364 33.5411 13.364V10.364ZM30.3605 10.8103C29.8982 10.9981 29.4466 11.3027 29.1177 11.7754C28.7854 12.2531 28.6571 12.7896 28.6571 13.304H31.6571C31.6571 13.2932 31.6583 13.3116 31.6474 13.3501C31.6358 13.3905 31.6144 13.4398 31.5804 13.4886C31.5076 13.5933 31.4399 13.6099 31.4896 13.5897L30.3605 10.8103ZM28.6571 13.304C28.6571 14.1318 28.9559 14.9043 29.5814 15.4969L31.6447 13.3191C31.6396 13.3142 31.6409 13.3147 31.6452 13.3208C31.6472 13.3237 31.6495 13.3273 31.6517 13.3314C31.654 13.3356 31.6559 13.3396 31.6575 13.3434C31.6607 13.3513 31.661 13.3545 31.6602 13.3503C31.6593 13.3457 31.6571 13.3311 31.6571 13.304H28.6571ZM29.6096 15.5229C30.2938 16.1387 31.1583 16.34 31.9811 16.34V13.34C31.6198 13.34 31.5724 13.2533 31.6165 13.2931L29.6096 15.5229ZM41.3564 7.928H42.8564V6.428H41.3564V7.928ZM41.3564 5.216V6.716H42.8564V5.216H41.3564ZM44.9804 5.216H43.4804V6.716H44.9804V5.216ZM44.9804 7.928V6.428H43.4804V7.928H44.9804ZM45.4364 13.808L44.3241 14.8144L44.337 14.8286L44.3502 14.8425L45.4364 13.808ZM47.6204 14.24L47.9577 15.7016L47.9577 15.7016L47.6204 14.24ZM48.1964 14.144L48.0896 12.6478L48.0751 12.6488L48.0606 12.6502L48.1964 14.144ZM48.7484 14.36L47.6335 15.3634V15.3634L48.7484 14.36ZM48.7724 16.376L50.1297 17.0147L50.1366 17L50.1432 16.9852L48.7724 16.376ZM48.1004 16.976L48.6389 18.376L48.6482 18.3724L48.6575 18.3687L48.1004 16.976ZM47.2364 17.168L47.0424 15.6806L47.0051 15.6855L46.9681 15.6922L47.2364 17.168ZM46.3244 15.764C44.8888 15.764 44.0896 15.4151 43.6434 14.9819C43.2054 14.5566 42.8564 13.8054 42.8564 12.44H39.8564C39.8564 14.2906 40.3355 15.9514 41.5535 17.1341C42.7633 18.3089 44.4481 18.764 46.3244 18.764V15.764ZM42.8564 12.44V7.928H39.8564V12.44H42.8564ZM41.3564 6.428H40.3484V9.428H41.3564V6.428ZM40.3484 6.428C40.2264 6.428 40.1786 6.41298 40.1814 6.41387C40.1905 6.41676 40.2503 6.43873 40.3191 6.50404C40.3517 6.53497 40.3787 6.56856 40.3995 6.6015C40.42 6.63397 40.431 6.66019 40.4362 6.67497C40.4456 6.70184 40.4324 6.6805 40.4324 6.584H37.4324C37.4324 7.28377 37.6206 8.07898 38.2538 8.67996C38.8723 9.26702 39.6642 9.428 40.3484 9.428V6.428ZM40.4324 6.584C40.4324 6.48108 40.4463 6.45345 40.4389 6.47474C40.4347 6.48679 40.425 6.51087 40.4058 6.54175C40.3863 6.57314 40.3605 6.606 40.3287 6.63679C40.2969 6.66749 40.2651 6.69028 40.2378 6.70611C40.2111 6.72161 40.193 6.72793 40.1887 6.72929C40.1834 6.73101 40.2286 6.716 40.3484 6.716V3.716C39.6579 3.716 38.8622 3.88215 38.2442 4.47921C37.6166 5.08557 37.4324 5.88338 37.4324 6.584H40.4324ZM40.3484 6.716H41.3564V3.716H40.3484V6.716ZM42.8564 5.216V3.392H39.8564V5.216H42.8564ZM42.8564 3.392C42.8564 3.00232 42.9522 2.98654 42.88 3.0597C42.8042 3.13648 42.8087 3.044 43.1804 3.044V0.0439987C42.3362 0.0439987 41.4286 0.259517 40.7449 0.952294C40.0647 1.64146 39.8564 2.54968 39.8564 3.392H42.8564ZM43.1804 3.044C43.3565 3.044 43.4484 3.06709 43.4823 3.07869C43.5085 3.08766 43.4871 3.0846 43.4559 3.05261C43.3841 2.9789 43.4804 2.99746 43.4804 3.392H46.4804C46.4804 2.55454 46.2768 1.6491 45.605 0.959385C44.926 0.26235 44.0218 0.0439987 43.1804 0.0439987V3.044ZM43.4804 3.392V5.216H46.4804V3.392H43.4804ZM44.9804 6.716H47.2604V3.716H44.9804V6.716ZM47.2604 6.716C47.3741 6.716 47.4133 6.7305 47.4025 6.72696C47.3955 6.72469 47.3752 6.71725 47.3468 6.70047C47.3178 6.68337 47.2851 6.65939 47.253 6.62784C47.2209 6.59626 47.1954 6.56305 47.1764 6.532C47.1578 6.50147 47.1486 6.47817 47.1449 6.46731C47.1385 6.4485 47.1524 6.4788 47.1524 6.584H50.1524C50.1524 5.89011 49.974 5.09567 49.3558 4.48816C48.7425 3.88538 47.9492 3.716 47.2604 3.716V6.716ZM47.1524 6.584C47.1524 6.68284 47.1391 6.70687 47.1476 6.68249C47.1523 6.6689 47.1627 6.64342 47.1827 6.61128C47.2029 6.57863 47.2297 6.54466 47.2625 6.5129C47.3323 6.44557 47.395 6.42092 47.4099 6.41613C47.4181 6.41347 47.3764 6.428 47.2604 6.428V9.428C47.9427 9.428 48.7323 9.26396 49.3463 8.6711C49.9702 8.06879 50.1524 7.27686 50.1524 6.584H47.1524ZM47.2604 6.428H44.9804V9.428H47.2604V6.428ZM43.4804 7.928V12.296H46.4804V7.928H43.4804ZM43.4804 12.296C43.4804 13.1642 43.6736 14.0953 44.3241 14.8144L46.5487 12.8016C46.5913 12.8487 46.4804 12.7718 46.4804 12.296H43.4804ZM44.3502 14.8425C45.0659 15.5939 46.0482 15.812 46.9484 15.812V12.812C46.7207 12.812 46.5903 12.7835 46.5288 12.763C46.4754 12.7452 46.4904 12.7397 46.5226 12.7735L44.3502 14.8425ZM46.9484 15.812C47.2882 15.812 47.6264 15.778 47.9577 15.7016L47.2831 12.7784C47.1985 12.798 47.0887 12.812 46.9484 12.812V15.812ZM47.9577 15.7016C48.1125 15.6659 48.2363 15.6466 48.3322 15.6378L48.0606 12.6502C47.8046 12.6734 47.5444 12.7181 47.2831 12.7784L47.9577 15.7016ZM48.3033 15.6402C48.2233 15.6459 48.0983 15.6386 47.9558 15.5829C47.8114 15.5263 47.7035 15.4412 47.6335 15.3634L49.8634 13.3566C49.3946 12.8357 48.7518 12.6005 48.0896 12.6478L48.3033 15.6402ZM47.6335 15.3634C47.5417 15.2614 47.4937 15.1692 47.4713 15.1186C47.4488 15.0679 47.4436 15.0398 47.4453 15.0476C47.4468 15.0542 47.452 15.0812 47.4566 15.1341C47.4612 15.1861 47.4644 15.2553 47.4644 15.344H50.4644C50.4644 15.0339 50.4429 14.7111 50.3756 14.4044C50.3122 14.116 50.1803 13.7087 49.8634 13.3566L47.6335 15.3634ZM47.4644 15.344C47.4644 15.5886 47.4248 15.7148 47.4017 15.7668L50.1432 16.9852C50.3761 16.4612 50.4644 15.8994 50.4644 15.344H47.4644ZM47.4152 15.7373C47.437 15.691 47.4708 15.6456 47.5094 15.6111C47.5454 15.579 47.5648 15.5747 47.5434 15.5833L48.6575 18.3687C49.2746 18.1219 49.8162 17.6807 50.1297 17.0147L47.4152 15.7373ZM47.562 15.576C47.5139 15.5945 47.3594 15.6393 47.0424 15.6806L47.4304 18.6554C47.8495 18.6007 48.271 18.5175 48.6389 18.376L47.562 15.576ZM46.9681 15.6922C46.6727 15.7459 46.4629 15.764 46.3244 15.764V18.764C46.698 18.764 47.0962 18.7181 47.5048 18.6438L46.9681 15.6922ZM51.2516 16.016L50.1065 16.9849L50.1119 16.9913L50.1173 16.9976L51.2516 16.016ZM57.2996 13.736L56.1864 12.7306L56.1846 12.7326L57.2996 13.736ZM58.5236 16.736L59.6111 15.7029L58.5236 16.736ZM58.0676 15.392H59.5676V10.1844L56.7974 14.5941L58.0676 15.392ZM54.5876 15.764C53.3515 15.764 52.7271 15.4288 52.3858 15.0344L50.1173 16.9976C51.2161 18.2672 52.8156 18.764 54.5876 18.764V15.764ZM52.3966 15.0471C52.0157 14.5968 51.6956 13.7603 51.6956 12.272H48.6956C48.6956 14.1117 49.0795 15.7712 50.1065 16.9849L52.3966 15.0471ZM51.6956 12.272V6.848H48.6956V12.272H51.6956ZM51.6956 6.848C51.6956 6.46626 51.7894 6.45644 51.7132 6.53361C51.681 6.56626 51.6598 6.56868 51.6881 6.55912C51.7239 6.54703 51.8178 6.524 51.9956 6.524V3.524C51.1593 3.524 50.2577 3.73755 49.5779 4.42639C48.9017 5.11156 48.6956 6.01374 48.6956 6.848H51.6956ZM51.9956 6.524C52.3723 6.524 52.3794 6.61718 52.3029 6.54066C52.2264 6.46414 52.3196 6.47122 52.3196 6.848H55.3196C55.3196 6.00878 55.1087 5.10386 54.4242 4.41934C53.7397 3.73482 52.8348 3.524 51.9956 3.524V6.524ZM52.3196 6.848V12.368H55.3196V6.848H52.3196ZM52.3196 12.368C52.3196 13.2452 52.5038 14.1831 53.1334 14.9134C53.7998 15.6863 54.7255 15.956 55.6196 15.956V12.956C55.4611 12.956 55.3891 12.9327 55.373 12.9264C55.366 12.9237 55.3867 12.9325 55.4057 12.9546C55.4353 12.9889 55.3196 12.8828 55.3196 12.368H52.3196ZM55.6196 15.956C56.7014 15.956 57.6777 15.5581 58.4145 14.7394L56.1846 12.7326C56.0574 12.8739 55.9137 12.956 55.6196 12.956V15.956ZM58.4127 14.7414C59.157 13.9174 59.4716 12.8863 59.4716 11.792H56.4716C56.4716 12.2977 56.3381 12.5626 56.1864 12.7306L58.4127 14.7414ZM59.4716 11.792V6.848H56.4716V11.792H59.4716ZM59.4716 6.848C59.4716 6.46626 59.5654 6.45644 59.4892 6.53361C59.457 6.56626 59.4358 6.56868 59.4641 6.55912C59.4999 6.54703 59.5938 6.524 59.7716 6.524V3.524C58.9353 3.524 58.0337 3.73755 57.3539 4.42639C56.6777 5.11156 56.4716 6.01374 56.4716 6.848H59.4716ZM59.7716 6.524C60.1483 6.524 60.1554 6.61718 60.0789 6.54066C60.0024 6.46414 60.0956 6.47122 60.0956 6.848H63.0956C63.0956 6.00878 62.8847 5.10386 62.2002 4.41934C61.5157 3.73482 60.6108 3.524 59.7716 3.524V6.524ZM60.0956 6.848V15.368H63.0956V6.848H60.0956ZM60.0956 15.368C60.0956 15.7722 59.9983 15.7965 60.069 15.722C60.1018 15.6874 60.1284 15.6798 60.1125 15.6854C60.0886 15.6938 60.0079 15.716 59.8436 15.716V18.716C60.6798 18.716 61.5772 18.4915 62.2461 17.786C62.9008 17.0955 63.0956 16.1958 63.0956 15.368H60.0956ZM59.8436 15.716C59.6916 15.716 59.617 15.6946 59.5942 15.6863C59.5788 15.6807 59.5935 15.6844 59.6111 15.7029L57.4361 17.7691C58.1027 18.4708 58.988 18.716 59.8436 18.716V15.716ZM59.6111 15.7029C59.6192 15.7114 59.6133 15.7114 59.602 15.6781C59.5887 15.6388 59.5676 15.5505 59.5676 15.392H56.5676C56.5676 16.2314 56.7941 17.0934 57.4361 17.7691L59.6111 15.7029ZM56.7974 14.5941C56.3016 15.3833 55.634 15.764 54.5876 15.764V18.764C56.6132 18.764 58.2655 17.8967 59.3377 16.1899L56.7974 14.5941ZM67.9518 7.28H66.4518L69.3424 7.84247L67.9518 7.28ZM71.5278 4.976L71.6206 6.47313L71.634 6.4723L71.6474 6.47122L71.5278 4.976ZM72.4398 5.288L71.3063 6.27039L71.3413 6.31083L71.3792 6.34866L72.4398 5.288ZM72.7998 6.416L71.3005 6.46143L71.3013 6.48702L71.3029 6.51257L72.7998 6.416ZM72.4878 7.592L71.3355 6.63172L71.3193 6.65114L71.3038 6.67109L72.4878 7.592ZM71.3358 8.12L71.4658 9.61436L71.4884 9.61239L71.5111 9.60973L71.3358 8.12ZM70.7838 8.168L70.6539 6.67364L70.6455 6.67436L70.6372 6.67518L70.7838 8.168ZM66.2718 15.716C65.8742 15.716 65.8525 15.6182 65.9216 15.6865C65.9943 15.7583 65.8998 15.7479 65.8998 15.368H62.8998C62.8998 16.2201 63.1173 17.1337 63.814 17.8215C64.5072 18.5057 65.4214 18.716 66.2718 18.716V15.716ZM65.8998 15.368V6.848H62.8998V15.368H65.8998ZM65.8998 6.848C65.8998 6.46133 65.9942 6.4487 65.9185 6.52642C65.8854 6.56044 65.8615 6.56507 65.8846 6.55714C65.9155 6.54658 66.0038 6.524 66.1758 6.524V3.524C65.3423 3.524 64.444 3.74043 63.7691 4.43357C63.1014 5.1193 62.8998 6.01867 62.8998 6.848H65.8998ZM66.1758 6.524C66.3478 6.524 66.4361 6.54658 66.467 6.55714C66.4901 6.56507 66.4662 6.56044 66.4331 6.52642C66.3574 6.4487 66.4518 6.46133 66.4518 6.848H69.4518C69.4518 6.01867 69.2502 5.1193 68.5825 4.43357C67.9076 3.74043 67.0093 3.524 66.1758 3.524V6.524ZM66.4518 6.848V7.28H69.4518V6.848H66.4518ZM69.3424 7.84247C69.5245 7.39221 69.7763 7.09921 70.0902 6.89694C70.4186 6.68535 70.9032 6.51757 71.6206 6.47313L71.4351 3.47887C70.3445 3.54643 69.329 3.81865 68.4654 4.37506C67.5873 4.94078 66.9551 5.74379 66.5613 6.71753L69.3424 7.84247ZM71.6474 6.47122C71.692 6.46766 71.6546 6.4781 71.5703 6.44925C71.4746 6.4165 71.378 6.35315 71.3063 6.27039L73.5733 4.3056C72.9717 3.61136 72.1447 3.42185 71.4082 3.48078L71.6474 6.47122ZM71.3792 6.34866C71.2853 6.25484 71.2641 6.17913 71.2688 6.19406C71.2711 6.20121 71.2781 6.22556 71.285 6.27165C71.2919 6.31757 71.298 6.38001 71.3005 6.46143L74.2991 6.37057C74.2788 5.69952 74.1262 4.85301 73.5005 4.22734L71.3792 6.34866ZM71.3029 6.51257C71.3107 6.63384 71.2982 6.68893 71.296 6.69735C71.2951 6.7007 71.2967 6.6935 71.3038 6.67939C71.3111 6.66494 71.3218 6.6482 71.3355 6.63172L73.6401 8.55228C74.1976 7.88328 74.3452 7.07055 74.2967 6.31943L71.3029 6.51257ZM71.3038 6.67109C71.3308 6.63637 71.3581 6.61114 71.3798 6.59457C71.4008 6.57853 71.4122 6.57396 71.4068 6.5764C71.3923 6.58307 71.3206 6.61145 71.1606 6.63027L71.5111 9.60973C72.256 9.52209 73.1012 9.24662 73.6718 8.51291L71.3038 6.67109ZM71.2059 6.62564L70.6539 6.67364L70.9138 9.66236L71.4658 9.61436L71.2059 6.62564ZM70.6372 6.67518C69.5322 6.7837 68.4762 7.14052 67.6978 7.93277C66.901 8.74376 66.5958 9.80525 66.5958 10.904H69.5958C69.5958 10.3547 69.7386 10.1362 69.8378 10.0352C69.9555 9.91547 70.2434 9.72829 70.9304 9.66082L70.6372 6.67518ZM66.5958 10.904V15.368H69.5958V10.904H66.5958ZM66.5958 15.368C66.5958 15.7577 66.5 15.7735 66.5722 15.7003C66.648 15.6235 66.6436 15.716 66.2718 15.716V18.716C67.116 18.716 68.0236 18.5005 68.7074 17.8077C69.3876 17.1185 69.5958 16.2103 69.5958 15.368H66.5958ZM76.5995 16.52L75.9115 17.8529L75.9243 17.8595L75.9372 17.8659L76.5995 16.52ZM74.2955 14.384L72.9918 15.1258L72.9994 15.1392L73.0073 15.1524L74.2955 14.384ZM74.2715 7.928L72.9677 7.1862L72.9635 7.1937L74.2715 7.928ZM76.4075 5.768L77.1517 7.07038L77.1591 7.06614L76.4075 5.768ZM83.6315 6.608L82.5311 7.62746L82.5387 7.63554L83.6315 6.608ZM76.9595 11.888V10.388H75.2384L75.4736 12.093L76.9595 11.888ZM77.9675 13.928L77.0347 15.1027L77.0536 15.1177L77.073 15.1321L77.9675 13.928ZM81.5675 14.432L81.8141 15.9116L81.8334 15.9084L81.8525 15.9047L81.5675 14.432ZM82.9835 13.952L82.3314 12.6012L82.322 12.6057L82.3127 12.6104L82.9835 13.952ZM84.1595 13.832L83.544 15.1999L83.5729 15.2129L83.6024 15.2247L84.1595 13.832ZM84.8075 14.504L83.3917 14.9995L83.4026 15.0306L83.4148 15.0611L84.8075 14.504ZM84.8075 15.512L83.3978 14.9994L83.3909 15.0184L83.3845 15.0377L84.8075 15.512ZM84.0155 16.352L83.3043 15.0313L83.2999 15.0337L84.0155 16.352ZM82.1435 17.024L81.8362 15.5558L81.8161 15.56L81.7961 15.5648L82.1435 17.024ZM77.8235 8.072L76.781 6.99352L76.7718 7.00235L76.7628 7.01134L77.8235 8.072ZM76.9595 10.016L75.4729 9.81588L75.244 11.516H76.9595V10.016ZM82.1435 10.016V11.516H83.7275L83.6413 9.9343L82.1435 10.016ZM80.1995 15.764C78.9834 15.764 78.0204 15.5474 77.2618 15.1741L75.9372 17.8659C77.1946 18.4846 78.6316 18.764 80.1995 18.764V15.764ZM77.2875 15.1871C76.531 14.7966 75.9768 14.2745 75.5837 13.6156L73.0073 15.1524C73.7022 16.3175 74.684 17.2194 75.9115 17.8529L77.2875 15.1871ZM75.5992 13.6422C75.2201 12.9759 75.0035 12.1522 75.0035 11.12H72.0035C72.0035 12.5838 72.3149 13.9361 72.9918 15.1258L75.5992 13.6422ZM75.0035 11.12C75.0035 10.119 75.2125 9.31593 75.5795 8.6623L72.9635 7.1937C72.3065 8.36407 72.0035 9.689 72.0035 11.12H75.0035ZM75.5752 8.66979C75.9751 7.96694 76.4974 7.44426 77.1517 7.07036L75.6633 4.46563C74.5256 5.11574 73.6239 6.03306 72.9678 7.18621L75.5752 8.66979ZM77.1591 7.06614C77.8155 6.68611 78.5981 6.476 79.5515 6.476V3.476C78.1369 3.476 76.8235 3.79389 75.6559 4.46986L77.1591 7.06614ZM79.5515 6.476C80.9165 6.476 81.8517 6.89409 82.5312 7.62743L84.7318 5.58856C83.3953 4.1459 81.6105 3.476 79.5515 3.476V6.476ZM82.5387 7.63554C83.2238 8.36413 83.6435 9.4178 83.6435 10.976H86.6435C86.6435 8.8542 86.0552 6.99587 84.7243 5.58046L82.5387 7.63554ZM83.6435 10.976C83.6435 10.9752 83.6435 10.9583 83.6488 10.9288C83.6541 10.8987 83.6648 10.8553 83.6862 10.8033C83.733 10.6899 83.813 10.5788 83.9184 10.4936C84.1101 10.3386 84.2284 10.388 84.0155 10.388V13.388C84.5546 13.388 85.2369 13.2854 85.8046 12.8264C86.4332 12.3182 86.6435 11.6056 86.6435 10.976H83.6435ZM84.0155 10.388H76.9595V13.388H84.0155V10.388ZM75.4736 12.093C75.6355 13.2671 76.0956 14.3569 77.0347 15.1027L78.9003 12.7533C78.7514 12.6351 78.5395 12.3649 78.4454 11.683L75.4736 12.093ZM77.073 15.1321C77.9768 15.8035 79.0987 16.052 80.2715 16.052V13.052C79.4923 13.052 79.0782 12.8845 78.862 12.7239L77.073 15.1321ZM80.2715 16.052C80.7565 16.052 81.273 16.0018 81.8141 15.9116L81.3209 12.9524C80.9019 13.0222 80.5545 13.052 80.2715 13.052V16.052ZM81.8525 15.9047C82.4813 15.783 83.0832 15.5792 83.6543 15.2936L82.3127 12.6104C81.9878 12.7728 81.6457 12.889 81.2825 12.9593L81.8525 15.9047ZM83.6356 15.3028C83.6936 15.2748 83.7348 15.2597 83.7601 15.2519C83.7852 15.2441 83.7903 15.245 83.7778 15.2463C83.7644 15.2476 83.7334 15.2492 83.6892 15.2428C83.644 15.2362 83.594 15.2224 83.544 15.1999L84.775 12.4641C83.8902 12.0659 83.0029 12.277 82.3314 12.6012L83.6356 15.3028ZM83.6024 15.2247C83.5866 15.2184 83.5363 15.1938 83.4817 15.1372C83.4267 15.0801 83.4006 15.025 83.3917 14.9995L86.2233 14.0085C85.9654 13.2717 85.4313 12.7252 84.7166 12.4393L83.6024 15.2247ZM83.4148 15.0611C83.413 15.0566 83.4098 15.0473 83.4073 15.0343C83.4047 15.0211 83.4035 15.0079 83.4035 14.996C83.4035 14.9703 83.4089 14.969 83.3978 14.9994L86.2172 16.0246C86.4594 15.3587 86.4775 14.6402 86.2002 13.9469L83.4148 15.0611ZM83.3845 15.0377C83.393 15.0122 83.4038 14.9898 83.4147 14.972C83.4254 14.9545 83.4334 14.9457 83.4341 14.945C83.4342 14.9449 83.4018 14.9788 83.3044 15.0313L84.7267 17.6727C85.3641 17.3295 85.9619 16.7922 86.2305 15.9863L83.3845 15.0377ZM83.2999 15.0337C82.8804 15.2614 82.3961 15.4386 81.8362 15.5558L82.4508 18.4922C83.2669 18.3214 84.0306 18.0506 84.7311 17.6703L83.2999 15.0337ZM81.7961 15.5648C81.2259 15.7005 80.6948 15.764 80.1995 15.764V18.764C80.9522 18.764 81.7171 18.6675 82.4909 18.4832L81.7961 15.5648ZM79.6955 5.876C78.6016 5.876 77.583 6.21824 76.781 6.99352L78.866 9.15048C79.024 8.99776 79.2534 8.876 79.6955 8.876V5.876ZM76.7628 7.01134C76.0084 7.76574 75.6164 8.74997 75.4729 9.81588L78.4461 10.2161C78.5266 9.61803 78.7106 9.30626 78.8842 9.13266L76.7628 7.01134ZM76.9595 11.516H82.1435V8.516H76.9595V11.516ZM83.6413 9.9343C83.5829 8.86375 83.295 7.80937 82.5594 7.01609C81.793 6.18961 80.757 5.876 79.6955 5.876V8.876C80.17 8.876 80.31 9.00239 80.3596 9.05591C80.44 9.14263 80.6081 9.40825 80.6457 10.0977L83.6413 9.9343ZM89.5794 17.072L89.3224 18.5498L89.3277 18.5507L89.5794 17.072ZM87.5634 16.424L86.8713 17.7548L86.8819 17.7603L86.8926 17.7656L87.5634 16.424ZM86.7714 15.632L85.3556 16.1275L85.3664 16.1586L85.3787 16.1891L86.7714 15.632ZM86.7714 14.696L88.1789 15.2146L86.7714 14.696ZM87.3714 14.024L88.0422 15.3656L88.0714 15.3511L88.0998 15.3352L87.3714 14.024ZM88.3794 14.024L87.8025 15.4086L87.8049 15.4096L88.3794 14.024ZM90.1794 14.6L89.8769 16.0692L89.8852 16.0709L90.1794 14.6ZM93.2754 14.456L94.0929 15.7137L94.1145 15.6996L94.1356 15.6848L93.2754 14.456ZM92.5314 12.536L92.2643 14.012L92.2707 14.0132L92.5314 12.536ZM90.0114 12.08L90.2785 10.6039L90.2694 10.6024L90.0114 12.08ZM87.7074 11L86.631 12.0447V12.0447L87.7074 11ZM87.5874 6.8L88.7714 7.72091V7.72091L87.5874 6.8ZM89.4354 5.456L88.8685 4.06723L89.4354 5.456ZM95.8914 5.792L95.2206 7.13364L95.2323 7.13952L95.2442 7.1452L95.8914 5.792ZM96.5634 6.536L95.1082 6.8998L95.1166 6.93363L95.1266 6.96702L96.5634 6.536ZM96.5154 7.472L97.8978 8.05409V8.05408L96.5154 7.472ZM95.8914 8.168L96.5622 9.50964L96.5913 9.49506L96.6198 9.47923L95.8914 8.168ZM94.8594 8.12L94.2387 9.48555L94.2469 9.48931L94.2553 9.49297L94.8594 8.12ZM93.4194 7.616L93.0429 9.068L93.0684 9.07458L93.094 9.08028L93.4194 7.616ZM90.6354 7.808L91.4956 9.03685L91.5157 9.02275L91.5354 9.008L90.6354 7.808ZM91.2834 9.728L91.0013 11.2012L91.0088 11.2027L91.0163 11.204L91.2834 9.728ZM93.8034 10.184L93.5363 11.66L93.5447 11.6615L93.5531 11.663L93.8034 10.184ZM96.1794 11.24L95.1347 12.3164L95.1429 12.3244L95.1513 12.3323L96.1794 11.24ZM95.5554 16.232L94.6816 15.0128L95.5554 16.232ZM91.7634 15.764C91.1504 15.764 90.5068 15.7083 89.8311 15.5933L89.3277 18.5507C90.156 18.6917 90.9684 18.764 91.7634 18.764V15.764ZM89.8364 15.5942C89.2301 15.4887 88.6994 15.315 88.2342 15.0824L86.8926 17.7656C87.6433 18.141 88.4566 18.3993 89.3224 18.5498L89.8364 15.5942ZM88.2554 15.0932C88.1641 15.0457 88.1299 15.0132 88.126 15.0093C88.1246 15.0079 88.1299 15.013 88.1383 15.0255C88.1469 15.0383 88.1561 15.055 88.1641 15.0749L85.3787 16.1891C85.6766 16.934 86.2526 17.4331 86.8713 17.7548L88.2554 15.0932ZM88.1872 15.1365C88.1821 15.1219 88.1874 15.1312 88.1874 15.158C88.1874 15.1703 88.1862 15.1826 88.1842 15.1938C88.1822 15.205 88.1798 15.2121 88.1789 15.2146L85.3639 14.1774C85.1255 14.8243 85.1343 15.4953 85.3556 16.1275L88.1872 15.1365ZM88.1789 15.2146C88.1749 15.2254 88.1594 15.2597 88.1243 15.299C88.089 15.3385 88.0555 15.359 88.0422 15.3656L86.7006 12.6824C86.0689 12.9982 85.6069 13.5178 85.3639 14.1774L88.1789 15.2146ZM88.0998 15.3352C88.0623 15.3561 88.018 15.3744 87.9689 15.387C87.9201 15.3995 87.8756 15.404 87.8394 15.404C87.7683 15.404 87.7511 15.3872 87.8025 15.4086L88.9563 12.6394C88.2706 12.3537 87.4346 12.2729 86.6429 12.7128L88.0998 15.3352ZM87.8049 15.4096C88.5257 15.7085 89.2182 15.9336 89.8769 16.0692L90.4819 13.1308C90.0525 13.0424 89.545 12.8835 88.9539 12.6384L87.8049 15.4096ZM89.8852 16.0709C90.5311 16.2001 91.166 16.268 91.7874 16.268V13.268C91.3847 13.268 90.9476 13.2239 90.4735 13.1291L89.8852 16.0709ZM91.7874 16.268C92.5564 16.268 93.4067 16.1596 94.0929 15.7137L92.4579 13.1983C92.4951 13.1742 92.4782 13.1962 92.3556 13.2219C92.2354 13.2471 92.0512 13.268 91.7874 13.268V16.268ZM94.1356 15.6848C94.8053 15.2161 95.2554 14.4929 95.2554 13.592H92.2554C92.2554 13.5311 92.2719 13.4376 92.3241 13.3435C92.3733 13.2551 92.4231 13.2216 92.4152 13.2272L94.1356 15.6848ZM95.2554 13.592C95.2554 12.8954 94.978 12.2457 94.4292 11.7723C93.9389 11.3492 93.3346 11.1546 92.7921 11.0588L92.2707 14.0132C92.396 14.0353 92.4691 14.0592 92.5035 14.0732C92.5377 14.087 92.5159 14.0837 92.4695 14.0437C92.4183 13.9995 92.3554 13.9259 92.3096 13.8235C92.2646 13.7228 92.2554 13.6375 92.2554 13.592H95.2554ZM92.7985 11.06L90.2785 10.604L89.7443 13.556L92.2643 14.012L92.7985 11.06ZM90.2694 10.6024C89.4657 10.462 89.026 10.2049 88.7837 9.95529L86.631 12.0447C87.4447 12.8831 88.5411 13.346 89.7534 13.5576L90.2694 10.6024ZM88.7837 9.95529C88.5711 9.73617 88.4154 9.42144 88.4154 8.864H85.4154C85.4154 10.0666 85.7877 11.1758 86.631 12.0447L88.7837 9.95529ZM88.4154 8.864C88.4154 8.36347 88.5482 8.00791 88.7714 7.72091L86.4033 5.87909C85.7306 6.74409 85.4154 7.76453 85.4154 8.864H88.4154ZM88.7714 7.72091C89.0339 7.38342 89.4219 7.08163 90.0022 6.84477L88.8685 4.06723C87.8808 4.47037 87.0368 5.06458 86.4033 5.87909L88.7714 7.72091ZM90.0022 6.84477C90.5729 6.61186 91.2781 6.476 92.1474 6.476V3.476C90.9687 3.476 89.8659 3.66014 88.8685 4.06723L90.0022 6.84477ZM92.1474 6.476C93.3592 6.476 94.3714 6.70904 95.2206 7.13364L96.5622 4.45036C95.2354 3.78696 93.7515 3.476 92.1474 3.476V6.476ZM95.2442 7.1452C95.2896 7.1669 95.2669 7.16485 95.2222 7.11543C95.1997 7.09048 95.1754 7.0576 95.1539 7.01731C95.1323 6.97694 95.1174 6.93661 95.1082 6.8998L98.0186 6.1722C97.8049 5.31744 97.2055 4.75775 96.5386 4.4388L95.2442 7.1452ZM95.1266 6.96702C95.128 6.97155 95.1271 6.96993 95.1263 6.96287C95.1253 6.95566 95.1247 6.94541 95.1253 6.93318C95.126 6.92093 95.1277 6.90989 95.1298 6.90106C95.1318 6.89235 95.1335 6.88847 95.1329 6.88991L97.8978 8.05408C98.1629 7.42446 98.1948 6.75405 98.0001 6.10498L95.1266 6.96702ZM95.1329 6.88991C95.1309 6.89466 95.1308 6.89407 95.1334 6.8898C95.1362 6.88542 95.1406 6.87933 95.1465 6.87268C95.1525 6.86603 95.1581 6.86096 95.1623 6.85766C95.1664 6.85443 95.1672 6.8544 95.1629 6.85676L96.6198 9.47923C97.2017 9.156 97.6397 8.66707 97.8978 8.05409L95.1329 6.88991ZM95.2206 6.82636C95.2669 6.8032 95.3168 6.78604 95.3671 6.77585C95.4169 6.76577 95.4582 6.76428 95.4871 6.76562C95.5416 6.76815 95.5381 6.77985 95.4635 6.74703L94.2553 9.49297C94.9093 9.78075 95.7454 9.91806 96.5622 9.50964L95.2206 6.82636ZM95.4801 6.75445C94.8847 6.48384 94.304 6.276 93.7448 6.15172L93.094 9.08028C93.3987 9.14799 93.778 9.27616 94.2387 9.48555L95.4801 6.75445ZM93.7958 6.164C93.2602 6.02515 92.7249 5.948 92.1954 5.948V8.948C92.4338 8.948 92.7145 8.98285 93.0429 9.068L93.7958 6.164ZM92.1954 5.948C91.3792 5.948 90.4521 6.07043 89.7354 6.608L91.5354 9.008C91.4822 9.04791 91.4818 9.02747 91.6027 8.99959C91.7213 8.9722 91.9123 8.948 92.1954 8.948V5.948ZM89.7752 6.57915C89.1055 7.04795 88.6554 7.7711 88.6554 8.672H91.6554C91.6554 8.73292 91.6389 8.8264 91.5866 8.92046C91.5375 9.00891 91.4876 9.04241 91.4956 9.03685L89.7752 6.57915ZM88.6554 8.672C88.6554 9.32664 88.893 9.96498 89.4122 10.451C89.8847 10.8933 90.4737 11.1002 91.0013 11.2012L91.5655 8.25477C91.4626 8.23507 91.4102 8.21517 91.3937 8.20788C91.3782 8.2011 91.4112 8.21293 91.4625 8.26097C91.518 8.3129 91.5743 8.3882 91.6126 8.48126C91.6498 8.57152 91.6554 8.64226 91.6554 8.672H88.6554ZM91.0163 11.204L93.5363 11.66L94.0705 8.70797L91.5505 8.25197L91.0163 11.204ZM93.5531 11.663C94.4071 11.8075 94.8787 12.068 95.1347 12.3164L97.2241 10.1636C96.392 9.35604 95.2796 8.9125 94.0537 8.70503L93.5531 11.663ZM95.1513 12.3323C95.3349 12.505 95.4954 12.7805 95.4954 13.352H98.4954C98.4954 12.1315 98.1119 10.999 97.2074 10.1477L95.1513 12.3323ZM95.4954 13.352C95.4954 14.125 95.2289 14.6205 94.6816 15.0128L96.4292 17.4512C97.8018 16.4675 98.4954 15.043 98.4954 13.352H95.4954ZM94.6816 15.0128C94.0481 15.4668 93.1195 15.764 91.7634 15.764V18.764C93.5432 18.764 95.1427 18.3732 96.4292 17.4512L94.6816 15.0128Z" fill="#5B3511"/>
</g>
<defs>
<filter id="filter0_d_232_62" x="0.0321198" y="0.0799866" width="97.9632" height="19.184" filterUnits="userSpaceOnUse" color-interpolation-filters="sRGB">
<feFlood flood-opacity="0" result="BackgroundImageFix"/>
<feColorMatrix in="SourceAlpha" type="matrix" values="0 0 0 0 0 0 0 0 0 0 0 0 0 0 0 0 0 0 127 0" result="hardAlpha"/>
<feOffset dy="1"/>
<feGaussianBlur stdDeviation="0.5"/>
<feComposite in2="hardAlpha" operator="out"/>
<feColorMatrix type="matrix" values="0 0 0 0 0 0 0 0 0 0 0 0 0 0 0 0 0 0 0.25 0"/>
<feBlend mode="normal" in2="BackgroundImageFix" result="effect1_dropShadow_232_62"/>
<feBlend mode="normal" in="SourceGraphic" in2="effect1_dropShadow_232_62" result="shape"/>
</filter>
<linearGradient id="paint0_linear_232_62" x1="48.5" y1="-7" x2="48.5" y2="26" gradientUnits="userSpaceOnUse">
<stop stop-color="#FDE092"/>
<stop offset="1" stop-color="#C18B2C"/>
</linearGradient>
</defs>
</svg>
