<svg width="210" height="64" viewBox="0 0 210 64" fill="none" xmlns="http://www.w3.org/2000/svg">
<g clip-path="url(#clip0_13_761)">
<rect x="1.45455" y="1.45453" width="206.545" height="61.0909" rx="9" fill="white"/>
<path d="M201.357 1.39793C203.135 1.39978 204.84 2.11005 206.097 3.37291C207.354 4.63578 208.061 6.3481 208.063 8.13425V55.8659C208.061 57.652 207.354 59.3643 206.097 60.6272C204.84 61.8901 203.135 62.6003 201.357 62.6022H8.09562C6.31818 62.6 4.61418 61.8895 3.35734 60.6267C2.1005 59.3639 1.39343 57.6518 1.39122 55.8659V8.13425C1.39343 6.34834 2.1005 4.63623 3.35734 3.37341C4.61418 2.11058 6.31818 1.40015 8.09562 1.39793H201.357ZM201.357 6.10352e-05H8.09562C5.94852 6.10352e-05 3.88937 0.857054 2.37114 2.38251C0.852913 3.90797 -1.90735e-05 5.97693 -1.90735e-05 8.13425V55.8659C-1.90735e-05 58.0232 0.852913 60.0922 2.37114 61.6176C3.88937 63.1431 5.94852 64.0001 8.09562 64.0001H201.357C203.505 64.0001 205.564 63.1431 207.082 61.6177C208.601 60.0923 209.454 58.0233 209.455 55.8659V8.13425C209.454 5.9768 208.601 3.90784 207.082 2.38243C205.564 0.857009 203.505 6.10033e-05 201.357 6.10352e-05Z" fill="black"/>
<path d="M22.054 26.1499C18.6552 32.0741 20.8158 41.0652 24.5736 46.5169C26.449 49.2413 28.348 51.689 30.9482 51.689H31.0971C32.3186 51.6401 33.202 51.2626 34.0549 50.8978C35.0134 50.4868 36.0026 50.0591 37.5608 50.0591C39.0397 50.0591 39.9843 50.4701 40.8998 50.8671C41.8152 51.264 42.7265 51.6638 44.0996 51.6373C47.0296 51.5828 48.8299 48.9422 50.4145 46.6133C51.6033 44.8578 52.5352 42.94 53.1817 40.9184L53.1928 40.8835C53.2188 40.8059 53.2152 40.7214 53.1828 40.6463C53.1505 40.5712 53.0916 40.5108 53.0175 40.4767L52.9939 40.4669C52.4777 40.2544 47.952 38.2303 47.9047 32.7395C47.8616 28.2733 51.2993 25.9081 51.9894 25.479L52.0214 25.458C52.0585 25.4343 52.0905 25.4032 52.1154 25.3668C52.1403 25.3303 52.1576 25.2892 52.1663 25.2459C52.175 25.2025 52.1749 25.1579 52.166 25.1146C52.1571 25.0713 52.1397 25.0302 52.1146 24.9939C49.7412 21.4992 46.1031 20.9778 44.6381 20.9149C44.4217 20.8929 44.2044 20.8821 43.9869 20.8828C42.266 20.8828 40.6174 21.5356 39.2943 22.0598C38.3802 22.4218 37.59 22.735 37.0461 22.735C36.4339 22.735 35.6395 22.4176 34.7213 22.0514C33.4914 21.5621 32.0974 21.0058 30.6227 21.0058H30.5183C27.082 21.0561 23.8404 23.0285 22.054 26.1499Z" fill="black"/>
<path d="M44.6353 11.3004C42.5582 11.3856 40.0664 12.6703 38.5764 14.4232C37.3104 15.8952 36.0722 18.3526 36.4005 20.8282C36.4117 20.9022 36.4475 20.9701 36.502 21.0209C36.5566 21.0717 36.6268 21.1023 36.701 21.1078C36.8401 21.119 36.9793 21.1246 37.1267 21.1246C39.158 21.1246 41.3492 19.9951 42.8461 18.1779C44.421 16.2586 45.2113 13.7942 44.9761 11.5883C44.9648 11.5065 44.9237 11.4317 44.8608 11.3786C44.7978 11.3254 44.7175 11.2975 44.6353 11.3004Z" fill="black"/>
<path d="M68.5341 12.5794H72.4727C73.4289 12.5609 74.3746 12.7819 75.2245 13.2225C76.001 13.6279 76.6488 14.2439 77.0944 15.0005C77.5332 15.7886 77.7636 16.6766 77.7636 17.5796C77.7636 18.4827 77.5332 19.3706 77.0944 20.1587C76.6493 20.9161 76.0014 21.5326 75.2245 21.9382C74.3744 22.3781 73.4288 22.5991 72.4727 22.5812H68.5341V12.5794ZM72.417 21.9242C73.2595 21.9417 74.0937 21.7532 74.8475 21.3748C75.5252 21.0311 76.0888 20.4969 76.4697 19.8372C76.8423 19.1436 77.0374 18.3678 77.0374 17.5796C77.0374 16.7915 76.8423 16.0156 76.4697 15.3221C76.0889 14.6622 75.5253 14.128 74.8475 13.7844C74.094 13.4049 73.2597 13.2158 72.417 13.2336H69.2589V21.9242H72.417Z" fill="black"/>
<path d="M81.0553 22.152C80.4966 21.8335 80.0364 21.3663 79.7252 20.8017C79.4083 20.201 79.2425 19.5315 79.2425 18.8517C79.2425 18.1718 79.4083 17.5023 79.7252 16.9016C80.0364 16.337 80.4966 15.8698 81.0553 15.5513C81.6376 15.2321 82.2903 15.0648 82.9536 15.0648C83.617 15.0648 84.2696 15.2321 84.8519 15.5513C85.4104 15.8696 85.8702 16.3369 86.1806 16.9016C86.4985 17.502 86.6647 18.1716 86.6647 18.8517C86.6647 19.5317 86.4985 20.2013 86.1806 20.8017C85.8702 21.3664 85.4104 21.8337 84.8519 22.152C84.2696 22.4712 83.617 22.6385 82.9536 22.6385C82.2903 22.6385 81.6376 22.4712 81.0553 22.152ZM84.4819 21.5929C84.933 21.3256 85.3022 20.9387 85.549 20.4746C85.806 19.9706 85.94 19.4124 85.94 18.8461C85.94 18.2797 85.806 17.7216 85.549 17.2175C85.3022 16.7534 84.933 16.3665 84.4819 16.0992C84.0145 15.8357 83.4875 15.6973 82.9515 15.6973C82.4156 15.6973 81.8886 15.8357 81.4212 16.0992C80.9704 16.3665 80.6017 16.7535 80.3555 17.2175C80.0985 17.7216 79.9645 18.2797 79.9645 18.8461C79.9645 19.4124 80.0985 19.9706 80.3555 20.4746C80.6017 20.9387 80.9704 21.3256 81.4212 21.5929C81.8886 21.8564 82.4156 21.9948 82.9515 21.9948C83.4875 21.9948 84.0145 21.8564 84.4819 21.5929Z" fill="black"/>
<path d="M99.268 15.1221L96.4522 22.5812H95.7844L93.2801 16.109L90.7634 22.5812H90.1081L87.2936 15.1221H87.9753L90.4476 21.7844L92.9782 15.1263H93.589L96.1071 21.7704L98.6114 15.1263L99.268 15.1221Z" fill="black"/>
<path d="M106.743 15.8798C107.283 16.4222 107.553 17.2031 107.554 18.2226V22.5812H106.842V18.28C106.842 17.4412 106.631 16.8029 106.21 16.3649C105.789 15.9269 105.199 15.7079 104.439 15.7079C103.567 15.7079 102.88 15.9702 102.377 16.4949C101.875 17.0195 101.623 17.7241 101.623 18.6085V22.5812H100.912V15.1222H101.596V16.7367C101.845 16.2205 102.244 15.7922 102.741 15.508C103.29 15.2018 103.911 15.0488 104.539 15.0649C105.468 15.0649 106.202 15.3365 106.743 15.8798Z" fill="black"/>
<path d="M110.483 11.9797H111.194V22.5812H110.483V11.9797Z" fill="black"/>
<path d="M115.196 22.152C114.638 21.8331 114.178 21.3659 113.866 20.8017C113.549 20.201 113.384 19.5315 113.384 18.8517C113.384 18.1718 113.549 17.5023 113.866 16.9016C114.178 16.3374 114.638 15.8702 115.196 15.5513C115.779 15.2321 116.431 15.0648 117.095 15.0648C117.758 15.0648 118.411 15.2321 118.993 15.5513C119.551 15.8702 120.012 16.3374 120.323 16.9016C120.64 17.5023 120.806 18.1718 120.806 18.8517C120.806 19.5315 120.64 20.201 120.323 20.8017C120.012 21.3659 119.551 21.8331 118.993 22.152C118.411 22.4712 117.758 22.6385 117.095 22.6385C116.431 22.6385 115.779 22.4712 115.196 22.152ZM118.623 21.5929C119.074 21.3256 119.443 20.9387 119.69 20.4746C119.947 19.9706 120.081 19.4124 120.081 18.8461C120.081 18.2797 119.947 17.7216 119.69 17.2175C119.443 16.7534 119.074 16.3665 118.623 16.0992C118.156 15.8355 117.629 15.6969 117.093 15.6969C116.557 15.6969 116.03 15.8355 115.562 16.0992C115.111 16.3665 114.742 16.7534 114.495 17.2175C114.238 17.7216 114.104 18.2797 114.104 18.8461C114.104 19.4124 114.238 19.9706 114.495 20.4746C114.742 20.9387 115.111 21.3256 115.562 21.5929C116.03 21.8566 116.557 21.9952 117.093 21.9952C117.629 21.9952 118.156 21.8566 118.623 21.5929Z" fill="black"/>
<path d="M127.603 15.7735C128.096 16.246 128.342 16.9393 128.342 17.8535V22.5825H127.661V21.2532C127.424 21.6905 127.063 22.0465 126.623 22.275C126.116 22.5303 125.554 22.6556 124.987 22.6398C124.161 22.6398 123.51 22.4442 123.032 22.0528C122.812 21.8666 122.634 21.6354 122.511 21.3746C122.387 21.1139 122.32 20.8295 122.315 20.5407C122.309 20.2518 122.365 19.9652 122.479 19.6999C122.593 19.4346 122.762 19.1969 122.975 19.0026C123.416 18.6168 124.12 18.4239 125.087 18.4239H127.631V17.8242C127.631 17.129 127.446 16.6006 127.075 16.239C126.704 15.8774 126.156 15.6962 125.432 15.6952C124.948 15.6933 124.469 15.7805 124.017 15.9525C123.595 16.1064 123.207 16.3393 122.872 16.6388L122.517 16.1244C122.907 15.7788 123.362 15.5142 123.854 15.3458C124.379 15.1589 124.932 15.0643 125.489 15.0662C126.406 15.0653 127.111 15.301 127.603 15.7735ZM126.657 21.625C127.102 21.3222 127.443 20.8879 127.631 20.3823V18.9844H125.101C124.371 18.9844 123.842 19.1177 123.515 19.3842C123.353 19.5164 123.225 19.6847 123.14 19.8758C123.055 20.0669 123.015 20.2753 123.025 20.4843C123.016 20.7056 123.061 20.9257 123.155 21.1259C123.249 21.3262 123.389 21.5008 123.565 21.6348C123.926 21.9144 124.433 22.0541 125.087 22.0541C125.641 22.0705 126.188 21.9206 126.657 21.6236V21.625Z" fill="black"/>
<path d="M137.883 11.9797V22.5812H137.188V20.8227C136.914 21.3818 136.483 21.8486 135.95 22.166C135.401 22.486 134.775 22.6494 134.141 22.6385C133.483 22.6473 132.835 22.4794 132.264 22.152C131.711 21.8344 131.256 21.3696 130.949 20.8087C130.637 20.2041 130.474 19.5329 130.474 18.8517C130.474 18.1705 130.637 17.4993 130.949 16.8946C131.253 16.3314 131.709 15.8658 132.264 15.5513C132.837 15.2287 133.484 15.0633 134.141 15.0718C134.768 15.0622 135.385 15.2256 135.926 15.5443C136.453 15.8593 136.883 16.3139 137.17 16.8583V11.9867L137.883 11.9797ZM135.719 21.5943C136.169 21.327 136.538 20.9401 136.784 20.476C137.041 19.972 137.175 19.4138 137.175 18.8475C137.175 18.2812 137.041 17.723 136.784 17.2189C136.538 16.7549 136.169 16.3679 135.719 16.1006C135.251 15.8371 134.724 15.6987 134.188 15.6987C133.652 15.6987 133.125 15.8371 132.658 16.1006C132.207 16.3679 131.838 16.7549 131.592 17.2189C131.335 17.723 131.201 18.2812 131.201 18.8475C131.201 19.4138 131.335 19.972 131.592 20.476C131.838 20.9401 132.207 21.327 132.658 21.5943C133.125 21.8578 133.652 21.9962 134.188 21.9962C134.724 21.9962 135.251 21.8578 135.719 21.5943Z" fill="black"/>
<path d="M145.541 22.152C144.982 21.8337 144.523 21.3664 144.212 20.8017C143.894 20.2013 143.728 19.5317 143.728 18.8517C143.728 18.1716 143.894 17.502 144.212 16.9016C144.523 16.3369 144.982 15.8696 145.541 15.5513C146.123 15.2321 146.776 15.0648 147.439 15.0648C148.103 15.0648 148.755 15.2321 149.337 15.5513C149.896 15.8698 150.356 16.337 150.668 16.9016C150.984 17.5023 151.15 18.1718 151.15 18.8517C151.15 19.5315 150.984 20.201 150.668 20.8017C150.356 21.3663 149.896 21.8335 149.337 22.152C148.755 22.4712 148.103 22.6385 147.439 22.6385C146.776 22.6385 146.123 22.4712 145.541 22.152ZM148.969 21.5929C149.42 21.3256 149.788 20.9387 150.035 20.4746C150.292 19.9706 150.426 19.4124 150.426 18.8461C150.426 18.2797 150.292 17.7216 150.035 17.2175C149.788 16.7535 149.42 16.3665 148.969 16.0992C148.501 15.8357 147.974 15.6973 147.438 15.6973C146.902 15.6973 146.376 15.8357 145.908 16.0992C145.457 16.3665 145.088 16.7534 144.841 17.2175C144.584 17.7216 144.45 18.2797 144.45 18.8461C144.45 19.4124 144.584 19.9706 144.841 20.4746C145.088 20.9387 145.457 21.3256 145.908 21.5929C146.376 21.8564 146.902 21.9948 147.438 21.9948C147.974 21.9948 148.501 21.8564 148.969 21.5929Z" fill="black"/>
<path d="M159.185 15.8798C159.726 16.4221 159.997 17.2031 159.996 18.2226V22.5811H159.285V18.2799C159.285 17.4412 159.074 16.8028 158.652 16.3648C158.23 15.9268 157.64 15.7078 156.881 15.7078C156.008 15.7078 155.321 15.9702 154.819 16.4948C154.317 17.0195 154.066 17.724 154.066 18.6084V22.5811H153.355V15.1221H154.037V16.7367C154.287 16.2205 154.686 15.7921 155.182 15.5079C155.732 15.2021 156.353 15.0491 156.981 15.0648C157.91 15.0648 158.645 15.3365 159.185 15.8798Z" fill="black"/>
<path d="M170.262 22.1087C170.069 22.2886 169.838 22.4228 169.587 22.5015C169.315 22.594 169.029 22.6412 168.741 22.6413C168.092 22.6413 167.594 22.4623 167.247 22.1045C166.9 21.7466 166.725 21.249 166.721 20.6116V15.74H165.352V15.1249H166.717V13.4964H167.439V15.1249H169.804V15.74H167.439V20.5403C167.439 21.0267 167.555 21.3958 167.788 21.6474C168.021 21.899 168.365 22.0253 168.819 22.0262C169.242 22.0393 169.654 21.8892 169.971 21.6068L170.262 22.1087Z" fill="black"/>
<path d="M178.068 15.8798C178.609 16.4222 178.879 17.2031 178.879 18.2226V22.5812H178.168V18.2799C178.168 17.4412 177.957 16.8028 177.535 16.3648C177.113 15.9268 176.523 15.7079 175.766 15.7079C174.893 15.7079 174.206 15.9702 173.704 16.4949C173.202 17.0195 172.951 17.724 172.95 18.6084V22.5812H172.239V11.9797H172.95V16.6794C173.197 16.1734 173.595 15.7568 174.088 15.487C174.634 15.196 175.246 15.0516 175.864 15.0676C176.794 15.0658 177.528 15.3365 178.068 15.8798Z" fill="black"/>
<path d="M188.093 19.0236H181.709C181.718 19.5703 181.87 20.1051 182.15 20.5738C182.418 21.0199 182.803 21.3832 183.263 21.6236C183.716 21.8489 184.211 21.9749 184.717 21.9932C185.222 22.0115 185.725 21.9218 186.193 21.7299C186.596 21.5609 186.95 21.2932 187.224 20.9513L187.641 21.4238C187.314 21.8177 186.897 22.1265 186.425 22.324C185.855 22.5576 185.241 22.6633 184.626 22.6336C184.01 22.6039 183.409 22.4395 182.864 22.152C182.296 21.8389 181.826 21.3739 181.506 20.8087C181.172 20.2117 181.003 19.5363 181.015 18.8517C181.003 18.1707 181.161 17.4977 181.477 16.8947C181.769 16.3356 182.21 15.8684 182.75 15.5443C183.302 15.2267 183.928 15.059 184.565 15.0578C185.202 15.0566 185.828 15.2218 186.382 15.5373C186.918 15.8567 187.357 16.3186 187.648 16.8723C187.963 17.4709 188.122 18.1398 188.11 18.8167L188.093 19.0236ZM183.16 16.0434C182.744 16.2764 182.398 16.6172 182.158 17.0302C181.902 17.4674 181.753 17.9595 181.724 18.4659H187.413C187.393 17.9611 187.246 17.4697 186.986 17.0372C186.736 16.62 186.38 16.2762 185.956 16.0404C185.531 15.8047 185.053 15.6852 184.568 15.6939C184.077 15.6868 183.592 15.8072 183.16 16.0434Z" fill="black"/>
<path d="M79.0616 44.6898H70.5569L68.8805 48.6458H65.6236L73.2754 31.5541H76.3862L84.0645 48.6458H80.7645L79.0616 44.6898ZM78.0168 42.2002L74.81 34.7286L71.6268 42.2002H78.0168Z" fill="black"/>
<path d="M96.5217 36.2914C97.5079 36.835 98.3211 37.6477 98.8674 38.6357C99.4341 39.6449 99.7174 40.8098 99.7174 42.1303C99.741 43.3528 99.4481 44.5604 98.8674 45.6348C98.3243 46.6281 97.5106 47.4451 96.5217 47.9902C95.4813 48.5549 94.3136 48.8409 93.1312 48.8205C91.3829 48.8205 89.9982 48.2348 88.977 47.0634V53.3874H85.9385V35.6079H88.8337V37.3175C89.3268 36.7023 89.966 36.2216 90.6924 35.9196C91.4674 35.6032 92.2975 35.4454 93.134 35.4555C94.3159 35.4374 95.4826 35.7252 96.5217 36.2914ZM95.5478 45.0812C96.2685 44.3357 96.6293 43.3507 96.6302 42.1261C96.6312 40.9016 96.2704 39.917 95.5478 39.1724C94.8272 38.4269 93.908 38.0542 92.7904 38.0542C92.1016 38.044 91.4224 38.2171 90.8218 38.556C90.2336 38.8907 89.7514 39.3854 89.4306 39.9832C89.0944 40.6493 88.9193 41.3856 88.9193 42.1324C88.9193 42.8792 89.0944 43.6155 89.4306 44.2816C89.7514 44.8795 90.2336 45.3742 90.8218 45.7089C91.4225 46.0473 92.1017 46.22 92.7904 46.2093C93.909 46.2056 94.8286 45.8296 95.5492 45.0812H95.5478Z" fill="black"/>
<path d="M113.192 36.2914C114.178 36.835 114.991 37.6477 115.537 38.6357C116.104 39.6449 116.387 40.8098 116.387 42.1303C116.411 43.3528 116.118 44.5604 115.537 45.6348C114.994 46.6281 114.181 47.4451 113.192 47.9902C112.151 48.5549 110.984 48.8409 109.801 48.8205C108.052 48.8205 106.667 48.2348 105.647 47.0634V53.3874H102.607V35.6079H105.499V37.3175C105.993 36.7023 106.632 36.2216 107.358 35.9196C108.133 35.6032 108.963 35.4454 109.8 35.4555C110.983 35.4366 112.151 35.7245 113.192 36.2914ZM112.218 45.0812C112.938 44.3357 113.299 43.3507 113.3 42.1261C113.301 40.9016 112.94 39.917 112.218 39.1725C111.497 38.4269 110.578 38.0542 109.46 38.0542C108.772 38.044 108.092 38.2171 107.492 38.556C106.904 38.8912 106.422 39.3858 106.1 39.9832C105.766 40.6497 105.591 41.3858 105.591 42.1324C105.591 42.879 105.766 43.6152 106.1 44.2816C106.422 44.8791 106.904 45.3737 107.492 45.7089C108.092 46.0473 108.772 46.22 109.46 46.2093C110.579 46.2056 111.498 45.8296 112.219 45.0812H112.218Z" fill="black"/>
<path d="M127.747 48.3285C126.524 47.9557 125.557 47.4595 124.843 46.8397L125.937 44.3725C126.709 44.9672 127.576 45.4257 128.501 45.7284C129.48 46.0701 130.509 46.2454 131.545 46.2471C132.808 46.2471 133.752 46.0439 134.376 45.6376C135 45.2313 135.312 44.694 135.311 44.0258C135.317 43.7983 135.273 43.5722 135.183 43.3633C135.093 43.1544 134.959 42.9679 134.789 42.8167C134.404 42.479 133.953 42.2257 133.465 42.073C132.929 41.8941 132.2 41.6905 131.278 41.4622C130.21 41.2211 129.159 40.9111 128.131 40.534C127.333 40.2284 126.624 39.7294 126.065 39.0816C125.489 38.4218 125.201 37.5304 125.202 36.4075C125.194 35.4914 125.46 34.594 125.967 33.8326C126.478 33.0591 127.248 32.4445 128.275 31.9888C129.303 31.5331 130.563 31.3052 132.055 31.3052C133.088 31.3048 134.116 31.4358 135.116 31.6952C136.039 31.9188 136.918 32.2969 137.716 32.8135L136.72 35.2794C135.989 34.8457 135.205 34.5092 134.387 34.2785C133.621 34.0567 132.828 33.9415 132.03 33.936C130.782 33.936 129.855 34.1476 129.248 34.5707C128.641 34.9937 128.338 35.5529 128.337 36.2481C128.33 36.4741 128.373 36.6988 128.464 36.9058C128.554 37.1128 128.689 37.2969 128.86 37.4447C129.247 37.7768 129.698 38.026 130.184 38.1772C130.718 38.357 131.448 38.5606 132.371 38.788C133.428 39.0197 134.467 39.3257 135.481 39.7036C136.279 40.0133 136.992 40.5114 137.559 41.156C138.134 41.8083 138.422 42.6876 138.422 43.7938C138.43 44.7064 138.164 45.6003 137.657 46.3575C137.147 47.1217 136.373 47.7321 135.336 48.1887C134.299 48.6453 133.035 48.8732 131.545 48.8723C130.259 48.8811 128.979 48.6979 127.747 48.3285Z" fill="black"/>
<path d="M149.075 47.9385C148.691 48.2449 148.249 48.469 147.775 48.5969C147.249 48.7456 146.705 48.8195 146.159 48.8163C144.733 48.8163 143.632 48.4436 142.854 47.698C142.077 46.9525 141.688 45.8617 141.687 44.4256V38.1506H139.545V35.7099H141.683V32.7311H144.721V35.7099H148.199V38.1506H144.721V44.3529C144.721 44.9876 144.875 45.4717 145.183 45.8053C145.491 46.139 145.936 46.3058 146.519 46.3058C147.13 46.328 147.731 46.1385 148.22 45.769L149.075 47.9385Z" fill="black"/>
<path d="M153.421 47.9622C152.393 47.4182 151.538 46.5947 150.954 45.5859C150.372 44.5306 150.067 43.3439 150.067 42.1373C150.067 40.9308 150.372 39.7441 150.954 38.6888C151.54 37.6812 152.394 36.8582 153.421 36.3124C154.524 35.7509 155.744 35.4583 156.981 35.4583C158.218 35.4583 159.438 35.7509 160.541 36.3124C161.567 36.859 162.421 37.6818 163.008 38.6888C163.589 39.7445 163.893 40.9311 163.893 42.1373C163.893 43.3436 163.589 44.5301 163.008 45.5859C162.423 46.5941 161.568 47.4174 160.541 47.9622C159.438 48.5238 158.218 48.8164 156.981 48.8164C155.744 48.8164 154.524 48.5238 153.421 47.9622ZM159.738 45.0812C160.467 44.3357 160.832 43.3507 160.832 42.1261C160.832 40.9016 160.467 39.917 159.738 39.1724C159.009 38.4269 158.086 38.0542 156.968 38.0542C155.851 38.0542 154.932 38.4269 154.211 39.1724C153.489 39.918 153.129 40.9025 153.129 42.1261C153.129 43.3497 153.489 44.3348 154.211 45.0812C154.932 45.8268 155.851 46.1995 156.968 46.1995C158.086 46.1995 159.009 45.8268 159.738 45.0812Z" fill="black"/>
<path d="M174.319 35.4611V38.3673C174.087 38.3209 173.851 38.2961 173.615 38.2932C172.431 38.2932 171.507 38.6394 170.843 39.3318C170.179 40.0242 169.847 41.0209 169.847 42.3219V48.6458H166.81V35.6079H169.701V37.5118C170.577 36.1447 172.116 35.4611 174.319 35.4611Z" fill="black"/>
<path d="M188.924 43.1033H178.741C178.89 44.0176 179.39 44.837 180.133 45.386C180.887 45.9452 181.823 46.2247 182.94 46.2247C184.365 46.2247 185.54 45.7527 186.464 44.8087L188.092 46.6888C187.499 47.3961 186.738 47.9418 185.88 48.2754C184.919 48.6462 183.896 48.8284 182.866 48.8122C181.442 48.8122 180.186 48.5275 179.1 47.9581C178.052 47.4249 177.179 46.5999 176.585 45.5817C175.985 44.5311 175.679 43.3372 175.699 42.1262C175.681 40.9264 175.978 39.743 176.561 38.6958C177.123 37.695 177.952 36.8719 178.954 36.3194C180.012 35.7409 181.201 35.4467 182.406 35.4653C183.589 35.444 184.757 35.7331 185.795 36.3041C186.781 36.8545 187.59 37.6759 188.128 38.6721C188.685 39.6897 188.963 40.8658 188.963 42.2003C188.973 42.4114 188.956 42.7133 188.924 43.1033ZM179.945 38.7699C179.265 39.3591 178.828 40.1812 178.718 41.0764H186.082C185.981 40.1898 185.557 39.3723 184.891 38.7825C184.227 38.1954 183.401 37.9023 182.413 37.9032C181.512 37.8775 180.634 38.1861 179.945 38.7699Z" fill="black"/>
</g>
<defs>
<clipPath id="clip0_13_761">
<rect width="209.455" height="64" fill="white"/>
</clipPath>
</defs>
</svg>
