<svg width="115" height="63" viewBox="0 0 115 63" fill="none" xmlns="http://www.w3.org/2000/svg">
<g filter="url(#filter0_d_2_238)">
<rect x="2" y="7" width="111" height="48" rx="22" fill="#41260C"/>
</g>
<g filter="url(#filter1_d_2_238)">
<rect x="4" y="8" width="107" height="42" rx="20" fill="url(#paint0_radial_2_238)"/>
</g>
<g filter="url(#filter2_dif_2_238)">
<rect x="8" y="8" width="99" height="35" rx="16" fill="#DD7F28"/>
</g>
<g style="mix-blend-mode:lighten" opacity="0.15">
<path d="M98.7704 18.1462C97.3278 22.3641 79.3711 21.9916 56.4657 21.9916C33.5604 21.9916 17.6161 22.1429 15.4522 17.925C14.6654 16.3912 14.0453 12.5322 21.4058 11.3557C28.9297 10.1532 45.218 10.1045 56.7965 10.1045C68.3749 10.1045 84.2364 9.60123 91.7603 10.8038C99.1208 11.9802 99.4261 16.229 98.7704 18.1462Z" fill="#E0F4FF"/>
</g>
<g filter="url(#filter3_d_2_238)">
<path d="M34.0801 32.264C33.0561 32.264 32.0321 32.152 31.0081 31.928C29.9841 31.704 29.0961 31.376 28.3441 30.944C27.8961 30.704 27.6161 30.384 27.5041 29.984C27.3921 29.568 27.4161 29.168 27.5761 28.784C27.7361 28.4 27.9921 28.128 28.3441 27.968C28.6961 27.808 29.1201 27.848 29.6161 28.088C30.2561 28.456 30.9681 28.728 31.7521 28.904C32.5361 29.08 33.3121 29.168 34.0801 29.168C35.2321 29.168 36.0561 28.992 36.5521 28.64C37.0641 28.272 37.3201 27.816 37.3201 27.272C37.3201 26.808 37.1441 26.44 36.7921 26.168C36.4401 25.896 35.8241 25.664 34.9441 25.472L32.2321 24.896C29.2081 24.256 27.6961 22.688 27.6961 20.192C27.6961 19.12 27.9841 18.184 28.5601 17.384C29.1361 16.568 29.9361 15.936 30.9601 15.488C32.0001 15.04 33.2001 14.816 34.5601 14.816C35.4561 14.816 36.3361 14.928 37.2001 15.152C38.0641 15.36 38.8241 15.672 39.4801 16.088C39.8801 16.328 40.1281 16.64 40.2241 17.024C40.3201 17.408 40.2881 17.776 40.1281 18.128C39.9841 18.48 39.7281 18.728 39.3601 18.872C39.0081 19.016 38.5681 18.96 38.0401 18.704C37.5121 18.432 36.9521 18.232 36.3601 18.104C35.7681 17.976 35.1601 17.912 34.5361 17.912C33.5281 17.912 32.7441 18.112 32.1841 18.512C31.6401 18.896 31.3681 19.4 31.3681 20.024C31.3681 20.488 31.5361 20.864 31.8721 21.152C32.2081 21.44 32.7921 21.672 33.6241 21.848L36.3361 22.424C39.4401 23.096 40.9921 24.616 40.9921 26.984C40.9921 28.04 40.7041 28.968 40.1281 29.768C39.5681 30.552 38.7681 31.168 37.7281 31.616C36.7041 32.048 35.4881 32.264 34.0801 32.264ZM48.7151 32.264C45.4031 32.264 43.7471 30.656 43.7471 27.44V22.928H42.7391C41.7951 22.928 41.3231 22.48 41.3231 21.584C41.3231 20.672 41.7951 20.216 42.7391 20.216H43.7471V18.392C43.7471 17.16 44.3551 16.544 45.5711 16.544C46.7711 16.544 47.3711 17.16 47.3711 18.392V20.216H49.6511C50.5791 20.216 51.0431 20.672 51.0431 21.584C51.0431 22.48 50.5791 22.928 49.6511 22.928H47.3711V27.296C47.3711 27.968 47.5231 28.472 47.8271 28.808C48.1471 29.144 48.6511 29.312 49.3391 29.312C49.5791 29.312 49.8031 29.288 50.0111 29.24C50.2191 29.192 50.4111 29.16 50.5871 29.144C50.8111 29.128 50.9951 29.2 51.1391 29.36C51.2831 29.52 51.3551 29.848 51.3551 30.344C51.3551 30.744 51.2911 31.088 51.1631 31.376C51.0351 31.648 50.8111 31.848 50.4911 31.976C50.2831 32.056 49.9951 32.12 49.6271 32.168C49.2751 32.232 48.9711 32.264 48.7151 32.264ZM58.181 32.264C56.917 32.264 55.813 32.016 54.869 31.52C53.941 31.008 53.221 30.296 52.709 29.384C52.197 28.456 51.941 27.36 51.941 26.096C51.941 24.848 52.197 23.768 52.709 22.856C53.221 21.928 53.941 21.216 54.869 20.72C55.813 20.224 56.917 19.976 58.181 19.976C59.445 19.976 60.541 20.224 61.469 20.72C62.413 21.216 63.141 21.928 63.653 22.856C64.181 23.768 64.445 24.848 64.445 26.096C64.445 27.36 64.181 28.456 63.653 29.384C63.141 30.296 62.413 31.008 61.469 31.52C60.541 32.016 59.445 32.264 58.181 32.264ZM58.181 29.552C58.949 29.552 59.573 29.272 60.053 28.712C60.549 28.152 60.797 27.28 60.797 26.096C60.797 24.928 60.549 24.072 60.053 23.528C59.573 22.968 58.949 22.688 58.181 22.688C57.413 22.688 56.789 22.968 56.309 23.528C55.829 24.072 55.589 24.928 55.589 26.096C55.589 27.28 55.829 28.152 56.309 28.712C56.789 29.272 57.413 29.552 58.181 29.552ZM68.5218 32.216C67.2738 32.216 66.6498 31.6 66.6498 30.368V21.848C66.6498 20.632 67.2418 20.024 68.4258 20.024C69.6098 20.024 70.2018 20.632 70.2018 21.848V22.28C70.7778 20.856 71.9698 20.088 73.7778 19.976C74.1778 19.944 74.4818 20.048 74.6898 20.288C74.9138 20.512 75.0338 20.888 75.0498 21.416C75.0818 21.912 74.9778 22.304 74.7378 22.592C74.5138 22.88 74.1298 23.056 73.5858 23.12L73.0338 23.168C71.2418 23.344 70.3458 24.256 70.3458 25.904V30.368C70.3458 31.6 69.7378 32.216 68.5218 32.216ZM80.483 36.536C79.843 36.536 79.387 36.296 79.115 35.816C78.859 35.352 78.875 34.808 79.163 34.184L80.435 31.352L76.523 22.376C76.267 21.752 76.267 21.208 76.523 20.744C76.795 20.264 77.331 20.024 78.131 20.024C78.563 20.024 78.907 20.128 79.163 20.336C79.435 20.528 79.683 20.904 79.907 21.464L82.355 27.704L84.899 21.44C85.123 20.896 85.371 20.528 85.643 20.336C85.931 20.128 86.315 20.024 86.795 20.024C87.403 20.024 87.827 20.264 88.067 20.744C88.323 21.208 88.315 21.744 88.043 22.352L82.403 35.144C82.163 35.688 81.891 36.056 81.587 36.248C81.299 36.44 80.931 36.536 80.483 36.536Z" fill="url(#paint1_linear_2_238)"/>
<path d="M28.3441 30.944L29.0913 29.6433L29.072 29.6323L29.0525 29.6218L28.3441 30.944ZM27.5041 29.984L26.0557 30.374L26.0577 30.3812L26.0597 30.3884L27.5041 29.984ZM27.5761 28.784L26.1915 28.2071L27.5761 28.784ZM28.3441 27.968L27.7234 26.6024H27.7234L28.3441 27.968ZM29.6161 28.088L30.3638 26.7876L30.3175 26.761L30.2695 26.7378L29.6161 28.088ZM31.7521 28.904L32.0807 27.4404H32.0807L31.7521 28.904ZM36.5521 28.64L37.4203 29.8633L37.4276 29.858L36.5521 28.64ZM36.7921 26.168L35.875 27.3549H35.875L36.7921 26.168ZM34.9441 25.472L35.2639 24.0065L35.2558 24.0047L34.9441 25.472ZM32.2321 24.896L32.5438 23.4287L32.5427 23.4285L32.2321 24.896ZM28.5601 17.384L29.7775 18.2605L29.7856 18.249L28.5601 17.384ZM30.9601 15.488L30.3667 14.1104L30.3589 14.1138L30.9601 15.488ZM37.2001 15.152L36.8237 16.604L36.8363 16.6073L36.849 16.6103L37.2001 15.152ZM39.4801 16.088L38.6768 17.3548L38.6925 17.3647L38.7084 17.3742L39.4801 16.088ZM40.2241 17.024L41.6793 16.6602L41.6793 16.6602L40.2241 17.024ZM40.1281 18.128L38.7626 17.5073L38.7507 17.5335L38.7398 17.56L40.1281 18.128ZM39.3601 18.872L38.8135 17.4751L38.8028 17.4793L38.7922 17.4837L39.3601 18.872ZM38.0401 18.704L37.3532 20.0375L37.3694 20.0458L37.3857 20.0537L38.0401 18.704ZM36.3601 18.104L36.6771 16.6379H36.6771L36.3601 18.104ZM32.1841 18.512L33.0492 19.7375L33.056 19.7326L32.1841 18.512ZM33.6241 21.848L33.9358 20.3807L33.9346 20.3805L33.6241 21.848ZM36.3361 22.424L36.6535 20.958L36.6478 20.9567L36.3361 22.424ZM40.1281 29.768L38.9108 28.8915L38.9075 28.8961L40.1281 29.768ZM37.7281 31.616L38.3112 32.9981L38.3216 32.9936L37.7281 31.616ZM34.0801 30.764C33.1664 30.764 32.2499 30.6642 31.3287 30.4627L30.6876 33.3934C31.8144 33.6398 32.9458 33.764 34.0801 33.764V30.764ZM31.3287 30.4627C30.4243 30.2648 29.686 29.985 29.0913 29.6433L27.5969 32.2447C28.5063 32.767 29.5439 33.1432 30.6876 33.3934L31.3287 30.4627ZM29.0525 29.6218C28.9573 29.5708 28.9274 29.5367 28.927 29.5362C28.9269 29.5361 28.9314 29.5414 28.937 29.5517C28.9427 29.5622 28.9465 29.5723 28.9486 29.5796L26.0597 30.3884C26.3057 31.267 26.9139 31.8795 27.6358 32.2662L29.0525 29.6218ZM28.9525 29.594C28.9235 29.4862 28.9332 29.427 28.9607 29.3609L26.1915 28.2071C25.899 28.909 25.8607 29.6498 26.0557 30.374L28.9525 29.594ZM28.9607 29.3609C28.9703 29.3381 28.9776 29.3255 28.9809 29.3203C28.984 29.3154 28.9841 29.3161 28.9804 29.32C28.9767 29.3241 28.9718 29.3283 28.9669 29.3318C28.9622 29.3352 28.9607 29.3354 28.9648 29.3335L27.7234 26.6024C26.9987 26.9319 26.4852 27.5021 26.1915 28.2071L28.9607 29.3609ZM28.9648 29.3335C28.9264 29.351 28.887 29.3623 28.8509 29.3679C28.8155 29.3733 28.7922 29.372 28.7852 29.3714C28.779 29.3708 28.7902 29.3712 28.8209 29.3805C28.8518 29.3899 28.8988 29.4073 28.9628 29.4382L30.2695 26.7378C29.5494 26.3893 28.6317 26.1896 27.7234 26.6024L28.9648 29.3335ZM28.8684 29.3884C29.6502 29.8379 30.5054 30.1614 31.4236 30.3676L32.0807 27.4404C31.4309 27.2945 30.8621 27.0741 30.3638 26.7876L28.8684 29.3884ZM31.4236 30.3676C32.3104 30.5667 33.1966 30.668 34.0801 30.668V27.668C33.4276 27.668 32.7618 27.5933 32.0807 27.4404L31.4236 30.3676ZM34.0801 30.668C35.3058 30.668 36.5286 30.496 37.4202 29.8633L35.684 27.4167C35.5836 27.488 35.1585 27.668 34.0801 27.668V30.668ZM37.4276 29.858C38.2602 29.2595 38.8201 28.3806 38.8201 27.272H35.8201C35.8201 27.2893 35.8182 27.2944 35.819 27.2915C35.8198 27.2882 35.821 27.2861 35.8202 27.2877C35.8191 27.2896 35.7909 27.3399 35.6767 27.422L37.4276 29.858ZM38.8201 27.272C38.8201 26.3668 38.4469 25.5511 37.7093 24.9811L35.875 27.3549C35.8809 27.3595 35.876 27.3567 35.8661 27.3446C35.8558 27.3321 35.8445 27.3151 35.8349 27.2952C35.8255 27.2754 35.8212 27.2599 35.8196 27.2524C35.8182 27.2456 35.8201 27.2509 35.8201 27.272H38.8201ZM37.7093 24.9811C37.0787 24.4938 36.183 24.207 35.2639 24.0065L34.6244 26.9375C35.4652 27.121 35.8015 27.2982 35.875 27.3549L37.7093 24.9811ZM35.2558 24.0047L32.5438 23.4287L31.9205 26.3633L34.6325 26.9393L35.2558 24.0047ZM32.5427 23.4285C31.206 23.1456 30.3875 22.6941 29.9099 22.1988C29.4631 21.7355 29.1961 21.1128 29.1961 20.192H26.1961C26.1961 21.7672 26.6851 23.1765 27.7504 24.2812C28.7848 25.3539 30.2343 26.0064 31.9215 26.3635L32.5427 23.4285ZM29.1961 20.192C29.1961 19.4056 29.4015 18.7826 29.7774 18.2605L27.3428 16.5075C26.5668 17.5854 26.1961 18.8344 26.1961 20.192H29.1961ZM29.7856 18.249C30.1856 17.6823 30.7573 17.214 31.5614 16.8622L30.3589 14.1138C29.1149 14.658 28.0866 15.4537 27.3347 16.519L29.7856 18.249ZM31.5536 16.8656C32.3724 16.5129 33.364 16.316 34.5601 16.316V13.316C33.0363 13.316 31.6278 13.5671 30.3667 14.1104L31.5536 16.8656ZM34.5601 16.316C35.3296 16.316 36.0831 16.412 36.8237 16.604L37.5766 13.7C36.5891 13.444 35.5826 13.316 34.5601 13.316V16.316ZM36.849 16.6103C37.5755 16.7852 38.1785 17.0387 38.6768 17.3548L40.2834 14.8212C39.4698 14.3053 38.5527 13.9348 37.5512 13.6937L36.849 16.6103ZM38.7084 17.3742C38.7799 17.4172 38.7971 17.4419 38.7919 17.4354C38.7895 17.4323 38.7843 17.425 38.7789 17.4141C38.7735 17.4032 38.7704 17.3937 38.7689 17.3878L41.6793 16.6602C41.4698 15.8219 40.9275 15.2071 40.2519 14.8018L38.7084 17.3742ZM38.7689 17.3878C38.7795 17.4301 38.7784 17.4511 38.7778 17.4581C38.7772 17.4645 38.7754 17.4791 38.7626 17.5073L41.4937 18.7487C41.7975 18.0803 41.8554 17.3646 41.6793 16.6602L38.7689 17.3878ZM38.7398 17.56C38.7396 17.5606 38.7427 17.553 38.7511 17.5404C38.7596 17.5277 38.7709 17.5138 38.7844 17.5006C38.8141 17.4719 38.8325 17.4677 38.8135 17.4751L39.9067 20.2689C40.6401 19.9819 41.2104 19.4441 41.5164 18.696L38.7398 17.56ZM38.7922 17.4837C38.8389 17.4646 38.8814 17.4553 38.914 17.4517C38.9455 17.4482 38.9608 17.4507 38.9555 17.45C38.9496 17.4493 38.9251 17.4454 38.8798 17.4308C38.8345 17.4162 38.773 17.3923 38.6945 17.3543L37.3857 20.0537C38.0903 20.3953 39.0098 20.636 39.9281 20.2603L38.7922 17.4837ZM38.7271 17.3705C38.0798 17.0371 37.3952 16.7931 36.6771 16.6379L36.0431 19.5701C36.5091 19.6709 36.9445 19.8269 37.3532 20.0375L38.7271 17.3705ZM36.6771 16.6379C35.9779 16.4867 35.2635 16.412 34.5361 16.412V19.412C35.0568 19.412 35.5584 19.4653 36.0431 19.5701L36.6771 16.6379ZM34.5361 16.412C33.3541 16.412 32.22 16.643 31.3123 17.2914L33.056 19.7326C33.2682 19.581 33.7022 19.412 34.5361 19.412V16.412ZM31.3191 17.2865C30.4084 17.9294 29.8681 18.8753 29.8681 20.024H32.8681C32.8681 19.9379 32.8847 19.9043 32.8922 19.8904C32.9016 19.873 32.9356 19.8176 33.0491 19.7375L31.3191 17.2865ZM29.8681 20.024C29.8681 20.9016 30.2095 21.7025 30.8959 22.2909L32.8483 20.0131C32.8403 20.0062 32.8412 20.0057 32.8464 20.0126C32.8489 20.0159 32.8519 20.0202 32.8551 20.0256C32.8582 20.0309 32.8611 20.0365 32.8636 20.0421C32.8661 20.0477 32.8679 20.0525 32.869 20.0561C32.8702 20.0598 32.8706 20.0617 32.8705 20.0613C32.8704 20.0608 32.8681 20.0493 32.8681 20.024H29.8681ZM30.8959 22.2909C31.5289 22.8334 32.4235 23.1272 33.3137 23.3155L33.9346 20.3805C33.5747 20.3043 33.307 20.2239 33.1159 20.148C33.0218 20.1106 32.9545 20.0775 32.9087 20.0517C32.8626 20.0256 32.846 20.0111 32.8483 20.0131L30.8959 22.2909ZM33.3125 23.3153L36.0245 23.8913L36.6478 20.9567L33.9358 20.3807L33.3125 23.3153ZM36.0187 23.89C37.4147 24.1923 38.2774 24.6488 38.7786 25.1397C39.239 25.5906 39.4921 26.1631 39.4921 26.984H42.4921C42.4921 25.4369 41.9692 24.0654 40.8777 22.9963C39.8268 21.9672 38.3616 21.3277 36.6535 20.958L36.0187 23.89ZM39.4921 26.984C39.4921 27.7491 39.2896 28.3654 38.9108 28.8915L41.3454 30.6445C42.1186 29.5706 42.4921 28.3309 42.4921 26.984H39.4921ZM38.9075 28.8961C38.5326 29.4211 37.968 29.8794 37.1347 30.2384L38.3216 32.9936C39.5683 32.4566 40.6037 31.6829 41.3487 30.6399L38.9075 28.8961ZM37.1451 30.234C36.3477 30.5703 35.3393 30.764 34.0801 30.764V33.764C35.637 33.764 37.0605 33.5257 38.3112 32.998L37.1451 30.234ZM43.7471 22.928H45.2471V21.428H43.7471V22.928ZM43.7471 20.216V21.716H45.2471V20.216H43.7471ZM47.3711 20.216H45.8711V21.716H47.3711V20.216ZM47.3711 22.928V21.428H45.8711V22.928H47.3711ZM47.8271 28.808L46.7148 29.8144L46.7276 29.8286L46.7409 29.8425L47.8271 28.808ZM50.0111 29.24L50.3484 30.7016V30.7016L50.0111 29.24ZM50.5871 29.144L50.4802 27.6478L50.4657 27.6488L50.4513 27.6502L50.5871 29.144ZM51.1391 29.36L50.0241 30.3634L50.0241 30.3634L51.1391 29.36ZM51.1631 31.376L52.5203 32.0147L52.5272 32L52.5338 31.9852L51.1631 31.376ZM50.4911 31.976L51.0295 33.376L51.0389 33.3724L51.0481 33.3687L50.4911 31.976ZM49.6271 32.168L49.4331 30.6806L49.3957 30.6855L49.3587 30.6922L49.6271 32.168ZM48.7151 30.764C47.2794 30.764 46.4802 30.4151 46.034 29.9819C45.596 29.5566 45.2471 28.8054 45.2471 27.44H42.2471C42.2471 29.2906 42.7261 30.9514 43.9441 32.1341C45.1539 33.3089 46.8387 33.764 48.7151 33.764V30.764ZM45.2471 27.44V22.928H42.2471V27.44H45.2471ZM43.7471 21.428H42.7391V24.428H43.7471V21.428ZM42.7391 21.428C42.617 21.428 42.5692 21.413 42.572 21.4139C42.5812 21.4168 42.6409 21.4387 42.7097 21.504C42.7423 21.535 42.7693 21.5686 42.7901 21.6015C42.8106 21.634 42.8216 21.6602 42.8268 21.675C42.8363 21.7018 42.8231 21.6805 42.8231 21.584H39.8231C39.8231 22.2838 40.0112 23.079 40.6444 23.68C41.2629 24.267 42.0548 24.428 42.7391 24.428V21.428ZM42.8231 21.584C42.8231 21.4811 42.8369 21.4535 42.8295 21.4747C42.8254 21.4868 42.8156 21.5109 42.7964 21.5418C42.777 21.5731 42.7512 21.606 42.7193 21.6368C42.6875 21.6675 42.6557 21.6903 42.6284 21.7061C42.6017 21.7216 42.5836 21.7279 42.5794 21.7293C42.574 21.731 42.6192 21.716 42.7391 21.716V18.716C42.0486 18.716 41.2529 18.8822 40.6348 19.4792C40.0072 20.0856 39.8231 20.8834 39.8231 21.584H42.8231ZM42.7391 21.716H43.7471V18.716H42.7391V21.716ZM45.2471 20.216V18.392H42.2471V20.216H45.2471ZM45.2471 18.392C45.2471 18.0023 45.3428 17.9865 45.2706 18.0597C45.1949 18.1365 45.1993 18.044 45.5711 18.044V15.044C44.7268 15.044 43.8193 15.2595 43.1355 15.9523C42.4553 16.6415 42.2471 17.5497 42.2471 18.392H45.2471ZM45.5711 18.044C45.7471 18.044 45.839 18.0671 45.8729 18.0787C45.8991 18.0877 45.8777 18.0846 45.8465 18.0526C45.7747 17.9789 45.8711 17.9975 45.8711 18.392H48.8711C48.8711 17.5545 48.6674 16.6491 47.9956 15.9594C47.3167 15.2623 46.4124 15.044 45.5711 15.044V18.044ZM45.8711 18.392V20.216H48.8711V18.392H45.8711ZM47.3711 21.716H49.6511V18.716H47.3711V21.716ZM49.6511 21.716C49.7648 21.716 49.8039 21.7305 49.7931 21.727C49.7862 21.7247 49.7659 21.7172 49.7374 21.7005C49.7084 21.6834 49.6758 21.6594 49.6437 21.6278C49.6115 21.5963 49.586 21.5631 49.5671 21.532C49.5484 21.5015 49.5392 21.4782 49.5355 21.4673C49.5292 21.4485 49.5431 21.4788 49.5431 21.584H52.5431C52.5431 20.8901 52.3646 20.0957 51.7465 19.4882C51.1331 18.8854 50.3398 18.716 49.6511 18.716V21.716ZM49.5431 21.584C49.5431 21.6828 49.5298 21.7069 49.5382 21.6825C49.5429 21.6689 49.5533 21.6434 49.5733 21.6113C49.5936 21.5786 49.6203 21.5447 49.6532 21.5129C49.7229 21.4456 49.7856 21.4209 49.8005 21.4161C49.8088 21.4135 49.767 21.428 49.6511 21.428V24.428C50.3334 24.428 51.1229 24.264 51.737 23.6711C52.3608 23.0688 52.5431 22.2769 52.5431 21.584H49.5431ZM49.6511 21.428H47.3711V24.428H49.6511V21.428ZM45.8711 22.928V27.296H48.8711V22.928H45.8711ZM45.8711 27.296C45.8711 28.1642 46.0642 29.0953 46.7148 29.8144L48.9394 27.8016C48.9819 27.8487 48.8711 27.7718 48.8711 27.296H45.8711ZM46.7409 29.8425C47.4565 30.5939 48.4388 30.812 49.3391 30.812V27.812C49.1113 27.812 48.9809 27.7835 48.9194 27.763C48.866 27.7452 48.881 27.7397 48.9133 27.7735L46.7409 29.8425ZM49.3391 30.812C49.6788 30.812 50.017 30.778 50.3484 30.7016L49.6738 27.7784C49.5891 27.798 49.4793 27.812 49.3391 27.812V30.812ZM50.3484 30.7016C50.5031 30.6659 50.6269 30.6466 50.7229 30.6378L50.4513 27.6502C50.1952 27.6734 49.935 27.7181 49.6738 27.7784L50.3484 30.7016ZM50.6939 30.6402C50.6139 30.6459 50.4889 30.6386 50.3465 30.5829C50.202 30.5263 50.0941 30.4412 50.0241 30.3634L52.254 28.3566C51.7853 27.8357 51.1424 27.6005 50.4802 27.6478L50.6939 30.6402ZM50.0241 30.3634C49.9323 30.2614 49.8843 30.1692 49.8619 30.1186C49.8395 30.0679 49.8342 30.0398 49.8359 30.0476C49.8374 30.0542 49.8426 30.0812 49.8473 30.1341C49.8518 30.1861 49.8551 30.2553 49.8551 30.344H52.8551C52.8551 30.0339 52.8335 29.7111 52.7662 29.4044C52.7029 29.116 52.5709 28.7087 52.254 28.3566L50.0241 30.3634ZM49.8551 30.344C49.8551 30.5886 49.8154 30.7148 49.7923 30.7668L52.5338 31.9852C52.7667 31.4612 52.8551 30.8994 52.8551 30.344H49.8551ZM49.8058 30.7373C49.8276 30.691 49.8614 30.6456 49.9 30.6111C49.936 30.579 49.9555 30.5747 49.934 30.5833L51.0481 33.3687C51.6652 33.1219 52.2069 32.6807 52.5203 32.0147L49.8058 30.7373ZM49.9526 30.576C49.9045 30.5945 49.75 30.6393 49.4331 30.6806L49.8211 33.6554C50.2401 33.6007 50.6616 33.5175 51.0295 33.376L49.9526 30.576ZM49.3587 30.6922C49.0633 30.7459 48.8535 30.764 48.7151 30.764V33.764C49.0886 33.764 49.4868 33.7181 49.8954 33.6438L49.3587 30.6922ZM54.869 31.52L54.1444 32.8334L54.1578 32.8408L54.1713 32.8479L54.869 31.52ZM52.709 29.384L51.3956 30.1086L51.401 30.1183L52.709 29.384ZM52.709 22.856L54.017 23.5903L54.0224 23.5806L52.709 22.856ZM54.869 20.72L54.1713 19.3921L54.1619 19.3971L54.869 20.72ZM61.469 20.72L60.7619 22.0429L60.7713 22.0479L61.469 20.72ZM63.653 22.856L62.3396 23.5806L62.3471 23.5942L62.3549 23.6076L63.653 22.856ZM63.653 29.384L62.3492 28.6422L62.345 28.6497L63.653 29.384ZM61.469 31.52L62.1761 32.8429L62.1841 32.8385L61.469 31.52ZM60.053 28.712L58.9301 27.7174L58.922 27.7266L58.9141 27.7358L60.053 28.712ZM60.053 23.528L58.9141 24.5042L58.9291 24.5216L58.9446 24.5386L60.053 23.528ZM56.309 23.528L57.4338 24.5204L57.4409 24.5124L57.4479 24.5042L56.309 23.528ZM56.309 28.712L57.4479 27.7358L56.309 28.712ZM58.181 30.764C57.1152 30.764 56.259 30.5559 55.5667 30.1921L54.1713 32.8479C55.367 33.4761 56.7188 33.764 58.181 33.764V30.764ZM55.5936 30.2066C54.9067 29.8277 54.3903 29.3147 54.017 28.6497L51.401 30.1183C52.0517 31.2773 52.9753 32.1883 54.1444 32.8334L55.5936 30.2066ZM54.0224 28.6594C53.6544 27.9924 53.441 27.1553 53.441 26.096H50.441C50.441 27.5647 50.7396 28.9196 51.3956 30.1086L54.0224 28.6594ZM53.441 26.096C53.441 25.0555 53.6532 24.2383 54.017 23.5903L51.401 22.1217C50.7408 23.2976 50.441 24.6405 50.441 26.096H53.441ZM54.0224 23.5806C54.3954 22.9045 54.9057 22.4012 55.5761 22.0429L54.1619 19.3971C52.9763 20.0308 52.0466 20.9515 51.3956 22.1314L54.0224 23.5806ZM55.5667 22.0479C56.259 21.6841 57.1152 21.476 58.181 21.476V18.476C56.7188 18.476 55.367 18.7639 54.1713 19.3921L55.5667 22.0479ZM58.181 21.476C59.2477 21.476 60.0912 21.6844 60.7619 22.0429L62.1761 19.3971C60.9908 18.7636 59.6423 18.476 58.181 18.476V21.476ZM60.7713 22.0479C61.4572 22.4082 61.9703 22.9113 62.3396 23.5806L64.9664 22.1314C64.3117 20.9447 63.3688 20.0238 62.1667 19.3921L60.7713 22.0479ZM62.3549 23.6076C62.7281 24.2523 62.945 25.063 62.945 26.096H65.945C65.945 24.633 65.6339 23.2837 64.9511 22.1044L62.3549 23.6076ZM62.945 26.096C62.945 27.1479 62.7268 27.9786 62.3493 28.6422L64.9567 30.1258C65.6352 28.9334 65.945 27.5721 65.945 26.096H62.945ZM62.345 28.6497C61.9754 29.308 61.4561 29.8206 60.7539 30.2015L62.1841 32.8385C63.3699 32.1954 64.3066 31.284 64.961 30.1183L62.345 28.6497ZM60.7619 30.1971C60.0912 30.5556 59.2477 30.764 58.181 30.764V33.764C59.6423 33.764 60.9908 33.4764 62.1761 32.8429L60.7619 30.1971ZM58.181 31.052C59.3662 31.052 60.4137 30.596 61.1919 29.6882L58.9141 27.7358C58.7323 27.948 58.5318 28.052 58.181 28.052V31.052ZM61.1759 29.7066C62.0221 28.7511 62.297 27.4436 62.297 26.096H59.297C59.297 27.1164 59.0759 27.5529 58.9301 27.7174L61.1759 29.7066ZM62.297 26.096C62.297 24.7631 62.0215 23.4607 61.1614 22.5174L58.9446 24.5386C59.0765 24.6833 59.297 25.0929 59.297 26.096H62.297ZM61.1919 22.5518C60.4137 21.644 59.3662 21.188 58.181 21.188V24.188C58.5318 24.188 58.7323 24.292 58.9141 24.5042L61.1919 22.5518ZM58.181 21.188C56.9958 21.188 55.9483 21.644 55.1701 22.5518L57.4479 24.5042C57.6297 24.292 57.8302 24.188 58.181 24.188V21.188ZM55.1842 22.5356C54.3524 23.4783 54.089 24.7727 54.089 26.096H57.089C57.089 25.0833 57.3056 24.6657 57.4338 24.5204L55.1842 22.5356ZM54.089 26.096C54.089 27.4343 54.352 28.7338 55.1701 29.6882L57.4479 27.7358C57.306 27.5702 57.089 27.1257 57.089 26.096H54.089ZM55.1701 29.6882C55.9483 30.596 56.9958 31.052 58.181 31.052V28.052C57.8302 28.052 57.6297 27.948 57.4479 27.7358L55.1701 29.6882ZM70.2018 22.28H68.7018L71.5924 22.8425L70.2018 22.28ZM73.7778 19.976L73.8706 21.4731L73.884 21.4723L73.8974 21.4712L73.7778 19.976ZM74.6898 20.288L73.5563 21.2704L73.5913 21.3108L73.6292 21.3487L74.6898 20.288ZM75.0498 21.416L73.5505 21.4614L73.5513 21.487L73.5529 21.5126L75.0498 21.416ZM74.7378 22.592L73.5855 21.6317L73.5693 21.6511L73.5538 21.6711L74.7378 22.592ZM73.5858 23.12L73.7158 24.6144L73.7384 24.6124L73.7611 24.6097L73.5858 23.12ZM73.0338 23.168L72.9039 21.6736L72.8955 21.6744L72.8872 21.6752L73.0338 23.168ZM68.5218 30.716C68.1242 30.716 68.1025 30.6182 68.1716 30.6865C68.2443 30.7583 68.1498 30.7479 68.1498 30.368H65.1498C65.1498 31.2201 65.3673 32.1337 66.064 32.8215C66.7572 33.5057 67.6714 33.716 68.5218 33.716V30.716ZM68.1498 30.368V21.848H65.1498V30.368H68.1498ZM68.1498 21.848C68.1498 21.4613 68.2442 21.4487 68.1685 21.5264C68.1354 21.5604 68.1115 21.5651 68.1346 21.5571C68.1655 21.5466 68.2538 21.524 68.4258 21.524V18.524C67.5923 18.524 66.694 18.7404 66.0191 19.4336C65.3514 20.1193 65.1498 21.0187 65.1498 21.848H68.1498ZM68.4258 21.524C68.5978 21.524 68.6861 21.5466 68.717 21.5571C68.7401 21.5651 68.7162 21.5604 68.6831 21.5264C68.6074 21.4487 68.7018 21.4613 68.7018 21.848H71.7018C71.7018 21.0187 71.5002 20.1193 70.8325 19.4336C70.1576 18.7404 69.2593 18.524 68.4258 18.524V21.524ZM68.7018 21.848V22.28H71.7018V21.848H68.7018ZM71.5924 22.8425C71.7745 22.3922 72.0263 22.0992 72.3402 21.8969C72.6686 21.6853 73.1532 21.5176 73.8706 21.4731L73.6851 18.4789C72.5945 18.5464 71.579 18.8187 70.7154 19.3751C69.8373 19.9408 69.2051 20.7438 68.8113 21.7175L71.5924 22.8425ZM73.8974 21.4712C73.942 21.4677 73.9046 21.4781 73.8203 21.4492C73.7246 21.4165 73.628 21.3532 73.5563 21.2704L75.8233 19.3056C75.2217 18.6114 74.3947 18.4219 73.6582 18.4808L73.8974 21.4712ZM73.6292 21.3487C73.5353 21.2548 73.5141 21.1791 73.5188 21.1941C73.5211 21.2012 73.5281 21.2256 73.535 21.2717C73.5419 21.3176 73.548 21.38 73.5505 21.4614L76.5491 21.3706C76.5288 20.6995 76.3761 19.853 75.7505 19.2273L73.6292 21.3487ZM73.5529 21.5126C73.5607 21.6338 73.5482 21.6889 73.546 21.6973C73.5451 21.7007 73.5467 21.6935 73.5538 21.6794C73.5611 21.6649 73.5718 21.6482 73.5855 21.6317L75.8901 23.5523C76.4476 22.8833 76.5952 22.0706 76.5467 21.3194L73.5529 21.5126ZM73.5538 21.6711C73.5808 21.6364 73.6081 21.6111 73.6298 21.5946C73.6508 21.5785 73.6622 21.574 73.6568 21.5764C73.6423 21.5831 73.5706 21.6114 73.4105 21.6303L73.7611 24.6097C74.506 24.5221 75.3512 24.2466 75.9218 23.5129L73.5538 21.6711ZM73.4559 21.6256L72.9039 21.6736L73.1638 24.6624L73.7158 24.6144L73.4559 21.6256ZM72.8872 21.6752C71.7822 21.7837 70.7262 22.1405 69.9478 22.9328C69.151 23.7438 68.8458 24.8053 68.8458 25.904H71.8458C71.8458 25.3547 71.9886 25.1362 72.0878 25.0352C72.2055 24.9155 72.4934 24.7283 73.1804 24.6608L72.8872 21.6752ZM68.8458 25.904V30.368H71.8458V25.904H68.8458ZM68.8458 30.368C68.8458 30.7577 68.75 30.7735 68.8222 30.7003C68.898 30.6235 68.8936 30.716 68.5218 30.716V33.716C69.366 33.716 70.2736 33.5005 70.9574 32.8077C71.6376 32.1185 71.8458 31.2103 71.8458 30.368H68.8458ZM79.115 35.816L77.8016 36.5406L77.8058 36.5481L77.81 36.5555L79.115 35.816ZM79.163 34.184L80.5249 34.8126L80.5282 34.8056L80.5313 34.7986L79.163 34.184ZM80.435 31.352L81.8033 31.9666L82.0753 31.3611L81.8101 30.7527L80.435 31.352ZM76.523 22.376L75.1352 22.9453L75.1414 22.9604L75.1479 22.9753L76.523 22.376ZM76.523 20.744L75.218 20.0045L75.2138 20.0119L75.2096 20.0194L76.523 20.744ZM79.163 20.336L78.2171 21.5002L78.2565 21.5322L78.298 21.5615L79.163 20.336ZM79.907 21.464L81.3034 20.9162L81.2997 20.9069L79.907 21.464ZM82.355 27.704L80.9586 28.2518L82.3309 31.7498L83.7448 28.2684L82.355 27.704ZM84.899 21.44L83.512 20.8689L83.5092 20.8756L84.899 21.44ZM85.643 20.336L86.508 21.5615L86.5147 21.5568L86.5212 21.552L85.643 20.336ZM88.067 20.744L86.7254 21.4148L86.739 21.442L86.7536 21.4686L88.067 20.744ZM88.043 22.352L86.6738 21.7394L86.6705 21.7469L88.043 22.352ZM82.403 35.144L83.7754 35.7495L83.7755 35.7491L82.403 35.144ZM81.587 36.248L80.786 34.9798L80.7704 34.9897L80.7549 34.9999L81.587 36.248ZM80.483 35.036C80.3485 35.036 80.3262 35.011 80.3596 35.0286C80.3757 35.0371 80.3934 35.0498 80.4083 35.0645C80.4226 35.0787 80.4253 35.0858 80.42 35.0765L77.81 36.5555C78.3957 37.5892 79.4063 38.036 80.483 38.036V35.036ZM80.4284 35.0914C80.4283 35.0912 80.4311 35.0968 80.4332 35.1056C80.4352 35.1141 80.434 35.115 80.4344 35.1041C80.4351 35.0798 80.4442 34.9875 80.5249 34.8126L77.8011 33.5554C77.3784 34.4712 77.2491 35.5392 77.8016 36.5406L80.4284 35.0914ZM80.5313 34.7986L81.8033 31.9666L79.0667 30.7374L77.7947 33.5694L80.5313 34.7986ZM81.8101 30.7527L77.8981 21.7767L75.1479 22.9753L79.0599 31.9513L81.8101 30.7527ZM77.9108 21.8067C77.8397 21.6334 77.831 21.536 77.831 21.5C77.831 21.4744 77.8341 21.4727 77.8364 21.4686L75.2096 20.0194C74.6764 20.9859 74.758 22.0258 75.1352 22.9453L77.9108 21.8067ZM77.828 21.4835C77.8168 21.5034 77.7983 21.5276 77.7744 21.5489C77.7513 21.5695 77.7364 21.5755 77.742 21.573C77.7607 21.5646 77.8702 21.524 78.131 21.524V18.524C77.0597 18.524 75.8666 18.8598 75.218 20.0045L77.828 21.4835ZM78.131 21.524C78.2286 21.524 78.2727 21.5359 78.2789 21.5378C78.2814 21.5386 78.275 21.5368 78.2625 21.5303C78.2497 21.5237 78.2338 21.5138 78.2171 21.5002L80.1089 19.1718C79.5124 18.6872 78.7998 18.524 78.131 18.524V21.524ZM78.298 21.5615C78.2376 21.5189 78.2458 21.5044 78.3008 21.5879C78.3539 21.6683 78.4281 21.8057 78.5143 22.0211L81.2997 20.9069C81.0435 20.2665 80.661 19.5573 80.028 19.1105L78.298 21.5615ZM78.5106 22.0118L80.9586 28.2518L83.7514 27.1562L81.3034 20.9162L78.5106 22.0118ZM83.7448 28.2684L86.2888 22.0044L83.5092 20.8756L80.9652 27.1396L83.7448 28.2684ZM86.286 22.0111C86.3711 21.8045 86.4444 21.6722 86.4969 21.5943C86.551 21.514 86.5612 21.5239 86.508 21.5615L84.778 19.1105C84.1557 19.5498 83.7719 20.2377 83.512 20.8689L86.286 22.0111ZM86.5212 21.552C86.4776 21.5836 86.5214 21.524 86.795 21.524V18.524C86.1086 18.524 85.3844 18.6724 84.7648 19.12L86.5212 21.552ZM86.795 21.524C86.9034 21.524 86.8929 21.5449 86.8301 21.5094C86.7999 21.4923 86.7718 21.4698 86.7498 21.4459C86.7286 21.4229 86.7224 21.4089 86.7254 21.4148L89.4086 20.0732C89.1694 19.5947 88.8056 19.1803 88.3079 18.8986C87.8211 18.6231 87.2946 18.524 86.795 18.524V21.524ZM86.7536 21.4686C86.7563 21.4735 86.755 21.4721 86.7536 21.4666C86.7523 21.4612 86.7533 21.4615 86.7532 21.4716C86.7528 21.4931 86.7462 21.5776 86.6738 21.7395L89.4122 22.9645C89.8219 22.0489 89.9215 21.0002 89.3804 20.0194L86.7536 21.4686ZM86.6705 21.7469L81.0305 34.5389L83.7755 35.7491L89.4155 22.9571L86.6705 21.7469ZM81.0306 34.5385C80.9428 34.7377 80.8668 34.8632 80.8127 34.9364C80.7584 35.0099 80.7443 35.0061 80.786 34.9798L82.388 37.5162C83.0602 37.0917 83.486 36.4053 83.7754 35.7495L81.0306 34.5385ZM80.7549 34.9999C80.7765 34.9856 80.7212 35.036 80.483 35.036V38.036C81.1408 38.036 81.8215 37.8944 82.4191 37.4961L80.7549 34.9999Z" fill="#5B3511"/>
</g>
<defs>
<filter id="filter0_d_2_238" x="0" y="7" width="115" height="53" filterUnits="userSpaceOnUse" color-interpolation-filters="sRGB">
<feFlood flood-opacity="0" result="BackgroundImageFix"/>
<feColorMatrix in="SourceAlpha" type="matrix" values="0 0 0 0 0 0 0 0 0 0 0 0 0 0 0 0 0 0 127 0" result="hardAlpha"/>
<feOffset dy="3"/>
<feGaussianBlur stdDeviation="1"/>
<feComposite in2="hardAlpha" operator="out"/>
<feColorMatrix type="matrix" values="0 0 0 0 0 0 0 0 0 0 0 0 0 0 0 0 0 0 0.25 0"/>
<feBlend mode="normal" in2="BackgroundImageFix" result="effect1_dropShadow_2_238"/>
<feBlend mode="normal" in="SourceGraphic" in2="effect1_dropShadow_2_238" result="shape"/>
</filter>
<filter id="filter1_d_2_238" x="2" y="8" width="111" height="46" filterUnits="userSpaceOnUse" color-interpolation-filters="sRGB">
<feFlood flood-opacity="0" result="BackgroundImageFix"/>
<feColorMatrix in="SourceAlpha" type="matrix" values="0 0 0 0 0 0 0 0 0 0 0 0 0 0 0 0 0 0 127 0" result="hardAlpha"/>
<feOffset dy="2"/>
<feGaussianBlur stdDeviation="1"/>
<feComposite in2="hardAlpha" operator="out"/>
<feColorMatrix type="matrix" values="0 0 0 0 0 0 0 0 0 0 0 0 0 0 0 0 0 0 0.25 0"/>
<feBlend mode="normal" in2="BackgroundImageFix" result="effect1_dropShadow_2_238"/>
<feBlend mode="normal" in="SourceGraphic" in2="effect1_dropShadow_2_238" result="shape"/>
</filter>
<filter id="filter2_dif_2_238" x="4" y="6" width="107" height="43" filterUnits="userSpaceOnUse" color-interpolation-filters="sRGB">
<feFlood flood-opacity="0" result="BackgroundImageFix"/>
<feColorMatrix in="SourceAlpha" type="matrix" values="0 0 0 0 0 0 0 0 0 0 0 0 0 0 0 0 0 0 127 0" result="hardAlpha"/>
<feOffset dy="2"/>
<feGaussianBlur stdDeviation="2"/>
<feComposite in2="hardAlpha" operator="out"/>
<feColorMatrix type="matrix" values="0 0 0 0 0.258529 0 0 0 0 0.140245 0 0 0 0 0.0293538 0 0 0 1 0"/>
<feBlend mode="normal" in2="BackgroundImageFix" result="effect1_dropShadow_2_238"/>
<feBlend mode="normal" in="SourceGraphic" in2="effect1_dropShadow_2_238" result="shape"/>
<feColorMatrix in="SourceAlpha" type="matrix" values="0 0 0 0 0 0 0 0 0 0 0 0 0 0 0 0 0 0 127 0" result="hardAlpha"/>
<feMorphology radius="1" operator="erode" in="SourceAlpha" result="effect2_innerShadow_2_238"/>
<feOffset dy="-1"/>
<feGaussianBlur stdDeviation="0.5"/>
<feComposite in2="hardAlpha" operator="arithmetic" k2="-1" k3="1"/>
<feColorMatrix type="matrix" values="0 0 0 0 1 0 0 0 0 0.689948 0 0 0 0 0.325975 0 0 0 0.25 0"/>
<feBlend mode="normal" in2="shape" result="effect2_innerShadow_2_238"/>
<feGaussianBlur stdDeviation="0.5" result="effect3_foregroundBlur_2_238"/>
</filter>
<filter id="filter3_d_2_238" x="26.3361" y="14.816" width="63.1149" height="23.72" filterUnits="userSpaceOnUse" color-interpolation-filters="sRGB">
<feFlood flood-opacity="0" result="BackgroundImageFix"/>
<feColorMatrix in="SourceAlpha" type="matrix" values="0 0 0 0 0 0 0 0 0 0 0 0 0 0 0 0 0 0 127 0" result="hardAlpha"/>
<feOffset dy="1"/>
<feGaussianBlur stdDeviation="0.5"/>
<feComposite in2="hardAlpha" operator="out"/>
<feColorMatrix type="matrix" values="0 0 0 0 0 0 0 0 0 0 0 0 0 0 0 0 0 0 0.25 0"/>
<feBlend mode="normal" in2="BackgroundImageFix" result="effect1_dropShadow_2_238"/>
<feBlend mode="normal" in="SourceGraphic" in2="effect1_dropShadow_2_238" result="shape"/>
</filter>
<radialGradient id="paint0_radial_2_238" cx="0" cy="0" r="1" gradientUnits="userSpaceOnUse" gradientTransform="translate(57.5 9.05) rotate(90) scale(40.95 104.325)">
<stop stop-color="#5B3511"/>
<stop offset="0.528052" stop-color="#DD7F28"/>
<stop offset="0.977884" stop-color="#5B3511"/>
</radialGradient>
<linearGradient id="paint1_linear_2_238" x1="57.5" y1="8" x2="57.5" y2="41" gradientUnits="userSpaceOnUse">
<stop stop-color="#FDE092"/>
<stop offset="1" stop-color="#C18B2C"/>
</linearGradient>
</defs>
</svg>
