<svg width="151" height="63" viewBox="0 0 151 63" fill="none" xmlns="http://www.w3.org/2000/svg">
<g filter="url(#filter0_d_12_70)">
<rect x="2" y="7" width="147" height="48" rx="22" fill="#41260C"/>
</g>
<g filter="url(#filter1_d_12_70)">
<rect x="4" y="8" width="143" height="42" rx="20" fill="url(#paint0_radial_12_70)"/>
</g>
<g filter="url(#filter2_dif_12_70)">
<rect x="8" y="8" width="135" height="35" rx="16" fill="#DD7F28"/>
</g>
<g style="mix-blend-mode:lighten" opacity="0.15">
<path d="M134.672 18.1462C132.611 22.3641 106.959 21.9916 74.2367 21.9916C41.5148 21.9916 18.7373 22.1429 15.646 17.925C14.522 16.3912 13.6362 12.5322 24.1511 11.3557C34.8996 10.1532 58.1686 10.1045 74.7092 10.1045C91.2499 10.1045 113.909 9.60123 124.658 10.8038C135.173 11.9802 135.609 16.229 134.672 18.1462Z" fill="#E0F4FF"/>
</g>
<g filter="url(#filter3_d_12_70)">
<path d="M29.9281 32.216C29.3201 32.216 28.8481 32.048 28.5121 31.712C28.1921 31.376 28.0321 30.888 28.0321 30.248V17.024C28.0321 15.728 28.6801 15.08 29.9761 15.08H38.1841C39.1601 15.08 39.6481 15.56 39.6481 16.52C39.6481 17.496 39.1601 17.984 38.1841 17.984H31.7521V22.112H37.6561C38.6481 22.112 39.1441 22.592 39.1441 23.552C39.1441 24.528 38.6481 25.016 37.6561 25.016H31.7521V30.248C31.7521 31.56 31.1441 32.216 29.9281 32.216ZM47.1292 32.264C45.7372 32.264 44.5372 32.016 43.5292 31.52C42.5372 31.008 41.7692 30.296 41.2252 29.384C40.6972 28.456 40.4332 27.368 40.4332 26.12C40.4332 24.904 40.6892 23.84 41.2012 22.928C41.7292 22 42.4412 21.28 43.3372 20.768C44.2492 20.24 45.2972 19.976 46.4812 19.976C48.1932 19.976 49.5532 20.52 50.5612 21.608C51.5692 22.68 52.0732 24.136 52.0732 25.976C52.0732 26.584 51.6972 26.888 50.9452 26.888H43.8892C44.0172 27.816 44.3532 28.496 44.8972 28.928C45.4572 29.344 46.2252 29.552 47.2012 29.552C47.5852 29.552 48.0172 29.512 48.4972 29.432C48.9932 29.336 49.4652 29.176 49.9132 28.952C50.3772 28.728 50.7692 28.688 51.0892 28.832C51.4092 28.96 51.6252 29.184 51.7372 29.504C51.8652 29.824 51.8652 30.16 51.7372 30.512C51.6252 30.848 51.3612 31.128 50.9452 31.352C50.3852 31.656 49.7612 31.88 49.0732 32.024C48.4012 32.184 47.7532 32.264 47.1292 32.264ZM46.6252 22.376C45.8572 22.376 45.2332 22.608 44.7532 23.072C44.2892 23.536 44.0012 24.184 43.8892 25.016H49.0732C48.9772 23.256 48.1612 22.376 46.6252 22.376ZM58.1651 32.264C57.2851 32.264 56.5091 32.096 55.8371 31.76C55.1651 31.424 54.6291 30.968 54.2291 30.392C53.8451 29.816 53.6531 29.168 53.6531 28.448C53.6531 27.6 53.8771 26.92 54.3251 26.408C54.7731 25.896 55.5011 25.536 56.5091 25.328C57.5171 25.104 58.8531 24.992 60.5171 24.992H61.3811V24.584C61.3811 23.88 61.2211 23.384 60.9011 23.096C60.5811 22.792 60.0371 22.64 59.2691 22.64C58.8371 22.64 58.3651 22.696 57.8531 22.808C57.3411 22.904 56.7891 23.072 56.1971 23.312C55.7491 23.504 55.3731 23.52 55.0691 23.36C54.7651 23.184 54.5651 22.928 54.4691 22.592C54.3731 22.24 54.3971 21.888 54.5411 21.536C54.7011 21.184 55.0051 20.928 55.4531 20.768C56.2051 20.48 56.9091 20.28 57.5651 20.168C58.2371 20.04 58.8531 19.976 59.4131 19.976C61.2371 19.976 62.5971 20.392 63.4931 21.224C64.3891 22.04 64.8371 23.312 64.8371 25.04V30.368C64.8371 31.6 64.2771 32.216 63.1571 32.216C62.0211 32.216 61.4531 31.6 61.4531 30.368V30.224C61.2131 30.848 60.8051 31.344 60.2291 31.712C59.6691 32.08 58.9811 32.264 58.1651 32.264ZM58.9811 29.84C59.6531 29.84 60.2211 29.608 60.6851 29.144C61.1491 28.68 61.3811 28.08 61.3811 27.344V26.864H60.5411C59.3091 26.864 58.4371 26.976 57.9251 27.2C57.4131 27.408 57.1571 27.776 57.1571 28.304C57.1571 28.752 57.3091 29.12 57.6131 29.408C57.9331 29.696 58.3891 29.84 58.9811 29.84ZM73.3244 32.264C70.0124 32.264 68.3564 30.656 68.3564 27.44V22.928H67.3484C66.4044 22.928 65.9324 22.48 65.9324 21.584C65.9324 20.672 66.4044 20.216 67.3484 20.216H68.3564V18.392C68.3564 17.16 68.9644 16.544 70.1804 16.544C71.3804 16.544 71.9804 17.16 71.9804 18.392V20.216H74.2604C75.1884 20.216 75.6524 20.672 75.6524 21.584C75.6524 22.48 75.1884 22.928 74.2604 22.928H71.9804V27.296C71.9804 27.968 72.1324 28.472 72.4364 28.808C72.7564 29.144 73.2604 29.312 73.9484 29.312C74.1884 29.312 74.4124 29.288 74.6204 29.24C74.8284 29.192 75.0204 29.16 75.1964 29.144C75.4204 29.128 75.6044 29.2 75.7484 29.36C75.8924 29.52 75.9644 29.848 75.9644 30.344C75.9644 30.744 75.9004 31.088 75.7724 31.376C75.6444 31.648 75.4204 31.848 75.1004 31.976C74.8924 32.056 74.6044 32.12 74.2364 32.168C73.8844 32.232 73.5804 32.264 73.3244 32.264ZM81.5876 32.264C80.0836 32.264 78.9716 31.848 78.2516 31.016C77.5476 30.184 77.1956 28.936 77.1956 27.272V21.848C77.1956 20.632 77.7956 20.024 78.9956 20.024C80.2116 20.024 80.8196 20.632 80.8196 21.848V27.368C80.8196 28.76 81.4196 29.456 82.6196 29.456C83.3076 29.456 83.8676 29.216 84.2996 28.736C84.7476 28.24 84.9716 27.592 84.9716 26.792V21.848C84.9716 20.632 85.5716 20.024 86.7716 20.024C87.9876 20.024 88.5956 20.632 88.5956 21.848V30.368C88.5956 31.6 88.0116 32.216 86.8436 32.216C86.2676 32.216 85.8276 32.056 85.5236 31.736C85.2196 31.416 85.0676 30.968 85.0676 30.392C84.2836 31.64 83.1236 32.264 81.5876 32.264ZM93.2718 32.216C92.0238 32.216 91.3998 31.6 91.3998 30.368V21.848C91.3998 20.632 91.9918 20.024 93.1758 20.024C94.3598 20.024 94.9518 20.632 94.9518 21.848V22.28C95.5278 20.856 96.7198 20.088 98.5278 19.976C98.9278 19.944 99.2318 20.048 99.4398 20.288C99.6638 20.512 99.7838 20.888 99.7998 21.416C99.8318 21.912 99.7278 22.304 99.4878 22.592C99.2638 22.88 98.8798 23.056 98.3358 23.12L97.7838 23.168C95.9918 23.344 95.0958 24.256 95.0958 25.904V30.368C95.0958 31.6 94.4878 32.216 93.2718 32.216ZM107.2 32.264C105.808 32.264 104.608 32.016 103.6 31.52C102.608 31.008 101.84 30.296 101.296 29.384C100.768 28.456 100.504 27.368 100.504 26.12C100.504 24.904 100.76 23.84 101.271 22.928C101.8 22 102.512 21.28 103.408 20.768C104.32 20.24 105.368 19.976 106.552 19.976C108.264 19.976 109.624 20.52 110.632 21.608C111.64 22.68 112.144 24.136 112.144 25.976C112.144 26.584 111.768 26.888 111.016 26.888H103.96C104.088 27.816 104.424 28.496 104.968 28.928C105.528 29.344 106.296 29.552 107.272 29.552C107.656 29.552 108.088 29.512 108.568 29.432C109.064 29.336 109.536 29.176 109.984 28.952C110.448 28.728 110.84 28.688 111.16 28.832C111.48 28.96 111.696 29.184 111.807 29.504C111.936 29.824 111.936 30.16 111.807 30.512C111.696 30.848 111.432 31.128 111.016 31.352C110.456 31.656 109.832 31.88 109.144 32.024C108.472 32.184 107.824 32.264 107.2 32.264ZM106.696 22.376C105.928 22.376 105.304 22.608 104.824 23.072C104.36 23.536 104.072 24.184 103.96 25.016H109.144C109.048 23.256 108.232 22.376 106.696 22.376ZM118.763 32.264C118.059 32.264 117.331 32.2 116.579 32.072C115.843 31.944 115.171 31.728 114.563 31.424C114.163 31.216 113.899 30.952 113.771 30.632C113.659 30.312 113.659 30 113.771 29.696C113.883 29.392 114.083 29.168 114.371 29.024C114.659 28.864 114.995 28.864 115.379 29.024C116.035 29.296 116.635 29.488 117.179 29.6C117.739 29.712 118.275 29.768 118.787 29.768C119.459 29.768 119.955 29.664 120.275 29.456C120.595 29.232 120.755 28.944 120.755 28.592C120.755 28.032 120.347 27.68 119.531 27.536L117.011 27.08C116.003 26.904 115.235 26.544 114.707 26C114.179 25.456 113.915 24.744 113.915 23.864C113.915 23.064 114.139 22.376 114.587 21.8C115.035 21.224 115.651 20.776 116.435 20.456C117.219 20.136 118.123 19.976 119.147 19.976C120.555 19.976 121.803 20.248 122.891 20.792C123.259 20.968 123.483 21.216 123.563 21.536C123.659 21.856 123.643 22.168 123.515 22.472C123.387 22.776 123.179 23.008 122.891 23.168C122.603 23.312 122.259 23.296 121.859 23.12C121.331 22.88 120.851 22.712 120.419 22.616C119.987 22.504 119.579 22.448 119.195 22.448C118.475 22.448 117.955 22.568 117.635 22.808C117.315 23.032 117.155 23.32 117.155 23.672C117.155 24.232 117.531 24.584 118.283 24.728L120.803 25.184C121.843 25.36 122.635 25.712 123.179 26.24C123.723 26.752 123.995 27.456 123.995 28.352C123.995 29.584 123.515 30.544 122.555 31.232C121.595 31.92 120.331 32.264 118.763 32.264Z" fill="url(#paint1_linear_12_70)"/>
<path d="M28.5121 31.712L27.4259 32.7465L27.4385 32.7597L27.4515 32.7727L28.5121 31.712ZM31.7521 17.984V16.484H30.2521V17.984H31.7521ZM31.7521 22.112H30.2521V23.612H31.7521V22.112ZM31.7521 25.016V23.516H30.2521V25.016H31.7521ZM29.9281 30.716C29.7601 30.716 29.6653 30.6926 29.6211 30.6768C29.5832 30.6633 29.5748 30.6534 29.5728 30.6513L27.4515 32.7727C28.1417 33.4629 29.0388 33.716 29.9281 33.716V30.716ZM29.5983 30.6775C29.631 30.7118 29.5321 30.6508 29.5321 30.248H26.5321C26.5321 31.1252 26.7533 32.0402 27.4259 32.7465L29.5983 30.6775ZM29.5321 30.248V17.024H26.5321V30.248H29.5321ZM29.5321 17.024C29.5321 16.6072 29.6353 16.5701 29.5788 16.6267C29.5223 16.6832 29.5593 16.58 29.9761 16.58V13.58C29.0969 13.58 28.162 13.8008 27.4575 14.5053C26.7529 15.2099 26.5321 16.1448 26.5321 17.024H29.5321ZM29.9761 16.58H38.1841V13.58H29.9761V16.58ZM38.1841 16.58C38.2452 16.58 38.2892 16.5838 38.3185 16.5879C38.3477 16.592 38.3593 16.596 38.3573 16.5953C38.3548 16.5945 38.3386 16.5889 38.3139 16.5743C38.2886 16.5594 38.2593 16.538 38.2303 16.5094C38.2012 16.4808 38.1783 16.4509 38.1617 16.4236C38.1454 16.3969 38.1381 16.3777 38.136 16.3714C38.134 16.3656 38.1372 16.3732 38.1408 16.3981C38.1445 16.4232 38.1481 16.463 38.1481 16.52H41.1481C41.1481 15.8024 40.9639 14.9902 40.334 14.3706C39.7087 13.7555 38.8972 13.58 38.1841 13.58V16.58ZM38.1481 16.52C38.1481 16.5801 38.1443 16.6229 38.1403 16.651C38.1363 16.6789 38.1325 16.6893 38.1336 16.6862C38.1348 16.6825 38.1409 16.6655 38.156 16.6404C38.1714 16.6147 38.1931 16.5857 38.2215 16.5573C38.2498 16.529 38.2788 16.5073 38.3045 16.4919C38.3296 16.4768 38.3466 16.4707 38.3503 16.4695C38.3535 16.4684 38.3431 16.4722 38.3151 16.4762C38.2871 16.4802 38.2442 16.484 38.1841 16.484V19.484C38.9033 19.484 39.7183 19.3032 40.3428 18.6787C40.9673 18.0541 41.1481 17.2392 41.1481 16.52H38.1481ZM38.1841 16.484H31.7521V19.484H38.1841V16.484ZM30.2521 17.984V22.112H33.2521V17.984H30.2521ZM31.7521 23.612H37.6561V20.612H31.7521V23.612ZM37.6561 23.612C37.7202 23.612 37.7672 23.6159 37.7995 23.6204C37.8316 23.6248 37.8461 23.6294 37.8466 23.6296C37.8468 23.6296 37.8327 23.6251 37.8097 23.6117C37.7861 23.598 37.7577 23.5777 37.729 23.5499C37.7002 23.522 37.6771 23.4925 37.66 23.4649C37.6432 23.4378 37.6355 23.4179 37.6329 23.4105C37.6305 23.4036 37.6335 23.4099 37.637 23.4336C37.6405 23.4574 37.6441 23.496 37.6441 23.552H40.6441C40.6441 22.8281 40.4544 22.0126 39.8153 21.3941C39.1853 20.7845 38.3712 20.612 37.6561 20.612V23.612ZM37.6441 23.552C37.6441 23.611 37.6403 23.6528 37.6364 23.6796C37.6326 23.7063 37.629 23.7155 37.6304 23.7112C37.6321 23.7064 37.6387 23.6886 37.6542 23.6631C37.6701 23.6371 37.692 23.6084 37.7201 23.5808C37.7482 23.5532 37.7763 23.5326 37.8003 23.5184C37.8238 23.5045 37.8387 23.4995 37.8397 23.4992C37.8402 23.499 37.827 23.5034 37.7961 23.5077C37.7651 23.5121 37.7192 23.516 37.6561 23.516V26.516C38.3773 26.516 39.1948 26.3384 39.8241 25.7192C40.4579 25.0957 40.6441 24.2774 40.6441 23.552H37.6441ZM37.6561 23.516H31.7521V26.516H37.6561V23.516ZM30.2521 25.016V30.248H33.2521V25.016H30.2521ZM30.2521 30.248C30.2521 30.6999 30.1451 30.7593 30.196 30.7044C30.2207 30.6777 30.2398 30.6739 30.2185 30.6815C30.1888 30.6922 30.1013 30.716 29.9281 30.716V33.716C30.7978 33.716 31.7174 33.4761 32.3963 32.7436C33.0552 32.0327 33.2521 31.1081 33.2521 30.248H30.2521ZM43.5292 31.52L42.8412 32.8529L42.854 32.8595L42.8669 32.8659L43.5292 31.52ZM41.2252 29.384L39.9214 30.1258L39.9291 30.1392L39.937 30.1524L41.2252 29.384ZM41.2012 22.928L39.8974 22.1862L39.8932 22.1937L41.2012 22.928ZM43.3372 20.768L44.0814 22.0704L44.0887 22.0661L43.3372 20.768ZM50.5612 21.608L49.4608 22.6275L49.4684 22.6355L50.5612 21.608ZM43.8892 26.888V25.388H42.1681L42.4033 27.093L43.8892 26.888ZM44.8972 28.928L43.9644 30.1027L43.9833 30.1177L44.0027 30.1321L44.8972 28.928ZM48.4972 29.432L48.7438 30.9116L48.763 30.9084L48.7822 30.9047L48.4972 29.432ZM49.9132 28.952L49.2611 27.6012L49.2517 27.6057L49.2424 27.6104L49.9132 28.952ZM51.0892 28.832L50.4736 30.1999L50.5026 30.2129L50.5321 30.2247L51.0892 28.832ZM51.7372 29.504L50.3214 29.9995L50.3323 30.0306L50.3445 30.0611L51.7372 29.504ZM51.7372 30.512L50.3275 29.9994L50.3206 30.0184L50.3142 30.0377L51.7372 30.512ZM50.9452 31.352L50.234 30.0313L50.2296 30.0337L50.9452 31.352ZM49.0732 32.024L48.7659 30.5558L48.7458 30.56L48.7258 30.5648L49.0732 32.024ZM44.7532 23.072L43.7107 21.9935L43.7015 22.0024L43.6925 22.0113L44.7532 23.072ZM43.8892 25.016L42.4026 24.8159L42.1737 26.516H43.8892V25.016ZM49.0732 25.016V26.516H50.6572L50.571 24.9343L49.0732 25.016ZM47.1292 30.764C45.9131 30.764 44.9501 30.5474 44.1914 30.1741L42.8669 32.8659C44.1243 33.4846 45.5613 33.764 47.1292 33.764V30.764ZM44.2172 30.1871C43.4607 29.7966 42.9064 29.2745 42.5134 28.6156L39.937 30.1524C40.6319 31.3175 41.6137 32.2194 42.8412 32.8529L44.2172 30.1871ZM42.5289 28.6422C42.1498 27.9759 41.9332 27.1522 41.9332 26.12H38.9332C38.9332 27.5838 39.2446 28.9361 39.9214 30.1258L42.5289 28.6422ZM41.9332 26.12C41.9332 25.119 42.1422 24.3159 42.5092 23.6623L39.8932 22.1937C39.2362 23.3641 38.9332 24.689 38.9332 26.12H41.9332ZM42.5049 23.6698C42.9048 22.9669 43.4271 22.4443 44.0814 22.0704L42.593 19.4656C41.4553 20.1157 40.5535 21.0331 39.8974 22.1862L42.5049 23.6698ZM44.0887 22.0661C44.7452 21.6861 45.5278 21.476 46.4812 21.476V18.476C45.0666 18.476 43.7532 18.7939 42.5856 19.4699L44.0887 22.0661ZM46.4812 21.476C47.8462 21.476 48.7814 21.8941 49.4608 22.6274L51.6615 20.5886C50.3249 19.1459 48.5402 18.476 46.4812 18.476V21.476ZM49.4684 22.6355C50.1535 23.3641 50.5732 24.4178 50.5732 25.976H53.5732C53.5732 23.8542 52.9849 21.9959 51.654 20.5805L49.4684 22.6355ZM50.5732 25.976C50.5732 25.9752 50.5732 25.9583 50.5784 25.9288C50.5838 25.8987 50.5945 25.8553 50.6159 25.8033C50.6627 25.6899 50.7427 25.5788 50.8481 25.4936C51.0397 25.3386 51.1581 25.388 50.9452 25.388V28.388C51.4843 28.388 52.1666 28.2854 52.7343 27.8264C53.3629 27.3182 53.5732 26.6056 53.5732 25.976H50.5732ZM50.9452 25.388H43.8892V28.388H50.9452V25.388ZM42.4033 27.093C42.5652 28.2671 43.0253 29.3569 43.9644 30.1027L45.83 27.7533C45.6811 27.6351 45.4692 27.3649 45.3751 26.683L42.4033 27.093ZM44.0027 30.1321C44.9065 30.8035 46.0283 31.052 47.2012 31.052V28.052C46.422 28.052 46.0078 27.8845 45.7917 27.7239L44.0027 30.1321ZM47.2012 31.052C47.6862 31.052 48.2027 31.0018 48.7438 30.9116L48.2506 27.9524C47.8316 28.0222 47.4841 28.052 47.2012 28.052V31.052ZM48.7822 30.9047C49.411 30.783 50.0129 30.5792 50.584 30.2936L49.2424 27.6104C48.9175 27.7728 48.5754 27.889 48.2122 27.9593L48.7822 30.9047ZM50.5653 30.3028C50.6233 30.2748 50.6645 30.2597 50.6898 30.2519C50.7149 30.2441 50.72 30.245 50.7075 30.2463C50.6941 30.2476 50.6631 30.2492 50.6189 30.2428C50.5737 30.2362 50.5237 30.2224 50.4736 30.1999L51.7047 27.4641C50.8199 27.0659 49.9326 27.277 49.2611 27.6012L50.5653 30.3028ZM50.5321 30.2247C50.5163 30.2184 50.466 30.1938 50.4114 30.1372C50.3564 30.0801 50.3303 30.025 50.3214 29.9995L53.153 29.0085C52.8951 28.2717 52.361 27.7252 51.6463 27.4393L50.5321 30.2247ZM50.3445 30.0611C50.3427 30.0566 50.3395 30.0473 50.337 30.0343C50.3344 30.0211 50.3332 30.0079 50.3332 29.996C50.3332 29.9703 50.3386 29.969 50.3275 29.9994L53.1469 31.0246C53.389 30.3587 53.4072 29.6402 53.1299 28.9469L50.3445 30.0611ZM50.3142 30.0377C50.3226 30.0122 50.3335 29.9898 50.3444 29.972C50.355 29.9545 50.3631 29.9457 50.3638 29.945C50.3639 29.9449 50.3315 29.9788 50.234 30.0313L51.6563 32.6727C52.2938 32.3295 52.8916 31.7922 53.1602 30.9863L50.3142 30.0377ZM50.2296 30.0337C49.8101 30.2614 49.3258 30.4386 48.7659 30.5558L49.3805 33.4922C50.1966 33.3214 50.9603 33.0506 51.6608 32.6703L50.2296 30.0337ZM48.7258 30.5648C48.1556 30.7005 47.6245 30.764 47.1292 30.764V33.764C47.8819 33.764 48.6468 33.6675 49.4206 33.4832L48.7258 30.5648ZM46.6252 20.876C45.5313 20.876 44.5127 21.2182 43.7107 21.9935L45.7957 24.1505C45.9537 23.9978 46.1831 23.876 46.6252 23.876V20.876ZM43.6925 22.0113C42.9381 22.7657 42.5461 23.75 42.4026 24.8159L45.3758 25.2161C45.4563 24.618 45.6402 24.3063 45.8138 24.1327L43.6925 22.0113ZM43.8892 26.516H49.0732V23.516H43.8892V26.516ZM50.571 24.9343C50.5126 23.8638 50.2247 22.8094 49.4891 22.0161C48.7227 21.1896 47.6867 20.876 46.6252 20.876V23.876C47.0996 23.876 47.2397 24.0024 47.2893 24.0559C47.3697 24.1426 47.5378 24.4082 47.5754 25.0977L50.571 24.9343ZM55.8371 31.76L55.1662 33.1016L55.8371 31.76ZM54.2291 30.392L52.981 31.2241L52.9889 31.2359L52.997 31.2476L54.2291 30.392ZM54.3251 26.408L53.1962 25.4202L54.3251 26.408ZM56.5091 25.328L56.8122 26.797L56.8233 26.7947L56.8345 26.7923L56.5091 25.328ZM61.3811 24.992V26.492H62.8811V24.992H61.3811ZM60.9011 23.096L59.8679 24.1835L59.8826 24.1974L59.8976 24.2109L60.9011 23.096ZM57.8531 22.808L58.1295 24.2823L58.1516 24.2782L58.1736 24.2733L57.8531 22.808ZM56.1971 23.312L55.6335 21.9219L55.6198 21.9275L55.6062 21.9333L56.1971 23.312ZM55.0691 23.36L54.3175 24.6581L54.3437 24.6733L54.3704 24.6874L55.0691 23.36ZM54.4691 22.592L53.0219 22.9867L53.0243 22.9954L53.0268 23.0041L54.4691 22.592ZM54.5411 21.536L53.1755 20.9153L53.1636 20.9415L53.1527 20.9681L54.5411 21.536ZM55.4531 20.768L55.9576 22.1806L55.9736 22.1749L55.9895 22.1688L55.4531 20.768ZM57.5651 20.168L57.8175 21.6466L57.8316 21.6442L57.8457 21.6415L57.5651 20.168ZM63.4931 21.224L62.4724 22.3232L62.4777 22.3281L62.4831 22.333L63.4931 21.224ZM61.4531 30.224H62.9531L60.053 29.6855L61.4531 30.224ZM60.2291 31.712L59.4215 30.448L59.4134 30.4531L59.4053 30.4584L60.2291 31.712ZM60.6851 29.144L61.7457 30.2047L60.6851 29.144ZM61.3811 26.864H62.8811V25.364H61.3811V26.864ZM57.9251 27.2L58.4896 28.5897L58.5081 28.5822L58.5263 28.5742L57.9251 27.2ZM57.6131 29.408L56.5814 30.4969L56.5954 30.5101L56.6096 30.5229L57.6131 29.408ZM58.1651 30.764C57.4782 30.764 56.9387 30.6338 56.5079 30.4184L55.1662 33.1016C56.0794 33.5582 57.092 33.764 58.1651 33.764V30.764ZM56.5079 30.4184C56.0442 30.1865 55.7075 29.8913 55.4611 29.5364L52.997 31.2476C53.5506 32.0447 54.2859 32.6615 55.1662 33.1016L56.5079 30.4184ZM55.4771 29.5599C55.2642 29.2406 55.1531 28.8844 55.1531 28.448H52.1531C52.1531 29.4516 52.4259 30.3914 52.981 31.2241L55.4771 29.5599ZM55.1531 28.448C55.1531 27.8705 55.3 27.5717 55.4539 27.3958L53.1962 25.4202C52.4542 26.2683 52.1531 27.3295 52.1531 28.448H55.1531ZM55.4539 27.3958C55.6011 27.2275 55.9687 26.9711 56.8122 26.797L56.2059 23.8589C55.0334 24.1009 53.945 24.5645 53.1962 25.4202L55.4539 27.3958ZM56.8345 26.7923C57.6911 26.6019 58.9048 26.492 60.5171 26.492V23.492C58.8014 23.492 57.3431 23.6061 56.1837 23.8637L56.8345 26.7923ZM60.5171 26.492H61.3811V23.492H60.5171V26.492ZM62.8811 24.992V24.584H59.8811V24.992H62.8811ZM62.8811 24.584C62.8811 23.7166 62.6934 22.6911 61.9045 21.9811L59.8976 24.2109C59.8234 24.1442 59.8176 24.0953 59.8335 24.1445C59.852 24.2019 59.8811 24.3373 59.8811 24.584H62.8811ZM61.9342 22.0085C61.1906 21.3021 60.1596 21.14 59.2691 21.14V24.14C59.562 24.14 59.7463 24.1699 59.8494 24.1987C59.9498 24.2267 59.9282 24.2408 59.8679 24.1835L61.9342 22.0085ZM59.2691 21.14C58.7093 21.14 58.1284 21.2123 57.5325 21.3426L58.1736 24.2733C58.6018 24.1797 58.9648 24.14 59.2691 24.14V21.14ZM57.5766 21.3337C56.9473 21.4517 56.2982 21.6524 55.6335 21.9219L56.7606 24.7021C57.2799 24.4916 57.7349 24.3563 58.1295 24.2823L57.5766 21.3337ZM55.6062 21.9333C55.5023 21.9778 55.477 21.971 55.5153 21.9694C55.5366 21.9684 55.5736 21.9694 55.6213 21.9795C55.6698 21.9898 55.72 22.0075 55.7677 22.0326L54.3704 24.6874C55.2218 25.1355 56.1063 24.9829 56.7879 24.6907L55.6062 21.9333ZM55.8206 22.0619C55.8196 22.0613 55.826 22.0649 55.8368 22.0741C55.8477 22.0835 55.8605 22.0964 55.8731 22.1125C55.8857 22.1287 55.8954 22.1445 55.9022 22.1582C55.9055 22.1648 55.9078 22.1701 55.9093 22.174C55.9108 22.1779 55.9114 22.1799 55.9113 22.1799L53.0268 23.0041C53.2302 23.7159 53.6791 24.2886 54.3175 24.6581L55.8206 22.0619ZM55.9162 22.1973C55.9108 22.1774 55.9114 22.1692 55.9116 22.166C55.9119 22.1621 55.9134 22.143 55.9294 22.1039L53.1527 20.9681C52.8894 21.6118 52.8352 22.3019 53.0219 22.9867L55.9162 22.1973ZM55.9066 22.1567C55.9005 22.1702 55.8916 22.1854 55.8805 22.2C55.8694 22.2145 55.8598 22.2235 55.8553 22.2274C55.8464 22.2348 55.8697 22.212 55.9576 22.1806L54.9486 19.3554C54.2122 19.6184 53.5408 20.1117 53.1755 20.9153L55.9066 22.1567ZM55.9895 22.1688C56.6681 21.9089 57.2762 21.739 57.8175 21.6466L57.3126 18.6894C56.5419 18.821 55.7421 19.0511 54.9166 19.3672L55.9895 22.1688ZM57.8457 21.6415C58.4447 21.5274 58.9652 21.476 59.4131 21.476V18.476C58.7409 18.476 58.0294 18.5526 57.2844 18.6945L57.8457 21.6415ZM59.4131 21.476C61.0408 21.476 61.9635 21.8507 62.4724 22.3232L64.5137 20.1248C63.2306 18.9333 61.4333 18.476 59.4131 18.476V21.476ZM62.4831 22.333C62.9529 22.7609 63.3371 23.5502 63.3371 25.04H66.3371C66.3371 23.0738 65.8252 21.3191 64.5031 20.115L62.4831 22.333ZM63.3371 25.04V30.368H66.3371V25.04H63.3371ZM63.3371 30.368C63.3371 30.7863 63.2389 30.82 63.3072 30.745C63.3419 30.7067 63.3759 30.6921 63.3757 30.6922C63.3668 30.6954 63.3035 30.716 63.1571 30.716V33.716C63.9871 33.716 64.8741 33.4812 65.527 32.763C66.1552 32.072 66.3371 31.1817 66.3371 30.368H63.3371ZM63.1571 30.716C63.0046 30.716 62.9354 30.6949 62.9215 30.6898C62.916 30.6879 62.9476 30.7001 62.9818 30.7372C63.051 30.8122 62.9531 30.7816 62.9531 30.368H59.9531C59.9531 31.1864 60.1392 32.0798 60.7763 32.7708C61.4347 33.4848 62.3252 33.716 63.1571 33.716V30.716ZM62.9531 30.368V30.224H59.9531V30.368H62.9531ZM60.053 29.6855C59.9307 30.0035 59.7341 30.2482 59.4215 30.448L61.0366 32.976C61.876 32.4398 62.4954 31.6925 62.8531 30.7625L60.053 29.6855ZM59.4053 30.4584C59.1387 30.6337 58.7526 30.764 58.1651 30.764V33.764C59.2095 33.764 60.1995 33.5263 61.0528 32.9656L59.4053 30.4584ZM58.9811 31.34C60.0402 31.34 60.9929 30.9575 61.7457 30.2047L59.6244 28.0833C59.4492 28.2585 59.266 28.34 58.9811 28.34V31.34ZM61.7457 30.2047C62.5263 29.4241 62.8811 28.425 62.8811 27.344H59.8811C59.8811 27.735 59.7718 27.9359 59.6244 28.0833L61.7457 30.2047ZM62.8811 27.344V26.864H59.8811V27.344H62.8811ZM61.3811 25.364H60.5411V28.364H61.3811V25.364ZM60.5411 25.364C59.2923 25.364 58.1446 25.4667 57.3238 25.8258L58.5263 28.5742C58.7295 28.4853 59.3258 28.364 60.5411 28.364V25.364ZM57.3605 25.8103C56.8982 25.9981 56.4466 26.3027 56.1177 26.7754C55.7854 27.2531 55.6571 27.7896 55.6571 28.304H58.6571C58.6571 28.2932 58.6583 28.3116 58.6474 28.3501C58.6358 28.3905 58.6144 28.4398 58.5804 28.4886C58.5076 28.5933 58.4399 28.6099 58.4896 28.5897L57.3605 25.8103ZM55.6571 28.304C55.6571 29.1318 55.9559 29.9043 56.5814 30.4969L58.6447 28.3191C58.6396 28.3142 58.6409 28.3147 58.6452 28.3208C58.6472 28.3237 58.6495 28.3273 58.6517 28.3314C58.654 28.3356 58.6559 28.3396 58.6575 28.3434C58.6607 28.3513 58.661 28.3545 58.6602 28.3503C58.6593 28.3457 58.6571 28.3311 58.6571 28.304H55.6571ZM56.6096 30.5229C57.2938 31.1387 58.1583 31.34 58.9811 31.34V28.34C58.6198 28.34 58.5724 28.2533 58.6165 28.2931L56.6096 30.5229ZM68.3564 22.928H69.8564V21.428H68.3564V22.928ZM68.3564 20.216V21.716H69.8564V20.216H68.3564ZM71.9804 20.216H70.4804V21.716H71.9804V20.216ZM71.9804 22.928V21.428H70.4804V22.928H71.9804ZM72.4364 28.808L71.3241 29.8144L71.337 29.8286L71.3502 29.8425L72.4364 28.808ZM74.6204 29.24L74.9577 30.7016L74.9577 30.7016L74.6204 29.24ZM75.1964 29.144L75.0896 27.6478L75.0751 27.6488L75.0606 27.6502L75.1964 29.144ZM75.7484 29.36L74.6335 30.3634V30.3634L75.7484 29.36ZM75.7724 31.376L77.1297 32.0147L77.1366 32L77.1432 31.9852L75.7724 31.376ZM75.1004 31.976L75.6389 33.376L75.6482 33.3724L75.6575 33.3687L75.1004 31.976ZM74.2364 32.168L74.0424 30.6806L74.0051 30.6855L73.9681 30.6922L74.2364 32.168ZM73.3244 30.764C71.8888 30.764 71.0896 30.4151 70.6434 29.9819C70.2054 29.5566 69.8564 28.8054 69.8564 27.44H66.8564C66.8564 29.2906 67.3355 30.9514 68.5535 32.1341C69.7633 33.3089 71.4481 33.764 73.3244 33.764V30.764ZM69.8564 27.44V22.928H66.8564V27.44H69.8564ZM68.3564 21.428H67.3484V24.428H68.3564V21.428ZM67.3484 21.428C67.2264 21.428 67.1786 21.413 67.1814 21.4139C67.1905 21.4168 67.2503 21.4387 67.3191 21.504C67.3517 21.535 67.3787 21.5686 67.3995 21.6015C67.42 21.634 67.431 21.6602 67.4362 21.675C67.4456 21.7018 67.4324 21.6805 67.4324 21.584H64.4324C64.4324 22.2838 64.6206 23.079 65.2538 23.68C65.8723 24.267 66.6642 24.428 67.3484 24.428V21.428ZM67.4324 21.584C67.4324 21.4811 67.4463 21.4535 67.4389 21.4747C67.4347 21.4868 67.425 21.5109 67.4058 21.5418C67.3863 21.5731 67.3605 21.606 67.3287 21.6368C67.2969 21.6675 67.2651 21.6903 67.2378 21.7061C67.2111 21.7216 67.193 21.7279 67.1887 21.7293C67.1834 21.731 67.2286 21.716 67.3484 21.716V18.716C66.6579 18.716 65.8622 18.8822 65.2442 19.4792C64.6166 20.0856 64.4324 20.8834 64.4324 21.584H67.4324ZM67.3484 21.716H68.3564V18.716H67.3484V21.716ZM69.8564 20.216V18.392H66.8564V20.216H69.8564ZM69.8564 18.392C69.8564 18.0023 69.9522 17.9865 69.88 18.0597C69.8042 18.1365 69.8087 18.044 70.1804 18.044V15.044C69.3362 15.044 68.4286 15.2595 67.7449 15.9523C67.0647 16.6415 66.8564 17.5497 66.8564 18.392H69.8564ZM70.1804 18.044C70.3565 18.044 70.4484 18.0671 70.4823 18.0787C70.5085 18.0877 70.4871 18.0846 70.4559 18.0526C70.3841 17.9789 70.4804 17.9975 70.4804 18.392H73.4804C73.4804 17.5545 73.2768 16.6491 72.605 15.9594C71.926 15.2623 71.0218 15.044 70.1804 15.044V18.044ZM70.4804 18.392V20.216H73.4804V18.392H70.4804ZM71.9804 21.716H74.2604V18.716H71.9804V21.716ZM74.2604 21.716C74.3741 21.716 74.4133 21.7305 74.4025 21.727C74.3955 21.7247 74.3752 21.7172 74.3468 21.7005C74.3178 21.6834 74.2851 21.6594 74.253 21.6278C74.2209 21.5963 74.1954 21.5631 74.1764 21.532C74.1578 21.5015 74.1486 21.4782 74.1449 21.4673C74.1385 21.4485 74.1524 21.4788 74.1524 21.584H77.1524C77.1524 20.8901 76.974 20.0957 76.3558 19.4882C75.7425 18.8854 74.9492 18.716 74.2604 18.716V21.716ZM74.1524 21.584C74.1524 21.6828 74.1391 21.7069 74.1476 21.6825C74.1523 21.6689 74.1627 21.6434 74.1827 21.6113C74.2029 21.5786 74.2297 21.5447 74.2625 21.5129C74.3323 21.4456 74.395 21.4209 74.4099 21.4161C74.4181 21.4135 74.3764 21.428 74.2604 21.428V24.428C74.9427 24.428 75.7323 24.264 76.3463 23.6711C76.9702 23.0688 77.1524 22.2769 77.1524 21.584H74.1524ZM74.2604 21.428H71.9804V24.428H74.2604V21.428ZM70.4804 22.928V27.296H73.4804V22.928H70.4804ZM70.4804 27.296C70.4804 28.1642 70.6736 29.0953 71.3241 29.8144L73.5487 27.8016C73.5913 27.8487 73.4804 27.7718 73.4804 27.296H70.4804ZM71.3502 29.8425C72.0659 30.5939 73.0482 30.812 73.9484 30.812V27.812C73.7207 27.812 73.5903 27.7835 73.5288 27.763C73.4754 27.7452 73.4904 27.7397 73.5226 27.7735L71.3502 29.8425ZM73.9484 30.812C74.2882 30.812 74.6264 30.778 74.9577 30.7016L74.2831 27.7784C74.1985 27.798 74.0887 27.812 73.9484 27.812V30.812ZM74.9577 30.7016C75.1125 30.6659 75.2363 30.6466 75.3322 30.6378L75.0606 27.6502C74.8046 27.6734 74.5444 27.7181 74.2831 27.7784L74.9577 30.7016ZM75.3033 30.6402C75.2233 30.6459 75.0983 30.6386 74.9558 30.5829C74.8114 30.5263 74.7035 30.4412 74.6335 30.3634L76.8634 28.3566C76.3946 27.8357 75.7518 27.6005 75.0896 27.6478L75.3033 30.6402ZM74.6335 30.3634C74.5417 30.2614 74.4937 30.1692 74.4713 30.1186C74.4488 30.0679 74.4436 30.0398 74.4453 30.0476C74.4468 30.0542 74.452 30.0812 74.4566 30.1341C74.4612 30.1861 74.4644 30.2553 74.4644 30.344H77.4644C77.4644 30.0339 77.4429 29.7111 77.3756 29.4044C77.3122 29.116 77.1803 28.7087 76.8634 28.3566L74.6335 30.3634ZM74.4644 30.344C74.4644 30.5886 74.4248 30.7148 74.4017 30.7668L77.1432 31.9852C77.3761 31.4612 77.4644 30.8994 77.4644 30.344H74.4644ZM74.4152 30.7373C74.437 30.691 74.4708 30.6456 74.5094 30.6111C74.5454 30.579 74.5648 30.5747 74.5434 30.5833L75.6575 33.3687C76.2746 33.1219 76.8162 32.6807 77.1297 32.0147L74.4152 30.7373ZM74.562 30.576C74.5139 30.5945 74.3594 30.6393 74.0424 30.6806L74.4304 33.6554C74.8495 33.6007 75.271 33.5175 75.6389 33.376L74.562 30.576ZM73.9681 30.6922C73.6727 30.7459 73.4629 30.764 73.3244 30.764V33.764C73.698 33.764 74.0962 33.7181 74.5048 33.6438L73.9681 30.6922ZM78.2516 31.016L77.1065 31.9849L77.1119 31.9913L77.1173 31.9976L78.2516 31.016ZM84.2996 28.736L83.1864 27.7306L83.1846 27.7326L84.2996 28.736ZM85.5236 31.736L86.6111 30.7029L85.5236 31.736ZM85.0676 30.392H86.5676V25.1844L83.7974 29.5941L85.0676 30.392ZM81.5876 30.764C80.3515 30.764 79.7271 30.4288 79.3858 30.0344L77.1173 31.9976C78.2161 33.2672 79.8156 33.764 81.5876 33.764V30.764ZM79.3966 30.0471C79.0157 29.5968 78.6956 28.7603 78.6956 27.272H75.6956C75.6956 29.1117 76.0795 30.7712 77.1065 31.9849L79.3966 30.0471ZM78.6956 27.272V21.848H75.6956V27.272H78.6956ZM78.6956 21.848C78.6956 21.4663 78.7894 21.4564 78.7132 21.5336C78.681 21.5663 78.6598 21.5687 78.6881 21.5591C78.7239 21.547 78.8178 21.524 78.9956 21.524V18.524C78.1593 18.524 77.2577 18.7376 76.5779 19.4264C75.9017 20.1116 75.6956 21.0137 75.6956 21.848H78.6956ZM78.9956 21.524C79.3723 21.524 79.3794 21.6172 79.3029 21.5407C79.2264 21.4641 79.3196 21.4712 79.3196 21.848H82.3196C82.3196 21.0088 82.1087 20.1039 81.4242 19.4193C80.7397 18.7348 79.8348 18.524 78.9956 18.524V21.524ZM79.3196 21.848V27.368H82.3196V21.848H79.3196ZM79.3196 27.368C79.3196 28.2452 79.5038 29.1831 80.1334 29.9134C80.7998 30.6863 81.7255 30.956 82.6196 30.956V27.956C82.4611 27.956 82.3891 27.9327 82.373 27.9264C82.366 27.9237 82.3867 27.9325 82.4057 27.9546C82.4353 27.9889 82.3196 27.8828 82.3196 27.368H79.3196ZM82.6196 30.956C83.7014 30.956 84.6777 30.5581 85.4145 29.7394L83.1846 27.7326C83.0574 27.8739 82.9137 27.956 82.6196 27.956V30.956ZM85.4127 29.7414C86.157 28.9174 86.4716 27.8863 86.4716 26.792H83.4716C83.4716 27.2977 83.3381 27.5626 83.1864 27.7306L85.4127 29.7414ZM86.4716 26.792V21.848H83.4716V26.792H86.4716ZM86.4716 21.848C86.4716 21.4663 86.5654 21.4564 86.4892 21.5336C86.457 21.5663 86.4358 21.5687 86.4641 21.5591C86.4999 21.547 86.5938 21.524 86.7716 21.524V18.524C85.9353 18.524 85.0337 18.7376 84.3539 19.4264C83.6777 20.1116 83.4716 21.0137 83.4716 21.848H86.4716ZM86.7716 21.524C87.1483 21.524 87.1554 21.6172 87.0789 21.5407C87.0024 21.4641 87.0956 21.4712 87.0956 21.848H90.0956C90.0956 21.0088 89.8847 20.1039 89.2002 19.4193C88.5157 18.7348 87.6108 18.524 86.7716 18.524V21.524ZM87.0956 21.848V30.368H90.0956V21.848H87.0956ZM87.0956 30.368C87.0956 30.7722 86.9983 30.7965 87.069 30.722C87.1018 30.6874 87.1284 30.6798 87.1125 30.6854C87.0886 30.6938 87.0079 30.716 86.8436 30.716V33.716C87.6798 33.716 88.5772 33.4915 89.2461 32.786C89.9008 32.0955 90.0956 31.1958 90.0956 30.368H87.0956ZM86.8436 30.716C86.6916 30.716 86.617 30.6946 86.5942 30.6863C86.5788 30.6807 86.5935 30.6844 86.6111 30.7029L84.4361 32.7691C85.1027 33.4708 85.988 33.716 86.8436 33.716V30.716ZM86.6111 30.7029C86.6192 30.7114 86.6133 30.7114 86.602 30.6781C86.5887 30.6388 86.5676 30.5505 86.5676 30.392H83.5676C83.5676 31.2314 83.7941 32.0934 84.4361 32.7691L86.6111 30.7029ZM83.7974 29.5941C83.3016 30.3833 82.634 30.764 81.5876 30.764V33.764C83.6132 33.764 85.2655 32.8967 86.3377 31.1899L83.7974 29.5941ZM94.9518 22.28H93.4518L96.3424 22.8425L94.9518 22.28ZM98.5278 19.976L98.6206 21.4731L98.634 21.4723L98.6474 21.4712L98.5278 19.976ZM99.4398 20.288L98.3063 21.2704L98.3413 21.3108L98.3792 21.3487L99.4398 20.288ZM99.7998 21.416L98.3005 21.4614L98.3013 21.487L98.3029 21.5126L99.7998 21.416ZM99.4878 22.592L98.3355 21.6317L98.3193 21.6511L98.3038 21.6711L99.4878 22.592ZM98.3358 23.12L98.4658 24.6144L98.4884 24.6124L98.5111 24.6097L98.3358 23.12ZM97.7838 23.168L97.6539 21.6736L97.6455 21.6744L97.6372 21.6752L97.7838 23.168ZM93.2718 30.716C92.8742 30.716 92.8525 30.6182 92.9216 30.6865C92.9943 30.7583 92.8998 30.7479 92.8998 30.368H89.8998C89.8998 31.2201 90.1173 32.1337 90.814 32.8215C91.5072 33.5057 92.4214 33.716 93.2718 33.716V30.716ZM92.8998 30.368V21.848H89.8998V30.368H92.8998ZM92.8998 21.848C92.8998 21.4613 92.9942 21.4487 92.9185 21.5264C92.8854 21.5604 92.8615 21.5651 92.8846 21.5571C92.9155 21.5466 93.0038 21.524 93.1758 21.524V18.524C92.3423 18.524 91.444 18.7404 90.7691 19.4336C90.1014 20.1193 89.8998 21.0187 89.8998 21.848H92.8998ZM93.1758 21.524C93.3478 21.524 93.4361 21.5466 93.467 21.5571C93.4901 21.5651 93.4662 21.5604 93.4331 21.5264C93.3574 21.4487 93.4518 21.4613 93.4518 21.848H96.4518C96.4518 21.0187 96.2502 20.1193 95.5825 19.4336C94.9076 18.7404 94.0093 18.524 93.1758 18.524V21.524ZM93.4518 21.848V22.28H96.4518V21.848H93.4518ZM96.3424 22.8425C96.5245 22.3922 96.7763 22.0992 97.0902 21.8969C97.4186 21.6853 97.9032 21.5176 98.6206 21.4731L98.4351 18.4789C97.3445 18.5464 96.329 18.8187 95.4654 19.3751C94.5873 19.9408 93.9551 20.7438 93.5613 21.7175L96.3424 22.8425ZM98.6474 21.4712C98.692 21.4677 98.6546 21.4781 98.5703 21.4492C98.4746 21.4165 98.378 21.3532 98.3063 21.2704L100.573 19.3056C99.9717 18.6114 99.1447 18.4219 98.4082 18.4808L98.6474 21.4712ZM98.3792 21.3487C98.2853 21.2548 98.2641 21.1791 98.2688 21.1941C98.2711 21.2012 98.2781 21.2256 98.285 21.2717C98.2919 21.3176 98.298 21.38 98.3005 21.4614L101.299 21.3706C101.279 20.6995 101.126 19.853 100.5 19.2273L98.3792 21.3487ZM98.3029 21.5126C98.3107 21.6338 98.2982 21.6889 98.296 21.6973C98.2951 21.7007 98.2967 21.6935 98.3038 21.6794C98.3111 21.6649 98.3218 21.6482 98.3355 21.6317L100.64 23.5523C101.198 22.8833 101.345 22.0706 101.297 21.3194L98.3029 21.5126ZM98.3038 21.6711C98.3308 21.6364 98.3581 21.6111 98.3798 21.5946C98.4008 21.5785 98.4122 21.574 98.4068 21.5764C98.3923 21.5831 98.3206 21.6114 98.1606 21.6303L98.5111 24.6097C99.256 24.5221 100.101 24.2466 100.672 23.5129L98.3038 21.6711ZM98.2059 21.6256L97.6539 21.6736L97.9138 24.6624L98.4658 24.6144L98.2059 21.6256ZM97.6372 21.6752C96.5322 21.7837 95.4762 22.1405 94.6978 22.9328C93.901 23.7438 93.5958 24.8053 93.5958 25.904H96.5958C96.5958 25.3547 96.7386 25.1362 96.8378 25.0352C96.9555 24.9155 97.2434 24.7283 97.9304 24.6608L97.6372 21.6752ZM93.5958 25.904V30.368H96.5958V25.904H93.5958ZM93.5958 30.368C93.5958 30.7577 93.5 30.7735 93.5722 30.7003C93.648 30.6235 93.6436 30.716 93.2718 30.716V33.716C94.116 33.716 95.0236 33.5005 95.7074 32.8077C96.3876 32.1185 96.5958 31.2103 96.5958 30.368H93.5958ZM103.6 31.52L102.912 32.8529L102.924 32.8595L102.937 32.8659L103.6 31.52ZM101.296 29.384L99.9918 30.1258L99.9994 30.1392L100.007 30.1524L101.296 29.384ZM101.271 22.928L99.9677 22.1862L99.9635 22.1937L101.271 22.928ZM103.408 20.768L104.152 22.0704L104.159 22.0661L103.408 20.768ZM110.632 21.608L109.531 22.6275L109.539 22.6355L110.632 21.608ZM103.96 26.888V25.388H102.238L102.474 27.093L103.96 26.888ZM104.967 28.928L104.035 30.1027L104.054 30.1177L104.073 30.1321L104.967 28.928ZM108.567 29.432L108.814 30.9116L108.833 30.9084L108.853 30.9047L108.567 29.432ZM109.983 28.952L109.331 27.6012L109.322 27.6057L109.313 27.6104L109.983 28.952ZM111.16 28.832L110.544 30.1999L110.573 30.2129L110.602 30.2247L111.16 28.832ZM111.808 29.504L110.392 29.9995L110.403 30.0306L110.415 30.0611L111.808 29.504ZM111.808 30.512L110.398 29.9994L110.391 30.0184L110.384 30.0377L111.808 30.512ZM111.016 31.352L110.304 30.0313L110.3 30.0337L111.016 31.352ZM109.144 32.024L108.836 30.5558L108.816 30.56L108.796 30.5648L109.144 32.024ZM104.824 23.072L103.781 21.9935L103.772 22.0024L103.763 22.0113L104.824 23.072ZM103.96 25.016L102.473 24.8159L102.244 26.516H103.96V25.016ZM109.144 25.016V26.516H110.728L110.641 24.9343L109.144 25.016ZM107.2 30.764C105.983 30.764 105.02 30.5474 104.262 30.1741L102.937 32.8659C104.195 33.4846 105.632 33.764 107.2 33.764V30.764ZM104.287 30.1871C103.531 29.7966 102.977 29.2745 102.584 28.6156L100.007 30.1524C100.702 31.3175 101.684 32.2194 102.912 32.8529L104.287 30.1871ZM102.599 28.6422C102.22 27.9759 102.004 27.1522 102.004 26.12H99.0035C99.0035 27.5838 99.3149 28.9361 99.9918 30.1258L102.599 28.6422ZM102.004 26.12C102.004 25.119 102.213 24.3159 102.579 23.6623L99.9635 22.1937C99.3065 23.3641 99.0035 24.689 99.0035 26.12H102.004ZM102.575 23.6698C102.975 22.9669 103.497 22.4443 104.152 22.0704L102.663 19.4656C101.526 20.1157 100.624 21.0331 99.9678 22.1862L102.575 23.6698ZM104.159 22.0661C104.815 21.6861 105.598 21.476 106.551 21.476V18.476C105.137 18.476 103.824 18.7939 102.656 19.4699L104.159 22.0661ZM106.551 21.476C107.916 21.476 108.852 21.8941 109.531 22.6274L111.732 20.5886C110.395 19.1459 108.611 18.476 106.551 18.476V21.476ZM109.539 22.6355C110.224 23.3641 110.644 24.4178 110.644 25.976H113.644C113.644 23.8542 113.055 21.9959 111.724 20.5805L109.539 22.6355ZM110.644 25.976C110.644 25.9752 110.644 25.9583 110.649 25.9288C110.654 25.8987 110.665 25.8553 110.686 25.8033C110.733 25.6899 110.813 25.5788 110.918 25.4936C111.11 25.3386 111.228 25.388 111.016 25.388V28.388C111.555 28.388 112.237 28.2854 112.805 27.8264C113.433 27.3182 113.644 26.6056 113.644 25.976H110.644ZM111.016 25.388H103.96V28.388H111.016V25.388ZM102.474 27.093C102.636 28.2671 103.096 29.3569 104.035 30.1027L105.9 27.7533C105.751 27.6351 105.539 27.3649 105.445 26.683L102.474 27.093ZM104.073 30.1321C104.977 30.8035 106.099 31.052 107.271 31.052V28.052C106.492 28.052 106.078 27.8845 105.862 27.7239L104.073 30.1321ZM107.271 31.052C107.757 31.052 108.273 31.0018 108.814 30.9116L108.321 27.9524C107.902 28.0222 107.554 28.052 107.271 28.052V31.052ZM108.853 30.9047C109.481 30.783 110.083 30.5792 110.654 30.2936L109.313 27.6104C108.988 27.7728 108.646 27.889 108.282 27.9593L108.853 30.9047ZM110.636 30.3028C110.694 30.2748 110.735 30.2597 110.76 30.2519C110.785 30.2441 110.79 30.245 110.778 30.2463C110.764 30.2476 110.733 30.2492 110.689 30.2428C110.644 30.2362 110.594 30.2224 110.544 30.1999L111.775 27.4641C110.89 27.0659 110.003 27.277 109.331 27.6012L110.636 30.3028ZM110.602 30.2247C110.587 30.2184 110.536 30.1938 110.482 30.1372C110.427 30.0801 110.401 30.025 110.392 29.9995L113.223 29.0085C112.965 28.2717 112.431 27.7252 111.717 27.4393L110.602 30.2247ZM110.415 30.0611C110.413 30.0566 110.41 30.0473 110.407 30.0343C110.405 30.0211 110.404 30.0079 110.404 29.996C110.404 29.9703 110.409 29.969 110.398 29.9994L113.217 31.0246C113.459 30.3587 113.478 29.6402 113.2 28.9469L110.415 30.0611ZM110.384 30.0377C110.393 30.0122 110.404 29.9898 110.415 29.972C110.425 29.9545 110.433 29.9457 110.434 29.945C110.434 29.9449 110.402 29.9788 110.304 30.0313L111.727 32.6727C112.364 32.3295 112.962 31.7922 113.231 30.9863L110.384 30.0377ZM110.3 30.0337C109.88 30.2614 109.396 30.4386 108.836 30.5558L109.451 33.4922C110.267 33.3214 111.031 33.0506 111.731 32.6703L110.3 30.0337ZM108.796 30.5648C108.226 30.7005 107.695 30.764 107.2 30.764V33.764C107.952 33.764 108.717 33.6675 109.491 33.4832L108.796 30.5648ZM106.696 20.876C105.602 20.876 104.583 21.2182 103.781 21.9935L105.866 24.1505C106.024 23.9978 106.253 23.876 106.696 23.876V20.876ZM103.763 22.0113C103.008 22.7657 102.616 23.75 102.473 24.8159L105.446 25.2161C105.527 24.618 105.711 24.3063 105.884 24.1327L103.763 22.0113ZM103.96 26.516H109.144V23.516H103.96V26.516ZM110.641 24.9343C110.583 23.8638 110.295 22.8094 109.559 22.0161C108.793 21.1896 107.757 20.876 106.696 20.876V23.876C107.17 23.876 107.31 24.0024 107.36 24.0559C107.44 24.1426 107.608 24.4082 107.646 25.0977L110.641 24.9343ZM116.579 32.072L116.322 33.5498L116.328 33.5507L116.579 32.072ZM114.563 31.424L113.871 32.7548L113.882 32.7603L113.893 32.7656L114.563 31.424ZM113.771 30.632L112.356 31.1275L112.366 31.1586L112.379 31.1891L113.771 30.632ZM113.771 29.696L115.179 30.2146L113.771 29.696ZM114.371 29.024L115.042 30.3656L115.071 30.3511L115.1 30.3352L114.371 29.024ZM115.379 29.024L114.802 30.4086L114.805 30.4096L115.379 29.024ZM117.179 29.6L116.877 31.0692L116.885 31.0709L117.179 29.6ZM120.275 29.456L121.093 30.7137L121.114 30.6996L121.136 30.6848L120.275 29.456ZM119.531 27.536L119.264 29.012L119.271 29.0132L119.531 27.536ZM117.011 27.08L117.278 25.6039L117.269 25.6024L117.011 27.08ZM114.707 26L113.631 27.0447V27.0447L114.707 26ZM114.587 21.8L115.771 22.7209V22.7209L114.587 21.8ZM116.435 20.456L115.869 19.0672L116.435 20.456ZM122.891 20.792L122.221 22.1336L122.232 22.1395L122.244 22.1452L122.891 20.792ZM123.563 21.536L122.108 21.8998L122.117 21.9336L122.127 21.967L123.563 21.536ZM123.515 22.472L124.898 23.0541V23.0541L123.515 22.472ZM122.891 23.168L123.562 24.5096L123.591 24.4951L123.62 24.4792L122.891 23.168ZM121.859 23.12L121.239 24.4855L121.247 24.4893L121.255 24.493L121.859 23.12ZM120.419 22.616L120.043 24.068L120.068 24.0746L120.094 24.0803L120.419 22.616ZM117.635 22.808L118.496 24.0368L118.516 24.0227L118.535 24.008L117.635 22.808ZM118.283 24.728L118.001 26.2012L118.009 26.2027L118.016 26.204L118.283 24.728ZM120.803 25.184L120.536 26.66L120.545 26.6615L120.553 26.663L120.803 25.184ZM123.179 26.24L122.135 27.3164L122.143 27.3244L122.151 27.3323L123.179 26.24ZM122.555 31.232L121.682 30.0128L122.555 31.232ZM118.763 30.764C118.15 30.764 117.507 30.7083 116.831 30.5933L116.328 33.5507C117.156 33.6917 117.968 33.764 118.763 33.764V30.764ZM116.836 30.5942C116.23 30.4887 115.699 30.315 115.234 30.0824L113.893 32.7656C114.643 33.141 115.457 33.3993 116.322 33.5498L116.836 30.5942ZM115.255 30.0932C115.164 30.0457 115.13 30.0132 115.126 30.0093C115.125 30.0079 115.13 30.013 115.138 30.0255C115.147 30.0383 115.156 30.055 115.164 30.0749L112.379 31.1891C112.677 31.934 113.253 32.4331 113.871 32.7548L115.255 30.0932ZM115.187 30.1365C115.182 30.1219 115.187 30.1312 115.187 30.158C115.187 30.1703 115.186 30.1826 115.184 30.1938C115.182 30.205 115.18 30.2121 115.179 30.2146L112.364 29.1774C112.126 29.8243 112.134 30.4953 112.356 31.1275L115.187 30.1365ZM115.179 30.2146C115.175 30.2254 115.159 30.2597 115.124 30.299C115.089 30.3385 115.056 30.359 115.042 30.3656L113.701 27.6824C113.069 27.9982 112.607 28.5178 112.364 29.1774L115.179 30.2146ZM115.1 30.3352C115.062 30.3561 115.018 30.3744 114.969 30.387C114.92 30.3995 114.876 30.404 114.839 30.404C114.768 30.404 114.751 30.3872 114.802 30.4086L115.956 27.6394C115.271 27.3537 114.435 27.2729 113.643 27.7128L115.1 30.3352ZM114.805 30.4096C115.526 30.7085 116.218 30.9336 116.877 31.0692L117.482 28.1308C117.053 28.0424 116.545 27.8835 115.954 27.6384L114.805 30.4096ZM116.885 31.0709C117.531 31.2001 118.166 31.268 118.787 31.268V28.268C118.385 28.268 117.948 28.2239 117.474 28.1291L116.885 31.0709ZM118.787 31.268C119.556 31.268 120.407 31.1596 121.093 30.7137L119.458 28.1983C119.495 28.1742 119.478 28.1962 119.356 28.2219C119.235 28.2471 119.051 28.268 118.787 28.268V31.268ZM121.136 30.6848C121.805 30.2161 122.255 29.4929 122.255 28.592H119.255C119.255 28.5311 119.272 28.4376 119.324 28.3435C119.373 28.2551 119.423 28.2216 119.415 28.2272L121.136 30.6848ZM122.255 28.592C122.255 27.8954 121.978 27.2457 121.429 26.7723C120.939 26.3492 120.335 26.1546 119.792 26.0588L119.271 29.0132C119.396 29.0353 119.469 29.0592 119.504 29.0732C119.538 29.087 119.516 29.0837 119.47 29.0437C119.418 28.9995 119.355 28.9259 119.31 28.8235C119.265 28.7228 119.255 28.6375 119.255 28.592H122.255ZM119.798 26.06L117.278 25.604L116.744 28.556L119.264 29.012L119.798 26.06ZM117.269 25.6024C116.466 25.462 116.026 25.2049 115.784 24.9553L113.631 27.0447C114.445 27.8831 115.541 28.346 116.753 28.5576L117.269 25.6024ZM115.784 24.9553C115.571 24.7362 115.415 24.4214 115.415 23.864H112.415C112.415 25.0666 112.788 26.1758 113.631 27.0447L115.784 24.9553ZM115.415 23.864C115.415 23.3635 115.548 23.0079 115.771 22.7209L113.403 20.8791C112.731 21.7441 112.415 22.7645 112.415 23.864H115.415ZM115.771 22.7209C116.034 22.3834 116.422 22.0816 117.002 21.8448L115.869 19.0672C114.881 19.4704 114.037 20.0646 113.403 20.8791L115.771 22.7209ZM117.002 21.8448C117.573 21.6119 118.278 21.476 119.147 21.476V18.476C117.969 18.476 116.866 18.6601 115.869 19.0672L117.002 21.8448ZM119.147 21.476C120.359 21.476 121.371 21.709 122.221 22.1336L123.562 19.4504C122.235 18.787 120.752 18.476 119.147 18.476V21.476ZM122.244 22.1452C122.29 22.1669 122.267 22.1649 122.222 22.1154C122.2 22.0905 122.175 22.0576 122.154 22.0173C122.132 21.9769 122.117 21.9366 122.108 21.8998L125.019 21.1722C124.805 20.3174 124.205 19.7578 123.539 19.4388L122.244 22.1452ZM122.127 21.967C122.128 21.9715 122.127 21.9699 122.126 21.9629C122.125 21.9557 122.125 21.9454 122.125 21.9332C122.126 21.9209 122.128 21.9099 122.13 21.9011C122.132 21.8924 122.134 21.8885 122.133 21.8899L124.898 23.0541C125.163 22.4245 125.195 21.754 125 21.105L122.127 21.967ZM122.133 21.8899C122.131 21.8947 122.131 21.8941 122.133 21.8898C122.136 21.8854 122.141 21.8793 122.147 21.8727C122.152 21.866 122.158 21.861 122.162 21.8577C122.166 21.8544 122.167 21.8544 122.163 21.8568L123.62 24.4792C124.202 24.156 124.64 23.6671 124.898 23.0541L122.133 21.8899ZM122.221 21.8264C122.267 21.8032 122.317 21.786 122.367 21.7758C122.417 21.7658 122.458 21.7643 122.487 21.7656C122.542 21.7682 122.538 21.7799 122.463 21.747L121.255 24.493C121.909 24.7808 122.745 24.9181 123.562 24.5096L122.221 21.8264ZM122.48 21.7544C121.885 21.4838 121.304 21.276 120.745 21.1517L120.094 24.0803C120.399 24.148 120.778 24.2762 121.239 24.4855L122.48 21.7544ZM120.796 21.164C120.26 21.0252 119.725 20.948 119.195 20.948V23.948C119.434 23.948 119.715 23.9828 120.043 24.068L120.796 21.164ZM119.195 20.948C118.379 20.948 117.452 21.0704 116.735 21.608L118.535 24.008C118.482 24.0479 118.482 24.0275 118.603 23.9996C118.721 23.9722 118.912 23.948 119.195 23.948V20.948ZM116.775 21.5792C116.105 22.0479 115.655 22.7711 115.655 23.672H118.655C118.655 23.7329 118.639 23.8264 118.587 23.9205C118.537 24.0089 118.488 24.0424 118.496 24.0368L116.775 21.5792ZM115.655 23.672C115.655 24.3266 115.893 24.965 116.412 25.451C116.885 25.8933 117.474 26.1002 118.001 26.2012L118.565 23.2548C118.463 23.2351 118.41 23.2152 118.394 23.2079C118.378 23.2011 118.411 23.2129 118.463 23.261C118.518 23.3129 118.574 23.3882 118.613 23.4813C118.65 23.5715 118.655 23.6423 118.655 23.672H115.655ZM118.016 26.204L120.536 26.66L121.07 23.708L118.55 23.252L118.016 26.204ZM120.553 26.663C121.407 26.8075 121.879 27.068 122.135 27.3164L124.224 25.1636C123.392 24.356 122.28 23.9125 121.054 23.705L120.553 26.663ZM122.151 27.3323C122.335 27.505 122.495 27.7805 122.495 28.352H125.495C125.495 27.1315 125.112 25.999 124.207 25.1477L122.151 27.3323ZM122.495 28.352C122.495 29.125 122.229 29.6205 121.682 30.0128L123.429 32.4512C124.802 31.4675 125.495 30.043 125.495 28.352H122.495ZM121.682 30.0128C121.048 30.4668 120.12 30.764 118.763 30.764V33.764C120.543 33.764 122.143 33.3732 123.429 32.4512L121.682 30.0128Z" fill="#5B3511"/>
</g>
<defs>
<filter id="filter0_d_12_70" x="0" y="7" width="151" height="53" filterUnits="userSpaceOnUse" color-interpolation-filters="sRGB">
<feFlood flood-opacity="0" result="BackgroundImageFix"/>
<feColorMatrix in="SourceAlpha" type="matrix" values="0 0 0 0 0 0 0 0 0 0 0 0 0 0 0 0 0 0 127 0" result="hardAlpha"/>
<feOffset dy="3"/>
<feGaussianBlur stdDeviation="1"/>
<feComposite in2="hardAlpha" operator="out"/>
<feColorMatrix type="matrix" values="0 0 0 0 0 0 0 0 0 0 0 0 0 0 0 0 0 0 0.25 0"/>
<feBlend mode="normal" in2="BackgroundImageFix" result="effect1_dropShadow_12_70"/>
<feBlend mode="normal" in="SourceGraphic" in2="effect1_dropShadow_12_70" result="shape"/>
</filter>
<filter id="filter1_d_12_70" x="2" y="8" width="147" height="46" filterUnits="userSpaceOnUse" color-interpolation-filters="sRGB">
<feFlood flood-opacity="0" result="BackgroundImageFix"/>
<feColorMatrix in="SourceAlpha" type="matrix" values="0 0 0 0 0 0 0 0 0 0 0 0 0 0 0 0 0 0 127 0" result="hardAlpha"/>
<feOffset dy="2"/>
<feGaussianBlur stdDeviation="1"/>
<feComposite in2="hardAlpha" operator="out"/>
<feColorMatrix type="matrix" values="0 0 0 0 0 0 0 0 0 0 0 0 0 0 0 0 0 0 0.25 0"/>
<feBlend mode="normal" in2="BackgroundImageFix" result="effect1_dropShadow_12_70"/>
<feBlend mode="normal" in="SourceGraphic" in2="effect1_dropShadow_12_70" result="shape"/>
</filter>
<filter id="filter2_dif_12_70" x="4" y="6" width="143" height="43" filterUnits="userSpaceOnUse" color-interpolation-filters="sRGB">
<feFlood flood-opacity="0" result="BackgroundImageFix"/>
<feColorMatrix in="SourceAlpha" type="matrix" values="0 0 0 0 0 0 0 0 0 0 0 0 0 0 0 0 0 0 127 0" result="hardAlpha"/>
<feOffset dy="2"/>
<feGaussianBlur stdDeviation="2"/>
<feComposite in2="hardAlpha" operator="out"/>
<feColorMatrix type="matrix" values="0 0 0 0 0.258529 0 0 0 0 0.140245 0 0 0 0 0.0293538 0 0 0 1 0"/>
<feBlend mode="normal" in2="BackgroundImageFix" result="effect1_dropShadow_12_70"/>
<feBlend mode="normal" in="SourceGraphic" in2="effect1_dropShadow_12_70" result="shape"/>
<feColorMatrix in="SourceAlpha" type="matrix" values="0 0 0 0 0 0 0 0 0 0 0 0 0 0 0 0 0 0 127 0" result="hardAlpha"/>
<feMorphology radius="1" operator="erode" in="SourceAlpha" result="effect2_innerShadow_12_70"/>
<feOffset dy="-1"/>
<feGaussianBlur stdDeviation="0.5"/>
<feComposite in2="hardAlpha" operator="arithmetic" k2="-1" k3="1"/>
<feColorMatrix type="matrix" values="0 0 0 0 1 0 0 0 0 0.689948 0 0 0 0 0.325975 0 0 0 0.25 0"/>
<feBlend mode="normal" in2="shape" result="effect2_innerShadow_12_70"/>
<feGaussianBlur stdDeviation="0.5" result="effect3_foregroundBlur_12_70"/>
</filter>
<filter id="filter3_d_12_70" x="27.0321" y="15.08" width="97.9632" height="19.184" filterUnits="userSpaceOnUse" color-interpolation-filters="sRGB">
<feFlood flood-opacity="0" result="BackgroundImageFix"/>
<feColorMatrix in="SourceAlpha" type="matrix" values="0 0 0 0 0 0 0 0 0 0 0 0 0 0 0 0 0 0 127 0" result="hardAlpha"/>
<feOffset dy="1"/>
<feGaussianBlur stdDeviation="0.5"/>
<feComposite in2="hardAlpha" operator="out"/>
<feColorMatrix type="matrix" values="0 0 0 0 0 0 0 0 0 0 0 0 0 0 0 0 0 0 0.25 0"/>
<feBlend mode="normal" in2="BackgroundImageFix" result="effect1_dropShadow_12_70"/>
<feBlend mode="normal" in="SourceGraphic" in2="effect1_dropShadow_12_70" result="shape"/>
</filter>
<radialGradient id="paint0_radial_12_70" cx="0" cy="0" r="1" gradientUnits="userSpaceOnUse" gradientTransform="translate(75.5 9.05) rotate(90) scale(40.95 139.425)">
<stop stop-color="#5B3511"/>
<stop offset="0.528052" stop-color="#DD7F28"/>
<stop offset="0.977884" stop-color="#5B3511"/>
</radialGradient>
<linearGradient id="paint1_linear_12_70" x1="75.5" y1="8" x2="75.5" y2="41" gradientUnits="userSpaceOnUse">
<stop stop-color="#FDE092"/>
<stop offset="1" stop-color="#C18B2C"/>
</linearGradient>
</defs>
</svg>
