<svg width="183" height="63" viewBox="0 0 183 63" fill="none" xmlns="http://www.w3.org/2000/svg">
<g filter="url(#filter0_d_12_77)">
<rect x="2" y="7" width="179" height="48" rx="22" fill="#41260C"/>
</g>
<g filter="url(#filter1_d_12_77)">
<rect x="4" y="8" width="175" height="42" rx="20" fill="url(#paint0_radial_12_77)"/>
</g>
<g filter="url(#filter2_dif_12_77)">
<rect x="8" y="8" width="167" height="35" rx="16" fill="#DD7F28"/>
</g>
<g style="mix-blend-mode:lighten" opacity="0.15">
<path d="M166.585 18.1462C163.974 22.3641 131.481 21.9916 90.0332 21.9916C48.5854 21.9916 19.7339 22.1429 15.8183 17.925C14.3945 16.3912 13.2725 12.5322 26.5915 11.3557C40.2061 10.1532 69.6803 10.1045 90.6317 10.1045C111.583 10.1045 140.285 9.60123 153.9 10.8038C167.219 11.9802 167.771 16.229 166.585 18.1462Z" fill="#E0F4FF"/>
</g>
<g filter="url(#filter3_d_12_77)">
<path d="M40.6463 32.216C40.0383 32.216 39.5743 32.048 39.2543 31.712C38.9343 31.376 38.7743 30.904 38.7743 30.296V16.976C38.7743 15.712 39.4063 15.08 40.6703 15.08H46.5023C48.3903 15.08 49.8463 15.536 50.8703 16.448C51.8943 17.36 52.4063 18.632 52.4063 20.264C52.4063 21.528 52.0783 22.584 51.4223 23.432C50.7823 24.264 49.8623 24.832 48.6623 25.136C49.5103 25.392 50.2063 26.008 50.7503 26.984L52.2383 29.744C52.5743 30.352 52.6383 30.92 52.4303 31.448C52.2223 31.96 51.7183 32.216 50.9183 32.216C50.3903 32.216 49.9583 32.104 49.6223 31.88C49.2863 31.656 48.9983 31.312 48.7583 30.848L46.4543 26.6C46.2143 26.152 45.9183 25.848 45.5663 25.688C45.2143 25.528 44.7983 25.448 44.3183 25.448H42.4943V30.296C42.4943 30.904 42.3343 31.376 42.0143 31.712C41.7103 32.048 41.2543 32.216 40.6463 32.216ZM42.4943 22.76H45.8303C47.8303 22.76 48.8303 21.96 48.8303 20.36C48.8303 18.776 47.8303 17.984 45.8303 17.984H42.4943V22.76ZM60.5091 32.264C59.2451 32.264 58.1411 32.016 57.1971 31.52C56.2691 31.008 55.5491 30.296 55.0371 29.384C54.5251 28.456 54.2691 27.36 54.2691 26.096C54.2691 24.848 54.5251 23.768 55.0371 22.856C55.5491 21.928 56.2691 21.216 57.1971 20.72C58.1411 20.224 59.2451 19.976 60.5091 19.976C61.7731 19.976 62.8691 20.224 63.7971 20.72C64.7411 21.216 65.4691 21.928 65.9811 22.856C66.5091 23.768 66.7731 24.848 66.7731 26.096C66.7731 27.36 66.5091 28.456 65.9811 29.384C65.4691 30.296 64.7411 31.008 63.7971 31.52C62.8691 32.016 61.7731 32.264 60.5091 32.264ZM60.5091 29.552C61.2771 29.552 61.9011 29.272 62.3811 28.712C62.8771 28.152 63.1251 27.28 63.1251 26.096C63.1251 24.928 62.8771 24.072 62.3811 23.528C61.9011 22.968 61.2771 22.688 60.5091 22.688C59.7411 22.688 59.1171 22.968 58.6371 23.528C58.1571 24.072 57.9171 24.928 57.9171 26.096C57.9171 27.28 58.1571 28.152 58.6371 28.712C59.1171 29.272 59.7411 29.552 60.5091 29.552ZM72.9619 32.264C72.0819 32.264 71.3059 32.096 70.6339 31.76C69.9619 31.424 69.4259 30.968 69.0259 30.392C68.6419 29.816 68.4499 29.168 68.4499 28.448C68.4499 27.6 68.6739 26.92 69.1219 26.408C69.5699 25.896 70.2979 25.536 71.3059 25.328C72.3139 25.104 73.6499 24.992 75.3139 24.992H76.1779V24.584C76.1779 23.88 76.0179 23.384 75.6979 23.096C75.3779 22.792 74.8339 22.64 74.0659 22.64C73.6339 22.64 73.1619 22.696 72.6499 22.808C72.1379 22.904 71.5859 23.072 70.9939 23.312C70.5459 23.504 70.1699 23.52 69.8659 23.36C69.5619 23.184 69.3619 22.928 69.2659 22.592C69.1699 22.24 69.1939 21.888 69.3379 21.536C69.4979 21.184 69.8019 20.928 70.2499 20.768C71.0019 20.48 71.7059 20.28 72.3619 20.168C73.0339 20.04 73.6499 19.976 74.2099 19.976C76.0339 19.976 77.3939 20.392 78.2899 21.224C79.1859 22.04 79.6339 23.312 79.6339 25.04V30.368C79.6339 31.6 79.0739 32.216 77.9539 32.216C76.8179 32.216 76.2499 31.6 76.2499 30.368V30.224C76.0099 30.848 75.6019 31.344 75.0259 31.712C74.4659 32.08 73.7779 32.264 72.9619 32.264ZM73.7779 29.84C74.4499 29.84 75.0179 29.608 75.4819 29.144C75.9459 28.68 76.1779 28.08 76.1779 27.344V26.864H75.3379C74.1059 26.864 73.2339 26.976 72.7219 27.2C72.2099 27.408 71.9539 27.776 71.9539 28.304C71.9539 28.752 72.1059 29.12 72.4099 29.408C72.7299 29.696 73.1859 29.84 73.7779 29.84ZM86.9213 32.264C85.8973 32.264 84.9933 32.016 84.2093 31.52C83.4413 31.008 82.8413 30.296 82.4093 29.384C81.9773 28.456 81.7613 27.36 81.7613 26.096C81.7613 24.832 81.9773 23.744 82.4093 22.832C82.8413 21.92 83.4413 21.216 84.2093 20.72C84.9933 20.224 85.8973 19.976 86.9213 19.976C87.7053 19.976 88.4253 20.144 89.0813 20.48C89.7373 20.816 90.2333 21.264 90.5693 21.824V16.712C90.5693 15.48 91.1693 14.864 92.3693 14.864C93.5853 14.864 94.1933 15.48 94.1933 16.712V30.368C94.1933 31.6 93.5933 32.216 92.3933 32.216C91.1933 32.216 90.5933 31.6 90.5933 30.368V30.296C90.2733 30.904 89.7773 31.384 89.1053 31.736C88.4493 32.088 87.7213 32.264 86.9213 32.264ZM88.0013 29.552C88.7693 29.552 89.3933 29.272 89.8733 28.712C90.3693 28.152 90.6173 27.28 90.6173 26.096C90.6173 24.928 90.3693 24.072 89.8733 23.528C89.3933 22.968 88.7693 22.688 88.0013 22.688C87.2333 22.688 86.6093 22.968 86.1293 23.528C85.6493 24.072 85.4093 24.928 85.4093 26.096C85.4093 27.28 85.6493 28.152 86.1293 28.712C86.6093 29.272 87.2333 29.552 88.0013 29.552ZM98.8578 32.216C97.6418 32.216 97.0338 31.6 97.0338 30.368V21.848C97.0338 20.632 97.6258 20.024 98.8098 20.024C99.9938 20.024 100.586 20.632 100.586 21.848V21.92C100.938 21.312 101.418 20.84 102.026 20.504C102.65 20.152 103.37 19.976 104.186 19.976C105.018 19.976 105.722 20.16 106.298 20.528C106.89 20.896 107.338 21.456 107.642 22.208C108.01 21.504 108.538 20.96 109.226 20.576C109.93 20.176 110.706 19.976 111.554 19.976C112.898 19.976 113.898 20.384 114.554 21.2C115.21 22 115.538 23.24 115.538 24.92V30.368C115.538 30.96 115.378 31.416 115.058 31.736C114.754 32.056 114.314 32.216 113.738 32.216C112.522 32.216 111.914 31.6 111.914 30.368V25.04C111.914 24.256 111.786 23.688 111.53 23.336C111.29 22.968 110.874 22.784 110.282 22.784C109.594 22.784 109.058 23.024 108.674 23.504C108.29 23.984 108.098 24.664 108.098 25.544V30.368C108.098 31.6 107.498 32.216 106.298 32.216C105.722 32.216 105.274 32.056 104.954 31.736C104.634 31.416 104.474 30.96 104.474 30.368V25.04C104.474 24.256 104.346 23.688 104.09 23.336C103.834 22.968 103.418 22.784 102.842 22.784C102.154 22.784 101.618 23.024 101.234 23.504C100.85 23.984 100.658 24.664 100.658 25.544V30.368C100.658 31.6 100.058 32.216 98.8578 32.216ZM122.298 32.264C121.418 32.264 120.642 32.096 119.97 31.76C119.298 31.424 118.762 30.968 118.362 30.392C117.978 29.816 117.786 29.168 117.786 28.448C117.786 27.6 118.01 26.92 118.458 26.408C118.906 25.896 119.634 25.536 120.642 25.328C121.65 25.104 122.986 24.992 124.65 24.992H125.514V24.584C125.514 23.88 125.354 23.384 125.034 23.096C124.714 22.792 124.17 22.64 123.402 22.64C122.97 22.64 122.498 22.696 121.986 22.808C121.474 22.904 120.922 23.072 120.33 23.312C119.882 23.504 119.506 23.52 119.202 23.36C118.898 23.184 118.698 22.928 118.602 22.592C118.506 22.24 118.53 21.888 118.674 21.536C118.834 21.184 119.138 20.928 119.586 20.768C120.338 20.48 121.042 20.28 121.698 20.168C122.37 20.04 122.986 19.976 123.546 19.976C125.37 19.976 126.73 20.392 127.626 21.224C128.522 22.04 128.97 23.312 128.97 25.04V30.368C128.97 31.6 128.41 32.216 127.29 32.216C126.154 32.216 125.586 31.6 125.586 30.368V30.224C125.346 30.848 124.938 31.344 124.362 31.712C123.802 32.08 123.114 32.264 122.298 32.264ZM123.114 29.84C123.786 29.84 124.354 29.608 124.818 29.144C125.282 28.68 125.514 28.08 125.514 27.344V26.864H124.674C123.442 26.864 122.57 26.976 122.058 27.2C121.546 27.408 121.29 27.776 121.29 28.304C121.29 28.752 121.442 29.12 121.746 29.408C122.066 29.696 122.522 29.84 123.114 29.84ZM133.497 36.536C132.281 36.536 131.673 35.92 131.673 34.688V21.848C131.673 20.632 132.265 20.024 133.449 20.024C134.649 20.024 135.249 20.632 135.249 21.848V21.92C135.585 21.328 136.081 20.856 136.737 20.504C137.393 20.152 138.129 19.976 138.945 19.976C139.969 19.976 140.865 20.224 141.633 20.72C142.417 21.216 143.025 21.92 143.457 22.832C143.889 23.744 144.105 24.832 144.105 26.096C144.105 27.36 143.889 28.456 143.457 29.384C143.025 30.296 142.417 31.008 141.633 31.52C140.865 32.016 139.969 32.264 138.945 32.264C138.161 32.264 137.441 32.096 136.785 31.76C136.145 31.424 135.649 30.976 135.297 30.416V34.688C135.297 35.92 134.697 36.536 133.497 36.536ZM137.865 29.552C138.633 29.552 139.257 29.272 139.737 28.712C140.217 28.152 140.457 27.28 140.457 26.096C140.457 24.928 140.217 24.072 139.737 23.528C139.257 22.968 138.633 22.688 137.865 22.688C137.081 22.688 136.449 22.968 135.969 23.528C135.489 24.072 135.249 24.928 135.249 26.096C135.249 27.28 135.489 28.152 135.969 28.712C136.449 29.272 137.081 29.552 137.865 29.552Z" fill="url(#paint1_linear_12_77)"/>
<path d="M39.2543 31.712L40.3405 30.6775L39.2543 31.712ZM50.8703 16.448L49.8727 17.5681H49.8727L50.8703 16.448ZM51.4223 23.432L50.2359 22.5142L50.2334 22.5174L51.4223 23.432ZM48.6623 25.136L48.2939 23.6819L43.0533 25.0096L48.2288 26.572L48.6623 25.136ZM50.7503 26.984L52.0707 26.2722L52.0657 26.2629L52.0605 26.2537L50.7503 26.984ZM52.2383 29.744L50.918 30.4558L50.9217 30.4627L50.9255 30.4695L52.2383 29.744ZM52.4303 31.448L53.82 32.0126L53.823 32.0052L53.8259 31.9978L52.4303 31.448ZM49.6223 31.88L48.7903 33.1281L48.7903 33.1281L49.6223 31.88ZM48.7583 30.848L50.0906 30.1589L50.0839 30.1458L50.0769 30.1329L48.7583 30.848ZM46.4543 26.6L45.1321 27.3083L45.1358 27.3151L46.4543 26.6ZM45.5663 25.688L44.9456 27.0535L44.9456 27.0536L45.5663 25.688ZM42.4943 25.448V23.948H40.9943V25.448H42.4943ZM42.0143 31.712L40.9281 30.6775L40.9149 30.6914L40.902 30.7056L42.0143 31.712ZM42.4943 22.76H40.9943V24.26H42.4943V22.76ZM42.4943 17.984V16.484H40.9943V17.984H42.4943ZM40.6463 30.716C40.4775 30.716 40.3882 30.6924 40.353 30.6796C40.3251 30.6695 40.3302 30.6667 40.3405 30.6775L38.1681 32.7465C38.8517 33.4642 39.7612 33.716 40.6463 33.716V30.716ZM40.3405 30.6775C40.3392 30.6761 40.3371 30.6738 40.3339 30.6684C40.3305 30.6627 40.3233 30.6492 40.3149 30.6244C40.2976 30.5734 40.2743 30.471 40.2743 30.296H37.2743C37.2743 31.1658 37.5081 32.0535 38.1681 32.7465L40.3405 30.6775ZM40.2743 30.296V16.976H37.2743V30.296H40.2743ZM40.2743 16.976C40.2743 16.5752 40.3735 16.5501 40.309 16.6147C40.2445 16.6792 40.2695 16.58 40.6703 16.58V13.58C39.8071 13.58 38.8842 13.7968 38.1877 14.4933C37.4911 15.1899 37.2743 16.1128 37.2743 16.976H40.2743ZM40.6703 16.58H46.5023V13.58H40.6703V16.58ZM46.5023 16.58C48.1616 16.58 49.2121 16.9798 49.8727 17.5681L51.8679 15.3279C50.4806 14.0922 48.619 13.58 46.5023 13.58V16.58ZM49.8727 17.5681C50.5162 18.1413 50.9063 18.971 50.9063 20.264H53.9063C53.9063 18.293 53.2724 16.5787 51.8679 15.3279L49.8727 17.5681ZM50.9063 20.264C50.9063 21.2575 50.6538 21.9739 50.2359 22.5142L52.6087 24.3498C53.5028 23.1941 53.9063 21.7985 53.9063 20.264H50.9063ZM50.2334 22.5174C49.8339 23.0368 49.2285 23.4452 48.2939 23.6819L49.0307 26.5901C50.4961 26.2188 51.7307 25.4912 52.6112 24.3466L50.2334 22.5174ZM48.2288 26.572C48.6131 26.688 49.0337 26.9852 49.4401 27.7143L52.0605 26.2537C51.3789 25.0308 50.4075 24.096 49.0958 23.7L48.2288 26.572ZM49.43 27.6958L50.918 30.4558L53.5587 29.0322L52.0707 26.2722L49.43 27.6958ZM50.9255 30.4695C51.0983 30.7823 51.0423 30.879 51.0347 30.8982L53.8259 31.9978C54.2343 30.961 54.0503 29.9217 53.5512 29.0185L50.9255 30.4695ZM51.0406 30.8834C51.053 30.8528 51.0778 30.8084 51.1188 30.7642C51.1594 30.7204 51.1977 30.6964 51.217 30.6866C51.2337 30.6782 51.2243 30.6862 51.1739 30.6961C51.123 30.7061 51.0402 30.716 50.9183 30.716V33.716C52.0074 33.716 53.2815 33.3381 53.82 32.0126L51.0406 30.8834ZM50.9183 30.716C50.5966 30.716 50.4785 30.648 50.4544 30.6319L48.7903 33.1281C49.4381 33.56 50.184 33.716 50.9183 33.716V30.716ZM50.4544 30.6319C50.3829 30.5843 50.2473 30.4617 50.0906 30.1589L47.426 31.5371C47.7494 32.1623 48.1897 32.7277 48.7903 33.1281L50.4544 30.6319ZM50.0769 30.1329L47.7729 25.8849L45.1358 27.3151L47.4398 31.5631L50.0769 30.1329ZM47.7765 25.8917C47.43 25.2448 46.9209 24.656 46.187 24.3224L44.9456 27.0536C44.9158 27.04 44.9986 27.0592 45.1321 27.3083L47.7765 25.8917ZM46.187 24.3225C45.599 24.0552 44.9621 23.948 44.3183 23.948V26.948C44.6345 26.948 44.8297 27.0008 44.9456 27.0535L46.187 24.3225ZM44.3183 23.948H42.4943V26.948H44.3183V23.948ZM40.9943 25.448V30.296H43.9943V25.448H40.9943ZM40.9943 30.296C40.9943 30.471 40.971 30.5734 40.9537 30.6244C40.9453 30.6492 40.9381 30.6627 40.9347 30.6684C40.9315 30.6738 40.9295 30.6761 40.9281 30.6775L43.1005 32.7465C43.7605 32.0535 43.9943 31.1658 43.9943 30.296H40.9943ZM40.902 30.7056C40.9243 30.681 40.9433 30.676 40.9258 30.6825C40.8996 30.6921 40.816 30.716 40.6463 30.716V33.716C41.5264 33.716 42.4503 33.4659 43.1266 32.7184L40.902 30.7056ZM42.4943 24.26H45.8303V21.26H42.4943V24.26ZM45.8303 24.26C46.9906 24.26 48.1384 24.0345 49.0174 23.3313C49.9603 22.577 50.3303 21.4911 50.3303 20.36H47.3303C47.3303 20.8289 47.2004 20.943 47.1433 20.9887C47.0223 21.0855 46.67 21.26 45.8303 21.26V24.26ZM50.3303 20.36C50.3303 19.2317 49.9567 18.1506 49.0116 17.4021C48.1333 16.7065 46.988 16.484 45.8303 16.484V19.484C46.6727 19.484 47.0274 19.6575 47.149 19.7539C47.204 19.7974 47.3303 19.9043 47.3303 20.36H50.3303ZM45.8303 16.484H42.4943V19.484H45.8303V16.484ZM40.9943 17.984V22.76H43.9943V17.984H40.9943ZM57.1971 31.52L56.4725 32.8334L56.4859 32.8408L56.4994 32.8479L57.1971 31.52ZM55.0371 29.384L53.7237 30.1086L53.7291 30.1183L55.0371 29.384ZM55.0371 22.856L56.3451 23.5903L56.3505 23.5806L55.0371 22.856ZM57.1971 20.72L56.4994 19.3921L56.4901 19.3971L57.1971 20.72ZM63.7971 20.72L63.09 22.0429L63.0994 22.0479L63.7971 20.72ZM65.9811 22.856L64.6678 23.5806L64.6752 23.5942L64.683 23.6076L65.9811 22.856ZM65.9811 29.384L64.6774 28.6422L64.6731 28.6497L65.9811 29.384ZM63.7971 31.52L64.5042 32.8429L64.5123 32.8385L63.7971 31.52ZM62.3811 28.712L61.2582 27.7174L61.2502 27.7266L61.2422 27.7358L62.3811 28.712ZM62.3811 23.528L61.2422 24.5042L61.2572 24.5216L61.2727 24.5386L62.3811 23.528ZM58.6371 23.528L59.7619 24.5204L59.769 24.5124L59.776 24.5042L58.6371 23.528ZM58.6371 28.712L59.776 27.7358L58.6371 28.712ZM60.5091 30.764C59.4433 30.764 58.5871 30.5559 57.8948 30.1921L56.4994 32.8479C57.6951 33.4761 59.047 33.764 60.5091 33.764V30.764ZM57.9217 30.2066C57.2349 29.8277 56.7184 29.3147 56.3451 28.6497L53.7291 30.1183C54.3798 31.2773 55.3034 32.1883 56.4725 32.8334L57.9217 30.2066ZM56.3505 28.6594C55.9825 27.9924 55.7691 27.1553 55.7691 26.096H52.7691C52.7691 27.5647 53.0678 28.9196 53.7238 30.1086L56.3505 28.6594ZM55.7691 26.096C55.7691 25.0555 55.9813 24.2383 56.3451 23.5903L53.7291 22.1217C53.069 23.2976 52.7691 24.6405 52.7691 26.096H55.7691ZM56.3505 23.5806C56.7235 22.9045 57.2338 22.4012 57.9042 22.0429L56.4901 19.3971C55.3044 20.0308 54.3747 20.9515 53.7238 22.1314L56.3505 23.5806ZM57.8948 22.0479C58.5871 21.6841 59.4433 21.476 60.5091 21.476V18.476C59.047 18.476 57.6951 18.7639 56.4994 19.3921L57.8948 22.0479ZM60.5091 21.476C61.5758 21.476 62.4193 21.6844 63.0901 22.0429L64.5042 19.3971C63.3189 18.7636 61.9704 18.476 60.5091 18.476V21.476ZM63.0994 22.0479C63.7853 22.4082 64.2985 22.9113 64.6678 23.5806L67.2945 22.1314C66.6398 20.9447 65.6969 20.0238 64.4948 19.3921L63.0994 22.0479ZM64.683 23.6076C65.0562 24.2523 65.2731 25.063 65.2731 26.096H68.2731C68.2731 24.633 67.962 23.2837 67.2793 22.1044L64.683 23.6076ZM65.2731 26.096C65.2731 27.1479 65.0549 27.9786 64.6774 28.6422L67.2849 30.1258C67.9633 28.9334 68.2731 27.5721 68.2731 26.096H65.2731ZM64.6731 28.6497C64.3036 29.308 63.7842 29.8206 63.082 30.2015L64.5123 32.8385C65.698 32.1954 66.6347 31.284 67.2891 30.1183L64.6731 28.6497ZM63.0901 30.1971C62.4193 30.5556 61.5758 30.764 60.5091 30.764V33.764C61.9704 33.764 63.3189 33.4764 64.5042 32.8429L63.0901 30.1971ZM60.5091 31.052C61.6943 31.052 62.7419 30.596 63.52 29.6882L61.2422 27.7358C61.0604 27.948 60.8599 28.052 60.5091 28.052V31.052ZM63.504 29.7066C64.3503 28.7511 64.6251 27.4436 64.6251 26.096H61.6251C61.6251 27.1164 61.404 27.5529 61.2582 27.7174L63.504 29.7066ZM64.6251 26.096C64.6251 24.7631 64.3497 23.4607 63.4896 22.5174L61.2727 24.5386C61.4046 24.6833 61.6251 25.0929 61.6251 26.096H64.6251ZM63.52 22.5518C62.7419 21.644 61.6943 21.188 60.5091 21.188V24.188C60.8599 24.188 61.0604 24.292 61.2422 24.5042L63.52 22.5518ZM60.5091 21.188C59.3239 21.188 58.2764 21.644 57.4982 22.5518L59.776 24.5042C59.9579 24.292 60.1583 24.188 60.5091 24.188V21.188ZM57.5124 22.5356C56.6806 23.4783 56.4171 24.7727 56.4171 26.096H59.4171C59.4171 25.0833 59.6337 24.6657 59.7619 24.5204L57.5124 22.5356ZM56.4171 26.096C56.4171 27.4343 56.6802 28.7338 57.4982 29.6882L59.776 27.7358C59.6341 27.5702 59.4171 27.1257 59.4171 26.096H56.4171ZM57.4982 29.6882C58.2764 30.596 59.3239 31.052 60.5091 31.052V28.052C60.1583 28.052 59.9579 27.948 59.776 27.7358L57.4982 29.6882ZM70.6339 31.76L69.9631 33.1016L70.6339 31.76ZM69.0259 30.392L67.7779 31.2241L67.7858 31.2359L67.7939 31.2476L69.0259 30.392ZM69.1219 26.408L67.9931 25.4202L69.1219 26.408ZM71.3059 25.328L71.6091 26.797L71.6202 26.7947L71.6313 26.7923L71.3059 25.328ZM76.1779 24.992V26.492H77.6779V24.992H76.1779ZM75.6979 23.096L74.6648 24.1835L74.6795 24.1974L74.6945 24.2109L75.6979 23.096ZM72.6499 22.808L72.9264 24.2823L72.9485 24.2782L72.9705 24.2733L72.6499 22.808ZM70.9939 23.312L70.4304 21.9219L70.4167 21.9275L70.4031 21.9333L70.9939 23.312ZM69.8659 23.36L69.1144 24.6581L69.1406 24.6733L69.1673 24.6874L69.8659 23.36ZM69.2659 22.592L67.8188 22.9867L67.8212 22.9954L67.8237 23.0041L69.2659 22.592ZM69.3379 21.536L67.9724 20.9153L67.9605 20.9415L67.9496 20.9681L69.3379 21.536ZM70.2499 20.768L70.7544 22.1806L70.7705 22.1749L70.7864 22.1688L70.2499 20.768ZM72.3619 20.168L72.6144 21.6466L72.6285 21.6442L72.6426 21.6415L72.3619 20.168ZM78.2899 21.224L77.2693 22.3232L77.2746 22.3281L77.2799 22.333L78.2899 21.224ZM76.2499 30.224H77.7499L74.8499 29.6855L76.2499 30.224ZM75.0259 31.712L74.2184 30.448L74.2102 30.4531L74.2022 30.4584L75.0259 31.712ZM75.4819 29.144L76.5426 30.2047L75.4819 29.144ZM76.1779 26.864H77.6779V25.364H76.1779V26.864ZM72.7219 27.2L73.2865 28.5897L73.3049 28.5822L73.3232 28.5742L72.7219 27.2ZM72.4099 29.408L71.3783 30.4969L71.3922 30.5101L71.4065 30.5229L72.4099 29.408ZM72.9619 30.764C72.275 30.764 71.7356 30.6338 71.3048 30.4184L69.9631 33.1016C70.8763 33.5582 71.8888 33.764 72.9619 33.764V30.764ZM71.3048 30.4184C70.8411 30.1865 70.5044 29.8913 70.258 29.5364L67.7939 31.2476C68.3475 32.0447 69.0828 32.6615 69.9631 33.1016L71.3048 30.4184ZM70.274 29.5599C70.0611 29.2406 69.9499 28.8844 69.9499 28.448H66.9499C66.9499 29.4516 67.2228 30.3914 67.7779 31.2241L70.274 29.5599ZM69.9499 28.448C69.9499 27.8705 70.0968 27.5717 70.2508 27.3958L67.9931 25.4202C67.251 26.2683 66.9499 27.3295 66.9499 28.448H69.9499ZM70.2508 27.3958C70.398 27.2275 70.7656 26.9711 71.6091 26.797L71.0028 23.8589C69.8303 24.1009 68.7419 24.5645 67.9931 25.4202L70.2508 27.3958ZM71.6313 26.7923C72.4879 26.6019 73.7016 26.492 75.3139 26.492V23.492C73.5982 23.492 72.1399 23.6061 70.9805 23.8637L71.6313 26.7923ZM75.3139 26.492H76.1779V23.492H75.3139V26.492ZM77.6779 24.992V24.584H74.6779V24.992H77.6779ZM77.6779 24.584C77.6779 23.7166 77.4903 22.6911 76.7014 21.9811L74.6945 24.2109C74.6203 24.1442 74.6145 24.0953 74.6304 24.1445C74.6489 24.2019 74.6779 24.3373 74.6779 24.584H77.6779ZM76.7311 22.0085C75.9874 21.3021 74.9565 21.14 74.0659 21.14V24.14C74.3589 24.14 74.5432 24.1699 74.6463 24.1987C74.7467 24.2267 74.7251 24.2408 74.6648 24.1835L76.7311 22.0085ZM74.0659 21.14C73.5062 21.14 72.9252 21.2123 72.3294 21.3426L72.9705 24.2733C73.3986 24.1797 73.7617 24.14 74.0659 24.14V21.14ZM72.3735 21.3337C71.7441 21.4517 71.0951 21.6524 70.4304 21.9219L71.5575 24.7021C72.0768 24.4916 72.5317 24.3563 72.9264 24.2823L72.3735 21.3337ZM70.4031 21.9333C70.2992 21.9778 70.2739 21.971 70.3122 21.9694C70.3335 21.9684 70.3704 21.9694 70.4182 21.9795C70.4667 21.9898 70.5169 22.0075 70.5646 22.0326L69.1673 24.6874C70.0187 25.1355 70.9031 24.9829 71.5848 24.6907L70.4031 21.9333ZM70.6175 22.0619C70.6165 22.0613 70.6229 22.0649 70.6336 22.0741C70.6446 22.0835 70.6574 22.0964 70.67 22.1125C70.6826 22.1287 70.6923 22.1445 70.6991 22.1582C70.7024 22.1648 70.7047 22.1701 70.7061 22.174C70.7076 22.1779 70.7082 22.1799 70.7082 22.1799L67.8237 23.0041C68.027 23.7159 68.476 24.2886 69.1144 24.6581L70.6175 22.0619ZM70.7131 22.1973C70.7076 22.1774 70.7082 22.1692 70.7085 22.166C70.7087 22.1621 70.7103 22.143 70.7263 22.1039L67.9496 20.9681C67.6863 21.6118 67.632 22.3019 67.8188 22.9867L70.7131 22.1973ZM70.7035 22.1567C70.6974 22.1702 70.6885 22.1854 70.6774 22.2C70.6663 22.2145 70.6567 22.2235 70.6521 22.2274C70.6433 22.2348 70.6666 22.212 70.7544 22.1806L69.7454 19.3554C69.009 19.6184 68.3376 20.1117 67.9724 20.9153L70.7035 22.1567ZM70.7864 22.1688C71.4649 21.9089 72.0731 21.739 72.6144 21.6466L72.1095 18.6894C71.3388 18.821 70.5389 19.0511 69.7135 19.3672L70.7864 22.1688ZM72.6426 21.6415C73.2416 21.5274 73.7621 21.476 74.2099 21.476V18.476C73.5378 18.476 72.8263 18.5526 72.0813 18.6945L72.6426 21.6415ZM74.2099 21.476C75.8377 21.476 76.7604 21.8507 77.2693 22.3232L79.3106 20.1248C78.0275 18.9333 76.2302 18.476 74.2099 18.476V21.476ZM77.2799 22.333C77.7498 22.7609 78.1339 23.5502 78.1339 25.04H81.1339C81.1339 23.0738 80.6221 21.3191 79.2999 20.115L77.2799 22.333ZM78.1339 25.04V30.368H81.1339V25.04H78.1339ZM78.1339 30.368C78.1339 30.7863 78.0358 30.82 78.104 30.745C78.1388 30.7067 78.1728 30.6921 78.1726 30.6922C78.1637 30.6954 78.1003 30.716 77.9539 30.716V33.716C78.7839 33.716 79.671 33.4812 80.3238 32.763C80.9521 32.072 81.1339 31.1817 81.1339 30.368H78.1339ZM77.9539 30.716C77.8015 30.716 77.7323 30.6949 77.7184 30.6898C77.7129 30.6879 77.7445 30.7001 77.7787 30.7372C77.8478 30.8122 77.7499 30.7816 77.7499 30.368H74.7499C74.7499 31.1864 74.9361 32.0798 75.5732 32.7708C76.2315 33.4848 77.1221 33.716 77.9539 33.716V30.716ZM77.7499 30.368V30.224H74.7499V30.368H77.7499ZM74.8499 29.6855C74.7276 30.0035 74.531 30.2482 74.2184 30.448L75.8335 32.976C76.6729 32.4398 77.2923 31.6925 77.65 30.7625L74.8499 29.6855ZM74.2022 30.4584C73.9355 30.6337 73.5495 30.764 72.9619 30.764V33.764C74.0064 33.764 74.9963 33.5263 75.8497 32.9656L74.2022 30.4584ZM73.7779 31.34C74.837 31.34 75.7898 30.9575 76.5426 30.2047L74.4213 28.0833C74.2461 28.2585 74.0628 28.34 73.7779 28.34V31.34ZM76.5426 30.2047C77.3232 29.4241 77.6779 28.425 77.6779 27.344H74.6779C74.6779 27.735 74.5687 27.9359 74.4213 28.0833L76.5426 30.2047ZM77.6779 27.344V26.864H74.6779V27.344H77.6779ZM76.1779 25.364H75.3379V28.364H76.1779V25.364ZM75.3379 25.364C74.0892 25.364 72.9415 25.4667 72.1207 25.8258L73.3232 28.5742C73.5264 28.4853 74.1227 28.364 75.3379 28.364V25.364ZM72.1574 25.8103C71.6951 25.9981 71.2435 26.3027 70.9146 26.7754C70.5823 27.2531 70.4539 27.7896 70.4539 28.304H73.4539C73.4539 28.2932 73.4552 28.3116 73.4442 28.3501C73.4327 28.3905 73.4113 28.4398 73.3773 28.4886C73.3044 28.5933 73.2368 28.6099 73.2865 28.5897L72.1574 25.8103ZM70.4539 28.304C70.4539 29.1318 70.7528 29.9043 71.3783 30.4969L73.4416 28.3191C73.4364 28.3142 73.4378 28.3147 73.4421 28.3208C73.4441 28.3237 73.4464 28.3273 73.4486 28.3314C73.4509 28.3356 73.4528 28.3396 73.4543 28.3434C73.4576 28.3513 73.4579 28.3545 73.4571 28.3503C73.4562 28.3457 73.4539 28.3311 73.4539 28.304H70.4539ZM71.4065 30.5229C72.0906 31.1387 72.9552 31.34 73.7779 31.34V28.34C73.4167 28.34 73.3692 28.2533 73.4134 28.2931L71.4065 30.5229ZM84.2093 31.52L83.3773 32.7681L83.3922 32.778L83.4073 32.7876L84.2093 31.52ZM82.4093 29.384L81.0494 30.0171L81.0537 30.0261L82.4093 29.384ZM82.4093 22.832L81.0537 22.1899L82.4093 22.832ZM84.2093 20.72L83.4073 19.4523L83.3955 19.4599L84.2093 20.72ZM89.0813 20.48L88.3975 21.8151L89.0813 20.48ZM90.5693 21.824L89.2831 22.5957L92.0693 27.2395V21.824H90.5693ZM90.5933 30.296H92.0933L89.2659 29.5974L90.5933 30.296ZM89.1053 31.736L88.4093 30.4073L88.4027 30.4107L88.3961 30.4143L89.1053 31.736ZM89.8733 28.712L88.7504 27.7174L88.7424 27.7266L88.7344 27.7358L89.8733 28.712ZM89.8733 23.528L88.7344 24.5042L88.7494 24.5216L88.7649 24.5386L89.8733 23.528ZM86.1293 23.528L87.2541 24.5204L87.2612 24.5124L87.2682 24.5042L86.1293 23.528ZM86.1293 28.712L87.2682 27.7358L86.1293 28.712ZM86.9213 30.764C86.1507 30.764 85.5308 30.5811 85.0113 30.2524L83.4073 32.7876C84.4558 33.4509 85.6439 33.764 86.9213 33.764V30.764ZM85.0414 30.2719C84.5204 29.9246 84.0917 29.4318 83.7649 28.7419L81.0537 30.0261C81.5909 31.1602 82.3622 32.0914 83.3773 32.7681L85.0414 30.2719ZM83.7692 28.751C83.4485 28.0621 83.2613 27.1914 83.2613 26.096H80.2613C80.2613 27.5286 80.5061 28.8499 81.0494 30.017L83.7692 28.751ZM83.2613 26.096C83.2613 24.9995 83.4489 24.1413 83.7649 23.4741L81.0537 22.1899C80.5058 23.3467 80.2613 24.6645 80.2613 26.096H83.2613ZM83.7649 23.4741C84.0902 22.7875 84.5137 22.3091 85.0231 21.9801L83.3955 19.4599C82.369 20.1229 81.5924 21.0525 81.0537 22.1899L83.7649 23.4741ZM85.0113 21.9876C85.5308 21.6589 86.1507 21.476 86.9213 21.476V18.476C85.6439 18.476 84.4558 18.7891 83.4073 19.4524L85.0113 21.9876ZM86.9213 21.476C87.4831 21.476 87.9666 21.5943 88.3975 21.8151L89.7651 19.1449C88.8841 18.6937 87.9275 18.476 86.9213 18.476V21.476ZM88.3975 21.8151C88.8369 22.0401 89.1092 22.306 89.2831 22.5957L91.8556 21.0523C91.3574 20.222 90.6377 19.5919 89.7651 19.1449L88.3975 21.8151ZM92.0693 21.824V16.712H89.0693V21.824H92.0693ZM92.0693 16.712C92.0693 16.3175 92.1656 16.2989 92.0938 16.3726C92.0627 16.4046 92.0413 16.4077 92.0675 16.3987C92.1014 16.3871 92.1933 16.364 92.3693 16.364V13.364C91.5279 13.364 90.6237 13.5823 89.9448 14.2794C89.273 14.9691 89.0693 15.8745 89.0693 16.712H92.0693ZM92.3693 16.364C92.7411 16.364 92.7455 16.4565 92.6697 16.3797C92.5975 16.3065 92.6933 16.3223 92.6933 16.712H95.6933C95.6933 15.8697 95.4851 14.9615 94.8049 14.2723C94.1211 13.5795 93.2135 13.364 92.3693 13.364V16.364ZM92.6933 16.712V30.368H95.6933V16.712H92.6933ZM92.6933 30.368C92.6933 30.7625 92.597 30.7811 92.6688 30.7074C92.6999 30.6754 92.7213 30.6723 92.6951 30.6813C92.6612 30.6929 92.5693 30.716 92.3933 30.716V33.716C93.2347 33.716 94.1389 33.4977 94.8178 32.8006C95.4896 32.1109 95.6933 31.2055 95.6933 30.368H92.6933ZM92.3933 30.716C92.2173 30.716 92.1254 30.6929 92.0915 30.6813C92.0653 30.6723 92.0867 30.6754 92.1178 30.7074C92.1896 30.7811 92.0933 30.7625 92.0933 30.368H89.0933C89.0933 31.2055 89.297 32.1109 89.9688 32.8006C90.6477 33.4977 91.5519 33.716 92.3933 33.716V30.716ZM92.0933 30.368V30.296H89.0933V30.368H92.0933ZM89.2659 29.5974C89.1023 29.9083 88.8411 30.1811 88.4093 30.4073L89.8013 33.0647C90.7135 32.5869 91.4443 31.8997 91.9207 30.9946L89.2659 29.5974ZM88.3961 30.4143C87.9743 30.6406 87.4928 30.764 86.9213 30.764V33.764C87.9498 33.764 88.9243 33.5354 89.8145 33.0577L88.3961 30.4143ZM88.0013 31.052C89.1865 31.052 90.234 30.596 91.0122 29.6882L88.7344 27.7358C88.5526 27.948 88.3521 28.052 88.0013 28.052V31.052ZM90.9962 29.7066C91.8424 28.7511 92.1173 27.4436 92.1173 26.096H89.1173C89.1173 27.1164 88.8962 27.5529 88.7504 27.7174L90.9962 29.7066ZM92.1173 26.096C92.1173 24.7631 91.8418 23.4607 90.9817 22.5174L88.7649 24.5386C88.8968 24.6833 89.1173 25.0929 89.1173 26.096H92.1173ZM91.0122 22.5518C90.234 21.644 89.1865 21.188 88.0013 21.188V24.188C88.3521 24.188 88.5526 24.292 88.7344 24.5042L91.0122 22.5518ZM88.0013 21.188C86.8161 21.188 85.7686 21.644 84.9904 22.5518L87.2682 24.5042C87.45 24.292 87.6505 24.188 88.0013 24.188V21.188ZM85.0046 22.5356C84.1727 23.4783 83.9093 24.7727 83.9093 26.096H86.9093C86.9093 25.0833 87.1259 24.6657 87.2541 24.5204L85.0046 22.5356ZM83.9093 26.096C83.9093 27.4343 84.1723 28.7338 84.9904 29.6882L87.2682 27.7358C87.1263 27.5702 86.9093 27.1257 86.9093 26.096H83.9093ZM84.9904 29.6882C85.7686 30.596 86.8161 31.052 88.0013 31.052V28.052C87.6505 28.052 87.45 27.948 87.2682 27.7358L84.9904 29.6882ZM100.586 21.92H99.0858V27.5047L101.884 22.6716L100.586 21.92ZM102.026 20.504L102.751 21.8169L102.763 21.8105L102.026 20.504ZM106.298 20.528L105.49 21.792L105.498 21.797L105.506 21.8019L106.298 20.528ZM107.642 22.208L106.251 22.7702L107.468 25.7793L108.971 22.9029L107.642 22.208ZM109.226 20.576L109.957 21.8858L109.967 21.8802L109.226 20.576ZM114.554 21.2L113.385 22.1398L113.389 22.1455L113.394 22.1511L114.554 21.2ZM115.058 31.736L113.997 30.6753L113.983 30.6889L113.97 30.7029L115.058 31.736ZM111.53 23.336L110.273 24.1554L110.294 24.1874L110.317 24.2183L111.53 23.336ZM104.954 31.736L106.014 30.6753L104.954 31.736ZM104.09 23.336L102.858 24.1926L102.867 24.2055L102.877 24.2183L104.09 23.336ZM101.234 23.504L102.405 24.441L101.234 23.504ZM98.8577 30.716C98.486 30.716 98.4815 30.6235 98.5573 30.7003C98.6295 30.7735 98.5337 30.7577 98.5337 30.368H95.5337C95.5337 31.2103 95.742 32.1185 96.4222 32.8077C97.106 33.5005 98.0135 33.716 98.8577 33.716V30.716ZM98.5337 30.368V21.848H95.5337V30.368H98.5337ZM98.5337 21.848C98.5337 21.4613 98.6281 21.4487 98.5525 21.5264C98.5193 21.5604 98.4954 21.5651 98.5186 21.5571C98.5494 21.5466 98.6378 21.524 98.8097 21.524V18.524C97.9762 18.524 97.0779 18.7404 96.403 19.4336C95.7354 20.1193 95.5337 21.0187 95.5337 21.848H98.5337ZM98.8097 21.524C98.9817 21.524 99.0701 21.5466 99.1009 21.5571C99.1241 21.5651 99.1002 21.5604 99.067 21.5264C98.9914 21.4487 99.0858 21.4613 99.0858 21.848H102.086C102.086 21.0187 101.884 20.1193 101.216 19.4336C100.542 18.7404 99.6433 18.524 98.8097 18.524V21.524ZM99.0858 21.848V21.92H102.086V21.848H99.0858ZM101.884 22.6716C102.101 22.2963 102.384 22.0196 102.751 21.8169L101.3 19.1911C100.451 19.6604 99.7744 20.3277 99.2876 21.1684L101.884 22.6716ZM102.763 21.8105C103.132 21.6021 103.592 21.476 104.186 21.476V18.476C103.148 18.476 102.167 18.7019 101.289 19.1975L102.763 21.8105ZM104.186 21.476C104.794 21.476 105.203 21.6087 105.49 21.792L107.105 19.264C106.24 18.7113 105.241 18.476 104.186 18.476V21.476ZM105.506 21.8019C105.786 21.9758 106.046 22.263 106.251 22.7702L109.032 21.6458C108.629 20.649 107.994 19.8162 107.09 19.2541L105.506 21.8019ZM108.971 22.9029C109.205 22.4555 109.526 22.1262 109.957 21.8858L108.495 19.2662C107.549 19.7938 106.815 20.5525 106.312 21.5131L108.971 22.9029ZM109.967 21.8802C110.434 21.6147 110.953 21.476 111.554 21.476V18.476C110.459 18.476 109.425 18.7373 108.485 19.2718L109.967 21.8802ZM111.554 21.476C112.583 21.476 113.091 21.7743 113.385 22.1398L115.723 20.2602C114.705 18.9937 113.212 18.476 111.554 18.476V21.476ZM113.394 22.1511C113.729 22.5603 114.038 23.3855 114.038 24.92H117.038C117.038 23.0945 116.69 21.4397 115.714 20.2489L113.394 22.1511ZM114.038 24.92V30.368H117.038V24.92H114.038ZM114.038 30.368C114.038 30.5316 114.015 30.6203 114.002 30.6574C113.992 30.6878 113.987 30.685 113.997 30.6753L116.118 32.7967C116.799 32.1165 117.038 31.2303 117.038 30.368H114.038ZM113.97 30.7029C113.988 30.6844 114.003 30.6807 113.987 30.6863C113.964 30.6946 113.89 30.716 113.738 30.716V33.716C114.593 33.716 115.479 33.4708 116.145 32.7691L113.97 30.7029ZM113.738 30.716C113.366 30.716 113.362 30.6235 113.437 30.7003C113.51 30.7735 113.414 30.7577 113.414 30.368H110.414C110.414 31.2103 110.622 32.1185 111.302 32.8077C111.986 33.5005 112.894 33.716 113.738 33.716V30.716ZM113.414 30.368V25.04H110.414V30.368H113.414ZM113.414 25.04C113.414 24.1616 113.284 23.1972 112.743 22.4537L110.317 24.2183C110.291 24.1834 110.321 24.2074 110.354 24.3558C110.387 24.5017 110.414 24.7234 110.414 25.04H113.414ZM112.786 22.5166C112.177 21.583 111.185 21.284 110.282 21.284V24.284C110.429 24.284 110.462 24.3077 110.431 24.2938C110.413 24.286 110.384 24.2699 110.351 24.2422C110.318 24.2143 110.292 24.1834 110.273 24.1554L112.786 22.5166ZM110.282 21.284C109.2 21.284 108.208 21.6856 107.502 22.567L109.845 24.441C109.908 24.3624 109.988 24.284 110.282 24.284V21.284ZM107.502 22.567C106.831 23.4067 106.598 24.4668 106.598 25.544H109.598C109.598 24.8612 109.749 24.5613 109.845 24.441L107.502 22.567ZM106.598 25.544V30.368H109.598V25.544H106.598ZM106.598 30.368C106.598 30.7625 106.501 30.7811 106.573 30.7074C106.604 30.6754 106.626 30.6723 106.6 30.6813C106.566 30.6929 106.474 30.716 106.298 30.716V33.716C107.139 33.716 108.043 33.4977 108.722 32.8006C109.394 32.1109 109.598 31.2055 109.598 30.368H106.598ZM106.298 30.716C106.147 30.716 106.066 30.6948 106.034 30.6834C106.019 30.6778 106.013 30.674 106.013 30.674C106.013 30.6738 106.013 30.6741 106.014 30.6746C106.014 30.6751 106.015 30.6755 106.014 30.6753L103.893 32.7967C104.566 33.4694 105.438 33.716 106.298 33.716V30.716ZM106.014 30.6753C106.024 30.685 106.02 30.6878 106.009 30.6574C105.996 30.6203 105.974 30.5316 105.974 30.368H102.974C102.974 31.2303 103.213 32.1165 103.893 32.7967L106.014 30.6753ZM105.974 30.368V25.04H102.974V30.368H105.974ZM105.974 25.04C105.974 24.1616 105.844 23.1972 105.303 22.4537L102.877 24.2183C102.851 24.1834 102.881 24.2074 102.914 24.3558C102.947 24.5017 102.974 24.7234 102.974 25.04H105.974ZM105.321 22.4794C104.706 21.5954 103.753 21.284 102.842 21.284V24.284C102.974 24.284 103.006 24.3057 102.979 24.2938C102.965 24.2874 102.941 24.2747 102.916 24.2536C102.89 24.2324 102.871 24.2103 102.858 24.1926L105.321 22.4794ZM102.842 21.284C101.76 21.284 100.768 21.6856 100.062 22.567L102.405 24.441C102.468 24.3624 102.548 24.284 102.842 24.284V21.284ZM100.062 22.567C99.3907 23.4067 99.1577 24.4668 99.1577 25.544H102.158C102.158 24.8612 102.309 24.5613 102.405 24.441L100.062 22.567ZM99.1577 25.544V30.368H102.158V25.544H99.1577ZM99.1577 30.368C99.1577 30.7625 99.0614 30.7811 99.1332 30.7074C99.1644 30.6754 99.1858 30.6723 99.1596 30.6813C99.1257 30.6929 99.0338 30.716 98.8577 30.716V33.716C99.6991 33.716 100.603 33.4976 101.282 32.8006C101.954 32.1109 102.158 31.2055 102.158 30.368H99.1577ZM119.97 31.76L119.299 33.1016L119.97 31.76ZM118.362 30.392L117.114 31.2241L117.122 31.2359L117.13 31.2476L118.362 30.392ZM118.458 26.408L117.329 25.4202L118.458 26.408ZM120.642 25.328L120.945 26.797L120.956 26.7947L120.967 26.7923L120.642 25.328ZM125.514 24.992V26.492H127.014V24.992H125.514ZM125.034 23.096L124.001 24.1835L124.015 24.1974L124.03 24.2109L125.034 23.096ZM121.986 22.808L122.262 24.2823L122.284 24.2782L122.306 24.2733L121.986 22.808ZM120.33 23.312L119.766 21.9219L119.753 21.9275L119.739 21.9333L120.33 23.312ZM119.202 23.36L118.45 24.6581L118.476 24.6733L118.503 24.6874L119.202 23.36ZM118.602 22.592L117.155 22.9867L117.157 22.9954L117.16 23.0041L118.602 22.592ZM118.674 21.536L117.308 20.9153L117.296 20.9415L117.286 20.9681L118.674 21.536ZM119.586 20.768L120.09 22.1806L120.106 22.1749L120.122 22.1688L119.586 20.768ZM121.698 20.168L121.95 21.6466L121.964 21.6442L121.979 21.6415L121.698 20.168ZM127.626 21.224L126.605 22.3232L126.611 22.3281L126.616 22.333L127.626 21.224ZM125.586 30.224H127.086L124.186 29.6855L125.586 30.224ZM124.362 31.712L123.554 30.448L123.546 30.4531L123.538 30.4584L124.362 31.712ZM124.818 29.144L125.879 30.2047L124.818 29.144ZM125.514 26.864H127.014V25.364H125.514V26.864ZM122.058 27.2L122.622 28.5897L122.641 28.5822L122.659 28.5742L122.058 27.2ZM121.746 29.408L120.714 30.4969L120.728 30.5101L120.742 30.5229L121.746 29.408ZM122.298 30.764C121.611 30.764 121.072 30.6338 120.641 30.4184L119.299 33.1016C120.212 33.5582 121.225 33.764 122.298 33.764V30.764ZM120.641 30.4184C120.177 30.1865 119.84 29.8913 119.594 29.5364L117.13 31.2476C117.683 32.0447 118.419 32.6615 119.299 33.1016L120.641 30.4184ZM119.61 29.5599C119.397 29.2406 119.286 28.8844 119.286 28.448H116.286C116.286 29.4516 116.559 30.3914 117.114 31.2241L119.61 29.5599ZM119.286 28.448C119.286 27.8705 119.433 27.5717 119.587 27.3958L117.329 25.4202C116.587 26.2683 116.286 27.3295 116.286 28.448H119.286ZM119.587 27.3958C119.734 27.2275 120.102 26.9711 120.945 26.797L120.339 23.8589C119.166 24.1009 118.078 24.5645 117.329 25.4202L119.587 27.3958ZM120.967 26.7923C121.824 26.6019 123.038 26.492 124.65 26.492V23.492C122.934 23.492 121.476 23.6061 120.316 23.8637L120.967 26.7923ZM124.65 26.492H125.514V23.492H124.65V26.492ZM127.014 24.992V24.584H124.014V24.992H127.014ZM127.014 24.584C127.014 23.7166 126.826 22.6911 126.037 21.9811L124.03 24.2109C123.956 24.1442 123.95 24.0953 123.966 24.1445C123.985 24.2019 124.014 24.3373 124.014 24.584H127.014ZM126.067 22.0085C125.323 21.3021 124.292 21.14 123.402 21.14V24.14C123.695 24.14 123.879 24.1699 123.982 24.1987C124.083 24.2267 124.061 24.2408 124.001 24.1835L126.067 22.0085ZM123.402 21.14C122.842 21.14 122.261 21.2123 121.665 21.3426L122.306 24.2733C122.735 24.1797 123.098 24.14 123.402 24.14V21.14ZM121.709 21.3337C121.08 21.4517 120.431 21.6524 119.766 21.9219L120.893 24.7021C121.413 24.4916 121.868 24.3563 122.262 24.2823L121.709 21.3337ZM119.739 21.9333C119.635 21.9778 119.61 21.971 119.648 21.9694C119.669 21.9684 119.706 21.9694 119.754 21.9795C119.803 21.9898 119.853 22.0075 119.9 22.0326L118.503 24.6874C119.355 25.1355 120.239 24.9829 120.921 24.6907L119.739 21.9333ZM119.953 22.0619C119.952 22.0613 119.959 22.0649 119.97 22.0741C119.981 22.0835 119.993 22.0964 120.006 22.1125C120.019 22.1287 120.028 22.1445 120.035 22.1582C120.038 22.1648 120.041 22.1701 120.042 22.174C120.044 22.1779 120.044 22.1799 120.044 22.1799L117.16 23.0041C117.363 23.7159 117.812 24.2886 118.45 24.6581L119.953 22.0619ZM120.049 22.1973C120.044 22.1774 120.044 22.1692 120.044 22.166C120.045 22.1621 120.046 22.143 120.062 22.1039L117.286 20.9681C117.022 21.6118 116.968 22.3019 117.155 22.9867L120.049 22.1973ZM120.039 22.1567C120.033 22.1702 120.024 22.1854 120.013 22.2C120.002 22.2145 119.993 22.2235 119.988 22.2274C119.979 22.2348 120.003 22.212 120.09 22.1806L119.081 19.3554C118.345 19.6184 117.674 20.1117 117.308 20.9153L120.039 22.1567ZM120.122 22.1688C120.801 21.9089 121.409 21.739 121.95 21.6466L121.445 18.6894C120.675 18.821 119.875 19.0511 119.049 19.3672L120.122 22.1688ZM121.979 21.6415C122.578 21.5274 123.098 21.476 123.546 21.476V18.476C122.874 18.476 122.162 18.5526 121.417 18.6945L121.979 21.6415ZM123.546 21.476C125.174 21.476 126.096 21.8507 126.605 22.3232L128.647 20.1248C127.363 18.9333 125.566 18.476 123.546 18.476V21.476ZM126.616 22.333C127.086 22.7609 127.47 23.5502 127.47 25.04H130.47C130.47 23.0738 129.958 21.3191 128.636 20.115L126.616 22.333ZM127.47 25.04V30.368H130.47V25.04H127.47ZM127.47 30.368C127.47 30.7863 127.372 30.82 127.44 30.745C127.475 30.7067 127.509 30.6921 127.508 30.6922C127.5 30.6954 127.436 30.716 127.29 30.716V33.716C128.12 33.716 129.007 33.4812 129.66 32.763C130.288 32.072 130.47 31.1817 130.47 30.368H127.47ZM127.29 30.716C127.137 30.716 127.068 30.6949 127.054 30.6898C127.049 30.6879 127.08 30.7001 127.115 30.7372C127.184 30.8122 127.086 30.7816 127.086 30.368H124.086C124.086 31.1864 124.272 32.0798 124.909 32.7708C125.567 33.4848 126.458 33.716 127.29 33.716V30.716ZM127.086 30.368V30.224H124.086V30.368H127.086ZM124.186 29.6855C124.064 30.0035 123.867 30.2482 123.554 30.448L125.169 32.976C126.009 32.4398 126.628 31.6925 126.986 30.7625L124.186 29.6855ZM123.538 30.4584C123.271 30.6337 122.885 30.764 122.298 30.764V33.764C123.342 33.764 124.332 33.5263 125.186 32.9656L123.538 30.4584ZM123.114 31.34C124.173 31.34 125.126 30.9575 125.879 30.2047L123.757 28.0833C123.582 28.2585 123.399 28.34 123.114 28.34V31.34ZM125.879 30.2047C126.659 29.4241 127.014 28.425 127.014 27.344H124.014C124.014 27.735 123.905 27.9359 123.757 28.0833L125.879 30.2047ZM127.014 27.344V26.864H124.014V27.344H127.014ZM125.514 25.364H124.674V28.364H125.514V25.364ZM124.674 25.364C123.425 25.364 122.277 25.4667 121.457 25.8258L122.659 28.5742C122.862 28.4853 123.459 28.364 124.674 28.364V25.364ZM121.493 25.8103C121.031 25.9981 120.579 26.3027 120.251 26.7754C119.918 27.2531 119.79 27.7896 119.79 28.304H122.79C122.79 28.2932 122.791 28.3116 122.78 28.3501C122.769 28.3905 122.747 28.4398 122.713 28.4886C122.64 28.5933 122.573 28.6099 122.622 28.5897L121.493 25.8103ZM119.79 28.304C119.79 29.1318 120.089 29.9043 120.714 30.4969L122.777 28.3191C122.772 28.3142 122.774 28.3147 122.778 28.3208C122.78 28.3237 122.782 28.3273 122.785 28.3314C122.787 28.3356 122.789 28.3396 122.79 28.3434C122.794 28.3513 122.794 28.3545 122.793 28.3503C122.792 28.3457 122.79 28.3311 122.79 28.304H119.79ZM120.742 30.5229C121.427 31.1387 122.291 31.34 123.114 31.34V28.34C122.753 28.34 122.705 28.2533 122.749 28.2931L120.742 30.5229ZM135.249 21.92H133.749V27.6017L136.554 22.6604L135.249 21.92ZM136.737 20.504L137.446 21.8257V21.8257L136.737 20.504ZM141.633 20.72L140.819 21.9801L140.831 21.9876L141.633 20.72ZM143.457 22.832L144.813 22.1899L143.457 22.832ZM143.457 29.384L144.813 30.0261L144.817 30.017L143.457 29.384ZM141.633 31.52L142.447 32.7801L142.453 32.7759L141.633 31.52ZM136.785 31.76L136.088 33.0881L136.095 33.0916L136.101 33.0951L136.785 31.76ZM135.297 30.416L136.567 29.6177L133.797 25.211V30.416H135.297ZM139.737 28.712L138.598 27.7358L139.737 28.712ZM139.737 23.528L138.598 24.5042L138.605 24.5124L138.612 24.5204L139.737 23.528ZM135.969 23.528L137.094 24.5204L137.101 24.5124L137.108 24.5042L135.969 23.528ZM135.969 28.712L137.108 27.7358L135.969 28.712ZM133.497 35.036C133.125 35.036 133.121 34.9435 133.197 35.0203C133.269 35.0935 133.173 35.0777 133.173 34.688H130.173C130.173 35.5303 130.381 36.4385 131.062 37.1277C131.745 37.8205 132.653 38.036 133.497 38.036V35.036ZM133.173 34.688V21.848H130.173V34.688H133.173ZM133.173 21.848C133.173 21.4613 133.268 21.4487 133.192 21.5264C133.159 21.5604 133.135 21.5651 133.158 21.5571C133.189 21.5466 133.277 21.524 133.449 21.524V18.524C132.616 18.524 131.717 18.7404 131.043 19.4336C130.375 20.1193 130.173 21.0187 130.173 21.848H133.173ZM133.449 21.524C133.627 21.524 133.721 21.547 133.757 21.5591C133.785 21.5687 133.764 21.5663 133.732 21.5336C133.655 21.4564 133.749 21.4663 133.749 21.848H136.749C136.749 21.0137 136.543 20.1116 135.867 19.4264C135.187 18.7376 134.286 18.524 133.449 18.524V21.524ZM133.749 21.848V21.92H136.749V21.848H133.749ZM136.554 22.6604C136.737 22.3373 137.016 22.057 137.446 21.8257L136.028 19.1823C135.147 19.655 134.433 20.3187 133.945 21.1796L136.554 22.6604ZM137.446 21.8257C137.864 21.6017 138.352 21.476 138.945 21.476V18.476C137.906 18.476 136.923 18.7023 136.028 19.1823L137.446 21.8257ZM138.945 21.476C139.716 21.476 140.322 21.659 140.819 21.9801L142.447 19.4599C141.408 18.789 140.222 18.476 138.945 18.476V21.476ZM140.831 21.9876C141.354 22.3185 141.78 22.7954 142.102 23.4741L144.813 22.1899C144.27 21.0446 143.48 20.1135 142.435 19.4524L140.831 21.9876ZM142.102 23.4741C142.418 24.1413 142.605 24.9995 142.605 26.096H145.605C145.605 24.6645 145.361 23.3467 144.813 22.1899L142.102 23.4741ZM142.605 26.096C142.605 27.1914 142.418 28.0621 142.097 28.751L144.817 30.017C145.36 28.8499 145.605 27.5286 145.605 26.096H142.605ZM142.102 28.7419C141.779 29.424 141.347 29.9152 140.813 30.2641L142.453 32.7759C143.487 32.1008 144.272 31.168 144.813 30.0261L142.102 28.7419ZM140.819 30.2599C140.322 30.581 139.716 30.764 138.945 30.764V33.764C140.222 33.764 141.408 33.451 142.447 32.7801L140.819 30.2599ZM138.945 30.764C138.383 30.764 137.9 30.6457 137.469 30.4249L136.101 33.0951C136.983 33.5463 137.939 33.764 138.945 33.764V30.764ZM137.482 30.4319C137.054 30.2072 136.766 29.9332 136.567 29.6177L134.027 31.2143C134.533 32.0188 135.236 32.6408 136.088 33.0881L137.482 30.4319ZM133.797 30.416V34.688H136.797V30.416H133.797ZM133.797 34.688C133.797 35.0825 133.701 35.1011 133.773 35.0274C133.804 34.9954 133.825 34.9923 133.799 35.0013C133.765 35.0129 133.673 35.036 133.497 35.036V38.036C134.339 38.036 135.243 37.8176 135.922 37.1206C136.594 36.4309 136.797 35.5255 136.797 34.688H133.797ZM137.865 31.052C139.05 31.052 140.098 30.596 140.876 29.6882L138.598 27.7358C138.417 27.948 138.216 28.052 137.865 28.052V31.052ZM140.876 29.6882C141.694 28.7338 141.957 27.4343 141.957 26.096H138.957C138.957 27.1257 138.74 27.5702 138.598 27.7358L140.876 29.6882ZM141.957 26.096C141.957 24.7727 141.694 23.4783 140.862 22.5356L138.612 24.5204C138.741 24.6657 138.957 25.0833 138.957 26.096H141.957ZM140.876 22.5518C140.098 21.644 139.05 21.188 137.865 21.188V24.188C138.216 24.188 138.417 24.292 138.598 24.5042L140.876 22.5518ZM137.865 21.188C136.675 21.188 135.615 21.6362 134.83 22.5518L137.108 24.5042C137.283 24.2998 137.488 24.188 137.865 24.188V21.188ZM134.844 22.5356C134.013 23.4783 133.749 24.7727 133.749 26.096H136.749C136.749 25.0833 136.966 24.6657 137.094 24.5204L134.844 22.5356ZM133.749 26.096C133.749 27.4343 134.012 28.7338 134.83 29.6882L137.108 27.7358C136.966 27.5702 136.749 27.1257 136.749 26.096H133.749ZM134.83 29.6882C135.615 30.6038 136.675 31.052 137.865 31.052V28.052C137.488 28.052 137.283 27.9402 137.108 27.7358L134.83 29.6882Z" fill="#5B3511"/>
</g>
<defs>
<filter id="filter0_d_12_77" x="0" y="7" width="183" height="53" filterUnits="userSpaceOnUse" color-interpolation-filters="sRGB">
<feFlood flood-opacity="0" result="BackgroundImageFix"/>
<feColorMatrix in="SourceAlpha" type="matrix" values="0 0 0 0 0 0 0 0 0 0 0 0 0 0 0 0 0 0 127 0" result="hardAlpha"/>
<feOffset dy="3"/>
<feGaussianBlur stdDeviation="1"/>
<feComposite in2="hardAlpha" operator="out"/>
<feColorMatrix type="matrix" values="0 0 0 0 0 0 0 0 0 0 0 0 0 0 0 0 0 0 0.25 0"/>
<feBlend mode="normal" in2="BackgroundImageFix" result="effect1_dropShadow_12_77"/>
<feBlend mode="normal" in="SourceGraphic" in2="effect1_dropShadow_12_77" result="shape"/>
</filter>
<filter id="filter1_d_12_77" x="2" y="8" width="179" height="46" filterUnits="userSpaceOnUse" color-interpolation-filters="sRGB">
<feFlood flood-opacity="0" result="BackgroundImageFix"/>
<feColorMatrix in="SourceAlpha" type="matrix" values="0 0 0 0 0 0 0 0 0 0 0 0 0 0 0 0 0 0 127 0" result="hardAlpha"/>
<feOffset dy="2"/>
<feGaussianBlur stdDeviation="1"/>
<feComposite in2="hardAlpha" operator="out"/>
<feColorMatrix type="matrix" values="0 0 0 0 0 0 0 0 0 0 0 0 0 0 0 0 0 0 0.25 0"/>
<feBlend mode="normal" in2="BackgroundImageFix" result="effect1_dropShadow_12_77"/>
<feBlend mode="normal" in="SourceGraphic" in2="effect1_dropShadow_12_77" result="shape"/>
</filter>
<filter id="filter2_dif_12_77" x="4" y="6" width="175" height="43" filterUnits="userSpaceOnUse" color-interpolation-filters="sRGB">
<feFlood flood-opacity="0" result="BackgroundImageFix"/>
<feColorMatrix in="SourceAlpha" type="matrix" values="0 0 0 0 0 0 0 0 0 0 0 0 0 0 0 0 0 0 127 0" result="hardAlpha"/>
<feOffset dy="2"/>
<feGaussianBlur stdDeviation="2"/>
<feComposite in2="hardAlpha" operator="out"/>
<feColorMatrix type="matrix" values="0 0 0 0 0.258529 0 0 0 0 0.140245 0 0 0 0 0.0293538 0 0 0 1 0"/>
<feBlend mode="normal" in2="BackgroundImageFix" result="effect1_dropShadow_12_77"/>
<feBlend mode="normal" in="SourceGraphic" in2="effect1_dropShadow_12_77" result="shape"/>
<feColorMatrix in="SourceAlpha" type="matrix" values="0 0 0 0 0 0 0 0 0 0 0 0 0 0 0 0 0 0 127 0" result="hardAlpha"/>
<feMorphology radius="1" operator="erode" in="SourceAlpha" result="effect2_innerShadow_12_77"/>
<feOffset dy="-1"/>
<feGaussianBlur stdDeviation="0.5"/>
<feComposite in2="hardAlpha" operator="arithmetic" k2="-1" k3="1"/>
<feColorMatrix type="matrix" values="0 0 0 0 1 0 0 0 0 0.689948 0 0 0 0 0.325975 0 0 0 0.25 0"/>
<feBlend mode="normal" in2="shape" result="effect2_innerShadow_12_77"/>
<feGaussianBlur stdDeviation="0.5" result="effect3_foregroundBlur_12_77"/>
</filter>
<filter id="filter3_d_12_77" x="37.7743" y="14.864" width="107.331" height="23.672" filterUnits="userSpaceOnUse" color-interpolation-filters="sRGB">
<feFlood flood-opacity="0" result="BackgroundImageFix"/>
<feColorMatrix in="SourceAlpha" type="matrix" values="0 0 0 0 0 0 0 0 0 0 0 0 0 0 0 0 0 0 127 0" result="hardAlpha"/>
<feOffset dy="1"/>
<feGaussianBlur stdDeviation="0.5"/>
<feComposite in2="hardAlpha" operator="out"/>
<feColorMatrix type="matrix" values="0 0 0 0 0 0 0 0 0 0 0 0 0 0 0 0 0 0 0.25 0"/>
<feBlend mode="normal" in2="BackgroundImageFix" result="effect1_dropShadow_12_77"/>
<feBlend mode="normal" in="SourceGraphic" in2="effect1_dropShadow_12_77" result="shape"/>
</filter>
<radialGradient id="paint0_radial_12_77" cx="0" cy="0" r="1" gradientUnits="userSpaceOnUse" gradientTransform="translate(91.5 9.05) rotate(90) scale(40.95 170.625)">
<stop stop-color="#5B3511"/>
<stop offset="0.528052" stop-color="#DD7F28"/>
<stop offset="0.977884" stop-color="#5B3511"/>
</radialGradient>
<linearGradient id="paint1_linear_12_77" x1="91" y1="8" x2="91" y2="41" gradientUnits="userSpaceOnUse">
<stop stop-color="#FDE092"/>
<stop offset="1" stop-color="#C18B2C"/>
</linearGradient>
</defs>
</svg>
