<svg width="284" height="83" viewBox="0 0 284 83" fill="none" xmlns="http://www.w3.org/2000/svg">
<g filter="url(#filter0_d_38_2059)">
<rect x="2" y="7" width="280" height="68" rx="22" fill="#41260C"/>
</g>
<g filter="url(#filter1_d_38_2059)">
<rect x="4" y="8" width="276" height="62" rx="20" fill="url(#paint0_radial_38_2059)"/>
</g>
<g filter="url(#filter2_dif_38_2059)">
<rect x="8" y="8" width="268" height="55" rx="16" fill="#DD7F28"/>
</g>
<g style="mix-blend-mode:lighten" opacity="0.15">
<path d="M267.308 31.7233C262.964 42.9711 208.879 41.9776 139.891 41.9776C70.9021 41.9776 22.8794 42.381 16.3621 31.1332C13.9922 27.0432 12.1247 16.7524 34.2937 13.6153C56.955 10.4086 106.014 10.2786 140.887 10.2786C175.76 10.2786 223.533 8.9366 246.195 12.1434C268.364 15.2805 269.283 26.6107 267.308 31.7233Z" fill="#E0F4FF"/>
</g>
<g filter="url(#filter3_d_38_2059)">
<path d="M43.1833 50.432C41.9673 50.432 41.0393 50.096 40.3993 49.424C39.7593 48.752 39.4393 47.808 39.4393 46.592V19.952C39.4393 17.424 40.7033 16.16 43.2313 16.16H54.8953C58.6713 16.16 61.5833 17.12 63.6313 19.04C65.6793 20.928 66.7033 23.568 66.7033 26.96C66.7033 30.352 65.6793 33.008 63.6313 34.928C61.5833 36.848 58.6713 37.808 54.8953 37.808H46.8793V46.592C46.8793 47.808 46.5593 48.752 45.9193 49.424C45.3113 50.096 44.3993 50.432 43.1833 50.432ZM46.8793 32.048H53.6473C57.5833 32.048 59.5513 30.352 59.5513 26.96C59.5513 23.632 57.5833 21.968 53.6473 21.968H46.8793V32.048ZM79.1863 50.528C73.5223 50.528 70.6903 47.376 70.6903 41.072V19.424C70.6903 16.96 71.9063 15.728 74.3383 15.728C76.7383 15.728 77.9383 16.96 77.9383 19.424V40.784C77.9383 42.096 78.2103 43.072 78.7543 43.712C79.3303 44.32 80.0823 44.624 81.0103 44.624C81.2663 44.624 81.5063 44.608 81.7303 44.576C81.9863 44.544 82.2263 44.528 82.4503 44.528C82.9623 44.496 83.3143 44.656 83.5063 45.008C83.7303 45.36 83.8423 46.08 83.8423 47.168C83.8423 49.024 83.0583 50.08 81.4903 50.336C81.1703 50.368 80.8023 50.4 80.3863 50.432C79.9703 50.496 79.5703 50.528 79.1863 50.528ZM94.6426 50.528C92.8826 50.528 91.3306 50.192 89.9866 49.52C88.6426 48.848 87.5706 47.936 86.7706 46.784C86.0026 45.632 85.6186 44.336 85.6186 42.896C85.6186 41.2 86.0666 39.84 86.9626 38.816C87.8586 37.792 89.3146 37.072 91.3306 36.656C93.3466 36.208 96.0186 35.984 99.3466 35.984H101.075V35.168C101.075 33.76 100.755 32.768 100.115 32.192C99.4746 31.584 98.3866 31.28 96.8506 31.28C95.9866 31.28 95.0426 31.392 94.0186 31.616C92.9946 31.808 91.8906 32.144 90.7066 32.624C89.8106 33.008 89.0586 33.04 88.4506 32.72C87.8426 32.368 87.4426 31.856 87.2506 31.184C87.0586 30.48 87.1066 29.776 87.3946 29.072C87.7146 28.368 88.3226 27.856 89.2186 27.536C90.7226 26.96 92.1306 26.56 93.4426 26.336C94.7866 26.08 96.0186 25.952 97.1386 25.952C100.787 25.952 103.507 26.784 105.299 28.448C107.091 30.08 107.987 32.624 107.987 36.08V46.736C107.987 49.2 106.867 50.432 104.627 50.432C102.355 50.432 101.219 49.2 101.219 46.736V46.448C100.739 47.696 99.9226 48.688 98.7706 49.424C97.6506 50.16 96.2746 50.528 94.6426 50.528ZM96.2746 45.68C97.6186 45.68 98.7546 45.216 99.6826 44.288C100.611 43.36 101.075 42.16 101.075 40.688V39.728H99.3946C96.9306 39.728 95.1866 39.952 94.1626 40.4C93.1386 40.816 92.6266 41.552 92.6266 42.608C92.6266 43.504 92.9306 44.24 93.5386 44.816C94.1786 45.392 95.0906 45.68 96.2746 45.68ZM119.591 59.072C118.311 59.072 117.399 58.592 116.855 57.632C116.343 56.704 116.375 55.616 116.951 54.368L119.495 48.704L111.671 30.752C111.159 29.504 111.159 28.416 111.671 27.488C112.215 26.528 113.287 26.048 114.887 26.048C115.751 26.048 116.439 26.256 116.951 26.672C117.495 27.056 117.991 27.808 118.439 28.928L123.335 41.408L128.423 28.88C128.871 27.792 129.367 27.056 129.911 26.672C130.487 26.256 131.255 26.048 132.215 26.048C133.431 26.048 134.279 26.528 134.759 27.488C135.271 28.416 135.255 29.488 134.711 30.704L123.431 56.288C122.951 57.376 122.407 58.112 121.799 58.496C121.223 58.88 120.487 59.072 119.591 59.072ZM155.807 50.432C153.375 50.432 152.159 49.2 152.159 46.736V29.696C152.159 27.264 153.343 26.048 155.711 26.048C158.079 26.048 159.263 27.264 159.263 29.696V29.888C160.063 28.608 161.135 27.632 162.479 26.96C163.823 26.288 165.327 25.952 166.991 25.952C169.775 25.952 171.855 26.768 173.231 28.4C174.607 30 175.295 32.48 175.295 35.84V46.736C175.295 49.2 174.079 50.432 171.647 50.432C170.495 50.432 169.599 50.112 168.959 49.472C168.351 48.832 168.047 47.92 168.047 46.736V36.176C168.047 34.544 167.743 33.376 167.135 32.672C166.527 31.936 165.631 31.568 164.447 31.568C162.911 31.568 161.679 32.048 160.751 33.008C159.855 33.968 159.407 35.248 159.407 36.848V46.736C159.407 49.2 158.207 50.432 155.807 50.432ZM192.034 50.528C189.506 50.528 187.298 50.032 185.41 49.04C183.554 48.016 182.114 46.592 181.09 44.768C180.066 42.912 179.554 40.72 179.554 38.192C179.554 35.696 180.066 33.536 181.09 31.712C182.114 29.856 183.554 28.432 185.41 27.44C187.298 26.448 189.506 25.952 192.034 25.952C194.562 25.952 196.754 26.448 198.61 27.44C200.498 28.432 201.954 29.856 202.978 31.712C204.034 33.536 204.562 35.696 204.562 38.192C204.562 40.72 204.034 42.912 202.978 44.768C201.954 46.592 200.498 48.016 198.61 49.04C196.754 50.032 194.562 50.528 192.034 50.528ZM192.034 45.104C193.57 45.104 194.818 44.544 195.778 43.424C196.77 42.304 197.266 40.56 197.266 38.192C197.266 35.856 196.77 34.144 195.778 33.056C194.818 31.936 193.57 31.376 192.034 31.376C190.498 31.376 189.25 31.936 188.29 33.056C187.33 34.144 186.85 35.856 186.85 38.192C186.85 40.56 187.33 42.304 188.29 43.424C189.25 44.544 190.498 45.104 192.034 45.104ZM218.105 50.432C216.153 50.432 214.793 49.456 214.025 47.504L207.257 30.752C206.745 29.44 206.745 28.336 207.257 27.44C207.801 26.512 208.809 26.048 210.281 26.048C211.113 26.048 211.785 26.256 212.297 26.672C212.841 27.056 213.321 27.808 213.737 28.928L218.441 41.552L223.385 28.304C223.929 26.8 224.953 26.048 226.457 26.048C227.961 26.048 229.001 26.8 229.577 28.304L234.473 41.744L239.273 28.736C239.657 27.712 240.137 27.008 240.713 26.624C241.321 26.24 241.993 26.048 242.729 26.048C244.105 26.048 245.001 26.528 245.417 27.488C245.833 28.448 245.785 29.536 245.273 30.752L238.553 47.504C237.785 49.456 236.425 50.432 234.473 50.432C232.521 50.432 231.161 49.456 230.393 47.504L226.217 36.608L222.137 47.456C221.401 49.44 220.057 50.432 218.105 50.432Z" fill="url(#paint1_linear_38_2059)"/>
<path d="M40.3993 49.424L42.5717 47.355L40.3993 49.424ZM63.6313 19.04L61.5794 21.2286L61.5886 21.2372L61.5978 21.2457L63.6313 19.04ZM46.8793 37.808V34.808H43.8793V37.808H46.8793ZM45.9193 49.424L43.7468 47.355L43.7204 47.3828L43.6946 47.4113L45.9193 49.424ZM46.8793 32.048H43.8793V35.048H46.8793V32.048ZM46.8793 21.968V18.968H43.8793V21.968H46.8793ZM43.1833 47.432C42.8456 47.432 42.6671 47.3847 42.5966 47.3592C42.5409 47.339 42.5511 47.3335 42.5717 47.355L38.2268 51.493C39.594 52.9285 41.4131 53.432 43.1833 53.432V47.432ZM42.5717 47.355C42.569 47.3522 42.5649 47.3477 42.5585 47.3368C42.5517 47.3253 42.5373 47.2985 42.5204 47.2489C42.4858 47.1467 42.4392 46.9419 42.4392 46.592H36.4393C36.4393 48.3317 36.9069 50.107 38.2268 51.493L42.5717 47.355ZM42.4392 46.592V19.952H36.4393V46.592H42.4392ZM42.4392 19.952C42.4392 19.1504 42.6376 19.1003 42.5086 19.2293C42.3795 19.3584 42.4297 19.16 43.2313 19.16V13.16C41.5048 13.16 39.659 13.5936 38.2659 14.9867C36.8729 16.3797 36.4393 18.2256 36.4393 19.952H42.4392ZM43.2313 19.16H54.8953V13.16H43.2313V19.16ZM54.8953 19.16C58.1773 19.16 60.2564 19.9882 61.5794 21.2286L65.6831 16.8514C62.9101 14.2518 59.1652 13.16 54.8953 13.16V19.16ZM61.5978 21.2457C62.8985 22.4447 63.7033 24.209 63.7033 26.96H69.7033C69.7033 22.927 68.46 19.4112 65.6647 16.8343L61.5978 21.2457ZM63.7033 26.96C63.7033 29.7092 62.8987 31.5025 61.5794 32.7394L65.6831 37.1166C68.4598 34.5135 69.7033 30.9948 69.7033 26.96H63.7033ZM61.5794 32.7394C60.2564 33.9798 58.1773 34.808 54.8953 34.808V40.808C59.1652 40.808 62.9101 39.7162 65.6831 37.1166L61.5794 32.7394ZM54.8953 34.808H46.8793V40.808H54.8953V34.808ZM43.8793 37.808V46.592H49.8793V37.808H43.8793ZM43.8793 46.592C43.8793 46.9419 43.8327 47.1467 43.7981 47.2489C43.7812 47.2985 43.7668 47.3253 43.76 47.3368C43.7536 47.3477 43.7495 47.3522 43.7468 47.355L48.0917 51.493C49.4116 50.107 49.8793 48.3317 49.8793 46.592H43.8793ZM43.6946 47.4113C43.7392 47.362 43.7771 47.3521 43.7421 47.365C43.6898 47.3842 43.5227 47.432 43.1833 47.432V53.432C44.9435 53.432 46.7912 52.9318 48.1439 51.4367L43.6946 47.4113ZM46.8793 35.048H53.6473V29.048H46.8793V35.048ZM53.6473 35.048C55.9774 35.048 58.285 34.5555 60.0337 33.0485C61.8677 31.468 62.5513 29.2445 62.5513 26.96H56.5513C56.5513 28.0675 56.2508 28.388 56.1168 28.5035C55.8975 28.6925 55.2531 29.048 53.6473 29.048V35.048ZM62.5513 26.96C62.5513 24.6894 61.8561 22.4842 60.0122 20.9251C58.2648 19.4476 55.9663 18.968 53.6473 18.968V24.968C55.2642 24.968 55.9177 25.3204 56.1383 25.5069C56.2624 25.6118 56.5513 25.9026 56.5513 26.96H62.5513ZM53.6473 18.968H46.8793V24.968H53.6473V18.968ZM43.8793 21.968V32.048H49.8793V21.968H43.8793ZM78.7542 43.712L76.4684 45.6549L76.5208 45.7165L76.5764 45.7752L78.7542 43.712ZM81.7303 44.576L81.3581 41.5992L81.332 41.6024L81.306 41.6062L81.7303 44.576ZM82.4502 44.528V47.528H82.5439L82.6374 47.5222L82.4502 44.528ZM83.5063 45.008L80.8726 46.4446L80.921 46.5333L80.9753 46.6186L83.5063 45.008ZM81.4902 50.336L81.7888 53.3211L81.8816 53.3118L81.9736 53.2968L81.4902 50.336ZM80.3862 50.432L80.1562 47.4408L80.0426 47.4496L79.9301 47.4669L80.3862 50.432ZM79.1862 47.528C76.9046 47.528 75.7187 46.9079 75.0458 46.159C74.3181 45.349 73.6903 43.8361 73.6903 41.072H67.6903C67.6903 44.6119 68.4784 47.827 70.5827 50.169C72.7418 52.5721 75.8039 53.528 79.1862 53.528V47.528ZM73.6903 41.072V19.424H67.6903V41.072H73.6903ZM73.6903 19.424C73.6903 18.6446 73.8818 18.6131 73.7374 18.7594C73.5858 18.913 73.5947 18.728 74.3382 18.728V12.728C72.6498 12.728 70.8347 13.159 69.4671 14.5446C68.1067 15.9229 67.6903 17.7394 67.6903 19.424H73.6903ZM74.3382 18.728C74.6903 18.728 74.8741 18.7742 74.9419 18.7974C74.9943 18.8153 74.9515 18.8092 74.8892 18.7452C74.7456 18.5978 74.9383 18.6349 74.9383 19.424H80.9383C80.9383 17.7491 80.5309 15.9382 79.1873 14.5588C77.8294 13.1647 76.021 12.728 74.3382 12.728V18.728ZM74.9383 19.424V40.784H80.9383V19.424H74.9383ZM74.9383 40.784C74.9383 42.4279 75.2659 44.2402 76.4684 45.6549L81.0401 41.7691C81.1013 41.8411 81.0751 41.849 81.0321 41.6946C80.987 41.5328 80.9383 41.2433 80.9383 40.784H74.9383ZM76.5764 45.7752C77.7832 47.0491 79.3569 47.624 81.0103 47.624V41.624C80.942 41.624 80.9007 41.6184 80.8814 41.6149C80.8629 41.6116 80.8626 41.6098 80.8746 41.6147C80.8871 41.6197 80.9028 41.6278 80.9176 41.638C80.9321 41.648 80.9369 41.6538 80.9321 41.6488L76.5764 45.7752ZM81.0103 47.624C81.3901 47.624 81.7731 47.6003 82.1545 47.5458L81.306 41.6062C81.2394 41.6157 81.1424 41.624 81.0103 41.624V47.624ZM82.1024 47.5528C82.253 47.534 82.3676 47.528 82.4502 47.528V41.528C82.0849 41.528 81.7195 41.554 81.3581 41.5992L82.1024 47.5528ZM82.6374 47.5222C82.557 47.5272 82.2505 47.534 81.8568 47.3551C81.4176 47.1554 81.0757 46.8169 80.8726 46.4446L86.1399 43.5714C85.7448 42.8471 85.1309 42.2526 84.3397 41.8929C83.594 41.554 82.8555 41.4968 82.2631 41.5338L82.6374 47.5222ZM80.9753 46.6186C80.8507 46.4229 80.8021 46.2749 80.7906 46.2383C80.777 46.195 80.7825 46.2 80.7939 46.2731C80.8177 46.4259 80.8423 46.711 80.8423 47.168H86.8423C86.8423 46.537 86.8108 45.9181 86.7226 45.3509C86.6435 44.8422 86.4791 44.0917 86.0372 43.3974L80.9753 46.6186ZM80.8423 47.168C80.8423 47.4267 80.8143 47.571 80.7984 47.6301C80.7842 47.683 80.7865 47.6431 80.8455 47.5637C80.8739 47.5254 80.9092 47.4866 80.9499 47.4511C80.9905 47.4156 81.0284 47.3905 81.0578 47.3741C81.1167 47.3412 81.1159 47.3574 81.0069 47.3752L81.9736 53.2968C83.3572 53.0709 84.7125 52.4206 85.663 51.1403C86.5683 49.9209 86.8423 48.4827 86.8423 47.168H80.8423ZM81.1917 47.3509C80.9 47.3801 80.5556 47.4101 80.1562 47.4408L80.6163 53.4232C81.0489 53.3899 81.4405 53.3559 81.7888 53.3211L81.1917 47.3509ZM79.9301 47.4669C79.6508 47.5098 79.4038 47.528 79.1862 47.528V53.528C79.7367 53.528 80.2897 53.4822 80.8424 53.3971L79.9301 47.4669ZM89.9866 49.52L88.645 52.2033L89.9866 49.52ZM86.7706 46.784L84.2745 48.4481L84.2903 48.4718L84.3065 48.4952L86.7706 46.784ZM86.9626 38.816L84.7049 36.8405L86.9626 38.816ZM91.3306 36.656L91.9369 39.5941L91.9592 39.5895L91.9814 39.5846L91.3306 36.656ZM101.075 35.984V38.984H104.075V35.984H101.075ZM100.115 32.192L98.0484 34.367L98.0777 34.3948L98.1077 34.4219L100.115 32.192ZM94.0186 31.616L94.5715 34.5646L94.6157 34.5563L94.6597 34.5467L94.0186 31.616ZM90.7066 32.624L89.5795 29.8438L89.5521 29.8549L89.5249 29.8666L90.7066 32.624ZM88.4506 32.72L86.9475 35.3163L86.9999 35.3466L87.0534 35.3748L88.4506 32.72ZM87.2506 31.184L84.3563 31.9734L84.3611 31.9908L84.3661 32.0082L87.2506 31.184ZM87.3946 29.072L84.6635 27.8306L84.6397 27.8829L84.618 27.9361L87.3946 29.072ZM89.2186 27.536L90.2276 30.3612L90.2597 30.3498L90.2916 30.3376L89.2186 27.536ZM93.4426 26.336L93.9475 29.2932L93.9758 29.2884L94.004 29.283L93.4426 26.336ZM105.299 28.448L103.257 30.6464L103.268 30.6563L103.279 30.666L105.299 28.448ZM101.219 46.448H104.219L98.4186 45.3711L101.219 46.448ZM98.7706 49.424L97.1555 46.8959L97.1392 46.9063L97.1231 46.9169L98.7706 49.424ZM99.6826 44.288L101.804 46.4093L99.6826 44.288ZM101.075 39.728H104.075V36.728H101.075V39.728ZM94.1626 40.4L95.2918 43.1794L95.3286 43.1644L95.3651 43.1485L94.1626 40.4ZM93.5386 44.816L91.4754 46.9939L91.5032 47.0202L91.5317 47.0459L93.5386 44.816ZM94.6426 47.528C93.2688 47.528 92.19 47.2676 91.3283 46.8367L88.645 52.2033C90.4713 53.1164 92.4964 53.528 94.6426 53.528V47.528ZM91.3283 46.8367C90.4009 46.373 89.7276 45.7825 89.2347 45.0728L84.3065 48.4952C85.4137 50.0895 86.8843 51.323 88.645 52.2033L91.3283 46.8367ZM89.2668 45.1199C88.841 44.4812 88.6186 43.7688 88.6186 42.896H82.6186C82.6186 44.9032 83.1643 46.7828 84.2745 48.4481L89.2668 45.1199ZM88.6186 42.896C88.6186 41.741 88.9124 41.1435 89.2204 40.7915L84.7049 36.8405C83.2208 38.5365 82.6186 40.659 82.6186 42.896H88.6186ZM89.2204 40.7915C89.5148 40.455 90.25 39.9422 91.9369 39.5941L90.7243 33.7179C88.3793 34.2018 86.2025 35.129 84.7049 36.8405L89.2204 40.7915ZM91.9814 39.5846C93.6946 39.2038 96.122 38.984 99.3466 38.984V32.984C95.9152 32.984 92.9986 33.2122 90.6798 33.7274L91.9814 39.5846ZM99.3466 38.984H101.075V32.984H99.3466V38.984ZM104.075 35.984V35.168H98.0746V35.984H104.075ZM104.075 35.168C104.075 33.4331 103.699 31.3821 102.122 29.9621L98.1077 34.4219C97.9594 34.2883 97.9478 34.1906 97.9795 34.289C98.0165 34.4037 98.0746 34.6746 98.0746 35.168H104.075ZM102.181 30.017C100.694 28.6041 98.6317 28.28 96.8506 28.28V34.28C97.4365 34.28 97.8052 34.3397 98.0113 34.3973C98.2121 34.4534 98.1689 34.4815 98.0484 34.367L102.181 30.017ZM96.8506 28.28C95.7312 28.28 94.5692 28.4246 93.3775 28.6853L94.6597 34.5467C95.516 34.3594 96.2421 34.28 96.8506 34.28V28.28ZM93.4658 28.6674C92.207 28.9034 90.909 29.3048 89.5795 29.8438L91.8337 35.4042C92.8723 34.9832 93.7822 34.7126 94.5715 34.5646L93.4658 28.6674ZM89.5249 29.8666C89.3172 29.9556 89.2665 29.942 89.3431 29.9387C89.3858 29.9369 89.4596 29.9389 89.5551 29.9591C89.6522 29.9796 89.7526 30.0151 89.8479 30.0652L87.0534 35.3748C88.7562 36.271 90.525 35.9657 91.8884 35.3814L89.5249 29.8666ZM89.9537 30.1237C89.9517 30.1226 89.9645 30.1298 89.986 30.1482C90.0079 30.167 90.0335 30.1928 90.0587 30.2251C90.0839 30.2574 90.1033 30.2891 90.1169 30.3164C90.1235 30.3295 90.128 30.3403 90.131 30.348C90.134 30.3557 90.1352 30.3599 90.1352 30.3598L84.3661 32.0082C84.7728 33.4319 85.6708 34.5771 86.9475 35.3163L89.9537 30.1237ZM90.1449 30.3946C90.134 30.3548 90.1352 30.3384 90.1357 30.3321C90.1362 30.3243 90.1393 30.286 90.1713 30.2079L84.618 27.9361C84.0913 29.2236 83.9828 30.6037 84.3563 31.9734L90.1449 30.3946ZM90.1257 30.3134C90.1135 30.3404 90.0958 30.3708 90.0735 30.4C90.0513 30.429 90.0322 30.447 90.023 30.4547C90.0053 30.4696 90.0519 30.424 90.2276 30.3612L88.2096 24.7108C86.7368 25.2368 85.394 26.2235 84.6635 27.8306L90.1257 30.3134ZM90.2916 30.3376C91.6486 29.8178 92.8649 29.478 93.9475 29.2932L92.9377 23.3788C91.3964 23.642 89.7966 24.1022 88.1457 24.7344L90.2916 30.3376ZM94.004 29.283C95.2019 29.0548 96.2429 28.952 97.1386 28.952V22.952C95.7943 22.952 94.3713 23.1052 92.8813 23.389L94.004 29.283ZM97.1386 28.952C100.394 28.952 102.24 29.7013 103.257 30.6464L107.34 26.2496C104.774 23.8667 101.179 22.952 97.1386 22.952V28.952ZM103.279 30.666C104.218 31.5218 104.987 33.1005 104.987 36.08H110.987C110.987 32.1475 109.963 28.6382 107.319 26.23L103.279 30.666ZM104.987 36.08V46.736H110.987V36.08H104.987ZM104.987 46.736C104.987 47.5726 104.79 47.6401 104.927 47.49C104.996 47.4135 105.064 47.3842 105.064 47.3844C105.046 47.3909 104.919 47.432 104.627 47.432V53.432C106.287 53.432 108.061 52.9623 109.366 51.526C110.623 50.1439 110.987 48.3634 110.987 46.736H104.987ZM104.627 47.432C104.322 47.432 104.183 47.3898 104.156 47.3797C104.145 47.3757 104.208 47.4002 104.276 47.4743C104.414 47.6243 104.219 47.5632 104.219 46.736H98.2186C98.2186 48.3728 98.5908 50.1597 99.8651 51.5416C101.182 52.9696 102.963 53.432 104.627 53.432V47.432ZM104.219 46.736V46.448H98.2186V46.736H104.219ZM98.4186 45.3711C98.174 46.0071 97.7807 46.4965 97.1555 46.8959L100.386 51.9521C102.065 50.8795 103.303 49.3849 104.019 47.5249L98.4186 45.3711ZM97.1231 46.9169C96.5898 47.2673 95.8177 47.528 94.6426 47.528V53.528C96.7315 53.528 98.7114 53.0527 100.418 51.9311L97.1231 46.9169ZM96.2746 48.68C98.3928 48.68 100.298 47.9149 101.804 46.4093L97.5613 42.1667C97.2109 42.5171 96.8444 42.68 96.2746 42.68V48.68ZM101.804 46.4093C103.365 44.8481 104.075 42.8499 104.075 40.688H98.0746C98.0746 41.4701 97.8561 41.8719 97.5613 42.1667L101.804 46.4093ZM104.075 40.688V39.728H98.0746V40.688H104.075ZM101.075 36.728H99.3946V42.728H101.075V36.728ZM99.3946 36.728C96.8972 36.728 94.6017 36.9333 92.9602 37.6515L95.3651 43.1485C95.7715 42.9707 96.9641 42.728 99.3946 42.728V36.728ZM93.0335 37.6206C92.1089 37.9962 91.2056 38.6053 90.5479 39.5508C89.8833 40.5061 89.6266 41.5792 89.6266 42.608H95.6266C95.6266 42.5863 95.6292 42.6232 95.6072 42.7002C95.5841 42.7811 95.5413 42.8795 95.4733 42.9772C95.3276 43.1867 95.1924 43.2198 95.2918 43.1794L93.0335 37.6206ZM89.6266 42.608C89.6266 44.2635 90.2243 45.8086 91.4754 46.9939L95.6019 42.6381C95.5916 42.6284 95.5944 42.6293 95.603 42.6417C95.607 42.6475 95.6115 42.6546 95.616 42.6629C95.6205 42.6711 95.6243 42.6792 95.6274 42.6867C95.634 42.7027 95.6345 42.709 95.6329 42.7006C95.6312 42.6915 95.6266 42.6622 95.6266 42.608H89.6266ZM91.5317 47.0459C92.9 48.2774 94.6291 48.68 96.2746 48.68V42.68C95.5521 42.68 95.4572 42.5066 95.5455 42.5861L91.5317 47.0459ZM116.855 57.632L114.228 59.0812L114.237 59.0962L114.245 59.111L116.855 57.632ZM116.951 54.368L119.675 55.6252L119.681 55.6112L119.688 55.5972L116.951 54.368ZM119.495 48.704L122.232 49.9332L122.776 48.7223L122.245 47.5054L119.495 48.704ZM111.671 30.752L108.895 31.8907L108.908 31.9208L108.921 31.9506L111.671 30.752ZM111.671 27.488L109.061 26.009L109.053 26.0238L109.044 26.0388L111.671 27.488ZM116.951 26.672L115.059 29.0003L115.138 29.0644L115.221 29.1229L116.951 26.672ZM118.439 28.928L121.232 27.8324L121.228 27.8231L121.224 27.8138L118.439 28.928ZM123.335 41.408L120.542 42.5036L123.287 49.4995L126.115 42.5368L123.335 41.408ZM128.423 28.88L125.649 27.7377L125.646 27.7444L125.643 27.7512L128.423 28.88ZM129.911 26.672L131.641 29.1229L131.654 29.1135L131.667 29.104L129.911 26.672ZM134.759 27.488L132.076 28.8296L132.103 28.884L132.132 28.9372L134.759 27.488ZM134.711 30.704L131.973 29.4789L131.969 29.4863L131.966 29.4937L134.711 30.704ZM123.431 56.288L126.176 57.4989L126.176 57.4983L123.431 56.288ZM121.799 58.496L120.197 55.9595L120.166 55.9793L120.135 55.9999L121.799 58.496ZM119.591 56.072C119.322 56.072 119.277 56.0221 119.344 56.0572C119.376 56.0742 119.412 56.0995 119.442 56.129C119.47 56.1574 119.476 56.1715 119.465 56.153L114.245 59.111C115.416 61.1783 117.438 62.072 119.591 62.072V56.072ZM119.482 56.1828C119.482 56.1824 119.487 56.1937 119.491 56.2111C119.495 56.2281 119.493 56.2301 119.494 56.2082C119.495 56.1596 119.513 55.975 119.675 55.6252L114.227 53.1108C113.382 54.9424 113.123 57.0784 114.228 59.0812L119.482 56.1828ZM119.688 55.5972L122.232 49.9332L116.758 47.4748L114.214 53.1388L119.688 55.5972ZM122.245 47.5054L114.421 29.5534L108.921 31.9506L116.745 49.9026L122.245 47.5054ZM114.447 29.6133C114.304 29.2668 114.287 29.072 114.287 29C114.287 28.9488 114.293 28.9453 114.298 28.9372L109.044 26.0388C107.978 27.9719 108.141 30.0516 108.895 31.8907L114.447 29.6133ZM114.281 28.967C114.259 29.0068 114.222 29.0552 114.174 29.0978C114.128 29.139 114.098 29.1511 114.109 29.1461C114.146 29.1293 114.365 29.048 114.887 29.048V23.048C112.744 23.048 110.358 23.7195 109.061 26.009L114.281 28.967ZM114.887 29.048C115.082 29.048 115.17 29.0719 115.183 29.0756C115.188 29.0771 115.175 29.0737 115.15 29.0606C115.124 29.0474 115.093 29.0275 115.059 29.0003L118.843 24.3437C117.65 23.3744 116.225 23.048 114.887 23.048V29.048ZM115.221 29.1229C115.1 29.0377 115.117 29.0088 115.227 29.1758C115.333 29.3367 115.481 29.6114 115.654 30.0422L121.224 27.8138C120.712 26.5329 119.947 25.1147 118.681 24.2211L115.221 29.1229ZM115.646 30.0236L120.542 42.5036L126.128 40.3124L121.232 27.8324L115.646 30.0236ZM126.115 42.5368L131.203 30.0088L125.643 27.7512L120.555 40.2792L126.115 42.5368ZM131.197 30.0222C131.367 29.609 131.514 29.3445 131.619 29.1886C131.727 29.0279 131.747 29.0479 131.641 29.1229L128.181 24.2211C126.936 25.0996 126.169 26.4753 125.649 27.7377L131.197 30.0222ZM131.667 29.104C131.58 29.1671 131.668 29.048 132.215 29.048V23.048C130.842 23.048 129.394 23.3449 128.155 24.24L131.667 29.104ZM132.215 29.048C132.432 29.048 132.411 29.0898 132.285 29.0188C132.225 28.9846 132.169 28.9395 132.125 28.8918C132.082 28.8459 132.07 28.8177 132.076 28.8296L137.442 26.1464C136.964 25.1893 136.236 24.3606 135.241 23.7972C134.267 23.2462 133.214 23.048 132.215 23.048V29.048ZM132.132 28.9372C132.138 28.9469 132.135 28.9441 132.132 28.9331C132.13 28.9223 132.132 28.9231 132.131 28.9432C132.131 28.9862 132.117 29.1552 131.973 29.4789L137.449 31.9291C138.269 30.0978 138.468 28.0003 137.386 26.0388L132.132 28.9372ZM131.966 29.4937L120.686 55.0777L126.176 57.4983L137.456 31.9143L131.966 29.4937ZM120.686 55.0771C120.511 55.4753 120.359 55.7264 120.25 55.8728C120.142 56.0197 120.114 56.0122 120.197 55.9595L123.401 61.0325C124.745 60.1833 125.597 58.8107 126.176 57.4989L120.686 55.0771ZM120.135 55.9999C120.178 55.9711 120.067 56.072 119.591 56.072V62.072C120.907 62.072 122.268 61.7889 123.463 60.9921L120.135 55.9999ZM159.263 29.888H156.263V40.3484L161.807 31.478L159.263 29.888ZM162.479 26.96L163.821 29.6433L162.479 26.96ZM173.231 28.4L170.937 30.3338L170.947 30.345L170.956 30.3561L173.231 28.4ZM168.959 49.472L166.784 51.5382L166.81 51.5661L166.838 51.5933L168.959 49.472ZM167.135 32.672L164.822 34.5826L164.843 34.608L164.865 34.6329L167.135 32.672ZM160.751 33.008L158.594 30.9229L158.576 30.9418L158.558 30.961L160.751 33.008ZM155.807 47.432C155.063 47.432 155.055 47.247 155.206 47.4006C155.351 47.5469 155.159 47.5154 155.159 46.736H149.159C149.159 48.4206 149.575 50.2371 150.936 51.6154C152.303 53.001 154.119 53.432 155.807 53.432V47.432ZM155.159 46.736V29.696H149.159V46.736H155.159ZM155.159 29.696C155.159 28.9227 155.348 28.8974 155.196 29.0528C155.13 29.1209 155.082 29.1301 155.129 29.1143C155.19 29.0932 155.367 29.048 155.711 29.048V23.048C154.044 23.048 152.247 23.4809 150.898 24.8671C149.562 26.2386 149.159 28.0373 149.159 29.696H155.159ZM155.711 29.048C156.055 29.048 156.232 29.0932 156.293 29.1143C156.34 29.1301 156.292 29.1209 156.226 29.0528C156.074 28.8974 156.263 28.9227 156.263 29.696H162.263C162.263 28.0373 161.86 26.2386 160.524 24.8671C159.175 23.4809 157.378 23.048 155.711 23.048V29.048ZM156.263 29.696V29.888H162.263V29.696H156.263ZM161.807 31.478C162.316 30.6639 162.973 30.0672 163.821 29.6433L161.137 24.2767C159.297 25.1968 157.81 26.5521 156.719 28.298L161.807 31.478ZM163.821 29.6433C164.705 29.2011 165.742 28.952 166.991 28.952V22.952C164.912 22.952 162.941 23.3749 161.137 24.2767L163.821 29.6433ZM166.991 28.952C169.179 28.952 170.294 29.5708 170.937 30.3338L175.525 26.4662C173.416 23.9652 170.371 22.952 166.991 22.952V28.952ZM170.956 30.3561C171.656 31.1699 172.295 32.7966 172.295 35.84H178.295C178.295 32.1634 177.558 28.8301 175.506 26.4439L170.956 30.3561ZM172.295 35.84V46.736H178.295V35.84H172.295ZM172.295 46.736C172.295 47.5154 172.103 47.5469 172.248 47.4006C172.399 47.247 172.391 47.432 171.647 47.432V53.432C173.335 53.432 175.151 53.001 176.518 51.6154C177.879 50.2371 178.295 48.4206 178.295 46.736H172.295ZM171.647 47.432C171.345 47.432 171.184 47.3896 171.12 47.3668C171.089 47.3557 171.077 47.348 171.077 47.348C171.077 47.3477 171.077 47.3481 171.079 47.3492C171.08 47.3503 171.081 47.3509 171.08 47.3507L166.838 51.5933C168.183 52.9388 169.927 53.432 171.647 53.432V47.432ZM171.134 47.4058C171.159 47.4322 171.147 47.4358 171.121 47.3593C171.091 47.2706 171.047 47.0773 171.047 46.736H165.047C165.047 48.4206 165.487 50.1725 166.784 51.5382L171.134 47.4058ZM171.047 46.736V36.176H165.047V46.736H171.047ZM171.047 36.176C171.047 34.3158 170.728 32.2428 169.405 30.7111L164.865 34.6329C164.792 34.5493 164.846 34.565 164.916 34.8316C164.986 35.0997 165.047 35.5319 165.047 36.176H171.047ZM169.448 30.7614C168.136 29.1727 166.291 28.568 164.447 28.568V34.568C164.733 34.568 164.852 34.6126 164.867 34.6191C164.874 34.622 164.866 34.6191 164.85 34.6074C164.834 34.5956 164.824 34.5849 164.822 34.5826L169.448 30.7614ZM164.447 28.568C162.231 28.568 160.174 29.2888 158.594 30.9229L162.908 35.0931C163.184 34.8072 163.591 34.568 164.447 34.568V28.568ZM158.558 30.961C157.035 32.5925 156.407 34.6631 156.407 36.848H162.407C162.407 35.8329 162.675 35.3435 162.944 35.055L158.558 30.961ZM156.407 36.848V46.736H162.407V36.848H156.407ZM156.407 46.736C156.407 47.5251 156.214 47.5622 156.358 47.4148C156.42 47.3508 156.463 47.3447 156.411 47.3626C156.343 47.3858 156.159 47.432 155.807 47.432V53.432C157.49 53.432 159.298 52.9953 160.656 51.6012C162 50.2218 162.407 48.4109 162.407 46.736H156.407ZM185.41 49.04L183.961 51.6667L183.987 51.6815L184.014 51.6957L185.41 49.04ZM181.09 44.768L178.463 46.2172L178.468 46.2269L178.474 46.2366L181.09 44.768ZM181.09 31.712L183.706 33.1806L183.711 33.1709L183.717 33.1612L181.09 31.712ZM185.41 27.44L184.014 24.7843L184.005 24.7892L183.996 24.7942L185.41 27.44ZM198.61 27.44L197.196 30.0858L197.205 30.0908L197.214 30.0957L198.61 27.44ZM202.978 31.712L200.351 33.1612L200.366 33.1883L200.382 33.2151L202.978 31.712ZM202.978 44.768L200.37 43.2844L200.366 43.2919L200.362 43.2994L202.978 44.768ZM198.61 49.04L200.024 51.6858L200.032 51.6815L200.04 51.6771L198.61 49.04ZM195.778 43.424L193.532 41.4349L193.516 41.4531L193.5 41.4716L195.778 43.424ZM195.778 33.056L193.5 35.0084L193.53 35.0433L193.561 35.0773L195.778 33.056ZM188.29 33.056L190.539 35.0409L190.554 35.0247L190.568 35.0084L188.29 33.056ZM188.29 43.424L190.568 41.4716L188.29 43.424ZM192.034 47.528C189.902 47.528 188.19 47.1118 186.805 46.3843L184.014 51.6957C186.406 52.9522 189.11 53.528 192.034 53.528V47.528ZM186.859 46.4133C185.485 45.6553 184.452 44.6294 183.706 43.2994L178.474 46.2366C179.775 48.5546 181.622 50.3767 183.961 51.6667L186.859 46.4133ZM183.717 43.3188C182.981 41.9848 182.554 40.3107 182.554 38.192H176.554C176.554 41.1293 177.151 43.8392 178.463 46.2172L183.717 43.3188ZM182.554 38.192C182.554 36.1109 182.978 34.4767 183.706 33.1806L178.474 30.2434C177.154 32.5953 176.554 35.2811 176.554 38.192H182.554ZM183.717 33.1612C184.463 31.809 185.483 30.8024 186.824 30.0858L183.996 24.7942C181.624 26.0616 179.765 27.903 178.463 30.2628L183.717 33.1612ZM186.805 30.0957C188.19 29.3682 189.902 28.952 192.034 28.952V22.952C189.11 22.952 186.406 23.5278 184.014 24.7843L186.805 30.0957ZM192.034 28.952C194.167 28.952 195.854 29.3688 197.196 30.0858L200.024 24.7942C197.653 23.5272 194.956 22.952 192.034 22.952V28.952ZM197.214 30.0957C198.586 30.8165 199.613 31.8226 200.351 33.1612L205.605 30.2628C204.295 27.8894 202.41 26.0475 200.005 24.7843L197.214 30.0957ZM200.382 33.2151C201.128 34.5045 201.562 36.126 201.562 38.192H207.562C207.562 35.266 206.94 32.5675 205.574 30.2089L200.382 33.2151ZM201.562 38.192C201.562 40.2958 201.125 41.9573 200.37 43.2844L205.585 46.2516C206.942 43.8667 207.562 41.1442 207.562 38.192H201.562ZM200.362 43.2994C199.623 44.6161 198.584 45.6411 197.18 46.4029L200.04 51.6771C202.412 50.3909 204.285 48.5679 205.594 46.2366L200.362 43.2994ZM197.196 46.3942C195.854 47.1112 194.167 47.528 192.034 47.528V53.528C194.956 53.528 197.653 52.9528 200.024 51.6858L197.196 46.3942ZM192.034 48.104C194.404 48.104 196.499 47.1921 198.056 45.3764L193.5 41.4716C193.136 41.8959 192.735 42.104 192.034 42.104V48.104ZM198.024 45.4131C199.716 43.5022 200.266 40.8872 200.266 38.192H194.266C194.266 40.2328 193.824 41.1058 193.532 41.4349L198.024 45.4131ZM200.266 38.192C200.266 35.5261 199.715 32.9214 197.995 31.0347L193.561 35.0773C193.825 35.3666 194.266 36.1858 194.266 38.192H200.266ZM198.056 31.1036C196.499 29.2879 194.404 28.376 192.034 28.376V34.376C192.735 34.376 193.136 34.5841 193.5 35.0084L198.056 31.1036ZM192.034 28.376C189.663 28.376 187.568 29.2879 186.012 31.1036L190.568 35.0084C190.931 34.5841 191.332 34.376 192.034 34.376V28.376ZM186.04 31.0711C184.377 32.9566 183.85 35.5453 183.85 38.192H189.85C189.85 36.1666 190.283 35.3314 190.539 35.0409L186.04 31.0711ZM183.85 38.192C183.85 40.8686 184.376 43.4675 186.012 45.3764L190.568 41.4716C190.284 41.1405 189.85 40.2514 189.85 38.192H183.85ZM186.012 45.3764C187.568 47.1921 189.663 48.104 192.034 48.104V42.104C191.332 42.104 190.931 41.8959 190.568 41.4716L186.012 45.3764ZM214.025 47.504L216.817 46.4056L216.812 46.3929L216.807 46.3802L214.025 47.504ZM207.257 30.752L204.462 31.8426L204.469 31.8592L204.475 31.8758L207.257 30.752ZM207.257 27.44L204.669 25.9228L204.661 25.9372L204.652 25.9516L207.257 27.44ZM212.297 26.672L210.405 29.0003L210.484 29.0644L210.567 29.1229L212.297 26.672ZM213.737 28.928L210.925 29.9726L210.926 29.9755L213.737 28.928ZM218.441 41.552L215.63 42.5995L218.439 50.1381L221.252 42.6009L218.441 41.552ZM223.385 28.304L226.196 29.3529L226.201 29.3387L226.206 29.3244L223.385 28.304ZM229.577 28.304L232.396 27.2772L232.387 27.254L232.379 27.2311L229.577 28.304ZM234.473 41.744L231.654 42.7708L234.455 50.459L237.287 42.7826L234.473 41.744ZM239.273 28.736L236.464 27.6826L236.461 27.69L236.459 27.6974L239.273 28.736ZM240.713 26.624L239.111 24.0875L239.08 24.1073L239.049 24.1278L240.713 26.624ZM245.273 30.752L242.508 29.5878L242.498 29.6114L242.489 29.6351L245.273 30.752ZM238.553 47.504L235.769 46.3871L235.765 46.3963L235.761 46.4056L238.553 47.504ZM230.393 47.504L227.592 48.5776L227.596 48.59L227.601 48.6024L230.393 47.504ZM226.217 36.608L229.018 35.5344L226.191 28.1563L223.409 35.5519L226.217 36.608ZM222.137 47.456L219.329 46.3999L219.324 46.4126L222.137 47.456ZM218.105 47.432C217.649 47.432 217.459 47.3267 217.37 47.2627C217.265 47.1873 217.043 46.98 216.817 46.4056L211.233 48.6024C211.775 49.98 212.617 51.2367 213.872 52.1373C215.143 53.0493 216.609 53.432 218.105 53.432V47.432ZM216.807 46.3802L210.039 29.6282L204.475 31.8758L211.243 48.6278L216.807 46.3802ZM210.052 29.6614C209.896 29.2613 209.873 29.0317 209.873 28.94C209.873 28.8724 209.883 28.8915 209.862 28.9284L204.652 25.9516C203.541 27.8954 203.748 30.0132 204.462 31.8426L210.052 29.6614ZM209.845 28.9572C209.829 28.984 209.799 29.0247 209.755 29.0643C209.735 29.0827 209.716 29.0968 209.7 29.1068C209.693 29.1117 209.686 29.1153 209.682 29.1177C209.68 29.1189 209.678 29.1197 209.677 29.1203C209.676 29.1209 209.675 29.1211 209.675 29.1211C209.68 29.1192 209.843 29.048 210.281 29.048V23.048C208.185 23.048 205.942 23.7507 204.669 25.9228L209.845 28.9572ZM210.281 29.048C210.45 29.048 210.52 29.0693 210.522 29.0699C210.522 29.0699 210.508 29.0655 210.484 29.053C210.46 29.0403 210.433 29.0226 210.405 29.0003L214.189 24.3437C213.015 23.3898 211.618 23.048 210.281 23.048V29.048ZM210.567 29.1229C210.433 29.0282 210.439 28.9851 210.536 29.1381C210.631 29.2862 210.768 29.5494 210.925 29.9726L216.549 27.8834C216.069 26.5892 215.323 25.1357 214.027 24.2211L210.567 29.1229ZM210.926 29.9755L215.63 42.5995L221.252 40.5045L216.548 27.8805L210.926 29.9755ZM221.252 42.6009L226.196 29.3529L220.574 27.2551L215.63 40.5031L221.252 42.6009ZM226.206 29.3244C226.268 29.1544 226.321 29.0654 226.346 29.0292C226.369 28.9967 226.368 29.007 226.337 29.03C226.323 29.0403 226.308 29.0492 226.294 29.056C226.28 29.0627 226.273 29.0649 226.274 29.0645C226.277 29.0637 226.331 29.048 226.457 29.048V23.048C225.187 23.048 223.902 23.3741 222.785 24.194C221.683 25.0032 220.986 26.1172 220.564 27.2836L226.206 29.3244ZM226.457 29.048C226.583 29.048 226.64 29.0636 226.648 29.0659C226.651 29.067 226.631 29.0606 226.607 29.0431C226.547 28.9997 226.643 29.0309 226.775 29.3769L232.379 27.2311C231.935 26.0731 231.223 24.9762 230.123 24.1809C229.008 23.3745 227.728 23.048 226.457 23.048V29.048ZM226.758 29.3308L231.654 42.7708L237.292 40.7172L232.396 27.2772L226.758 29.3308ZM237.287 42.7826L242.087 29.7746L236.459 27.6974L231.659 40.7054L237.287 42.7826ZM242.082 29.7894C242.212 29.4421 242.327 29.2371 242.4 29.13C242.471 29.0253 242.475 29.0551 242.377 29.1201L239.049 24.1278C237.725 25.0105 236.95 26.386 236.464 27.6826L242.082 29.7894ZM242.315 29.1605C242.432 29.0867 242.546 29.048 242.729 29.048V23.048C241.44 23.048 240.21 23.3933 239.111 24.0875L242.315 29.1605ZM242.729 29.048C243.09 29.048 243.131 29.1137 243.016 29.0524C242.953 29.0186 242.873 28.9613 242.797 28.8785C242.723 28.7964 242.682 28.7218 242.664 28.6808L248.17 26.2952C247.701 25.2142 246.913 24.333 245.85 23.7636C244.839 23.2223 243.744 23.048 242.729 23.048V29.048ZM242.664 28.6808C242.675 28.7045 242.79 28.9174 242.508 29.5878L248.038 31.9162C248.78 30.1546 248.991 28.1915 248.17 26.2952L242.664 28.6808ZM242.489 29.6351L235.769 46.3871L241.337 48.6209L248.057 31.8689L242.489 29.6351ZM235.761 46.4056C235.535 46.98 235.313 47.1873 235.208 47.2627C235.119 47.3267 234.929 47.432 234.473 47.432V53.432C235.969 53.432 237.435 53.0493 238.706 52.1373C239.961 51.2367 240.803 49.98 241.345 48.6024L235.761 46.4056ZM234.473 47.432C234.017 47.432 233.827 47.3267 233.738 47.2627C233.633 47.1873 233.411 46.98 233.185 46.4056L227.601 48.6024C228.143 49.98 228.985 51.2367 230.24 52.1373C231.511 53.0493 232.977 53.432 234.473 53.432V47.432ZM233.194 46.4304L229.018 35.5344L223.416 37.6816L227.592 48.5776L233.194 46.4304ZM223.409 35.5519L219.329 46.3999L224.945 48.5121L229.025 37.6641L223.409 35.5519ZM219.324 46.4126C219.105 47.0026 218.887 47.2068 218.795 47.2743C218.723 47.328 218.552 47.432 218.105 47.432V53.432C219.61 53.432 221.087 53.04 222.359 52.1017C223.611 51.1772 224.433 49.8934 224.95 48.4994L219.324 46.4126Z" fill="#5B3511"/>
</g>
<defs>
<filter id="filter0_d_38_2059" x="0" y="7" width="284" height="73" filterUnits="userSpaceOnUse" color-interpolation-filters="sRGB">
<feFlood flood-opacity="0" result="BackgroundImageFix"/>
<feColorMatrix in="SourceAlpha" type="matrix" values="0 0 0 0 0 0 0 0 0 0 0 0 0 0 0 0 0 0 127 0" result="hardAlpha"/>
<feOffset dy="3"/>
<feGaussianBlur stdDeviation="1"/>
<feComposite in2="hardAlpha" operator="out"/>
<feColorMatrix type="matrix" values="0 0 0 0 0 0 0 0 0 0 0 0 0 0 0 0 0 0 0.25 0"/>
<feBlend mode="normal" in2="BackgroundImageFix" result="effect1_dropShadow_38_2059"/>
<feBlend mode="normal" in="SourceGraphic" in2="effect1_dropShadow_38_2059" result="shape"/>
</filter>
<filter id="filter1_d_38_2059" x="2" y="8" width="280" height="66" filterUnits="userSpaceOnUse" color-interpolation-filters="sRGB">
<feFlood flood-opacity="0" result="BackgroundImageFix"/>
<feColorMatrix in="SourceAlpha" type="matrix" values="0 0 0 0 0 0 0 0 0 0 0 0 0 0 0 0 0 0 127 0" result="hardAlpha"/>
<feOffset dy="2"/>
<feGaussianBlur stdDeviation="1"/>
<feComposite in2="hardAlpha" operator="out"/>
<feColorMatrix type="matrix" values="0 0 0 0 0 0 0 0 0 0 0 0 0 0 0 0 0 0 0.25 0"/>
<feBlend mode="normal" in2="BackgroundImageFix" result="effect1_dropShadow_38_2059"/>
<feBlend mode="normal" in="SourceGraphic" in2="effect1_dropShadow_38_2059" result="shape"/>
</filter>
<filter id="filter2_dif_38_2059" x="4" y="6" width="276" height="63" filterUnits="userSpaceOnUse" color-interpolation-filters="sRGB">
<feFlood flood-opacity="0" result="BackgroundImageFix"/>
<feColorMatrix in="SourceAlpha" type="matrix" values="0 0 0 0 0 0 0 0 0 0 0 0 0 0 0 0 0 0 127 0" result="hardAlpha"/>
<feOffset dy="2"/>
<feGaussianBlur stdDeviation="2"/>
<feComposite in2="hardAlpha" operator="out"/>
<feColorMatrix type="matrix" values="0 0 0 0 0.258529 0 0 0 0 0.140245 0 0 0 0 0.0293538 0 0 0 1 0"/>
<feBlend mode="normal" in2="BackgroundImageFix" result="effect1_dropShadow_38_2059"/>
<feBlend mode="normal" in="SourceGraphic" in2="effect1_dropShadow_38_2059" result="shape"/>
<feColorMatrix in="SourceAlpha" type="matrix" values="0 0 0 0 0 0 0 0 0 0 0 0 0 0 0 0 0 0 127 0" result="hardAlpha"/>
<feMorphology radius="1" operator="erode" in="SourceAlpha" result="effect2_innerShadow_38_2059"/>
<feOffset dy="-1"/>
<feGaussianBlur stdDeviation="0.5"/>
<feComposite in2="hardAlpha" operator="arithmetic" k2="-1" k3="1"/>
<feColorMatrix type="matrix" values="0 0 0 0 1 0 0 0 0 0.689948 0 0 0 0 0.325975 0 0 0 0.25 0"/>
<feBlend mode="normal" in2="shape" result="effect2_innerShadow_38_2059"/>
<feGaussianBlur stdDeviation="0.5" result="effect3_foregroundBlur_38_2059"/>
</filter>
<filter id="filter3_d_38_2059" x="38.4393" y="15.728" width="208.602" height="45.344" filterUnits="userSpaceOnUse" color-interpolation-filters="sRGB">
<feFlood flood-opacity="0" result="BackgroundImageFix"/>
<feColorMatrix in="SourceAlpha" type="matrix" values="0 0 0 0 0 0 0 0 0 0 0 0 0 0 0 0 0 0 127 0" result="hardAlpha"/>
<feOffset dy="1"/>
<feGaussianBlur stdDeviation="0.5"/>
<feComposite in2="hardAlpha" operator="out"/>
<feColorMatrix type="matrix" values="0 0 0 0 0 0 0 0 0 0 0 0 0 0 0 0 0 0 0.25 0"/>
<feBlend mode="normal" in2="BackgroundImageFix" result="effect1_dropShadow_38_2059"/>
<feBlend mode="normal" in="SourceGraphic" in2="effect1_dropShadow_38_2059" result="shape"/>
</filter>
<radialGradient id="paint0_radial_38_2059" cx="0" cy="0" r="1" gradientUnits="userSpaceOnUse" gradientTransform="translate(142 9.55) rotate(90) scale(60.45 269.1)">
<stop stop-color="#5B3511"/>
<stop offset="0.528052" stop-color="#DD7F28"/>
<stop offset="0.977884" stop-color="#5B3511"/>
</radialGradient>
<linearGradient id="paint1_linear_38_2059" x1="141.5" y1="2" x2="141.5" y2="67" gradientUnits="userSpaceOnUse">
<stop stop-color="#FDE092"/>
<stop offset="1" stop-color="#C18B2C"/>
</linearGradient>
</defs>
</svg>
