<svg width="54" height="54" viewBox="0 0 54 54" fill="none" xmlns="http://www.w3.org/2000/svg">
<path d="M54 26.9999C54 12.0882 41.9117 -0.00012207 27 -0.00012207C12.0883 -0.00012207 0 12.0882 0 26.9999C0 40.4764 9.87351 51.6463 22.7812 53.6719V34.8046H15.9258V26.9999H22.7812V21.0514C22.7812 14.2846 26.8122 10.5468 32.9795 10.5468C35.9336 10.5468 39.0234 11.0741 39.0234 11.0741V17.7186H35.6188C32.2647 17.7186 31.2188 19.7999 31.2188 21.9351V26.9999H38.707L37.51 34.8046H31.2188V53.6719C44.1265 51.6463 54 40.4764 54 26.9999Z" fill="#1877F2"/>
<path d="M37.51 34.8047L38.707 27H31.2188V21.9352C31.2188 19.8 32.2647 17.7188 35.6188 17.7188H39.0234V11.0742C39.0234 11.0742 35.9336 10.5469 32.9796 10.5469C26.8122 10.5469 22.7813 14.2847 22.7813 21.0516V27H15.9258V34.8047H22.7813V53.672C24.1559 53.8877 25.5648 54 27 54C28.4352 54 29.8441 53.8877 31.2188 53.672V34.8047H37.51Z" fill="white"/>
</svg>
