<svg width="934" height="845" viewBox="0 0 934 845" fill="none" xmlns="http://www.w3.org/2000/svg">
<path opacity="0.58" fill-rule="evenodd" clip-rule="evenodd" d="M933.216 0C907.553 34.508 901.522 16.3188 893.508 27.2589C877.542 31.7743 856.359 50.1904 886.203 46.9366C884.874 53.1896 882.066 50.373 880.045 52.8632C871.782 55.4363 870.42 59.6585 874.706 61.5897C869.085 70.7867 845.958 81.2675 866.72 84.3442C862.888 95.323 837.972 101.266 836.853 111.918C835.834 119.522 823.412 121.447 829.194 127.042C841.893 125.21 849.502 128.824 854.116 129.848C858.729 130.871 867.706 139.205 868.736 143.317C867.761 149.066 878.815 147.268 870.148 169.878C869.118 183.757 842.641 207.928 842.641 207.928C841.19 212.106 847.071 209.079 842.458 214.734C837.845 220.389 768.591 269.318 754.541 291.42C750.847 297.224 735.157 299.582 729.481 300.096C715.635 306.427 700.461 293.866 703.036 289.239C684.035 294.314 679.3 296.87 662.608 306.781C652.784 310.992 651.333 303.461 651.333 303.461C651.333 303.461 638.922 309.897 639.437 317.611C639.952 325.324 646.082 328.224 643.003 331.306C639.924 334.389 616.802 341.018 620.402 353.873C624.002 366.727 633.201 354.598 642.156 364.63C648.597 371.824 645.972 384.347 645.972 384.347C639.088 383.594 621.826 386.095 625.575 404.45C621.455 413.703 592.745 428.245 567.425 431.693C561.793 432.456 548.152 431.77 543.821 443.867C542.586 444.343 537.691 438.665 533.017 443.867C481.878 452.09 518.357 476.515 457.333 482.049C451.85 471.535 437.512 471.424 416.035 477.423C400.961 481.634 376.565 496.675 379.29 513.945C376.233 514.144 373.575 511.549 371.537 508.965C367.633 510.968 363.202 517.503 362.676 524.68C362.792 527.868 350.32 538 356.617 552.482C353.97 556.969 337.937 561.125 346.311 571.468C340.673 576.896 295.693 595.412 296.828 596.17C296.828 596.17 298.943 598.466 295.859 600.519C273.612 606.606 252.385 623.008 265.66 637.473C267.321 644.296 217.977 658.645 197.452 663.327C185.689 666.005 180.489 672.18 188.94 674.3C184.837 676.635 83.4174 699.544 14.4404 704.182C2.55007 704.979 -4.63832 708.005 3.42515 710.197C13.5488 712.964 27.7152 705.698 49.2307 709.383C70.126 712.964 184.504 693.015 234.58 676.369C283.149 660.222 309.97 649.199 356.628 639.742C374.278 636.167 393.025 640.129 401.769 639.1C399.454 644.114 420.804 640.644 420.804 640.644C420.804 640.644 404.599 652.337 386.595 656.963C368.591 661.589 348.653 668.03 332.709 670.587C347.756 671.611 369.875 668.528 379.135 665.446C388.395 662.364 401.769 661.462 411.029 659.912C420.289 658.363 451.928 649.636 455.528 652.204C456.558 657.345 464.018 654.257 463.503 657.345C477.281 659.697 527.019 645.005 540.798 634.103C546.208 633.118 539.491 630.08 544.525 628.315C550.129 626.351 559.112 624.392 566.517 626.389C571.983 627.867 565.791 632.57 576.806 630.761C590.895 628.442 590.364 626.782 616.681 615.211C619.25 619.323 615.268 622.665 620.557 623.434C562.74 646.836 550.811 660.067 523.253 671.124C490.611 684.216 439.727 694.824 418.899 700.795C465.325 693.856 476.866 688.715 518.823 676.508C545.909 668.628 569.042 651.014 591.372 644.767C606.324 640.578 619.411 631.785 623.526 632.814C626.422 638.11 666.806 625.714 632.547 639.305C643.142 639.499 645.285 637.468 656.954 634.186C688.765 595.495 797.538 558.253 817.979 537.076C815.537 536.689 815.41 535.15 822.609 531.039C829.809 526.927 864.4 497.482 864.4 491.827C864.4 486.172 859.128 490.289 861.697 485.663C864.267 481.036 882.792 468.182 889.476 467.152C896.161 466.123 908.212 475.818 932.391 453.717C934.047 406.177 932.69 40.1634 933.216 0ZM648.381 453.899C647.478 458.697 646.282 460.49 650.779 464.386C644.742 469.366 633.987 479.365 641.785 485.967C635.787 490.161 628.294 495.551 627.092 500.947C625.891 506.342 639.797 488.623 672.66 477.882C678.359 476.017 691.246 476.98 691.844 480.577C686.178 484.279 668.207 494.146 678.658 510.83C679.256 515.024 660.67 523.114 657.059 525.51C653.448 527.907 656.162 531.199 654.063 532.998C643.014 542.538 633.251 538.409 629.994 539.843C618.918 545.482 612.859 545.188 607 542.283C602.055 539.677 568.604 564.097 565.631 569.542C561.134 564.445 552.023 554.048 544.647 556.361C538.051 550.368 525.756 555.763 517.964 555.763C505.276 548.492 483.545 552.443 484.985 557.855C481.557 559.808 466.559 563.388 461.453 558.458C471.976 556.211 500.879 546.478 501.477 538.089C502.624 534.453 516.175 524.138 518.861 527.021C522.893 529.65 538.987 527.835 571.025 500.067C574.12 501.683 623.459 471.115 648.381 453.899ZM638.794 513.11C637.509 513.027 635.278 513.663 631.739 515.456C621.449 518.029 616.304 520.597 612.189 524.708C608.075 528.82 610.65 532.931 614.765 533.446C619.237 533.043 623.571 531.688 627.475 529.472C631.379 527.256 634.763 524.229 637.399 520.597C639.874 517.077 641.619 513.303 638.794 513.126V513.11Z" fill="#DAFFFF"/>
<path opacity="0.58" fill-rule="evenodd" clip-rule="evenodd" d="M895.552 29.1127C891.559 28.6479 868.675 44.0536 897.872 41.237C896.022 47.075 897.955 47.8774 886.796 53.8593C884.581 57.0965 894.173 54.7059 886.879 61.053C879.879 67.4721 874.872 69.9512 871.007 76.3979C869.899 81.4889 888.042 75.6343 887.411 78.1078C884.525 89.402 856.641 99.7998 855.688 108.233C857.71 111.47 843.122 119.727 849.635 119.068C862.428 118.061 870.68 125.67 872.685 142.309C874.778 144.479 875.83 149.47 878.777 148.95C887.937 149.315 883.827 182.705 861.725 209.903C854.847 219.1 874.523 208.398 851.407 232.281C838.725 245.391 832.406 260.979 856.73 257.238C840.47 270.447 803.076 329.469 730.533 350.387C734.515 345.517 742.988 330.72 721.008 330.604C704.343 330.515 663.882 342.335 665.765 362.765C666.994 376.046 676.021 377.894 714.234 371.409C697.914 379.471 699.791 394.512 698.545 394.512C691.661 393.759 673.972 403.045 655.675 412.923C624.002 415.396 590.835 450.502 575.926 463.462C566.135 471.972 549.022 479.216 559.107 487.511C557.872 487.987 545.765 494.151 541.097 499.375C539.347 491.501 508.007 506.015 499.755 510.022C499.201 495.806 485.256 495.258 470.11 507.305C460.639 514.836 427.078 528.217 409.417 531.52C401.825 532.942 382.552 545.731 404.184 558.751C399.011 563.084 399.028 568.562 395.14 571.291C393.772 569.603 391.685 568.081 387.387 567.744C357.825 591.112 297.072 617.823 284.013 620.867C277.782 622.317 283.786 631.486 297.487 636.212C290.681 650.992 215.136 672.479 157.739 688.068C116.203 699.362 34.3333 705.936 49.2308 709.367C70.126 712.947 184.504 692.998 234.58 676.353C283.149 660.206 309.97 649.183 356.628 639.726C374.284 636.151 393.025 640.113 401.769 639.084C399.454 644.097 420.804 640.628 420.804 640.628C420.804 640.628 404.599 652.32 386.595 656.946C368.591 661.572 348.659 668.014 332.709 670.57C347.756 671.594 369.876 668.512 379.135 665.429C388.395 662.347 401.769 661.445 411.029 659.896C420.289 658.346 451.928 649.62 455.528 652.187C456.558 657.328 464.018 654.24 463.503 657.328C477.287 659.68 527.019 644.988 540.798 634.087C546.208 633.102 539.491 630.064 544.525 628.298C550.129 626.334 559.112 624.375 566.522 626.373C571.983 627.85 565.791 632.554 576.806 630.744C590.895 628.426 590.364 626.766 616.681 615.195C619.256 619.306 615.269 622.649 620.557 623.418C537.486 654.772 551.088 657.859 523.53 668.916C490.888 682.008 439.728 694.808 418.899 700.779C465.325 693.839 476.866 688.698 518.828 676.491C545.909 668.611 569.042 650.998 591.377 644.75C606.33 640.561 619.417 631.768 623.531 632.797C627.508 633.843 622.468 637.839 633.948 638.84C624.816 641.662 584.626 658.795 566.018 669.148C557.595 673.841 561.588 669.104 522.356 684.642C559.782 674.743 573.794 669.984 596.013 657.123C617.523 646.82 634.984 649.465 658.493 636.095C695.532 615.034 736.952 591.787 764.216 574.827C791.48 557.866 817.974 539.616 817.974 537.043C815.526 536.655 815.399 535.117 822.604 531.005C829.809 526.894 864.4 497.483 864.4 491.827C864.4 486.172 859.128 490.289 861.703 485.663C864.278 481.036 882.792 468.182 889.482 467.152C896.172 466.123 933.67 482.547 933.371 449.804C933.083 418.467 935.238 163.669 932.978 11.2334C915.683 41.165 905.88 21.4818 903.787 28.5593L895.552 29.1127ZM686.555 420.022C686.97 419.99 687.388 420.002 687.801 420.055C692.232 420.664 698.323 423.625 693.948 432.335C690.997 438.189 681.211 442.959 676.719 454.209C670.195 458.758 664.774 465.072 664.414 467.828C662.459 475.16 689.019 465.526 696.307 458.974C696.906 461.187 700.411 462.797 702.787 463.03C698.445 467.457 691.246 476.958 691.844 480.555C686.178 484.257 668.207 494.118 678.658 510.808C678.863 512.252 675.152 516.767 669.021 518.743C669.021 520.591 673.762 526.446 678.298 525.383C684.39 523.989 683.182 518.217 690.11 515.423C690.758 515.163 683.177 509.944 689.003 493.083C688.405 510.459 698.534 512.584 699.132 512.374C714.473 507.1 729.038 506.519 729.592 507.642C723.239 510.603 708.718 515.163 691.484 538.354C688.759 537.441 681.571 535.914 676.11 539.981C672.643 542.56 659.778 557.351 657.679 559.15C653.969 550.418 638.811 557.08 635.555 558.508C613.07 556.958 606.757 562.658 600.87 564.39C590.973 562.116 573.323 575.745 560.248 588.357C549.991 576.736 555.551 569.348 558.171 565.021C555.551 564.612 552.588 565.065 549.011 566.189C543.329 583.896 525.164 576.703 524.876 573.676C512.188 566.41 476.667 571.877 450.377 585.363C428.225 584.212 446.6 571.069 432.827 564.982C434.488 561.662 442.286 561.994 442.286 561.994C458.928 566.487 460.872 558.253 460.872 558.253C465.07 557.357 500.896 546.417 501.494 538.033C502.64 534.398 516.192 524.083 518.878 526.966C522.91 529.594 539.003 527.779 571.041 500.011C573.722 501.439 611.237 478.607 637.393 461.276C635.976 456.849 640.594 451.636 645.988 449.063C662.702 430.01 679.643 420.47 686.555 420.022ZM531.837 465.061C526.598 464.911 522.107 469.228 518.873 471.148C511.23 475.641 508.383 476.991 506.583 480.732C504.977 484.052 504.634 486.426 506.733 488.219C504.484 489.719 499.362 493.139 503.133 495.712C506.456 497.97 511.994 496.16 516.175 492.264C521.453 487.367 531.915 484.478 537.01 479.836C540.333 476.803 540.859 469.377 537.309 466.953C535.71 465.8 533.807 465.142 531.837 465.061ZM389.231 526.401C388.824 526.417 388.419 526.463 388.018 526.54C383.211 527.481 377.651 532.522 376.626 536.871C375.403 542.073 378.288 547.507 382.923 547.385C387.559 547.263 388.716 543.052 392.216 539.002C396.691 533.794 395.024 526.235 389.231 526.401Z" fill="url(#paint0_radial_35_1927)"/>
<g opacity="0.58">
<path fill-rule="evenodd" clip-rule="evenodd" d="M917.24 355.02C916.099 354.82 909.836 356.077 905.317 361.605C895.747 373.319 908.639 364.515 895.237 378.886C888.403 391.005 896.223 385.211 902.409 380.491C902.409 380.491 907.133 379.783 912.594 372.512C917.024 366.596 922.773 356.01 917.24 355.02ZM876.347 362.125C875.518 362.168 874.711 362.408 873.993 362.823C873.275 363.239 872.666 363.819 872.215 364.515C867.486 371.056 876.214 377.243 881.309 371.787C885.13 367.703 880.761 361.97 876.347 362.125ZM906.723 383.679C905.782 384.392 900.161 382.395 897.613 389.5C900.205 394.397 896.65 393.584 893.908 397.972C894.296 402.056 899.657 395.565 902.287 390.928C908.484 386.019 906.552 390.302 907.089 387.679C907.643 384.968 910.378 380.939 906.723 383.679ZM843.129 380.109C843.129 380.109 827.396 402.725 814.935 407.252C817.754 408.254 828.226 389.893 803.36 409.073C792.971 418.065 799.727 418.535 796.493 421.628C789.803 425.961 785.251 438.838 809.325 433.708C814.414 432.253 813.478 440.448 800.896 451.383C793.696 457.083 788.64 461.183 783.983 468.288C771.527 487.258 782.183 466.567 767.274 480.512C754.066 492.858 732.013 521.55 773.648 498.447C767.324 509.713 770.746 509.348 774.756 506.803C778.766 504.257 769.711 519.353 784.265 504.451L790.013 500.456C787.998 505.624 796.061 503.383 797.767 501.723C799.788 499.775 800.78 497.362 803.305 489.172C806.871 494.203 818.54 482.493 827.307 467.94C830.109 449.845 818.479 459.423 812.415 463.004C812.304 458.455 822.134 450.038 826.011 447.388C834.783 441.384 836.179 421.811 812.825 442.297C813.008 439.663 824.787 428.175 821.337 425.972C833.787 410.356 840.46 396.528 834.252 398.857C836.816 394.004 845.677 385.477 843.129 380.109ZM846.031 404.408C842.758 409.133 848.219 407.368 848.928 405.575C851.398 401.143 849 400.351 846.031 404.408ZM898.278 439.126C888.42 449.64 885.374 462.97 897.608 449.302C903.434 439.735 910.378 428.75 909.343 433.31C908.147 438.595 914.659 428.263 917.152 424.523C919.051 421.678 920.519 412.797 915.49 415.337C921.233 407.23 917.644 414.274 918.813 411.015C929.208 391.337 912.106 405.94 909.171 413.748C907.404 419.836 907.006 425.64 911.691 422.53C909.753 430.405 902.033 440.747 898.278 439.126ZM874.835 453.259C857.589 478.254 890.779 450.492 885.191 441.406C892.036 428.534 864.866 453.331 874.835 453.259ZM857.407 427.157C857.189 427.143 856.971 427.143 856.753 427.157C855.812 427.228 854.89 427.462 854.028 427.848C844.708 431.877 850.345 440.277 857.301 434.301C861.754 430.233 860.536 427.328 857.407 427.157ZM871.468 476.534C871.468 476.534 872.736 478.337 869.496 480.545C867.392 484.07 869.956 486.732 876.214 478.282C884.759 468.853 876.591 473.894 871.468 476.534ZM883.79 493.688C888.525 488.835 880.7 486.245 876.873 496.571C874.154 492.304 853.004 507.871 866.151 506.532C879.941 505.143 877.82 493.123 888.686 494.286C896.057 492.736 895.885 497.285 868.366 520.991C849.055 537.592 883.048 525.971 865.11 535.866C832.28 548.366 831.627 568.63 840.742 567.496C848.989 566.467 888.126 537.968 877.997 530.697C882.849 526.442 904.403 505.403 894.949 504.805C899.823 496.477 901.933 488.602 883.79 493.677V493.688ZM848.806 492.061C847.379 492.067 845.968 492.36 844.658 492.924C834.955 496.798 828.924 503.101 826.382 504.545C829.018 501.64 819.183 501.369 808.284 505.729C797.385 510.09 779.452 529.17 772.375 539.241C750.161 544.498 761.232 547.757 752.692 556.052C752.969 560.778 738.293 570.49 761.719 568.702C771.289 567.972 782.094 557.253 785.733 552.616C786.94 561.58 814.148 547.591 819.653 541.438C808.81 553.059 796.853 572.366 812.011 566.428C821.226 562.82 844.841 540.348 850.844 528.174C854.543 520.665 851.846 512.818 848.568 512.453C852.478 505.912 853.934 503.001 853.552 498.275C854.106 494.844 852.361 492.133 848.806 492.05V492.061ZM817.35 513.177C804.435 518.517 798.271 534.482 778.799 536.181C778.799 536.181 796.039 509.913 812.581 515.369C815.422 513.858 816.929 513.189 817.35 513.166V513.177Z" fill="#FEFFFF"/>
<path fill-rule="evenodd" clip-rule="evenodd" d="M852.594 520.111C852.45 515.889 850.611 512.68 848.546 512.447C853.098 508.214 851.68 507.107 852.5 505.071C847.383 516.371 803.333 552.528 800.685 540.259C796.415 548.09 788.889 551.128 783.373 547.686C770.852 564.884 747.758 564.342 748.323 565.454C749.812 568.387 753.307 570.401 761.697 568.697C771.112 566.777 782.072 557.248 785.71 552.611C786.918 561.575 814.126 547.586 819.631 541.433C814.065 547.403 808.206 555.388 805.869 560.95C798.963 587.644 858.043 531.046 852.594 520.111Z" fill="url(#paint1_radial_35_1927)"/>
<path fill-rule="evenodd" clip-rule="evenodd" d="M693.041 682.137C691.12 680.383 685.249 682.419 686.163 686.785C670.246 677.931 678.62 689.303 669.1 699.026C661.485 708.433 669.305 706.125 671.221 703.729C671.221 703.729 683.66 702.069 686.451 692.263C695.151 691.007 697.189 685.933 693.041 682.137ZM521.272 809.317C516.542 815.858 526.527 814.939 526.527 814.939C527.591 812.366 525.691 803.385 521.272 809.317ZM662.083 757.826C663.119 766.99 661.895 754.932 652.558 767.073C652.945 771.157 661.02 765.053 663.634 760.433C698.374 742.885 669.227 734.242 662.083 757.826ZM676.848 706.767C673.569 711.493 679.063 709.728 679.744 707.935C682.236 703.486 679.838 702.705 676.87 706.745L676.848 706.767ZM445.366 833.084C412.609 851.899 450.451 845.065 450.295 832.47C458.281 821.928 443.938 828.89 445.366 833.084ZM756.685 619.191C756.469 619.18 756.253 619.18 756.037 619.191C755.094 619.265 754.17 619.5 753.307 619.889C747.83 622.816 746.883 630.668 751.092 627.984C755.55 623.939 759.814 619.363 756.685 619.191ZM710.387 553.977C710.387 553.977 711.655 555.781 708.415 557.989C706.311 561.514 708.875 564.176 715.138 555.726C723.678 546.296 715.509 551.332 710.387 553.977ZM728.745 579.349C754.331 558.044 719.076 564.773 724.021 580.577C718.013 581.252 711.677 590.787 718.788 587.821C722.576 587.218 726.048 585.303 728.745 579.349ZM581.266 695.119C587.469 688.163 572.543 692.352 569.436 700.099C569.436 700.099 565.322 693.21 551.033 709.506C544.227 717.253 523.847 735.216 534.419 733.766C544.991 732.316 572.975 714.547 572.632 704.515C577.284 701.992 585.159 695.069 581.266 695.119Z" fill="#FEFFFF"/>
<path fill-rule="evenodd" clip-rule="evenodd" d="M663.988 713.784C658.871 719.163 665.362 723.286 669.626 717.857C673.797 711.405 668.408 707.852 663.988 713.784Z" fill="#FEFFFF"/>
</g>
<defs>
<radialGradient id="paint0_radial_35_1927" cx="0" cy="0" r="1" gradientUnits="userSpaceOnUse" gradientTransform="translate(715.885 326.514) scale(740.266 739.675)">
<stop stop-color="#CDF8FF"/>
<stop offset="0.0001" stop-color="#D0F3F8"/>
<stop offset="1" stop-color="white"/>
</radialGradient>
<radialGradient id="paint1_radial_35_1927" cx="0" cy="0" r="1" gradientUnits="userSpaceOnUse" gradientTransform="translate(801.942 516.288) scale(90.8968 90.8241)">
<stop stop-color="#93D3DD"/>
<stop offset="1" stop-color="white"/>
</radialGradient>
</defs>
</svg>
