<svg width="550" height="497" viewBox="0 0 550 497" fill="none" xmlns="http://www.w3.org/2000/svg">
<path opacity="0.58" fill-rule="evenodd" clip-rule="evenodd" d="M0.474854 0C15.5869 20.3032 19.1382 9.60136 23.857 16.0381C33.2588 18.6948 45.7325 29.5301 28.1584 27.6157C28.941 31.2948 30.5945 29.6376 31.7848 31.1027C36.6504 32.6166 37.4526 35.1008 34.9285 36.2371C38.2385 41.6482 51.857 47.8147 39.631 49.625C41.8878 56.0845 56.5595 59.5812 57.2182 65.8486C57.8183 70.3221 65.133 71.4551 61.7284 74.7467C54.2506 73.6691 49.7699 75.7951 47.0533 76.3974C44.3369 76.9998 39.0505 81.903 38.444 84.3221C39.0179 87.7048 32.5088 86.6467 37.6124 99.9499C38.219 108.115 53.8104 122.337 53.8104 122.337C54.6648 124.795 51.2015 123.014 53.918 126.341C56.6345 129.669 97.4147 158.457 105.688 171.46C107.863 174.876 117.102 176.263 120.445 176.565C128.598 180.29 137.533 172.899 136.017 170.178C147.205 173.163 149.994 174.667 159.823 180.499C165.608 182.976 166.462 178.545 166.462 178.545C166.462 178.545 173.77 182.332 173.467 186.87C173.164 191.409 169.554 193.115 171.367 194.928C173.18 196.742 186.795 200.642 184.676 208.205C182.556 215.769 177.139 208.632 171.866 214.535C168.073 218.767 169.619 226.135 169.619 226.135C173.673 225.692 183.837 227.164 181.63 237.963C184.056 243.407 200.962 251.963 215.871 253.992C219.188 254.441 227.22 254.037 229.77 261.155C230.497 261.435 233.38 258.094 236.133 261.155C266.246 265.993 244.765 280.364 280.699 283.62C283.928 277.434 292.371 277.368 305.017 280.898C313.894 283.375 328.259 292.225 326.655 302.386C328.455 302.503 330.02 300.976 331.22 299.456C333.519 300.634 336.128 304.479 336.438 308.702C336.369 310.578 343.714 316.539 340.006 325.059C341.564 327.7 351.005 330.145 346.075 336.23C349.394 339.424 375.881 350.318 375.213 350.764C375.213 350.764 373.967 352.115 375.783 353.323C388.883 356.904 401.383 366.555 393.566 375.065C392.588 379.08 421.644 387.522 433.73 390.276C440.657 391.852 443.719 395.486 438.742 396.733C441.159 398.107 500.88 411.586 541.497 414.314C548.498 414.783 552.731 416.564 547.983 417.853C542.022 419.481 533.68 415.206 521.01 417.375C508.706 419.481 441.355 407.744 411.868 397.95C383.268 388.45 367.474 381.964 339.999 376.4C329.606 374.297 318.567 376.628 313.418 376.023C314.781 378.972 302.209 376.931 302.209 376.931C302.209 376.931 311.751 383.81 322.353 386.532C332.955 389.254 344.695 393.044 354.084 394.548C345.223 395.15 332.199 393.337 326.746 391.523C321.293 389.71 313.418 389.179 307.965 388.268C302.513 387.356 283.882 382.222 281.762 383.732C281.156 386.757 276.763 384.94 277.066 386.757C268.952 388.141 239.664 379.496 231.551 373.083C228.365 372.503 232.32 370.716 229.356 369.677C226.056 368.521 220.766 367.369 216.406 368.544C213.187 369.413 216.833 372.181 210.347 371.116C202.051 369.752 202.364 368.775 186.867 361.967C185.354 364.386 187.699 366.353 184.584 366.805C218.63 380.574 225.655 388.359 241.882 394.864C261.103 402.567 291.066 408.808 303.331 412.322C275.993 408.239 269.197 405.214 244.491 398.032C228.541 393.396 214.919 383.032 201.77 379.356C192.965 376.892 185.259 371.718 182.836 372.324C181.131 375.44 157.351 368.147 177.524 376.143C171.285 376.257 170.023 375.062 163.152 373.131C144.42 350.367 80.3689 328.455 68.3321 315.995C69.7703 315.767 69.8452 314.862 65.6058 312.443C61.3663 310.024 40.9974 292.7 40.9974 289.373C40.9974 286.045 44.102 288.467 42.5888 285.746C41.0757 283.024 30.1673 275.461 26.2311 274.855C22.2949 274.249 15.1988 279.954 0.960754 266.95C-0.0143433 238.979 0.784668 23.6306 0.474854 0ZM168.2 267.057C168.732 269.88 169.436 270.935 166.788 273.227C170.343 276.157 176.676 282.04 172.084 285.925C175.616 288.393 180.028 291.564 180.736 294.738C181.444 297.913 173.255 287.487 153.904 281.168C150.548 280.071 142.959 280.637 142.607 282.754C145.943 284.932 156.526 290.737 150.372 300.553C150.02 303.021 160.964 307.781 163.09 309.191C165.216 310.6 163.619 312.538 164.855 313.596C171.36 319.209 177.11 316.78 179.027 317.623C185.55 320.941 189.117 320.768 192.567 319.059C195.48 317.525 215.177 331.893 216.928 335.097C219.576 332.098 224.941 325.981 229.284 327.342C233.168 323.816 240.408 326.99 244.996 326.99C252.468 322.712 265.264 325.037 264.416 328.221C266.435 329.37 275.266 331.477 278.273 328.576C272.077 327.254 255.057 321.527 254.705 316.591C254.03 314.452 246.05 308.383 244.468 310.079C242.094 311.626 232.617 310.558 213.752 294.22C211.929 295.171 182.875 277.186 168.2 267.057ZM173.845 301.894C174.602 301.846 175.916 302.22 178 303.275C184.059 304.789 187.089 306.299 189.512 308.719C191.935 311.138 190.418 313.557 187.995 313.859C185.362 313.623 182.81 312.825 180.511 311.521C178.212 310.217 176.219 308.437 174.667 306.299C173.209 304.229 172.182 302.008 173.845 301.904V301.894Z" fill="#BCFFFF"/>
<path opacity="0.58" fill-rule="evenodd" clip-rule="evenodd" d="M22.6536 17.1286C25.0049 16.8551 38.4798 25.9193 21.2872 24.2621C22.3764 27.697 21.2383 28.1691 27.8094 31.6886C29.1139 33.5932 23.4656 32.1867 27.7605 35.9211C31.8825 39.6979 34.8306 41.1565 37.1069 44.9495C37.7591 47.9448 27.0757 44.5002 27.4474 45.9555C29.1465 52.6006 45.5662 58.7183 46.1271 63.6801C44.9368 65.5848 53.5265 70.4424 49.6915 70.055C42.1583 69.4624 37.2993 73.9391 36.1187 83.7293C34.886 85.0056 34.2664 87.9424 32.5315 87.6363C27.1376 87.8512 29.5574 107.497 42.5725 123.499C46.6228 128.91 35.036 122.613 48.6479 136.665C56.1159 144.378 59.8369 153.55 45.514 151.349C55.0887 159.121 77.1077 193.847 119.825 206.154C117.48 203.289 112.491 194.583 125.434 194.515C135.247 194.462 159.072 201.417 157.964 213.437C157.24 221.251 151.924 222.339 129.422 218.523C139.033 223.267 137.927 232.116 138.661 232.116C142.715 231.673 153.131 237.136 163.905 242.948C182.556 244.403 202.087 265.058 210.865 272.683C216.631 277.691 226.708 281.952 220.769 286.833C221.497 287.113 228.626 290.74 231.375 293.813C232.405 289.18 250.86 297.72 255.719 300.077C256.045 291.713 264.256 291.391 273.176 298.479C278.752 302.91 298.514 310.783 308.914 312.726C313.385 313.563 324.734 321.087 311.996 328.748C315.042 331.297 315.032 334.521 317.321 336.126C318.127 335.133 319.356 334.237 321.887 334.039C339.295 347.788 375.069 363.504 382.759 365.295C386.428 366.148 382.892 371.542 374.824 374.323C378.832 383.019 423.317 395.661 457.115 404.833C481.574 411.478 529.783 415.346 521.01 417.365C508.706 419.471 441.354 407.734 411.867 397.94C383.268 388.44 367.474 381.954 339.999 376.39C329.603 374.287 318.567 376.618 313.418 376.013C314.781 378.962 302.209 376.921 302.209 376.921C302.209 376.921 311.751 383.8 322.353 386.522C332.955 389.244 344.692 393.034 354.084 394.538C345.223 395.14 332.198 393.327 326.746 391.513C321.293 389.7 313.418 389.169 307.965 388.258C302.513 387.346 283.882 382.212 281.762 383.722C281.156 386.747 276.763 384.93 277.066 386.747C268.949 388.131 239.664 379.487 231.551 373.073C228.365 372.493 232.32 370.706 229.356 369.667C226.056 368.511 220.766 367.359 216.403 368.534C213.187 369.403 216.833 372.171 210.347 371.106C202.051 369.742 202.364 368.765 186.867 361.957C185.351 364.376 187.699 366.343 184.584 366.795C233.501 385.243 225.492 387.06 241.719 393.565C260.94 401.268 291.066 408.799 303.331 412.312C275.993 408.229 269.197 405.204 244.488 398.022C228.541 393.386 214.919 383.022 201.767 379.347C192.962 376.882 185.256 371.708 182.833 372.314C180.491 372.929 183.459 375.28 176.699 375.869C182.076 377.53 205.742 387.61 216.7 393.701C221.66 396.462 219.309 393.675 242.41 402.818C220.372 396.993 212.121 394.193 199.037 386.626C186.371 380.564 176.089 382.12 162.246 374.254C140.435 361.863 116.045 348.185 99.9909 338.206C83.9364 328.227 68.3353 317.49 68.3353 315.976C69.7767 315.748 69.8517 314.843 65.609 312.423C61.3663 310.004 40.9974 292.7 40.9974 289.372C40.9974 286.045 44.102 288.467 42.5856 285.745C41.0692 283.024 30.1672 275.46 26.2278 274.855C22.2883 274.249 0.207367 283.912 0.383453 264.648C0.553009 246.21 -0.715546 96.2968 0.61496 6.60913C10.7994 24.2198 16.5716 12.6389 17.8043 16.8031L22.6536 17.1286ZM145.721 247.125C145.477 247.106 145.231 247.113 144.988 247.145C142.379 247.503 138.792 249.245 141.368 254.369C143.106 257.814 148.868 260.62 151.513 267.239C155.355 269.916 158.547 273.631 158.759 275.252C159.911 279.566 144.27 273.898 139.979 270.043C139.626 271.345 137.562 272.292 136.163 272.429C138.72 275.034 142.959 280.624 142.607 282.74C145.943 284.918 156.526 290.72 150.372 300.54C150.251 301.39 152.436 304.046 156.046 305.209C156.046 306.296 153.255 309.741 150.584 309.116C146.997 308.295 147.707 304.899 143.628 303.255C143.246 303.102 147.711 300.032 144.28 290.111C144.632 300.335 138.668 301.585 138.315 301.461C129.282 298.358 120.705 298.017 120.379 298.677C124.12 300.419 132.671 303.102 142.819 316.747C144.424 316.21 148.656 315.311 151.872 317.704C153.913 319.222 161.489 327.924 162.725 328.983C164.91 323.845 173.836 327.765 175.753 328.605C188.993 327.693 192.711 331.047 196.177 332.066C202.005 330.728 212.398 338.747 220.098 346.167C226.137 339.329 222.863 334.983 221.321 332.437C222.863 332.196 224.608 332.463 226.714 333.124C230.06 343.542 240.757 339.31 240.926 337.529C248.398 333.254 269.314 336.471 284.795 344.405C297.839 343.728 287.019 335.996 295.129 332.414C294.151 330.461 289.559 330.656 289.559 330.656C279.76 333.3 278.615 328.455 278.615 328.455C276.143 327.928 255.047 321.491 254.695 316.558C254.02 314.419 246.04 308.35 244.458 310.047C242.084 311.593 232.607 310.525 213.742 294.188C212.163 295.028 190.073 281.594 174.67 271.397C175.505 268.792 172.785 265.726 169.609 264.212C159.767 253.002 149.791 247.389 145.721 247.125ZM236.827 273.624C239.912 273.536 242.557 276.076 244.461 277.205C248.962 279.849 250.638 280.644 251.698 282.845C252.644 284.798 252.846 286.195 251.61 287.25C252.934 288.132 255.95 290.144 253.73 291.658C251.773 292.986 248.512 291.922 246.05 289.63C242.942 286.748 236.782 285.049 233.781 282.317C231.825 280.533 231.515 276.164 233.605 274.738C234.547 274.059 235.667 273.672 236.827 273.624ZM320.801 309.715C321.041 309.724 321.279 309.751 321.515 309.796C324.346 310.35 327.62 313.316 328.223 315.875C328.944 318.935 327.245 322.132 324.515 322.061C321.786 321.989 321.104 319.511 319.043 317.128C316.408 314.064 317.39 309.617 320.801 309.715Z" fill="url(#paint0_radial_35_1935)"/>
<g opacity="0.58">
<path fill-rule="evenodd" clip-rule="evenodd" d="M9.88231 208.88C10.5541 208.763 14.2424 209.502 16.9035 212.755C22.5387 219.647 14.9468 214.467 22.8387 222.922C26.8629 230.053 22.2582 226.644 18.6156 223.867C18.6156 223.867 15.8338 223.45 12.6183 219.172C10.0095 215.691 6.62446 209.463 9.88231 208.88ZM33.9624 213.061C34.4504 213.086 34.9254 213.227 35.3484 213.472C35.7713 213.716 36.1301 214.057 36.3952 214.467C39.1802 218.316 34.0406 221.956 31.0404 218.745C28.7902 216.343 31.3633 212.969 33.9624 213.061ZM16.0752 225.742C16.6295 226.162 19.9396 224.987 21.4397 229.167C19.9135 232.048 22.0071 231.57 23.6213 234.152C23.3931 236.555 20.2363 232.735 18.6873 230.007C15.0381 227.119 16.1763 229.639 15.86 228.096C15.5338 226.501 13.9228 224.13 16.0752 225.742ZM53.5225 223.642C53.5225 223.642 62.7873 236.948 70.1248 239.612C68.4649 240.201 62.2981 229.398 76.9405 240.683C83.0584 245.974 79.0799 246.25 80.9844 248.07C84.9238 250.62 87.6044 258.196 73.4283 255.178C70.4314 254.321 70.9825 259.143 78.3918 265.577C82.6312 268.93 85.6086 271.343 88.3512 275.523C95.6854 286.684 89.4111 274.511 98.19 282.715C105.968 289.979 118.954 306.86 94.4365 293.267C98.1607 299.896 96.1453 299.681 93.7842 298.184C91.4232 296.686 96.7551 305.568 88.1848 296.8L84.7999 294.449C85.9869 297.49 81.2387 296.172 80.2343 295.195C79.044 294.049 78.4602 292.629 76.9732 287.811C74.873 290.77 68.0018 283.881 62.8395 275.318C61.1894 264.672 68.0377 270.307 71.6087 272.414C71.6739 269.738 65.8854 264.786 63.6026 263.226C58.437 259.694 57.6152 248.178 71.3673 260.231C71.2597 258.681 64.3233 251.922 66.355 250.626C59.024 241.438 55.0944 233.302 58.7501 234.673C57.2402 231.817 52.0224 226.8 53.5225 223.642ZM51.8137 237.938C53.741 240.719 50.5256 239.68 50.1082 238.625C48.6537 236.017 50.0658 235.552 51.8137 237.938ZM21.0484 258.365C26.8531 264.551 28.6467 272.394 21.4429 264.353C18.0122 258.723 13.9228 252.261 14.5327 254.943C15.2371 258.053 11.402 251.974 9.93446 249.773C8.8159 248.1 7.9517 242.874 10.9128 244.368C7.53101 239.599 9.64422 243.743 8.95612 241.826C2.83501 230.248 12.9054 238.84 14.6338 243.434C15.6741 247.015 15.9089 250.431 13.1499 248.601C14.2913 253.234 18.8373 259.319 21.0484 258.365ZM34.8527 266.68C45.0078 281.387 25.4639 265.053 28.7543 259.707C24.7236 252.134 40.7227 266.723 34.8527 266.68ZM45.1154 251.323C45.2435 251.315 45.372 251.315 45.5002 251.323C46.0546 251.365 46.5974 251.502 47.1046 251.73C52.5931 254.1 49.2733 259.042 45.1773 255.526C42.5554 253.133 43.2729 251.424 45.1154 251.323ZM36.8354 280.374C36.8354 280.374 36.0886 281.436 37.9964 282.735C39.2356 284.809 37.7257 286.375 34.0407 281.403C29.0088 275.855 33.8188 278.821 36.8354 280.374ZM29.5794 290.467C26.7911 287.612 31.3991 286.088 33.6525 292.164C35.2537 289.653 47.708 298.812 39.9661 298.024C31.8459 297.207 33.0949 290.135 26.6966 290.819C22.3561 289.907 22.4572 292.584 38.6616 306.532C50.0331 316.299 30.0164 309.462 40.5791 315.283C59.911 322.638 60.2958 334.561 54.928 333.893C50.0722 333.288 27.0259 316.52 32.9905 312.242C30.1338 309.738 17.4416 297.36 23.0083 297.008C20.1385 292.108 18.896 287.475 29.5794 290.461V290.467ZM50.1799 289.51C51.0201 289.513 51.8509 289.686 52.6225 290.018C58.3359 292.297 61.8873 296.006 63.3842 296.855C61.8319 295.146 67.6236 294.986 74.0414 297.552C80.4593 300.118 91.0188 311.344 95.1865 317.269C108.267 320.362 101.748 322.28 106.776 327.16C106.613 329.941 115.255 335.655 101.461 334.603C95.8257 334.173 89.4632 327.867 87.3207 325.138C86.6098 330.413 70.5879 322.182 67.3464 318.562C73.7316 325.399 80.7724 336.758 71.8467 333.265C66.4202 331.142 52.5148 317.92 48.9798 310.758C46.8013 306.339 48.3895 301.723 50.3201 301.508C48.0178 297.659 47.1601 295.947 47.3851 293.166C47.059 291.148 48.0863 289.553 50.1799 289.504V289.51ZM68.703 301.934C76.3079 305.076 79.9375 314.469 91.4036 315.469C91.4036 315.469 81.2518 300.013 71.5108 303.224C69.8379 302.335 68.9508 301.941 68.703 301.928V301.934Z" fill="#FEFFFF"/>
<path fill-rule="evenodd" clip-rule="evenodd" d="M47.9493 306.014C48.0341 303.53 49.1168 301.641 50.3332 301.505C47.6525 299.014 48.4873 298.363 48.0047 297.165C51.018 303.813 76.9569 325.086 78.5157 317.868C81.03 322.475 85.4619 324.263 88.7099 322.237C96.0833 332.357 109.682 332.037 109.35 332.692C108.472 334.417 106.414 335.603 101.474 334.6C95.93 333.47 89.4763 327.864 87.3338 325.135C86.6228 330.41 70.601 322.179 67.3594 318.558C70.6369 322.071 74.0872 326.77 75.4633 330.042C79.5299 345.748 44.7404 312.447 47.9493 306.014Z" fill="url(#paint1_radial_35_1935)"/>
<path fill-rule="evenodd" clip-rule="evenodd" d="M141.902 401.344C143.034 400.312 146.49 401.51 145.952 404.079C155.325 398.869 150.394 405.56 156 411.281C160.484 416.815 155.879 415.458 154.751 414.048C154.751 414.048 147.426 413.071 145.783 407.302C140.66 406.563 139.459 403.577 141.902 401.344ZM243.049 476.172C245.834 480.02 239.954 479.48 239.954 479.48C239.328 477.966 240.446 472.682 243.049 476.172ZM160.132 445.877C159.522 451.268 160.243 444.174 165.741 451.317C165.512 453.72 160.758 450.129 159.219 447.41C138.762 437.086 155.925 432 160.132 445.877ZM151.438 415.835C153.368 418.616 150.133 417.577 149.732 416.522C148.264 413.905 149.677 413.446 151.424 415.822L151.438 415.835ZM287.746 490.156C307.035 501.225 284.752 497.204 284.843 489.794C280.141 483.592 288.587 487.688 287.746 490.156ZM104.425 364.309C104.552 364.303 104.68 364.303 104.807 364.309C105.363 364.352 105.906 364.491 106.415 364.719C109.64 366.442 110.197 371.062 107.719 369.483C105.094 367.103 102.583 364.41 104.425 364.309ZM131.688 325.939C131.688 325.939 130.941 327.001 132.849 328.3C134.088 330.374 132.578 331.94 128.89 326.968C123.862 321.42 128.672 324.383 131.688 325.939ZM120.878 340.867C105.811 328.332 126.572 332.291 123.659 341.59C127.198 341.987 130.928 347.597 126.741 345.852C124.511 345.497 122.466 344.371 120.878 340.867ZM207.721 408.982C204.069 404.889 212.857 407.354 214.687 411.912C214.687 411.912 217.11 407.859 225.523 417.447C229.531 422.005 241.532 432.573 235.307 431.72C229.081 430.867 212.603 420.413 212.805 414.51C210.066 413.026 205.428 408.953 207.721 408.982Z" fill="#FEFFFF"/>
<path fill-rule="evenodd" clip-rule="evenodd" d="M159.01 419.964C162.023 423.128 158.201 425.554 155.69 422.36C153.234 418.564 156.407 416.474 159.01 419.964Z" fill="#FEFFFF"/>
</g>
<defs>
<radialGradient id="paint0_radial_35_1935" cx="0" cy="0" r="1" gradientUnits="userSpaceOnUse" gradientTransform="translate(128.451 192.109) rotate(180) scale(435.906 435.197)">
<stop stop-color="#93D3DD"/>
<stop offset="0.0001" stop-color="#D0F3F8"/>
<stop offset="1" stop-color="white"/>
</radialGradient>
<radialGradient id="paint1_radial_35_1935" cx="0" cy="0" r="1" gradientUnits="userSpaceOnUse" gradientTransform="translate(77.7754 303.764) rotate(180) scale(53.5247 53.4375)">
<stop stop-color="#8AEFFF"/>
<stop offset="1" stop-color="white"/>
</radialGradient>
</defs>
</svg>
