<svg width="212" height="64" viewBox="0 0 212 64" fill="none" xmlns="http://www.w3.org/2000/svg">
<g clip-path="url(#clip0_13_856)">
<rect x="1.45456" y="1.45453" width="208.727" height="61.0909" rx="9" fill="white"/>
<path d="M50.9242 31.1837L42.8609 26.5595L36.2286 32.9352L42.2902 38.7615L50.9242 33.8047C51.1551 33.672 51.3468 33.4813 51.4801 33.2516C51.6134 33.0219 51.6836 32.7614 51.6836 32.4963C51.6836 32.2311 51.6134 31.9706 51.4801 31.7409C51.3468 31.5113 51.1551 31.3205 50.9242 31.1878V31.1837Z" fill="#FFD109"/>
<path d="M41.4931 25.7697L32.6187 20.6772L13.1732 10.7678L35.1364 31.8798L41.4931 25.7697Z" fill="#06EF79"/>
<path d="M13.4951 54.7839L32.6524 44.2901L40.921 39.5429L35.1364 33.9822L13.4951 54.7839Z" fill="#F93646"/>
<path d="M11.8757 11.6219L11.8546 54.2597L34.0441 32.931L11.8757 11.6219Z" fill="#05D5FB"/>
<path d="M203.456 1.39787C205.252 1.40009 206.974 2.11052 208.244 3.37334C209.514 4.63617 210.228 6.34829 210.231 8.1342V55.8644C210.229 57.6506 209.514 59.363 208.245 60.6262C206.975 61.8893 205.253 62.5999 203.456 62.6021H8.17994C6.38374 62.5999 4.6618 61.8893 3.39182 60.6262C2.12185 59.363 1.40757 57.6506 1.40571 55.8644V8.1342C1.40794 6.34829 2.12237 4.63617 3.3923 3.37334C4.66224 2.11052 6.38398 1.40009 8.17994 1.39787H203.456ZM203.456 0H8.17994C6.01047 0 3.92987 0.856993 2.39583 2.38245C0.861786 3.90791 -3.03968e-05 5.97687 -3.03968e-05 8.1342V55.8644C-0.000215021 56.9327 0.211221 57.9906 0.622221 58.9777C1.03322 59.9647 1.63575 60.8616 2.39535 61.6171C3.15495 62.3725 4.05676 62.9718 5.04929 63.3807C6.04183 63.7896 7.10561 64 8.17994 64H203.456C204.531 64 205.594 63.7896 206.587 63.3807C207.58 62.9718 208.481 62.3725 209.241 61.6171C210.001 60.8616 210.603 59.9647 211.014 58.9777C211.425 57.9906 211.637 56.9327 211.636 55.8644V8.1342C211.636 5.97687 210.775 3.90791 209.24 2.38245C207.706 0.856993 205.626 0 203.456 0Z" fill="black"/>
<path d="M69.3576 38.6595H72.3097V45.3175C71.4071 46.0218 70.3822 46.5553 69.2859 46.8915C68.1382 47.2571 66.9402 47.4424 65.735 47.4409C64.1217 47.4645 62.5285 47.0827 61.1031 46.331C59.7632 45.6231 58.6447 44.5626 57.8699 43.2654C57.0988 41.9205 56.6933 40.3991 56.6933 38.851C56.6933 37.3028 57.0988 35.7814 57.8699 34.4365C58.6488 33.1357 59.774 32.0743 61.1214 31.3696C62.559 30.6167 64.1638 30.2351 65.7884 30.2597C67.1015 30.2445 68.4051 30.4818 69.6275 30.9586C70.744 31.3947 71.7397 32.0896 72.5317 32.9855L70.5637 34.895C69.9636 34.2791 69.2431 33.792 68.4465 33.4636C67.6499 33.1352 66.7941 32.9725 65.9318 32.9855C64.8345 32.9652 63.7496 33.22 62.7774 33.7264C61.875 34.2023 61.1261 34.9218 60.6167 35.8022C60.0866 36.7326 59.8177 37.7874 59.8379 38.8566C59.822 39.9101 60.091 40.9485 60.6167 41.8634C61.1299 42.7461 61.8774 43.4715 62.7774 43.9602C63.7371 44.4791 64.8156 44.7421 65.9079 44.7234C67.22 44.7234 68.3717 44.4368 69.3632 43.8637L69.3576 38.6595Z" fill="black"/>
<path d="M78.381 46.5336C77.3656 46.001 76.5214 45.1949 75.9449 44.2076C75.3705 43.1761 75.0692 42.0164 75.0692 40.8373C75.0692 39.6583 75.3705 38.4985 75.9449 37.4671C76.5239 36.4845 77.3677 35.6827 78.381 35.1522C79.4702 34.6029 80.6742 34.3167 81.8954 34.3167C83.1166 34.3167 84.3206 34.6029 85.4097 35.1522C86.4227 35.6818 87.2669 36.482 87.8472 37.4629C88.4216 38.4943 88.723 39.6541 88.723 40.8331C88.723 42.0122 88.4216 43.1719 87.8472 44.2034C87.2704 45.1904 86.4263 45.9964 85.4111 46.5294C84.322 47.0787 83.118 47.365 81.8968 47.365C80.6756 47.365 79.4716 47.0787 78.3824 46.5294L78.381 46.5336ZM84.6197 43.7183C85.3394 42.9868 85.6993 42.0246 85.6993 40.8317C85.6993 39.6389 85.3394 38.6762 84.6197 37.9437C83.8999 37.2122 82.9881 36.8464 81.8841 36.8464C80.7802 36.8464 79.8721 37.2122 79.1598 37.9437C78.4476 38.6762 78.0915 39.6389 78.0915 40.8317C78.0915 42.0246 78.4471 42.9868 79.1584 43.7183C79.8716 44.4508 80.7797 44.8166 81.8827 44.8157C82.9858 44.8147 83.8981 44.4489 84.6197 43.7183Z" fill="black"/>
<path d="M93.8582 46.5336C92.8427 46.001 91.9985 45.1949 91.4221 44.2076C90.8477 43.1761 90.5463 42.0164 90.5463 40.8373C90.5463 39.6583 90.8477 38.4985 91.4221 37.4671C92.001 36.4845 92.8449 35.6827 93.8582 35.1522C94.9473 34.6029 96.1513 34.3167 97.3725 34.3167C98.5937 34.3167 99.7977 34.6029 100.887 35.1522C101.9 35.6818 102.744 36.482 103.324 37.4629C103.899 38.4943 104.2 39.6541 104.2 40.8331C104.2 42.0122 103.899 43.1719 103.324 44.2034C102.748 45.1904 101.903 45.9964 100.888 46.5294C99.7991 47.0787 98.5951 47.365 97.3739 47.365C96.1527 47.365 94.9487 47.0787 93.8596 46.5294L93.8582 46.5336ZM100.097 43.7183C100.817 42.9868 101.176 42.0246 101.176 40.8317C101.176 39.6389 100.817 38.6762 100.097 37.9437C99.3771 37.2122 98.4653 36.8464 97.3613 36.8464C96.2573 36.8464 95.3492 37.2122 94.637 37.9437C93.9257 38.6762 93.57 39.6389 93.57 40.8317C93.57 42.0246 93.9257 42.9868 94.637 43.7183C95.3501 44.4508 96.2583 44.8166 97.3613 44.8157C98.4643 44.8147 99.3762 44.4489 100.097 43.7183Z" fill="black"/>
<path d="M119.797 34.4602V45.27C119.797 49.7562 117.493 51.9988 112.886 51.9979C111.702 52.0044 110.524 51.8478 109.383 51.5324C108.387 51.2771 107.455 50.8181 106.648 50.1849L107.991 47.9483C108.622 48.4478 109.343 48.8244 110.114 49.0582C110.954 49.3345 111.833 49.4761 112.718 49.4775C114.123 49.4775 115.154 49.1593 115.81 48.5228C116.466 47.8863 116.794 46.9162 116.794 45.6124V44.9443C116.277 45.5018 115.636 45.9324 114.923 46.2023C114.15 46.4958 113.327 46.6418 112.5 46.6329C111.352 46.6493 110.219 46.3827 109.2 45.8571C108.236 45.3579 107.43 44.6019 106.872 43.6736C106.314 42.6929 106.021 41.5853 106.021 40.4585C106.021 39.3317 106.314 38.2241 106.872 37.2434C107.432 36.3224 108.239 35.5753 109.203 35.0865C110.224 34.5683 111.356 34.3058 112.502 34.3219C113.367 34.3112 114.226 34.4654 115.033 34.7762C115.777 35.0676 116.434 35.5441 116.94 36.1601V34.4602H119.797ZM115.754 43.0865C116.481 42.4099 116.845 41.5307 116.845 40.4487C116.845 39.3835 116.481 38.5169 115.754 37.8487C115.027 37.1805 114.093 36.8464 112.954 36.8464C111.802 36.8464 110.862 37.1805 110.134 37.8487C109.406 38.5169 109.042 39.3835 109.043 40.4487C109.043 41.5307 109.407 42.4099 110.134 43.0865C110.861 43.7631 111.801 44.1009 112.954 44.0999C114.092 44.0999 115.026 43.7621 115.754 43.0865Z" fill="black"/>
<path d="M123.731 29.495H126.73V47.2018H123.73L123.731 29.495Z" fill="black"/>
<path d="M142.664 41.7851H132.61C132.757 42.6817 133.252 43.4851 133.989 44.0217C134.739 44.5705 135.663 44.845 136.761 44.845C138.167 44.845 139.327 44.3837 140.24 43.4611L141.849 45.2909C141.263 45.9828 140.511 46.5169 139.663 46.8439C138.714 47.2072 137.704 47.3856 136.688 47.3695C135.282 47.3695 134.043 47.09 132.969 46.5308C131.933 46.0088 131.071 45.2012 130.485 44.2048C129.892 43.1784 129.59 42.0121 129.609 40.8289C129.591 39.6556 129.885 38.4984 130.461 37.474C131.015 36.4941 131.834 35.6882 132.825 35.148C133.869 34.5807 135.042 34.2918 136.231 34.3093C137.4 34.29 138.554 34.5738 139.58 35.1326C140.553 35.6714 141.352 36.4742 141.884 37.4475C142.435 38.4409 142.71 39.5904 142.71 40.896C142.711 41.1076 142.696 41.4039 142.664 41.7851ZM133.798 37.5495C133.127 38.1265 132.695 38.9304 132.586 39.8057H139.857C139.756 38.9414 139.338 38.1446 138.681 37.5691C138.025 36.996 137.209 36.7094 136.233 36.7094C135.345 36.6833 134.479 36.9823 133.798 37.5495Z" fill="black"/>
<path d="M163.216 31.2144C164.231 31.638 165.096 32.3535 165.7 33.2692C166.276 34.1611 166.564 35.2193 166.564 36.4438C166.564 37.6553 166.276 38.7088 165.7 39.6044C165.099 40.5252 164.234 41.2447 163.216 41.669C162.136 42.1452 160.869 42.3838 159.413 42.3847H155.618V47.2046H152.498V30.4987H159.409C160.864 30.4987 162.133 30.7372 163.216 31.2144ZM162.364 38.9026C163.069 38.3295 163.421 37.5104 163.42 36.4452C163.419 35.38 163.067 34.5604 162.364 33.9863C161.661 33.4141 160.63 33.128 159.271 33.128H155.625V39.7609H159.271C160.631 39.7581 161.662 39.4706 162.364 38.8985V38.9026Z" fill="black"/>
<path d="M169.636 29.495H172.634V47.2018H169.636V29.495Z" fill="black"/>
<path d="M185.796 35.6652C186.796 36.5645 187.296 37.9204 187.296 39.733V47.2018H184.465V45.6516C184.079 46.2219 183.532 46.6659 182.893 46.9278C182.112 47.2407 181.275 47.3911 180.433 47.3696C179.568 47.3882 178.709 47.2213 177.914 46.8803C177.24 46.5924 176.662 46.1209 176.246 45.5202C175.853 44.9387 175.648 44.2522 175.658 43.552C175.658 42.4057 176.086 41.4869 176.941 40.7954C177.797 40.1039 179.145 39.7577 180.984 39.7568H184.296V39.5667C184.296 38.6758 184.028 37.9917 183.492 37.5146C182.956 37.0375 182.16 36.7989 181.102 36.7989C180.381 36.7986 179.664 36.9114 178.978 37.133C178.336 37.3273 177.737 37.6429 177.214 38.0626L176.039 35.8917C176.766 35.3557 177.588 34.9594 178.461 34.7231C179.437 34.4476 180.447 34.3106 181.461 34.3163C183.352 34.3163 184.797 34.7659 185.796 35.6652ZM183.061 44.6843C183.633 44.3552 184.071 43.836 184.296 43.2179V41.7376H181.204C179.476 41.7376 178.613 42.3023 178.613 43.4318C178.605 43.683 178.66 43.9322 178.773 44.1571C178.886 44.3819 179.053 44.5755 179.259 44.7206C179.692 45.0393 180.291 45.1973 181.06 45.1973C181.761 45.2097 182.453 45.0324 183.061 44.6843Z" fill="black"/>
<path d="M202.893 34.4603L196.894 48.2265C196.332 49.6104 195.652 50.5847 194.855 51.1494C194.057 51.7141 193.091 51.9979 191.956 52.0007C191.311 52 190.671 51.8952 190.06 51.6904C189.492 51.5161 188.969 51.2235 188.525 50.8321L189.724 48.636C190.02 48.9125 190.367 49.1311 190.744 49.2805C191.12 49.4367 191.523 49.518 191.931 49.5195C192.401 49.5377 192.863 49.3946 193.239 49.1141C193.582 48.8429 193.898 48.3896 194.187 47.754L194.403 47.2522L188.811 34.4631H191.931L195.962 43.8875L200.018 34.4631L202.893 34.4603Z" fill="black"/>
<path d="M62.0562 21.2266C61.3988 21.2313 60.7498 21.0804 60.1627 20.7863C59.5791 20.4948 59.0586 20.0926 58.6304 19.6023C58.1958 19.1067 57.8523 18.5389 57.6155 17.9249C57.3738 17.3111 57.2503 16.6577 57.2514 15.9986C57.2468 14.6645 57.735 13.3751 58.6234 12.3753C59.0488 11.8986 59.5672 11.5129 60.1472 11.2417C60.7449 10.9651 61.397 10.8247 62.0562 10.8307C63.0533 10.8307 63.8762 11.0376 64.5247 11.4513C65.1546 11.8451 65.6622 12.405 65.9909 13.0687L64.9886 13.7676C64.7239 13.2095 64.2923 12.7462 63.7529 12.441C63.2247 12.151 62.6301 12.0017 62.0267 12.0077C61.5323 12.0015 61.0439 12.1157 60.6041 12.3404C60.1788 12.5607 59.8051 12.868 59.5076 13.242C59.1975 13.6278 58.9594 14.0657 58.8048 14.535C58.6452 15.0191 58.5645 15.5255 58.5658 16.035C58.5623 16.5639 58.6532 17.0892 58.8343 17.5866C59.0043 18.0588 59.2628 18.4947 59.5962 18.8712C59.9159 19.2358 60.306 19.5329 60.7433 19.7449C61.1809 19.9573 61.6621 20.0659 62.149 20.0622C62.741 20.0629 63.3228 19.9086 63.8359 19.6149C64.4275 19.2644 64.9412 18.7979 65.3456 18.2436V19.5869C64.4207 20.6791 63.3242 21.2257 62.0562 21.2266ZM65.1924 17.026H62.9713V16.0475H66.2945V21.1567H65.1924V17.026Z" fill="black"/>
<path d="M75.28 19.9993V21.154H68.2836V10.9034H75.1493V12.058H69.5896V15.3766H74.4239V16.4585H69.5896V19.9951L75.28 19.9993Z" fill="black"/>
<path d="M84.4974 12.0608H80.9409V21.154H79.6378V12.0608H76.0812V10.9034H84.5002L84.4974 12.0608Z" fill="black"/>
<path d="M89.215 21.154V10.9034H90.521V21.1512L89.215 21.154Z" fill="black"/>
<path d="M94.2954 13.3021V21.154H92.9922V10.9034H94.0944L100.395 18.9146V10.9202H101.701V21.154H100.51L94.2954 13.3021Z" fill="black"/>
<path d="M112.019 21.2266C111.338 21.2347 110.665 21.0864 110.051 20.7933C109.466 20.5083 108.945 20.1079 108.52 19.6163C107.656 18.6183 107.18 17.346 107.178 16.0294C107.175 15.3596 107.301 14.6955 107.547 14.0724C107.788 13.4622 108.137 12.9001 108.578 12.4131C109.012 11.9312 109.537 11.5389 110.124 11.2584C110.727 10.9742 111.387 10.8308 112.054 10.8391C112.736 10.8309 113.411 10.9842 114.022 11.2864C114.606 11.5803 115.124 11.9877 115.546 12.4844C115.969 12.9827 116.302 13.5503 116.53 14.1618C116.881 15.086 116.97 16.0884 116.787 17.0595C116.604 18.0305 116.156 18.9329 115.492 19.668C115.059 20.1491 114.533 20.5393 113.946 20.8157C113.343 21.0948 112.684 21.2352 112.019 21.2266ZM108.49 16.0294C108.49 16.5428 108.576 17.0526 108.745 17.5377C108.906 18.0076 109.149 18.4454 109.463 18.8307C109.77 19.2024 110.15 19.507 110.581 19.7253C111.031 19.9496 111.529 20.0632 112.033 20.0566C112.549 20.0655 113.058 19.9464 113.516 19.71C113.947 19.482 114.325 19.1673 114.627 18.786C114.936 18.397 115.174 17.9569 115.329 17.486C115.487 17.0157 115.567 16.5235 115.568 16.028C115.57 15.5172 115.484 15.01 115.314 14.5281C115.152 14.0575 114.906 13.6195 114.589 13.235C114.281 12.8617 113.898 12.5569 113.464 12.3404C113.02 12.1208 112.53 12.0096 112.034 12.0161C111.521 12.0077 111.013 12.1238 110.554 12.3544C110.12 12.5798 109.74 12.8954 109.439 13.2798C109.134 13.6679 108.896 14.1046 108.736 14.5714C108.574 15.0405 108.491 15.5332 108.49 16.0294Z" fill="black"/>
<path d="M120.002 13.3021V21.154H118.695V10.9034H119.798L126.099 18.9146V10.9202H127.405V21.154H126.214L120.002 13.3021Z" fill="black"/>
</g>
<defs>
<clipPath id="clip0_13_856">
<rect width="211.636" height="64" fill="white"/>
</clipPath>
</defs>
</svg>
