<svg width="54" height="54" viewBox="0 0 54 54" fill="none" xmlns="http://www.w3.org/2000/svg">
<g clip-path="url(#clip0_42_253)">
<path d="M27 53.9326C41.9117 53.9326 54 41.8443 54 26.9326C54 12.0209 41.9117 -0.0673828 27 -0.0673828C12.0883 -0.0673828 0 12.0209 0 26.9326C0 41.8443 12.0883 53.9326 27 53.9326Z" fill="#1D9BF0"/>
<path d="M41.1529 21.1192C41.1747 21.4355 41.1747 21.7519 41.1747 22.0712C41.1747 31.7998 33.7822 43.0199 20.2648 43.0199V43.014C16.2717 43.0199 12.3615 41.8739 9 39.7133C9.58063 39.7833 10.1642 39.8183 10.7492 39.8198C14.0583 39.8227 17.2729 38.7103 19.8762 36.6619C16.7315 36.6022 13.9739 34.548 13.0106 31.549C14.1122 31.7619 15.2472 31.7182 16.3284 31.4222C12.9 30.7282 10.4334 27.7104 10.4334 24.2056C10.4334 24.1735 10.4334 24.1429 10.4334 24.1123C11.4549 24.6823 12.5987 24.9987 13.7687 25.0337C10.5396 22.8716 9.54425 18.5678 11.4942 15.203C15.2254 19.8027 20.7305 22.5989 26.6401 22.8949C26.0478 20.3377 26.8569 17.6581 28.7661 15.8605C31.726 13.073 36.3812 13.2159 39.1636 16.1798C40.8094 15.8547 42.3869 15.2496 43.8305 14.3924C43.2818 16.0967 42.1337 17.5444 40.5999 18.4643C42.0566 18.2923 43.4798 17.9016 44.82 17.3053C43.8334 18.7865 42.5906 20.0768 41.1529 21.1192Z" fill="white"/>
</g>
<defs>
<clipPath id="clip0_42_253">
<rect width="54" height="54" fill="white"/>
</clipPath>
</defs>
</svg>
